<svg width="63" height="59" viewBox="0 0 63 59" fill="none" xmlns="http://www.w3.org/2000/svg">
<g clip-path="url(#clip0_97_12839)">
<path d="M35.2602 58.0969H27.52V25.2441H35.2602V58.0969Z" stroke="#231F1F" stroke-miterlimit="10" stroke-linecap="round" stroke-linejoin="round"/>
<path d="M35.5166 14.4251V12.8698C35.5166 10.5622 33.6167 8.69238 31.2803 8.69238H31.4985C29.1592 8.69238 27.2637 10.5622 27.2637 12.8698V14.4251H35.5166Z" stroke="#231F1F" stroke-miterlimit="10" stroke-linecap="round" stroke-linejoin="round"/>
<path d="M54.2621 10.1013C54.2782 6.77181 52.056 6.7718 52.056 6.7718C54.0866 2.94223 50.0711 -2.13388 42.1669 2.75525C36.9522 5.9789 34.3564 8.61698 33.5581 9.35333C34.7358 10.0955 35.5166 11.3899 35.5166 12.8698V14.4251H49.0856C51.4249 14.4251 54.249 13.1293 54.2621 10.1013Z" stroke="#231F1F" stroke-miterlimit="10" stroke-linecap="round" stroke-linejoin="round"/>
<path d="M52.056 6.77148C52.056 6.77148 50.3569 9.38637 44.5388 10.101" stroke="#231F1F" stroke-miterlimit="10" stroke-linecap="round" stroke-linejoin="round"/>
<path d="M33.5581 9.35316C33.5581 9.35316 36.4453 9.81551 41.6441 7.29632C45.9229 5.22208 46.8502 2.52604 45.8674 1.06641" stroke="#231F1F" stroke-miterlimit="10" stroke-linecap="round" stroke-linejoin="round"/>
<path d="M8.51522 10.1013C8.4991 6.77181 10.7198 6.7718 10.7198 6.7718C8.69099 2.94223 12.7061 -2.13388 20.6104 2.75525C25.8253 5.9789 28.4195 8.61698 29.2193 9.35333C28.0445 10.0955 27.2638 11.3899 27.2638 12.8698V14.4251H13.6905C11.3526 14.4251 8.52985 13.1293 8.51522 10.1013Z" stroke="#231F1F" stroke-miterlimit="10" stroke-linecap="round" stroke-linejoin="round"/>
<path d="M10.7197 6.77148C10.7197 6.77148 12.419 9.38637 18.2388 10.101" stroke="#231F1F" stroke-miterlimit="10" stroke-linecap="round" stroke-linejoin="round"/>
<path d="M29.2193 9.35316C29.2193 9.35316 26.3321 9.81551 21.1319 7.29632C16.8545 5.22208 15.9273 2.52604 16.9102 1.06641" stroke="#231F1F" stroke-miterlimit="10" stroke-linecap="round" stroke-linejoin="round"/>
<path d="M35.5415 14.2251C36.7881 17.1908 40.4925 19.1244 42.6341 21.4218C45.0191 23.9802 47.1356 27.1691 47.7802 30.6623C48.9622 37.0502 47.4476 43.128 51.6709 48.3708C50.247 47.9011 48.8921 47.0662 47.5091 46.4502C47.5459 47.9664 47.2969 49.6128 48.0236 50.8841C40.7535 46.1619 43.3669 37.1156 41.4784 30.4753C40.3987 26.682 38.0726 24.1903 34.7022 21.9944C30.2197 19.0737 27.583 14.4251 27.583 14.4251L35.5415 14.2251Z" stroke="#231F1F" stroke-miterlimit="10" stroke-linecap="round" stroke-linejoin="round"/>
<path d="M27.583 14.4251L31.4224 14.328L27.2988 14.2251C26.0537 17.1908 22.3477 19.1244 20.206 21.4218C17.8213 23.9802 15.7075 27.1691 15.0601 30.6623C13.8779 37.0502 15.3926 43.128 11.1709 48.3708C12.5932 47.9011 13.9526 47.0662 15.331 46.4502C15.2959 47.9664 15.5434 49.6128 14.8169 50.8841C22.0898 46.1619 19.4736 37.1156 21.3633 30.4753C22.4429 26.682 24.769 24.1903 28.1382 21.9944C29.3804 21.187 30.4805 20.2448 31.4224 19.3056C28.9629 16.8545 27.583 14.4251 27.583 14.4251Z" stroke="#231F1F" stroke-miterlimit="10" stroke-linecap="round" stroke-linejoin="round"/>
<path d="M24.2314 25.2457H38.6104C37.5322 24.0411 36.2241 22.9859 34.7022 21.9945C33.4614 21.1871 32.3613 20.2449 31.4194 19.3057H31.4224C30.4805 20.2449 29.3804 21.1871 28.1382 21.9945C26.6162 22.9859 25.3081 24.0411 24.2314 25.2457Z" stroke="#231F1F" stroke-miterlimit="10" stroke-linecap="round" stroke-linejoin="round"/>
<path d="M59.0524 14.4253H35.6367C36.9624 17.2764 40.5409 19.1781 42.6341 21.422C43.7123 22.5772 44.7334 23.8644 45.5873 25.2457H62.0258V17.3605C62.0258 15.7371 60.696 14.4253 59.0524 14.4253Z" stroke="#231F1F" stroke-miterlimit="10" stroke-linecap="round" stroke-linejoin="round"/>
<path d="M20.2061 21.422C22.2993 19.1781 25.8794 17.2764 27.2051 14.4253H3.72363C2.08154 14.4253 0.75 15.7371 0.75 17.3605V25.2457H17.2529C18.1084 23.8644 19.1294 22.5772 20.2061 21.422Z" stroke="#231F1F" stroke-miterlimit="10" stroke-linecap="round" stroke-linejoin="round"/>
<path d="M45.5873 25.2456C46.629 26.9241 47.4274 28.7461 47.7803 30.6623C48.9623 37.0502 47.4476 43.128 51.6709 48.3708C50.247 47.9011 48.8921 47.0662 47.5091 46.4502C47.5459 47.9664 47.2969 49.6128 48.0236 50.8841C40.7535 46.1619 43.3669 37.1156 41.4784 30.4753C40.8851 28.3953 39.9169 26.7096 38.6104 25.2456H24.2315C22.9233 26.7096 21.9536 28.3953 21.3633 30.4753C19.4736 37.1156 22.0899 46.1619 14.8169 50.8841C15.5435 49.6128 15.2959 47.9664 15.3311 46.4502C13.9526 47.0662 12.5933 47.9011 11.1709 48.3708C15.3926 43.128 13.8779 37.0502 15.0601 30.6623C15.416 28.7461 16.2114 26.9241 17.2529 25.2456H5.37012V58.0984L57.4073 58.0969V25.2441L45.5873 25.2456Z" stroke="#231F1F" stroke-miterlimit="10" stroke-linecap="round" stroke-linejoin="round"/>
</g>
<defs>
<clipPath id="clip0_97_12839">
<rect width="63" height="59" fill="white"/>
</clipPath>
</defs>
</svg>
