<svg width="61" height="65" viewBox="0 0 61 65" fill="none" xmlns="http://www.w3.org/2000/svg">
<g clip-path="url(#clip0_97_12879)">
<path d="M30.4686 8.51416C18.4622 8.51416 8.69495 17.9628 8.69495 29.5771C8.69495 38.3071 14.2128 45.8112 22.0516 49.0026V54.4418C22.0516 55.7271 23.0023 56.8014 24.258 57.043V60.4634C24.258 60.4646 24.258 60.4657 24.258 60.4669C24.258 60.4677 24.258 60.4689 24.258 60.4701V62.2849C24.258 63.7461 25.4879 64.9342 26.9982 64.9342H33.9387C35.4491 64.9342 36.679 63.7461 36.679 62.2849V57.043C37.9345 56.8014 38.8854 55.7271 38.8854 54.4418V49.0026C46.7242 45.8124 52.2432 38.3071 52.2432 29.5771C52.2432 17.9628 42.4749 8.51416 30.4686 8.51416ZM35.2948 62.2857C35.2948 63.0079 34.6863 63.5961 33.9387 63.5961H26.9982C26.2507 63.5961 25.6421 63.0079 25.6421 62.2857V61.1359H30.4686C30.8505 61.1359 31.1612 60.8369 31.1612 60.4669C31.1612 60.0977 30.8505 59.7975 30.4686 59.7975H25.6421V57.0938H35.2948V62.2857ZM37.5013 54.4418C37.5013 55.1663 36.8928 55.7554 36.1452 55.7554H24.7918C24.0443 55.7554 23.4357 55.1663 23.4357 54.4418V49.5128C25.6421 50.2428 28.0063 50.64 30.4662 50.64C30.4674 50.64 30.4674 50.64 30.4686 50.64C30.4695 50.64 30.4707 50.64 30.4719 50.64C32.9308 50.64 35.2948 50.2428 37.5013 49.5128V54.4418ZM18.5661 29.5771C18.5661 23.2193 23.9134 18.0475 30.4848 18.0475C37.0575 18.0475 42.4046 23.2193 42.4046 29.5771C42.4046 35.935 37.0575 41.1067 30.4848 41.1067C23.9134 41.1067 18.5661 35.935 18.5661 29.5771ZM31.1612 49.2892V42.4292C38.1833 42.0872 43.7879 36.4541 43.7879 29.5771C43.7879 22.4812 37.82 16.708 30.4848 16.708C23.1495 16.708 17.182 22.4812 17.182 29.5771C17.182 36.4426 22.7699 42.0704 29.777 42.4269V49.2892C18.8523 48.935 10.0791 40.2288 10.0791 29.5771C10.0791 18.7009 19.2261 9.85252 30.4686 9.85252C41.7121 9.85252 50.8591 18.7009 50.8591 29.5771C50.8591 40.2288 42.0846 48.935 31.1612 49.2892Z" fill="black"/>
<path d="M30.4686 4.85578C30.8505 4.85578 31.1611 4.55673 31.1611 4.1866V0.818109C31.1611 0.447971 30.8505 0.148926 30.4686 0.148926C30.0865 0.148926 29.777 0.447971 29.777 0.818109V4.1866C29.777 4.55673 30.0865 4.85578 30.4686 4.85578Z" fill="black"/>
<path d="M20.7316 5.96646C20.8344 6.23845 21.0996 6.40658 21.3822 6.40658C21.4605 6.40658 21.5411 6.39416 21.6182 6.36596C21.9779 6.23957 22.1625 5.85587 22.0317 5.50831L20.8403 2.34295C20.7094 1.99538 20.3123 1.81595 19.9537 1.94234C19.5939 2.06873 19.4094 2.45354 19.5402 2.80111L20.7316 5.96646Z" fill="black"/>
<path d="M12.8614 10.6303C12.9981 10.7872 13.1943 10.8696 13.3917 10.8696C13.5482 10.8696 13.7071 10.8177 13.8367 10.7127C14.1287 10.4746 14.1673 10.0526 13.922 9.76933L11.6828 7.18851C11.4376 6.90526 11.0007 6.86915 10.7075 7.10612C10.4155 7.34423 10.377 7.76629 10.6223 8.04952L12.8614 10.6303Z" fill="black"/>
<path d="M7.80603 16.4576L4.79014 14.7728C4.45958 14.5877 4.03676 14.6983 3.84518 15.0188C3.6548 15.3382 3.7681 15.7478 4.09866 15.9329L7.11454 17.6166C7.22318 17.6775 7.34231 17.7057 7.4603 17.7057C7.69859 17.7057 7.93218 17.5861 8.0595 17.3717C8.25106 17.0512 8.13776 16.6416 7.80603 16.4576Z" fill="black"/>
<path d="M0.754587 25.4991L4.18513 26.0837C4.22484 26.0904 4.26574 26.0938 4.30545 26.0938C4.63482 26.0938 4.92685 25.8659 4.98641 25.5409C5.053 25.1764 4.80186 24.8299 4.42458 24.7656L0.995202 24.1799C0.619093 24.1167 0.260503 24.3594 0.193925 24.7239C0.127346 25.0872 0.378475 25.4348 0.754587 25.4991Z" fill="black"/>
<path d="M4.98641 34.2333C4.91985 33.8699 4.5624 33.6261 4.18513 33.6905L0.754587 34.2761C0.378475 34.3405 0.127346 34.6869 0.193925 35.0515C0.253495 35.3765 0.545507 35.6044 0.874895 35.6044C0.914608 35.6044 0.954324 35.6009 0.995202 35.5943L4.42458 35.0087C4.80186 34.9443 5.053 34.5979 4.98641 34.2333Z" fill="black"/>
<path d="M7.11454 42.1575L4.09866 43.8423C3.7681 44.0271 3.6548 44.4356 3.84518 44.7563C3.97367 44.9718 4.20613 45.0914 4.44555 45.0914C4.56238 45.0914 4.68151 45.0619 4.79131 45.001L7.80603 43.3162C8.13776 43.1325 8.25106 42.7228 8.0595 42.4021C7.86795 42.0818 7.44511 41.9723 7.11454 42.1575Z" fill="black"/>
<path d="M12.8614 49.144L10.6223 51.7249C10.377 52.0069 10.4155 52.4301 10.7075 52.6673C10.8372 52.7733 10.9961 52.8241 11.1526 52.8241C11.35 52.8241 11.5462 52.7427 11.6828 52.5846L13.922 50.0051C14.1673 49.7217 14.1287 49.2997 13.8367 49.0616C13.5435 48.8247 13.1067 48.8609 12.8614 49.144Z" fill="black"/>
<path d="M48.0754 49.1436C47.8302 48.8616 47.3934 48.8244 47.1003 49.0613C46.8082 49.2993 46.7696 49.7214 47.0151 50.0048L49.2542 52.5842C49.3908 52.7423 49.587 52.8235 49.7843 52.8235C49.941 52.8235 50.0998 52.7729 50.2296 52.6666C50.5214 52.4297 50.56 52.0065 50.3148 51.7245L48.0754 49.1436Z" fill="black"/>
<path d="M56.8382 43.8411L53.8211 42.1575C53.4907 41.9723 53.0667 42.0818 52.8762 42.4021C52.6846 42.7228 52.7979 43.1325 53.1298 43.3162L56.1469 45.001C56.2555 45.0619 56.3745 45.0903 56.4914 45.0903C56.7309 45.0903 56.9632 44.9707 57.0918 44.7563C57.282 44.4356 57.169 44.026 56.8382 43.8411Z" fill="black"/>
<path d="M60.1825 34.2754L56.7518 33.6907C56.3757 33.6274 56.0171 33.8701 55.9505 34.2335C55.8841 34.5981 56.1353 34.9456 56.5123 35.0098L59.9418 35.5945C59.9827 35.6011 60.0225 35.6046 60.062 35.6046C60.3915 35.6046 60.6836 35.3755 60.7431 35.0516C60.8095 34.6871 60.5586 34.3395 60.1825 34.2754Z" fill="black"/>
<path d="M55.9505 25.5409C56.0103 25.8659 56.3021 26.0938 56.6316 26.0938C56.6714 26.0938 56.7121 26.0904 56.7518 26.0837L60.1825 25.498C60.5586 25.4337 60.8095 25.0872 60.7431 24.7227C60.6765 24.3594 60.3191 24.1167 59.9418 24.1799L56.5111 24.7656C56.1353 24.8299 55.8841 25.1764 55.9505 25.5409Z" fill="black"/>
<path d="M53.4767 17.7067C53.5933 17.7067 53.7126 17.6773 53.8211 17.6164L56.8382 15.9315C57.169 15.7465 57.282 15.338 57.0918 15.0175C56.9001 14.697 56.4773 14.5875 56.1457 14.7726L53.1298 16.4574C52.7979 16.6425 52.6846 17.051 52.8762 17.3715C53.0048 17.587 53.2372 17.7067 53.4767 17.7067Z" fill="black"/>
<path d="M47.5453 10.8696C47.7426 10.8696 47.9388 10.7883 48.0754 10.6303L50.3136 8.04839C50.5588 7.76514 50.5214 7.3431 50.2284 7.10612C49.9351 6.86799 49.4994 6.90523 49.253 7.18849L47.0151 9.77043C46.7696 10.0537 46.8082 10.4757 47.1003 10.7127C47.2298 10.8188 47.3877 10.8696 47.5453 10.8696Z" fill="black"/>
<path d="M39.3175 6.36709C39.3958 6.39416 39.4766 6.40658 39.5546 6.40658C39.8375 6.40658 40.1024 6.23845 40.2053 5.96646L41.3957 2.79998C41.5263 2.45241 41.3407 2.06873 40.9821 1.94234C40.6224 1.81595 40.225 1.99538 40.0943 2.34295L38.9042 5.50831C38.7733 5.85587 38.959 6.2407 39.3175 6.36709Z" fill="black"/>
<path d="M31.1776 38.9661V36.1968C32.9424 35.8807 34.2832 34.3811 34.2832 32.5834C34.2832 30.5565 32.5791 28.9078 30.4848 28.9078C29.1533 28.9078 28.0705 27.8596 28.0705 26.572C28.0705 25.2833 29.1533 24.2349 30.4848 24.2349H33.5919C33.9737 24.2349 34.2832 23.9359 34.2832 23.5657C34.2832 23.1956 33.9737 22.8966 33.5919 22.8966H31.1776V20.1882C31.1776 19.8192 30.8669 19.519 30.4848 19.519C30.1029 19.519 29.7933 19.8192 29.7933 20.1882V22.9586C28.0273 23.2746 26.6863 24.7743 26.6863 26.572C26.6863 28.5976 28.3905 30.2462 30.4848 30.2462C31.8163 30.2462 32.9002 31.2946 32.9002 32.5834C32.9002 33.8709 31.8163 34.9193 30.4848 34.9193H27.3778C26.9959 34.9193 26.6863 35.2195 26.6863 35.5895C26.6863 35.9587 26.9959 36.2589 27.3778 36.2589H29.7933V38.9661C29.7933 39.3361 30.1029 39.6351 30.4848 39.6351C30.8669 39.6351 31.1776 39.3361 31.1776 38.9661Z" fill="black"/>
<path d="M37.7315 30.2461H38.6285C39.0104 30.2461 39.3211 29.9471 39.3211 29.5771C39.3211 29.207 39.0104 28.9077 38.6285 28.9077H37.7315C37.3493 28.9077 37.0399 29.207 37.0399 29.5771C37.0399 29.9471 37.3493 30.2461 37.7315 30.2461Z" fill="black"/>
<path d="M23.2371 28.9077H22.3412C21.9593 28.9077 21.6497 29.207 21.6497 29.5771C21.6497 29.9471 21.9593 30.2461 22.3412 30.2461H23.2371C23.6191 30.2461 23.9297 29.9471 23.9297 29.5771C23.9297 29.207 23.6191 28.9077 23.2371 28.9077Z" fill="black"/>
</g>
<defs>
<clipPath id="clip0_97_12879">
<rect width="61" height="65" fill="white"/>
</clipPath>
</defs>
</svg>
