<svg width="46" height="46" viewBox="0 0 46 46" fill="none" xmlns="http://www.w3.org/2000/svg">
<g clip-path="url(#clip0_97_12906)">
<path d="M33.5297 20.5597C33.4743 20.4104 33.3817 20.2912 33.2517 20.1999C33.1218 20.1097 32.9779 20.0646 32.8203 20.0646H25.8071L23.6959 12.9708C23.6725 12.8914 23.6384 12.8183 23.5915 12.7517C23.5446 12.6841 23.4882 12.6261 23.4232 12.5767C23.3572 12.5273 23.2858 12.4908 23.2091 12.465C23.1313 12.4382 23.0525 12.4253 22.9705 12.4253C22.8885 12.4253 22.8097 12.4382 22.7319 12.465C22.6552 12.4908 22.5838 12.5273 22.5178 12.5767C22.4528 12.6261 22.3964 12.6841 22.3495 12.7517C22.3026 12.8183 22.2675 12.8914 22.2451 12.9708L20.1339 20.0646H13.1207C12.962 20.0646 12.8182 20.1097 12.6883 20.1999C12.5583 20.2901 12.4656 20.4104 12.4102 20.5597C12.3548 20.709 12.3463 20.8603 12.3847 21.015C12.423 21.1696 12.5019 21.2985 12.6212 21.4037L18.2634 26.3799L15.4599 32.7404C15.4258 32.8155 15.4055 32.895 15.3981 32.9766C15.3896 33.0593 15.3949 33.1409 15.413 33.2214C15.4322 33.302 15.462 33.3782 15.5057 33.448C15.5483 33.5189 15.6005 33.5811 15.6633 33.6348C15.7262 33.6875 15.7954 33.7294 15.8721 33.7605C15.9488 33.7906 16.0276 33.8088 16.1096 33.8131C16.1916 33.8174 16.2726 33.8088 16.3514 33.7873C16.4303 33.7659 16.5037 33.7315 16.573 33.6853L22.9705 29.3835L29.3691 33.6842C29.4373 33.7304 29.5108 33.7637 29.5906 33.7852C29.6695 33.8077 29.7504 33.8163 29.8325 33.811C29.9145 33.8067 29.9933 33.7895 30.07 33.7583C30.1456 33.7283 30.2159 33.6864 30.2788 33.6327C30.3405 33.579 30.3938 33.5178 30.4364 33.4469C30.479 33.376 30.5099 33.3009 30.528 33.2204C30.5472 33.1387 30.5525 33.0582 30.544 32.9755C30.5365 32.8928 30.5152 32.8144 30.4822 32.7382L27.6786 26.3789L33.3209 21.4016C33.4392 21.2974 33.5169 21.1675 33.5553 21.0139C33.5936 20.8593 33.5851 20.7079 33.5297 20.5597ZM26.2598 25.6014C26.1991 25.6551 26.148 25.7163 26.1064 25.7872C26.0649 25.857 26.0361 25.9321 26.0191 26.0116C26.001 26.0911 25.9967 26.1716 26.0052 26.2532C26.0127 26.3337 26.034 26.4121 26.066 26.4863L28.0365 30.9545L23.3912 27.8318C23.2634 27.747 23.1239 27.704 22.9705 27.704C22.8171 27.704 22.6776 27.747 22.5498 27.8318L17.9045 30.9545L19.8751 26.4863C19.907 26.4121 19.9283 26.3337 19.9358 26.2532C19.9443 26.1716 19.9401 26.0911 19.922 26.0116C19.9049 25.9321 19.8761 25.857 19.8346 25.7872C19.793 25.7163 19.7419 25.6551 19.6812 25.6014L15.135 21.5927H20.6974C20.7794 21.5927 20.8582 21.5799 20.936 21.554C21.0127 21.5283 21.084 21.4907 21.1501 21.4413C21.2151 21.393 21.2715 21.335 21.3184 21.2674C21.3653 21.1997 21.4004 21.1267 21.4228 21.0483L22.9705 15.8477L24.5182 21.0472C24.5406 21.1267 24.5757 21.1997 24.6226 21.2663C24.6695 21.3339 24.7259 21.3919 24.7909 21.4413C24.857 21.4896 24.9283 21.5272 25.005 21.553C25.0828 21.5788 25.1616 21.5916 25.2436 21.5916H30.8039L26.2598 25.6014Z" fill="black"/>
<path d="M41.3878 9.68587C41.3292 9.60214 41.2576 9.5334 41.1715 9.47969C41.0851 9.42494 40.9923 9.38949 40.8922 9.37341C40.7931 9.3562 40.6941 9.3605 40.595 9.38306C40.4971 9.40669 40.4066 9.44858 40.3246 9.50871C40.2426 9.56885 40.1755 9.64185 40.122 9.72884C40.0701 9.81583 40.036 9.91034 40.02 10.0113C40.0052 10.1122 40.0093 10.2121 40.0337 10.3109C40.0582 10.4107 40.1009 10.5009 40.1617 10.5825C40.4225 10.9477 40.6729 11.3192 40.9115 11.7004C41.15 12.0806 41.3759 12.4682 41.59 12.8623C41.804 13.2575 42.0054 13.6581 42.195 14.0661C42.3835 14.4731 42.5604 14.8865 42.7233 15.3054C42.8865 15.7241 43.0367 16.1472 43.1729 16.5757C43.3101 17.0042 43.4329 17.4369 43.5424 17.8729C43.6522 18.3089 43.7482 18.7481 43.8302 19.1905C43.9133 19.6319 43.9812 20.0764 44.0357 20.5232C44.0899 20.9699 44.1303 21.4177 44.1571 21.8666C44.1827 22.3165 44.1956 22.7654 44.1934 23.2153C44.1923 23.6652 44.1763 24.1152 44.1467 24.5641C44.1166 25.0129 44.0721 25.4596 44.0142 25.9064C43.9567 26.352 43.8844 26.7966 43.7991 27.2379C43.7141 27.6793 43.614 28.1174 43.5008 28.5534C43.388 28.9883 43.2612 29.4189 43.1217 29.8463C42.9811 30.2737 42.8279 30.6957 42.6617 31.1135C42.4955 31.5312 42.3156 31.9425 42.1238 32.3484C41.932 32.7554 41.7265 33.1548 41.5091 33.5479C41.2917 33.9409 41.0628 34.3264 40.8221 34.7044C40.5802 35.0834 40.3279 35.4539 40.0627 35.8158C39.7986 36.1777 39.5226 36.5321 39.2358 36.8768C38.9494 37.2215 38.6523 37.5567 38.3444 37.8832C38.0365 38.2085 37.7193 38.5242 37.3921 38.8301C37.064 39.136 36.7275 39.4315 36.3823 39.7149C36.0362 39.9995 35.6814 40.2733 35.3182 40.5343C34.9561 40.7965 34.5853 41.0467 34.2061 41.2849C33.828 41.5231 33.4424 41.7487 33.0494 41.9626C32.6563 42.1761 32.2579 42.3769 31.8521 42.5662C31.4473 42.7539 31.0361 42.9289 30.6197 43.0913C30.2032 43.2532 29.7824 43.4024 29.3574 43.5378C28.9314 43.6732 28.5021 43.7955 28.0686 43.9028C27.6361 44.0113 27.1993 44.1059 26.7605 44.1863C26.3216 44.2671 25.8807 44.3325 25.4365 44.3852C24.9933 44.4376 24.5491 44.4765 24.1039 44.5001C23.6576 44.5236 23.2124 44.5345 22.7661 44.53C22.3197 44.5259 21.8734 44.5075 21.4282 44.4743C20.984 44.4421 20.5398 44.395 20.0978 44.3348C19.6557 44.2734 19.2158 44.1982 18.778 44.1104C18.3402 44.021 17.9066 43.9181 17.4752 43.8022C17.0438 43.6859 16.6167 43.5561 16.1938 43.4121C15.7709 43.2682 15.3534 43.1115 14.9401 42.942C14.5268 42.7711 14.1188 42.5886 13.7173 42.3919C13.3157 42.1967 12.9205 41.9873 12.5317 41.7659C12.1429 41.5448 11.7616 41.3118 11.3877 41.0669C11.0138 40.8212 10.6485 40.5643 10.2895 40.2961C9.93161 40.0265 9.58327 39.7471 9.24242 39.4561C8.90154 39.1652 8.57134 38.8634 8.24968 38.5518C7.92797 38.2396 7.61588 37.9183 7.31443 37.5866C7.01298 37.2548 6.72218 36.9133 6.44203 36.5632C6.16191 36.2131 5.89348 35.8545 5.63569 35.4872C5.3779 35.1189 5.13184 34.7441 4.8975 34.3608C4.66316 33.9785 4.44162 33.5887 4.23176 33.1913C4.02194 32.794 3.82488 32.3902 3.64059 31.9811C3.45525 31.5709 3.28375 31.1564 3.12504 30.7354C2.96739 30.3156 2.82146 29.8903 2.68938 29.4597C2.5573 29.0302 2.43906 28.5964 2.33467 28.1593C2.22922 27.7222 2.13868 27.282 2.06092 26.8384C1.98423 26.396 1.92031 25.9504 1.87132 25.5037C1.82125 25.0559 1.7861 24.6081 1.7648 24.1581C1.74349 23.7092 1.73604 23.2593 1.74243 22.8094C1.74882 22.3594 1.77012 21.9106 1.80527 21.4617C1.83936 21.0139 1.88836 20.5661 1.9512 20.1205C2.01405 19.6759 2.09074 19.2324 2.18129 18.7921C2.27183 18.3518 2.37621 17.9137 2.49338 17.4799C2.61162 17.0461 2.74264 16.6165 2.8875 16.1912C3.03237 15.7649 3.19002 15.3451 3.36151 14.9295C3.53194 14.5139 3.71623 14.1037 3.91329 13.6999C4.10927 13.2962 4.31912 12.8988 4.54067 12.508C4.76225 12.1181 4.99551 11.7348 5.2405 11.3589C5.48656 10.9831 5.74327 10.6159 6.0117 10.2561C6.28013 9.89635 6.56029 9.5463 6.85002 9.20482C7.14082 8.86333 7.44119 8.5315 7.75328 8.20826C8.0643 7.88611 8.38493 7.57365 8.71621 7.27188C9.0464 6.97011 9.38621 6.67803 9.73559 6.39777C10.0839 6.11751 10.4418 5.84902 10.8072 5.59131C11.1736 5.3336 11.5464 5.08767 11.9277 4.85359C12.3091 4.61948 12.6979 4.39718 13.092 4.18779C13.4872 3.97948 13.8888 3.78295 14.2957 3.59825C14.7036 3.41462 15.1158 3.24388 15.5345 3.0871C15.952 2.92924 16.3749 2.78534 16.802 2.65433C17.2292 2.52332 17.6595 2.40627 18.0941 2.30318C18.5287 2.2001 18.9655 2.11097 19.4054 2.0358C19.8453 1.95955 20.2874 1.89834 20.7315 1.85109C21.1746 1.80385 21.6199 1.77056 22.0662 1.75123C22.5115 1.7319 22.9578 1.7276 23.4041 1.7362C23.8504 1.74586 24.2957 1.76948 24.7398 1.80707C25.1851 1.84465 25.6282 1.8962 26.0692 1.9617C26.5112 2.02721 26.9501 2.10774 27.3868 2.20117C27.8235 2.29459 28.256 2.40198 28.6864 2.52332C29.1156 2.64467 29.5417 2.7789 29.9625 2.92709C30.3842 3.07635 30.8007 3.23743 31.2119 3.41247C31.6231 3.58644 32.0279 3.77435 32.4284 3.97518C32.8278 4.17597 33.2198 4.38862 33.6064 4.61409C33.9931 4.8396 34.3713 5.07693 34.743 5.32713C35.1137 5.57628 35.4769 5.8372 35.8316 6.10999C36.1874 6.38273 36.5336 6.66621 36.8702 6.96155C36.9469 7.02382 37.0321 7.07 37.1257 7.09899C37.2207 7.12797 37.3164 7.1387 37.4143 7.13014C37.5127 7.12154 37.605 7.09469 37.6937 7.04958C37.7809 7.00448 37.8565 6.94435 37.9215 6.86917C37.9853 6.79509 38.0346 6.71027 38.0665 6.61685C38.0984 6.52234 38.111 6.4257 38.1058 6.3269C38.1006 6.22809 38.0762 6.13359 38.0346 6.04338C37.9931 5.95318 37.9356 5.87479 37.8628 5.80822C37.5019 5.4925 37.1324 5.18969 36.7519 4.89761C36.3727 4.60657 35.984 4.32739 35.5866 4.06C35.1893 3.79368 34.7846 3.53918 34.3713 3.29757C33.958 3.05703 33.5372 2.82937 33.1101 2.6146C32.6829 2.40091 32.2494 2.2001 31.8095 2.01325C31.3696 1.8264 30.9243 1.65351 30.4727 1.49458C30.0221 1.33672 29.5673 1.19283 29.1071 1.06289C28.648 0.932957 28.1846 0.818054 27.717 0.718186C27.2505 0.618317 26.7807 0.533486 26.3089 0.462609C25.8359 0.392812 25.3619 0.338044 24.8868 0.297238C24.4107 0.257505 23.9346 0.232807 23.4574 0.223143C22.9801 0.212404 22.5029 0.217773 22.0257 0.23925C21.5485 0.259653 21.0724 0.29509 20.5984 0.345561C20.1233 0.397106 19.6504 0.462609 19.1806 0.54315C18.7098 0.623687 18.2422 0.720332 17.7778 0.830942C17.3123 0.941547 16.8521 1.06611 16.3952 1.20571C15.9382 1.34639 15.4866 1.49995 15.0392 1.66854C14.5918 1.83714 14.1508 2.01969 13.7151 2.21728C13.2795 2.41379 12.8502 2.62426 12.4273 2.84763C12.0055 3.07206 11.5901 3.30938 11.1821 3.55959C10.7752 3.8098 10.3758 4.0729 9.9838 4.34886C9.59288 4.62486 9.21045 4.91264 8.83766 5.21224C8.46376 5.51184 8.10055 5.82434 7.7469 6.14757C7.39326 6.47077 7.05026 6.80474 6.71684 7.14948C6.38452 7.49418 6.06282 7.84961 5.7518 8.21473C5.44075 8.5809 5.14252 8.95567 4.85491 9.34012C4.56838 9.72454 4.29357 10.1176 4.03044 10.5192C3.76842 10.9219 3.5181 11.331 3.28162 11.7498C3.04409 12.1676 2.82146 12.5917 2.61055 13.0245C2.40071 13.4562 2.20366 13.8943 2.02044 14.3389C1.8383 14.7835 1.66893 15.2334 1.51448 15.6887C1.36003 16.144 1.21942 16.6036 1.09373 17.0675C0.966971 17.5325 0.856193 17.9996 0.759259 18.471C0.662329 18.9425 0.580308 19.416 0.513203 19.8928C0.446095 20.3696 0.3939 20.8475 0.357684 21.3275C0.320403 21.8075 0.298034 22.2875 0.290578 22.7686C0.284187 23.2497 0.291643 23.7308 0.315077 24.2118C0.337446 24.6918 0.375793 25.1719 0.429053 25.6497C0.481245 26.1286 0.549417 26.6044 0.632503 27.079C0.714524 27.5526 0.812519 28.0229 0.924366 28.4911C1.03727 28.9593 1.16403 29.4232 1.30464 29.8828C1.44631 30.3424 1.60182 30.7967 1.77119 31.2466C1.94162 31.6965 2.12483 32.14 2.32189 32.5782C2.52002 33.0174 2.73092 33.448 2.95568 33.8732C3.17937 34.2974 3.4169 34.7151 3.66722 35.1243C3.91859 35.5345 4.18172 35.935 4.45761 36.3281C4.73242 36.7211 5.01999 37.1055 5.3204 37.4793C5.6197 37.854 5.93076 38.219 6.2535 38.5735C6.57624 38.9288 6.90967 39.2725 7.2537 39.6065C7.59777 39.9404 7.95142 40.2624 8.31571 40.574C8.68 40.8844 9.05386 41.1839 9.43629 41.4719C9.81976 41.7584 10.2107 42.0333 10.6112 42.2965C11.0106 42.5583 11.4186 42.8089 11.8351 43.0449C12.2505 43.2812 12.6734 43.5045 13.1026 43.7139C13.533 43.9234 13.9687 44.1197 14.4107 44.3015C14.8528 44.484 15.3001 44.6515 15.7518 44.8049C16.2045 44.9586 16.6614 45.0969 17.1227 45.2215C17.5839 45.3464 18.0483 45.4556 18.5159 45.5502C18.9846 45.6459 19.4544 45.7252 19.9273 45.7907C20.4002 45.8554 20.8753 45.9059 21.3515 45.9399C21.8276 45.9754 22.3048 45.9949 22.782 45.999C23.2592 46.0035 23.7364 45.9937 24.2126 45.9668C24.6898 45.941 25.1648 45.9002 25.6389 45.8445C26.1129 45.7888 26.5847 45.7177 27.0545 45.6317C27.5242 45.5461 27.9908 45.4451 28.4541 45.3292C28.9175 45.2132 29.3766 45.0831 29.8325 44.938C30.2873 44.7933 30.7379 44.6343 31.1832 44.4604C31.6284 44.2865 32.0673 44.0995 32.5008 43.8976C32.9343 43.6956 33.3615 43.4809 33.7811 43.2521C34.2019 43.0236 34.6141 42.782 35.0189 42.5273C35.4237 42.273 35.821 42.0056 36.2087 41.7251C36.5975 41.445 36.9767 41.1529 37.3465 40.8489C37.7159 40.5441 38.0762 40.2284 38.4263 39.9019C38.7769 39.5743 39.1167 39.237 39.4447 38.8881C39.7741 38.5391 40.0924 38.1805 40.3992 37.8121C40.7048 37.4426 40.9997 37.0647 41.2832 36.6771C41.5655 36.2894 41.8359 35.8932 42.0948 35.4883C42.3527 35.0834 42.5979 34.6711 42.8308 34.2502C43.0631 33.8303 43.2816 33.4029 43.4871 32.968C43.6926 32.5341 43.8844 32.0939 44.0636 31.6471C44.2413 31.2004 44.4052 30.7483 44.5544 30.292C44.7046 29.8345 44.84 29.3738 44.9602 28.9078C45.0819 28.4428 45.1883 27.9735 45.28 27.501C45.3716 27.0285 45.448 26.5539 45.51 26.0771C45.5716 25.6003 45.6187 25.1214 45.6506 24.6414C45.6825 24.1603 45.6995 23.6803 45.7018 23.1992C45.7029 22.717 45.6899 22.237 45.6621 21.7559C45.6335 21.2759 45.5908 20.797 45.5322 20.3191C45.4736 19.8412 45.4013 19.3655 45.313 18.8931C45.2254 18.4195 45.1223 17.9502 45.0051 17.4842C44.8879 17.017 44.7558 16.5553 44.61 16.0968C44.4638 15.6382 44.3032 15.1851 44.1285 14.7373C43.9538 14.2895 43.7653 13.8481 43.5639 13.4121C43.3613 12.9761 43.1451 12.5466 42.9162 12.1246C42.6873 11.7026 42.4454 11.2881 42.1898 10.8811C41.9353 10.4741 41.6679 10.0757 41.3878 9.68587Z" fill="black"/>
<path d="M38.9995 9.10692C39.0666 9.17992 39.1441 9.23684 39.2339 9.27981C39.3222 9.3217 39.4161 9.34529 39.514 9.35176C39.613 9.35711 39.7088 9.34316 39.8015 9.31093C39.8942 9.27872 39.9785 9.23041 40.053 9.16597C40.1276 9.10048 40.1873 9.02423 40.2318 8.93511C40.2767 8.84704 40.3023 8.75361 40.3108 8.65481C40.3194 8.55604 40.3097 8.45832 40.2808 8.36381C40.2511 8.26931 40.2062 8.1834 40.1435 8.1061C39.9124 7.83653 39.6739 7.57347 39.4309 7.31681C39.3626 7.2395 39.2818 7.17828 39.189 7.13427C39.0963 7.08916 38.9984 7.06553 38.896 7.06123C38.7939 7.05693 38.6938 7.07304 38.5977 7.10954C38.502 7.14605 38.4167 7.19975 38.3421 7.27062C38.2675 7.34257 38.21 7.42526 38.1696 7.52085C38.1292 7.61532 38.108 7.71413 38.1069 7.81828C38.1058 7.92139 38.1251 8.02124 38.1644 8.11683C38.2037 8.21239 38.2601 8.29616 38.3336 8.36916C38.5606 8.61079 38.7832 8.85668 38.9995 9.10692Z" fill="black"/>
<path d="M9.33181 34.5775C9.33181 34.4765 9.31264 34.3788 9.27428 34.2854C9.23596 34.1919 9.18057 34.1093 9.11027 34.0373C9.0389 33.9654 8.95688 33.9106 8.86421 33.8719C8.77154 33.8333 8.67461 33.814 8.57448 33.814C8.47328 33.814 8.37743 33.8333 8.28472 33.8719C8.19101 33.9106 8.11003 33.9654 8.0387 34.0373C7.96732 34.1093 7.91297 34.1919 7.87465 34.2854C7.8363 34.3788 7.81604 34.4765 7.81604 34.5775C7.81604 34.7278 7.83095 34.8771 7.85974 35.0242C7.88957 35.1724 7.93215 35.3152 7.98969 35.4548C8.04719 35.5933 8.11645 35.7254 8.19951 35.8511C8.28261 35.9756 8.37635 36.0916 8.48285 36.1979C8.58832 36.3042 8.70228 36.3987 8.82693 36.4825C8.9505 36.5662 9.08149 36.6371 9.21997 36.6951C9.35737 36.752 9.50012 36.796 9.64606 36.825C9.79304 36.854 9.94005 36.869 10.0892 36.869C10.1903 36.869 10.2873 36.8497 10.3799 36.8111C10.4726 36.7724 10.5546 36.7166 10.625 36.6457C10.6963 36.5737 10.7517 36.4911 10.7901 36.3976C10.8284 36.3042 10.8476 36.2065 10.8476 36.1055C10.8476 36.0035 10.8284 35.9069 10.7901 35.8124C10.7517 35.719 10.6963 35.6363 10.625 35.5654C10.5546 35.4934 10.4726 35.4387 10.3799 35.3989C10.2873 35.3603 10.1903 35.341 10.0892 35.341C9.98902 35.341 9.89209 35.3216 9.79942 35.283C9.70675 35.2443 9.62473 35.1896 9.55336 35.1176C9.48306 35.0456 9.42767 34.963 9.38935 34.8695C9.35099 34.7761 9.33181 34.6784 9.33181 34.5775Z" fill="black"/>
<path d="M11.6049 36.1057C11.6049 36.2066 11.6241 36.3044 11.6625 36.3978C11.7008 36.4912 11.7562 36.5739 11.8265 36.6458C11.8978 36.7167 11.9799 36.7725 12.0726 36.8112C12.1652 36.8499 12.2622 36.8692 12.3623 36.8692H35.8518C36.0009 36.8692 36.1479 36.8542 36.2949 36.8252C36.4408 36.7962 36.5836 36.7522 36.721 36.6952C36.8595 36.6373 36.9905 36.5664 37.1142 36.4826C37.2385 36.3989 37.3528 36.3044 37.4581 36.1981C37.5646 36.0917 37.6584 35.9758 37.7415 35.8512C37.8246 35.7256 37.8936 35.5935 37.9511 35.455C38.0086 35.3154 38.0513 35.1725 38.0802 35.0243C38.1099 34.8772 38.124 34.728 38.124 34.5776V11.6617C38.124 11.5114 38.1099 11.3621 38.0802 11.215C38.0513 11.0679 38.0086 10.924 37.9511 10.7855C37.8936 10.6458 37.8246 10.5138 37.7415 10.3892C37.6584 10.2636 37.5646 10.1476 37.4581 10.0413C37.3528 9.93494 37.2385 9.84048 37.1142 9.7567C36.9905 9.67293 36.8595 9.60206 36.721 9.54514C36.5836 9.48717 36.4408 9.4442 36.2949 9.41413C36.1479 9.38515 36.0009 9.37012 35.8518 9.37012H10.0892C9.94005 9.37012 9.79304 9.38515 9.64606 9.41413C9.50012 9.4442 9.35737 9.48717 9.21997 9.54514C9.08149 9.60206 8.9505 9.67293 8.82693 9.7567C8.70228 9.84048 8.58832 9.93494 8.48285 10.0413C8.37635 10.1476 8.28261 10.2636 8.19951 10.3892C8.11645 10.5138 8.04719 10.6458 7.98969 10.7855C7.93215 10.924 7.88957 11.0679 7.85974 11.215C7.83095 11.3621 7.81604 11.5114 7.81604 11.6617V32.286C7.81604 32.387 7.8363 32.4847 7.87465 32.5781C7.91297 32.6715 7.96732 32.7542 8.0387 32.8262C8.11003 32.8981 8.19101 32.9529 8.28472 32.9915C8.37743 33.0302 8.47328 33.0495 8.57448 33.0495C8.67461 33.0495 8.77154 33.0302 8.86421 32.9915C8.95688 32.9529 9.0389 32.8981 9.11027 32.8262C9.18057 32.7542 9.23596 32.6715 9.27428 32.5781C9.31264 32.4847 9.33181 32.387 9.33181 32.286V11.6617C9.33181 11.5608 9.35099 11.463 9.38935 11.3696C9.42767 11.2762 9.48306 11.1935 9.55336 11.1216C9.62473 11.0507 9.70675 10.9949 9.79942 10.9562C9.89209 10.9175 9.98902 10.8982 10.0892 10.8982H35.8518C35.9519 10.8982 36.0488 10.9175 36.1415 10.9562C36.2342 10.9949 36.3162 11.0507 36.3876 11.1216C36.4579 11.1935 36.5133 11.2762 36.5516 11.3696C36.59 11.463 36.6091 11.5608 36.6091 11.6617V34.5776C36.6091 34.6786 36.59 34.7763 36.5516 34.8697C36.5133 34.9631 36.4579 35.0458 36.3876 35.1178C36.3162 35.1897 36.2342 35.2445 36.1415 35.2832C36.0488 35.3218 35.9519 35.3411 35.8518 35.3411H12.3623C12.2622 35.3411 12.1652 35.3605 12.0726 35.3991C11.9799 35.4388 11.8978 35.4936 11.8265 35.5655C11.7562 35.6364 11.7008 35.7191 11.6625 35.8125C11.6241 35.907 11.6049 36.0037 11.6049 36.1057Z" fill="black"/>
</g>
<defs>
<clipPath id="clip0_97_12906">
<rect width="46" height="46" fill="white"/>
</clipPath>
</defs>
</svg>
