<svg width="291" height="85" viewBox="0 0 291 85" fill="none" xmlns="http://www.w3.org/2000/svg">
<path d="M23.9023 51V48.825L30.8523 42.225C31.4357 41.675 31.869 41.1917 32.1523 40.775C32.4357 40.3583 32.619 39.975 32.7023 39.625C32.8023 39.2583 32.8523 38.9167 32.8523 38.6C32.8523 37.8 32.5773 37.1833 32.0273 36.75C31.4773 36.3 30.669 36.075 29.6023 36.075C28.7523 36.075 27.9773 36.225 27.2773 36.525C26.594 36.825 26.0023 37.2833 25.5023 37.9L23.2273 36.15C23.9107 35.2333 24.8273 34.525 25.9773 34.025C27.144 33.5083 28.444 33.25 29.8773 33.25C31.144 33.25 32.244 33.4583 33.1773 33.875C34.1273 34.275 34.8523 34.85 35.3523 35.6C35.869 36.35 36.1273 37.2417 36.1273 38.275C36.1273 38.8417 36.0523 39.4083 35.9023 39.975C35.7523 40.525 35.469 41.1083 35.0523 41.725C34.6357 42.3417 34.0273 43.0333 33.2273 43.8L27.2523 49.475L26.5773 48.25H36.8023V51H23.9023ZM45.9781 51.25C44.5948 51.25 43.3448 50.9 42.2281 50.2C41.1281 49.5 40.2615 48.4833 39.6281 47.15C38.9948 45.8 38.6781 44.1667 38.6781 42.25C38.6781 40.3333 38.9948 38.7083 39.6281 37.375C40.2615 36.025 41.1281 35 42.2281 34.3C43.3448 33.6 44.5948 33.25 45.9781 33.25C47.3781 33.25 48.6281 33.6 49.7281 34.3C50.8281 35 51.6948 36.025 52.3281 37.375C52.9781 38.7083 53.3031 40.3333 53.3031 42.25C53.3031 44.1667 52.9781 45.8 52.3281 47.15C51.6948 48.4833 50.8281 49.5 49.7281 50.2C48.6281 50.9 47.3781 51.25 45.9781 51.25ZM45.9781 48.425C46.7948 48.425 47.5031 48.2083 48.1031 47.775C48.7031 47.325 49.1698 46.6417 49.5031 45.725C49.8531 44.8083 50.0281 43.65 50.0281 42.25C50.0281 40.8333 49.8531 39.675 49.5031 38.775C49.1698 37.8583 48.7031 37.1833 48.1031 36.75C47.5031 36.3 46.7948 36.075 45.9781 36.075C45.1948 36.075 44.4948 36.3 43.8781 36.75C43.2781 37.1833 42.8031 37.8583 42.4531 38.775C42.1198 39.675 41.9531 40.8333 41.9531 42.25C41.9531 43.65 42.1198 44.8083 42.4531 45.725C42.8031 46.6417 43.2781 47.325 43.8781 47.775C44.4948 48.2083 45.1948 48.425 45.9781 48.425ZM62.7994 51.25C61.4161 51.25 60.1661 50.9 59.0494 50.2C57.9494 49.5 57.0827 48.4833 56.4494 47.15C55.8161 45.8 55.4994 44.1667 55.4994 42.25C55.4994 40.3333 55.8161 38.7083 56.4494 37.375C57.0827 36.025 57.9494 35 59.0494 34.3C60.1661 33.6 61.4161 33.25 62.7994 33.25C64.1994 33.25 65.4494 33.6 66.5494 34.3C67.6494 35 68.5161 36.025 69.1494 37.375C69.7994 38.7083 70.1244 40.3333 70.1244 42.25C70.1244 44.1667 69.7994 45.8 69.1494 47.15C68.5161 48.4833 67.6494 49.5 66.5494 50.2C65.4494 50.9 64.1994 51.25 62.7994 51.25ZM62.7994 48.425C63.6161 48.425 64.3244 48.2083 64.9244 47.775C65.5244 47.325 65.9911 46.6417 66.3244 45.725C66.6744 44.8083 66.8494 43.65 66.8494 42.25C66.8494 40.8333 66.6744 39.675 66.3244 38.775C65.9911 37.8583 65.5244 37.1833 64.9244 36.75C64.3244 36.3 63.6161 36.075 62.7994 36.075C62.0161 36.075 61.3161 36.3 60.6994 36.75C60.0994 37.1833 59.6244 37.8583 59.2744 38.775C58.9411 39.675 58.7744 40.8333 58.7744 42.25C58.7744 43.65 58.9411 44.8083 59.2744 45.725C59.6244 46.6417 60.0994 47.325 60.6994 47.775C61.3161 48.2083 62.0161 48.425 62.7994 48.425ZM86.5299 51.25C85.1466 51.25 83.8965 50.9 82.7799 50.2C81.6799 49.5 80.8132 48.4833 80.1799 47.15C79.5465 45.8 79.2299 44.1667 79.2299 42.25C79.2299 40.3333 79.5465 38.7083 80.1799 37.375C80.8132 36.025 81.6799 35 82.7799 34.3C83.8965 33.6 85.1466 33.25 86.5299 33.25C87.9299 33.25 89.1799 33.6 90.2799 34.3C91.3799 35 92.2466 36.025 92.8799 37.375C93.5299 38.7083 93.8549 40.3333 93.8549 42.25C93.8549 44.1667 93.5299 45.8 92.8799 47.15C92.2466 48.4833 91.3799 49.5 90.2799 50.2C89.1799 50.9 87.9299 51.25 86.5299 51.25ZM86.5299 48.425C87.3466 48.425 88.0549 48.2083 88.6549 47.775C89.2549 47.325 89.7215 46.6417 90.0549 45.725C90.4049 44.8083 90.5799 43.65 90.5799 42.25C90.5799 40.8333 90.4049 39.675 90.0549 38.775C89.7215 37.8583 89.2549 37.1833 88.6549 36.75C88.0549 36.3 87.3466 36.075 86.5299 36.075C85.7465 36.075 85.0465 36.3 84.4299 36.75C83.8299 37.1833 83.3549 37.8583 83.0049 38.775C82.6715 39.675 82.5049 40.8333 82.5049 42.25C82.5049 43.65 82.6715 44.8083 83.0049 45.725C83.3549 46.6417 83.8299 47.325 84.4299 47.775C85.0465 48.2083 85.7465 48.425 86.5299 48.425ZM103.351 51.25C101.968 51.25 100.718 50.9 99.6012 50.2C98.5012 49.5 97.6345 48.4833 97.0012 47.15C96.3678 45.8 96.0512 44.1667 96.0512 42.25C96.0512 40.3333 96.3678 38.7083 97.0012 37.375C97.6345 36.025 98.5012 35 99.6012 34.3C100.718 33.6 101.968 33.25 103.351 33.25C104.751 33.25 106.001 33.6 107.101 34.3C108.201 35 109.068 36.025 109.701 37.375C110.351 38.7083 110.676 40.3333 110.676 42.25C110.676 44.1667 110.351 45.8 109.701 47.15C109.068 48.4833 108.201 49.5 107.101 50.2C106.001 50.9 104.751 51.25 103.351 51.25ZM103.351 48.425C104.168 48.425 104.876 48.2083 105.476 47.775C106.076 47.325 106.543 46.6417 106.876 45.725C107.226 44.8083 107.401 43.65 107.401 42.25C107.401 40.8333 107.226 39.675 106.876 38.775C106.543 37.8583 106.076 37.1833 105.476 36.75C104.876 36.3 104.168 36.075 103.351 36.075C102.568 36.075 101.868 36.3 101.251 36.75C100.651 37.1833 100.176 37.8583 99.8262 38.775C99.4928 39.675 99.3262 40.8333 99.3262 42.25C99.3262 43.65 99.4928 44.8083 99.8262 45.725C100.176 46.6417 100.651 47.325 101.251 47.775C101.868 48.2083 102.568 48.425 103.351 48.425ZM120.172 51.25C118.789 51.25 117.539 50.9 116.422 50.2C115.322 49.5 114.456 48.4833 113.822 47.15C113.189 45.8 112.872 44.1667 112.872 42.25C112.872 40.3333 113.189 38.7083 113.822 37.375C114.456 36.025 115.322 35 116.422 34.3C117.539 33.6 118.789 33.25 120.172 33.25C121.572 33.25 122.822 33.6 123.922 34.3C125.022 35 125.889 36.025 126.522 37.375C127.172 38.7083 127.497 40.3333 127.497 42.25C127.497 44.1667 127.172 45.8 126.522 47.15C125.889 48.4833 125.022 49.5 123.922 50.2C122.822 50.9 121.572 51.25 120.172 51.25ZM120.172 48.425C120.989 48.425 121.697 48.2083 122.297 47.775C122.897 47.325 123.364 46.6417 123.697 45.725C124.047 44.8083 124.222 43.65 124.222 42.25C124.222 40.8333 124.047 39.675 123.697 38.775C123.364 37.8583 122.897 37.1833 122.297 36.75C121.697 36.3 120.989 36.075 120.172 36.075C119.389 36.075 118.689 36.3 118.072 36.75C117.472 37.1833 116.997 37.8583 116.647 38.775C116.314 39.675 116.147 40.8333 116.147 42.25C116.147 43.65 116.314 44.8083 116.647 45.725C116.997 46.6417 117.472 47.325 118.072 47.775C118.689 48.2083 119.389 48.425 120.172 48.425ZM138.753 51V33.5H145.953C148.253 33.5 150.061 34 151.378 35C152.711 35.9833 153.378 37.4417 153.378 39.375C153.378 41.2917 152.711 42.75 151.378 43.75C150.061 44.7333 148.253 45.225 145.953 45.225H140.553L142.003 43.725V51H138.753ZM142.003 44.075L140.553 42.6H145.928C147.261 42.6 148.286 42.325 149.003 41.775C149.736 41.2083 150.103 40.4167 150.103 39.4C150.103 38.3833 149.736 37.6083 149.003 37.075C148.286 36.525 147.261 36.25 145.928 36.25H140.553L142.003 34.65V44.075ZM136.253 48.4V46.65H147.503V48.4H136.253ZM163.555 51V37.65H170.08C171.697 37.65 172.963 37.95 173.88 38.55C174.813 39.15 175.28 40 175.28 41.1C175.28 42.1833 174.847 43.0333 173.98 43.65C173.113 44.25 171.963 44.55 170.53 44.55L170.905 43.775C172.522 43.775 173.722 44.075 174.505 44.675C175.305 45.2583 175.705 46.1167 175.705 47.25C175.705 48.4333 175.263 49.3583 174.38 50.025C173.497 50.675 172.155 51 170.355 51H163.555ZM166.53 48.725H170.105C170.955 48.725 171.597 48.5917 172.03 48.325C172.463 48.0417 172.68 47.6167 172.68 47.05C172.68 46.45 172.48 46.0083 172.08 45.725C171.68 45.4417 171.055 45.3 170.205 45.3H166.53V48.725ZM166.53 43.225H169.805C170.605 43.225 171.205 43.0833 171.605 42.8C172.022 42.5 172.23 42.0833 172.23 41.55C172.23 41 172.022 40.5917 171.605 40.325C171.205 40.0583 170.605 39.925 169.805 39.925H166.53V43.225ZM185.943 51V37.65H189.218L194.593 47.125H193.293L198.943 37.65H201.868L201.893 51H199.068V41L199.568 41.325L194.568 49.6H193.218L188.193 41.1L188.793 40.95V51H185.943ZM212.309 51.175C210.826 51.175 209.526 50.8833 208.409 50.3C207.309 49.7 206.451 48.8833 205.834 47.85C205.234 46.8167 204.934 45.6417 204.934 44.325C204.934 42.9917 205.226 41.8167 205.809 40.8C206.409 39.7667 207.226 38.9583 208.259 38.375C209.309 37.7917 210.501 37.5 211.834 37.5C213.134 37.5 214.293 37.7833 215.309 38.35C216.326 38.9167 217.126 39.7167 217.709 40.75C218.293 41.7833 218.584 43 218.584 44.4C218.584 44.5333 218.576 44.6833 218.559 44.85C218.559 45.0167 218.551 45.175 218.534 45.325H207.409V43.25H216.884L215.659 43.9C215.676 43.1333 215.518 42.4583 215.184 41.875C214.851 41.2917 214.393 40.8333 213.809 40.5C213.243 40.1667 212.584 40 211.834 40C211.068 40 210.393 40.1667 209.809 40.5C209.243 40.8333 208.793 41.3 208.459 41.9C208.143 42.4833 207.984 43.175 207.984 43.975V44.475C207.984 45.275 208.168 45.9833 208.534 46.6C208.901 47.2167 209.418 47.6917 210.084 48.025C210.751 48.3583 211.518 48.525 212.384 48.525C213.134 48.525 213.809 48.4083 214.409 48.175C215.009 47.9417 215.543 47.575 216.009 47.075L217.684 49C217.084 49.7 216.326 50.2417 215.409 50.625C214.509 50.9917 213.476 51.175 212.309 51.175ZM228.077 51.175C226.677 51.175 225.427 50.8833 224.327 50.3C223.244 49.7 222.394 48.8833 221.777 47.85C221.161 46.8167 220.852 45.6417 220.852 44.325C220.852 42.9917 221.161 41.8167 221.777 40.8C222.394 39.7667 223.244 38.9583 224.327 38.375C225.427 37.7917 226.677 37.5 228.077 37.5C229.377 37.5 230.519 37.7667 231.502 38.3C232.502 38.8167 233.261 39.5833 233.777 40.6L231.377 42C230.977 41.3667 230.486 40.9 229.902 40.6C229.336 40.3 228.719 40.15 228.052 40.15C227.286 40.15 226.594 40.3167 225.977 40.65C225.361 40.9833 224.877 41.4667 224.527 42.1C224.177 42.7167 224.002 43.4583 224.002 44.325C224.002 45.1917 224.177 45.9417 224.527 46.575C224.877 47.1917 225.361 47.6667 225.977 48C226.594 48.3333 227.286 48.5 228.052 48.5C228.719 48.5 229.336 48.35 229.902 48.05C230.486 47.75 230.977 47.2833 231.377 46.65L233.777 48.05C233.261 49.05 232.502 49.825 231.502 50.375C230.519 50.9083 229.377 51.175 228.077 51.175ZM244.638 51V46.45L245.088 46.975H241.088C239.254 46.975 237.813 46.5917 236.763 45.825C235.729 45.0417 235.213 43.9167 235.213 42.45C235.213 40.8833 235.763 39.6917 236.863 38.875C237.979 38.0583 239.463 37.65 241.313 37.65H247.438V51H244.638ZM235.038 51L238.638 45.9H241.838L238.388 51H235.038ZM244.638 45.45V39.45L245.088 40.275H241.412C240.446 40.275 239.696 40.4583 239.163 40.825C238.646 41.175 238.388 41.75 238.388 42.55C238.388 44.05 239.363 44.8 241.313 44.8H245.088L244.638 45.45ZM251.641 51V37.65H254.766V48.35H261.141V37.65H264.266V51H251.641ZM263.366 53.975V50.925L264.091 51H261.141V48.35H266.291V53.975H263.366Z" fill="black"/>
<path d="M290.5 42.5C290.5 48.1194 286.598 53.579 279.282 58.6315C271.981 63.6734 261.384 68.234 248.244 72.0721C221.971 79.7464 185.645 84.5 145.5 84.5C105.355 84.5 69.0294 79.7464 42.7562 72.0721C29.6162 68.234 19.0191 63.6734 11.7182 58.6315C4.40206 53.579 0.5 48.1194 0.5 42.5C0.5 36.8806 4.40206 31.421 11.7182 26.3685C19.0191 21.3266 29.6162 16.766 42.7562 12.9279C69.0294 5.2536 105.355 0.5 145.5 0.5C185.645 0.5 221.971 5.2536 248.244 12.9279C261.384 16.766 271.981 21.3266 279.282 26.3685C286.598 31.421 290.5 36.8806 290.5 42.5Z" stroke="black"/>
</svg>
