<svg width="560" height="235" viewBox="0 0 560 235" fill="none" xmlns="http://www.w3.org/2000/svg">
<path d="M277.51 108.619C113.671 102.475 -237.342 204.734 252.303 222.862C711.885 239.877 602.972 76.7597 253.038 127.85" stroke="black"/>
<path d="M99.44 162.16C98.3733 162.16 97.3867 161.987 96.48 161.64C95.5867 161.28 94.8067 160.78 94.14 160.14C93.4867 159.487 92.9733 158.727 92.6 157.86C92.2267 156.993 92.04 156.04 92.04 155C92.04 153.96 92.2267 153.007 92.6 152.14C92.9733 151.273 93.4933 150.52 94.16 149.88C94.8267 149.227 95.6067 148.727 96.5 148.38C97.4067 148.02 98.3933 147.84 99.46 147.84C100.54 147.84 101.533 148.027 102.44 148.4C103.36 148.76 104.14 149.3 104.78 150.02L103.48 151.28C102.947 150.72 102.347 150.307 101.68 150.04C101.013 149.76 100.3 149.62 99.54 149.62C98.7533 149.62 98.02 149.753 97.34 150.02C96.6733 150.287 96.0933 150.66 95.6 151.14C95.1067 151.62 94.72 152.193 94.44 152.86C94.1733 153.513 94.04 154.227 94.04 155C94.04 155.773 94.1733 156.493 94.44 157.16C94.72 157.813 95.1067 158.38 95.6 158.86C96.0933 159.34 96.6733 159.713 97.34 159.98C98.02 160.247 98.7533 160.38 99.54 160.38C100.3 160.38 101.013 160.247 101.68 159.98C102.347 159.7 102.947 159.273 103.48 158.7L104.78 159.96C104.14 160.68 103.36 161.227 102.44 161.6C101.533 161.973 100.533 162.16 99.44 162.16ZM113.086 162.16C113.073 162.16 113.026 162.16 112.946 162.16C112.88 162.16 112.813 162.16 112.746 162.16C112.68 162.16 112.64 162.16 112.626 162.16C110.453 162.133 108.766 161.653 107.566 160.72C106.366 159.773 105.766 158.427 105.766 156.68C105.766 154.947 106.366 153.62 107.566 152.7C108.78 151.767 110.486 151.293 112.686 151.28C112.713 151.28 112.753 151.28 112.806 151.28C112.873 151.28 112.933 151.28 112.986 151.28C113.053 151.28 113.093 151.28 113.106 151.28C115.333 151.28 117.06 151.747 118.286 152.68C119.526 153.613 120.146 154.947 120.146 156.68C120.146 158.44 119.526 159.793 118.286 160.74C117.046 161.687 115.313 162.16 113.086 162.16ZM113.046 160.48C114.206 160.48 115.166 160.333 115.926 160.04C116.7 159.747 117.28 159.32 117.666 158.76C118.053 158.2 118.246 157.507 118.246 156.68C118.246 155.867 118.053 155.187 117.666 154.64C117.28 154.093 116.7 153.68 115.926 153.4C115.166 153.12 114.206 152.98 113.046 152.98C113.02 152.98 112.966 152.98 112.886 152.98C112.806 152.98 112.76 152.98 112.746 152.98C111.613 152.98 110.666 153.127 109.906 153.42C109.16 153.7 108.6 154.113 108.226 154.66C107.853 155.207 107.666 155.88 107.666 156.68C107.666 157.493 107.853 158.18 108.226 158.74C108.613 159.3 109.18 159.727 109.926 160.02C110.686 160.313 111.626 160.467 112.746 160.48C112.773 160.48 112.82 160.48 112.886 160.48C112.966 160.48 113.02 160.48 113.046 160.48ZM112.006 165.88V147.16H113.886V165.88H112.006ZM127.4 162.12C126.333 162.12 125.387 161.887 124.56 161.42C123.733 160.953 123.08 160.313 122.6 159.5C122.12 158.673 121.88 157.74 121.88 156.7C121.88 155.647 122.12 154.713 122.6 153.9C123.08 153.087 123.733 152.453 124.56 152C125.387 151.533 126.333 151.3 127.4 151.3C128.453 151.3 129.393 151.533 130.22 152C131.06 152.453 131.713 153.087 132.18 153.9C132.66 154.7 132.9 155.633 132.9 156.7C132.9 157.753 132.66 158.687 132.18 159.5C131.713 160.313 131.06 160.953 130.22 161.42C129.393 161.887 128.453 162.12 127.4 162.12ZM127.4 160.44C128.08 160.44 128.687 160.287 129.22 159.98C129.767 159.673 130.193 159.24 130.5 158.68C130.807 158.107 130.96 157.447 130.96 156.7C130.96 155.94 130.807 155.287 130.5 154.74C130.193 154.18 129.767 153.747 129.22 153.44C128.687 153.133 128.08 152.98 127.4 152.98C126.72 152.98 126.113 153.133 125.58 153.44C125.047 153.747 124.62 154.18 124.3 154.74C123.98 155.287 123.82 155.94 123.82 156.7C123.82 157.447 123.98 158.107 124.3 158.68C124.62 159.24 125.047 159.673 125.58 159.98C126.113 160.287 126.72 160.44 127.4 160.44ZM141.293 162.12C140.413 162.12 139.606 161.92 138.873 161.52C138.153 161.107 137.573 160.5 137.133 159.7C136.706 158.9 136.493 157.9 136.493 156.7C136.493 155.5 136.699 154.5 137.113 153.7C137.539 152.9 138.113 152.3 138.833 151.9C139.566 151.5 140.386 151.3 141.293 151.3C142.333 151.3 143.253 151.527 144.053 151.98C144.853 152.433 145.486 153.067 145.953 153.88C146.419 154.68 146.653 155.62 146.653 156.7C146.653 157.78 146.419 158.727 145.953 159.54C145.486 160.353 144.853 160.987 144.053 161.44C143.253 161.893 142.333 162.12 141.293 162.12ZM135.673 165.88V151.4H137.513V154.26L137.393 156.72L137.593 159.18V165.88H135.673ZM141.133 160.44C141.813 160.44 142.419 160.287 142.953 159.98C143.499 159.673 143.926 159.24 144.233 158.68C144.553 158.107 144.713 157.447 144.713 156.7C144.713 155.94 144.553 155.287 144.233 154.74C143.926 154.18 143.499 153.747 142.953 153.44C142.419 153.133 141.813 152.98 141.133 152.98C140.466 152.98 139.859 153.133 139.313 153.44C138.779 153.747 138.353 154.18 138.033 154.74C137.726 155.287 137.573 155.94 137.573 156.7C137.573 157.447 137.726 158.107 138.033 158.68C138.353 159.24 138.779 159.673 139.313 159.98C139.859 160.287 140.466 160.44 141.133 160.44ZM149.442 162V151.4H151.422L155.982 159.24H155.182L159.862 151.4H161.662V162H159.922V153.56L160.242 153.74L155.962 160.8H155.122L150.822 153.6L151.202 153.52V162H149.442ZM165.399 162V151.4H167.319V159.12L173.819 151.4H175.559V162H173.639V154.28L167.159 162H165.399ZM184.906 162.12C184.026 162.12 183.219 161.92 182.486 161.52C181.766 161.107 181.186 160.5 180.746 159.7C180.319 158.9 180.106 157.9 180.106 156.7C180.106 155.5 180.312 154.5 180.726 153.7C181.152 152.9 181.726 152.3 182.446 151.9C183.179 151.5 183.999 151.3 184.906 151.3C185.946 151.3 186.866 151.527 187.666 151.98C188.466 152.433 189.099 153.067 189.566 153.88C190.032 154.68 190.266 155.62 190.266 156.7C190.266 157.78 190.032 158.727 189.566 159.54C189.099 160.353 188.466 160.987 187.666 161.44C186.866 161.893 185.946 162.12 184.906 162.12ZM179.286 165.88V151.4H181.126V154.26L181.006 156.72L181.206 159.18V165.88H179.286ZM184.746 160.44C185.426 160.44 186.032 160.287 186.566 159.98C187.112 159.673 187.539 159.24 187.846 158.68C188.166 158.107 188.326 157.447 188.326 156.7C188.326 155.94 188.166 155.287 187.846 154.74C187.539 154.18 187.112 153.747 186.566 153.44C186.032 153.133 185.426 152.98 184.746 152.98C184.079 152.98 183.472 153.133 182.926 153.44C182.392 153.747 181.966 154.18 181.646 154.74C181.339 155.287 181.186 155.94 181.186 156.7C181.186 157.447 181.339 158.107 181.646 158.68C181.966 159.24 182.392 159.673 182.926 159.98C183.472 160.287 184.079 160.44 184.746 160.44ZM197.595 162.12C196.529 162.12 195.582 161.887 194.755 161.42C193.929 160.953 193.275 160.313 192.795 159.5C192.315 158.673 192.075 157.74 192.075 156.7C192.075 155.647 192.315 154.713 192.795 153.9C193.275 153.087 193.929 152.453 194.755 152C195.582 151.533 196.529 151.3 197.595 151.3C198.649 151.3 199.589 151.533 200.415 152C201.255 152.453 201.909 153.087 202.375 153.9C202.855 154.7 203.095 155.633 203.095 156.7C203.095 157.753 202.855 158.687 202.375 159.5C201.909 160.313 201.255 160.953 200.415 161.42C199.589 161.887 198.649 162.12 197.595 162.12ZM197.595 160.44C198.275 160.44 198.882 160.287 199.415 159.98C199.962 159.673 200.389 159.24 200.695 158.68C201.002 158.107 201.155 157.447 201.155 156.7C201.155 155.94 201.002 155.287 200.695 154.74C200.389 154.18 199.962 153.747 199.415 153.44C198.882 153.133 198.275 152.98 197.595 152.98C196.915 152.98 196.309 153.133 195.775 153.44C195.242 153.747 194.815 154.18 194.495 154.74C194.175 155.287 194.015 155.94 194.015 156.7C194.015 157.447 194.175 158.107 194.495 158.68C194.815 159.24 195.242 159.673 195.775 159.98C196.309 160.287 196.915 160.44 197.595 160.44ZM205.868 162V151.4H210.788C212.028 151.4 213.001 151.64 213.708 152.12C214.428 152.587 214.788 153.253 214.788 154.12C214.788 154.987 214.448 155.66 213.768 156.14C213.101 156.607 212.214 156.84 211.108 156.84L211.408 156.32C212.674 156.32 213.614 156.553 214.228 157.02C214.841 157.487 215.148 158.173 215.148 159.08C215.148 160 214.801 160.72 214.108 161.24C213.428 161.747 212.381 162 210.968 162H205.868ZM207.748 160.52H210.828C211.628 160.52 212.228 160.4 212.628 160.16C213.028 159.907 213.228 159.507 213.228 158.96C213.228 158.4 213.041 157.993 212.668 157.74C212.308 157.473 211.734 157.34 210.948 157.34H207.748V160.52ZM207.748 155.96H210.628C211.361 155.96 211.914 155.827 212.288 155.56C212.674 155.28 212.868 154.893 212.868 154.4C212.868 153.893 212.674 153.513 212.288 153.26C211.914 153.007 211.361 152.88 210.628 152.88H207.748V155.96ZM224.653 162V159.76L224.553 159.34V155.52C224.553 154.707 224.313 154.08 223.833 153.64C223.366 153.187 222.66 152.96 221.713 152.96C221.086 152.96 220.473 153.067 219.873 153.28C219.273 153.48 218.766 153.753 218.353 154.1L217.553 152.66C218.1 152.22 218.753 151.887 219.513 151.66C220.286 151.42 221.093 151.3 221.933 151.3C223.386 151.3 224.506 151.653 225.293 152.36C226.08 153.067 226.473 154.147 226.473 155.6V162H224.653ZM221.173 162.12C220.386 162.12 219.693 161.987 219.093 161.72C218.506 161.453 218.053 161.087 217.733 160.62C217.413 160.14 217.253 159.6 217.253 159C217.253 158.427 217.386 157.907 217.653 157.44C217.933 156.973 218.38 156.6 218.993 156.32C219.62 156.04 220.46 155.9 221.513 155.9H224.873V157.28H221.593C220.633 157.28 219.986 157.44 219.653 157.76C219.32 158.08 219.153 158.467 219.153 158.92C219.153 159.44 219.36 159.86 219.773 160.18C220.186 160.487 220.76 160.64 221.493 160.64C222.213 160.64 222.84 160.48 223.373 160.16C223.92 159.84 224.313 159.373 224.553 158.76L224.933 160.08C224.68 160.707 224.233 161.207 223.593 161.58C222.953 161.94 222.146 162.12 221.173 162.12ZM229.93 162V151.4H231.85V155.9H237.89V151.4H239.81V162H237.89V157.56H231.85V162H229.93ZM243.544 162V151.4H245.464V155.9H251.504V151.4H253.424V162H251.504V157.56H245.464V162H243.544ZM257.697 166C257.19 166 256.697 165.913 256.217 165.74C255.737 165.58 255.324 165.34 254.977 165.02L255.797 163.58C256.064 163.833 256.357 164.027 256.677 164.16C256.997 164.293 257.337 164.36 257.697 164.36C258.164 164.36 258.55 164.24 258.857 164C259.164 163.76 259.45 163.333 259.717 162.72L260.377 161.26L260.577 161.02L264.737 151.4H266.617L261.477 163.06C261.17 163.807 260.824 164.393 260.437 164.82C260.064 165.247 259.65 165.547 259.197 165.72C258.744 165.907 258.244 166 257.697 166ZM260.217 162.34L255.377 151.4H257.377L261.497 160.84L260.217 162.34ZM268.583 162V151.4H270.503V155.74H273.703V157.52H270.503V162H268.583ZM277.963 162.12C276.923 162.12 275.996 161.887 275.183 161.42C274.383 160.953 273.749 160.313 273.283 159.5C272.816 158.673 272.583 157.74 272.583 156.7C272.583 155.647 272.816 154.713 273.283 153.9C273.749 153.073 274.383 152.433 275.183 151.98C275.996 151.527 276.923 151.3 277.963 151.3C278.989 151.3 279.909 151.527 280.723 151.98C281.536 152.433 282.176 153.073 282.643 153.9C283.109 154.713 283.343 155.647 283.343 156.7C283.343 157.753 283.109 158.687 282.643 159.5C282.176 160.313 281.536 160.953 280.723 161.42C279.909 161.887 278.989 162.12 277.963 162.12ZM277.963 160.44C278.629 160.44 279.223 160.287 279.743 159.98C280.263 159.66 280.676 159.227 280.983 158.68C281.289 158.12 281.443 157.46 281.443 156.7C281.443 155.94 281.289 155.287 280.983 154.74C280.676 154.18 280.263 153.747 279.743 153.44C279.223 153.133 278.629 152.98 277.963 152.98C277.309 152.98 276.716 153.133 276.183 153.44C275.663 153.747 275.249 154.18 274.943 154.74C274.636 155.287 274.483 155.94 274.483 156.7C274.483 157.46 274.636 158.12 274.943 158.68C275.249 159.227 275.663 159.66 276.183 159.98C276.716 160.287 277.309 160.44 277.963 160.44ZM291.473 162V151.4H293.393V159.12L299.893 151.4H301.633V162H299.713V154.28L293.233 162H291.473ZM316.351 162.12C315.471 162.12 314.664 161.92 313.931 161.52C313.211 161.107 312.631 160.5 312.191 159.7C311.764 158.9 311.551 157.9 311.551 156.7C311.551 155.5 311.758 154.5 312.171 153.7C312.598 152.9 313.171 152.3 313.891 151.9C314.624 151.5 315.444 151.3 316.351 151.3C317.391 151.3 318.311 151.527 319.111 151.98C319.911 152.433 320.544 153.067 321.011 153.88C321.478 154.68 321.711 155.62 321.711 156.7C321.711 157.78 321.478 158.727 321.011 159.54C320.544 160.353 319.911 160.987 319.111 161.44C318.311 161.893 317.391 162.12 316.351 162.12ZM310.731 165.88V151.4H312.571V154.26L312.451 156.72L312.651 159.18V165.88H310.731ZM316.191 160.44C316.871 160.44 317.478 160.287 318.011 159.98C318.558 159.673 318.984 159.24 319.291 158.68C319.611 158.107 319.771 157.447 319.771 156.7C319.771 155.94 319.611 155.287 319.291 154.74C318.984 154.18 318.558 153.747 318.011 153.44C317.478 153.133 316.871 152.98 316.191 152.98C315.524 152.98 314.918 153.133 314.371 153.44C313.838 153.747 313.411 154.18 313.091 154.74C312.784 155.287 312.631 155.94 312.631 156.7C312.631 157.447 312.784 158.107 313.091 158.68C313.411 159.24 313.838 159.673 314.371 159.98C314.918 160.287 315.524 160.44 316.191 160.44ZM329.221 162.12C328.087 162.12 327.087 161.887 326.221 161.42C325.367 160.953 324.701 160.313 324.221 159.5C323.754 158.687 323.521 157.753 323.521 156.7C323.521 155.647 323.747 154.713 324.201 153.9C324.667 153.087 325.301 152.453 326.101 152C326.914 151.533 327.827 151.3 328.841 151.3C329.867 151.3 330.774 151.527 331.561 151.98C332.347 152.433 332.961 153.073 333.401 153.9C333.854 154.713 334.081 155.667 334.081 156.76C334.081 156.84 334.074 156.933 334.061 157.04C334.061 157.147 334.054 157.247 334.041 157.34H325.021V155.96H333.041L332.261 156.44C332.274 155.76 332.134 155.153 331.841 154.62C331.547 154.087 331.141 153.673 330.621 153.38C330.114 153.073 329.521 152.92 328.841 152.92C328.174 152.92 327.581 153.073 327.061 153.38C326.541 153.673 326.134 154.093 325.841 154.64C325.547 155.173 325.401 155.787 325.401 156.48V156.8C325.401 157.507 325.561 158.14 325.881 158.7C326.214 159.247 326.674 159.673 327.261 159.98C327.847 160.287 328.521 160.44 329.281 160.44C329.907 160.44 330.474 160.333 330.981 160.12C331.501 159.907 331.954 159.587 332.341 159.16L333.401 160.4C332.921 160.96 332.321 161.387 331.601 161.68C330.894 161.973 330.101 162.12 329.221 162.12ZM343.266 162V159.76L343.166 159.34V155.52C343.166 154.707 342.926 154.08 342.446 153.64C341.98 153.187 341.273 152.96 340.326 152.96C339.7 152.96 339.086 153.067 338.486 153.28C337.886 153.48 337.38 153.753 336.966 154.1L336.166 152.66C336.713 152.22 337.366 151.887 338.126 151.66C338.9 151.42 339.706 151.3 340.546 151.3C342 151.3 343.12 151.653 343.906 152.36C344.693 153.067 345.086 154.147 345.086 155.6V162H343.266ZM339.786 162.12C339 162.12 338.306 161.987 337.706 161.72C337.12 161.453 336.666 161.087 336.346 160.62C336.026 160.14 335.866 159.6 335.866 159C335.866 158.427 336 157.907 336.266 157.44C336.546 156.973 336.993 156.6 337.606 156.32C338.233 156.04 339.073 155.9 340.126 155.9H343.486V157.28H340.206C339.246 157.28 338.6 157.44 338.266 157.76C337.933 158.08 337.766 158.467 337.766 158.92C337.766 159.44 337.973 159.86 338.386 160.18C338.8 160.487 339.373 160.64 340.106 160.64C340.826 160.64 341.453 160.48 341.986 160.16C342.533 159.84 342.926 159.373 343.166 158.76L343.546 160.08C343.293 160.707 342.846 161.207 342.206 161.58C341.566 161.94 340.76 162.12 339.786 162.12ZM346.784 161.98L346.904 160.36C346.997 160.373 347.084 160.387 347.164 160.4C347.244 160.413 347.317 160.42 347.384 160.42C347.81 160.42 348.144 160.273 348.384 159.98C348.637 159.687 348.824 159.3 348.944 158.82C349.064 158.327 349.15 157.773 349.204 157.16C349.257 156.547 349.297 155.933 349.324 155.32L349.504 151.4H357.644V162H355.724V152.52L356.184 153.08H350.744L351.184 152.5L351.044 155.44C351.004 156.373 350.93 157.247 350.824 158.06C350.717 158.873 350.55 159.587 350.324 160.2C350.11 160.813 349.81 161.293 349.424 161.64C349.05 161.987 348.564 162.16 347.964 162.16C347.79 162.16 347.604 162.14 347.404 162.1C347.217 162.073 347.01 162.033 346.784 161.98ZM361.356 162V151.4H363.276V159.12L369.776 151.4H371.516V162H369.596V154.28L363.116 162H361.356ZM378.167 162.14C377.367 162.14 376.58 162.04 375.807 161.84C375.047 161.627 374.367 161.327 373.767 160.94L374.347 159.48C374.854 159.8 375.434 160.053 376.087 160.24C376.74 160.413 377.4 160.5 378.067 160.5C378.68 160.5 379.207 160.427 379.647 160.28C380.1 160.133 380.447 159.933 380.687 159.68C380.927 159.413 381.047 159.107 381.047 158.76C381.047 158.267 380.827 157.887 380.387 157.62C379.947 157.353 379.334 157.22 378.547 157.22H376.627V155.84H378.427C378.894 155.84 379.3 155.787 379.647 155.68C379.994 155.573 380.26 155.413 380.447 155.2C380.647 154.973 380.747 154.713 380.747 154.42C380.747 154.1 380.634 153.827 380.407 153.6C380.18 153.373 379.86 153.2 379.447 153.08C379.047 152.96 378.574 152.9 378.027 152.9C377.494 152.913 376.947 152.987 376.387 153.12C375.84 153.253 375.28 153.46 374.707 153.74L374.187 152.24C374.827 151.933 375.454 151.7 376.067 151.54C376.694 151.367 377.314 151.273 377.927 151.26C378.847 151.233 379.667 151.34 380.387 151.58C381.107 151.807 381.674 152.14 382.087 152.58C382.514 153.02 382.727 153.54 382.727 154.14C382.727 154.647 382.567 155.1 382.247 155.5C381.927 155.887 381.5 156.193 380.967 156.42C380.434 156.647 379.82 156.76 379.127 156.76L379.207 156.3C380.394 156.3 381.327 156.533 382.007 157C382.687 157.467 383.027 158.1 383.027 158.9C383.027 159.54 382.814 160.107 382.387 160.6C381.96 161.08 381.38 161.46 380.647 161.74C379.927 162.007 379.1 162.14 378.167 162.14ZM390.486 162.12C389.419 162.12 388.473 161.887 387.646 161.42C386.819 160.953 386.166 160.313 385.686 159.5C385.206 158.673 384.966 157.74 384.966 156.7C384.966 155.647 385.206 154.713 385.686 153.9C386.166 153.087 386.819 152.453 387.646 152C388.473 151.533 389.419 151.3 390.486 151.3C391.539 151.3 392.479 151.533 393.306 152C394.146 152.453 394.799 153.087 395.266 153.9C395.746 154.7 395.986 155.633 395.986 156.7C395.986 157.753 395.746 158.687 395.266 159.5C394.799 160.313 394.146 160.953 393.306 161.42C392.479 161.887 391.539 162.12 390.486 162.12ZM390.486 160.44C391.166 160.44 391.773 160.287 392.306 159.98C392.853 159.673 393.279 159.24 393.586 158.68C393.893 158.107 394.046 157.447 394.046 156.7C394.046 155.94 393.893 155.287 393.586 154.74C393.279 154.18 392.853 153.747 392.306 153.44C391.773 153.133 391.166 152.98 390.486 152.98C389.806 152.98 389.199 153.133 388.666 153.44C388.133 153.747 387.706 154.18 387.386 154.74C387.066 155.287 386.906 155.94 386.906 156.7C386.906 157.447 387.066 158.107 387.386 158.68C387.706 159.24 388.133 159.673 388.666 159.98C389.199 160.287 389.806 160.44 390.486 160.44ZM398.758 162V151.4H403.678C404.918 151.4 405.892 151.64 406.598 152.12C407.318 152.587 407.678 153.253 407.678 154.12C407.678 154.987 407.338 155.66 406.658 156.14C405.992 156.607 405.105 156.84 403.998 156.84L404.298 156.32C405.565 156.32 406.505 156.553 407.118 157.02C407.732 157.487 408.038 158.173 408.038 159.08C408.038 160 407.692 160.72 406.998 161.24C406.318 161.747 405.272 162 403.858 162H398.758ZM400.638 160.52H403.718C404.518 160.52 405.118 160.4 405.518 160.16C405.918 159.907 406.118 159.507 406.118 158.96C406.118 158.4 405.932 157.993 405.558 157.74C405.198 157.473 404.625 157.34 403.838 157.34H400.638V160.52ZM400.638 155.96H403.518C404.252 155.96 404.805 155.827 405.178 155.56C405.565 155.28 405.758 154.893 405.758 154.4C405.758 153.893 405.565 153.513 405.178 153.26C404.805 153.007 404.252 152.88 403.518 152.88H400.638V155.96ZM417.544 162V159.76L417.444 159.34V155.52C417.444 154.707 417.204 154.08 416.724 153.64C416.257 153.187 415.55 152.96 414.604 152.96C413.977 152.96 413.364 153.067 412.764 153.28C412.164 153.48 411.657 153.753 411.244 154.1L410.444 152.66C410.99 152.22 411.644 151.887 412.404 151.66C413.177 151.42 413.984 151.3 414.824 151.3C416.277 151.3 417.397 151.653 418.184 152.36C418.97 153.067 419.364 154.147 419.364 155.6V162H417.544ZM414.064 162.12C413.277 162.12 412.584 161.987 411.984 161.72C411.397 161.453 410.944 161.087 410.624 160.62C410.304 160.14 410.144 159.6 410.144 159C410.144 158.427 410.277 157.907 410.544 157.44C410.824 156.973 411.27 156.6 411.884 156.32C412.51 156.04 413.35 155.9 414.404 155.9H417.764V157.28H414.484C413.524 157.28 412.877 157.44 412.544 157.76C412.21 158.08 412.044 158.467 412.044 158.92C412.044 159.44 412.25 159.86 412.664 160.18C413.077 160.487 413.65 160.64 414.384 160.64C415.104 160.64 415.73 160.48 416.264 160.16C416.81 159.84 417.204 159.373 417.444 158.76L417.824 160.08C417.57 160.707 417.124 161.207 416.484 161.58C415.844 161.94 415.037 162.12 414.064 162.12ZM422.821 162V151.4H424.741V155.9H430.781V151.4H432.701V162H430.781V157.56H424.741V162H422.821ZM436.434 162V151.4H438.354V155.9H444.394V151.4H446.314V162H444.394V157.56H438.354V162H436.434ZM450.588 166C450.081 166 449.588 165.913 449.108 165.74C448.628 165.58 448.214 165.34 447.867 165.02L448.688 163.58C448.954 163.833 449.248 164.027 449.568 164.16C449.888 164.293 450.228 164.36 450.588 164.36C451.054 164.36 451.441 164.24 451.748 164C452.054 163.76 452.341 163.333 452.608 162.72L453.268 161.26L453.467 161.02L457.628 151.4H459.508L454.368 163.06C454.061 163.807 453.714 164.393 453.327 164.82C452.954 165.247 452.541 165.547 452.088 165.72C451.634 165.907 451.134 166 450.588 166ZM453.108 162.34L448.268 151.4H450.268L454.388 160.84L453.108 162.34ZM461.473 162V151.4H463.393V155.74H466.593V157.52H463.393V162H461.473ZM470.853 162.12C469.813 162.12 468.887 161.887 468.073 161.42C467.273 160.953 466.64 160.313 466.173 159.5C465.707 158.673 465.473 157.74 465.473 156.7C465.473 155.647 465.707 154.713 466.173 153.9C466.64 153.073 467.273 152.433 468.073 151.98C468.887 151.527 469.813 151.3 470.853 151.3C471.88 151.3 472.8 151.527 473.613 151.98C474.427 152.433 475.067 153.073 475.533 153.9C476 154.713 476.233 155.647 476.233 156.7C476.233 157.753 476 158.687 475.533 159.5C475.067 160.313 474.427 160.953 473.613 161.42C472.8 161.887 471.88 162.12 470.853 162.12ZM470.853 160.44C471.52 160.44 472.113 160.287 472.633 159.98C473.153 159.66 473.567 159.227 473.873 158.68C474.18 158.12 474.333 157.46 474.333 156.7C474.333 155.94 474.18 155.287 473.873 154.74C473.567 154.18 473.153 153.747 472.633 153.44C472.113 153.133 471.52 152.98 470.853 152.98C470.2 152.98 469.607 153.133 469.073 153.44C468.553 153.747 468.14 154.18 467.833 154.74C467.527 155.287 467.373 155.94 467.373 156.7C467.373 157.46 467.527 158.12 467.833 158.68C468.14 159.227 468.553 159.66 469.073 159.98C469.607 160.287 470.2 160.44 470.853 160.44ZM92.86 186V175.4H94.84L99.4 183.24H98.6L103.28 175.4H105.08V186H103.34V177.56L103.66 177.74L99.38 184.8H98.54L94.24 177.6L94.62 177.52V186H92.86ZM115.317 186V183.76L115.217 183.34V179.52C115.217 178.707 114.977 178.08 114.497 177.64C114.03 177.187 113.324 176.96 112.377 176.96C111.75 176.96 111.137 177.067 110.537 177.28C109.937 177.48 109.43 177.753 109.017 178.1L108.217 176.66C108.764 176.22 109.417 175.887 110.177 175.66C110.95 175.42 111.757 175.3 112.597 175.3C114.05 175.3 115.17 175.653 115.957 176.36C116.744 177.067 117.137 178.147 117.137 179.6V186H115.317ZM111.837 186.12C111.05 186.12 110.357 185.987 109.757 185.72C109.17 185.453 108.717 185.087 108.397 184.62C108.077 184.14 107.917 183.6 107.917 183C107.917 182.427 108.05 181.907 108.317 181.44C108.597 180.973 109.044 180.6 109.657 180.32C110.284 180.04 111.124 179.9 112.177 179.9H115.537V181.28H112.257C111.297 181.28 110.65 181.44 110.317 181.76C109.984 182.08 109.817 182.467 109.817 182.92C109.817 183.44 110.024 183.86 110.437 184.18C110.85 184.487 111.424 184.64 112.157 184.64C112.877 184.64 113.504 184.48 114.037 184.16C114.584 183.84 114.977 183.373 115.217 182.76L115.597 184.08C115.344 184.707 114.897 185.207 114.257 185.58C113.617 185.94 112.81 186.12 111.837 186.12ZM126.214 186.12C125.334 186.12 124.528 185.92 123.794 185.52C123.074 185.107 122.494 184.5 122.054 183.7C121.628 182.9 121.414 181.9 121.414 180.7C121.414 179.5 121.621 178.5 122.034 177.7C122.461 176.9 123.034 176.3 123.754 175.9C124.488 175.5 125.308 175.3 126.214 175.3C127.254 175.3 128.174 175.527 128.974 175.98C129.774 176.433 130.408 177.067 130.874 177.88C131.341 178.68 131.574 179.62 131.574 180.7C131.574 181.78 131.341 182.727 130.874 183.54C130.408 184.353 129.774 184.987 128.974 185.44C128.174 185.893 127.254 186.12 126.214 186.12ZM120.594 189.88V175.4H122.434V178.26L122.314 180.72L122.514 183.18V189.88H120.594ZM126.054 184.44C126.734 184.44 127.341 184.287 127.874 183.98C128.421 183.673 128.848 183.24 129.154 182.68C129.474 182.107 129.634 181.447 129.634 180.7C129.634 179.94 129.474 179.287 129.154 178.74C128.848 178.18 128.421 177.747 127.874 177.44C127.341 177.133 126.734 176.98 126.054 176.98C125.388 176.98 124.781 177.133 124.234 177.44C123.701 177.747 123.274 178.18 122.954 178.74C122.648 179.287 122.494 179.94 122.494 180.7C122.494 181.447 122.648 182.107 122.954 182.68C123.274 183.24 123.701 183.673 124.234 183.98C124.781 184.287 125.388 184.44 126.054 184.44ZM142.044 186L137.944 180.84L139.524 179.88L144.304 186H142.044ZM134.364 186V175.4H136.284V186H134.364ZM135.704 181.52V179.88H139.204V181.52H135.704ZM139.684 180.92L137.904 180.68L141.964 175.4H144.024L139.684 180.92ZM150.685 186.12C149.552 186.12 148.552 185.887 147.685 185.42C146.832 184.953 146.165 184.313 145.685 183.5C145.219 182.687 144.985 181.753 144.985 180.7C144.985 179.647 145.212 178.713 145.665 177.9C146.132 177.087 146.765 176.453 147.565 176C148.379 175.533 149.292 175.3 150.305 175.3C151.332 175.3 152.239 175.527 153.025 175.98C153.812 176.433 154.425 177.073 154.865 177.9C155.319 178.713 155.545 179.667 155.545 180.76C155.545 180.84 155.539 180.933 155.525 181.04C155.525 181.147 155.519 181.247 155.505 181.34H146.485V179.96H154.505L153.725 180.44C153.739 179.76 153.599 179.153 153.305 178.62C153.012 178.087 152.605 177.673 152.085 177.38C151.579 177.073 150.985 176.92 150.305 176.92C149.639 176.92 149.045 177.073 148.525 177.38C148.005 177.673 147.599 178.093 147.305 178.64C147.012 179.173 146.865 179.787 146.865 180.48V180.8C146.865 181.507 147.025 182.14 147.345 182.7C147.679 183.247 148.139 183.673 148.725 183.98C149.312 184.287 149.985 184.44 150.745 184.44C151.372 184.44 151.939 184.333 152.445 184.12C152.965 183.907 153.419 183.587 153.805 183.16L154.865 184.4C154.385 184.96 153.785 185.387 153.065 185.68C152.359 185.973 151.565 186.12 150.685 186.12ZM160.175 186V176.58L160.655 177.08H156.295V175.4H165.975V177.08H161.635L162.095 176.58V186H160.175ZM167.938 186V175.4H169.858V183.12L176.358 175.4H178.098V186H176.178V178.28L169.698 186H167.938ZM181.825 186V175.4H183.745V179.9H189.785V175.4H191.705V186H189.785V181.56H183.745V186H181.825ZM195.438 186V175.4H203.238V177.08H196.898L197.358 176.64V186H195.438ZM209.275 186.12C208.208 186.12 207.262 185.887 206.435 185.42C205.608 184.953 204.955 184.313 204.475 183.5C203.995 182.673 203.755 181.74 203.755 180.7C203.755 179.647 203.995 178.713 204.475 177.9C204.955 177.087 205.608 176.453 206.435 176C207.262 175.533 208.208 175.3 209.275 175.3C210.328 175.3 211.268 175.533 212.095 176C212.935 176.453 213.588 177.087 214.055 177.9C214.535 178.7 214.775 179.633 214.775 180.7C214.775 181.753 214.535 182.687 214.055 183.5C213.588 184.313 212.935 184.953 212.095 185.42C211.268 185.887 210.328 186.12 209.275 186.12ZM209.275 184.44C209.955 184.44 210.562 184.287 211.095 183.98C211.642 183.673 212.068 183.24 212.375 182.68C212.682 182.107 212.835 181.447 212.835 180.7C212.835 179.94 212.682 179.287 212.375 178.74C212.068 178.18 211.642 177.747 211.095 177.44C210.562 177.133 209.955 176.98 209.275 176.98C208.595 176.98 207.988 177.133 207.455 177.44C206.922 177.747 206.495 178.18 206.175 178.74C205.855 179.287 205.695 179.94 205.695 180.7C205.695 181.447 205.855 182.107 206.175 182.68C206.495 183.24 206.922 183.673 207.455 183.98C207.988 184.287 208.595 184.44 209.275 184.44ZM217.548 186V175.4H222.468C223.708 175.4 224.681 175.64 225.388 176.12C226.108 176.587 226.468 177.253 226.468 178.12C226.468 178.987 226.128 179.66 225.448 180.14C224.781 180.607 223.894 180.84 222.788 180.84L223.088 180.32C224.354 180.32 225.294 180.553 225.908 181.02C226.521 181.487 226.828 182.173 226.828 183.08C226.828 184 226.481 184.72 225.787 185.24C225.108 185.747 224.061 186 222.648 186H217.548ZM219.428 184.52H222.508C223.308 184.52 223.908 184.4 224.308 184.16C224.708 183.907 224.908 183.507 224.908 182.96C224.908 182.4 224.721 181.993 224.348 181.74C223.988 181.473 223.414 181.34 222.628 181.34H219.428V184.52ZM219.428 179.96H222.308C223.041 179.96 223.594 179.827 223.968 179.56C224.354 179.28 224.548 178.893 224.548 178.4C224.548 177.893 224.354 177.513 223.968 177.26C223.594 177.007 223.041 176.88 222.308 176.88H219.428V179.96ZM230.373 190C229.866 190 229.373 189.913 228.893 189.74C228.413 189.58 227.999 189.34 227.653 189.02L228.473 187.58C228.739 187.833 229.033 188.027 229.353 188.16C229.673 188.293 230.013 188.36 230.373 188.36C230.839 188.36 231.226 188.24 231.533 188C231.839 187.76 232.126 187.333 232.393 186.72L233.053 185.26L233.253 185.02L237.413 175.4H239.293L234.153 187.06C233.846 187.807 233.499 188.393 233.113 188.82C232.739 189.247 232.326 189.547 231.873 189.72C231.419 189.907 230.919 190 230.373 190ZM232.893 186.34L228.053 175.4H230.053L234.173 184.84L232.893 186.34ZM241.258 186V175.4H243.178V179.74H246.378V181.52H243.178V186H241.258ZM250.638 186.12C249.598 186.12 248.672 185.887 247.858 185.42C247.058 184.953 246.425 184.313 245.958 183.5C245.492 182.673 245.258 181.74 245.258 180.7C245.258 179.647 245.492 178.713 245.958 177.9C246.425 177.073 247.058 176.433 247.858 175.98C248.672 175.527 249.598 175.3 250.638 175.3C251.665 175.3 252.585 175.527 253.398 175.98C254.212 176.433 254.852 177.073 255.318 177.9C255.785 178.713 256.018 179.647 256.018 180.7C256.018 181.753 255.785 182.687 255.318 183.5C254.852 184.313 254.212 184.953 253.398 185.42C252.585 185.887 251.665 186.12 250.638 186.12ZM250.638 184.44C251.305 184.44 251.898 184.287 252.418 183.98C252.938 183.66 253.352 183.227 253.658 182.68C253.965 182.12 254.118 181.46 254.118 180.7C254.118 179.94 253.965 179.287 253.658 178.74C253.352 178.18 252.938 177.747 252.418 177.44C251.898 177.133 251.305 176.98 250.638 176.98C249.985 176.98 249.392 177.133 248.858 177.44C248.338 177.747 247.925 178.18 247.618 178.74C247.312 179.287 247.158 179.94 247.158 180.7C247.158 181.46 247.312 182.12 247.618 182.68C247.925 183.227 248.338 183.66 248.858 183.98C249.392 184.287 249.985 184.44 250.638 184.44ZM268.769 186.12C267.689 186.12 266.722 185.887 265.869 185.42C265.029 184.953 264.369 184.313 263.889 183.5C263.409 182.687 263.169 181.753 263.169 180.7C263.169 179.647 263.409 178.713 263.889 177.9C264.369 177.087 265.029 176.453 265.869 176C266.722 175.533 267.689 175.3 268.769 175.3C269.729 175.3 270.582 175.493 271.329 175.88C272.089 176.253 272.676 176.813 273.089 177.56L271.629 178.5C271.282 177.98 270.856 177.6 270.349 177.36C269.856 177.107 269.322 176.98 268.749 176.98C268.056 176.98 267.436 177.133 266.889 177.44C266.342 177.747 265.909 178.18 265.589 178.74C265.269 179.287 265.109 179.94 265.109 180.7C265.109 181.46 265.269 182.12 265.589 182.68C265.909 183.24 266.342 183.673 266.889 183.98C267.436 184.287 268.056 184.44 268.749 184.44C269.322 184.44 269.856 184.32 270.349 184.08C270.856 183.827 271.282 183.44 271.629 182.92L273.089 183.84C272.676 184.573 272.089 185.14 271.329 185.54C270.582 185.927 269.729 186.12 268.769 186.12ZM277.538 186V176.58L278.018 177.08H273.658V175.4H283.338V177.08H278.998L279.458 176.58V186H277.538ZM290.921 186.12C290.041 186.12 289.235 185.92 288.501 185.52C287.781 185.107 287.201 184.5 286.761 183.7C286.335 182.9 286.121 181.9 286.121 180.7C286.121 179.5 286.328 178.5 286.741 177.7C287.168 176.9 287.741 176.3 288.461 175.9C289.195 175.5 290.015 175.3 290.921 175.3C291.961 175.3 292.881 175.527 293.681 175.98C294.481 176.433 295.115 177.067 295.581 177.88C296.048 178.68 296.281 179.62 296.281 180.7C296.281 181.78 296.048 182.727 295.581 183.54C295.115 184.353 294.481 184.987 293.681 185.44C292.881 185.893 291.961 186.12 290.921 186.12ZM285.301 189.88V175.4H287.141V178.26L287.021 180.72L287.221 183.18V189.88H285.301ZM290.761 184.44C291.441 184.44 292.048 184.287 292.581 183.98C293.128 183.673 293.555 183.24 293.861 182.68C294.181 182.107 294.341 181.447 294.341 180.7C294.341 179.94 294.181 179.287 293.861 178.74C293.555 178.18 293.128 177.747 292.581 177.44C292.048 177.133 291.441 176.98 290.761 176.98C290.095 176.98 289.488 177.133 288.941 177.44C288.408 177.747 287.981 178.18 287.661 178.74C287.355 179.287 287.201 179.94 287.201 180.7C287.201 181.447 287.355 182.107 287.661 182.68C287.981 183.24 288.408 183.673 288.941 183.98C289.488 184.287 290.095 184.44 290.761 184.44ZM305.473 186V183.76L305.373 183.34V179.52C305.373 178.707 305.133 178.08 304.653 177.64C304.187 177.187 303.48 176.96 302.533 176.96C301.907 176.96 301.293 177.067 300.693 177.28C300.093 177.48 299.587 177.753 299.173 178.1L298.373 176.66C298.92 176.22 299.573 175.887 300.333 175.66C301.107 175.42 301.913 175.3 302.753 175.3C304.207 175.3 305.327 175.653 306.113 176.36C306.9 177.067 307.293 178.147 307.293 179.6V186H305.473ZM301.993 186.12C301.207 186.12 300.513 185.987 299.913 185.72C299.327 185.453 298.873 185.087 298.553 184.62C298.233 184.14 298.073 183.6 298.073 183C298.073 182.427 298.207 181.907 298.473 181.44C298.753 180.973 299.2 180.6 299.813 180.32C300.44 180.04 301.28 179.9 302.333 179.9H305.693V181.28H302.413C301.453 181.28 300.807 181.44 300.473 181.76C300.14 182.08 299.973 182.467 299.973 182.92C299.973 183.44 300.18 183.86 300.593 184.18C301.007 184.487 301.58 184.64 302.313 184.64C303.033 184.64 303.66 184.48 304.193 184.16C304.74 183.84 305.133 183.373 305.373 182.76L305.753 184.08C305.5 184.707 305.053 185.207 304.413 185.58C303.773 185.94 302.967 186.12 301.993 186.12ZM312.851 186V176.58L313.331 177.08H308.971V175.4H318.651V177.08H314.311L314.771 176.58V186H312.851ZM324.865 186.12C323.732 186.12 322.732 185.887 321.865 185.42C321.012 184.953 320.345 184.313 319.865 183.5C319.398 182.687 319.165 181.753 319.165 180.7C319.165 179.647 319.392 178.713 319.845 177.9C320.312 177.087 320.945 176.453 321.745 176C322.558 175.533 323.472 175.3 324.485 175.3C325.512 175.3 326.418 175.527 327.205 175.98C327.992 176.433 328.605 177.073 329.045 177.9C329.498 178.713 329.725 179.667 329.725 180.76C329.725 180.84 329.718 180.933 329.705 181.04C329.705 181.147 329.698 181.247 329.685 181.34H320.665V179.96H328.685L327.905 180.44C327.918 179.76 327.778 179.153 327.485 178.62C327.192 178.087 326.785 177.673 326.265 177.38C325.758 177.073 325.165 176.92 324.485 176.92C323.818 176.92 323.225 177.073 322.705 177.38C322.185 177.673 321.778 178.093 321.485 178.64C321.192 179.173 321.045 179.787 321.045 180.48V180.8C321.045 181.507 321.205 182.14 321.525 182.7C321.858 183.247 322.318 183.673 322.905 183.98C323.492 184.287 324.165 184.44 324.925 184.44C325.552 184.44 326.118 184.333 326.625 184.12C327.145 183.907 327.598 183.587 327.985 183.16L329.045 184.4C328.565 184.96 327.965 185.387 327.245 185.68C326.538 185.973 325.745 186.12 324.865 186.12ZM332.704 186V175.4H340.504V177.08H334.164L334.624 176.64V186H332.704ZM342.469 186V175.4H344.389V183.12L350.889 175.4H352.629V186H350.709V178.28L344.229 186H342.469ZM356.356 186V175.4H358.276V179.74H361.476V181.52H358.276V186H356.356ZM365.736 186.12C364.696 186.12 363.769 185.887 362.956 185.42C362.156 184.953 361.523 184.313 361.056 183.5C360.589 182.673 360.356 181.74 360.356 180.7C360.356 179.647 360.589 178.713 361.056 177.9C361.523 177.073 362.156 176.433 362.956 175.98C363.769 175.527 364.696 175.3 365.736 175.3C366.763 175.3 367.683 175.527 368.496 175.98C369.309 176.433 369.949 177.073 370.416 177.9C370.883 178.713 371.116 179.647 371.116 180.7C371.116 181.753 370.883 182.687 370.416 183.5C369.949 184.313 369.309 184.953 368.496 185.42C367.683 185.887 366.763 186.12 365.736 186.12ZM365.736 184.44C366.403 184.44 366.996 184.287 367.516 183.98C368.036 183.66 368.449 183.227 368.756 182.68C369.063 182.12 369.216 181.46 369.216 180.7C369.216 179.94 369.063 179.287 368.756 178.74C368.449 178.18 368.036 177.747 367.516 177.44C366.996 177.133 366.403 176.98 365.736 176.98C365.083 176.98 364.489 177.133 363.956 177.44C363.436 177.747 363.023 178.18 362.716 178.74C362.409 179.287 362.256 179.94 362.256 180.7C362.256 181.46 362.409 182.12 362.716 182.68C363.023 183.227 363.436 183.66 363.956 183.98C364.489 184.287 365.083 184.44 365.736 184.44ZM379.247 186V175.4H381.167V179.9H387.207V175.4H389.127V186H387.207V181.56H381.167V186H379.247ZM399.36 186V183.76L399.26 183.34V179.52C399.26 178.707 399.02 178.08 398.54 177.64C398.073 177.187 397.367 176.96 396.42 176.96C395.793 176.96 395.18 177.067 394.58 177.28C393.98 177.48 393.473 177.753 393.06 178.1L392.26 176.66C392.807 176.22 393.46 175.887 394.22 175.66C394.993 175.42 395.8 175.3 396.64 175.3C398.093 175.3 399.213 175.653 400 176.36C400.787 177.067 401.18 178.147 401.18 179.6V186H399.36ZM395.88 186.12C395.093 186.12 394.4 185.987 393.8 185.72C393.213 185.453 392.76 185.087 392.44 184.62C392.12 184.14 391.96 183.6 391.96 183C391.96 182.427 392.093 181.907 392.36 181.44C392.64 180.973 393.087 180.6 393.7 180.32C394.327 180.04 395.167 179.9 396.22 179.9H399.58V181.28H396.3C395.34 181.28 394.693 181.44 394.36 181.76C394.027 182.08 393.86 182.467 393.86 182.92C393.86 183.44 394.067 183.86 394.48 184.18C394.893 184.487 395.467 184.64 396.2 184.64C396.92 184.64 397.547 184.48 398.08 184.16C398.627 183.84 399.02 183.373 399.26 182.76L399.64 184.08C399.387 184.707 398.94 185.207 398.3 185.58C397.66 185.94 396.853 186.12 395.88 186.12ZM408.888 186V184.64L414.588 179.14C415.095 178.66 415.468 178.24 415.708 177.88C415.962 177.507 416.128 177.167 416.208 176.86C416.302 176.54 416.348 176.233 416.348 175.94C416.348 175.22 416.095 174.653 415.588 174.24C415.082 173.827 414.342 173.62 413.368 173.62C412.622 173.62 411.948 173.747 411.348 174C410.748 174.24 410.228 174.62 409.788 175.14L408.428 173.96C408.962 173.28 409.675 172.76 410.568 172.4C411.475 172.027 412.468 171.84 413.548 171.84C414.522 171.84 415.368 172 416.088 172.32C416.808 172.627 417.362 173.073 417.748 173.66C418.148 174.247 418.348 174.94 418.348 175.74C418.348 176.193 418.288 176.64 418.168 177.08C418.048 177.52 417.822 177.987 417.488 178.48C417.155 178.973 416.675 179.527 416.048 180.14L410.968 185.04L410.488 184.26H418.948V186H408.888ZM426.293 186.16C425.2 186.16 424.22 185.88 423.353 185.32C422.5 184.76 421.82 183.947 421.313 182.88C420.82 181.813 420.573 180.52 420.573 179C420.573 177.48 420.82 176.187 421.313 175.12C421.82 174.053 422.5 173.24 423.353 172.68C424.22 172.12 425.2 171.84 426.293 171.84C427.373 171.84 428.347 172.12 429.213 172.68C430.08 173.24 430.76 174.053 431.253 175.12C431.747 176.187 431.993 177.48 431.993 179C431.993 180.52 431.747 181.813 431.253 182.88C430.76 183.947 430.08 184.76 429.213 185.32C428.347 185.88 427.373 186.16 426.293 186.16ZM426.293 184.38C427.027 184.38 427.667 184.18 428.213 183.78C428.773 183.38 429.207 182.78 429.513 181.98C429.833 181.18 429.993 180.187 429.993 179C429.993 177.813 429.833 176.82 429.513 176.02C429.207 175.22 428.773 174.62 428.213 174.22C427.667 173.82 427.027 173.62 426.293 173.62C425.56 173.62 424.913 173.82 424.353 174.22C423.793 174.62 423.353 175.22 423.033 176.02C422.727 176.82 422.573 177.813 422.573 179C422.573 180.187 422.727 181.18 423.033 181.98C423.353 182.78 423.793 183.38 424.353 183.78C424.913 184.18 425.56 184.38 426.293 184.38ZM433.693 186V184.64L439.393 179.14C439.9 178.66 440.273 178.24 440.513 177.88C440.766 177.507 440.933 177.167 441.013 176.86C441.106 176.54 441.153 176.233 441.153 175.94C441.153 175.22 440.9 174.653 440.393 174.24C439.886 173.827 439.146 173.62 438.173 173.62C437.426 173.62 436.753 173.747 436.153 174C435.553 174.24 435.033 174.62 434.593 175.14L433.233 173.96C433.766 173.28 434.48 172.76 435.373 172.4C436.28 172.027 437.273 171.84 438.353 171.84C439.326 171.84 440.173 172 440.893 172.32C441.613 172.627 442.166 173.073 442.553 173.66C442.953 174.247 443.153 174.94 443.153 175.74C443.153 176.193 443.093 176.64 442.973 177.08C442.853 177.52 442.626 177.987 442.293 178.48C441.96 178.973 441.48 179.527 440.853 180.14L435.773 185.04L435.293 184.26H443.753V186H433.693ZM449.678 186.16C448.691 186.16 447.731 186.007 446.798 185.7C445.878 185.393 445.124 184.98 444.538 184.46L445.458 182.88C445.924 183.32 446.531 183.68 447.278 183.96C448.024 184.24 448.824 184.38 449.678 184.38C450.718 184.38 451.524 184.16 452.098 183.72C452.684 183.267 452.978 182.66 452.978 181.9C452.978 181.167 452.698 180.58 452.138 180.14C451.591 179.687 450.718 179.46 449.518 179.46H448.398V178.06L452.558 172.94L452.838 173.74H445.178V172H454.418V173.36L450.278 178.46L449.238 177.84H449.898C451.591 177.84 452.858 178.22 453.698 178.98C454.551 179.74 454.978 180.707 454.978 181.88C454.978 182.667 454.784 183.387 454.398 184.04C454.011 184.693 453.424 185.213 452.638 185.6C451.864 185.973 450.878 186.16 449.678 186.16ZM463.114 186V175.4H470.914V177.08H464.574L465.034 176.64V186H463.114ZM476.951 186.12C475.884 186.12 474.937 185.887 474.111 185.42C473.284 184.953 472.631 184.313 472.151 183.5C471.671 182.673 471.431 181.74 471.431 180.7C471.431 179.647 471.671 178.713 472.151 177.9C472.631 177.087 473.284 176.453 474.111 176C474.937 175.533 475.884 175.3 476.951 175.3C478.004 175.3 478.944 175.533 479.771 176C480.611 176.453 481.264 177.087 481.731 177.9C482.211 178.7 482.451 179.633 482.451 180.7C482.451 181.753 482.211 182.687 481.731 183.5C481.264 184.313 480.611 184.953 479.771 185.42C478.944 185.887 478.004 186.12 476.951 186.12ZM476.951 184.44C477.631 184.44 478.237 184.287 478.771 183.98C479.317 183.673 479.744 183.24 480.051 182.68C480.357 182.107 480.511 181.447 480.511 180.7C480.511 179.94 480.357 179.287 480.051 178.74C479.744 178.18 479.317 177.747 478.771 177.44C478.237 177.133 477.631 176.98 476.951 176.98C476.271 176.98 475.664 177.133 475.131 177.44C474.597 177.747 474.171 178.18 473.851 178.74C473.531 179.287 473.371 179.94 473.371 180.7C473.371 181.447 473.531 182.107 473.851 182.68C474.171 183.24 474.597 183.673 475.131 183.98C475.664 184.287 476.271 184.44 476.951 184.44ZM492.385 185.1V177.08H487.785L487.685 179.12C487.658 179.787 487.612 180.433 487.545 181.06C487.492 181.673 487.398 182.24 487.265 182.76C487.145 183.28 486.965 183.707 486.725 184.04C486.485 184.373 486.165 184.58 485.765 184.66L483.865 184.32C484.278 184.333 484.612 184.2 484.865 183.92C485.118 183.627 485.312 183.227 485.445 182.72C485.592 182.213 485.698 181.64 485.765 181C485.832 180.347 485.885 179.673 485.925 178.98L486.085 175.4H494.305V185.1H492.385ZM483.445 188.46V184.32H495.925V188.46H494.125V186H485.265V188.46H483.445Z" fill="black"/>
<path d="M236 46.9212C265.515 46.3615 333.471 56.1288 369.175 99.6758M369.175 99.6758L369.582 83.1157M369.175 99.6758L346.649 95.0082" stroke="black"/>
</svg>
