<svg width="320" height="279" viewBox="0 0 320 279" fill="none" xmlns="http://www.w3.org/2000/svg">
<g clip-path="url(#clip0_481_1736)">
<mask id="mask0_481_1736" style="mask-type:luminance" maskUnits="userSpaceOnUse" x="0" y="0" width="320" height="279">
<path d="M320 0H0V279H320V0Z" fill="white"/>
</mask>
<g mask="url(#mask0_481_1736)">
<path d="M248.72 249.44C246.757 253.984 244.739 258.527 242.775 263.126C256.067 271.203 269.919 278.495 272.386 275.579C273.564 274.176 272.891 269.689 258.534 252.974C255.282 251.796 251.973 250.618 248.72 249.44Z" fill="#5492ED"/>
<path d="M258.647 255.666C257.525 254.713 255.282 254.937 254.833 256.563C254.665 257.293 255.057 257.91 255.786 257.854C256.796 257.798 257.749 257.236 258.422 256.451C258.59 256.227 258.31 255.947 258.142 256.171C257.749 256.62 257.245 257.012 256.628 257.236C256.403 257.293 255.955 257.517 255.73 257.405C255.113 257.236 255.169 256.62 255.45 256.227C256.123 255.33 257.525 255.217 258.366 255.947C258.534 256.171 258.815 255.834 258.647 255.666Z" fill="white"/>
<path d="M258.591 255.778C258.816 255.105 259.489 254.713 260.161 254.544C260.61 254.432 261.171 254.432 261.508 254.769C261.956 255.161 261.9 255.722 261.396 256.003C260.61 256.507 259.601 256.115 258.76 256.619C258.535 256.732 258.76 257.124 258.984 256.956C259.825 256.451 260.891 256.844 261.676 256.283C262.237 255.89 262.349 255.217 262.013 254.713C261.059 253.254 258.648 254.32 258.199 255.666C258.143 255.946 258.535 256.059 258.591 255.778Z" fill="white"/>
<path d="M258.366 259.144C259.656 258.415 261.058 258.246 262.46 258.695C262.74 258.751 262.853 258.359 262.572 258.303C261.058 257.854 259.488 258.022 258.142 258.807C257.918 258.919 258.142 259.312 258.366 259.144Z" fill="white"/>
<path d="M259.769 261.668C260.947 260.826 262.348 260.602 263.695 261.051C263.975 261.163 264.087 260.714 263.807 260.658C262.348 260.153 260.778 260.378 259.544 261.276C259.376 261.5 259.544 261.836 259.769 261.668Z" fill="white"/>
<path d="M261.675 264.192C262.965 263.35 264.479 263.182 265.938 263.743C266.218 263.855 266.274 263.407 266.049 263.35C264.535 262.79 262.853 262.958 261.507 263.855C261.226 263.967 261.451 264.36 261.675 264.192Z" fill="white"/>
<path d="M263.694 268.118C265.489 267.052 267.508 266.772 269.526 267.277C269.807 267.333 269.919 266.94 269.639 266.884C267.508 266.323 265.377 266.66 263.47 267.782C263.246 267.894 263.47 268.231 263.694 268.118Z" fill="white"/>
<path d="M244.122 261.668C250.291 265.202 256.348 268.904 262.293 272.83C262.517 272.999 262.741 272.606 262.517 272.494C256.572 268.567 250.515 264.809 244.346 261.332C244.066 261.163 243.842 261.5 244.122 261.668Z" fill="white"/>
<path d="M265.882 121.382C267.227 124.243 269.414 128.899 272.218 134.508C275.92 141.968 279.453 148.98 284.332 157.898C289.436 167.153 291.286 169.902 293.137 175.96C294.09 179.157 295.212 182.915 295.268 187.963C295.268 190.712 294.988 196.04 291.174 205.352C287.529 214.158 283.266 220.16 281.135 223.189C276.032 230.425 269.246 240.297 259.937 254.04C258.927 253.198 257.525 252.3 255.843 251.459C253.039 250.113 250.515 249.664 248.721 249.44C249.281 247.757 250.123 245.233 251.02 242.092C252.926 235.473 254.16 229.64 257.133 212.139C257.75 208.605 258.535 204.006 259.432 198.677C259.32 196.882 258.983 194.134 257.918 190.936C256.572 186.898 254.946 184.934 250.908 178.035C249.394 175.399 247.935 172.763 246.421 170.126C241.037 160.647 240.589 159.749 238.57 156.271C236.719 153.074 234.139 148.531 230.831 142.978C231.447 138.434 233.018 135.237 234.307 133.162C243.449 119.083 264.984 121.326 265.882 121.382Z" fill="#202124"/>
<path d="M195.219 245.233C193.649 248.599 192.022 252.02 190.452 255.386C213.95 266.155 226.4 270.418 227.746 268.062C228.924 266.043 221.745 259.032 206.155 247.028C202.509 246.467 198.864 245.85 195.219 245.233Z" fill="#5492ED"/>
<path d="M207.331 248.654C206.322 248.654 205.369 249.047 204.583 249.72C204.023 250.225 203.182 251.235 203.574 252.02C204.471 253.759 207.163 250.506 207.668 249.832C207.836 249.608 207.444 249.384 207.331 249.608C206.883 250.225 206.378 250.786 205.817 251.235C205.425 251.571 203.574 252.749 204.079 251.123C204.471 249.832 206.098 249.047 207.331 249.047C207.612 249.103 207.612 248.654 207.331 248.654Z" fill="white"/>
<path d="M207.837 249.271C208.286 248.374 209.407 247.421 210.529 247.757C211.37 248.037 210.866 248.71 210.305 248.935C210.08 248.991 209.856 249.047 209.631 249.103C209.014 249.271 208.398 249.44 207.781 249.552C207.501 249.608 207.613 250 207.893 249.944C208.51 249.776 209.127 249.608 209.744 249.496C210.192 249.383 210.697 249.271 211.034 248.991C211.426 248.654 211.594 247.981 211.202 247.589C210.697 247.14 209.744 247.252 209.183 247.477C208.454 247.757 207.837 248.318 207.501 249.047C207.388 249.271 207.725 249.496 207.837 249.271Z" fill="white"/>
<path d="M208.566 252.244C209.351 251.403 210.417 250.955 211.594 250.898C211.875 250.898 211.875 250.45 211.594 250.45C210.304 250.506 209.183 251.011 208.286 251.908C208.061 252.132 208.398 252.469 208.566 252.244Z" fill="white"/>
<path d="M210.023 253.815C210.696 253.03 211.65 252.637 212.715 252.693C212.996 252.693 212.996 252.3 212.715 252.244C211.594 252.132 210.472 252.637 209.743 253.478C209.519 253.759 209.799 254.04 210.023 253.815Z" fill="white"/>
<path d="M211.538 255.386C212.38 254.432 213.558 253.927 214.791 254.152C215.072 254.208 215.184 253.759 214.903 253.759C213.501 253.534 212.155 254.04 211.202 255.105C211.09 255.273 211.37 255.61 211.538 255.386Z" fill="white"/>
<path d="M214.343 256.956C215.577 255.946 217.035 255.385 218.605 255.161C218.885 255.105 218.885 254.712 218.605 254.712C216.923 254.881 215.353 255.554 214.062 256.619C213.838 256.788 214.175 257.124 214.343 256.956Z" fill="white"/>
<path d="M191.293 253.646C197.854 257.012 204.416 260.378 210.977 263.743C211.202 263.855 211.426 263.519 211.202 263.407C204.64 260.041 198.079 256.676 191.517 253.31C191.237 253.198 191.012 253.534 191.293 253.646Z" fill="white"/>
<path d="M210.361 130.918C210.248 132.433 210.081 134.676 210.024 137.369C209.912 141.351 209.688 148.026 210.473 153.691C211.37 159.917 213.389 164.461 215.744 169.341C223.708 185.944 233.186 202.715 236.663 208.886C235.092 210.007 232.625 211.802 229.709 214.046C224.493 218.084 219.951 222.067 207.949 233.23C204.641 236.315 200.266 240.409 195.219 245.233C196.564 245.289 197.967 245.457 199.537 245.738C202.79 246.299 205.482 247.309 207.556 248.262C210.024 247.084 213.95 245.177 218.829 242.933C224.381 240.353 233.354 236.315 243.841 231.266C246.365 230.032 253.431 226.611 258.759 221.338C260.105 219.992 261.507 218.421 262.741 216.29C264.535 213.148 265.096 210.288 265.489 208.325C265.937 205.744 266.386 201.594 265.489 196.433C264.703 192.843 263.526 187.851 262.124 181.961C260.217 174.053 258.03 165.078 254.889 154.589C252.702 147.185 249.562 137.425 245.244 125.982C233.635 127.609 221.969 129.236 210.361 130.918Z" fill="#202124"/>
<path d="M210.248 129.852C209.687 136.92 209.351 144.1 209.967 151.167C210.528 157.674 212.94 163.563 215.576 169.453C221.52 182.635 228.699 195.143 235.877 207.652C235.989 207.876 236.382 207.652 236.214 207.427C229.372 195.536 222.53 183.644 216.81 171.192C213.781 164.573 210.865 158.011 210.304 150.663C209.8 143.763 210.08 136.752 210.641 129.852C210.697 129.572 210.248 129.572 210.248 129.852Z" fill="#202124"/>
<path d="M251.412 143.427C256.796 161.376 261.507 179.55 265.601 197.836C265.657 198.116 266.05 198.004 265.993 197.723C261.955 179.438 257.189 161.264 251.805 143.315C251.749 143.09 251.356 143.202 251.412 143.427Z" fill="#202124"/>
<path d="M196.06 245.962C199.705 245.85 203.407 245.85 206.491 248.038C206.715 248.206 206.94 247.813 206.715 247.701C203.575 245.457 199.817 245.457 196.06 245.569C195.835 245.569 195.835 245.962 196.06 245.962Z" fill="#202124"/>
<path d="M291.118 73.3683C292.632 70.5634 294.035 68.2635 295.044 66.6368C297.287 63.1033 298.128 62.3182 299.026 61.7011C301.213 60.1864 303.624 59.9059 305.138 59.9059C305.082 60.523 304.97 61.14 304.97 61.8691C304.914 63.5519 305.026 65.0106 305.25 66.2443C304.914 66.6933 304.41 67.4784 303.736 68.3761C302.222 70.5634 302.054 70.7319 301.83 71.2365C301.045 72.9192 301.493 73.4243 300.876 74.6579C300.035 76.2287 298.521 76.9017 297.792 77.2383C294.707 78.6405 290.333 78.0799 289.716 76.3407C289.604 76.0041 289.492 75.051 291.118 73.3683Z" fill="white"/>
<path d="M276.986 47.117C277.491 47.734 278.052 48.351 278.556 48.968C278.669 49.8094 278.781 50.9312 278.893 52.3333C279.285 56.4284 279.902 63.2153 280.295 71.629C280.463 75.0505 280.631 79.2016 280.687 83.9692C284.557 80.0987 288.426 76.2287 292.296 72.3581C292.465 72.9752 292.688 73.7603 293.305 74.6019C294.82 76.6772 297.175 77.1823 297.792 77.2943C297.287 78.36 296.502 79.9867 295.549 81.95C292.184 89.0174 291.791 90.3636 289.492 95.0753C287.978 98.1602 285.847 102.255 282.482 106.406C281.473 107.64 280.014 109.267 277.659 110.22C276.874 110.5 274.63 111.398 272.163 110.725C269.695 110.052 268.293 108.145 266.835 106.125C264.985 103.545 264.368 101.582 262.181 95.3558C260.049 89.354 260.554 90.9807 259.657 88.2323C257.974 83.2401 256.124 77.8554 254.441 70.8999C253.768 68.2635 252.983 64.6735 252.254 60.3544C253.376 58.4477 259.32 48.5193 270.2 47.0048C272.668 46.5561 274.967 46.7243 276.986 47.117Z" fill="#B1CEFC"/>
<path d="M253.094 66.6368C256.291 79.5941 260.441 92.2149 265.601 104.499C265.712 104.723 266.105 104.611 265.993 104.387C260.833 92.1024 256.684 79.4256 253.487 66.5248C253.431 66.3003 253.038 66.4128 253.094 66.6368Z" fill="#202124"/>
<path d="M294.315 70.3948C295.044 70.3948 295.717 70.1708 296.278 69.7217C297.119 68.9926 297.119 67.927 297.792 67.1414C298.689 66.1317 300.372 65.9637 300.652 64.449C300.708 64.169 300.316 64.0564 300.26 64.337C299.979 65.5712 298.521 65.9077 297.68 66.6368C297.343 66.9734 297.119 67.2539 296.951 67.7025C296.39 68.9926 295.886 69.8903 294.315 69.9463C294.035 70.0023 294.035 70.3948 294.315 70.3948Z" fill="#202124"/>
<path d="M295.268 66.7493C296.333 64.9541 297.96 63.6079 299.922 62.8788C300.203 62.7668 300.091 62.3742 299.81 62.4862C297.735 63.2153 296.053 64.6175 294.931 66.5248C294.763 66.7493 295.1 66.9734 295.268 66.7493Z" fill="#202124"/>
<path d="M304.858 60.9155C303.511 61.7006 302.278 62.5982 301.044 63.4959C300.82 63.6639 301.044 64.0004 301.268 63.8324C302.502 62.8788 303.792 62.0372 305.082 61.2521C305.306 61.14 305.082 60.7475 304.858 60.9155Z" fill="#202124"/>
<path d="M304.802 61.7571C303.961 63.2153 302.951 64.4495 301.661 65.5712C301.437 65.7397 301.773 66.0197 301.942 65.8517C303.231 64.7301 304.297 63.4399 305.138 61.9812C305.307 61.7011 304.914 61.4766 304.802 61.7571Z" fill="#202124"/>
<path d="M305.194 63.0468C304.466 64.6735 303.456 66.1322 302.166 67.3659C301.998 67.5344 302.278 67.871 302.446 67.6465C303.737 66.3563 304.802 64.8981 305.531 63.2713C305.699 62.9908 305.307 62.7668 305.194 63.0468Z" fill="#202124"/>
<path d="M199.537 42.237C200.042 48.9119 200.546 55.6428 200.995 62.3177C200.883 67.0294 200.883 72.5827 201.22 78.8085C201.276 79.4256 201.612 86.0445 202.454 92.888C204.304 108.369 208.398 122.897 210.473 129.908C212.155 130.75 214.679 131.815 217.932 132.713C225.166 134.676 231.167 134.227 236.046 133.835C242.327 133.33 246.926 132.096 250.403 131.142C256.572 129.46 261.619 127.496 265.32 125.814C265.881 124.355 266.723 121.943 267.732 118.914C273.004 102.479 274.293 88.4564 274.686 81.1083C274.967 76.5652 274.686 77.4623 274.967 70.8999C275.415 60.747 276.312 52.5578 276.985 47.2292C275.079 45.9951 272.387 44.3685 269.078 42.7418C257.918 37.1887 247.935 35.5621 243.056 35.0011C237.616 34.3842 228.026 33.8232 216.53 36.4034C209.351 37.918 203.575 40.2738 199.537 42.237Z" fill="#B1CEFC"/>
<path d="M274.63 52.8949C274.966 76.6212 275.19 101.021 265.657 123.234C265.545 123.458 265.937 123.682 265.993 123.458C275.527 101.19 275.359 76.6777 275.022 52.8949C275.078 52.6144 274.63 52.6144 274.63 52.8949Z" fill="white"/>
<path d="M195.892 125.084C195.892 125.59 195.892 126.431 196.34 127.272C197.014 128.618 198.304 129.292 199.425 129.852C200.883 130.582 201.22 130.413 202.061 131.142C202.846 131.815 202.79 132.208 203.519 132.994C203.575 133.05 204.697 134.227 206.379 134.676C206.828 134.788 207.781 134.957 212.156 133.611C213.221 133.274 214.062 132.994 214.623 132.769C214.511 132.04 214.118 130.75 213.109 129.404C212.212 128.226 211.146 127.496 210.529 127.16C212.324 127.665 213.726 127.553 214.006 126.992C214.287 126.375 213.277 125.197 212.492 124.58C211.595 123.907 210.81 123.794 208.735 123.29C207.949 123.065 206.772 122.785 205.37 122.336C204.697 121.944 203.687 121.494 202.397 121.438C198.64 121.214 196.117 124.804 195.892 125.084Z" fill="white"/>
<path d="M199.537 42.2371C198.752 42.854 197.63 43.8637 196.396 45.0977C194.658 46.8365 190.227 51.4922 185.853 60.691C181.927 69.0487 180.469 76.0601 179.516 80.6038C178.338 86.3251 177.273 94.3462 177.497 104.106C178.002 105.004 178.731 106.294 179.684 107.808C182.769 112.632 185.797 115.942 189.274 119.812C190.732 121.438 192.751 123.514 195.163 125.926C195.667 125.365 196.284 124.748 197.069 124.243C200.434 121.943 204.192 122.224 205.65 122.392C204.416 119.812 203.182 117.007 202.061 114.034C199.817 108.201 198.247 102.76 197.126 97.7677C197.799 95.1313 198.752 91.7658 200.098 87.8398C200.995 85.2594 203.014 79.7621 206.435 73.0312C208.174 69.5537 210.529 65.4592 213.501 60.9155C213.67 60.3544 215.801 53.5675 211.258 47.6779C206.94 42.0687 200.154 42.1809 199.537 42.2371Z" fill="#B1CEFC"/>
<path d="M209.183 126.375C211.819 127.665 213.725 130.021 214.398 132.881C214.454 133.162 214.847 133.05 214.791 132.769C214.062 129.796 212.099 127.384 209.351 126.038C209.183 125.87 208.958 126.206 209.183 126.375Z" fill="#202124"/>
<path d="M204.304 130.581C204.809 130.918 205.313 131.367 205.706 131.871C205.93 132.152 206.099 132.377 206.211 132.713C206.435 133.274 206.491 134.452 205.482 134.283C205.201 134.227 205.089 134.62 205.37 134.676C206.323 134.844 206.94 134.003 206.771 133.106C206.547 131.927 205.426 130.918 204.528 130.245C204.304 130.077 204.079 130.413 204.304 130.581Z" fill="#202124"/>
<path d="M206.099 129.852C207.445 130.806 208.959 132.096 208.51 133.947C208.454 134.227 208.847 134.34 208.903 134.059C209.352 132.04 207.838 130.581 206.267 129.516C206.099 129.348 205.931 129.684 206.099 129.852Z" fill="#202124"/>
<path d="M208.117 129.796C209.856 130.077 211.09 131.703 210.865 133.442C210.809 133.723 211.258 133.723 211.314 133.442C211.538 131.535 210.192 129.684 208.286 129.404C207.949 129.348 207.837 129.796 208.117 129.796Z" fill="#202124"/>
<path d="M209.744 128.73C211.146 129.684 212.043 131.142 212.267 132.825C212.323 133.106 212.716 133.106 212.716 132.825C212.492 130.974 211.538 129.404 210.024 128.394C209.688 128.225 209.519 128.562 209.744 128.73Z" fill="#202124"/>
<path d="M225.783 27.0923C225.727 28.102 225.839 29.0556 225.951 29.7287C226.064 30.4579 226.288 31.6358 226.793 32.7576C228.195 35.8427 231.279 37.0767 231.504 37.1889C233.411 37.9181 235.093 37.8059 235.99 37.6376C236.215 37.9742 236.439 38.3107 236.663 38.5911C236.607 38.5911 235.317 38.5351 234.756 39.4325C234.195 40.33 234.812 41.564 235.486 42.1249C236.887 43.2467 239.187 42.181 239.691 41.9006C241.262 41.1714 242.047 39.9373 242.327 39.4886C243 38.4229 243.281 37.4132 243.393 36.7401C242.496 36.8523 241.599 36.9645 240.757 37.1328C240.421 36.6279 240.084 36.067 239.748 35.5622C240.308 34.9452 241.262 33.8794 241.878 32.2528C241.991 31.8602 242.439 30.7383 242.439 29.1678C242.439 28.2142 242.383 25.1292 240.477 22.9416C237.448 19.4078 230.663 19.2956 227.802 22.4928C226.905 23.4464 225.951 25.1292 225.783 27.0923Z" fill="white"/>
<path d="M242.552 26.9802C241.935 26.251 240.141 24.2317 237.056 23.3903C236.103 23.1659 233.299 22.4928 230.326 23.9513C227.578 25.2974 226.345 27.6533 226.008 28.4386C225.559 28.3264 224.886 28.1581 224.158 27.8216C221.241 26.4193 220.007 23.7269 219.839 23.2782C219.446 22.3807 218.381 19.52 219.783 16.3789C220.063 15.818 221.241 13.2938 223.989 12.1159C226.737 10.938 229.317 11.8915 231.336 12.6207C236.327 14.4157 238.963 18.286 239.692 19.3517C241.543 22.2685 242.272 25.0731 242.552 26.9802Z" fill="#202124"/>
<path d="M235.766 37.6936C235.991 38.0302 236.215 38.3667 236.439 38.6472C236.608 38.8715 236.944 38.6472 236.776 38.4228C236.551 38.0863 236.327 37.7497 236.103 37.4692C235.991 37.2449 235.654 37.4692 235.766 37.6936Z" fill="#202124"/>
<path d="M225.952 28.5507C222.027 26.5875 218.157 22.7733 219.391 17.9494C220.512 13.4621 224.719 11.1062 229.093 12.1158C236.103 13.7986 241.095 19.6883 242.272 26.6997C242.328 26.9802 242.721 26.868 242.665 26.5875C241.879 22.1002 239.692 17.9494 236.047 15.0887C233.187 12.789 228.588 10.5453 224.831 11.555C221.578 12.4524 218.998 15.8179 218.718 19.1273C218.381 23.6708 221.971 26.9802 225.672 28.8312C225.952 29.0556 226.177 28.719 225.952 28.5507Z" fill="#202124"/>
<path d="M226.232 27.7095C230.102 22.2686 237.449 21.876 241.935 26.7559C242.103 26.9803 242.44 26.6437 242.215 26.4755C237.561 21.3711 229.878 21.876 225.84 27.4851C225.727 27.7095 226.064 27.9339 226.232 27.7095Z" fill="#202124"/>
<path d="M232.121 26.9241C231.561 28.8873 230.944 32.5894 233.579 33.3185C233.86 33.3746 233.972 32.982 233.692 32.9259C231.392 32.2528 232.009 28.719 232.514 27.0363C232.57 26.8119 232.177 26.6997 232.121 26.9241Z" fill="#202124"/>
<path d="M236.607 27.4288C236.607 27.9336 236.383 28.3263 236.103 28.3263C235.822 28.3263 235.598 27.9336 235.598 27.4288C235.598 26.924 235.822 26.5313 236.103 26.5313C236.383 26.5313 236.607 26.924 236.607 27.4288Z" fill="#202124"/>
<path d="M159.888 87.7273C159.664 88.0638 159.888 141.295 159.888 141.295L227.241 151.448C227.746 131.479 228.307 111.51 228.812 91.5418C205.875 90.3076 182.881 89.0174 159.888 87.7273Z" fill="#CCCCCC"/>
<path d="M169.646 97.8802L215.633 101.975" stroke="white" stroke-width="1.27865" stroke-miterlimit="10"/>
<path d="M169.982 105.789L217.091 109.996" stroke="white" stroke-width="1.27865" stroke-miterlimit="10"/>
<path d="M169.422 118.354L222.306 123.346" stroke="white" stroke-width="1.27865" stroke-miterlimit="10"/>
<path d="M165.945 132.769C167.121 132.769 168.076 131.814 168.076 130.637C168.076 129.46 167.121 128.506 165.945 128.506C164.767 128.506 163.813 129.46 163.813 130.637C163.813 131.814 164.767 132.769 165.945 132.769Z" stroke="white" stroke-width="1.27865" stroke-miterlimit="10"/>
<path d="M165.103 99.2824C166.249 99.2824 167.179 98.3529 167.179 97.2071C167.179 96.0608 166.249 95.1313 165.103 95.1313C163.958 95.1313 163.028 96.0608 163.028 97.2071C163.028 98.3529 163.958 99.2824 165.103 99.2824Z" stroke="white" stroke-width="1.27865" stroke-miterlimit="10"/>
<path d="M169.646 118.017C169.702 117.512 169.814 116.951 169.87 116.447C169.926 116.166 169.477 116.166 169.421 116.447C169.365 116.951 169.253 117.512 169.197 118.017C169.197 118.298 169.59 118.298 169.646 118.017Z" fill="white"/>
<path d="M169.758 116.503C186.975 118.129 204.136 119.756 221.353 121.382C221.633 121.382 221.633 120.99 221.353 120.934C204.136 119.307 186.975 117.68 169.758 116.054C169.534 116.054 169.534 116.503 169.758 116.503Z" fill="white"/>
<path d="M221.801 121.214C221.801 121.719 221.801 122.28 221.801 122.785C221.801 123.065 222.25 123.065 222.25 122.785C222.25 122.28 222.25 121.719 222.25 121.214C222.194 120.933 221.801 120.933 221.801 121.214Z" fill="white"/>
<path d="M170.207 105.677C170.319 105.116 170.375 104.611 170.319 104.05C170.319 103.77 169.871 103.77 169.871 104.05C169.927 104.555 169.871 105.06 169.758 105.565C169.758 105.845 170.151 105.957 170.207 105.677Z" fill="white"/>
<path d="M170.376 104.219C185.799 105.172 201.221 106.294 216.643 107.528C216.923 107.528 216.923 107.135 216.643 107.079C201.221 105.845 185.799 104.723 170.376 103.77C170.095 103.77 170.095 104.163 170.376 104.219Z" fill="white"/>
<path d="M216.923 107.809C216.923 108.369 216.923 108.93 216.923 109.491C216.923 109.771 217.372 109.771 217.372 109.491C217.372 108.93 217.372 108.369 217.372 107.809C217.316 107.528 216.923 107.528 216.923 107.809Z" fill="white"/>
<path d="M170.151 97.6557C170.263 97.0386 170.319 96.4215 170.263 95.7484C170.263 95.4678 169.814 95.4678 169.814 95.7484C169.87 96.3655 169.87 96.9266 169.758 97.5436C169.702 97.8242 170.094 97.9362 170.151 97.6557Z" fill="white"/>
<path d="M170.487 95.9169C185.292 97.0386 200.21 96.814 214.904 99.2824C215.184 99.3384 215.296 98.9458 215.016 98.8893C200.323 96.3655 185.349 96.59 170.487 95.4678C170.207 95.4678 170.207 95.8604 170.487 95.9169Z" fill="white"/>
<path d="M215.352 99.5629C215.352 100.011 215.352 100.46 215.352 100.909C215.352 101.19 215.801 101.19 215.801 100.909C215.801 100.46 215.801 100.011 215.801 99.5629C215.745 99.2824 215.352 99.2824 215.352 99.5629Z" fill="white"/>
<path d="M170.206 108.93C169.477 109.94 168.747 110.894 168.019 111.903C167.906 112.015 168.075 112.24 168.187 112.24C169.196 112.24 170.094 112.464 170.991 112.969C171.215 113.081 171.439 112.744 171.215 112.632C170.262 112.071 169.252 111.847 168.187 111.847C168.243 111.959 168.299 112.071 168.355 112.184C169.084 111.174 169.813 110.22 170.542 109.211C170.767 108.93 170.374 108.706 170.206 108.93Z" fill="white"/>
<path d="M173.516 112.913C174.301 111.847 175.143 110.781 175.928 109.715C176.096 109.491 175.703 109.267 175.591 109.491C174.806 110.557 173.965 111.623 173.18 112.688C172.955 112.913 173.348 113.137 173.516 112.913Z" fill="white"/>
<path d="M177.554 111.791C186.19 112.071 194.883 113.361 203.463 114.202C203.744 114.202 203.744 113.81 203.463 113.754C194.883 112.912 186.19 111.566 177.554 111.342C177.273 111.398 177.273 111.791 177.554 111.791Z" fill="white"/>
<path d="M203.463 111.679C204.024 111.959 204.529 112.24 205.09 112.464C205.594 112.688 206.268 112.913 206.716 113.249C206.828 113.305 206.885 113.361 206.997 113.417C206.997 113.698 206.885 113.922 206.66 114.034C206.492 114.203 206.211 114.371 206.043 114.54C205.538 114.932 205.034 115.325 204.473 115.717C204.249 115.886 204.473 116.222 204.697 116.054C205.427 115.493 206.155 114.932 206.885 114.371C207.165 114.146 207.726 113.866 207.614 113.417C207.502 112.969 206.716 112.744 206.324 112.576C205.427 112.127 204.585 111.679 203.688 111.286C203.463 111.23 203.239 111.567 203.463 111.679Z" fill="white"/>
<path d="M170.263 121.326C169.366 122.28 168.525 123.29 167.627 124.243C167.515 124.355 167.571 124.58 167.739 124.58C168.805 124.804 169.814 124.972 170.88 125.196C171.16 125.253 171.273 124.86 170.992 124.804C169.926 124.58 168.917 124.411 167.851 124.187C167.908 124.299 167.908 124.411 167.964 124.523C168.861 123.57 169.702 122.56 170.599 121.607C170.712 121.438 170.431 121.158 170.263 121.326Z" fill="white"/>
<path d="M172.786 125.758C174.188 124.467 175.59 123.177 177.049 121.888C177.273 121.719 176.936 121.382 176.768 121.607C175.366 122.897 173.964 124.187 172.506 125.477C172.281 125.646 172.562 125.926 172.786 125.758Z" fill="white"/>
<path d="M177.16 123.963C180.805 124.131 184.451 124.299 188.096 124.467C188.377 124.467 188.377 124.075 188.096 124.019C184.451 123.85 180.805 123.682 177.16 123.514C176.88 123.514 176.88 123.963 177.16 123.963Z" fill="white"/>
<path d="M187.199 122.112C188.714 123.177 190.396 123.962 192.246 124.467C192.246 124.355 192.191 124.187 192.191 124.075C190.845 124.804 189.723 125.758 188.882 126.992C188.714 127.216 189.106 127.44 189.218 127.216C190.059 126.038 191.125 125.084 192.415 124.411C192.583 124.299 192.527 124.075 192.359 124.019C190.564 123.57 188.938 122.785 187.423 121.719C187.199 121.606 186.975 121.943 187.199 122.112Z" fill="white"/>
<path d="M267.9 57.7746C268.966 58.7282 267.9 106.967 267.9 106.967L319.719 85.54V42.8541L267.9 57.7746Z" fill="#FAD9BD"/>
<path d="M271.714 64.7861C272.736 64.7861 273.565 63.9573 273.565 62.9348C273.565 61.9128 272.736 61.084 271.714 61.084C270.692 61.084 269.863 61.9128 269.863 62.9348C269.863 63.9573 270.692 64.7861 271.714 64.7861Z" stroke="#202124" stroke-width="1.27865" stroke-miterlimit="10"/>
<path d="M272.723 97.0386C273.993 97.0386 275.022 96.0094 275.022 94.7393C275.022 93.4691 273.993 92.4394 272.723 92.4394C271.453 92.4394 270.424 93.4691 270.424 94.7393C270.424 96.0094 271.453 97.0386 272.723 97.0386Z" stroke="#202124" stroke-width="1.27865" stroke-miterlimit="10"/>
<path d="M271.714 63.6639C272.779 63.6639 272.779 61.9812 271.714 61.9812C270.648 61.9812 270.648 63.6639 271.714 63.6639Z" fill="#202124"/>
<path d="M271.938 95.5244C271.994 95.5804 271.994 95.5804 272.05 95.6364C272.387 95.9729 272.891 95.9729 273.228 95.6364C273.564 95.2998 273.564 94.7947 273.228 94.4582C273.172 94.4022 273.172 94.4022 273.116 94.3462C272.779 94.0096 272.274 94.0096 271.938 94.3462C271.601 94.6827 271.601 95.2438 271.938 95.5244Z" fill="#202124"/>
<path d="M278.892 58.9522C278.219 59.7939 277.546 60.7475 276.986 61.6446C276.929 61.7571 276.986 61.9812 277.154 61.9812C277.995 61.9812 278.78 61.9812 279.621 61.9252C279.902 61.9252 279.902 61.4766 279.621 61.4766C278.78 61.4766 277.995 61.4766 277.154 61.5326C277.21 61.6446 277.266 61.7571 277.322 61.8691C277.882 60.9715 278.499 60.0744 279.173 59.2328C279.341 59.0648 279.06 58.7842 278.892 58.9522Z" fill="#202124"/>
<path d="M282.482 58.3357C281.697 59.4013 281.136 60.523 280.744 61.7571C280.631 62.0377 281.08 62.1497 281.136 61.8691C281.528 60.6915 282.089 59.5698 282.875 58.5602C282.987 58.3357 282.594 58.1111 282.482 58.3357Z" fill="#202124"/>
<path d="M284.276 57.8866C284.893 58.2231 285.566 58.5037 286.239 58.7282C286.407 58.7842 286.575 58.7842 286.575 59.0088C286.575 59.0648 286.183 59.4573 286.071 59.5133C285.735 59.8499 285.454 60.1864 285.118 60.467C284.949 60.635 285.23 60.9715 285.398 60.7475C285.847 60.2984 286.295 59.8499 286.744 59.3453C286.912 59.1768 287.136 58.9522 287.024 58.6722C286.912 58.3917 286.463 58.3917 286.239 58.2791C285.622 58.1111 285.062 57.8306 284.445 57.55C284.22 57.382 283.996 57.7746 284.276 57.8866Z" fill="#202124"/>
<path d="M278.219 65.6837C278.275 66.1883 278.331 66.6933 278.387 67.1419C278.443 67.4224 278.836 67.4224 278.836 67.1419C278.78 66.6368 278.724 66.1322 278.668 65.6837C278.611 65.4031 278.219 65.4031 278.219 65.6837Z" fill="#202124"/>
<path d="M278.893 65.7957C288.427 62.9913 298.016 60.1304 307.55 57.326C307.83 57.2695 307.718 56.8209 307.438 56.933C297.904 59.7379 288.315 62.5982 278.78 65.4031C278.5 65.4592 278.612 65.9077 278.893 65.7957Z" fill="#202124"/>
<path d="M280.406 67.4224C289.547 64.6741 298.745 61.9817 307.886 59.2328C308.167 59.1768 308.055 58.7282 307.774 58.8402C298.633 61.5891 289.435 64.2815 280.294 67.0299C280.07 67.0859 280.182 67.4784 280.406 67.4224Z" fill="#202124"/>
<path d="M307.494 57.2695C307.55 57.6621 307.606 58.0551 307.718 58.4477C307.774 58.7282 308.167 58.6157 308.111 58.3351C308.055 57.9426 307.999 57.55 307.886 57.1575C307.83 56.933 307.438 57.0455 307.494 57.2695Z" fill="#202124"/>
<path d="M284.724 68.7126C284.837 69.1612 284.893 69.6097 285.005 70.1148C285.061 70.3953 285.454 70.2828 285.397 70.0028C285.285 69.5537 285.229 69.1052 285.117 68.6001C285.061 68.3201 284.668 68.4321 284.724 68.7126Z" fill="#202124"/>
<path d="M285.23 68.4321C294.091 65.9637 302.951 63.3279 311.756 60.635C312.036 60.579 311.924 60.1304 311.644 60.2424C302.839 62.9913 293.978 65.5712 285.117 68.0395C284.893 68.0955 285.005 68.4881 285.23 68.4321Z" fill="#202124"/>
<path d="M286.127 70.4514C295.1 67.5904 304.129 64.7301 313.102 61.8691C313.382 61.8131 313.27 61.3646 312.989 61.4766C304.017 64.3375 294.987 67.1979 286.014 70.0588C285.79 70.1148 285.902 70.5074 286.127 70.4514Z" fill="#202124"/>
<path d="M312.372 60.0744C312.428 60.4109 312.428 60.7475 312.485 61.084C312.485 61.3646 312.933 61.3646 312.933 61.084C312.877 60.7475 312.877 60.4109 312.821 60.0744C312.765 59.8499 312.317 59.8499 312.372 60.0744Z" fill="#202124"/>
<path d="M278.836 75.7236C278.219 76.5652 277.602 77.4068 276.985 78.2479C276.929 78.36 276.985 78.5285 277.098 78.5845C277.939 78.6965 278.78 78.809 279.621 78.865C279.902 78.865 279.902 78.4725 279.621 78.4165C278.836 78.36 277.995 78.3039 277.21 78.1919C277.266 78.3039 277.266 78.4165 277.322 78.5285C277.939 77.6869 278.556 76.8457 279.172 76.0041C279.341 75.7236 279.004 75.4996 278.836 75.7236Z" fill="#202124"/>
<path d="M281.696 75.3315C281.079 76.3412 280.518 77.4068 280.126 78.4725C280.013 78.753 280.462 78.809 280.518 78.5845C280.911 77.5188 281.416 76.5092 282.033 75.5556C282.201 75.3315 281.864 75.107 281.696 75.3315Z" fill="#202124"/>
<path d="M282.986 76.6212C288.65 75.219 294.314 73.7048 299.978 72.1341C300.259 72.0781 300.147 71.629 299.866 71.7415C294.258 73.3683 288.594 74.8265 282.873 76.2287C282.593 76.2847 282.705 76.7337 282.986 76.6212Z" fill="#202124"/>
<path d="M299.643 71.0684C300.427 71.573 301.269 71.9656 302.11 72.2461C302.391 72.3581 302.503 71.9096 302.222 71.8535C301.381 71.573 300.596 71.1805 299.867 70.7319C299.587 70.5634 299.418 70.8999 299.643 71.0684Z" fill="#202124"/>
<path d="M301.829 69.7783C302.894 70.0588 303.96 70.2828 305.081 70.4514C305.025 70.3393 304.969 70.2268 304.913 70.1148C304.408 70.6759 304.016 71.349 303.791 72.0781C303.679 72.3586 304.128 72.4706 304.184 72.1901C304.408 71.517 304.744 70.9559 305.193 70.3953C305.305 70.2268 305.249 70.0588 305.025 70.0588C303.96 69.9463 302.95 69.7222 301.885 69.4417C301.66 69.3297 301.548 69.7222 301.829 69.7783Z" fill="#202124"/>
<path d="M277.322 83.1281C277.266 83.5207 277.21 83.9132 277.098 84.3058C277.042 84.5863 277.434 84.6989 277.49 84.4183C277.547 84.0258 277.603 83.6327 277.715 83.2401C277.771 82.9596 277.378 82.8476 277.322 83.1281Z" fill="#202124"/>
<path d="M278.387 82.9036C287.585 80.3797 296.726 77.6308 305.811 74.6579C306.091 74.6019 305.979 74.1534 305.699 74.2654C296.614 77.2383 287.472 79.9867 278.275 82.511C277.995 82.567 278.107 82.9596 278.387 82.9036Z" fill="#202124"/>
<path d="M279.677 84.7549C288.651 81.6694 297.735 78.809 306.821 76.1167C307.101 76.0606 306.989 75.6116 306.709 75.7241C297.567 78.4165 288.538 81.2769 279.565 84.3623C279.341 84.4183 279.397 84.8109 279.677 84.7549Z" fill="#202124"/>
<path d="M306.315 74.7145C306.372 74.995 306.372 75.3315 306.428 75.6121C306.484 75.8921 306.876 75.8921 306.876 75.6121C306.82 75.3315 306.82 74.995 306.764 74.7145C306.708 74.4339 306.259 74.4339 306.315 74.7145Z" fill="#202124"/>
<path d="M28.7135 0.280487L24.1709 96.0289L134.315 103.04L143.007 1.45841L28.7135 0.280487Z" fill="#EAEAEA"/>
<path d="M38.8645 19.8003C41.1255 19.8003 42.9584 17.9671 42.9584 15.7056C42.9584 13.4442 41.1255 11.611 38.8645 11.611C36.6034 11.611 34.7705 13.4442 34.7705 15.7056C34.7705 17.9671 36.6034 19.8003 38.8645 19.8003Z" fill="#FAD9BD"/>
<path d="M38.3037 52.8944C40.2549 52.8944 41.8368 51.3123 41.8368 49.3606C41.8368 47.409 40.2549 45.8269 38.3037 45.8269C36.3523 45.8269 34.7705 47.409 34.7705 49.3606C34.7705 51.3123 36.3523 52.8944 38.3037 52.8944Z" fill="#FAD9BD"/>
<path d="M51.5386 14.3035L128.931 15.7057" stroke="#6D6D6D" stroke-width="1.27865" stroke-miterlimit="10"/>
<path d="M51.5386 23.0536L128.931 24.3998" stroke="#6D6D6D" stroke-width="1.27865" stroke-miterlimit="10"/>
<path d="M51.3706 31.9723L128.763 33.3185" stroke="#6D6D6D" stroke-width="1.27865" stroke-miterlimit="10"/>
<path d="M51.2026 41.5639L128.595 42.91" stroke="#6D6D6D" stroke-width="1.27865" stroke-miterlimit="10"/>
<path d="M50.8657 52.2213L128.258 53.5675" stroke="#6D6D6D" stroke-width="1.27865" stroke-miterlimit="10"/>
<path d="M90.7399 267.557C90.5715 270.362 90.4595 273.167 90.291 276.027C115.023 279.561 127.753 279.954 128.482 277.205C129.099 274.905 121.584 270.53 105.938 263.967C100.891 265.146 95.843 266.379 90.7399 267.557Z" fill="#FAD9BD"/>
<path d="M107.621 264.809C106.275 265.202 105.265 266.323 105.097 267.725C104.985 268.567 105.321 269.857 106.443 269.296C107.621 268.679 107.957 267.052 108.294 265.931C108.574 265.09 108.854 264.08 109.64 263.519C110.257 263.126 110.425 263.07 110.817 263.743C111.154 264.36 111.154 264.472 110.705 265.033C110.201 265.65 109.471 265.931 108.686 265.875C108.406 265.875 108.406 266.267 108.686 266.323C109.976 266.436 111.434 265.538 111.602 264.136C111.715 263.014 110.705 262.565 109.752 263.014C108.462 263.631 108.125 265.202 107.733 266.436C107.621 266.884 107.453 267.333 107.228 267.725C107.116 267.95 106.948 268.343 106.723 268.511C106.499 268.679 105.826 268.904 105.546 268.623C105.153 268.287 105.714 266.996 105.882 266.66C106.275 265.931 106.948 265.482 107.733 265.202C107.957 265.146 107.845 264.753 107.621 264.809Z" fill="white"/>
<path d="M109.696 269.296C110.256 268.174 111.266 267.445 112.444 267.221C112.724 267.164 112.612 266.772 112.332 266.828C111.042 267.108 109.92 267.95 109.303 269.128C109.191 269.352 109.584 269.577 109.696 269.296Z" fill="white"/>
<path d="M112.162 270.25C112.611 269.184 113.62 268.455 114.854 268.455C115.135 268.455 115.135 268.006 114.854 268.006C113.508 268.006 112.331 268.791 111.826 270.025C111.714 270.25 112.05 270.474 112.162 270.25Z" fill="white"/>
<path d="M114.406 270.867C114.967 269.913 115.976 269.352 117.098 269.408C117.378 269.408 117.378 269.016 117.098 268.96C115.864 268.96 114.686 269.577 114.013 270.642C113.901 270.923 114.238 271.091 114.406 270.867Z" fill="white"/>
<path d="M117.434 272.045C118.051 271.259 118.949 270.811 119.958 270.811C120.238 270.811 120.238 270.362 119.958 270.362C118.836 270.418 117.827 270.867 117.154 271.765C116.986 271.933 117.266 272.213 117.434 272.045Z" fill="white"/>
<path d="M91.1879 274.344C99.5438 275.186 107.844 276.196 116.088 277.429C116.368 277.486 116.481 277.037 116.2 277.037C107.9 275.803 99.5438 274.737 91.1879 273.896C90.9074 273.896 90.9074 274.288 91.1879 274.344Z" fill="white"/>
<path d="M45.594 204.735C45.7622 205.52 46.8278 206.417 49.0149 208.156C50.5852 209.446 53.9501 211.971 58.4928 213.765C67.4097 217.299 77.7847 216.963 81.0936 216.794C85.1314 216.57 91.4687 215.28 103.974 212.587C106.33 212.083 117.602 209.727 120.182 209.166C119.397 210.344 118.275 212.083 116.986 214.158C112.835 220.889 110.929 225.04 105.321 236.707C98.4784 250.842 97.7496 252.076 94.8896 258.527C92.9264 263.014 91.3562 266.772 90.2349 269.464C91.5807 268.623 93.0949 267.725 94.8336 266.94C98.7589 265.146 102.348 264.36 105.208 263.967C106.33 262.565 108.013 260.49 109.975 257.966C116.986 249.047 123.771 240.409 131.23 229.583C131.23 229.583 136.894 221.338 143.512 208.885C144.017 207.988 145.98 204.118 147.045 198.733C147.774 194.975 148.503 191.104 146.541 187.458C145.363 185.327 143.793 184.149 142.671 183.308C139.25 180.727 135.605 179.998 133.529 179.718C124.949 178.427 116.425 179.886 106.442 181.4C103.021 181.905 97.7496 182.691 91.2443 183.532C88.4403 183.7 84.4585 184.037 79.7474 184.99C61.9697 188.748 44.3602 199.125 45.594 204.735Z" fill="#B1CEFC"/>
<path d="M118.893 244.335C117.996 247.196 117.042 250.056 116.145 252.917C135.997 265.594 146.765 270.923 148.504 268.848C150.018 266.996 144.298 259.2 131.343 245.569C130.389 244.896 128.875 243.999 126.8 243.494C123.099 242.652 120.014 243.831 118.893 244.335Z" fill="#FAD9BD"/>
<path d="M131.286 246.242C130.277 246.635 129.379 247.252 128.706 248.094C128.314 248.598 127.529 249.664 127.977 250.281C128.482 251.01 129.603 250.225 130.052 249.832C130.837 249.159 131.398 248.206 131.567 247.14C131.623 246.86 131.23 246.747 131.174 247.028C131.062 247.701 130.781 248.374 130.333 248.935C130.052 249.271 128.258 250.898 128.314 249.608C128.314 249.047 129.099 248.206 129.435 247.869C129.996 247.308 130.669 246.86 131.398 246.579C131.678 246.523 131.567 246.13 131.286 246.242Z" fill="white"/>
<path d="M131.735 246.86C131.903 246.018 132.576 244.896 133.53 244.784C133.978 244.728 134.091 245.177 133.866 245.513C133.754 245.738 133.586 245.906 133.417 246.074C133.081 246.411 132.632 246.636 132.184 246.804C131.96 246.916 132.128 247.309 132.408 247.14C133.081 246.804 133.81 246.411 134.203 245.738C134.483 245.289 134.595 244.616 134.034 244.336C132.744 243.775 131.567 245.626 131.343 246.635C131.23 246.972 131.679 247.14 131.735 246.86Z" fill="white"/>
<path d="M132.071 249.271C132.52 248.598 133.08 248.093 133.81 247.757C134.034 247.645 133.866 247.252 133.585 247.42C132.8 247.813 132.127 248.374 131.679 249.103C131.566 249.271 131.959 249.496 132.071 249.271Z" fill="white"/>
<path d="M133.193 250.954C133.753 250.057 134.539 249.44 135.548 249.103C135.829 249.047 135.717 248.598 135.436 248.711C134.37 249.047 133.417 249.776 132.856 250.73C132.688 250.954 133.081 251.179 133.193 250.954Z" fill="white"/>
<path d="M134.651 252.412C135.212 251.627 135.885 251.01 136.782 250.618C137.007 250.505 136.838 250.112 136.558 250.281C135.66 250.73 134.875 251.403 134.315 252.244C134.146 252.412 134.482 252.637 134.651 252.412Z" fill="white"/>
<path d="M135.661 254.152C136.221 253.254 137.006 252.525 137.96 252.132C138.184 252.02 138.016 251.683 137.736 251.796C136.67 252.244 135.828 253.029 135.268 253.983C135.156 254.152 135.549 254.376 135.661 254.152Z" fill="white"/>
<path d="M137.4 255.554C138.129 254.937 138.858 254.32 139.587 253.758C139.812 253.59 139.475 253.31 139.307 253.478C138.578 254.095 137.849 254.712 137.12 255.273C136.895 255.441 137.176 255.722 137.4 255.554Z" fill="white"/>
<path d="M116.873 252.132C122.088 254.993 127.079 258.134 131.958 261.556C132.183 261.724 132.407 261.331 132.183 261.219C127.304 257.854 122.257 254.712 117.097 251.796C116.873 251.627 116.648 251.964 116.873 252.132Z" fill="white"/>
<path d="M91.1878 167.209C89.5056 167.994 87.15 169.341 84.6825 171.36C82.6633 172.987 75.4852 179.045 73.41 189.59C72.1763 195.76 73.2421 200.977 74.1394 204.118C75.6536 204.847 78.0087 205.8 81.0371 206.473C84.6265 207.258 87.7669 207.258 95.45 206.642C101.451 206.137 104.479 205.856 108.798 205.239C114.798 204.342 122.986 203.052 132.969 199.462C134.539 198.901 135.829 198.396 136.726 198.004C136.445 198.677 135.997 199.742 135.436 201.033C132.408 208.212 130.109 214.046 127.417 220.889C123.771 230.2 120.518 238.782 117.826 245.962C118.892 245.121 120.518 244.223 122.593 243.718C123.883 243.438 125.566 243.045 127.473 243.775C129.099 244.391 130.165 245.457 130.613 246.074C131.342 245.121 132.52 243.606 133.81 241.699C136.333 238.053 137.96 235.192 138.633 234.127C140.764 230.481 144.073 225.376 150.634 215.168C153.158 211.297 155.569 207.371 158.037 203.444C159.888 200.528 161.626 197.891 163.084 193.853C164.486 190.039 164.767 187.514 164.823 186.337C164.935 184.205 165.103 181.569 163.757 178.708C163.141 177.418 162.131 175.847 159.832 174.052C154.728 170.014 148.784 169.06 146.765 168.78C130.277 166.368 122.033 165.134 118.051 165.078C111.153 164.966 101.956 165.358 91.1878 167.209Z" fill="#B1CEFC"/>
<path d="M74.0272 204.286C78.0649 206.529 82.5516 207.034 87.1502 207.09C92.8142 207.09 98.5346 206.698 104.199 206.025C115.303 204.679 126.183 202.098 136.726 198.34C137.007 198.228 136.895 197.835 136.614 197.948C126.463 201.537 115.976 204.118 105.264 205.52C100.105 206.193 94.8893 206.586 89.6738 206.698C84.4023 206.81 79.0182 206.642 74.3076 204.006C74.0272 203.781 73.8027 204.174 74.0272 204.286Z" fill="#F9F9F9"/>
<path d="M136.502 197.835C129.941 213.092 123.996 228.573 118.668 244.279C118.556 244.56 119.005 244.672 119.061 244.392C124.389 228.742 130.334 213.26 136.839 198.06C137.007 197.835 136.614 197.611 136.502 197.835Z" fill="#F9F9F9"/>
<path d="M41.724 161.656C42.3409 160.815 42.1166 161.32 44.0794 159.076C47.8929 154.813 49.7436 152.625 50.9774 150.662C51.6504 149.596 52.3793 148.306 53.2206 148.419C53.7815 148.475 54.1739 149.092 54.5669 149.765C55.6322 151.56 55.5762 153.41 55.5762 153.635C55.5202 154.869 55.1837 155.262 54.2299 157.506C52.7722 161.095 53.1646 161.264 52.0428 163.395C51.2018 164.966 50.4166 166.031 49.5193 167.209C47.949 169.285 46.7713 170.35 46.3227 170.743C44.9206 171.977 44.1355 172.65 42.9017 172.762C42.6213 172.762 41.1632 172.931 40.2098 172.089C38.1909 170.406 39.3125 165.134 41.724 161.656Z" fill="white"/>
<path d="M5.32736 96.1409C3.86922 101.638 2.63543 107.584 1.73813 113.978C0.728668 121.27 0.560424 126.823 0.392181 131.479C0.111774 140.79 0.784748 138.378 0.672589 149.652C0.672589 151.392 0.560424 155.094 1.79421 159.693C2.85976 163.732 4.03747 165.358 4.5422 165.919C6.56113 168.444 9.02873 169.453 11.0477 170.294C13.5152 171.304 15.9267 171.696 20.5814 172.37C22.993 172.706 25.0119 172.931 26.3578 173.043C29.3862 173.267 32.695 173.379 36.2842 173.267C38.6396 173.211 40.8829 173.043 42.9579 172.763C43.1822 171.64 43.4065 170.182 43.3505 168.5C43.2383 165.863 42.5093 163.732 41.8924 162.442C38.9201 159.917 36.3964 158.01 34.7139 156.72C33.1437 155.542 31.2369 154.14 27.4795 151.223C24.6193 149.036 23.4416 147.69 22.6004 146.063C21.647 144.212 21.5348 142.585 21.5348 136.64C21.5348 132.994 21.5348 131.198 21.647 127.552C21.8713 121.046 21.7031 121.719 21.8713 114.202C22.1517 102.592 22.5443 101.806 21.5348 100.236C20.5814 98.6653 17.3287 95.1313 5.32736 96.1409Z" fill="#86D0DA"/>
<path d="M21.7033 112.632C21.6473 118.073 21.5351 123.514 21.479 129.011C21.4229 131.927 21.3669 134.844 21.3669 137.761C21.3108 139.725 21.1425 141.8 21.5351 143.707C22.3202 147.633 25.629 150.045 28.6013 152.345C32.9757 155.767 37.4061 159.188 41.7804 162.666C42.0048 162.834 42.2852 162.554 42.0608 162.385C37.9669 159.188 33.873 155.991 29.7791 152.794C26.0216 149.877 22.0398 147.073 21.7594 141.856C21.3108 132.208 22.0398 122.392 22.152 112.688C22.152 112.352 21.7033 112.352 21.7033 112.632Z" fill="#202124"/>
<path d="M41.8925 163.9C42.902 166.032 43.2384 168.331 43.0141 170.631C42.958 170.911 43.4067 170.911 43.4628 170.631C43.7432 168.219 43.3506 165.863 42.2851 163.675C42.1729 163.451 41.7804 163.619 41.8925 163.9Z" fill="#202124"/>
<path d="M45.8182 169.117C47.2203 166.817 48.7905 164.686 50.6412 162.778C51.6509 161.713 53.838 160.422 54.1184 158.796C54.3424 157.113 52.3237 156.159 51.7628 157.898C51.6509 158.179 52.0993 158.291 52.1553 158.011C52.3797 158.74 52.6042 159.413 52.8286 160.142C52.6602 160.31 52.4917 160.478 52.3237 160.59C52.0433 160.984 51.5384 161.32 51.202 161.657C50.3608 162.442 49.5757 163.283 48.8466 164.18C47.6129 165.639 46.4912 167.265 45.4817 168.892C45.3135 169.117 45.7061 169.341 45.8182 169.117Z" fill="#202124"/>
<path d="M50.5288 156.72C52.1552 154.589 53.5574 152.345 54.7912 149.933C54.9032 149.708 54.5667 149.484 54.4543 149.708C53.2205 152.121 51.8188 154.364 50.1923 156.496C50.0241 156.72 50.3606 156.944 50.5288 156.72Z" fill="#202124"/>
<path d="M54.7918 149.484C54.9598 151.896 54.2309 154.084 52.6047 155.879C52.4362 156.103 52.7167 156.383 52.8852 156.159C54.5674 154.308 55.4087 151.952 55.1842 149.484C55.1842 149.204 54.7918 149.204 54.7918 149.484Z" fill="#202124"/>
<path d="M55.3525 151.56C55.577 153.635 55.128 155.598 54.0627 157.394C53.9502 157.618 54.2867 157.842 54.3992 157.618C55.5205 155.767 55.9694 153.691 55.7449 151.56C55.7449 151.335 55.3525 151.279 55.3525 151.56Z" fill="#202124"/>
<path d="M6.39315 96.1969C6.11275 98.7213 5.77626 102.311 5.94453 106.686C6.00057 108.65 6.16884 110.388 6.33706 112.183C7.62697 123.794 10.0384 133.835 10.0384 133.835C14.9175 153.916 23.554 171.192 23.554 171.192C30.5081 185.158 38.4156 196.152 45.2014 204.286C47.3325 204.454 50.417 204.454 53.9499 203.781C61.8014 202.323 66.961 198.564 71.2232 195.367C75.9898 191.833 84.2903 185.439 88.384 174.108C89.3933 171.304 89.8982 168.836 90.1787 167.153C89.1694 163.283 87.5427 158.571 84.8507 153.523C83.1685 150.326 81.3738 147.633 79.6916 145.39C79.5232 142.529 79.2427 138.602 78.8503 133.947C78.4014 128.562 77.897 122.056 76.9436 113.698C76.4947 109.771 75.8778 104.611 74.9805 98.4968C68.4192 95.7484 62.7547 94.1777 58.605 93.2245C52.0992 91.7098 38.3034 88.6809 21.1986 91.8783C14.8614 93.112 9.81412 94.8508 6.39315 96.1969Z" fill="#86D0DA"/>
<path d="M5.72018 107.303C8.46818 141.968 21.6473 175.343 43.2386 202.547C43.4068 202.771 43.6872 202.435 43.519 202.267C21.9838 175.118 8.86076 141.856 6.11276 107.303C6.11276 107.023 5.66409 107.023 5.72018 107.303Z" fill="white"/>
<path d="M98.2548 69.6097C100.666 72.4706 103.134 75.331 105.545 78.1919C106.05 77.9114 106.555 77.6869 107.059 77.4063C107.116 78.1359 107.172 78.865 107.228 79.5941C111.546 84.4738 115.808 89.298 120.126 94.1777C120.238 94.2342 120.631 94.5147 121.192 94.3462C121.192 94.3462 121.584 94.2342 121.865 93.8976C122.313 93.3365 122.145 92.3269 121.584 91.3733C120.912 90.6442 120.238 89.9151 119.565 89.186C112.78 81.8379 106.33 74.4899 100.161 67.0294C99.0956 66.4128 98.0303 65.7392 97.021 65.1226C97.4694 66.6928 97.8618 68.1515 98.2548 69.6097Z" fill="#B1CEFC"/>
<path d="M108.966 77.4063C108.798 75.7801 108.63 74.1534 108.518 72.5266C109.302 72.8072 110.256 73.2557 111.266 73.9288C112.499 74.7139 113.453 75.5556 114.126 76.2847C114.462 77.5188 114.798 78.865 115.079 80.4352C115.359 81.95 115.528 83.3521 115.584 84.6423C115.64 84.7543 115.64 84.9229 115.584 84.9229C115.359 85.0349 114.126 83.4082 113.453 82.567C112.499 81.2769 111.041 79.5381 108.966 77.4063Z" fill="white"/>
<path d="M107.116 77.4063C107.116 78.0794 107.116 78.809 107.116 79.4821C108.574 81.1083 110.088 82.7351 111.602 84.3618C112.724 85.596 113.845 86.7736 114.967 87.9518C114.294 88.4564 113.565 89.0174 112.892 89.6905C111.771 90.7562 110.873 91.7658 110.144 92.7195C108.574 95.6924 105.545 96.534 103.975 95.5804C102.966 94.9073 102.517 93.3926 102.629 91.8784C102.573 90.8687 102.517 89.41 102.685 87.7273C102.854 85.652 103.078 83.6327 104.144 81.4449C104.592 80.4352 105.489 78.921 107.116 77.4063Z" fill="white"/>
<path d="M77.0558 99.2824C76.2144 98.9458 75.0926 98.6653 73.8589 99.0018C69.9336 99.9555 68.4754 106.013 67.69 109.435C66.7367 113.417 65.7274 120.541 68.1949 130.021C70.9429 132.938 73.2985 135.237 75.0926 136.864C79.4673 140.959 83.1687 144.38 88.5522 147.802C89.506 148.419 91.4686 150.55 94.665 151.223C96.7961 151.672 98.0299 151.279 98.3669 151.167C99.9371 150.663 100.946 149.484 102.068 147.69C104.76 143.427 105.433 139.332 105.433 139.332C107.34 127.665 108.293 121.888 108.293 120.878C108.573 114.371 109.19 105.116 110.424 92.4394C110.032 91.9904 109.302 91.3173 108.237 90.9247C105.489 89.9151 102.966 91.5978 102.685 91.8223C101.9 94.1782 101.115 96.59 100.329 98.9458C98.0299 105.901 95.9553 112.8 94.0481 119.532C90.9637 116.222 87.7673 112.632 84.5704 108.706C81.8224 105.565 79.3549 102.367 77.0558 99.2824Z" fill="#86D0DA"/>
<path d="M103.022 91.9344C105.265 90.3076 108.406 90.5882 110.256 92.6635C110.425 92.8875 110.761 92.5509 110.537 92.3829C108.574 90.1951 105.153 89.8586 102.798 91.5978C102.573 91.7098 102.798 92.0464 103.022 91.9344Z" fill="#202124"/>
<path d="M68.0829 130.133C74.0278 136.415 80.4771 142.192 87.4873 147.241C90.0668 149.092 93.2073 151.784 96.6286 151.672C99.5446 151.56 101.395 149.316 102.742 146.96C106.667 140.117 107.228 131.423 108.181 123.738C109.359 114.09 109.92 104.331 109.864 94.6267C109.864 94.3462 109.415 94.3462 109.415 94.6267C109.415 102.535 109.078 110.5 108.293 118.354C107.564 126.038 106.835 134.171 104.48 141.575C103.134 145.782 100.386 152.233 94.89 150.943C91.3566 150.157 88.0482 147.129 85.1877 144.997C79.1308 140.398 73.4669 135.293 68.2514 129.74C68.1954 129.628 67.8589 129.964 68.0829 130.133Z" fill="white"/>
<path d="M107.171 77.4063C106.947 78.8085 106.779 80.1547 106.554 81.5574C106.498 81.8374 106.947 81.9499 106.947 81.6694C107.171 80.2672 107.34 78.921 107.563 77.5183C107.62 77.2943 107.227 77.1818 107.171 77.4063Z" fill="#202124"/>
<path d="M98.5353 69.3292C98.5353 68.4881 99.0957 67.759 99.8811 67.5904C100.162 67.5344 100.05 67.1419 99.7691 67.1979C98.8158 67.4224 98.0864 68.3195 98.0864 69.3292C98.1424 69.5537 98.5913 69.5537 98.5353 69.3292Z" fill="white"/>
<path d="M98.3671 69.0486C97.8062 67.871 97.4138 66.5808 97.2453 65.2906C97.1893 65.4026 97.1333 65.4592 97.0208 65.5712C97.5817 65.6272 98.0866 65.7957 98.535 66.1323C98.7595 66.3003 99.04 66.0197 98.8155 65.8517C98.2546 65.4026 97.6937 65.1786 97.0208 65.1226C96.8529 65.1226 96.7969 65.2906 96.7969 65.4026C97.0208 66.7493 97.4138 68.039 97.9741 69.2732C98.1426 69.4977 98.4791 69.2732 98.3671 69.0486Z" fill="#202124"/>
<path d="M108.574 72.6947C109.808 74.6579 110.537 76.8457 110.817 79.1456C110.873 79.4256 111.266 79.4256 111.266 79.1456C110.986 76.7332 110.201 74.5459 108.967 72.4706C108.798 72.2461 108.406 72.4706 108.574 72.6947Z" fill="#202124"/>
<path d="M109.583 73.0312C111.097 75.6676 112.107 78.5285 112.612 81.5574C112.668 81.8379 113.06 81.7254 113.004 81.4454C112.5 78.3599 111.49 75.4996 109.92 72.8632C109.808 72.5826 109.415 72.8072 109.583 73.0312Z" fill="#202124"/>
<path d="M111.546 74.5459C112.948 76.7337 113.789 79.0896 114.126 81.6694C114.181 81.95 114.574 81.95 114.574 81.6694C114.238 79.0336 113.397 76.5652 111.938 74.3779C111.77 74.0974 111.433 74.3219 111.546 74.5459Z" fill="#202124"/>
<path d="M51.5953 77.3503C52.2122 77.0698 53.0536 76.5652 54.0069 75.9481C55.0727 75.219 56.026 74.5459 56.9234 73.4803C57.8207 72.3581 58.6615 71.3485 58.6056 69.9463C58.4936 68.095 56.8669 66.9174 56.6989 66.8053C55.1847 65.7957 53.446 66.0757 51.8198 66.3563C50.3056 66.6368 47.5015 67.3659 44.4731 69.8903C43.8001 69.4412 42.2859 68.5441 40.211 68.5441C36.5656 68.6001 34.3224 71.4605 33.9859 71.9096C33.5933 72.4141 32.2474 74.2094 32.3035 76.2847C32.3035 76.5652 32.3595 76.8457 32.3595 77.3503C32.3595 77.3503 32.3596 79.033 31.7988 80.4912C31.2379 82.118 30.0041 82.9036 28.8264 84.0252C26.5271 86.1565 25.2933 88.4003 24.2838 90.3076C23.6109 91.5418 22.3771 93.9536 21.8723 97.2631C21.5919 99.1138 21.1433 102.592 22.8257 106.518C24.6203 110.781 27.873 112.969 28.8264 113.585C32.9203 116.166 36.9021 116.054 38.2481 115.998C41.9494 115.829 44.5853 114.427 45.763 113.81C49.2961 111.903 51.259 109.379 52.3807 107.92C53.334 106.63 55.6896 103.433 56.6429 98.6093C57.4838 94.0656 56.5864 90.5882 55.8016 87.2787C55.1287 84.9229 53.9509 81.3329 51.5953 77.3503Z" fill="#5492ED"/>
<path d="M44.4731 69.8903C45.09 70.0023 46.3799 70.3948 47.5576 71.4605C48.4549 72.3021 48.9597 73.2557 49.1279 73.8168C49.184 73.5923 49.5205 72.1901 48.6793 71.0119C47.838 69.7217 46.0995 69.2732 44.4731 69.8903Z" fill="#FAD9BD"/>
<path d="M55.8574 74.6019C56.1379 74.9945 57.9885 77.7989 57.3717 80.6598C57.2592 81.1083 57.0352 82.1745 56.1939 83.1841C55.689 83.8007 55.1281 84.1373 54.7916 84.3618C54.3992 83.1276 53.8943 81.7254 53.1654 80.2672C52.6605 79.2016 52.0996 78.2479 51.5952 77.3503C52.9969 76.4527 54.4552 75.4996 55.8574 74.6019Z" fill="white"/>
</g>
</g>
<defs>
<clipPath id="clip0_481_1736">
<rect width="320" height="279" fill="white"/>
</clipPath>
</defs>
</svg>
