<svg width="514" height="90" viewBox="0 0 514 90" fill="none" xmlns="http://www.w3.org/2000/svg">
<path d="M449.69 44.9401C449.69 47.9296 448.174 50.8835 445.212 53.7749C442.249 56.6668 437.863 59.4711 432.186 62.1517C420.833 67.5126 404.387 72.348 384.038 76.4122C343.347 84.5395 287.118 89.5682 225 89.5682C162.882 89.5682 106.653 84.5395 65.9612 76.4122C45.613 72.348 29.166 67.5126 17.8136 62.1517C12.1366 59.4711 7.75019 56.6668 4.78732 53.7749C1.82495 50.8835 0.30957 47.9296 0.30957 44.9401C0.30957 41.9506 1.82495 38.9967 4.78732 36.1053C7.75019 33.2135 12.1366 30.4091 17.8136 27.7285C29.166 22.3678 45.613 17.5321 65.9612 13.4681C106.653 5.34093 162.882 0.312012 225 0.312012C287.118 0.312012 343.347 5.34093 384.038 13.4681C404.387 17.5321 420.833 22.3678 432.186 27.7285C437.863 30.4091 442.249 33.2135 445.212 36.1053C448.174 38.9967 449.69 41.9506 449.69 44.9401Z" stroke="black" stroke-width="0.619835"/>
<path d="M65.3484 34.56C64.6151 34.8667 63.9018 35.0933 63.2084 35.24C62.5151 35.3867 61.8418 35.46 61.1884 35.46C59.4018 35.46 58.0218 35.0333 57.0484 34.18C56.0884 33.3133 55.6084 32.0733 55.6084 30.46V26H58.1884V30.18C58.1884 31.1667 58.4751 31.92 59.0484 32.44C59.6218 32.96 60.4418 33.22 61.5084 33.22C62.1484 33.22 62.7884 33.1467 63.4284 33C64.0818 32.8533 64.7084 32.6267 65.3084 32.32L65.3484 34.56ZM64.9484 40V26H67.5284V40H64.9484ZM73.3922 40V30.84L73.9722 31.44H69.6322V29.32H79.6322V31.44H75.3122L75.8922 30.84V40H73.3922ZM85.7369 40.14C84.6435 40.14 83.6702 39.9067 82.8169 39.44C81.9635 38.96 81.2902 38.3067 80.7969 37.48C80.3035 36.6533 80.0569 35.7133 80.0569 34.66C80.0569 33.5933 80.3035 32.6533 80.7969 31.84C81.2902 31.0133 81.9635 30.3667 82.8169 29.9C83.6702 29.4333 84.6435 29.2 85.7369 29.2C86.8435 29.2 87.8235 29.4333 88.6769 29.9C89.5435 30.3667 90.2169 31.0067 90.6969 31.82C91.1902 32.6333 91.4369 33.58 91.4369 34.66C91.4369 35.7133 91.1902 36.6533 90.6969 37.48C90.2169 38.3067 89.5435 38.96 88.6769 39.44C87.8235 39.9067 86.8435 40.14 85.7369 40.14ZM85.7369 38C86.3502 38 86.8969 37.8667 87.3769 37.6C87.8569 37.3333 88.2302 36.9467 88.4969 36.44C88.7769 35.9333 88.9169 35.34 88.9169 34.66C88.9169 33.9667 88.7769 33.3733 88.4969 32.88C88.2302 32.3733 87.8569 31.9867 87.3769 31.72C86.8969 31.4533 86.3569 31.32 85.7569 31.32C85.1435 31.32 84.5969 31.4533 84.1169 31.72C83.6502 31.9867 83.2769 32.3733 82.9969 32.88C82.7169 33.3733 82.5769 33.9667 82.5769 34.66C82.5769 35.34 82.7169 35.9333 82.9969 36.44C83.2769 36.9467 83.6502 37.3333 84.1169 37.6C84.5969 37.8667 85.1369 38 85.7369 38ZM99.0066 40.2C98.1266 40.2 97.3399 40.0667 96.6466 39.8C95.9532 39.5333 95.3532 39.1267 94.8466 38.58C94.3532 38.02 93.9732 37.3133 93.7066 36.46C93.4399 35.6067 93.3066 34.5933 93.3066 33.42C93.3066 32.5667 93.3799 31.7867 93.5266 31.08C93.6732 30.3733 93.8932 29.74 94.1866 29.18C94.4799 28.6067 94.8466 28.1 95.2866 27.66C95.7399 27.22 96.2666 26.8533 96.8666 26.56C97.4666 26.2667 98.1466 26.04 98.9066 25.88L103.867 24.82L104.227 27.06L99.7266 27.98C99.4732 28.0333 99.1666 28.1133 98.8066 28.22C98.4599 28.3133 98.0999 28.46 97.7266 28.66C97.3666 28.8467 97.0266 29.12 96.7066 29.48C96.3999 29.8267 96.1466 30.28 95.9466 30.84C95.7599 31.3867 95.6666 32.0733 95.6666 32.9C95.6666 33.1533 95.6732 33.3467 95.6866 33.48C95.7132 33.6 95.7332 33.7333 95.7466 33.88C95.7732 34.0133 95.7866 34.2133 95.7866 34.48L94.8466 33.5C95.1132 32.82 95.4799 32.24 95.9466 31.76C96.4266 31.2667 96.9799 30.8933 97.6066 30.64C98.2466 30.3733 98.9399 30.24 99.6866 30.24C100.687 30.24 101.573 30.4467 102.347 30.86C103.12 31.2733 103.727 31.8533 104.167 32.6C104.607 33.3467 104.827 34.1933 104.827 35.14C104.827 36.1267 104.587 37 104.107 37.76C103.627 38.52 102.947 39.12 102.067 39.56C101.2 39.9867 100.18 40.2 99.0066 40.2ZM99.2066 38.18C99.8066 38.18 100.333 38.0533 100.787 37.8C101.253 37.5333 101.613 37.1733 101.867 36.72C102.133 36.2667 102.267 35.76 102.267 35.2C102.267 34.64 102.133 34.1533 101.867 33.74C101.613 33.3133 101.253 32.9733 100.787 32.72C100.333 32.4667 99.7932 32.34 99.1666 32.34C98.5666 32.34 98.0266 32.46 97.5466 32.7C97.0799 32.94 96.7132 33.2733 96.4466 33.7C96.1932 34.1133 96.0666 34.5933 96.0666 35.14C96.0666 35.7 96.1999 36.2133 96.4666 36.68C96.7332 37.1467 97.0999 37.5133 97.5666 37.78C98.0466 38.0467 98.5932 38.18 99.2066 38.18ZM118.026 40V29.32H120.526V40H118.026ZM112.446 32.84C113.82 32.84 114.86 33.1467 115.566 33.76C116.286 34.3733 116.646 35.24 116.646 36.36C116.646 37.52 116.246 38.4267 115.446 39.08C114.66 39.72 113.54 40.0333 112.086 40.02L107.246 40V29.32H109.746V32.82L112.446 32.84ZM111.866 38.18C112.6 38.1933 113.16 38.04 113.546 37.72C113.933 37.4 114.126 36.9333 114.126 36.32C114.126 35.7067 113.933 35.2667 113.546 35C113.173 34.72 112.613 34.5733 111.866 34.56L109.746 34.54V38.16L111.866 38.18ZM130.374 44.02C129.854 44.02 129.334 43.9333 128.814 43.76C128.294 43.5867 127.861 43.3467 127.514 43.04L128.514 41.2C128.768 41.4267 129.054 41.6067 129.374 41.74C129.694 41.8733 130.021 41.94 130.354 41.94C130.808 41.94 131.174 41.8267 131.454 41.6C131.734 41.3733 131.994 40.9933 132.234 40.46L132.854 39.06L133.054 38.76L137.094 29.32H139.494L134.494 40.86C134.161 41.66 133.788 42.2933 133.374 42.76C132.974 43.2267 132.521 43.5533 132.014 43.74C131.521 43.9267 130.974 44.02 130.374 44.02ZM132.574 40.38L127.754 29.32H130.354L134.274 38.54L132.574 40.38ZM144.357 40.18C143.544 40.18 142.737 40.0867 141.937 39.9C141.15 39.7 140.437 39.42 139.797 39.06L140.497 37.2C141.017 37.4933 141.604 37.72 142.257 37.88C142.91 38.04 143.564 38.12 144.217 38.12C144.777 38.12 145.257 38.0667 145.657 37.96C146.057 37.84 146.364 37.6667 146.577 37.44C146.804 37.2133 146.917 36.9533 146.917 36.66C146.917 36.2333 146.73 35.9133 146.357 35.7C145.997 35.4733 145.477 35.36 144.797 35.36H142.737V33.68H144.597C145.024 33.68 145.384 33.6333 145.677 33.54C145.984 33.4467 146.217 33.3067 146.377 33.12C146.537 32.9333 146.617 32.7133 146.617 32.46C146.617 32.2067 146.517 31.9867 146.317 31.8C146.13 31.6 145.857 31.4533 145.497 31.36C145.137 31.2533 144.704 31.2 144.197 31.2C143.664 31.2 143.11 31.2667 142.537 31.4C141.977 31.5333 141.404 31.7267 140.817 31.98L140.177 30.14C140.857 29.8333 141.517 29.6 142.157 29.44C142.81 29.2667 143.457 29.1733 144.097 29.16C145.07 29.12 145.937 29.22 146.697 29.46C147.457 29.7 148.057 30.0467 148.497 30.5C148.937 30.9533 149.157 31.4867 149.157 32.1C149.157 32.6067 148.997 33.0667 148.677 33.48C148.37 33.88 147.944 34.1933 147.397 34.42C146.864 34.6467 146.25 34.76 145.557 34.76L145.637 34.22C146.824 34.22 147.757 34.46 148.437 34.94C149.117 35.4067 149.457 36.0467 149.457 36.86C149.457 37.5133 149.237 38.0933 148.797 38.6C148.357 39.0933 147.75 39.48 146.977 39.76C146.217 40.04 145.344 40.18 144.357 40.18ZM152.032 40V29.32H154.532V33.66H159.912V29.32H162.412V40H159.912V35.78H154.532V40H152.032ZM172.242 40V37.84L172.102 37.38V33.6C172.102 32.8667 171.882 32.3 171.442 31.9C171.002 31.4867 170.335 31.28 169.442 31.28C168.842 31.28 168.249 31.3733 167.662 31.56C167.089 31.7467 166.602 32.0067 166.202 32.34L165.222 30.52C165.795 30.08 166.475 29.7533 167.262 29.54C168.062 29.3133 168.889 29.2 169.742 29.2C171.289 29.2 172.482 29.5733 173.322 30.32C174.175 31.0533 174.602 32.1933 174.602 33.74V40H172.242ZM168.882 40.14C168.082 40.14 167.382 40.0067 166.782 39.74C166.182 39.46 165.715 39.08 165.382 38.6C165.062 38.1067 164.902 37.5533 164.902 36.94C164.902 36.34 165.042 35.8 165.322 35.32C165.615 34.84 166.089 34.46 166.742 34.18C167.395 33.9 168.262 33.76 169.342 33.76H172.442V35.42H169.522C168.669 35.42 168.095 35.56 167.802 35.84C167.509 36.1067 167.362 36.44 167.362 36.84C167.362 37.2933 167.542 37.6533 167.902 37.92C168.262 38.1867 168.762 38.32 169.402 38.32C170.015 38.32 170.562 38.18 171.042 37.9C171.535 37.62 171.889 37.2067 172.102 36.66L172.522 38.16C172.282 38.7867 171.849 39.2733 171.222 39.62C170.609 39.9667 169.829 40.14 168.882 40.14ZM179.916 40V30.84L180.496 31.44H176.156V29.32H186.156V31.44H181.836L182.416 30.84V40H179.916ZM193.329 32.84C194.702 32.84 195.749 33.1467 196.469 33.76C197.189 34.3733 197.549 35.24 197.549 36.36C197.549 37.52 197.149 38.4267 196.349 39.08C195.549 39.72 194.422 40.0333 192.969 40.02L187.969 40V29.32H190.469V32.82L193.329 32.84ZM192.749 38.18C193.482 38.1933 194.042 38.04 194.429 37.72C194.816 37.4 195.009 36.9333 195.009 36.32C195.009 35.7067 194.816 35.2667 194.429 35C194.056 34.72 193.496 34.5733 192.749 34.56L190.469 34.54V38.16L192.749 38.18ZM210.134 40.14C209.014 40.14 208.014 39.9067 207.134 39.44C206.267 38.96 205.587 38.3067 205.094 37.48C204.6 36.6533 204.354 35.7133 204.354 34.66C204.354 33.5933 204.6 32.6533 205.094 31.84C205.587 31.0133 206.267 30.3667 207.134 29.9C208.014 29.4333 209.014 29.2 210.134 29.2C211.174 29.2 212.087 29.4133 212.874 29.84C213.674 30.2533 214.28 30.8667 214.694 31.68L212.774 32.8C212.454 32.2933 212.06 31.92 211.594 31.68C211.14 31.44 210.647 31.32 210.114 31.32C209.5 31.32 208.947 31.4533 208.454 31.72C207.96 31.9867 207.574 32.3733 207.294 32.88C207.014 33.3733 206.874 33.9667 206.874 34.66C206.874 35.3533 207.014 35.9533 207.294 36.46C207.574 36.9533 207.96 37.3333 208.454 37.6C208.947 37.8667 209.5 38 210.114 38C210.647 38 211.14 37.88 211.594 37.64C212.06 37.4 212.454 37.0267 212.774 36.52L214.694 37.64C214.28 38.44 213.674 39.06 212.874 39.5C212.087 39.9267 211.174 40.14 210.134 40.14ZM219.037 40V30.84L219.617 31.44H215.277V29.32H225.277V31.44H220.957L221.537 30.84V40H219.037ZM231.381 40.14C230.288 40.14 229.315 39.9067 228.461 39.44C227.608 38.96 226.935 38.3067 226.441 37.48C225.948 36.6533 225.701 35.7133 225.701 34.66C225.701 33.5933 225.948 32.6533 226.441 31.84C226.935 31.0133 227.608 30.3667 228.461 29.9C229.315 29.4333 230.288 29.2 231.381 29.2C232.488 29.2 233.468 29.4333 234.321 29.9C235.188 30.3667 235.861 31.0067 236.341 31.82C236.835 32.6333 237.081 33.58 237.081 34.66C237.081 35.7133 236.835 36.6533 236.341 37.48C235.861 38.3067 235.188 38.96 234.321 39.44C233.468 39.9067 232.488 40.14 231.381 40.14ZM231.381 38C231.995 38 232.541 37.8667 233.021 37.6C233.501 37.3333 233.875 36.9467 234.141 36.44C234.421 35.9333 234.561 35.34 234.561 34.66C234.561 33.9667 234.421 33.3733 234.141 32.88C233.875 32.3733 233.501 31.9867 233.021 31.72C232.541 31.4533 232.001 31.32 231.401 31.32C230.788 31.32 230.241 31.4533 229.761 31.72C229.295 31.9867 228.921 32.3733 228.641 32.88C228.361 33.3733 228.221 33.9667 228.221 34.66C228.221 35.34 228.361 35.9333 228.641 36.44C228.921 36.9467 229.295 37.3333 229.761 37.6C230.241 37.8667 230.781 38 231.381 38ZM239.551 40V29.32H242.051V36.36L247.951 29.32H250.231V40H247.731V32.96L241.851 40H239.551ZM253.594 40V29.32H256.214L260.514 36.9H259.474L263.994 29.32H266.334L266.354 40H264.094V32L264.494 32.26L260.494 38.88H259.414L255.394 32.08L255.874 31.96V40H253.594ZM274.467 40.14C273.374 40.14 272.401 39.9067 271.547 39.44C270.694 38.96 270.021 38.3067 269.527 37.48C269.034 36.6533 268.787 35.7133 268.787 34.66C268.787 33.5933 269.034 32.6533 269.527 31.84C270.021 31.0133 270.694 30.3667 271.547 29.9C272.401 29.4333 273.374 29.2 274.467 29.2C275.574 29.2 276.554 29.4333 277.407 29.9C278.274 30.3667 278.947 31.0067 279.427 31.82C279.921 32.6333 280.167 33.58 280.167 34.66C280.167 35.7133 279.921 36.6533 279.427 37.48C278.947 38.3067 278.274 38.96 277.407 39.44C276.554 39.9067 275.574 40.14 274.467 40.14ZM274.467 38C275.081 38 275.627 37.8667 276.107 37.6C276.587 37.3333 276.961 36.9467 277.227 36.44C277.507 35.9333 277.647 35.34 277.647 34.66C277.647 33.9667 277.507 33.3733 277.227 32.88C276.961 32.3733 276.587 31.9867 276.107 31.72C275.627 31.4533 275.087 31.32 274.487 31.32C273.874 31.32 273.327 31.4533 272.847 31.72C272.381 31.9867 272.007 32.3733 271.727 32.88C271.447 33.3733 271.307 33.9667 271.307 34.66C271.307 35.34 271.447 35.9333 271.727 36.44C272.007 36.9467 272.381 37.3333 272.847 37.6C273.327 37.8667 273.867 38 274.467 38ZM287.497 40.14C286.377 40.14 285.377 39.9067 284.497 39.44C283.63 38.96 282.95 38.3067 282.457 37.48C281.964 36.6533 281.717 35.7133 281.717 34.66C281.717 33.5933 281.964 32.6533 282.457 31.84C282.95 31.0133 283.63 30.3667 284.497 29.9C285.377 29.4333 286.377 29.2 287.497 29.2C288.537 29.2 289.45 29.4133 290.237 29.84C291.037 30.2533 291.644 30.8667 292.057 31.68L290.137 32.8C289.817 32.2933 289.424 31.92 288.957 31.68C288.504 31.44 288.01 31.32 287.477 31.32C286.864 31.32 286.31 31.4533 285.817 31.72C285.324 31.9867 284.937 32.3733 284.657 32.88C284.377 33.3733 284.237 33.9667 284.237 34.66C284.237 35.3533 284.377 35.9533 284.657 36.46C284.937 36.9533 285.324 37.3333 285.817 37.6C286.31 37.8667 286.864 38 287.477 38C288.01 38 288.504 37.88 288.957 37.64C289.424 37.4 289.817 37.0267 290.137 36.52L292.057 37.64C291.644 38.44 291.037 39.06 290.237 39.5C289.45 39.9267 288.537 40.14 287.497 40.14ZM296.4 40V30.84L296.98 31.44H292.64V29.32H302.64V31.44H298.32L298.9 30.84V40H296.4ZM309.813 32.84C311.187 32.84 312.233 33.1467 312.953 33.76C313.673 34.3733 314.033 35.24 314.033 36.36C314.033 37.52 313.633 38.4267 312.833 39.08C312.033 39.72 310.907 40.0333 309.453 40.02L304.453 40V29.32H306.953V32.82L309.813 32.84ZM309.233 38.18C309.967 38.1933 310.527 38.04 310.913 37.72C311.3 37.4 311.493 36.9333 311.493 36.32C311.493 35.7067 311.3 35.2667 310.913 35C310.54 34.72 309.98 34.5733 309.233 34.56L306.953 34.54V38.16L309.233 38.18ZM334.498 40L331.378 34.88L333.418 33.62L337.478 40H334.498ZM329.358 35.72V33.64H332.938V35.72H329.358ZM333.658 34.96L331.298 34.68L334.538 29.32H337.198L333.658 34.96ZM323.218 40H320.258L324.298 33.62L326.338 34.88L323.218 40ZM330.098 40H327.618V29.32H330.098V40ZM328.358 35.72H324.798V33.64H328.358V35.72ZM324.058 34.96L320.518 29.32H323.178L326.398 34.68L324.058 34.96ZM339.336 40V29.32H341.956L346.256 36.9H345.216L349.736 29.32H352.076L352.096 40H349.836V32L350.236 32.26L346.236 38.88H345.156L341.136 32.08L341.616 31.96V40H339.336ZM355.45 40V29.32H357.95V36.36L363.85 29.32H366.13V40H363.63V32.96L357.75 40H355.45ZM371.713 40V30.84L372.293 31.44H367.953V29.32H377.953V31.44H373.633L374.213 30.84V40H371.713ZM384.277 40.14C383.091 40.14 382.051 39.9067 381.157 39.44C380.277 38.96 379.591 38.3067 379.097 37.48C378.617 36.6533 378.377 35.7133 378.377 34.66C378.377 33.5933 378.611 32.6533 379.077 31.84C379.557 31.0133 380.211 30.3667 381.037 29.9C381.877 29.4333 382.831 29.2 383.897 29.2C384.937 29.2 385.864 29.4267 386.677 29.88C387.491 30.3333 388.131 30.9733 388.597 31.8C389.064 32.6267 389.297 33.6 389.297 34.72C389.297 34.8267 389.291 34.9467 389.277 35.08C389.277 35.2133 389.271 35.34 389.257 35.46H380.357V33.8H387.937L386.957 34.32C386.971 33.7067 386.844 33.1667 386.577 32.7C386.311 32.2333 385.944 31.8667 385.477 31.6C385.024 31.3333 384.497 31.2 383.897 31.2C383.284 31.2 382.744 31.3333 382.277 31.6C381.824 31.8667 381.464 32.24 381.197 32.72C380.944 33.1867 380.817 33.74 380.817 34.38V34.78C380.817 35.42 380.964 35.9867 381.257 36.48C381.551 36.9733 381.964 37.3533 382.497 37.62C383.031 37.8867 383.644 38.02 384.337 38.02C384.937 38.02 385.477 37.9267 385.957 37.74C386.437 37.5533 386.864 37.26 387.237 36.86L388.577 38.4C388.097 38.96 387.491 39.3933 386.757 39.7C386.037 39.9933 385.211 40.14 384.277 40.14ZM52.4417 65V54.32H54.9417V58.66H60.3217V54.32H62.8217V65H60.3217V60.78H54.9417V65H52.4417ZM72.6522 65V62.84L72.5122 62.38V58.6C72.5122 57.8667 72.2922 57.3 71.8522 56.9C71.4122 56.4867 70.7455 56.28 69.8522 56.28C69.2522 56.28 68.6589 56.3733 68.0722 56.56C67.4989 56.7467 67.0122 57.0067 66.6122 57.34L65.6322 55.52C66.2055 55.08 66.8855 54.7533 67.6722 54.54C68.4722 54.3133 69.2989 54.2 70.1522 54.2C71.6989 54.2 72.8922 54.5733 73.7322 55.32C74.5855 56.0533 75.0122 57.1933 75.0122 58.74V65H72.6522ZM69.2922 65.14C68.4922 65.14 67.7922 65.0067 67.1922 64.74C66.5922 64.46 66.1255 64.08 65.7922 63.6C65.4722 63.1067 65.3122 62.5533 65.3122 61.94C65.3122 61.34 65.4522 60.8 65.7322 60.32C66.0255 59.84 66.4989 59.46 67.1522 59.18C67.8055 58.9 68.6722 58.76 69.7522 58.76H72.8522V60.42H69.9322C69.0789 60.42 68.5055 60.56 68.2122 60.84C67.9189 61.1067 67.7722 61.44 67.7722 61.84C67.7722 62.2933 67.9522 62.6533 68.3122 62.92C68.6722 63.1867 69.1722 63.32 69.8122 63.32C70.4255 63.32 70.9722 63.18 71.4522 62.9C71.9455 62.62 72.2989 62.2067 72.5122 61.66L72.9322 63.16C72.6922 63.7867 72.2589 64.2733 71.6322 64.62C71.0189 64.9667 70.2389 65.14 69.2922 65.14ZM91.2931 65L87.4331 59.88L89.4731 58.62L94.2331 65H91.2931ZM83.6331 65V54.32H86.1331V65H83.6331ZM85.3931 60.72V58.64H89.0131V60.72H85.3931ZM89.7131 59.96L87.3731 59.68L91.2931 54.32H93.9731L89.7131 59.96ZM100.405 65.14C99.3115 65.14 98.3382 64.9067 97.4848 64.44C96.6315 63.96 95.9582 63.3067 95.4648 62.48C94.9715 61.6533 94.7248 60.7133 94.7248 59.66C94.7248 58.5933 94.9715 57.6533 95.4648 56.84C95.9582 56.0133 96.6315 55.3667 97.4848 54.9C98.3382 54.4333 99.3115 54.2 100.405 54.2C101.512 54.2 102.492 54.4333 103.345 54.9C104.212 55.3667 104.885 56.0067 105.365 56.82C105.858 57.6333 106.105 58.58 106.105 59.66C106.105 60.7133 105.858 61.6533 105.365 62.48C104.885 63.3067 104.212 63.96 103.345 64.44C102.492 64.9067 101.512 65.14 100.405 65.14ZM100.405 63C101.018 63 101.565 62.8667 102.045 62.6C102.525 62.3333 102.898 61.9467 103.165 61.44C103.445 60.9333 103.585 60.34 103.585 59.66C103.585 58.9667 103.445 58.3733 103.165 57.88C102.898 57.3733 102.525 56.9867 102.045 56.72C101.565 56.4533 101.025 56.32 100.425 56.32C99.8115 56.32 99.2648 56.4533 98.7848 56.72C98.3182 56.9867 97.9448 57.3733 97.6648 57.88C97.3848 58.3733 97.2448 58.9667 97.2448 59.66C97.2448 60.34 97.3848 60.9333 97.6648 61.44C97.9448 61.9467 98.3182 62.3333 98.7848 62.6C99.2648 62.8667 99.8048 63 100.405 63ZM114.495 65.14C113.628 65.14 112.835 64.94 112.115 64.54C111.408 64.14 110.841 63.54 110.415 62.74C110.001 61.9267 109.795 60.9 109.795 59.66C109.795 58.4067 109.995 57.38 110.395 56.58C110.808 55.78 111.368 55.1867 112.075 54.8C112.781 54.4 113.588 54.2 114.495 54.2C115.548 54.2 116.475 54.4267 117.275 54.88C118.088 55.3333 118.728 55.9667 119.195 56.78C119.675 57.5933 119.915 58.5533 119.915 59.66C119.915 60.7667 119.675 61.7333 119.195 62.56C118.728 63.3733 118.088 64.0067 117.275 64.46C116.475 64.9133 115.548 65.14 114.495 65.14ZM108.575 68.88V54.32H110.955V56.84L110.875 59.68L111.075 62.52V68.88H108.575ZM114.215 63C114.815 63 115.348 62.8667 115.815 62.6C116.295 62.3333 116.675 61.9467 116.955 61.44C117.235 60.9333 117.375 60.34 117.375 59.66C117.375 58.9667 117.235 58.3733 116.955 57.88C116.675 57.3733 116.295 56.9867 115.815 56.72C115.348 56.4533 114.815 56.32 114.215 56.32C113.615 56.32 113.075 56.4533 112.595 56.72C112.115 56.9867 111.735 57.3733 111.455 57.88C111.175 58.3733 111.035 58.9667 111.035 59.66C111.035 60.34 111.175 60.9333 111.455 61.44C111.735 61.9467 112.115 62.3333 112.595 62.6C113.075 62.8667 113.615 63 114.215 63ZM125.626 65.18C124.813 65.18 124.006 65.0867 123.206 64.9C122.42 64.7 121.706 64.42 121.066 64.06L121.766 62.2C122.286 62.4933 122.873 62.72 123.526 62.88C124.18 63.04 124.833 63.12 125.486 63.12C126.046 63.12 126.526 63.0667 126.926 62.96C127.326 62.84 127.633 62.6667 127.846 62.44C128.073 62.2133 128.186 61.9533 128.186 61.66C128.186 61.2333 128 60.9133 127.626 60.7C127.266 60.4733 126.746 60.36 126.066 60.36H124.006V58.68H125.866C126.293 58.68 126.653 58.6333 126.946 58.54C127.253 58.4467 127.486 58.3067 127.646 58.12C127.806 57.9333 127.886 57.7133 127.886 57.46C127.886 57.2067 127.786 56.9867 127.586 56.8C127.4 56.6 127.126 56.4533 126.766 56.36C126.406 56.2533 125.973 56.2 125.466 56.2C124.933 56.2 124.38 56.2667 123.806 56.4C123.246 56.5333 122.673 56.7267 122.086 56.98L121.446 55.14C122.126 54.8333 122.786 54.6 123.426 54.44C124.08 54.2667 124.726 54.1733 125.366 54.16C126.34 54.12 127.206 54.22 127.966 54.46C128.726 54.7 129.326 55.0467 129.766 55.5C130.206 55.9533 130.426 56.4867 130.426 57.1C130.426 57.6067 130.266 58.0667 129.946 58.48C129.64 58.88 129.213 59.1933 128.666 59.42C128.133 59.6467 127.52 59.76 126.826 59.76L126.906 59.22C128.093 59.22 129.026 59.46 129.706 59.94C130.386 60.4067 130.726 61.0467 130.726 61.86C130.726 62.5133 130.506 63.0933 130.066 63.6C129.626 64.0933 129.02 64.48 128.246 64.76C127.486 65.04 126.613 65.18 125.626 65.18ZM133.301 65V54.32H135.801V61.36L141.701 54.32H143.981V65H141.481V57.96L135.601 65H133.301ZM147.344 65V54.32H149.844V58.66H155.224V54.32H157.724V65H155.224V60.78H149.844V65H147.344ZM162.035 69.02C161.515 69.02 160.995 68.9333 160.475 68.76C159.955 68.5867 159.521 68.3467 159.175 68.04L160.175 66.2C160.428 66.4267 160.715 66.6067 161.035 66.74C161.355 66.8733 161.681 66.94 162.015 66.94C162.468 66.94 162.835 66.8267 163.115 66.6C163.395 66.3733 163.655 65.9933 163.895 65.46L164.515 64.06L164.715 63.76L168.755 54.32H171.155L166.155 65.86C165.821 66.66 165.448 67.2933 165.035 67.76C164.635 68.2267 164.181 68.5533 163.675 68.74C163.181 68.9267 162.635 69.02 162.035 69.02ZM164.235 65.38L159.415 54.32H162.015L165.935 63.54L164.235 65.38ZM178.418 65V54.32H180.918V61.36L186.818 54.32H189.098V65H186.598V57.96L180.718 65H178.418ZM202.749 65.14C201.655 65.14 200.682 64.9067 199.829 64.44C198.975 63.96 198.302 63.3067 197.809 62.48C197.315 61.6533 197.069 60.7133 197.069 59.66C197.069 58.5933 197.315 57.6533 197.809 56.84C198.302 56.0133 198.975 55.3667 199.829 54.9C200.682 54.4333 201.655 54.2 202.749 54.2C203.855 54.2 204.835 54.4333 205.689 54.9C206.555 55.3667 207.229 56.0067 207.709 56.82C208.202 57.6333 208.449 58.58 208.449 59.66C208.449 60.7133 208.202 61.6533 207.709 62.48C207.229 63.3067 206.555 63.96 205.689 64.44C204.835 64.9067 203.855 65.14 202.749 65.14ZM202.749 63C203.362 63 203.909 62.8667 204.389 62.6C204.869 62.3333 205.242 61.9467 205.509 61.44C205.789 60.9333 205.929 60.34 205.929 59.66C205.929 58.9667 205.789 58.3733 205.509 57.88C205.242 57.3733 204.869 56.9867 204.389 56.72C203.909 56.4533 203.369 56.32 202.769 56.32C202.155 56.32 201.609 56.4533 201.129 56.72C200.662 56.9867 200.289 57.3733 200.009 57.88C199.729 58.3733 199.589 58.9667 199.589 59.66C199.589 60.34 199.729 60.9333 200.009 61.44C200.289 61.9467 200.662 62.3333 201.129 62.6C201.609 62.8667 202.149 63 202.749 63ZM215.778 65.14C214.658 65.14 213.658 64.9067 212.778 64.44C211.912 63.96 211.232 63.3067 210.738 62.48C210.245 61.6533 209.998 60.7133 209.998 59.66C209.998 58.5933 210.245 57.6533 210.738 56.84C211.232 56.0133 211.912 55.3667 212.778 54.9C213.658 54.4333 214.658 54.2 215.778 54.2C216.818 54.2 217.732 54.4133 218.518 54.84C219.318 55.2533 219.925 55.8667 220.338 56.68L218.418 57.8C218.098 57.2933 217.705 56.92 217.238 56.68C216.785 56.44 216.292 56.32 215.758 56.32C215.145 56.32 214.592 56.4533 214.098 56.72C213.605 56.9867 213.218 57.3733 212.938 57.88C212.658 58.3733 212.518 58.9667 212.518 59.66C212.518 60.3533 212.658 60.9533 212.938 61.46C213.218 61.9533 213.605 62.3333 214.098 62.6C214.592 62.8667 215.145 63 215.758 63C216.292 63 216.785 62.88 217.238 62.64C217.705 62.4 218.098 62.0267 218.418 61.52L220.338 62.64C219.925 63.44 219.318 64.06 218.518 64.5C217.732 64.9267 216.818 65.14 215.778 65.14ZM224.681 65V55.84L225.261 56.44H220.921V54.32H230.921V56.44H226.601L227.181 55.84V65H224.681ZM239.215 65V62.84L239.075 62.38V58.6C239.075 57.8667 238.855 57.3 238.415 56.9C237.975 56.4867 237.308 56.28 236.415 56.28C235.815 56.28 235.221 56.3733 234.635 56.56C234.061 56.7467 233.575 57.0067 233.175 57.34L232.195 55.52C232.768 55.08 233.448 54.7533 234.235 54.54C235.035 54.3133 235.861 54.2 236.715 54.2C238.261 54.2 239.455 54.5733 240.295 55.32C241.148 56.0533 241.575 57.1933 241.575 58.74V65H239.215ZM235.855 65.14C235.055 65.14 234.355 65.0067 233.755 64.74C233.155 64.46 232.688 64.08 232.355 63.6C232.035 63.1067 231.875 62.5533 231.875 61.94C231.875 61.34 232.015 60.8 232.295 60.32C232.588 59.84 233.061 59.46 233.715 59.18C234.368 58.9 235.235 58.76 236.315 58.76H239.415V60.42H236.495C235.641 60.42 235.068 60.56 234.775 60.84C234.481 61.1067 234.335 61.44 234.335 61.84C234.335 62.2933 234.515 62.6533 234.875 62.92C235.235 63.1867 235.735 63.32 236.375 63.32C236.988 63.32 237.535 63.18 238.015 62.9C238.508 62.62 238.861 62.2067 239.075 61.66L239.495 63.16C239.255 63.7867 238.821 64.2733 238.195 64.62C237.581 64.9667 236.801 65.14 235.855 65.14ZM244.668 65V54.32H249.888C251.182 54.32 252.195 54.56 252.928 55.04C253.675 55.52 254.048 56.2 254.048 57.08C254.048 57.9467 253.702 58.6267 253.008 59.12C252.315 59.6 251.395 59.84 250.248 59.84L250.548 59.22C251.842 59.22 252.802 59.46 253.428 59.94C254.068 60.4067 254.388 61.0933 254.388 62C254.388 62.9467 254.035 63.6867 253.328 64.22C252.622 64.74 251.548 65 250.108 65H244.668ZM247.048 63.18H249.908C250.588 63.18 251.102 63.0733 251.448 62.86C251.795 62.6333 251.968 62.2933 251.968 61.84C251.968 61.36 251.808 61.0067 251.488 60.78C251.168 60.5533 250.668 60.44 249.988 60.44H247.048V63.18ZM247.048 58.78H249.668C250.308 58.78 250.788 58.6667 251.108 58.44C251.442 58.2 251.608 57.8667 251.608 57.44C251.608 57 251.442 56.6733 251.108 56.46C250.788 56.2467 250.308 56.14 249.668 56.14H247.048V58.78ZM255.491 64.98L255.611 62.88C255.704 62.8933 255.791 62.9067 255.871 62.92C255.951 62.9333 256.024 62.94 256.091 62.94C256.504 62.94 256.824 62.8133 257.051 62.56C257.278 62.3067 257.444 61.9667 257.551 61.54C257.671 61.1 257.751 60.6133 257.791 60.08C257.844 59.5333 257.884 58.9867 257.911 58.44L258.091 54.32H266.731V65H264.231V55.76L264.811 56.44H259.731L260.271 55.74L260.131 58.56C260.091 59.5067 260.011 60.3867 259.891 61.2C259.784 62 259.611 62.7 259.371 63.3C259.144 63.9 258.824 64.3667 258.411 64.7C258.011 65.0333 257.498 65.2 256.871 65.2C256.671 65.2 256.451 65.18 256.211 65.14C255.984 65.1 255.744 65.0467 255.491 64.98ZM276.878 65V61.36L277.238 61.78H274.038C272.571 61.78 271.418 61.4733 270.578 60.86C269.751 60.2333 269.338 59.3333 269.338 58.16C269.338 56.9067 269.778 55.9533 270.658 55.3C271.551 54.6467 272.738 54.32 274.218 54.32H279.118V65H276.878ZM269.198 65L272.078 60.92H274.638L271.878 65H269.198ZM276.878 60.56V55.76L277.238 56.42H274.298C273.525 56.42 272.925 56.5667 272.498 56.86C272.085 57.14 271.878 57.6 271.878 58.24C271.878 59.44 272.658 60.04 274.218 60.04H277.238L276.878 60.56ZM282.481 65V54.32H284.981V61.36L290.881 54.32H293.161V65H290.661V57.96L284.781 65H282.481ZM287.661 53.06C286.594 53.06 285.774 52.8133 285.201 52.32C284.627 51.8133 284.334 51.08 284.321 50.12H285.981C285.994 50.6 286.141 50.98 286.421 51.26C286.714 51.54 287.121 51.68 287.641 51.68C288.147 51.68 288.547 51.54 288.841 51.26C289.147 50.98 289.307 50.6 289.321 50.12H291.021C291.007 51.08 290.707 51.8133 290.121 52.32C289.547 52.8133 288.727 53.06 287.661 53.06ZM298.744 65V55.84L299.324 56.44H294.984V54.32H304.984V56.44H300.664L301.244 55.84V65H298.744ZM311.308 65.14C310.122 65.14 309.082 64.9067 308.188 64.44C307.308 63.96 306.622 63.3067 306.128 62.48C305.648 61.6533 305.408 60.7133 305.408 59.66C305.408 58.5933 305.642 57.6533 306.108 56.84C306.588 56.0133 307.242 55.3667 308.068 54.9C308.908 54.4333 309.862 54.2 310.928 54.2C311.968 54.2 312.895 54.4267 313.708 54.88C314.522 55.3333 315.162 55.9733 315.628 56.8C316.095 57.6267 316.328 58.6 316.328 59.72C316.328 59.8267 316.322 59.9467 316.308 60.08C316.308 60.2133 316.302 60.34 316.288 60.46H307.388V58.8H314.968L313.988 59.32C314.002 58.7067 313.875 58.1667 313.608 57.7C313.342 57.2333 312.975 56.8667 312.508 56.6C312.055 56.3333 311.528 56.2 310.928 56.2C310.315 56.2 309.775 56.3333 309.308 56.6C308.855 56.8667 308.495 57.24 308.228 57.72C307.975 58.1867 307.848 58.74 307.848 59.38V59.78C307.848 60.42 307.995 60.9867 308.288 61.48C308.582 61.9733 308.995 62.3533 309.528 62.62C310.062 62.8867 310.675 63.02 311.368 63.02C311.968 63.02 312.508 62.9267 312.988 62.74C313.468 62.5533 313.895 62.26 314.268 61.86L315.608 63.4C315.128 63.96 314.522 64.3933 313.788 64.7C313.068 64.9933 312.242 65.14 311.308 65.14ZM327.97 65.18C327.157 65.18 326.35 65.0867 325.55 64.9C324.763 64.7 324.05 64.42 323.41 64.06L324.11 62.2C324.63 62.4933 325.217 62.72 325.87 62.88C326.523 63.04 327.177 63.12 327.83 63.12C328.39 63.12 328.87 63.0667 329.27 62.96C329.67 62.84 329.977 62.6667 330.19 62.44C330.417 62.2133 330.53 61.9533 330.53 61.66C330.53 61.2333 330.343 60.9133 329.97 60.7C329.61 60.4733 329.09 60.36 328.41 60.36H326.35V58.68H328.21C328.637 58.68 328.997 58.6333 329.29 58.54C329.597 58.4467 329.83 58.3067 329.99 58.12C330.15 57.9333 330.23 57.7133 330.23 57.46C330.23 57.2067 330.13 56.9867 329.93 56.8C329.743 56.6 329.47 56.4533 329.11 56.36C328.75 56.2533 328.317 56.2 327.81 56.2C327.277 56.2 326.723 56.2667 326.15 56.4C325.59 56.5333 325.017 56.7267 324.43 56.98L323.79 55.14C324.47 54.8333 325.13 54.6 325.77 54.44C326.423 54.2667 327.07 54.1733 327.71 54.16C328.683 54.12 329.55 54.22 330.31 54.46C331.07 54.7 331.67 55.0467 332.11 55.5C332.55 55.9533 332.77 56.4867 332.77 57.1C332.77 57.6067 332.61 58.0667 332.29 58.48C331.983 58.88 331.557 59.1933 331.01 59.42C330.477 59.6467 329.863 59.76 329.17 59.76L329.25 59.22C330.437 59.22 331.37 59.46 332.05 59.94C332.73 60.4067 333.07 61.0467 333.07 61.86C333.07 62.5133 332.85 63.0933 332.41 63.6C331.97 64.0933 331.363 64.48 330.59 64.76C329.83 65.04 328.957 65.18 327.97 65.18ZM342.125 65V62.84L341.985 62.38V58.6C341.985 57.8667 341.765 57.3 341.325 56.9C340.885 56.4867 340.218 56.28 339.325 56.28C338.725 56.28 338.132 56.3733 337.545 56.56C336.972 56.7467 336.485 57.0067 336.085 57.34L335.105 55.52C335.678 55.08 336.358 54.7533 337.145 54.54C337.945 54.3133 338.772 54.2 339.625 54.2C341.172 54.2 342.365 54.5733 343.205 55.32C344.058 56.0533 344.485 57.1933 344.485 58.74V65H342.125ZM338.765 65.14C337.965 65.14 337.265 65.0067 336.665 64.74C336.065 64.46 335.598 64.08 335.265 63.6C334.945 63.1067 334.785 62.5533 334.785 61.94C334.785 61.34 334.925 60.8 335.205 60.32C335.498 59.84 335.972 59.46 336.625 59.18C337.278 58.9 338.145 58.76 339.225 58.76H342.325V60.42H339.405C338.552 60.42 337.978 60.56 337.685 60.84C337.392 61.1067 337.245 61.44 337.245 61.84C337.245 62.2933 337.425 62.6533 337.785 62.92C338.145 63.1867 338.645 63.32 339.285 63.32C339.898 63.32 340.445 63.18 340.925 62.9C341.418 62.62 341.772 62.2067 341.985 61.66L342.405 63.16C342.165 63.7867 341.732 64.2733 341.105 64.62C340.492 64.9667 339.712 65.14 338.765 65.14ZM354.358 65V61.36L354.718 61.78H351.518C350.052 61.78 348.898 61.4733 348.058 60.86C347.232 60.2333 346.818 59.3333 346.818 58.16C346.818 56.9067 347.258 55.9533 348.138 55.3C349.032 54.6467 350.218 54.32 351.698 54.32H356.598V65H354.358ZM346.678 65L349.558 60.92H352.118L349.358 65H346.678ZM354.358 60.56V55.76L354.718 56.42H351.778C351.005 56.42 350.405 56.5667 349.978 56.86C349.565 57.14 349.358 57.6 349.358 58.24C349.358 59.44 350.138 60.04 351.698 60.04H354.718L354.358 60.56ZM359.961 65V54.32H365.181C366.475 54.32 367.488 54.56 368.221 55.04C368.968 55.52 369.341 56.2 369.341 57.08C369.341 57.9467 368.995 58.6267 368.301 59.12C367.608 59.6 366.688 59.84 365.541 59.84L365.841 59.22C367.135 59.22 368.095 59.46 368.721 59.94C369.361 60.4067 369.681 61.0933 369.681 62C369.681 62.9467 369.328 63.6867 368.621 64.22C367.915 64.74 366.841 65 365.401 65H359.961ZM362.341 63.18H365.201C365.881 63.18 366.395 63.0733 366.741 62.86C367.088 62.6333 367.261 62.2933 367.261 61.84C367.261 61.36 367.101 61.0067 366.781 60.78C366.461 60.5533 365.961 60.44 365.281 60.44H362.341V63.18ZM362.341 58.78H364.961C365.601 58.78 366.081 58.6667 366.401 58.44C366.735 58.2 366.901 57.8667 366.901 57.44C366.901 57 366.735 56.6733 366.401 56.46C366.081 56.2467 365.601 56.14 364.961 56.14H362.341V58.78ZM380.004 65L376.144 59.88L378.184 58.62L382.944 65H380.004ZM372.344 65V54.32H374.844V65H372.344ZM374.104 60.72V58.64H377.724V60.72H374.104ZM378.424 59.96L376.084 59.68L380.004 54.32H382.684L378.424 59.96ZM385.062 69.02C384.542 69.02 384.022 68.9333 383.502 68.76C382.982 68.5867 382.549 68.3467 382.202 68.04L383.202 66.2C383.455 66.4267 383.742 66.6067 384.062 66.74C384.382 66.8733 384.709 66.94 385.042 66.94C385.495 66.94 385.862 66.8267 386.142 66.6C386.422 66.3733 386.682 65.9933 386.922 65.46L387.542 64.06L387.742 63.76L391.782 54.32H394.182L389.182 65.86C388.849 66.66 388.475 67.2933 388.062 67.76C387.662 68.2267 387.209 68.5533 386.702 68.74C386.209 68.9267 385.662 69.02 385.062 69.02ZM387.262 65.38L382.442 54.32H385.042L388.962 63.54L387.262 65.38Z" fill="#1F1F1F"/>
<mask id="mask0_2229_85" style="mask-type:luminance" maskUnits="userSpaceOnUse" x="447" y="20" width="67" height="41">
<path d="M514 61H447V20H514V61Z" fill="white"/>
</mask>
<g mask="url(#mask0_2229_85)">
<path d="M448 53.5216C477.517 70.9722 502.01 50.8245 513 21M513 21V32.4222M513 21L503.737 25.2833" stroke="black"/>
</g>
</svg>
