<svg width="754" height="187" viewBox="0 0 754 187" fill="none" xmlns="http://www.w3.org/2000/svg">
<path d="M471.51 60.6195C307.671 54.4751 -43.3421 156.734 446.303 174.862C905.885 191.877 796.972 28.7597 447.038 79.8499" stroke="black"/>
<path d="M293.44 114.16C292.373 114.16 291.387 113.987 290.48 113.64C289.587 113.28 288.807 112.78 288.14 112.14C287.487 111.487 286.973 110.727 286.6 109.86C286.227 108.993 286.04 108.04 286.04 107C286.04 105.96 286.227 105.007 286.6 104.14C286.973 103.273 287.493 102.52 288.16 101.88C288.827 101.227 289.607 100.727 290.5 100.38C291.407 100.02 292.393 99.84 293.46 99.84C294.54 99.84 295.533 100.027 296.44 100.4C297.36 100.76 298.14 101.3 298.78 102.02L297.48 103.28C296.947 102.72 296.347 102.307 295.68 102.04C295.013 101.76 294.3 101.62 293.54 101.62C292.753 101.62 292.02 101.753 291.34 102.02C290.673 102.287 290.093 102.66 289.6 103.14C289.107 103.62 288.72 104.193 288.44 104.86C288.173 105.513 288.04 106.227 288.04 107C288.04 107.773 288.173 108.493 288.44 109.16C288.72 109.813 289.107 110.38 289.6 110.86C290.093 111.34 290.673 111.713 291.34 111.98C292.02 112.247 292.753 112.38 293.54 112.38C294.3 112.38 295.013 112.247 295.68 111.98C296.347 111.7 296.947 111.273 297.48 110.7L298.78 111.96C298.14 112.68 297.36 113.227 296.44 113.6C295.533 113.973 294.533 114.16 293.44 114.16ZM307.086 114.16C307.073 114.16 307.026 114.16 306.946 114.16C306.88 114.16 306.813 114.16 306.746 114.16C306.68 114.16 306.64 114.16 306.626 114.16C304.453 114.133 302.766 113.653 301.566 112.72C300.366 111.773 299.766 110.427 299.766 108.68C299.766 106.947 300.366 105.62 301.566 104.7C302.78 103.767 304.486 103.293 306.686 103.28C306.713 103.28 306.753 103.28 306.806 103.28C306.873 103.28 306.933 103.28 306.986 103.28C307.053 103.28 307.093 103.28 307.106 103.28C309.333 103.28 311.06 103.747 312.286 104.68C313.526 105.613 314.146 106.947 314.146 108.68C314.146 110.44 313.526 111.793 312.286 112.74C311.046 113.687 309.313 114.16 307.086 114.16ZM307.046 112.48C308.206 112.48 309.166 112.333 309.926 112.04C310.7 111.747 311.28 111.32 311.666 110.76C312.053 110.2 312.246 109.507 312.246 108.68C312.246 107.867 312.053 107.187 311.666 106.64C311.28 106.093 310.7 105.68 309.926 105.4C309.166 105.12 308.206 104.98 307.046 104.98C307.02 104.98 306.966 104.98 306.886 104.98C306.806 104.98 306.76 104.98 306.746 104.98C305.613 104.98 304.666 105.127 303.906 105.42C303.16 105.7 302.6 106.113 302.226 106.66C301.853 107.207 301.666 107.88 301.666 108.68C301.666 109.493 301.853 110.18 302.226 110.74C302.613 111.3 303.18 111.727 303.926 112.02C304.686 112.313 305.626 112.467 306.746 112.48C306.773 112.48 306.82 112.48 306.886 112.48C306.966 112.48 307.02 112.48 307.046 112.48ZM306.006 117.88V99.16H307.886V117.88H306.006ZM321.4 114.12C320.333 114.12 319.387 113.887 318.56 113.42C317.733 112.953 317.08 112.313 316.6 111.5C316.12 110.673 315.88 109.74 315.88 108.7C315.88 107.647 316.12 106.713 316.6 105.9C317.08 105.087 317.733 104.453 318.56 104C319.387 103.533 320.333 103.3 321.4 103.3C322.453 103.3 323.393 103.533 324.22 104C325.06 104.453 325.713 105.087 326.18 105.9C326.66 106.7 326.9 107.633 326.9 108.7C326.9 109.753 326.66 110.687 326.18 111.5C325.713 112.313 325.06 112.953 324.22 113.42C323.393 113.887 322.453 114.12 321.4 114.12ZM321.4 112.44C322.08 112.44 322.687 112.287 323.22 111.98C323.767 111.673 324.193 111.24 324.5 110.68C324.807 110.107 324.96 109.447 324.96 108.7C324.96 107.94 324.807 107.287 324.5 106.74C324.193 106.18 323.767 105.747 323.22 105.44C322.687 105.133 322.08 104.98 321.4 104.98C320.72 104.98 320.113 105.133 319.58 105.44C319.047 105.747 318.62 106.18 318.3 106.74C317.98 107.287 317.82 107.94 317.82 108.7C317.82 109.447 317.98 110.107 318.3 110.68C318.62 111.24 319.047 111.673 319.58 111.98C320.113 112.287 320.72 112.44 321.4 112.44ZM335.293 114.12C334.413 114.12 333.606 113.92 332.873 113.52C332.153 113.107 331.573 112.5 331.133 111.7C330.706 110.9 330.493 109.9 330.493 108.7C330.493 107.5 330.699 106.5 331.113 105.7C331.539 104.9 332.113 104.3 332.833 103.9C333.566 103.5 334.386 103.3 335.293 103.3C336.333 103.3 337.253 103.527 338.053 103.98C338.853 104.433 339.486 105.067 339.953 105.88C340.419 106.68 340.653 107.62 340.653 108.7C340.653 109.78 340.419 110.727 339.953 111.54C339.486 112.353 338.853 112.987 338.053 113.44C337.253 113.893 336.333 114.12 335.293 114.12ZM329.673 117.88V103.4H331.513V106.26L331.393 108.72L331.593 111.18V117.88H329.673ZM335.133 112.44C335.813 112.44 336.419 112.287 336.953 111.98C337.499 111.673 337.926 111.24 338.233 110.68C338.553 110.107 338.713 109.447 338.713 108.7C338.713 107.94 338.553 107.287 338.233 106.74C337.926 106.18 337.499 105.747 336.953 105.44C336.419 105.133 335.813 104.98 335.133 104.98C334.466 104.98 333.859 105.133 333.313 105.44C332.779 105.747 332.353 106.18 332.033 106.74C331.726 107.287 331.573 107.94 331.573 108.7C331.573 109.447 331.726 110.107 332.033 110.68C332.353 111.24 332.779 111.673 333.313 111.98C333.859 112.287 334.466 112.44 335.133 112.44ZM343.442 114V103.4H345.422L349.982 111.24H349.182L353.862 103.4H355.662V114H353.922V105.56L354.242 105.74L349.962 112.8H349.122L344.822 105.6L345.202 105.52V114H343.442ZM359.399 114V103.4H361.319V111.12L367.819 103.4H369.559V114H367.639V106.28L361.159 114H359.399ZM378.906 114.12C378.026 114.12 377.219 113.92 376.486 113.52C375.766 113.107 375.186 112.5 374.746 111.7C374.319 110.9 374.106 109.9 374.106 108.7C374.106 107.5 374.312 106.5 374.726 105.7C375.152 104.9 375.726 104.3 376.446 103.9C377.179 103.5 377.999 103.3 378.906 103.3C379.946 103.3 380.866 103.527 381.666 103.98C382.466 104.433 383.099 105.067 383.566 105.88C384.032 106.68 384.266 107.62 384.266 108.7C384.266 109.78 384.032 110.727 383.566 111.54C383.099 112.353 382.466 112.987 381.666 113.44C380.866 113.893 379.946 114.12 378.906 114.12ZM373.286 117.88V103.4H375.126V106.26L375.006 108.72L375.206 111.18V117.88H373.286ZM378.746 112.44C379.426 112.44 380.032 112.287 380.566 111.98C381.112 111.673 381.539 111.24 381.846 110.68C382.166 110.107 382.326 109.447 382.326 108.7C382.326 107.94 382.166 107.287 381.846 106.74C381.539 106.18 381.112 105.747 380.566 105.44C380.032 105.133 379.426 104.98 378.746 104.98C378.079 104.98 377.472 105.133 376.926 105.44C376.392 105.747 375.966 106.18 375.646 106.74C375.339 107.287 375.186 107.94 375.186 108.7C375.186 109.447 375.339 110.107 375.646 110.68C375.966 111.24 376.392 111.673 376.926 111.98C377.472 112.287 378.079 112.44 378.746 112.44ZM391.595 114.12C390.529 114.12 389.582 113.887 388.755 113.42C387.929 112.953 387.275 112.313 386.795 111.5C386.315 110.673 386.075 109.74 386.075 108.7C386.075 107.647 386.315 106.713 386.795 105.9C387.275 105.087 387.929 104.453 388.755 104C389.582 103.533 390.529 103.3 391.595 103.3C392.649 103.3 393.589 103.533 394.415 104C395.255 104.453 395.909 105.087 396.375 105.9C396.855 106.7 397.095 107.633 397.095 108.7C397.095 109.753 396.855 110.687 396.375 111.5C395.909 112.313 395.255 112.953 394.415 113.42C393.589 113.887 392.649 114.12 391.595 114.12ZM391.595 112.44C392.275 112.44 392.882 112.287 393.415 111.98C393.962 111.673 394.389 111.24 394.695 110.68C395.002 110.107 395.155 109.447 395.155 108.7C395.155 107.94 395.002 107.287 394.695 106.74C394.389 106.18 393.962 105.747 393.415 105.44C392.882 105.133 392.275 104.98 391.595 104.98C390.915 104.98 390.309 105.133 389.775 105.44C389.242 105.747 388.815 106.18 388.495 106.74C388.175 107.287 388.015 107.94 388.015 108.7C388.015 109.447 388.175 110.107 388.495 110.68C388.815 111.24 389.242 111.673 389.775 111.98C390.309 112.287 390.915 112.44 391.595 112.44ZM399.868 114V103.4H404.788C406.028 103.4 407.001 103.64 407.708 104.12C408.428 104.587 408.788 105.253 408.788 106.12C408.788 106.987 408.448 107.66 407.768 108.14C407.101 108.607 406.214 108.84 405.108 108.84L405.408 108.32C406.674 108.32 407.614 108.553 408.228 109.02C408.841 109.487 409.148 110.173 409.148 111.08C409.148 112 408.801 112.72 408.108 113.24C407.428 113.747 406.381 114 404.968 114H399.868ZM401.748 112.52H404.828C405.628 112.52 406.228 112.4 406.628 112.16C407.028 111.907 407.228 111.507 407.228 110.96C407.228 110.4 407.041 109.993 406.668 109.74C406.308 109.473 405.734 109.34 404.948 109.34H401.748V112.52ZM401.748 107.96H404.628C405.361 107.96 405.914 107.827 406.288 107.56C406.674 107.28 406.868 106.893 406.868 106.4C406.868 105.893 406.674 105.513 406.288 105.26C405.914 105.007 405.361 104.88 404.628 104.88H401.748V107.96ZM418.653 114V111.76L418.553 111.34V107.52C418.553 106.707 418.313 106.08 417.833 105.64C417.366 105.187 416.66 104.96 415.713 104.96C415.086 104.96 414.473 105.067 413.873 105.28C413.273 105.48 412.766 105.753 412.353 106.1L411.553 104.66C412.1 104.22 412.753 103.887 413.513 103.66C414.286 103.42 415.093 103.3 415.933 103.3C417.386 103.3 418.506 103.653 419.293 104.36C420.08 105.067 420.473 106.147 420.473 107.6V114H418.653ZM415.173 114.12C414.386 114.12 413.693 113.987 413.093 113.72C412.506 113.453 412.053 113.087 411.733 112.62C411.413 112.14 411.253 111.6 411.253 111C411.253 110.427 411.386 109.907 411.653 109.44C411.933 108.973 412.38 108.6 412.993 108.32C413.62 108.04 414.46 107.9 415.513 107.9H418.873V109.28H415.593C414.633 109.28 413.986 109.44 413.653 109.76C413.32 110.08 413.153 110.467 413.153 110.92C413.153 111.44 413.36 111.86 413.773 112.18C414.186 112.487 414.76 112.64 415.493 112.64C416.213 112.64 416.84 112.48 417.373 112.16C417.92 111.84 418.313 111.373 418.553 110.76L418.933 112.08C418.68 112.707 418.233 113.207 417.593 113.58C416.953 113.94 416.146 114.12 415.173 114.12ZM423.93 114V103.4H425.85V107.9H431.89V103.4H433.81V114H431.89V109.56H425.85V114H423.93ZM437.544 114V103.4H439.464V107.9H445.504V103.4H447.424V114H445.504V109.56H439.464V114H437.544ZM451.697 118C451.19 118 450.697 117.913 450.217 117.74C449.737 117.58 449.324 117.34 448.977 117.02L449.797 115.58C450.064 115.833 450.357 116.027 450.677 116.16C450.997 116.293 451.337 116.36 451.697 116.36C452.164 116.36 452.55 116.24 452.857 116C453.164 115.76 453.45 115.333 453.717 114.72L454.377 113.26L454.577 113.02L458.737 103.4H460.617L455.477 115.06C455.17 115.807 454.824 116.393 454.437 116.82C454.064 117.247 453.65 117.547 453.197 117.72C452.744 117.907 452.244 118 451.697 118ZM454.217 114.34L449.377 103.4H451.377L455.497 112.84L454.217 114.34ZM462.583 114V103.4H464.503V107.74H467.703V109.52H464.503V114H462.583ZM471.963 114.12C470.923 114.12 469.996 113.887 469.183 113.42C468.383 112.953 467.749 112.313 467.283 111.5C466.816 110.673 466.583 109.74 466.583 108.7C466.583 107.647 466.816 106.713 467.283 105.9C467.749 105.073 468.383 104.433 469.183 103.98C469.996 103.527 470.923 103.3 471.963 103.3C472.989 103.3 473.909 103.527 474.723 103.98C475.536 104.433 476.176 105.073 476.643 105.9C477.109 106.713 477.343 107.647 477.343 108.7C477.343 109.753 477.109 110.687 476.643 111.5C476.176 112.313 475.536 112.953 474.723 113.42C473.909 113.887 472.989 114.12 471.963 114.12ZM471.963 112.44C472.629 112.44 473.223 112.287 473.743 111.98C474.263 111.66 474.676 111.227 474.983 110.68C475.289 110.12 475.443 109.46 475.443 108.7C475.443 107.94 475.289 107.287 474.983 106.74C474.676 106.18 474.263 105.747 473.743 105.44C473.223 105.133 472.629 104.98 471.963 104.98C471.309 104.98 470.716 105.133 470.183 105.44C469.663 105.747 469.249 106.18 468.943 106.74C468.636 107.287 468.483 107.94 468.483 108.7C468.483 109.46 468.636 110.12 468.943 110.68C469.249 111.227 469.663 111.66 470.183 111.98C470.716 112.287 471.309 112.44 471.963 112.44ZM485.473 114V103.4H487.393V111.12L493.893 103.4H495.633V114H493.713V106.28L487.233 114H485.473ZM510.351 114.12C509.471 114.12 508.664 113.92 507.931 113.52C507.211 113.107 506.631 112.5 506.191 111.7C505.764 110.9 505.551 109.9 505.551 108.7C505.551 107.5 505.758 106.5 506.171 105.7C506.598 104.9 507.171 104.3 507.891 103.9C508.624 103.5 509.444 103.3 510.351 103.3C511.391 103.3 512.311 103.527 513.111 103.98C513.911 104.433 514.544 105.067 515.011 105.88C515.478 106.68 515.711 107.62 515.711 108.7C515.711 109.78 515.478 110.727 515.011 111.54C514.544 112.353 513.911 112.987 513.111 113.44C512.311 113.893 511.391 114.12 510.351 114.12ZM504.731 117.88V103.4H506.571V106.26L506.451 108.72L506.651 111.18V117.88H504.731ZM510.191 112.44C510.871 112.44 511.478 112.287 512.011 111.98C512.558 111.673 512.984 111.24 513.291 110.68C513.611 110.107 513.771 109.447 513.771 108.7C513.771 107.94 513.611 107.287 513.291 106.74C512.984 106.18 512.558 105.747 512.011 105.44C511.478 105.133 510.871 104.98 510.191 104.98C509.524 104.98 508.918 105.133 508.371 105.44C507.838 105.747 507.411 106.18 507.091 106.74C506.784 107.287 506.631 107.94 506.631 108.7C506.631 109.447 506.784 110.107 507.091 110.68C507.411 111.24 507.838 111.673 508.371 111.98C508.918 112.287 509.524 112.44 510.191 112.44ZM523.221 114.12C522.087 114.12 521.087 113.887 520.221 113.42C519.367 112.953 518.701 112.313 518.221 111.5C517.754 110.687 517.521 109.753 517.521 108.7C517.521 107.647 517.747 106.713 518.201 105.9C518.667 105.087 519.301 104.453 520.101 104C520.914 103.533 521.827 103.3 522.841 103.3C523.867 103.3 524.774 103.527 525.561 103.98C526.347 104.433 526.961 105.073 527.401 105.9C527.854 106.713 528.081 107.667 528.081 108.76C528.081 108.84 528.074 108.933 528.061 109.04C528.061 109.147 528.054 109.247 528.041 109.34H519.021V107.96H527.041L526.261 108.44C526.274 107.76 526.134 107.153 525.841 106.62C525.547 106.087 525.141 105.673 524.621 105.38C524.114 105.073 523.521 104.92 522.841 104.92C522.174 104.92 521.581 105.073 521.061 105.38C520.541 105.673 520.134 106.093 519.841 106.64C519.547 107.173 519.401 107.787 519.401 108.48V108.8C519.401 109.507 519.561 110.14 519.881 110.7C520.214 111.247 520.674 111.673 521.261 111.98C521.847 112.287 522.521 112.44 523.281 112.44C523.907 112.44 524.474 112.333 524.981 112.12C525.501 111.907 525.954 111.587 526.341 111.16L527.401 112.4C526.921 112.96 526.321 113.387 525.601 113.68C524.894 113.973 524.101 114.12 523.221 114.12ZM537.266 114V111.76L537.166 111.34V107.52C537.166 106.707 536.926 106.08 536.446 105.64C535.98 105.187 535.273 104.96 534.326 104.96C533.7 104.96 533.086 105.067 532.486 105.28C531.886 105.48 531.38 105.753 530.966 106.1L530.166 104.66C530.713 104.22 531.366 103.887 532.126 103.66C532.9 103.42 533.706 103.3 534.546 103.3C536 103.3 537.12 103.653 537.906 104.36C538.693 105.067 539.086 106.147 539.086 107.6V114H537.266ZM533.786 114.12C533 114.12 532.306 113.987 531.706 113.72C531.12 113.453 530.666 113.087 530.346 112.62C530.026 112.14 529.866 111.6 529.866 111C529.866 110.427 530 109.907 530.266 109.44C530.546 108.973 530.993 108.6 531.606 108.32C532.233 108.04 533.073 107.9 534.126 107.9H537.486V109.28H534.206C533.246 109.28 532.6 109.44 532.266 109.76C531.933 110.08 531.766 110.467 531.766 110.92C531.766 111.44 531.973 111.86 532.386 112.18C532.8 112.487 533.373 112.64 534.106 112.64C534.826 112.64 535.453 112.48 535.986 112.16C536.533 111.84 536.926 111.373 537.166 110.76L537.546 112.08C537.293 112.707 536.846 113.207 536.206 113.58C535.566 113.94 534.76 114.12 533.786 114.12ZM540.784 113.98L540.904 112.36C540.997 112.373 541.084 112.387 541.164 112.4C541.244 112.413 541.317 112.42 541.384 112.42C541.81 112.42 542.144 112.273 542.384 111.98C542.637 111.687 542.824 111.3 542.944 110.82C543.064 110.327 543.15 109.773 543.204 109.16C543.257 108.547 543.297 107.933 543.324 107.32L543.504 103.4H551.644V114H549.724V104.52L550.184 105.08H544.744L545.184 104.5L545.044 107.44C545.004 108.373 544.93 109.247 544.824 110.06C544.717 110.873 544.55 111.587 544.324 112.2C544.11 112.813 543.81 113.293 543.424 113.64C543.05 113.987 542.564 114.16 541.964 114.16C541.79 114.16 541.604 114.14 541.404 114.1C541.217 114.073 541.01 114.033 540.784 113.98ZM555.356 114V103.4H557.276V111.12L563.776 103.4H565.516V114H563.596V106.28L557.116 114H555.356ZM572.167 114.14C571.367 114.14 570.58 114.04 569.807 113.84C569.047 113.627 568.367 113.327 567.767 112.94L568.347 111.48C568.854 111.8 569.434 112.053 570.087 112.24C570.74 112.413 571.4 112.5 572.067 112.5C572.68 112.5 573.207 112.427 573.647 112.28C574.1 112.133 574.447 111.933 574.687 111.68C574.927 111.413 575.047 111.107 575.047 110.76C575.047 110.267 574.827 109.887 574.387 109.62C573.947 109.353 573.334 109.22 572.547 109.22H570.627V107.84H572.427C572.894 107.84 573.3 107.787 573.647 107.68C573.994 107.573 574.26 107.413 574.447 107.2C574.647 106.973 574.747 106.713 574.747 106.42C574.747 106.1 574.634 105.827 574.407 105.6C574.18 105.373 573.86 105.2 573.447 105.08C573.047 104.96 572.574 104.9 572.027 104.9C571.494 104.913 570.947 104.987 570.387 105.12C569.84 105.253 569.28 105.46 568.707 105.74L568.187 104.24C568.827 103.933 569.454 103.7 570.067 103.54C570.694 103.367 571.314 103.273 571.927 103.26C572.847 103.233 573.667 103.34 574.387 103.58C575.107 103.807 575.674 104.14 576.087 104.58C576.514 105.02 576.727 105.54 576.727 106.14C576.727 106.647 576.567 107.1 576.247 107.5C575.927 107.887 575.5 108.193 574.967 108.42C574.434 108.647 573.82 108.76 573.127 108.76L573.207 108.3C574.394 108.3 575.327 108.533 576.007 109C576.687 109.467 577.027 110.1 577.027 110.9C577.027 111.54 576.814 112.107 576.387 112.6C575.96 113.08 575.38 113.46 574.647 113.74C573.927 114.007 573.1 114.14 572.167 114.14ZM584.486 114.12C583.419 114.12 582.473 113.887 581.646 113.42C580.819 112.953 580.166 112.313 579.686 111.5C579.206 110.673 578.966 109.74 578.966 108.7C578.966 107.647 579.206 106.713 579.686 105.9C580.166 105.087 580.819 104.453 581.646 104C582.473 103.533 583.419 103.3 584.486 103.3C585.539 103.3 586.479 103.533 587.306 104C588.146 104.453 588.799 105.087 589.266 105.9C589.746 106.7 589.986 107.633 589.986 108.7C589.986 109.753 589.746 110.687 589.266 111.5C588.799 112.313 588.146 112.953 587.306 113.42C586.479 113.887 585.539 114.12 584.486 114.12ZM584.486 112.44C585.166 112.44 585.773 112.287 586.306 111.98C586.853 111.673 587.279 111.24 587.586 110.68C587.893 110.107 588.046 109.447 588.046 108.7C588.046 107.94 587.893 107.287 587.586 106.74C587.279 106.18 586.853 105.747 586.306 105.44C585.773 105.133 585.166 104.98 584.486 104.98C583.806 104.98 583.199 105.133 582.666 105.44C582.133 105.747 581.706 106.18 581.386 106.74C581.066 107.287 580.906 107.94 580.906 108.7C580.906 109.447 581.066 110.107 581.386 110.68C581.706 111.24 582.133 111.673 582.666 111.98C583.199 112.287 583.806 112.44 584.486 112.44ZM592.758 114V103.4H597.678C598.918 103.4 599.892 103.64 600.598 104.12C601.318 104.587 601.678 105.253 601.678 106.12C601.678 106.987 601.338 107.66 600.658 108.14C599.992 108.607 599.105 108.84 597.998 108.84L598.298 108.32C599.565 108.32 600.505 108.553 601.118 109.02C601.732 109.487 602.038 110.173 602.038 111.08C602.038 112 601.692 112.72 600.998 113.24C600.318 113.747 599.272 114 597.858 114H592.758ZM594.638 112.52H597.718C598.518 112.52 599.118 112.4 599.518 112.16C599.918 111.907 600.118 111.507 600.118 110.96C600.118 110.4 599.932 109.993 599.558 109.74C599.198 109.473 598.625 109.34 597.838 109.34H594.638V112.52ZM594.638 107.96H597.518C598.252 107.96 598.805 107.827 599.178 107.56C599.565 107.28 599.758 106.893 599.758 106.4C599.758 105.893 599.565 105.513 599.178 105.26C598.805 105.007 598.252 104.88 597.518 104.88H594.638V107.96ZM611.544 114V111.76L611.444 111.34V107.52C611.444 106.707 611.204 106.08 610.724 105.64C610.257 105.187 609.55 104.96 608.604 104.96C607.977 104.96 607.364 105.067 606.764 105.28C606.164 105.48 605.657 105.753 605.244 106.1L604.444 104.66C604.99 104.22 605.644 103.887 606.404 103.66C607.177 103.42 607.984 103.3 608.824 103.3C610.277 103.3 611.397 103.653 612.184 104.36C612.97 105.067 613.364 106.147 613.364 107.6V114H611.544ZM608.064 114.12C607.277 114.12 606.584 113.987 605.984 113.72C605.397 113.453 604.944 113.087 604.624 112.62C604.304 112.14 604.144 111.6 604.144 111C604.144 110.427 604.277 109.907 604.544 109.44C604.824 108.973 605.27 108.6 605.884 108.32C606.51 108.04 607.35 107.9 608.404 107.9H611.764V109.28H608.484C607.524 109.28 606.877 109.44 606.544 109.76C606.21 110.08 606.044 110.467 606.044 110.92C606.044 111.44 606.25 111.86 606.664 112.18C607.077 112.487 607.65 112.64 608.384 112.64C609.104 112.64 609.73 112.48 610.264 112.16C610.81 111.84 611.204 111.373 611.444 110.76L611.824 112.08C611.57 112.707 611.124 113.207 610.484 113.58C609.844 113.94 609.037 114.12 608.064 114.12ZM616.821 114V103.4H618.741V107.9H624.781V103.4H626.701V114H624.781V109.56H618.741V114H616.821ZM630.434 114V103.4H632.354V107.9H638.394V103.4H640.314V114H638.394V109.56H632.354V114H630.434ZM644.588 118C644.081 118 643.588 117.913 643.108 117.74C642.628 117.58 642.214 117.34 641.867 117.02L642.688 115.58C642.954 115.833 643.248 116.027 643.568 116.16C643.888 116.293 644.228 116.36 644.588 116.36C645.054 116.36 645.441 116.24 645.748 116C646.054 115.76 646.341 115.333 646.608 114.72L647.268 113.26L647.467 113.02L651.628 103.4H653.508L648.368 115.06C648.061 115.807 647.714 116.393 647.327 116.82C646.954 117.247 646.541 117.547 646.088 117.72C645.634 117.907 645.134 118 644.588 118ZM647.108 114.34L642.268 103.4H644.268L648.388 112.84L647.108 114.34ZM655.473 114V103.4H657.393V107.74H660.593V109.52H657.393V114H655.473ZM664.853 114.12C663.813 114.12 662.887 113.887 662.073 113.42C661.273 112.953 660.64 112.313 660.173 111.5C659.707 110.673 659.473 109.74 659.473 108.7C659.473 107.647 659.707 106.713 660.173 105.9C660.64 105.073 661.273 104.433 662.073 103.98C662.887 103.527 663.813 103.3 664.853 103.3C665.88 103.3 666.8 103.527 667.613 103.98C668.427 104.433 669.067 105.073 669.533 105.9C670 106.713 670.233 107.647 670.233 108.7C670.233 109.753 670 110.687 669.533 111.5C669.067 112.313 668.427 112.953 667.613 113.42C666.8 113.887 665.88 114.12 664.853 114.12ZM664.853 112.44C665.52 112.44 666.113 112.287 666.633 111.98C667.153 111.66 667.567 111.227 667.873 110.68C668.18 110.12 668.333 109.46 668.333 108.7C668.333 107.94 668.18 107.287 667.873 106.74C667.567 106.18 667.153 105.747 666.633 105.44C666.113 105.133 665.52 104.98 664.853 104.98C664.2 104.98 663.607 105.133 663.073 105.44C662.553 105.747 662.14 106.18 661.833 106.74C661.527 107.287 661.373 107.94 661.373 108.7C661.373 109.46 661.527 110.12 661.833 110.68C662.14 111.227 662.553 111.66 663.073 111.98C663.607 112.287 664.2 112.44 664.853 112.44ZM286.86 138V127.4H288.84L293.4 135.24H292.6L297.28 127.4H299.08V138H297.34V129.56L297.66 129.74L293.38 136.8H292.54L288.24 129.6L288.62 129.52V138H286.86ZM309.317 138V135.76L309.217 135.34V131.52C309.217 130.707 308.977 130.08 308.497 129.64C308.03 129.187 307.324 128.96 306.377 128.96C305.75 128.96 305.137 129.067 304.537 129.28C303.937 129.48 303.43 129.753 303.017 130.1L302.217 128.66C302.764 128.22 303.417 127.887 304.177 127.66C304.95 127.42 305.757 127.3 306.597 127.3C308.05 127.3 309.17 127.653 309.957 128.36C310.744 129.067 311.137 130.147 311.137 131.6V138H309.317ZM305.837 138.12C305.05 138.12 304.357 137.987 303.757 137.72C303.17 137.453 302.717 137.087 302.397 136.62C302.077 136.14 301.917 135.6 301.917 135C301.917 134.427 302.05 133.907 302.317 133.44C302.597 132.973 303.044 132.6 303.657 132.32C304.284 132.04 305.124 131.9 306.177 131.9H309.537V133.28H306.257C305.297 133.28 304.65 133.44 304.317 133.76C303.984 134.08 303.817 134.467 303.817 134.92C303.817 135.44 304.024 135.86 304.437 136.18C304.85 136.487 305.424 136.64 306.157 136.64C306.877 136.64 307.504 136.48 308.037 136.16C308.584 135.84 308.977 135.373 309.217 134.76L309.597 136.08C309.344 136.707 308.897 137.207 308.257 137.58C307.617 137.94 306.81 138.12 305.837 138.12ZM320.214 138.12C319.334 138.12 318.528 137.92 317.794 137.52C317.074 137.107 316.494 136.5 316.054 135.7C315.628 134.9 315.414 133.9 315.414 132.7C315.414 131.5 315.621 130.5 316.034 129.7C316.461 128.9 317.034 128.3 317.754 127.9C318.488 127.5 319.308 127.3 320.214 127.3C321.254 127.3 322.174 127.527 322.974 127.98C323.774 128.433 324.408 129.067 324.874 129.88C325.341 130.68 325.574 131.62 325.574 132.7C325.574 133.78 325.341 134.727 324.874 135.54C324.408 136.353 323.774 136.987 322.974 137.44C322.174 137.893 321.254 138.12 320.214 138.12ZM314.594 141.88V127.4H316.434V130.26L316.314 132.72L316.514 135.18V141.88H314.594ZM320.054 136.44C320.734 136.44 321.341 136.287 321.874 135.98C322.421 135.673 322.848 135.24 323.154 134.68C323.474 134.107 323.634 133.447 323.634 132.7C323.634 131.94 323.474 131.287 323.154 130.74C322.848 130.18 322.421 129.747 321.874 129.44C321.341 129.133 320.734 128.98 320.054 128.98C319.388 128.98 318.781 129.133 318.234 129.44C317.701 129.747 317.274 130.18 316.954 130.74C316.648 131.287 316.494 131.94 316.494 132.7C316.494 133.447 316.648 134.107 316.954 134.68C317.274 135.24 317.701 135.673 318.234 135.98C318.781 136.287 319.388 136.44 320.054 136.44ZM336.044 138L331.944 132.84L333.524 131.88L338.304 138H336.044ZM328.364 138V127.4H330.284V138H328.364ZM329.704 133.52V131.88H333.204V133.52H329.704ZM333.684 132.92L331.904 132.68L335.964 127.4H338.024L333.684 132.92ZM344.685 138.12C343.552 138.12 342.552 137.887 341.685 137.42C340.832 136.953 340.165 136.313 339.685 135.5C339.219 134.687 338.985 133.753 338.985 132.7C338.985 131.647 339.212 130.713 339.665 129.9C340.132 129.087 340.765 128.453 341.565 128C342.379 127.533 343.292 127.3 344.305 127.3C345.332 127.3 346.239 127.527 347.025 127.98C347.812 128.433 348.425 129.073 348.865 129.9C349.319 130.713 349.545 131.667 349.545 132.76C349.545 132.84 349.539 132.933 349.525 133.04C349.525 133.147 349.519 133.247 349.505 133.34H340.485V131.96H348.505L347.725 132.44C347.739 131.76 347.599 131.153 347.305 130.62C347.012 130.087 346.605 129.673 346.085 129.38C345.579 129.073 344.985 128.92 344.305 128.92C343.639 128.92 343.045 129.073 342.525 129.38C342.005 129.673 341.599 130.093 341.305 130.64C341.012 131.173 340.865 131.787 340.865 132.48V132.8C340.865 133.507 341.025 134.14 341.345 134.7C341.679 135.247 342.139 135.673 342.725 135.98C343.312 136.287 343.985 136.44 344.745 136.44C345.372 136.44 345.939 136.333 346.445 136.12C346.965 135.907 347.419 135.587 347.805 135.16L348.865 136.4C348.385 136.96 347.785 137.387 347.065 137.68C346.359 137.973 345.565 138.12 344.685 138.12ZM354.175 138V128.58L354.655 129.08H350.295V127.4H359.975V129.08H355.635L356.095 128.58V138H354.175ZM361.938 138V127.4H363.858V135.12L370.358 127.4H372.098V138H370.178V130.28L363.698 138H361.938ZM375.825 138V127.4H377.745V131.9H383.785V127.4H385.705V138H383.785V133.56H377.745V138H375.825ZM389.438 138V127.4H397.238V129.08H390.898L391.358 128.64V138H389.438ZM403.275 138.12C402.208 138.12 401.262 137.887 400.435 137.42C399.608 136.953 398.955 136.313 398.475 135.5C397.995 134.673 397.755 133.74 397.755 132.7C397.755 131.647 397.995 130.713 398.475 129.9C398.955 129.087 399.608 128.453 400.435 128C401.262 127.533 402.208 127.3 403.275 127.3C404.328 127.3 405.268 127.533 406.095 128C406.935 128.453 407.588 129.087 408.055 129.9C408.535 130.7 408.775 131.633 408.775 132.7C408.775 133.753 408.535 134.687 408.055 135.5C407.588 136.313 406.935 136.953 406.095 137.42C405.268 137.887 404.328 138.12 403.275 138.12ZM403.275 136.44C403.955 136.44 404.562 136.287 405.095 135.98C405.642 135.673 406.068 135.24 406.375 134.68C406.682 134.107 406.835 133.447 406.835 132.7C406.835 131.94 406.682 131.287 406.375 130.74C406.068 130.18 405.642 129.747 405.095 129.44C404.562 129.133 403.955 128.98 403.275 128.98C402.595 128.98 401.988 129.133 401.455 129.44C400.922 129.747 400.495 130.18 400.175 130.74C399.855 131.287 399.695 131.94 399.695 132.7C399.695 133.447 399.855 134.107 400.175 134.68C400.495 135.24 400.922 135.673 401.455 135.98C401.988 136.287 402.595 136.44 403.275 136.44ZM411.548 138V127.4H416.468C417.708 127.4 418.681 127.64 419.388 128.12C420.108 128.587 420.468 129.253 420.468 130.12C420.468 130.987 420.128 131.66 419.448 132.14C418.781 132.607 417.894 132.84 416.788 132.84L417.088 132.32C418.354 132.32 419.294 132.553 419.908 133.02C420.521 133.487 420.828 134.173 420.828 135.08C420.828 136 420.481 136.72 419.787 137.24C419.108 137.747 418.061 138 416.648 138H411.548ZM413.428 136.52H416.508C417.308 136.52 417.908 136.4 418.308 136.16C418.708 135.907 418.908 135.507 418.908 134.96C418.908 134.4 418.721 133.993 418.348 133.74C417.988 133.473 417.414 133.34 416.628 133.34H413.428V136.52ZM413.428 131.96H416.308C417.041 131.96 417.594 131.827 417.968 131.56C418.354 131.28 418.548 130.893 418.548 130.4C418.548 129.893 418.354 129.513 417.968 129.26C417.594 129.007 417.041 128.88 416.308 128.88H413.428V131.96ZM424.373 142C423.866 142 423.373 141.913 422.893 141.74C422.413 141.58 421.999 141.34 421.653 141.02L422.473 139.58C422.739 139.833 423.033 140.027 423.353 140.16C423.673 140.293 424.013 140.36 424.373 140.36C424.839 140.36 425.226 140.24 425.533 140C425.839 139.76 426.126 139.333 426.393 138.72L427.053 137.26L427.253 137.02L431.413 127.4H433.293L428.153 139.06C427.846 139.807 427.499 140.393 427.113 140.82C426.739 141.247 426.326 141.547 425.873 141.72C425.419 141.907 424.919 142 424.373 142ZM426.893 138.34L422.053 127.4H424.053L428.173 136.84L426.893 138.34ZM435.258 138V127.4H437.178V131.74H440.378V133.52H437.178V138H435.258ZM444.638 138.12C443.598 138.12 442.672 137.887 441.858 137.42C441.058 136.953 440.425 136.313 439.958 135.5C439.492 134.673 439.258 133.74 439.258 132.7C439.258 131.647 439.492 130.713 439.958 129.9C440.425 129.073 441.058 128.433 441.858 127.98C442.672 127.527 443.598 127.3 444.638 127.3C445.665 127.3 446.585 127.527 447.398 127.98C448.212 128.433 448.852 129.073 449.318 129.9C449.785 130.713 450.018 131.647 450.018 132.7C450.018 133.753 449.785 134.687 449.318 135.5C448.852 136.313 448.212 136.953 447.398 137.42C446.585 137.887 445.665 138.12 444.638 138.12ZM444.638 136.44C445.305 136.44 445.898 136.287 446.418 135.98C446.938 135.66 447.352 135.227 447.658 134.68C447.965 134.12 448.118 133.46 448.118 132.7C448.118 131.94 447.965 131.287 447.658 130.74C447.352 130.18 446.938 129.747 446.418 129.44C445.898 129.133 445.305 128.98 444.638 128.98C443.985 128.98 443.392 129.133 442.858 129.44C442.338 129.747 441.925 130.18 441.618 130.74C441.312 131.287 441.158 131.94 441.158 132.7C441.158 133.46 441.312 134.12 441.618 134.68C441.925 135.227 442.338 135.66 442.858 135.98C443.392 136.287 443.985 136.44 444.638 136.44ZM462.769 138.12C461.689 138.12 460.722 137.887 459.869 137.42C459.029 136.953 458.369 136.313 457.889 135.5C457.409 134.687 457.169 133.753 457.169 132.7C457.169 131.647 457.409 130.713 457.889 129.9C458.369 129.087 459.029 128.453 459.869 128C460.722 127.533 461.689 127.3 462.769 127.3C463.729 127.3 464.582 127.493 465.329 127.88C466.089 128.253 466.676 128.813 467.089 129.56L465.629 130.5C465.282 129.98 464.856 129.6 464.349 129.36C463.856 129.107 463.322 128.98 462.749 128.98C462.056 128.98 461.436 129.133 460.889 129.44C460.342 129.747 459.909 130.18 459.589 130.74C459.269 131.287 459.109 131.94 459.109 132.7C459.109 133.46 459.269 134.12 459.589 134.68C459.909 135.24 460.342 135.673 460.889 135.98C461.436 136.287 462.056 136.44 462.749 136.44C463.322 136.44 463.856 136.32 464.349 136.08C464.856 135.827 465.282 135.44 465.629 134.92L467.089 135.84C466.676 136.573 466.089 137.14 465.329 137.54C464.582 137.927 463.729 138.12 462.769 138.12ZM471.538 138V128.58L472.018 129.08H467.658V127.4H477.338V129.08H472.998L473.458 128.58V138H471.538ZM484.921 138.12C484.041 138.12 483.235 137.92 482.501 137.52C481.781 137.107 481.201 136.5 480.761 135.7C480.335 134.9 480.121 133.9 480.121 132.7C480.121 131.5 480.328 130.5 480.741 129.7C481.168 128.9 481.741 128.3 482.461 127.9C483.195 127.5 484.015 127.3 484.921 127.3C485.961 127.3 486.881 127.527 487.681 127.98C488.481 128.433 489.115 129.067 489.581 129.88C490.048 130.68 490.281 131.62 490.281 132.7C490.281 133.78 490.048 134.727 489.581 135.54C489.115 136.353 488.481 136.987 487.681 137.44C486.881 137.893 485.961 138.12 484.921 138.12ZM479.301 141.88V127.4H481.141V130.26L481.021 132.72L481.221 135.18V141.88H479.301ZM484.761 136.44C485.441 136.44 486.048 136.287 486.581 135.98C487.128 135.673 487.555 135.24 487.861 134.68C488.181 134.107 488.341 133.447 488.341 132.7C488.341 131.94 488.181 131.287 487.861 130.74C487.555 130.18 487.128 129.747 486.581 129.44C486.048 129.133 485.441 128.98 484.761 128.98C484.095 128.98 483.488 129.133 482.941 129.44C482.408 129.747 481.981 130.18 481.661 130.74C481.355 131.287 481.201 131.94 481.201 132.7C481.201 133.447 481.355 134.107 481.661 134.68C481.981 135.24 482.408 135.673 482.941 135.98C483.488 136.287 484.095 136.44 484.761 136.44ZM499.473 138V135.76L499.373 135.34V131.52C499.373 130.707 499.133 130.08 498.653 129.64C498.187 129.187 497.48 128.96 496.533 128.96C495.907 128.96 495.293 129.067 494.693 129.28C494.093 129.48 493.587 129.753 493.173 130.1L492.373 128.66C492.92 128.22 493.573 127.887 494.333 127.66C495.107 127.42 495.913 127.3 496.753 127.3C498.207 127.3 499.327 127.653 500.113 128.36C500.9 129.067 501.293 130.147 501.293 131.6V138H499.473ZM495.993 138.12C495.207 138.12 494.513 137.987 493.913 137.72C493.327 137.453 492.873 137.087 492.553 136.62C492.233 136.14 492.073 135.6 492.073 135C492.073 134.427 492.207 133.907 492.473 133.44C492.753 132.973 493.2 132.6 493.813 132.32C494.44 132.04 495.28 131.9 496.333 131.9H499.693V133.28H496.413C495.453 133.28 494.807 133.44 494.473 133.76C494.14 134.08 493.973 134.467 493.973 134.92C493.973 135.44 494.18 135.86 494.593 136.18C495.007 136.487 495.58 136.64 496.313 136.64C497.033 136.64 497.66 136.48 498.193 136.16C498.74 135.84 499.133 135.373 499.373 134.76L499.753 136.08C499.5 136.707 499.053 137.207 498.413 137.58C497.773 137.94 496.967 138.12 495.993 138.12ZM506.851 138V128.58L507.331 129.08H502.971V127.4H512.651V129.08H508.311L508.771 128.58V138H506.851ZM518.865 138.12C517.732 138.12 516.732 137.887 515.865 137.42C515.012 136.953 514.345 136.313 513.865 135.5C513.398 134.687 513.165 133.753 513.165 132.7C513.165 131.647 513.392 130.713 513.845 129.9C514.312 129.087 514.945 128.453 515.745 128C516.558 127.533 517.472 127.3 518.485 127.3C519.512 127.3 520.418 127.527 521.205 127.98C521.992 128.433 522.605 129.073 523.045 129.9C523.498 130.713 523.725 131.667 523.725 132.76C523.725 132.84 523.718 132.933 523.705 133.04C523.705 133.147 523.698 133.247 523.685 133.34H514.665V131.96H522.685L521.905 132.44C521.918 131.76 521.778 131.153 521.485 130.62C521.192 130.087 520.785 129.673 520.265 129.38C519.758 129.073 519.165 128.92 518.485 128.92C517.818 128.92 517.225 129.073 516.705 129.38C516.185 129.673 515.778 130.093 515.485 130.64C515.192 131.173 515.045 131.787 515.045 132.48V132.8C515.045 133.507 515.205 134.14 515.525 134.7C515.858 135.247 516.318 135.673 516.905 135.98C517.492 136.287 518.165 136.44 518.925 136.44C519.552 136.44 520.118 136.333 520.625 136.12C521.145 135.907 521.598 135.587 521.985 135.16L523.045 136.4C522.565 136.96 521.965 137.387 521.245 137.68C520.538 137.973 519.745 138.12 518.865 138.12ZM526.704 138V127.4H534.504V129.08H528.164L528.624 128.64V138H526.704ZM536.469 138V127.4H538.389V135.12L544.889 127.4H546.629V138H544.709V130.28L538.229 138H536.469ZM550.356 138V127.4H552.276V131.74H555.476V133.52H552.276V138H550.356ZM559.736 138.12C558.696 138.12 557.769 137.887 556.956 137.42C556.156 136.953 555.523 136.313 555.056 135.5C554.589 134.673 554.356 133.74 554.356 132.7C554.356 131.647 554.589 130.713 555.056 129.9C555.523 129.073 556.156 128.433 556.956 127.98C557.769 127.527 558.696 127.3 559.736 127.3C560.763 127.3 561.683 127.527 562.496 127.98C563.309 128.433 563.949 129.073 564.416 129.9C564.883 130.713 565.116 131.647 565.116 132.7C565.116 133.753 564.883 134.687 564.416 135.5C563.949 136.313 563.309 136.953 562.496 137.42C561.683 137.887 560.763 138.12 559.736 138.12ZM559.736 136.44C560.403 136.44 560.996 136.287 561.516 135.98C562.036 135.66 562.449 135.227 562.756 134.68C563.063 134.12 563.216 133.46 563.216 132.7C563.216 131.94 563.063 131.287 562.756 130.74C562.449 130.18 562.036 129.747 561.516 129.44C560.996 129.133 560.403 128.98 559.736 128.98C559.083 128.98 558.489 129.133 557.956 129.44C557.436 129.747 557.023 130.18 556.716 130.74C556.409 131.287 556.256 131.94 556.256 132.7C556.256 133.46 556.409 134.12 556.716 134.68C557.023 135.227 557.436 135.66 557.956 135.98C558.489 136.287 559.083 136.44 559.736 136.44ZM573.247 138V127.4H575.167V131.9H581.207V127.4H583.127V138H581.207V133.56H575.167V138H573.247ZM593.36 138V135.76L593.26 135.34V131.52C593.26 130.707 593.02 130.08 592.54 129.64C592.073 129.187 591.367 128.96 590.42 128.96C589.793 128.96 589.18 129.067 588.58 129.28C587.98 129.48 587.473 129.753 587.06 130.1L586.26 128.66C586.807 128.22 587.46 127.887 588.22 127.66C588.993 127.42 589.8 127.3 590.64 127.3C592.093 127.3 593.213 127.653 594 128.36C594.787 129.067 595.18 130.147 595.18 131.6V138H593.36ZM589.88 138.12C589.093 138.12 588.4 137.987 587.8 137.72C587.213 137.453 586.76 137.087 586.44 136.62C586.12 136.14 585.96 135.6 585.96 135C585.96 134.427 586.093 133.907 586.36 133.44C586.64 132.973 587.087 132.6 587.7 132.32C588.327 132.04 589.167 131.9 590.22 131.9H593.58V133.28H590.3C589.34 133.28 588.693 133.44 588.36 133.76C588.027 134.08 587.86 134.467 587.86 134.92C587.86 135.44 588.067 135.86 588.48 136.18C588.893 136.487 589.467 136.64 590.2 136.64C590.92 136.64 591.547 136.48 592.08 136.16C592.627 135.84 593.02 135.373 593.26 134.76L593.64 136.08C593.387 136.707 592.94 137.207 592.3 137.58C591.66 137.94 590.853 138.12 589.88 138.12ZM602.888 138V136.64L608.588 131.14C609.095 130.66 609.468 130.24 609.708 129.88C609.962 129.507 610.128 129.167 610.208 128.86C610.302 128.54 610.348 128.233 610.348 127.94C610.348 127.22 610.095 126.653 609.588 126.24C609.082 125.827 608.342 125.62 607.368 125.62C606.622 125.62 605.948 125.747 605.348 126C604.748 126.24 604.228 126.62 603.788 127.14L602.428 125.96C602.962 125.28 603.675 124.76 604.568 124.4C605.475 124.027 606.468 123.84 607.548 123.84C608.522 123.84 609.368 124 610.088 124.32C610.808 124.627 611.362 125.073 611.748 125.66C612.148 126.247 612.348 126.94 612.348 127.74C612.348 128.193 612.288 128.64 612.168 129.08C612.048 129.52 611.822 129.987 611.488 130.48C611.155 130.973 610.675 131.527 610.048 132.14L604.968 137.04L604.488 136.26H612.948V138H602.888ZM620.293 138.16C619.2 138.16 618.22 137.88 617.353 137.32C616.5 136.76 615.82 135.947 615.313 134.88C614.82 133.813 614.573 132.52 614.573 131C614.573 129.48 614.82 128.187 615.313 127.12C615.82 126.053 616.5 125.24 617.353 124.68C618.22 124.12 619.2 123.84 620.293 123.84C621.373 123.84 622.347 124.12 623.213 124.68C624.08 125.24 624.76 126.053 625.253 127.12C625.747 128.187 625.993 129.48 625.993 131C625.993 132.52 625.747 133.813 625.253 134.88C624.76 135.947 624.08 136.76 623.213 137.32C622.347 137.88 621.373 138.16 620.293 138.16ZM620.293 136.38C621.027 136.38 621.667 136.18 622.213 135.78C622.773 135.38 623.207 134.78 623.513 133.98C623.833 133.18 623.993 132.187 623.993 131C623.993 129.813 623.833 128.82 623.513 128.02C623.207 127.22 622.773 126.62 622.213 126.22C621.667 125.82 621.027 125.62 620.293 125.62C619.56 125.62 618.913 125.82 618.353 126.22C617.793 126.62 617.353 127.22 617.033 128.02C616.727 128.82 616.573 129.813 616.573 131C616.573 132.187 616.727 133.18 617.033 133.98C617.353 134.78 617.793 135.38 618.353 135.78C618.913 136.18 619.56 136.38 620.293 136.38ZM627.693 138V136.64L633.393 131.14C633.9 130.66 634.273 130.24 634.513 129.88C634.766 129.507 634.933 129.167 635.013 128.86C635.106 128.54 635.153 128.233 635.153 127.94C635.153 127.22 634.9 126.653 634.393 126.24C633.886 125.827 633.146 125.62 632.173 125.62C631.426 125.62 630.753 125.747 630.153 126C629.553 126.24 629.033 126.62 628.593 127.14L627.233 125.96C627.766 125.28 628.48 124.76 629.373 124.4C630.28 124.027 631.273 123.84 632.353 123.84C633.326 123.84 634.173 124 634.893 124.32C635.613 124.627 636.166 125.073 636.553 125.66C636.953 126.247 637.153 126.94 637.153 127.74C637.153 128.193 637.093 128.64 636.973 129.08C636.853 129.52 636.626 129.987 636.293 130.48C635.96 130.973 635.48 131.527 634.853 132.14L629.773 137.04L629.293 136.26H637.753V138H627.693ZM643.678 138.16C642.691 138.16 641.731 138.007 640.798 137.7C639.878 137.393 639.124 136.98 638.538 136.46L639.458 134.88C639.924 135.32 640.531 135.68 641.278 135.96C642.024 136.24 642.824 136.38 643.678 136.38C644.718 136.38 645.524 136.16 646.098 135.72C646.684 135.267 646.978 134.66 646.978 133.9C646.978 133.167 646.698 132.58 646.138 132.14C645.591 131.687 644.718 131.46 643.518 131.46H642.398V130.06L646.558 124.94L646.838 125.74H639.178V124H648.418V125.36L644.278 130.46L643.238 129.84H643.898C645.591 129.84 646.858 130.22 647.698 130.98C648.551 131.74 648.978 132.707 648.978 133.88C648.978 134.667 648.784 135.387 648.398 136.04C648.011 136.693 647.424 137.213 646.638 137.6C645.864 137.973 644.878 138.16 643.678 138.16ZM657.114 138V127.4H664.914V129.08H658.574L659.034 128.64V138H657.114ZM670.951 138.12C669.884 138.12 668.937 137.887 668.111 137.42C667.284 136.953 666.631 136.313 666.151 135.5C665.671 134.673 665.431 133.74 665.431 132.7C665.431 131.647 665.671 130.713 666.151 129.9C666.631 129.087 667.284 128.453 668.111 128C668.937 127.533 669.884 127.3 670.951 127.3C672.004 127.3 672.944 127.533 673.771 128C674.611 128.453 675.264 129.087 675.731 129.9C676.211 130.7 676.451 131.633 676.451 132.7C676.451 133.753 676.211 134.687 675.731 135.5C675.264 136.313 674.611 136.953 673.771 137.42C672.944 137.887 672.004 138.12 670.951 138.12ZM670.951 136.44C671.631 136.44 672.237 136.287 672.771 135.98C673.317 135.673 673.744 135.24 674.051 134.68C674.357 134.107 674.511 133.447 674.511 132.7C674.511 131.94 674.357 131.287 674.051 130.74C673.744 130.18 673.317 129.747 672.771 129.44C672.237 129.133 671.631 128.98 670.951 128.98C670.271 128.98 669.664 129.133 669.131 129.44C668.597 129.747 668.171 130.18 667.851 130.74C667.531 131.287 667.371 131.94 667.371 132.7C667.371 133.447 667.531 134.107 667.851 134.68C668.171 135.24 668.597 135.673 669.131 135.98C669.664 136.287 670.271 136.44 670.951 136.44ZM686.385 137.1V129.08H681.785L681.685 131.12C681.658 131.787 681.612 132.433 681.545 133.06C681.492 133.673 681.398 134.24 681.265 134.76C681.145 135.28 680.965 135.707 680.725 136.04C680.485 136.373 680.165 136.58 679.765 136.66L677.865 136.32C678.278 136.333 678.612 136.2 678.865 135.92C679.118 135.627 679.312 135.227 679.445 134.72C679.592 134.213 679.698 133.64 679.765 133C679.832 132.347 679.885 131.673 679.925 130.98L680.085 127.4H688.305V137.1H686.385ZM677.445 140.46V136.32H689.925V140.46H688.125V138H679.265V140.46H677.445Z" fill="black"/>
<path d="M0.999709 88.2674C33.0349 76.2106 118.348 60.9988 203.319 96.6067M203.319 96.6067L186.462 77.6542M203.319 96.6067L173.545 100.026" stroke="black"/>
</svg>
