<svg width="379" height="163" viewBox="0 0 379 163" fill="none" xmlns="http://www.w3.org/2000/svg">
<path d="M187.7 39.798C77.0923 31.9937 -158.706 130.66 171.851 153.748C482.113 175.419 406.973 11.2494 171.384 58.7741" stroke="black"/>
<path d="M114.637 82.019C113.677 82.019 112.789 81.863 111.973 81.551C111.169 81.227 110.467 80.777 109.867 80.201C109.279 79.613 108.817 78.929 108.481 78.149C108.145 77.369 107.977 76.511 107.977 75.575C107.977 74.639 108.145 73.781 108.481 73.001C108.817 72.221 109.285 71.543 109.885 70.967C110.485 70.379 111.187 69.929 111.991 69.617C112.807 69.293 113.695 69.131 114.655 69.131C115.627 69.131 116.521 69.299 117.337 69.635C118.165 69.959 118.867 70.445 119.443 71.093L118.273 72.227C117.793 71.723 117.253 71.351 116.653 71.111C116.053 70.859 115.411 70.733 114.727 70.733C114.019 70.733 113.359 70.853 112.747 71.093C112.147 71.333 111.625 71.669 111.181 72.101C110.737 72.533 110.389 73.049 110.137 73.649C109.897 74.237 109.777 74.879 109.777 75.575C109.777 76.271 109.897 76.919 110.137 77.519C110.389 78.107 110.737 78.617 111.181 79.049C111.625 79.481 112.147 79.817 112.747 80.057C113.359 80.297 114.019 80.417 114.727 80.417C115.411 80.417 116.053 80.297 116.653 80.057C117.253 79.805 117.793 79.421 118.273 78.905L119.443 80.039C118.867 80.687 118.165 81.179 117.337 81.515C116.521 81.851 115.621 82.019 114.637 82.019ZM126.919 82.019C126.907 82.019 126.865 82.019 126.793 82.019C126.733 82.019 126.673 82.019 126.613 82.019C126.553 82.019 126.517 82.019 126.505 82.019C124.549 81.995 123.031 81.563 121.951 80.723C120.871 79.871 120.331 78.659 120.331 77.087C120.331 75.527 120.871 74.333 121.951 73.505C123.043 72.665 124.579 72.239 126.559 72.227C126.583 72.227 126.619 72.227 126.667 72.227C126.727 72.227 126.781 72.227 126.829 72.227C126.889 72.227 126.925 72.227 126.937 72.227C128.941 72.227 130.495 72.647 131.599 73.487C132.715 74.327 133.273 75.527 133.273 77.087C133.273 78.671 132.715 79.889 131.599 80.741C130.483 81.593 128.923 82.019 126.919 82.019ZM126.883 80.507C127.927 80.507 128.791 80.375 129.475 80.111C130.171 79.847 130.693 79.463 131.041 78.959C131.389 78.455 131.563 77.831 131.563 77.087C131.563 76.355 131.389 75.743 131.041 75.251C130.693 74.759 130.171 74.387 129.475 74.135C128.791 73.883 127.927 73.757 126.883 73.757C126.859 73.757 126.811 73.757 126.739 73.757C126.667 73.757 126.625 73.757 126.613 73.757C125.593 73.757 124.741 73.889 124.057 74.153C123.385 74.405 122.881 74.777 122.545 75.269C122.209 75.761 122.041 76.367 122.041 77.087C122.041 77.819 122.209 78.437 122.545 78.941C122.893 79.445 123.403 79.829 124.075 80.093C124.759 80.357 125.605 80.495 126.613 80.507C126.637 80.507 126.679 80.507 126.739 80.507C126.811 80.507 126.859 80.507 126.883 80.507ZM125.947 85.367V68.519H127.639V85.367H125.947ZM139.801 81.983C138.841 81.983 137.989 81.773 137.245 81.353C136.501 80.933 135.913 80.357 135.481 79.625C135.049 78.881 134.833 78.041 134.833 77.105C134.833 76.157 135.049 75.317 135.481 74.585C135.913 73.853 136.501 73.283 137.245 72.875C137.989 72.455 138.841 72.245 139.801 72.245C140.749 72.245 141.595 72.455 142.339 72.875C143.095 73.283 143.683 73.853 144.103 74.585C144.535 75.305 144.751 76.145 144.751 77.105C144.751 78.053 144.535 78.893 144.103 79.625C143.683 80.357 143.095 80.933 142.339 81.353C141.595 81.773 140.749 81.983 139.801 81.983ZM139.801 80.471C140.413 80.471 140.959 80.333 141.439 80.057C141.931 79.781 142.315 79.391 142.591 78.887C142.867 78.371 143.005 77.777 143.005 77.105C143.005 76.421 142.867 75.833 142.591 75.341C142.315 74.837 141.931 74.447 141.439 74.171C140.959 73.895 140.413 73.757 139.801 73.757C139.189 73.757 138.643 73.895 138.163 74.171C137.683 74.447 137.299 74.837 137.011 75.341C136.723 75.833 136.579 76.421 136.579 77.105C136.579 77.777 136.723 78.371 137.011 78.887C137.299 79.391 137.683 79.781 138.163 80.057C138.643 80.333 139.189 80.471 139.801 80.471ZM152.304 81.983C151.512 81.983 150.786 81.803 150.126 81.443C149.478 81.071 148.956 80.525 148.56 79.805C148.176 79.085 147.984 78.185 147.984 77.105C147.984 76.025 148.17 75.125 148.542 74.405C148.926 73.685 149.442 73.145 150.09 72.785C150.75 72.425 151.488 72.245 152.304 72.245C153.24 72.245 154.068 72.449 154.788 72.857C155.508 73.265 156.078 73.835 156.498 74.567C156.918 75.287 157.128 76.133 157.128 77.105C157.128 78.077 156.918 78.929 156.498 79.661C156.078 80.393 155.508 80.963 154.788 81.371C154.068 81.779 153.24 81.983 152.304 81.983ZM147.246 85.367V72.335H148.902V74.909L148.794 77.123L148.974 79.337V85.367H147.246ZM152.16 80.471C152.772 80.471 153.318 80.333 153.798 80.057C154.29 79.781 154.674 79.391 154.95 78.887C155.238 78.371 155.382 77.777 155.382 77.105C155.382 76.421 155.238 75.833 154.95 75.341C154.674 74.837 154.29 74.447 153.798 74.171C153.318 73.895 152.772 73.757 152.16 73.757C151.56 73.757 151.014 73.895 150.522 74.171C150.042 74.447 149.658 74.837 149.37 75.341C149.094 75.833 148.956 76.421 148.956 77.105C148.956 77.777 149.094 78.371 149.37 78.887C149.658 79.391 150.042 79.781 150.522 80.057C151.014 80.333 151.56 80.471 152.16 80.471ZM159.639 81.875V72.335H161.421L165.525 79.391H164.805L169.017 72.335H170.637V81.875H169.071V74.279L169.359 74.441L165.507 80.795H164.751L160.881 74.315L161.223 74.243V81.875H159.639ZM174 81.875V72.335H175.728V79.283L181.578 72.335H183.144V81.875H181.416V74.927L175.584 81.875H174ZM191.556 81.983C190.764 81.983 190.038 81.803 189.378 81.443C188.73 81.071 188.208 80.525 187.812 79.805C187.428 79.085 187.236 78.185 187.236 77.105C187.236 76.025 187.422 75.125 187.794 74.405C188.178 73.685 188.694 73.145 189.342 72.785C190.002 72.425 190.74 72.245 191.556 72.245C192.492 72.245 193.32 72.449 194.04 72.857C194.76 73.265 195.33 73.835 195.75 74.567C196.17 75.287 196.38 76.133 196.38 77.105C196.38 78.077 196.17 78.929 195.75 79.661C195.33 80.393 194.76 80.963 194.04 81.371C193.32 81.779 192.492 81.983 191.556 81.983ZM186.498 85.367V72.335H188.154V74.909L188.046 77.123L188.226 79.337V85.367H186.498ZM191.412 80.471C192.024 80.471 192.57 80.333 193.05 80.057C193.542 79.781 193.926 79.391 194.202 78.887C194.49 78.371 194.634 77.777 194.634 77.105C194.634 76.421 194.49 75.833 194.202 75.341C193.926 74.837 193.542 74.447 193.05 74.171C192.57 73.895 192.024 73.757 191.412 73.757C190.812 73.757 190.266 73.895 189.774 74.171C189.294 74.447 188.91 74.837 188.622 75.341C188.346 75.833 188.208 76.421 188.208 77.105C188.208 77.777 188.346 78.371 188.622 78.887C188.91 79.391 189.294 79.781 189.774 80.057C190.266 80.333 190.812 80.471 191.412 80.471ZM202.977 81.983C202.017 81.983 201.165 81.773 200.421 81.353C199.677 80.933 199.089 80.357 198.657 79.625C198.225 78.881 198.009 78.041 198.009 77.105C198.009 76.157 198.225 75.317 198.657 74.585C199.089 73.853 199.677 73.283 200.421 72.875C201.165 72.455 202.017 72.245 202.977 72.245C203.925 72.245 204.771 72.455 205.515 72.875C206.271 73.283 206.859 73.853 207.279 74.585C207.711 75.305 207.927 76.145 207.927 77.105C207.927 78.053 207.711 78.893 207.279 79.625C206.859 80.357 206.271 80.933 205.515 81.353C204.771 81.773 203.925 81.983 202.977 81.983ZM202.977 80.471C203.589 80.471 204.135 80.333 204.615 80.057C205.107 79.781 205.491 79.391 205.767 78.887C206.043 78.371 206.181 77.777 206.181 77.105C206.181 76.421 206.043 75.833 205.767 75.341C205.491 74.837 205.107 74.447 204.615 74.171C204.135 73.895 203.589 73.757 202.977 73.757C202.365 73.757 201.819 73.895 201.339 74.171C200.859 74.447 200.475 74.837 200.187 75.341C199.899 75.833 199.755 76.421 199.755 77.105C199.755 77.777 199.899 78.371 200.187 78.887C200.475 79.391 200.859 79.781 201.339 80.057C201.819 80.333 202.365 80.471 202.977 80.471ZM210.422 81.875V72.335H214.85C215.966 72.335 216.842 72.551 217.478 72.983C218.126 73.403 218.45 74.003 218.45 74.783C218.45 75.563 218.144 76.169 217.532 76.601C216.932 77.021 216.134 77.231 215.138 77.231L215.408 76.763C216.548 76.763 217.394 76.973 217.946 77.393C218.498 77.813 218.774 78.431 218.774 79.247C218.774 80.075 218.462 80.723 217.838 81.191C217.226 81.647 216.284 81.875 215.012 81.875H210.422ZM212.114 80.543H214.886C215.606 80.543 216.146 80.435 216.506 80.219C216.866 79.991 217.046 79.631 217.046 79.139C217.046 78.635 216.878 78.269 216.542 78.041C216.218 77.801 215.702 77.681 214.994 77.681H212.114V80.543ZM212.114 76.439H214.706C215.366 76.439 215.864 76.319 216.2 76.079C216.548 75.827 216.722 75.479 216.722 75.035C216.722 74.579 216.548 74.237 216.2 74.009C215.864 73.781 215.366 73.667 214.706 73.667H212.114V76.439ZM227.329 81.875V79.859L227.239 79.481V76.043C227.239 75.311 227.023 74.747 226.591 74.351C226.171 73.943 225.535 73.739 224.683 73.739C224.119 73.739 223.567 73.835 223.027 74.027C222.487 74.207 222.031 74.453 221.659 74.765L220.939 73.469C221.431 73.073 222.019 72.773 222.703 72.569C223.399 72.353 224.125 72.245 224.881 72.245C226.189 72.245 227.197 72.563 227.905 73.199C228.613 73.835 228.967 74.807 228.967 76.115V81.875H227.329ZM224.197 81.983C223.489 81.983 222.865 81.863 222.325 81.623C221.797 81.383 221.389 81.053 221.101 80.633C220.813 80.201 220.669 79.715 220.669 79.175C220.669 78.659 220.789 78.191 221.029 77.771C221.281 77.351 221.683 77.015 222.235 76.763C222.799 76.511 223.555 76.385 224.503 76.385H227.527V77.627H224.575C223.711 77.627 223.129 77.771 222.829 78.059C222.529 78.347 222.379 78.695 222.379 79.103C222.379 79.571 222.565 79.949 222.937 80.237C223.309 80.513 223.825 80.651 224.485 80.651C225.133 80.651 225.697 80.507 226.177 80.219C226.669 79.931 227.023 79.511 227.239 78.959L227.581 80.147C227.353 80.711 226.951 81.161 226.375 81.497C225.799 81.821 225.073 81.983 224.197 81.983ZM232.078 81.875V72.335H233.806V76.385H239.242V72.335H240.97V81.875H239.242V77.879H233.806V81.875H232.078ZM244.33 81.875V72.335H246.058V76.385H251.494V72.335H253.222V81.875H251.494V77.879H246.058V81.875H244.33ZM257.068 85.475C256.612 85.475 256.168 85.397 255.736 85.241C255.304 85.097 254.932 84.881 254.62 84.593L255.358 83.297C255.598 83.525 255.862 83.699 256.15 83.819C256.438 83.939 256.744 83.999 257.068 83.999C257.488 83.999 257.836 83.891 258.112 83.675C258.388 83.459 258.646 83.075 258.886 82.523L259.48 81.209L259.66 80.993L263.404 72.335H265.096L260.47 82.829C260.194 83.501 259.882 84.029 259.534 84.413C259.198 84.797 258.826 85.067 258.418 85.223C258.01 85.391 257.56 85.475 257.068 85.475ZM259.336 82.181L254.98 72.335H256.78L260.488 80.831L259.336 82.181ZM266.865 81.875V72.335H268.593V76.241H271.473V77.843H268.593V81.875H266.865ZM275.307 81.983C274.371 81.983 273.537 81.773 272.805 81.353C272.085 80.933 271.515 80.357 271.095 79.625C270.675 78.881 270.465 78.041 270.465 77.105C270.465 76.157 270.675 75.317 271.095 74.585C271.515 73.841 272.085 73.265 272.805 72.857C273.537 72.449 274.371 72.245 275.307 72.245C276.231 72.245 277.059 72.449 277.791 72.857C278.523 73.265 279.099 73.841 279.519 74.585C279.939 75.317 280.149 76.157 280.149 77.105C280.149 78.053 279.939 78.893 279.519 79.625C279.099 80.357 278.523 80.933 277.791 81.353C277.059 81.773 276.231 81.983 275.307 81.983ZM275.307 80.471C275.907 80.471 276.441 80.333 276.909 80.057C277.377 79.769 277.749 79.379 278.025 78.887C278.301 78.383 278.439 77.789 278.439 77.105C278.439 76.421 278.301 75.833 278.025 75.341C277.749 74.837 277.377 74.447 276.909 74.171C276.441 73.895 275.907 73.757 275.307 73.757C274.719 73.757 274.185 73.895 273.705 74.171C273.237 74.447 272.865 74.837 272.589 75.341C272.313 75.833 272.175 76.421 272.175 77.105C272.175 77.789 272.313 78.383 272.589 78.887C272.865 79.379 273.237 79.769 273.705 80.057C274.185 80.333 274.719 80.471 275.307 80.471ZM34.2101 103.875V94.335H35.9381V101.283L41.7881 94.335H43.3541V103.875H41.6261V96.927L35.7941 103.875H34.2101ZM56.6002 103.983C55.8082 103.983 55.0822 103.803 54.4222 103.443C53.7742 103.071 53.2522 102.525 52.8562 101.805C52.4722 101.085 52.2802 100.185 52.2802 99.105C52.2802 98.025 52.4662 97.125 52.8382 96.405C53.2222 95.685 53.7382 95.145 54.3862 94.785C55.0462 94.425 55.7842 94.245 56.6002 94.245C57.5362 94.245 58.3642 94.449 59.0842 94.857C59.8042 95.265 60.3742 95.835 60.7942 96.567C61.2142 97.287 61.4242 98.133 61.4242 99.105C61.4242 100.077 61.2142 100.929 60.7942 101.661C60.3742 102.393 59.8042 102.963 59.0842 103.371C58.3642 103.779 57.5362 103.983 56.6002 103.983ZM51.5422 107.367V94.335H53.1982V96.909L53.0902 99.123L53.2702 101.337V107.367H51.5422ZM56.4562 102.471C57.0682 102.471 57.6142 102.333 58.0942 102.057C58.5862 101.781 58.9702 101.391 59.2462 100.887C59.5342 100.371 59.6782 99.777 59.6782 99.105C59.6782 98.421 59.5342 97.833 59.2462 97.341C58.9702 96.837 58.5862 96.447 58.0942 96.171C57.6142 95.895 57.0682 95.757 56.4562 95.757C55.8562 95.757 55.3102 95.895 54.8182 96.171C54.3382 96.447 53.9542 96.837 53.6662 97.341C53.3902 97.833 53.2522 98.421 53.2522 99.105C53.2522 99.777 53.3902 100.371 53.6662 100.887C53.9542 101.391 54.3382 101.781 54.8182 102.057C55.3102 102.333 55.8562 102.471 56.4562 102.471ZM68.1827 103.983C67.1627 103.983 66.2627 103.773 65.4827 103.353C64.7147 102.933 64.1147 102.357 63.6827 101.625C63.2627 100.893 63.0527 100.053 63.0527 99.105C63.0527 98.157 63.2567 97.317 63.6647 96.585C64.0847 95.853 64.6547 95.283 65.3747 94.875C66.1067 94.455 66.9287 94.245 67.8407 94.245C68.7647 94.245 69.5807 94.449 70.2887 94.857C70.9967 95.265 71.5487 95.841 71.9447 96.585C72.3527 97.317 72.5567 98.175 72.5567 99.159C72.5567 99.231 72.5507 99.315 72.5387 99.411C72.5387 99.507 72.5327 99.597 72.5207 99.681H64.4027V98.439H71.6207L70.9187 98.871C70.9307 98.259 70.8047 97.713 70.5407 97.233C70.2767 96.753 69.9107 96.381 69.4427 96.117C68.9867 95.841 68.4527 95.703 67.8407 95.703C67.2407 95.703 66.7067 95.841 66.2387 96.117C65.7707 96.381 65.4047 96.759 65.1407 97.251C64.8767 97.731 64.7447 98.283 64.7447 98.907V99.195C64.7447 99.831 64.8887 100.401 65.1767 100.905C65.4767 101.397 65.8907 101.781 66.4187 102.057C66.9467 102.333 67.5527 102.471 68.2367 102.471C68.8007 102.471 69.3107 102.375 69.7667 102.183C70.2347 101.991 70.6427 101.703 70.9907 101.319L71.9447 102.435C71.5127 102.939 70.9727 103.323 70.3247 103.587C69.6887 103.851 68.9747 103.983 68.1827 103.983ZM80.8238 103.875V101.859L80.7338 101.481V98.043C80.7338 97.311 80.5178 96.747 80.0858 96.351C79.6658 95.943 79.0298 95.739 78.1778 95.739C77.6138 95.739 77.0618 95.835 76.5218 96.027C75.9818 96.207 75.5258 96.453 75.1538 96.765L74.4338 95.469C74.9258 95.073 75.5138 94.773 76.1978 94.569C76.8938 94.353 77.6198 94.245 78.3758 94.245C79.6838 94.245 80.6918 94.563 81.3998 95.199C82.1078 95.835 82.4618 96.807 82.4618 98.115V103.875H80.8238ZM77.6918 103.983C76.9838 103.983 76.3598 103.863 75.8198 103.623C75.2918 103.383 74.8838 103.053 74.5958 102.633C74.3078 102.201 74.1638 101.715 74.1638 101.175C74.1638 100.659 74.2838 100.191 74.5238 99.771C74.7758 99.351 75.1778 99.015 75.7298 98.763C76.2938 98.511 77.0498 98.385 77.9978 98.385H81.0218V99.627H78.0698C77.2058 99.627 76.6238 99.771 76.3238 100.059C76.0238 100.347 75.8738 100.695 75.8738 101.103C75.8738 101.571 76.0598 101.949 76.4318 102.237C76.8038 102.513 77.3198 102.651 77.9798 102.651C78.6278 102.651 79.1918 102.507 79.6718 102.219C80.1638 101.931 80.5178 101.511 80.7338 100.959L81.0758 102.147C80.8478 102.711 80.4458 103.161 79.8698 103.497C79.2938 103.821 78.5678 103.983 77.6918 103.983ZM83.9894 103.857L84.0974 102.399C84.1814 102.411 84.2594 102.423 84.3314 102.435C84.4034 102.447 84.4694 102.453 84.5294 102.453C84.9134 102.453 85.2134 102.321 85.4294 102.057C85.6574 101.793 85.8254 101.445 85.9334 101.013C86.0414 100.569 86.1194 100.071 86.1674 99.519C86.2154 98.967 86.2514 98.415 86.2754 97.863L86.4374 94.335H93.7634V103.875H92.0354V95.343L92.4494 95.847H87.5534L87.9494 95.325L87.8234 97.971C87.7874 98.811 87.7214 99.597 87.6254 100.329C87.5294 101.061 87.3794 101.703 87.1754 102.255C86.9834 102.807 86.7134 103.239 86.3654 103.551C86.0294 103.863 85.5914 104.019 85.0514 104.019C84.8954 104.019 84.7274 104.001 84.5474 103.965C84.3794 103.941 84.1934 103.905 83.9894 103.857ZM97.1047 103.875V94.335H98.8327V101.283L104.683 94.335H106.249V103.875H104.521V96.927L98.6887 103.875H97.1047ZM112.235 104.001C111.515 104.001 110.807 103.911 110.111 103.731C109.427 103.539 108.815 103.269 108.275 102.921L108.797 101.607C109.253 101.895 109.775 102.123 110.363 102.291C110.951 102.447 111.545 102.525 112.145 102.525C112.697 102.525 113.171 102.459 113.567 102.327C113.975 102.195 114.287 102.015 114.503 101.787C114.719 101.547 114.827 101.271 114.827 100.959C114.827 100.515 114.629 100.173 114.233 99.933C113.837 99.693 113.285 99.573 112.577 99.573H110.849V98.331H112.469C112.889 98.331 113.255 98.283 113.567 98.187C113.879 98.091 114.119 97.947 114.287 97.755C114.467 97.551 114.557 97.317 114.557 97.053C114.557 96.765 114.455 96.519 114.251 96.315C114.047 96.111 113.759 95.955 113.387 95.847C113.027 95.739 112.601 95.685 112.109 95.685C111.629 95.697 111.137 95.763 110.633 95.883C110.141 96.003 109.637 96.189 109.121 96.441L108.653 95.091C109.229 94.815 109.793 94.605 110.345 94.461C110.909 94.305 111.467 94.221 112.019 94.209C112.847 94.185 113.585 94.281 114.233 94.497C114.881 94.701 115.391 95.001 115.763 95.397C116.147 95.793 116.339 96.261 116.339 96.801C116.339 97.257 116.195 97.665 115.907 98.025C115.619 98.373 115.235 98.649 114.755 98.853C114.275 99.057 113.723 99.159 113.099 99.159L113.171 98.745C114.239 98.745 115.079 98.955 115.691 99.375C116.303 99.795 116.609 100.365 116.609 101.085C116.609 101.661 116.417 102.171 116.033 102.615C115.649 103.047 115.127 103.389 114.467 103.641C113.819 103.881 113.075 104.001 112.235 104.001ZM123.322 103.983C122.362 103.983 121.51 103.773 120.766 103.353C120.022 102.933 119.434 102.357 119.002 101.625C118.57 100.881 118.354 100.041 118.354 99.105C118.354 98.157 118.57 97.317 119.002 96.585C119.434 95.853 120.022 95.283 120.766 94.875C121.51 94.455 122.362 94.245 123.322 94.245C124.27 94.245 125.116 94.455 125.86 94.875C126.616 95.283 127.204 95.853 127.624 96.585C128.056 97.305 128.272 98.145 128.272 99.105C128.272 100.053 128.056 100.893 127.624 101.625C127.204 102.357 126.616 102.933 125.86 103.353C125.116 103.773 124.27 103.983 123.322 103.983ZM123.322 102.471C123.934 102.471 124.48 102.333 124.96 102.057C125.452 101.781 125.836 101.391 126.112 100.887C126.388 100.371 126.526 99.777 126.526 99.105C126.526 98.421 126.388 97.833 126.112 97.341C125.836 96.837 125.452 96.447 124.96 96.171C124.48 95.895 123.934 95.757 123.322 95.757C122.71 95.757 122.164 95.895 121.684 96.171C121.204 96.447 120.82 96.837 120.532 97.341C120.244 97.833 120.1 98.421 120.1 99.105C120.1 99.777 120.244 100.371 120.532 100.887C120.82 101.391 121.204 101.781 121.684 102.057C122.164 102.333 122.71 102.471 123.322 102.471ZM130.767 103.875V94.335H135.195C136.311 94.335 137.187 94.551 137.823 94.983C138.471 95.403 138.795 96.003 138.795 96.783C138.795 97.563 138.489 98.169 137.877 98.601C137.277 99.021 136.479 99.231 135.483 99.231L135.753 98.763C136.893 98.763 137.739 98.973 138.291 99.393C138.843 99.813 139.119 100.431 139.119 101.247C139.119 102.075 138.807 102.723 138.183 103.191C137.571 103.647 136.629 103.875 135.357 103.875H130.767ZM132.459 102.543H135.231C135.951 102.543 136.491 102.435 136.851 102.219C137.211 101.991 137.391 101.631 137.391 101.139C137.391 100.635 137.223 100.269 136.887 100.041C136.563 99.801 136.047 99.681 135.339 99.681H132.459V102.543ZM132.459 98.439H135.051C135.711 98.439 136.209 98.319 136.545 98.079C136.893 97.827 137.067 97.479 137.067 97.035C137.067 96.579 136.893 96.237 136.545 96.009C136.209 95.781 135.711 95.667 135.051 95.667H132.459V98.439ZM147.673 103.875V101.859L147.583 101.481V98.043C147.583 97.311 147.367 96.747 146.935 96.351C146.515 95.943 145.879 95.739 145.027 95.739C144.463 95.739 143.911 95.835 143.371 96.027C142.831 96.207 142.375 96.453 142.003 96.765L141.283 95.469C141.775 95.073 142.363 94.773 143.047 94.569C143.743 94.353 144.469 94.245 145.225 94.245C146.533 94.245 147.541 94.563 148.249 95.199C148.957 95.835 149.311 96.807 149.311 98.115V103.875H147.673ZM144.541 103.983C143.833 103.983 143.209 103.863 142.669 103.623C142.141 103.383 141.733 103.053 141.445 102.633C141.157 102.201 141.013 101.715 141.013 101.175C141.013 100.659 141.133 100.191 141.373 99.771C141.625 99.351 142.027 99.015 142.579 98.763C143.143 98.511 143.899 98.385 144.847 98.385H147.871V99.627H144.919C144.055 99.627 143.473 99.771 143.173 100.059C142.873 100.347 142.723 100.695 142.723 101.103C142.723 101.571 142.909 101.949 143.281 102.237C143.653 102.513 144.169 102.651 144.829 102.651C145.477 102.651 146.041 102.507 146.521 102.219C147.013 101.931 147.367 101.511 147.583 100.959L147.925 102.147C147.697 102.711 147.295 103.161 146.719 103.497C146.143 103.821 145.417 103.983 144.541 103.983ZM152.423 103.875V94.335H154.151V98.385H159.587V94.335H161.315V103.875H159.587V99.879H154.151V103.875H152.423ZM164.675 103.875V94.335H166.403V98.385H171.839V94.335H173.567V103.875H171.839V99.879H166.403V103.875H164.675ZM177.413 107.475C176.957 107.475 176.513 107.397 176.081 107.241C175.649 107.097 175.277 106.881 174.965 106.593L175.703 105.297C175.943 105.525 176.207 105.699 176.495 105.819C176.783 105.939 177.089 105.999 177.413 105.999C177.833 105.999 178.181 105.891 178.457 105.675C178.733 105.459 178.991 105.075 179.231 104.523L179.825 103.209L180.005 102.993L183.749 94.335H185.441L180.815 104.829C180.539 105.501 180.227 106.029 179.879 106.413C179.543 106.797 179.171 107.067 178.763 107.223C178.355 107.391 177.905 107.475 177.413 107.475ZM179.681 104.181L175.325 94.335H177.125L180.833 102.831L179.681 104.181ZM187.21 103.875V94.335H188.938V98.241H191.818V99.843H188.938V103.875H187.21ZM195.652 103.983C194.716 103.983 193.882 103.773 193.15 103.353C192.43 102.933 191.86 102.357 191.44 101.625C191.02 100.881 190.81 100.041 190.81 99.105C190.81 98.157 191.02 97.317 191.44 96.585C191.86 95.841 192.43 95.265 193.15 94.857C193.882 94.449 194.716 94.245 195.652 94.245C196.576 94.245 197.404 94.449 198.136 94.857C198.868 95.265 199.444 95.841 199.864 96.585C200.284 97.317 200.494 98.157 200.494 99.105C200.494 100.053 200.284 100.893 199.864 101.625C199.444 102.357 198.868 102.933 198.136 103.353C197.404 103.773 196.576 103.983 195.652 103.983ZM195.652 102.471C196.252 102.471 196.786 102.333 197.254 102.057C197.722 101.769 198.094 101.379 198.37 100.887C198.646 100.383 198.784 99.789 198.784 99.105C198.784 98.421 198.646 97.833 198.37 97.341C198.094 96.837 197.722 96.447 197.254 96.171C196.786 95.895 196.252 95.757 195.652 95.757C195.064 95.757 194.53 95.895 194.05 96.171C193.582 96.447 193.21 96.837 192.934 97.341C192.658 97.833 192.52 98.421 192.52 99.105C192.52 99.789 192.658 100.383 192.934 100.887C193.21 101.379 193.582 101.769 194.05 102.057C194.53 102.333 195.064 102.471 195.652 102.471ZM207.812 103.875V94.335H209.594L213.698 101.391H212.978L217.19 94.335H218.81V103.875H217.244V96.279L217.532 96.441L213.68 102.795H212.924L209.054 96.315L209.396 96.243V103.875H207.812ZM228.023 103.875V101.859L227.933 101.481V98.043C227.933 97.311 227.717 96.747 227.285 96.351C226.865 95.943 226.229 95.739 225.377 95.739C224.813 95.739 224.261 95.835 223.721 96.027C223.181 96.207 222.725 96.453 222.353 96.765L221.633 95.469C222.125 95.073 222.713 94.773 223.397 94.569C224.093 94.353 224.819 94.245 225.575 94.245C226.883 94.245 227.891 94.563 228.599 95.199C229.307 95.835 229.661 96.807 229.661 98.115V103.875H228.023ZM224.891 103.983C224.183 103.983 223.559 103.863 223.019 103.623C222.491 103.383 222.083 103.053 221.795 102.633C221.507 102.201 221.363 101.715 221.363 101.175C221.363 100.659 221.483 100.191 221.723 99.771C221.975 99.351 222.377 99.015 222.929 98.763C223.493 98.511 224.249 98.385 225.197 98.385H228.221V99.627H225.269C224.405 99.627 223.823 99.771 223.523 100.059C223.223 100.347 223.073 100.695 223.073 101.103C223.073 101.571 223.259 101.949 223.631 102.237C224.003 102.513 224.519 102.651 225.179 102.651C225.827 102.651 226.391 102.507 226.871 102.219C227.363 101.931 227.717 101.511 227.933 100.959L228.275 102.147C228.047 102.711 227.645 103.161 227.069 103.497C226.493 103.821 225.767 103.983 224.891 103.983ZM237.831 103.983C237.039 103.983 236.313 103.803 235.653 103.443C235.005 103.071 234.483 102.525 234.087 101.805C233.703 101.085 233.511 100.185 233.511 99.105C233.511 98.025 233.697 97.125 234.069 96.405C234.453 95.685 234.969 95.145 235.617 94.785C236.277 94.425 237.015 94.245 237.831 94.245C238.767 94.245 239.595 94.449 240.315 94.857C241.035 95.265 241.605 95.835 242.025 96.567C242.445 97.287 242.655 98.133 242.655 99.105C242.655 100.077 242.445 100.929 242.025 101.661C241.605 102.393 241.035 102.963 240.315 103.371C239.595 103.779 238.767 103.983 237.831 103.983ZM232.773 107.367V94.335H234.429V96.909L234.321 99.123L234.501 101.337V107.367H232.773ZM237.687 102.471C238.299 102.471 238.845 102.333 239.325 102.057C239.817 101.781 240.201 101.391 240.477 100.887C240.765 100.371 240.909 99.777 240.909 99.105C240.909 98.421 240.765 97.833 240.477 97.341C240.201 96.837 239.817 96.447 239.325 96.171C238.845 95.895 238.299 95.757 237.687 95.757C237.087 95.757 236.541 95.895 236.049 96.171C235.569 96.447 235.185 96.837 234.897 97.341C234.621 97.833 234.483 98.421 234.483 99.105C234.483 99.777 234.621 100.371 234.897 100.887C235.185 101.391 235.569 101.781 236.049 102.057C236.541 102.333 237.087 102.471 237.687 102.471ZM252.077 103.875L248.387 99.231L249.809 98.367L254.111 103.875H252.077ZM245.165 103.875V94.335H246.893V103.875H245.165ZM246.371 99.843V98.367H249.521V99.843H246.371ZM249.953 99.303L248.351 99.087L252.005 94.335H253.859L249.953 99.303ZM259.855 103.983C258.835 103.983 257.935 103.773 257.155 103.353C256.387 102.933 255.787 102.357 255.355 101.625C254.935 100.893 254.725 100.053 254.725 99.105C254.725 98.157 254.929 97.317 255.337 96.585C255.757 95.853 256.327 95.283 257.047 94.875C257.779 94.455 258.601 94.245 259.513 94.245C260.437 94.245 261.253 94.449 261.961 94.857C262.669 95.265 263.221 95.841 263.617 96.585C264.025 97.317 264.229 98.175 264.229 99.159C264.229 99.231 264.223 99.315 264.211 99.411C264.211 99.507 264.205 99.597 264.193 99.681H256.075V98.439H263.293L262.591 98.871C262.603 98.259 262.477 97.713 262.213 97.233C261.949 96.753 261.583 96.381 261.115 96.117C260.659 95.841 260.125 95.703 259.513 95.703C258.913 95.703 258.379 95.841 257.911 96.117C257.443 96.381 257.077 96.759 256.813 97.251C256.549 97.731 256.417 98.283 256.417 98.907V99.195C256.417 99.831 256.561 100.401 256.849 100.905C257.149 101.397 257.563 101.781 258.091 102.057C258.619 102.333 259.225 102.471 259.909 102.471C260.473 102.471 260.983 102.375 261.439 102.183C261.907 101.991 262.315 101.703 262.663 101.319L263.617 102.435C263.185 102.939 262.645 103.323 261.997 103.587C261.361 103.851 260.647 103.983 259.855 103.983ZM268.395 103.875V95.397L268.827 95.847H264.903V94.335H273.615V95.847H269.709L270.123 95.397V103.875H268.395ZM275.382 103.875V94.335H277.11V101.283L282.96 94.335H284.526V103.875H282.798V96.927L276.966 103.875H275.382ZM287.88 103.875V94.335H289.608V98.385H295.044V94.335H296.772V103.875H295.044V99.879H289.608V103.875H287.88ZM300.132 103.875V94.335H307.152V95.847H301.446L301.86 95.451V103.875H300.132ZM312.585 103.983C311.625 103.983 310.773 103.773 310.029 103.353C309.285 102.933 308.697 102.357 308.265 101.625C307.833 100.881 307.617 100.041 307.617 99.105C307.617 98.157 307.833 97.317 308.265 96.585C308.697 95.853 309.285 95.283 310.029 94.875C310.773 94.455 311.625 94.245 312.585 94.245C313.533 94.245 314.379 94.455 315.123 94.875C315.879 95.283 316.467 95.853 316.887 96.585C317.319 97.305 317.535 98.145 317.535 99.105C317.535 100.053 317.319 100.893 316.887 101.625C316.467 102.357 315.879 102.933 315.123 103.353C314.379 103.773 313.533 103.983 312.585 103.983ZM312.585 102.471C313.197 102.471 313.743 102.333 314.223 102.057C314.715 101.781 315.099 101.391 315.375 100.887C315.651 100.371 315.789 99.777 315.789 99.105C315.789 98.421 315.651 97.833 315.375 97.341C315.099 96.837 314.715 96.447 314.223 96.171C313.743 95.895 313.197 95.757 312.585 95.757C311.973 95.757 311.427 95.895 310.947 96.171C310.467 96.447 310.083 96.837 309.795 97.341C309.507 97.833 309.363 98.421 309.363 99.105C309.363 99.777 309.507 100.371 309.795 100.887C310.083 101.391 310.467 101.781 310.947 102.057C311.427 102.333 311.973 102.471 312.585 102.471ZM320.03 103.875V94.335H324.458C325.574 94.335 326.45 94.551 327.086 94.983C327.734 95.403 328.058 96.003 328.058 96.783C328.058 97.563 327.752 98.169 327.14 98.601C326.54 99.021 325.742 99.231 324.746 99.231L325.016 98.763C326.156 98.763 327.002 98.973 327.554 99.393C328.106 99.813 328.382 100.431 328.382 101.247C328.382 102.075 328.07 102.723 327.446 103.191C326.834 103.647 325.892 103.875 324.62 103.875H320.03ZM321.722 102.543H324.494C325.214 102.543 325.754 102.435 326.114 102.219C326.474 101.991 326.654 101.631 326.654 101.139C326.654 100.635 326.486 100.269 326.15 100.041C325.826 99.801 325.31 99.681 324.602 99.681H321.722V102.543ZM321.722 98.439H324.314C324.974 98.439 325.472 98.319 325.808 98.079C326.156 97.827 326.33 97.479 326.33 97.035C326.33 96.579 326.156 96.237 325.808 96.009C325.472 95.781 324.974 95.667 324.314 95.667H321.722V98.439ZM331.573 107.475C331.117 107.475 330.673 107.397 330.241 107.241C329.809 107.097 329.437 106.881 329.125 106.593L329.863 105.297C330.103 105.525 330.367 105.699 330.655 105.819C330.943 105.939 331.249 105.999 331.573 105.999C331.993 105.999 332.341 105.891 332.617 105.675C332.893 105.459 333.151 105.075 333.391 104.523L333.985 103.209L334.165 102.993L337.909 94.335H339.601L334.975 104.829C334.699 105.501 334.387 106.029 334.039 106.413C333.703 106.797 333.331 107.067 332.923 107.223C332.515 107.391 332.065 107.475 331.573 107.475ZM333.841 104.181L329.485 94.335H331.285L334.993 102.831L333.841 104.181ZM341.37 103.875V94.335H343.098V98.241H345.978V99.843H343.098V103.875H341.37ZM349.812 103.983C348.876 103.983 348.042 103.773 347.31 103.353C346.59 102.933 346.02 102.357 345.6 101.625C345.18 100.881 344.97 100.041 344.97 99.105C344.97 98.157 345.18 97.317 345.6 96.585C346.02 95.841 346.59 95.265 347.31 94.857C348.042 94.449 348.876 94.245 349.812 94.245C350.736 94.245 351.564 94.449 352.296 94.857C353.028 95.265 353.604 95.841 354.024 96.585C354.444 97.317 354.654 98.157 354.654 99.105C354.654 100.053 354.444 100.893 354.024 101.625C353.604 102.357 353.028 102.933 352.296 103.353C351.564 103.773 350.736 103.983 349.812 103.983ZM349.812 102.471C350.412 102.471 350.946 102.333 351.414 102.057C351.882 101.769 352.254 101.379 352.53 100.887C352.806 100.383 352.944 99.789 352.944 99.105C352.944 98.421 352.806 97.833 352.53 97.341C352.254 96.837 351.882 96.447 351.414 96.171C350.946 95.895 350.412 95.757 349.812 95.757C349.224 95.757 348.69 95.895 348.21 96.171C347.742 96.447 347.37 96.837 347.094 97.341C346.818 97.833 346.68 98.421 346.68 99.105C346.68 99.789 346.818 100.383 347.094 100.887C347.37 101.379 347.742 101.769 348.21 102.057C348.69 102.333 349.224 102.471 349.812 102.471ZM94.4072 125.983C93.4352 125.983 92.5652 125.773 91.7972 125.353C91.0412 124.933 90.4472 124.357 90.0152 123.625C89.5832 122.893 89.3672 122.053 89.3672 121.105C89.3672 120.157 89.5832 119.317 90.0152 118.585C90.4472 117.853 91.0412 117.283 91.7972 116.875C92.5652 116.455 93.4352 116.245 94.4072 116.245C95.2712 116.245 96.0392 116.419 96.7112 116.767C97.3952 117.103 97.9232 117.607 98.2952 118.279L96.9812 119.125C96.6692 118.657 96.2852 118.315 95.8292 118.099C95.3852 117.871 94.9052 117.757 94.3892 117.757C93.7652 117.757 93.2072 117.895 92.7152 118.171C92.2232 118.447 91.8332 118.837 91.5452 119.341C91.2572 119.833 91.1132 120.421 91.1132 121.105C91.1132 121.789 91.2572 122.383 91.5452 122.887C91.8332 123.391 92.2232 123.781 92.7152 124.057C93.2072 124.333 93.7652 124.471 94.3892 124.471C94.9052 124.471 95.3852 124.363 95.8292 124.147C96.2852 123.919 96.6692 123.571 96.9812 123.103L98.2952 123.931C97.9232 124.591 97.3952 125.101 96.7112 125.461C96.0392 125.809 95.2712 125.983 94.4072 125.983ZM102.299 125.875V117.397L102.731 117.847H98.8074V116.335H107.519V117.847H103.613L104.027 117.397V125.875H102.299ZM114.344 125.983C113.552 125.983 112.826 125.803 112.166 125.443C111.518 125.071 110.996 124.525 110.6 123.805C110.216 123.085 110.024 122.185 110.024 121.105C110.024 120.025 110.21 119.125 110.582 118.405C110.966 117.685 111.482 117.145 112.13 116.785C112.79 116.425 113.528 116.245 114.344 116.245C115.28 116.245 116.108 116.449 116.828 116.857C117.548 117.265 118.118 117.835 118.538 118.567C118.958 119.287 119.168 120.133 119.168 121.105C119.168 122.077 118.958 122.929 118.538 123.661C118.118 124.393 117.548 124.963 116.828 125.371C116.108 125.779 115.28 125.983 114.344 125.983ZM109.286 129.367V116.335H110.942V118.909L110.834 121.123L111.014 123.337V129.367H109.286ZM114.2 124.471C114.812 124.471 115.358 124.333 115.838 124.057C116.33 123.781 116.714 123.391 116.99 122.887C117.278 122.371 117.422 121.777 117.422 121.105C117.422 120.421 117.278 119.833 116.99 119.341C116.714 118.837 116.33 118.447 115.838 118.171C115.358 117.895 114.812 117.757 114.2 117.757C113.6 117.757 113.054 117.895 112.562 118.171C112.082 118.447 111.698 118.837 111.41 119.341C111.134 119.833 110.996 120.421 110.996 121.105C110.996 121.777 111.134 122.371 111.41 122.887C111.698 123.391 112.082 123.781 112.562 124.057C113.054 124.333 113.6 124.471 114.2 124.471ZM127.441 125.875V123.859L127.351 123.481V120.043C127.351 119.311 127.135 118.747 126.703 118.351C126.283 117.943 125.647 117.739 124.795 117.739C124.231 117.739 123.679 117.835 123.139 118.027C122.599 118.207 122.143 118.453 121.771 118.765L121.051 117.469C121.543 117.073 122.131 116.773 122.815 116.569C123.511 116.353 124.237 116.245 124.993 116.245C126.301 116.245 127.309 116.563 128.017 117.199C128.725 117.835 129.079 118.807 129.079 120.115V125.875H127.441ZM124.309 125.983C123.601 125.983 122.977 125.863 122.437 125.623C121.909 125.383 121.501 125.053 121.213 124.633C120.925 124.201 120.781 123.715 120.781 123.175C120.781 122.659 120.901 122.191 121.141 121.771C121.393 121.351 121.795 121.015 122.347 120.763C122.911 120.511 123.667 120.385 124.615 120.385H127.639V121.627H124.687C123.823 121.627 123.241 121.771 122.941 122.059C122.641 122.347 122.491 122.695 122.491 123.103C122.491 123.571 122.677 123.949 123.049 124.237C123.421 124.513 123.937 124.651 124.597 124.651C125.245 124.651 125.809 124.507 126.289 124.219C126.781 123.931 127.135 123.511 127.351 122.959L127.693 124.147C127.465 124.711 127.063 125.161 126.487 125.497C125.911 125.821 125.185 125.983 124.309 125.983ZM134.081 125.875V117.397L134.513 117.847H130.589V116.335H139.301V117.847H135.395L135.809 117.397V125.875H134.081ZM144.894 125.983C143.874 125.983 142.974 125.773 142.194 125.353C141.426 124.933 140.826 124.357 140.394 123.625C139.974 122.893 139.764 122.053 139.764 121.105C139.764 120.157 139.968 119.317 140.376 118.585C140.796 117.853 141.366 117.283 142.086 116.875C142.818 116.455 143.64 116.245 144.552 116.245C145.476 116.245 146.292 116.449 147 116.857C147.708 117.265 148.26 117.841 148.656 118.585C149.064 119.317 149.268 120.175 149.268 121.159C149.268 121.231 149.262 121.315 149.25 121.411C149.25 121.507 149.244 121.597 149.232 121.681H141.114V120.439H148.332L147.63 120.871C147.642 120.259 147.516 119.713 147.252 119.233C146.988 118.753 146.622 118.381 146.154 118.117C145.698 117.841 145.164 117.703 144.552 117.703C143.952 117.703 143.418 117.841 142.95 118.117C142.482 118.381 142.116 118.759 141.852 119.251C141.588 119.731 141.456 120.283 141.456 120.907V121.195C141.456 121.831 141.6 122.401 141.888 122.905C142.188 123.397 142.602 123.781 143.13 124.057C143.658 124.333 144.264 124.471 144.948 124.471C145.512 124.471 146.022 124.375 146.478 124.183C146.946 123.991 147.354 123.703 147.702 123.319L148.656 124.435C148.224 124.939 147.684 125.323 147.036 125.587C146.4 125.851 145.686 125.983 144.894 125.983ZM151.948 125.875V116.335H158.968V117.847H153.262L153.676 117.451V125.875H151.948ZM160.737 125.875V116.335H162.465V123.283L168.315 116.335H169.881V125.875H168.153V118.927L162.321 125.875H160.737ZM173.236 125.875V116.335H174.964V120.241H177.844V121.843H174.964V125.875H173.236ZM181.678 125.983C180.742 125.983 179.908 125.773 179.176 125.353C178.456 124.933 177.886 124.357 177.466 123.625C177.046 122.881 176.836 122.041 176.836 121.105C176.836 120.157 177.046 119.317 177.466 118.585C177.886 117.841 178.456 117.265 179.176 116.857C179.908 116.449 180.742 116.245 181.678 116.245C182.602 116.245 183.43 116.449 184.162 116.857C184.894 117.265 185.47 117.841 185.89 118.585C186.31 119.317 186.52 120.157 186.52 121.105C186.52 122.053 186.31 122.893 185.89 123.625C185.47 124.357 184.894 124.933 184.162 125.353C183.43 125.773 182.602 125.983 181.678 125.983ZM181.678 124.471C182.278 124.471 182.812 124.333 183.28 124.057C183.748 123.769 184.12 123.379 184.396 122.887C184.672 122.383 184.81 121.789 184.81 121.105C184.81 120.421 184.672 119.833 184.396 119.341C184.12 118.837 183.748 118.447 183.28 118.171C182.812 117.895 182.278 117.757 181.678 117.757C181.09 117.757 180.556 117.895 180.076 118.171C179.608 118.447 179.236 118.837 178.96 119.341C178.684 119.833 178.546 120.421 178.546 121.105C178.546 121.789 178.684 122.383 178.96 122.887C179.236 123.379 179.608 123.769 180.076 124.057C180.556 124.333 181.09 124.471 181.678 124.471ZM193.837 125.875V116.335H195.565V120.385H201.001V116.335H202.729V125.875H201.001V121.879H195.565V125.875H193.837ZM211.939 125.875V123.859L211.849 123.481V120.043C211.849 119.311 211.633 118.747 211.201 118.351C210.781 117.943 210.145 117.739 209.293 117.739C208.729 117.739 208.177 117.835 207.637 118.027C207.097 118.207 206.641 118.453 206.269 118.765L205.549 117.469C206.041 117.073 206.629 116.773 207.313 116.569C208.009 116.353 208.735 116.245 209.491 116.245C210.799 116.245 211.807 116.563 212.515 117.199C213.223 117.835 213.577 118.807 213.577 120.115V125.875H211.939ZM208.807 125.983C208.099 125.983 207.475 125.863 206.935 125.623C206.407 125.383 205.999 125.053 205.711 124.633C205.423 124.201 205.279 123.715 205.279 123.175C205.279 122.659 205.399 122.191 205.639 121.771C205.891 121.351 206.293 121.015 206.845 120.763C207.409 120.511 208.165 120.385 209.113 120.385H212.137V121.627H209.185C208.321 121.627 207.739 121.771 207.439 122.059C207.139 122.347 206.989 122.695 206.989 123.103C206.989 123.571 207.175 123.949 207.547 124.237C207.919 124.513 208.435 124.651 209.095 124.651C209.743 124.651 210.307 124.507 210.787 124.219C211.279 123.931 211.633 123.511 211.849 122.959L212.191 124.147C211.963 124.711 211.561 125.161 210.985 125.497C210.409 125.821 209.683 125.983 208.807 125.983ZM220.515 125.875V124.651L225.645 119.701C226.101 119.269 226.437 118.891 226.653 118.567C226.881 118.231 227.031 117.925 227.103 117.649C227.187 117.361 227.229 117.085 227.229 116.821C227.229 116.173 227.001 115.663 226.545 115.291C226.089 114.919 225.423 114.733 224.547 114.733C223.875 114.733 223.269 114.847 222.729 115.075C222.189 115.291 221.721 115.633 221.325 116.101L220.101 115.039C220.581 114.427 221.223 113.959 222.027 113.635C222.843 113.299 223.737 113.131 224.709 113.131C225.585 113.131 226.347 113.275 226.995 113.563C227.643 113.839 228.141 114.241 228.489 114.769C228.849 115.297 229.029 115.921 229.029 116.641C229.029 117.049 228.975 117.451 228.867 117.847C228.759 118.243 228.555 118.663 228.255 119.107C227.955 119.551 227.523 120.049 226.959 120.601L222.387 125.011L221.955 124.309H229.569V125.875H220.515ZM236.179 126.019C235.195 126.019 234.313 125.767 233.533 125.263C232.765 124.759 232.153 124.027 231.697 123.067C231.253 122.107 231.031 120.943 231.031 119.575C231.031 118.207 231.253 117.043 231.697 116.083C232.153 115.123 232.765 114.391 233.533 113.887C234.313 113.383 235.195 113.131 236.179 113.131C237.151 113.131 238.027 113.383 238.807 113.887C239.587 114.391 240.199 115.123 240.643 116.083C241.087 117.043 241.309 118.207 241.309 119.575C241.309 120.943 241.087 122.107 240.643 123.067C240.199 124.027 239.587 124.759 238.807 125.263C238.027 125.767 237.151 126.019 236.179 126.019ZM236.179 124.417C236.839 124.417 237.415 124.237 237.907 123.877C238.411 123.517 238.801 122.977 239.077 122.257C239.365 121.537 239.509 120.643 239.509 119.575C239.509 118.507 239.365 117.613 239.077 116.893C238.801 116.173 238.411 115.633 237.907 115.273C237.415 114.913 236.839 114.733 236.179 114.733C235.519 114.733 234.937 114.913 234.433 115.273C233.929 115.633 233.533 116.173 233.245 116.893C232.969 117.613 232.831 118.507 232.831 119.575C232.831 120.643 232.969 121.537 233.245 122.257C233.533 122.977 233.929 123.517 234.433 123.877C234.937 124.237 235.519 124.417 236.179 124.417ZM242.839 125.875V124.651L247.969 119.701C248.425 119.269 248.761 118.891 248.977 118.567C249.205 118.231 249.355 117.925 249.427 117.649C249.511 117.361 249.553 117.085 249.553 116.821C249.553 116.173 249.325 115.663 248.869 115.291C248.413 114.919 247.747 114.733 246.871 114.733C246.199 114.733 245.593 114.847 245.053 115.075C244.513 115.291 244.045 115.633 243.649 116.101L242.425 115.039C242.905 114.427 243.547 113.959 244.351 113.635C245.167 113.299 246.061 113.131 247.033 113.131C247.909 113.131 248.671 113.275 249.319 113.563C249.967 113.839 250.465 114.241 250.813 114.769C251.173 115.297 251.353 115.921 251.353 116.641C251.353 117.049 251.299 117.451 251.191 117.847C251.083 118.243 250.879 118.663 250.579 119.107C250.279 119.551 249.847 120.049 249.283 120.601L244.711 125.011L244.279 124.309H251.893V125.875H242.839ZM257.225 126.019C256.337 126.019 255.473 125.881 254.633 125.605C253.805 125.329 253.127 124.957 252.599 124.489L253.427 123.067C253.847 123.463 254.393 123.787 255.065 124.039C255.737 124.291 256.457 124.417 257.225 124.417C258.161 124.417 258.887 124.219 259.403 123.823C259.931 123.415 260.195 122.869 260.195 122.185C260.195 121.525 259.943 120.997 259.439 120.601C258.947 120.193 258.161 119.989 257.081 119.989H256.073V118.729L259.817 114.121L260.069 114.841H253.175V113.275H261.491V114.499L257.765 119.089L256.829 118.531H257.423C258.947 118.531 260.087 118.873 260.843 119.557C261.611 120.241 261.995 121.111 261.995 122.167C261.995 122.875 261.821 123.523 261.473 124.111C261.125 124.699 260.597 125.167 259.889 125.515C259.193 125.851 258.305 126.019 257.225 126.019ZM269.318 125.875V116.335H276.338V117.847H270.632L271.046 117.451V125.875H269.318ZM281.771 125.983C280.811 125.983 279.959 125.773 279.215 125.353C278.471 124.933 277.883 124.357 277.451 123.625C277.019 122.881 276.803 122.041 276.803 121.105C276.803 120.157 277.019 119.317 277.451 118.585C277.883 117.853 278.471 117.283 279.215 116.875C279.959 116.455 280.811 116.245 281.771 116.245C282.719 116.245 283.565 116.455 284.309 116.875C285.065 117.283 285.653 117.853 286.073 118.585C286.505 119.305 286.721 120.145 286.721 121.105C286.721 122.053 286.505 122.893 286.073 123.625C285.653 124.357 285.065 124.933 284.309 125.353C283.565 125.773 282.719 125.983 281.771 125.983ZM281.771 124.471C282.383 124.471 282.929 124.333 283.409 124.057C283.901 123.781 284.285 123.391 284.561 122.887C284.837 122.371 284.975 121.777 284.975 121.105C284.975 120.421 284.837 119.833 284.561 119.341C284.285 118.837 283.901 118.447 283.409 118.171C282.929 117.895 282.383 117.757 281.771 117.757C281.159 117.757 280.613 117.895 280.133 118.171C279.653 118.447 279.269 118.837 278.981 119.341C278.693 119.833 278.549 120.421 278.549 121.105C278.549 121.777 278.693 122.371 278.981 122.887C279.269 123.391 279.653 123.781 280.133 124.057C280.613 124.333 281.159 124.471 281.771 124.471ZM295.662 125.065V117.847H291.522L291.432 119.683C291.408 120.283 291.366 120.865 291.306 121.429C291.258 121.981 291.174 122.491 291.054 122.959C290.946 123.427 290.784 123.811 290.568 124.111C290.352 124.411 290.064 124.597 289.704 124.669L287.994 124.363C288.366 124.375 288.666 124.255 288.894 124.003C289.122 123.739 289.296 123.379 289.416 122.923C289.548 122.467 289.644 121.951 289.704 121.375C289.764 120.787 289.812 120.181 289.848 119.557L289.992 116.335H297.39V125.065H295.662ZM287.616 128.089V124.363H298.848V128.089H297.228V125.875H289.254V128.089H287.616Z" fill="black"/>
<path d="M297 1.97792C311.465 8.49574 342.228 28.873 349.554 58.2395M349.554 58.2395L353.561 50.289M349.554 58.2395L339.686 50.7903" stroke="black"/>
</svg>
