<svg width="315" height="85" viewBox="0 0 315 85" fill="none" xmlns="http://www.w3.org/2000/svg">
<path d="M27.0979 51.175C25.7312 51.175 24.5145 50.8833 23.4479 50.3C22.3812 49.7 21.5395 48.8833 20.9229 47.85C20.3062 46.8167 19.9979 45.6417 19.9979 44.325C19.9979 42.9917 20.3062 41.8167 20.9229 40.8C21.5395 39.7667 22.3812 38.9583 23.4479 38.375C24.5145 37.7917 25.7312 37.5 27.0979 37.5C28.4812 37.5 29.7062 37.7917 30.7729 38.375C31.8562 38.9583 32.6979 39.7583 33.2979 40.775C33.9145 41.7917 34.2229 42.975 34.2229 44.325C34.2229 45.6417 33.9145 46.8167 33.2979 47.85C32.6979 48.8833 31.8562 49.7 30.7729 50.3C29.7062 50.8833 28.4812 51.175 27.0979 51.175ZM27.0979 48.5C27.8645 48.5 28.5479 48.3333 29.1479 48C29.7479 47.6667 30.2145 47.1833 30.5479 46.55C30.8979 45.9167 31.0729 45.175 31.0729 44.325C31.0729 43.4583 30.8979 42.7167 30.5479 42.1C30.2145 41.4667 29.7479 40.9833 29.1479 40.65C28.5479 40.3167 27.8729 40.15 27.1229 40.15C26.3562 40.15 25.6729 40.3167 25.0729 40.65C24.4895 40.9833 24.0229 41.4667 23.6729 42.1C23.3229 42.7167 23.1479 43.4583 23.1479 44.325C23.1479 45.175 23.3229 45.9167 23.6729 46.55C24.0229 47.1833 24.4895 47.6667 25.0729 48C25.6729 48.3333 26.3479 48.5 27.0979 48.5ZM39.5967 51V39.55L40.3217 40.3H34.8967V37.65H47.3967V40.3H41.9967L42.7217 39.55V51H39.5967ZM61.0727 51.25C59.8393 51.25 58.631 51.075 57.4477 50.725C56.281 50.3583 55.2977 49.8583 54.4977 49.225L55.8977 46.7C56.531 47.2167 57.2977 47.6333 58.1977 47.95C59.0977 48.2667 60.0393 48.425 61.0227 48.425C62.1893 48.425 63.0977 48.1917 63.7477 47.725C64.3977 47.2417 64.7227 46.5917 64.7227 45.775C64.7227 44.975 64.4227 44.3417 63.8227 43.875C63.2227 43.4083 62.256 43.175 60.9227 43.175H59.3227V40.95L64.3227 35L64.7477 36.225H55.3477V33.5H67.2727V35.675L62.2727 41.625L60.5727 40.625H61.5477C63.6977 40.625 65.306 41.1083 66.3727 42.075C67.456 43.025 67.9977 44.25 67.9977 45.75C67.9977 46.7333 67.7477 47.6417 67.2477 48.475C66.7477 49.3083 65.981 49.9833 64.9477 50.5C63.931 51 62.6393 51.25 61.0727 51.25ZM75.6793 51.25C74.446 51.25 73.2376 51.075 72.0543 50.725C70.8876 50.3583 69.9043 49.8583 69.1043 49.225L70.4793 46.7C71.1126 47.2167 71.8793 47.6333 72.7793 47.95C73.696 48.2667 74.646 48.425 75.6293 48.425C76.7793 48.425 77.6793 48.1833 78.3293 47.7C78.996 47.2167 79.3293 46.5667 79.3293 45.75C79.3293 45.2 79.1876 44.7167 78.9043 44.3C78.6376 43.8833 78.1543 43.5667 77.4543 43.35C76.771 43.1333 75.8293 43.025 74.6293 43.025H70.4043L71.3043 33.5H81.5793V36.225H72.5043L74.2043 34.675L73.5293 41.8L71.8293 40.275H75.3543C77.0876 40.275 78.4793 40.5083 79.5293 40.975C80.596 41.425 81.371 42.0583 81.8543 42.875C82.3543 43.675 82.6043 44.5917 82.6043 45.625C82.6043 46.6417 82.3543 47.575 81.8543 48.425C81.3543 49.275 80.5876 49.9583 79.5543 50.475C78.5376 50.9917 77.246 51.25 75.6793 51.25ZM91.7789 51.25C90.3956 51.25 89.1456 50.9 88.0289 50.2C86.9289 49.5 86.0622 48.4833 85.4289 47.15C84.7956 45.8 84.4789 44.1667 84.4789 42.25C84.4789 40.3333 84.7956 38.7083 85.4289 37.375C86.0622 36.025 86.9289 35 88.0289 34.3C89.1456 33.6 90.3956 33.25 91.7789 33.25C93.1789 33.25 94.4289 33.6 95.5289 34.3C96.6289 35 97.4956 36.025 98.1289 37.375C98.7789 38.7083 99.1039 40.3333 99.1039 42.25C99.1039 44.1667 98.7789 45.8 98.1289 47.15C97.4956 48.4833 96.6289 49.5 95.5289 50.2C94.4289 50.9 93.1789 51.25 91.7789 51.25ZM91.7789 48.425C92.5956 48.425 93.3039 48.2083 93.9039 47.775C94.5039 47.325 94.9706 46.6417 95.3039 45.725C95.6539 44.8083 95.8289 43.65 95.8289 42.25C95.8289 40.8333 95.6539 39.675 95.3039 38.775C94.9706 37.8583 94.5039 37.1833 93.9039 36.75C93.3039 36.3 92.5956 36.075 91.7789 36.075C90.9956 36.075 90.2956 36.3 89.6789 36.75C89.0789 37.1833 88.6039 37.8583 88.2539 38.775C87.9206 39.675 87.7539 40.8333 87.7539 42.25C87.7539 43.65 87.9206 44.8083 88.2539 45.725C88.6039 46.6417 89.0789 47.325 89.6789 47.775C90.2956 48.2083 90.9956 48.425 91.7789 48.425ZM115.509 51.25C114.126 51.25 112.876 50.9 111.759 50.2C110.659 49.5 109.793 48.4833 109.159 47.15C108.526 45.8 108.209 44.1667 108.209 42.25C108.209 40.3333 108.526 38.7083 109.159 37.375C109.793 36.025 110.659 35 111.759 34.3C112.876 33.6 114.126 33.25 115.509 33.25C116.909 33.25 118.159 33.6 119.259 34.3C120.359 35 121.226 36.025 121.859 37.375C122.509 38.7083 122.834 40.3333 122.834 42.25C122.834 44.1667 122.509 45.8 121.859 47.15C121.226 48.4833 120.359 49.5 119.259 50.2C118.159 50.9 116.909 51.25 115.509 51.25ZM115.509 48.425C116.326 48.425 117.034 48.2083 117.634 47.775C118.234 47.325 118.701 46.6417 119.034 45.725C119.384 44.8083 119.559 43.65 119.559 42.25C119.559 40.8333 119.384 39.675 119.034 38.775C118.701 37.8583 118.234 37.1833 117.634 36.75C117.034 36.3 116.326 36.075 115.509 36.075C114.726 36.075 114.026 36.3 113.409 36.75C112.809 37.1833 112.334 37.8583 111.984 38.775C111.651 39.675 111.484 40.8333 111.484 42.25C111.484 43.65 111.651 44.8083 111.984 45.725C112.334 46.6417 112.809 47.325 113.409 47.775C114.026 48.2083 114.726 48.425 115.509 48.425ZM132.331 51.25C130.947 51.25 129.697 50.9 128.581 50.2C127.481 49.5 126.614 48.4833 125.981 47.15C125.347 45.8 125.031 44.1667 125.031 42.25C125.031 40.3333 125.347 38.7083 125.981 37.375C126.614 36.025 127.481 35 128.581 34.3C129.697 33.6 130.947 33.25 132.331 33.25C133.731 33.25 134.981 33.6 136.081 34.3C137.181 35 138.047 36.025 138.681 37.375C139.331 38.7083 139.656 40.3333 139.656 42.25C139.656 44.1667 139.331 45.8 138.681 47.15C138.047 48.4833 137.181 49.5 136.081 50.2C134.981 50.9 133.731 51.25 132.331 51.25ZM132.331 48.425C133.147 48.425 133.856 48.2083 134.456 47.775C135.056 47.325 135.522 46.6417 135.856 45.725C136.206 44.8083 136.381 43.65 136.381 42.25C136.381 40.8333 136.206 39.675 135.856 38.775C135.522 37.8583 135.056 37.1833 134.456 36.75C133.856 36.3 133.147 36.075 132.331 36.075C131.547 36.075 130.847 36.3 130.231 36.75C129.631 37.1833 129.156 37.8583 128.806 38.775C128.472 39.675 128.306 40.8333 128.306 42.25C128.306 43.65 128.472 44.8083 128.806 45.725C129.156 46.6417 129.631 47.325 130.231 47.775C130.847 48.2083 131.547 48.425 132.331 48.425ZM149.152 51.25C147.769 51.25 146.519 50.9 145.402 50.2C144.302 49.5 143.435 48.4833 142.802 47.15C142.169 45.8 141.852 44.1667 141.852 42.25C141.852 40.3333 142.169 38.7083 142.802 37.375C143.435 36.025 144.302 35 145.402 34.3C146.519 33.6 147.769 33.25 149.152 33.25C150.552 33.25 151.802 33.6 152.902 34.3C154.002 35 154.869 36.025 155.502 37.375C156.152 38.7083 156.477 40.3333 156.477 42.25C156.477 44.1667 156.152 45.8 155.502 47.15C154.869 48.4833 154.002 49.5 152.902 50.2C151.802 50.9 150.552 51.25 149.152 51.25ZM149.152 48.425C149.969 48.425 150.677 48.2083 151.277 47.775C151.877 47.325 152.344 46.6417 152.677 45.725C153.027 44.8083 153.202 43.65 153.202 42.25C153.202 40.8333 153.027 39.675 152.677 38.775C152.344 37.8583 151.877 37.1833 151.277 36.75C150.677 36.3 149.969 36.075 149.152 36.075C148.369 36.075 147.669 36.3 147.052 36.75C146.452 37.1833 145.977 37.8583 145.627 38.775C145.294 39.675 145.127 40.8333 145.127 42.25C145.127 43.65 145.294 44.8083 145.627 45.725C145.977 46.6417 146.452 47.325 147.052 47.775C147.669 48.2083 148.369 48.425 149.152 48.425ZM167.732 51V33.5H174.932C177.232 33.5 179.041 34 180.357 35C181.691 35.9833 182.357 37.4417 182.357 39.375C182.357 41.2917 181.691 42.75 180.357 43.75C179.041 44.7333 177.232 45.225 174.932 45.225H169.532L170.982 43.725V51H167.732ZM170.982 44.075L169.532 42.6H174.907C176.241 42.6 177.266 42.325 177.982 41.775C178.716 41.2083 179.082 40.4167 179.082 39.4C179.082 38.3833 178.716 37.6083 177.982 37.075C177.266 36.525 176.241 36.25 174.907 36.25H169.532L170.982 34.65V44.075ZM165.232 48.4V46.65H176.482V48.4H165.232ZM192.535 51V37.65H199.06C200.676 37.65 201.943 37.95 202.86 38.55C203.793 39.15 204.26 40 204.26 41.1C204.26 42.1833 203.826 43.0333 202.96 43.65C202.093 44.25 200.943 44.55 199.51 44.55L199.885 43.775C201.501 43.775 202.701 44.075 203.485 44.675C204.285 45.2583 204.685 46.1167 204.685 47.25C204.685 48.4333 204.243 49.3583 203.36 50.025C202.476 50.675 201.135 51 199.335 51H192.535ZM195.51 48.725H199.085C199.935 48.725 200.576 48.5917 201.01 48.325C201.443 48.0417 201.66 47.6167 201.66 47.05C201.66 46.45 201.46 46.0083 201.06 45.725C200.66 45.4417 200.035 45.3 199.185 45.3H195.51V48.725ZM195.51 43.225H198.785C199.585 43.225 200.185 43.0833 200.585 42.8C201.001 42.5 201.21 42.0833 201.21 41.55C201.21 41 201.001 40.5917 200.585 40.325C200.185 40.0583 199.585 39.925 198.785 39.925H195.51V43.225ZM214.922 51V37.65H218.197L223.572 47.125H222.272L227.922 37.65H230.847L230.872 51H228.047V41L228.547 41.325L223.547 49.6H222.197L217.172 41.1L217.772 40.95V51H214.922ZM241.289 51.175C239.806 51.175 238.506 50.8833 237.389 50.3C236.289 49.7 235.431 48.8833 234.814 47.85C234.214 46.8167 233.914 45.6417 233.914 44.325C233.914 42.9917 234.206 41.8167 234.789 40.8C235.389 39.7667 236.206 38.9583 237.239 38.375C238.289 37.7917 239.481 37.5 240.814 37.5C242.114 37.5 243.272 37.7833 244.289 38.35C245.306 38.9167 246.106 39.7167 246.689 40.75C247.272 41.7833 247.564 43 247.564 44.4C247.564 44.5333 247.556 44.6833 247.539 44.85C247.539 45.0167 247.531 45.175 247.514 45.325H236.389V43.25H245.864L244.639 43.9C244.656 43.1333 244.497 42.4583 244.164 41.875C243.831 41.2917 243.372 40.8333 242.789 40.5C242.222 40.1667 241.564 40 240.814 40C240.047 40 239.372 40.1667 238.789 40.5C238.222 40.8333 237.772 41.3 237.439 41.9C237.122 42.4833 236.964 43.175 236.964 43.975V44.475C236.964 45.275 237.147 45.9833 237.514 46.6C237.881 47.2167 238.397 47.6917 239.064 48.025C239.731 48.3583 240.497 48.525 241.364 48.525C242.114 48.525 242.789 48.4083 243.389 48.175C243.989 47.9417 244.522 47.575 244.989 47.075L246.664 49C246.064 49.7 245.306 50.2417 244.389 50.625C243.489 50.9917 242.456 51.175 241.289 51.175ZM257.057 51.175C255.657 51.175 254.407 50.8833 253.307 50.3C252.224 49.7 251.374 48.8833 250.757 47.85C250.14 46.8167 249.832 45.6417 249.832 44.325C249.832 42.9917 250.14 41.8167 250.757 40.8C251.374 39.7667 252.224 38.9583 253.307 38.375C254.407 37.7917 255.657 37.5 257.057 37.5C258.357 37.5 259.499 37.7667 260.482 38.3C261.482 38.8167 262.24 39.5833 262.757 40.6L260.357 42C259.957 41.3667 259.465 40.9 258.882 40.6C258.315 40.3 257.699 40.15 257.032 40.15C256.265 40.15 255.574 40.3167 254.957 40.65C254.34 40.9833 253.857 41.4667 253.507 42.1C253.157 42.7167 252.982 43.4583 252.982 44.325C252.982 45.1917 253.157 45.9417 253.507 46.575C253.857 47.1917 254.34 47.6667 254.957 48C255.574 48.3333 256.265 48.5 257.032 48.5C257.699 48.5 258.315 48.35 258.882 48.05C259.465 47.75 259.957 47.2833 260.357 46.65L262.757 48.05C262.24 49.05 261.482 49.825 260.482 50.375C259.499 50.9083 258.357 51.175 257.057 51.175ZM273.617 51V46.45L274.067 46.975H270.067C268.234 46.975 266.792 46.5917 265.742 45.825C264.709 45.0417 264.192 43.9167 264.192 42.45C264.192 40.8833 264.742 39.6917 265.842 38.875C266.959 38.0583 268.442 37.65 270.292 37.65H276.417V51H273.617ZM264.017 51L267.617 45.9H270.817L267.367 51H264.017ZM273.617 45.45V39.45L274.067 40.275H270.392C269.425 40.275 268.675 40.4583 268.142 40.825C267.625 41.175 267.367 41.75 267.367 42.55C267.367 44.05 268.342 44.8 270.292 44.8H274.067L273.617 45.45ZM280.621 51V37.65H283.746V48.35H290.121V37.65H293.246V51H280.621ZM292.346 53.975V50.925L293.071 51H290.121V48.35H295.271V53.975H292.346Z" fill="black"/>
<path d="M314.5 42.5C314.5 48.1007 310.287 53.5605 302.354 58.6214C294.445 63.6672 282.967 68.23 268.739 72.0693C240.291 79.7459 200.961 84.5 157.5 84.5C114.039 84.5 74.7094 79.7459 46.2609 72.0693C32.0331 68.23 20.5552 63.6672 12.6461 58.6214C4.71329 53.5605 0.5 48.1007 0.5 42.5C0.5 36.8993 4.71329 31.4395 12.6461 26.3786C20.5552 21.3328 32.0331 16.77 46.2609 12.9307C74.7094 5.25413 114.039 0.5 157.5 0.5C200.961 0.5 240.291 5.25413 268.739 12.9307C282.967 16.77 294.445 21.3328 302.354 26.3786C310.287 31.4395 314.5 36.8993 314.5 42.5Z" stroke="black"/>
</svg>
