<svg width="291" height="85" viewBox="0 0 291 85" fill="none" xmlns="http://www.w3.org/2000/svg">
<path d="M31.0772 51V34.75L32.5022 36.225H27.3772V33.5H34.3272V51H31.0772ZM37.5737 51V48.825L44.5237 42.225C45.1071 41.675 45.5404 41.1917 45.8237 40.775C46.1071 40.3583 46.2904 39.975 46.3737 39.625C46.4737 39.2583 46.5237 38.9167 46.5237 38.6C46.5237 37.8 46.2487 37.1833 45.6987 36.75C45.1487 36.3 44.3404 36.075 43.2737 36.075C42.4237 36.075 41.6487 36.225 40.9487 36.525C40.2654 36.825 39.6737 37.2833 39.1737 37.9L36.8987 36.15C37.5821 35.2333 38.4987 34.525 39.6487 34.025C40.8154 33.5083 42.1154 33.25 43.5487 33.25C44.8154 33.25 45.9154 33.4583 46.8487 33.875C47.7987 34.275 48.5237 34.85 49.0237 35.6C49.5404 36.35 49.7987 37.2417 49.7987 38.275C49.7987 38.8417 49.7237 39.4083 49.5737 39.975C49.4237 40.525 49.1404 41.1083 48.7237 41.725C48.3071 42.3417 47.6987 43.0333 46.8987 43.8L40.9237 49.475L40.2487 48.25H50.4737V51H37.5737ZM59.6495 51.25C58.2662 51.25 57.0162 50.9 55.8995 50.2C54.7995 49.5 53.9328 48.4833 53.2995 47.15C52.6662 45.8 52.3495 44.1667 52.3495 42.25C52.3495 40.3333 52.6662 38.7083 53.2995 37.375C53.9328 36.025 54.7995 35 55.8995 34.3C57.0162 33.6 58.2662 33.25 59.6495 33.25C61.0495 33.25 62.2995 33.6 63.3995 34.3C64.4995 35 65.3662 36.025 65.9995 37.375C66.6495 38.7083 66.9745 40.3333 66.9745 42.25C66.9745 44.1667 66.6495 45.8 65.9995 47.15C65.3662 48.4833 64.4995 49.5 63.3995 50.2C62.2995 50.9 61.0495 51.25 59.6495 51.25ZM59.6495 48.425C60.4662 48.425 61.1745 48.2083 61.7745 47.775C62.3745 47.325 62.8412 46.6417 63.1745 45.725C63.5245 44.8083 63.6995 43.65 63.6995 42.25C63.6995 40.8333 63.5245 39.675 63.1745 38.775C62.8412 37.8583 62.3745 37.1833 61.7745 36.75C61.1745 36.3 60.4662 36.075 59.6495 36.075C58.8662 36.075 58.1662 36.3 57.5495 36.75C56.9495 37.1833 56.4745 37.8583 56.1245 38.775C55.7912 39.675 55.6245 40.8333 55.6245 42.25C55.6245 43.65 55.7912 44.8083 56.1245 45.725C56.4745 46.6417 56.9495 47.325 57.5495 47.775C58.1662 48.2083 58.8662 48.425 59.6495 48.425ZM83.38 51.25C81.9966 51.25 80.7466 50.9 79.63 50.2C78.53 49.5 77.6633 48.4833 77.03 47.15C76.3966 45.8 76.08 44.1667 76.08 42.25C76.08 40.3333 76.3966 38.7083 77.03 37.375C77.6633 36.025 78.53 35 79.63 34.3C80.7466 33.6 81.9966 33.25 83.38 33.25C84.78 33.25 86.03 33.6 87.13 34.3C88.23 35 89.0966 36.025 89.73 37.375C90.38 38.7083 90.705 40.3333 90.705 42.25C90.705 44.1667 90.38 45.8 89.73 47.15C89.0966 48.4833 88.23 49.5 87.13 50.2C86.03 50.9 84.78 51.25 83.38 51.25ZM83.38 48.425C84.1966 48.425 84.905 48.2083 85.505 47.775C86.105 47.325 86.5716 46.6417 86.905 45.725C87.255 44.8083 87.43 43.65 87.43 42.25C87.43 40.8333 87.255 39.675 86.905 38.775C86.5716 37.8583 86.105 37.1833 85.505 36.75C84.905 36.3 84.1966 36.075 83.38 36.075C82.5966 36.075 81.8966 36.3 81.28 36.75C80.68 37.1833 80.205 37.8583 79.855 38.775C79.5216 39.675 79.355 40.8333 79.355 42.25C79.355 43.65 79.5216 44.8083 79.855 45.725C80.205 46.6417 80.68 47.325 81.28 47.775C81.8966 48.2083 82.5966 48.425 83.38 48.425ZM100.201 51.25C98.8179 51.25 97.5679 50.9 96.4513 50.2C95.3513 49.5 94.4846 48.4833 93.8513 47.15C93.2179 45.8 92.9013 44.1667 92.9013 42.25C92.9013 40.3333 93.2179 38.7083 93.8513 37.375C94.4846 36.025 95.3513 35 96.4513 34.3C97.5679 33.6 98.8179 33.25 100.201 33.25C101.601 33.25 102.851 33.6 103.951 34.3C105.051 35 105.918 36.025 106.551 37.375C107.201 38.7083 107.526 40.3333 107.526 42.25C107.526 44.1667 107.201 45.8 106.551 47.15C105.918 48.4833 105.051 49.5 103.951 50.2C102.851 50.9 101.601 51.25 100.201 51.25ZM100.201 48.425C101.018 48.425 101.726 48.2083 102.326 47.775C102.926 47.325 103.393 46.6417 103.726 45.725C104.076 44.8083 104.251 43.65 104.251 42.25C104.251 40.8333 104.076 39.675 103.726 38.775C103.393 37.8583 102.926 37.1833 102.326 36.75C101.726 36.3 101.018 36.075 100.201 36.075C99.4179 36.075 98.7179 36.3 98.1013 36.75C97.5013 37.1833 97.0263 37.8583 96.6763 38.775C96.3429 39.675 96.1763 40.8333 96.1763 42.25C96.1763 43.65 96.3429 44.8083 96.6763 45.725C97.0263 46.6417 97.5013 47.325 98.1013 47.775C98.7179 48.2083 99.4179 48.425 100.201 48.425ZM117.023 51.25C115.639 51.25 114.389 50.9 113.273 50.2C112.173 49.5 111.306 48.4833 110.673 47.15C110.039 45.8 109.723 44.1667 109.723 42.25C109.723 40.3333 110.039 38.7083 110.673 37.375C111.306 36.025 112.173 35 113.273 34.3C114.389 33.6 115.639 33.25 117.023 33.25C118.423 33.25 119.673 33.6 120.773 34.3C121.873 35 122.739 36.025 123.373 37.375C124.023 38.7083 124.348 40.3333 124.348 42.25C124.348 44.1667 124.023 45.8 123.373 47.15C122.739 48.4833 121.873 49.5 120.773 50.2C119.673 50.9 118.423 51.25 117.023 51.25ZM117.023 48.425C117.839 48.425 118.548 48.2083 119.148 47.775C119.748 47.325 120.214 46.6417 120.548 45.725C120.898 44.8083 121.073 43.65 121.073 42.25C121.073 40.8333 120.898 39.675 120.548 38.775C120.214 37.8583 119.748 37.1833 119.148 36.75C118.548 36.3 117.839 36.075 117.023 36.075C116.239 36.075 115.539 36.3 114.923 36.75C114.323 37.1833 113.848 37.8583 113.498 38.775C113.164 39.675 112.998 40.8333 112.998 42.25C112.998 43.65 113.164 44.8083 113.498 45.725C113.848 46.6417 114.323 47.325 114.923 47.775C115.539 48.2083 116.239 48.425 117.023 48.425ZM135.603 51V33.5H142.803C145.103 33.5 146.911 34 148.228 35C149.561 35.9833 150.228 37.4417 150.228 39.375C150.228 41.2917 149.561 42.75 148.228 43.75C146.911 44.7333 145.103 45.225 142.803 45.225H137.403L138.853 43.725V51H135.603ZM138.853 44.075L137.403 42.6H142.778C144.111 42.6 145.136 42.325 145.853 41.775C146.586 41.2083 146.953 40.4167 146.953 39.4C146.953 38.3833 146.586 37.6083 145.853 37.075C145.136 36.525 144.111 36.25 142.778 36.25H137.403L138.853 34.65V44.075ZM133.103 48.4V46.65H144.353V48.4H133.103ZM160.405 51V37.65H166.93C168.547 37.65 169.814 37.95 170.73 38.55C171.664 39.15 172.13 40 172.13 41.1C172.13 42.1833 171.697 43.0333 170.83 43.65C169.964 44.25 168.814 44.55 167.38 44.55L167.755 43.775C169.372 43.775 170.572 44.075 171.355 44.675C172.155 45.2583 172.555 46.1167 172.555 47.25C172.555 48.4333 172.114 49.3583 171.23 50.025C170.347 50.675 169.005 51 167.205 51H160.405ZM163.38 48.725H166.955C167.805 48.725 168.447 48.5917 168.88 48.325C169.314 48.0417 169.53 47.6167 169.53 47.05C169.53 46.45 169.33 46.0083 168.93 45.725C168.53 45.4417 167.905 45.3 167.055 45.3H163.38V48.725ZM163.38 43.225H166.655C167.455 43.225 168.055 43.0833 168.455 42.8C168.872 42.5 169.08 42.0833 169.08 41.55C169.08 41 168.872 40.5917 168.455 40.325C168.055 40.0583 167.455 39.925 166.655 39.925H163.38V43.225ZM182.793 51V37.65H186.068L191.443 47.125H190.143L195.793 37.65H198.718L198.743 51H195.918V41L196.418 41.325L191.418 49.6H190.068L185.043 41.1L185.643 40.95V51H182.793ZM209.159 51.175C207.676 51.175 206.376 50.8833 205.259 50.3C204.159 49.7 203.301 48.8833 202.684 47.85C202.084 46.8167 201.784 45.6417 201.784 44.325C201.784 42.9917 202.076 41.8167 202.659 40.8C203.259 39.7667 204.076 38.9583 205.109 38.375C206.159 37.7917 207.351 37.5 208.684 37.5C209.984 37.5 211.143 37.7833 212.159 38.35C213.176 38.9167 213.976 39.7167 214.559 40.75C215.143 41.7833 215.434 43 215.434 44.4C215.434 44.5333 215.426 44.6833 215.409 44.85C215.409 45.0167 215.401 45.175 215.384 45.325H204.259V43.25H213.734L212.509 43.9C212.526 43.1333 212.368 42.4583 212.034 41.875C211.701 41.2917 211.243 40.8333 210.659 40.5C210.093 40.1667 209.434 40 208.684 40C207.918 40 207.243 40.1667 206.659 40.5C206.093 40.8333 205.643 41.3 205.309 41.9C204.993 42.4833 204.834 43.175 204.834 43.975V44.475C204.834 45.275 205.018 45.9833 205.384 46.6C205.751 47.2167 206.268 47.6917 206.934 48.025C207.601 48.3583 208.368 48.525 209.234 48.525C209.984 48.525 210.659 48.4083 211.259 48.175C211.859 47.9417 212.393 47.575 212.859 47.075L214.534 49C213.934 49.7 213.176 50.2417 212.259 50.625C211.359 50.9917 210.326 51.175 209.159 51.175ZM224.927 51.175C223.527 51.175 222.277 50.8833 221.177 50.3C220.094 49.7 219.244 48.8833 218.627 47.85C218.011 46.8167 217.702 45.6417 217.702 44.325C217.702 42.9917 218.011 41.8167 218.627 40.8C219.244 39.7667 220.094 38.9583 221.177 38.375C222.277 37.7917 223.527 37.5 224.927 37.5C226.227 37.5 227.369 37.7667 228.352 38.3C229.352 38.8167 230.111 39.5833 230.627 40.6L228.227 42C227.827 41.3667 227.336 40.9 226.752 40.6C226.186 40.3 225.569 40.15 224.902 40.15C224.136 40.15 223.444 40.3167 222.827 40.65C222.211 40.9833 221.727 41.4667 221.377 42.1C221.027 42.7167 220.852 43.4583 220.852 44.325C220.852 45.1917 221.027 45.9417 221.377 46.575C221.727 47.1917 222.211 47.6667 222.827 48C223.444 48.3333 224.136 48.5 224.902 48.5C225.569 48.5 226.186 48.35 226.752 48.05C227.336 47.75 227.827 47.2833 228.227 46.65L230.627 48.05C230.111 49.05 229.352 49.825 228.352 50.375C227.369 50.9083 226.227 51.175 224.927 51.175ZM241.488 51V46.45L241.938 46.975H237.938C236.104 46.975 234.663 46.5917 233.613 45.825C232.579 45.0417 232.063 43.9167 232.063 42.45C232.063 40.8833 232.613 39.6917 233.713 38.875C234.829 38.0583 236.313 37.65 238.163 37.65H244.288V51H241.488ZM231.888 51L235.488 45.9H238.688L235.238 51H231.888ZM241.488 45.45V39.45L241.938 40.275H238.263C237.296 40.275 236.546 40.4583 236.013 40.825C235.496 41.175 235.238 41.75 235.238 42.55C235.238 44.05 236.213 44.8 238.163 44.8H241.938L241.488 45.45ZM248.491 51V37.65H251.616V48.35H257.991V37.65H261.116V51H248.491ZM260.216 53.975V50.925L260.941 51H257.991V48.35H263.141V53.975H260.216Z" fill="black"/>
<path d="M290.5 42.5C290.5 48.1194 286.598 53.579 279.282 58.6315C271.981 63.6734 261.384 68.234 248.244 72.0721C221.971 79.7464 185.645 84.5 145.5 84.5C105.355 84.5 69.0294 79.7464 42.7562 72.0721C29.6162 68.234 19.0191 63.6734 11.7182 58.6315C4.40206 53.579 0.5 48.1194 0.5 42.5C0.5 36.8806 4.40206 31.421 11.7182 26.3685C19.0191 21.3266 29.6162 16.766 42.7562 12.9279C69.0294 5.2536 105.355 0.5 145.5 0.5C185.645 0.5 221.971 5.2536 248.244 12.9279C261.384 16.766 271.981 21.3266 279.282 26.3685C286.598 31.421 290.5 36.8806 290.5 42.5Z" stroke="black"/>
</svg>
