<svg width="671" height="176" viewBox="0 0 671 176" fill="none" xmlns="http://www.w3.org/2000/svg">
<path d="M389.51 49.6195C225.671 43.4751 -125.342 145.734 364.303 163.862C823.885 180.877 714.972 17.7597 365.038 68.8499" stroke="black"/>
<path d="M211.44 103.16C210.373 103.16 209.387 102.987 208.48 102.64C207.587 102.28 206.807 101.78 206.14 101.14C205.487 100.487 204.973 99.7267 204.6 98.86C204.227 97.9933 204.04 97.04 204.04 96C204.04 94.96 204.227 94.0067 204.6 93.14C204.973 92.2733 205.493 91.52 206.16 90.88C206.827 90.2267 207.607 89.7267 208.5 89.38C209.407 89.02 210.393 88.84 211.46 88.84C212.54 88.84 213.533 89.0267 214.44 89.4C215.36 89.76 216.14 90.3 216.78 91.02L215.48 92.28C214.947 91.72 214.347 91.3067 213.68 91.04C213.013 90.76 212.3 90.62 211.54 90.62C210.753 90.62 210.02 90.7533 209.34 91.02C208.673 91.2867 208.093 91.66 207.6 92.14C207.107 92.62 206.72 93.1933 206.44 93.86C206.173 94.5133 206.04 95.2267 206.04 96C206.04 96.7733 206.173 97.4933 206.44 98.16C206.72 98.8133 207.107 99.38 207.6 99.86C208.093 100.34 208.673 100.713 209.34 100.98C210.02 101.247 210.753 101.38 211.54 101.38C212.3 101.38 213.013 101.247 213.68 100.98C214.347 100.7 214.947 100.273 215.48 99.7L216.78 100.96C216.14 101.68 215.36 102.227 214.44 102.6C213.533 102.973 212.533 103.16 211.44 103.16ZM225.086 103.16C225.073 103.16 225.026 103.16 224.946 103.16C224.88 103.16 224.813 103.16 224.746 103.16C224.68 103.16 224.64 103.16 224.626 103.16C222.453 103.133 220.766 102.653 219.566 101.72C218.366 100.773 217.766 99.4267 217.766 97.68C217.766 95.9467 218.366 94.62 219.566 93.7C220.78 92.7667 222.486 92.2933 224.686 92.28C224.713 92.28 224.753 92.28 224.806 92.28C224.873 92.28 224.933 92.28 224.986 92.28C225.053 92.28 225.093 92.28 225.106 92.28C227.333 92.28 229.06 92.7467 230.286 93.68C231.526 94.6133 232.146 95.9467 232.146 97.68C232.146 99.44 231.526 100.793 230.286 101.74C229.046 102.687 227.313 103.16 225.086 103.16ZM225.046 101.48C226.206 101.48 227.166 101.333 227.926 101.04C228.7 100.747 229.28 100.32 229.666 99.76C230.053 99.2 230.246 98.5067 230.246 97.68C230.246 96.8667 230.053 96.1867 229.666 95.64C229.28 95.0933 228.7 94.68 227.926 94.4C227.166 94.12 226.206 93.98 225.046 93.98C225.02 93.98 224.966 93.98 224.886 93.98C224.806 93.98 224.76 93.98 224.746 93.98C223.613 93.98 222.666 94.1267 221.906 94.42C221.16 94.7 220.6 95.1133 220.226 95.66C219.853 96.2067 219.666 96.88 219.666 97.68C219.666 98.4933 219.853 99.18 220.226 99.74C220.613 100.3 221.18 100.727 221.926 101.02C222.686 101.313 223.626 101.467 224.746 101.48C224.773 101.48 224.82 101.48 224.886 101.48C224.966 101.48 225.02 101.48 225.046 101.48ZM224.006 106.88V88.16H225.886V106.88H224.006ZM239.4 103.12C238.333 103.12 237.387 102.887 236.56 102.42C235.733 101.953 235.08 101.313 234.6 100.5C234.12 99.6733 233.88 98.74 233.88 97.7C233.88 96.6467 234.12 95.7133 234.6 94.9C235.08 94.0867 235.733 93.4533 236.56 93C237.387 92.5333 238.333 92.3 239.4 92.3C240.453 92.3 241.393 92.5333 242.22 93C243.06 93.4533 243.713 94.0867 244.18 94.9C244.66 95.7 244.9 96.6333 244.9 97.7C244.9 98.7533 244.66 99.6867 244.18 100.5C243.713 101.313 243.06 101.953 242.22 102.42C241.393 102.887 240.453 103.12 239.4 103.12ZM239.4 101.44C240.08 101.44 240.687 101.287 241.22 100.98C241.767 100.673 242.193 100.24 242.5 99.68C242.807 99.1067 242.96 98.4467 242.96 97.7C242.96 96.94 242.807 96.2867 242.5 95.74C242.193 95.18 241.767 94.7467 241.22 94.44C240.687 94.1333 240.08 93.98 239.4 93.98C238.72 93.98 238.113 94.1333 237.58 94.44C237.047 94.7467 236.62 95.18 236.3 95.74C235.98 96.2867 235.82 96.94 235.82 97.7C235.82 98.4467 235.98 99.1067 236.3 99.68C236.62 100.24 237.047 100.673 237.58 100.98C238.113 101.287 238.72 101.44 239.4 101.44ZM253.293 103.12C252.413 103.12 251.606 102.92 250.873 102.52C250.153 102.107 249.573 101.5 249.133 100.7C248.706 99.9 248.493 98.9 248.493 97.7C248.493 96.5 248.699 95.5 249.113 94.7C249.539 93.9 250.113 93.3 250.833 92.9C251.566 92.5 252.386 92.3 253.293 92.3C254.333 92.3 255.253 92.5267 256.053 92.98C256.853 93.4333 257.486 94.0667 257.953 94.88C258.419 95.68 258.653 96.62 258.653 97.7C258.653 98.78 258.419 99.7267 257.953 100.54C257.486 101.353 256.853 101.987 256.053 102.44C255.253 102.893 254.333 103.12 253.293 103.12ZM247.673 106.88V92.4H249.513V95.26L249.393 97.72L249.593 100.18V106.88H247.673ZM253.133 101.44C253.813 101.44 254.419 101.287 254.953 100.98C255.499 100.673 255.926 100.24 256.233 99.68C256.553 99.1067 256.713 98.4467 256.713 97.7C256.713 96.94 256.553 96.2867 256.233 95.74C255.926 95.18 255.499 94.7467 254.953 94.44C254.419 94.1333 253.813 93.98 253.133 93.98C252.466 93.98 251.859 94.1333 251.313 94.44C250.779 94.7467 250.353 95.18 250.033 95.74C249.726 96.2867 249.573 96.94 249.573 97.7C249.573 98.4467 249.726 99.1067 250.033 99.68C250.353 100.24 250.779 100.673 251.313 100.98C251.859 101.287 252.466 101.44 253.133 101.44ZM261.442 103V92.4H263.422L267.982 100.24H267.182L271.862 92.4H273.662V103H271.922V94.56L272.242 94.74L267.962 101.8H267.122L262.822 94.6L263.202 94.52V103H261.442ZM277.399 103V92.4H279.319V100.12L285.819 92.4H287.559V103H285.639V95.28L279.159 103H277.399ZM296.906 103.12C296.026 103.12 295.219 102.92 294.486 102.52C293.766 102.107 293.186 101.5 292.746 100.7C292.319 99.9 292.106 98.9 292.106 97.7C292.106 96.5 292.312 95.5 292.726 94.7C293.152 93.9 293.726 93.3 294.446 92.9C295.179 92.5 295.999 92.3 296.906 92.3C297.946 92.3 298.866 92.5267 299.666 92.98C300.466 93.4333 301.099 94.0667 301.566 94.88C302.032 95.68 302.266 96.62 302.266 97.7C302.266 98.78 302.032 99.7267 301.566 100.54C301.099 101.353 300.466 101.987 299.666 102.44C298.866 102.893 297.946 103.12 296.906 103.12ZM291.286 106.88V92.4H293.126V95.26L293.006 97.72L293.206 100.18V106.88H291.286ZM296.746 101.44C297.426 101.44 298.032 101.287 298.566 100.98C299.112 100.673 299.539 100.24 299.846 99.68C300.166 99.1067 300.326 98.4467 300.326 97.7C300.326 96.94 300.166 96.2867 299.846 95.74C299.539 95.18 299.112 94.7467 298.566 94.44C298.032 94.1333 297.426 93.98 296.746 93.98C296.079 93.98 295.472 94.1333 294.926 94.44C294.392 94.7467 293.966 95.18 293.646 95.74C293.339 96.2867 293.186 96.94 293.186 97.7C293.186 98.4467 293.339 99.1067 293.646 99.68C293.966 100.24 294.392 100.673 294.926 100.98C295.472 101.287 296.079 101.44 296.746 101.44ZM309.595 103.12C308.529 103.12 307.582 102.887 306.755 102.42C305.929 101.953 305.275 101.313 304.795 100.5C304.315 99.6733 304.075 98.74 304.075 97.7C304.075 96.6467 304.315 95.7133 304.795 94.9C305.275 94.0867 305.929 93.4533 306.755 93C307.582 92.5333 308.529 92.3 309.595 92.3C310.649 92.3 311.589 92.5333 312.415 93C313.255 93.4533 313.909 94.0867 314.375 94.9C314.855 95.7 315.095 96.6333 315.095 97.7C315.095 98.7533 314.855 99.6867 314.375 100.5C313.909 101.313 313.255 101.953 312.415 102.42C311.589 102.887 310.649 103.12 309.595 103.12ZM309.595 101.44C310.275 101.44 310.882 101.287 311.415 100.98C311.962 100.673 312.389 100.24 312.695 99.68C313.002 99.1067 313.155 98.4467 313.155 97.7C313.155 96.94 313.002 96.2867 312.695 95.74C312.389 95.18 311.962 94.7467 311.415 94.44C310.882 94.1333 310.275 93.98 309.595 93.98C308.915 93.98 308.309 94.1333 307.775 94.44C307.242 94.7467 306.815 95.18 306.495 95.74C306.175 96.2867 306.015 96.94 306.015 97.7C306.015 98.4467 306.175 99.1067 306.495 99.68C306.815 100.24 307.242 100.673 307.775 100.98C308.309 101.287 308.915 101.44 309.595 101.44ZM317.868 103V92.4H322.788C324.028 92.4 325.001 92.64 325.708 93.12C326.428 93.5867 326.788 94.2533 326.788 95.12C326.788 95.9867 326.448 96.66 325.768 97.14C325.101 97.6067 324.214 97.84 323.108 97.84L323.408 97.32C324.674 97.32 325.614 97.5533 326.228 98.02C326.841 98.4867 327.148 99.1733 327.148 100.08C327.148 101 326.801 101.72 326.108 102.24C325.428 102.747 324.381 103 322.968 103H317.868ZM319.748 101.52H322.828C323.628 101.52 324.228 101.4 324.628 101.16C325.028 100.907 325.228 100.507 325.228 99.96C325.228 99.4 325.041 98.9933 324.668 98.74C324.308 98.4733 323.734 98.34 322.948 98.34H319.748V101.52ZM319.748 96.96H322.628C323.361 96.96 323.914 96.8267 324.288 96.56C324.674 96.28 324.868 95.8933 324.868 95.4C324.868 94.8933 324.674 94.5133 324.288 94.26C323.914 94.0067 323.361 93.88 322.628 93.88H319.748V96.96ZM336.653 103V100.76L336.553 100.34V96.52C336.553 95.7067 336.313 95.08 335.833 94.64C335.366 94.1867 334.66 93.96 333.713 93.96C333.086 93.96 332.473 94.0667 331.873 94.28C331.273 94.48 330.766 94.7533 330.353 95.1L329.553 93.66C330.1 93.22 330.753 92.8867 331.513 92.66C332.286 92.42 333.093 92.3 333.933 92.3C335.386 92.3 336.506 92.6533 337.293 93.36C338.08 94.0667 338.473 95.1467 338.473 96.6V103H336.653ZM333.173 103.12C332.386 103.12 331.693 102.987 331.093 102.72C330.506 102.453 330.053 102.087 329.733 101.62C329.413 101.14 329.253 100.6 329.253 100C329.253 99.4267 329.386 98.9067 329.653 98.44C329.933 97.9733 330.38 97.6 330.993 97.32C331.62 97.04 332.46 96.9 333.513 96.9H336.873V98.28H333.593C332.633 98.28 331.986 98.44 331.653 98.76C331.32 99.08 331.153 99.4667 331.153 99.92C331.153 100.44 331.36 100.86 331.773 101.18C332.186 101.487 332.76 101.64 333.493 101.64C334.213 101.64 334.84 101.48 335.373 101.16C335.92 100.84 336.313 100.373 336.553 99.76L336.933 101.08C336.68 101.707 336.233 102.207 335.593 102.58C334.953 102.94 334.146 103.12 333.173 103.12ZM341.93 103V92.4H343.85V96.9H349.89V92.4H351.81V103H349.89V98.56H343.85V103H341.93ZM355.544 103V92.4H357.464V96.9H363.504V92.4H365.424V103H363.504V98.56H357.464V103H355.544ZM369.697 107C369.19 107 368.697 106.913 368.217 106.74C367.737 106.58 367.324 106.34 366.977 106.02L367.797 104.58C368.064 104.833 368.357 105.027 368.677 105.16C368.997 105.293 369.337 105.36 369.697 105.36C370.164 105.36 370.55 105.24 370.857 105C371.164 104.76 371.45 104.333 371.717 103.72L372.377 102.26L372.577 102.02L376.737 92.4H378.617L373.477 104.06C373.17 104.807 372.824 105.393 372.437 105.82C372.064 106.247 371.65 106.547 371.197 106.72C370.744 106.907 370.244 107 369.697 107ZM372.217 103.34L367.377 92.4H369.377L373.497 101.84L372.217 103.34ZM380.583 103V92.4H382.503V96.74H385.703V98.52H382.503V103H380.583ZM389.963 103.12C388.923 103.12 387.996 102.887 387.183 102.42C386.383 101.953 385.749 101.313 385.283 100.5C384.816 99.6733 384.583 98.74 384.583 97.7C384.583 96.6467 384.816 95.7133 385.283 94.9C385.749 94.0733 386.383 93.4333 387.183 92.98C387.996 92.5267 388.923 92.3 389.963 92.3C390.989 92.3 391.909 92.5267 392.723 92.98C393.536 93.4333 394.176 94.0733 394.643 94.9C395.109 95.7133 395.343 96.6467 395.343 97.7C395.343 98.7533 395.109 99.6867 394.643 100.5C394.176 101.313 393.536 101.953 392.723 102.42C391.909 102.887 390.989 103.12 389.963 103.12ZM389.963 101.44C390.629 101.44 391.223 101.287 391.743 100.98C392.263 100.66 392.676 100.227 392.983 99.68C393.289 99.12 393.443 98.46 393.443 97.7C393.443 96.94 393.289 96.2867 392.983 95.74C392.676 95.18 392.263 94.7467 391.743 94.44C391.223 94.1333 390.629 93.98 389.963 93.98C389.309 93.98 388.716 94.1333 388.183 94.44C387.663 94.7467 387.249 95.18 386.943 95.74C386.636 96.2867 386.483 96.94 386.483 97.7C386.483 98.46 386.636 99.12 386.943 99.68C387.249 100.227 387.663 100.66 388.183 100.98C388.716 101.287 389.309 101.44 389.963 101.44ZM403.473 103V92.4H405.393V100.12L411.893 92.4H413.633V103H411.713V95.28L405.233 103H403.473ZM428.351 103.12C427.471 103.12 426.664 102.92 425.931 102.52C425.211 102.107 424.631 101.5 424.191 100.7C423.764 99.9 423.551 98.9 423.551 97.7C423.551 96.5 423.758 95.5 424.171 94.7C424.598 93.9 425.171 93.3 425.891 92.9C426.624 92.5 427.444 92.3 428.351 92.3C429.391 92.3 430.311 92.5267 431.111 92.98C431.911 93.4333 432.544 94.0667 433.011 94.88C433.478 95.68 433.711 96.62 433.711 97.7C433.711 98.78 433.478 99.7267 433.011 100.54C432.544 101.353 431.911 101.987 431.111 102.44C430.311 102.893 429.391 103.12 428.351 103.12ZM422.731 106.88V92.4H424.571V95.26L424.451 97.72L424.651 100.18V106.88H422.731ZM428.191 101.44C428.871 101.44 429.478 101.287 430.011 100.98C430.558 100.673 430.984 100.24 431.291 99.68C431.611 99.1067 431.771 98.4467 431.771 97.7C431.771 96.94 431.611 96.2867 431.291 95.74C430.984 95.18 430.558 94.7467 430.011 94.44C429.478 94.1333 428.871 93.98 428.191 93.98C427.524 93.98 426.918 94.1333 426.371 94.44C425.838 94.7467 425.411 95.18 425.091 95.74C424.784 96.2867 424.631 96.94 424.631 97.7C424.631 98.4467 424.784 99.1067 425.091 99.68C425.411 100.24 425.838 100.673 426.371 100.98C426.918 101.287 427.524 101.44 428.191 101.44ZM441.221 103.12C440.087 103.12 439.087 102.887 438.221 102.42C437.367 101.953 436.701 101.313 436.221 100.5C435.754 99.6867 435.521 98.7533 435.521 97.7C435.521 96.6467 435.747 95.7133 436.201 94.9C436.667 94.0867 437.301 93.4533 438.101 93C438.914 92.5333 439.827 92.3 440.841 92.3C441.867 92.3 442.774 92.5267 443.561 92.98C444.347 93.4333 444.961 94.0733 445.401 94.9C445.854 95.7133 446.081 96.6667 446.081 97.76C446.081 97.84 446.074 97.9333 446.061 98.04C446.061 98.1467 446.054 98.2467 446.041 98.34H437.021V96.96H445.041L444.261 97.44C444.274 96.76 444.134 96.1533 443.841 95.62C443.547 95.0867 443.141 94.6733 442.621 94.38C442.114 94.0733 441.521 93.92 440.841 93.92C440.174 93.92 439.581 94.0733 439.061 94.38C438.541 94.6733 438.134 95.0933 437.841 95.64C437.547 96.1733 437.401 96.7867 437.401 97.48V97.8C437.401 98.5067 437.561 99.14 437.881 99.7C438.214 100.247 438.674 100.673 439.261 100.98C439.847 101.287 440.521 101.44 441.281 101.44C441.907 101.44 442.474 101.333 442.981 101.12C443.501 100.907 443.954 100.587 444.341 100.16L445.401 101.4C444.921 101.96 444.321 102.387 443.601 102.68C442.894 102.973 442.101 103.12 441.221 103.12ZM455.266 103V100.76L455.166 100.34V96.52C455.166 95.7067 454.926 95.08 454.446 94.64C453.98 94.1867 453.273 93.96 452.326 93.96C451.7 93.96 451.086 94.0667 450.486 94.28C449.886 94.48 449.38 94.7533 448.966 95.1L448.166 93.66C448.713 93.22 449.366 92.8867 450.126 92.66C450.9 92.42 451.706 92.3 452.546 92.3C454 92.3 455.12 92.6533 455.906 93.36C456.693 94.0667 457.086 95.1467 457.086 96.6V103H455.266ZM451.786 103.12C451 103.12 450.306 102.987 449.706 102.72C449.12 102.453 448.666 102.087 448.346 101.62C448.026 101.14 447.866 100.6 447.866 100C447.866 99.4267 448 98.9067 448.266 98.44C448.546 97.9733 448.993 97.6 449.606 97.32C450.233 97.04 451.073 96.9 452.126 96.9H455.486V98.28H452.206C451.246 98.28 450.6 98.44 450.266 98.76C449.933 99.08 449.766 99.4667 449.766 99.92C449.766 100.44 449.973 100.86 450.386 101.18C450.8 101.487 451.373 101.64 452.106 101.64C452.826 101.64 453.453 101.48 453.986 101.16C454.533 100.84 454.926 100.373 455.166 99.76L455.546 101.08C455.293 101.707 454.846 102.207 454.206 102.58C453.566 102.94 452.76 103.12 451.786 103.12ZM458.784 102.98L458.904 101.36C458.997 101.373 459.084 101.387 459.164 101.4C459.244 101.413 459.317 101.42 459.384 101.42C459.81 101.42 460.144 101.273 460.384 100.98C460.637 100.687 460.824 100.3 460.944 99.82C461.064 99.3267 461.15 98.7733 461.204 98.16C461.257 97.5467 461.297 96.9333 461.324 96.32L461.504 92.4H469.644V103H467.724V93.52L468.184 94.08H462.744L463.184 93.5L463.044 96.44C463.004 97.3733 462.93 98.2467 462.824 99.06C462.717 99.8733 462.55 100.587 462.324 101.2C462.11 101.813 461.81 102.293 461.424 102.64C461.05 102.987 460.564 103.16 459.964 103.16C459.79 103.16 459.604 103.14 459.404 103.1C459.217 103.073 459.01 103.033 458.784 102.98ZM473.356 103V92.4H475.276V100.12L481.776 92.4H483.516V103H481.596V95.28L475.116 103H473.356ZM490.167 103.14C489.367 103.14 488.58 103.04 487.807 102.84C487.047 102.627 486.367 102.327 485.767 101.94L486.347 100.48C486.854 100.8 487.434 101.053 488.087 101.24C488.74 101.413 489.4 101.5 490.067 101.5C490.68 101.5 491.207 101.427 491.647 101.28C492.1 101.133 492.447 100.933 492.687 100.68C492.927 100.413 493.047 100.107 493.047 99.76C493.047 99.2667 492.827 98.8867 492.387 98.62C491.947 98.3533 491.334 98.22 490.547 98.22H488.627V96.84H490.427C490.894 96.84 491.3 96.7867 491.647 96.68C491.994 96.5733 492.26 96.4133 492.447 96.2C492.647 95.9733 492.747 95.7133 492.747 95.42C492.747 95.1 492.634 94.8267 492.407 94.6C492.18 94.3733 491.86 94.2 491.447 94.08C491.047 93.96 490.574 93.9 490.027 93.9C489.494 93.9133 488.947 93.9867 488.387 94.12C487.84 94.2533 487.28 94.46 486.707 94.74L486.187 93.24C486.827 92.9333 487.454 92.7 488.067 92.54C488.694 92.3667 489.314 92.2733 489.927 92.26C490.847 92.2333 491.667 92.34 492.387 92.58C493.107 92.8067 493.674 93.14 494.087 93.58C494.514 94.02 494.727 94.54 494.727 95.14C494.727 95.6467 494.567 96.1 494.247 96.5C493.927 96.8867 493.5 97.1933 492.967 97.42C492.434 97.6467 491.82 97.76 491.127 97.76L491.207 97.3C492.394 97.3 493.327 97.5333 494.007 98C494.687 98.4667 495.027 99.1 495.027 99.9C495.027 100.54 494.814 101.107 494.387 101.6C493.96 102.08 493.38 102.46 492.647 102.74C491.927 103.007 491.1 103.14 490.167 103.14ZM502.486 103.12C501.419 103.12 500.473 102.887 499.646 102.42C498.819 101.953 498.166 101.313 497.686 100.5C497.206 99.6733 496.966 98.74 496.966 97.7C496.966 96.6467 497.206 95.7133 497.686 94.9C498.166 94.0867 498.819 93.4533 499.646 93C500.473 92.5333 501.419 92.3 502.486 92.3C503.539 92.3 504.479 92.5333 505.306 93C506.146 93.4533 506.799 94.0867 507.266 94.9C507.746 95.7 507.986 96.6333 507.986 97.7C507.986 98.7533 507.746 99.6867 507.266 100.5C506.799 101.313 506.146 101.953 505.306 102.42C504.479 102.887 503.539 103.12 502.486 103.12ZM502.486 101.44C503.166 101.44 503.773 101.287 504.306 100.98C504.853 100.673 505.279 100.24 505.586 99.68C505.893 99.1067 506.046 98.4467 506.046 97.7C506.046 96.94 505.893 96.2867 505.586 95.74C505.279 95.18 504.853 94.7467 504.306 94.44C503.773 94.1333 503.166 93.98 502.486 93.98C501.806 93.98 501.199 94.1333 500.666 94.44C500.133 94.7467 499.706 95.18 499.386 95.74C499.066 96.2867 498.906 96.94 498.906 97.7C498.906 98.4467 499.066 99.1067 499.386 99.68C499.706 100.24 500.133 100.673 500.666 100.98C501.199 101.287 501.806 101.44 502.486 101.44ZM510.758 103V92.4H515.678C516.918 92.4 517.892 92.64 518.598 93.12C519.318 93.5867 519.678 94.2533 519.678 95.12C519.678 95.9867 519.338 96.66 518.658 97.14C517.992 97.6067 517.105 97.84 515.998 97.84L516.298 97.32C517.565 97.32 518.505 97.5533 519.118 98.02C519.732 98.4867 520.038 99.1733 520.038 100.08C520.038 101 519.692 101.72 518.998 102.24C518.318 102.747 517.272 103 515.858 103H510.758ZM512.638 101.52H515.718C516.518 101.52 517.118 101.4 517.518 101.16C517.918 100.907 518.118 100.507 518.118 99.96C518.118 99.4 517.932 98.9933 517.558 98.74C517.198 98.4733 516.625 98.34 515.838 98.34H512.638V101.52ZM512.638 96.96H515.518C516.252 96.96 516.805 96.8267 517.178 96.56C517.565 96.28 517.758 95.8933 517.758 95.4C517.758 94.8933 517.565 94.5133 517.178 94.26C516.805 94.0067 516.252 93.88 515.518 93.88H512.638V96.96ZM529.544 103V100.76L529.444 100.34V96.52C529.444 95.7067 529.204 95.08 528.724 94.64C528.257 94.1867 527.55 93.96 526.604 93.96C525.977 93.96 525.364 94.0667 524.764 94.28C524.164 94.48 523.657 94.7533 523.244 95.1L522.444 93.66C522.99 93.22 523.644 92.8867 524.404 92.66C525.177 92.42 525.984 92.3 526.824 92.3C528.277 92.3 529.397 92.6533 530.184 93.36C530.97 94.0667 531.364 95.1467 531.364 96.6V103H529.544ZM526.064 103.12C525.277 103.12 524.584 102.987 523.984 102.72C523.397 102.453 522.944 102.087 522.624 101.62C522.304 101.14 522.144 100.6 522.144 100C522.144 99.4267 522.277 98.9067 522.544 98.44C522.824 97.9733 523.27 97.6 523.884 97.32C524.51 97.04 525.35 96.9 526.404 96.9H529.764V98.28H526.484C525.524 98.28 524.877 98.44 524.544 98.76C524.21 99.08 524.044 99.4667 524.044 99.92C524.044 100.44 524.25 100.86 524.664 101.18C525.077 101.487 525.65 101.64 526.384 101.64C527.104 101.64 527.73 101.48 528.264 101.16C528.81 100.84 529.204 100.373 529.444 99.76L529.824 101.08C529.57 101.707 529.124 102.207 528.484 102.58C527.844 102.94 527.037 103.12 526.064 103.12ZM534.821 103V92.4H536.741V96.9H542.781V92.4H544.701V103H542.781V98.56H536.741V103H534.821ZM548.434 103V92.4H550.354V96.9H556.394V92.4H558.314V103H556.394V98.56H550.354V103H548.434ZM562.588 107C562.081 107 561.588 106.913 561.108 106.74C560.628 106.58 560.214 106.34 559.867 106.02L560.688 104.58C560.954 104.833 561.248 105.027 561.568 105.16C561.888 105.293 562.228 105.36 562.588 105.36C563.054 105.36 563.441 105.24 563.748 105C564.054 104.76 564.341 104.333 564.608 103.72L565.268 102.26L565.467 102.02L569.628 92.4H571.508L566.368 104.06C566.061 104.807 565.714 105.393 565.327 105.82C564.954 106.247 564.541 106.547 564.088 106.72C563.634 106.907 563.134 107 562.588 107ZM565.108 103.34L560.268 92.4H562.268L566.388 101.84L565.108 103.34ZM573.473 103V92.4H575.393V96.74H578.593V98.52H575.393V103H573.473ZM582.853 103.12C581.813 103.12 580.887 102.887 580.073 102.42C579.273 101.953 578.64 101.313 578.173 100.5C577.707 99.6733 577.473 98.74 577.473 97.7C577.473 96.6467 577.707 95.7133 578.173 94.9C578.64 94.0733 579.273 93.4333 580.073 92.98C580.887 92.5267 581.813 92.3 582.853 92.3C583.88 92.3 584.8 92.5267 585.613 92.98C586.427 93.4333 587.067 94.0733 587.533 94.9C588 95.7133 588.233 96.6467 588.233 97.7C588.233 98.7533 588 99.6867 587.533 100.5C587.067 101.313 586.427 101.953 585.613 102.42C584.8 102.887 583.88 103.12 582.853 103.12ZM582.853 101.44C583.52 101.44 584.113 101.287 584.633 100.98C585.153 100.66 585.567 100.227 585.873 99.68C586.18 99.12 586.333 98.46 586.333 97.7C586.333 96.94 586.18 96.2867 585.873 95.74C585.567 95.18 585.153 94.7467 584.633 94.44C584.113 94.1333 583.52 93.98 582.853 93.98C582.2 93.98 581.607 94.1333 581.073 94.44C580.553 94.7467 580.14 95.18 579.833 95.74C579.527 96.2867 579.373 96.94 579.373 97.7C579.373 98.46 579.527 99.12 579.833 99.68C580.14 100.227 580.553 100.66 581.073 100.98C581.607 101.287 582.2 101.44 582.853 101.44ZM204.86 127V116.4H206.84L211.4 124.24H210.6L215.28 116.4H217.08V127H215.34V118.56L215.66 118.74L211.38 125.8H210.54L206.24 118.6L206.62 118.52V127H204.86ZM227.317 127V124.76L227.217 124.34V120.52C227.217 119.707 226.977 119.08 226.497 118.64C226.03 118.187 225.324 117.96 224.377 117.96C223.75 117.96 223.137 118.067 222.537 118.28C221.937 118.48 221.43 118.753 221.017 119.1L220.217 117.66C220.764 117.22 221.417 116.887 222.177 116.66C222.95 116.42 223.757 116.3 224.597 116.3C226.05 116.3 227.17 116.653 227.957 117.36C228.744 118.067 229.137 119.147 229.137 120.6V127H227.317ZM223.837 127.12C223.05 127.12 222.357 126.987 221.757 126.72C221.17 126.453 220.717 126.087 220.397 125.62C220.077 125.14 219.917 124.6 219.917 124C219.917 123.427 220.05 122.907 220.317 122.44C220.597 121.973 221.044 121.6 221.657 121.32C222.284 121.04 223.124 120.9 224.177 120.9H227.537V122.28H224.257C223.297 122.28 222.65 122.44 222.317 122.76C221.984 123.08 221.817 123.467 221.817 123.92C221.817 124.44 222.024 124.86 222.437 125.18C222.85 125.487 223.424 125.64 224.157 125.64C224.877 125.64 225.504 125.48 226.037 125.16C226.584 124.84 226.977 124.373 227.217 123.76L227.597 125.08C227.344 125.707 226.897 126.207 226.257 126.58C225.617 126.94 224.81 127.12 223.837 127.12ZM238.214 127.12C237.334 127.12 236.528 126.92 235.794 126.52C235.074 126.107 234.494 125.5 234.054 124.7C233.628 123.9 233.414 122.9 233.414 121.7C233.414 120.5 233.621 119.5 234.034 118.7C234.461 117.9 235.034 117.3 235.754 116.9C236.488 116.5 237.308 116.3 238.214 116.3C239.254 116.3 240.174 116.527 240.974 116.98C241.774 117.433 242.408 118.067 242.874 118.88C243.341 119.68 243.574 120.62 243.574 121.7C243.574 122.78 243.341 123.727 242.874 124.54C242.408 125.353 241.774 125.987 240.974 126.44C240.174 126.893 239.254 127.12 238.214 127.12ZM232.594 130.88V116.4H234.434V119.26L234.314 121.72L234.514 124.18V130.88H232.594ZM238.054 125.44C238.734 125.44 239.341 125.287 239.874 124.98C240.421 124.673 240.848 124.24 241.154 123.68C241.474 123.107 241.634 122.447 241.634 121.7C241.634 120.94 241.474 120.287 241.154 119.74C240.848 119.18 240.421 118.747 239.874 118.44C239.341 118.133 238.734 117.98 238.054 117.98C237.388 117.98 236.781 118.133 236.234 118.44C235.701 118.747 235.274 119.18 234.954 119.74C234.648 120.287 234.494 120.94 234.494 121.7C234.494 122.447 234.648 123.107 234.954 123.68C235.274 124.24 235.701 124.673 236.234 124.98C236.781 125.287 237.388 125.44 238.054 125.44ZM254.044 127L249.944 121.84L251.524 120.88L256.304 127H254.044ZM246.364 127V116.4H248.284V127H246.364ZM247.704 122.52V120.88H251.204V122.52H247.704ZM251.684 121.92L249.904 121.68L253.964 116.4H256.024L251.684 121.92ZM262.685 127.12C261.552 127.12 260.552 126.887 259.685 126.42C258.832 125.953 258.165 125.313 257.685 124.5C257.219 123.687 256.985 122.753 256.985 121.7C256.985 120.647 257.212 119.713 257.665 118.9C258.132 118.087 258.765 117.453 259.565 117C260.379 116.533 261.292 116.3 262.305 116.3C263.332 116.3 264.239 116.527 265.025 116.98C265.812 117.433 266.425 118.073 266.865 118.9C267.319 119.713 267.545 120.667 267.545 121.76C267.545 121.84 267.539 121.933 267.525 122.04C267.525 122.147 267.519 122.247 267.505 122.34H258.485V120.96H266.505L265.725 121.44C265.739 120.76 265.599 120.153 265.305 119.62C265.012 119.087 264.605 118.673 264.085 118.38C263.579 118.073 262.985 117.92 262.305 117.92C261.639 117.92 261.045 118.073 260.525 118.38C260.005 118.673 259.599 119.093 259.305 119.64C259.012 120.173 258.865 120.787 258.865 121.48V121.8C258.865 122.507 259.025 123.14 259.345 123.7C259.679 124.247 260.139 124.673 260.725 124.98C261.312 125.287 261.985 125.44 262.745 125.44C263.372 125.44 263.939 125.333 264.445 125.12C264.965 124.907 265.419 124.587 265.805 124.16L266.865 125.4C266.385 125.96 265.785 126.387 265.065 126.68C264.359 126.973 263.565 127.12 262.685 127.12ZM272.175 127V117.58L272.655 118.08H268.295V116.4H277.975V118.08H273.635L274.095 117.58V127H272.175ZM279.938 127V116.4H281.858V124.12L288.358 116.4H290.098V127H288.178V119.28L281.698 127H279.938ZM293.825 127V116.4H295.745V120.9H301.785V116.4H303.705V127H301.785V122.56H295.745V127H293.825ZM307.438 127V116.4H315.238V118.08H308.898L309.358 117.64V127H307.438ZM321.275 127.12C320.208 127.12 319.262 126.887 318.435 126.42C317.608 125.953 316.955 125.313 316.475 124.5C315.995 123.673 315.755 122.74 315.755 121.7C315.755 120.647 315.995 119.713 316.475 118.9C316.955 118.087 317.608 117.453 318.435 117C319.262 116.533 320.208 116.3 321.275 116.3C322.328 116.3 323.268 116.533 324.095 117C324.935 117.453 325.588 118.087 326.055 118.9C326.535 119.7 326.775 120.633 326.775 121.7C326.775 122.753 326.535 123.687 326.055 124.5C325.588 125.313 324.935 125.953 324.095 126.42C323.268 126.887 322.328 127.12 321.275 127.12ZM321.275 125.44C321.955 125.44 322.562 125.287 323.095 124.98C323.642 124.673 324.068 124.24 324.375 123.68C324.682 123.107 324.835 122.447 324.835 121.7C324.835 120.94 324.682 120.287 324.375 119.74C324.068 119.18 323.642 118.747 323.095 118.44C322.562 118.133 321.955 117.98 321.275 117.98C320.595 117.98 319.988 118.133 319.455 118.44C318.922 118.747 318.495 119.18 318.175 119.74C317.855 120.287 317.695 120.94 317.695 121.7C317.695 122.447 317.855 123.107 318.175 123.68C318.495 124.24 318.922 124.673 319.455 124.98C319.988 125.287 320.595 125.44 321.275 125.44ZM329.548 127V116.4H334.468C335.708 116.4 336.681 116.64 337.388 117.12C338.108 117.587 338.468 118.253 338.468 119.12C338.468 119.987 338.128 120.66 337.448 121.14C336.781 121.607 335.894 121.84 334.788 121.84L335.088 121.32C336.354 121.32 337.294 121.553 337.908 122.02C338.521 122.487 338.828 123.173 338.828 124.08C338.828 125 338.481 125.72 337.787 126.24C337.108 126.747 336.061 127 334.648 127H329.548ZM331.428 125.52H334.508C335.308 125.52 335.908 125.4 336.308 125.16C336.708 124.907 336.908 124.507 336.908 123.96C336.908 123.4 336.721 122.993 336.348 122.74C335.988 122.473 335.414 122.34 334.628 122.34H331.428V125.52ZM331.428 120.96H334.308C335.041 120.96 335.594 120.827 335.968 120.56C336.354 120.28 336.548 119.893 336.548 119.4C336.548 118.893 336.354 118.513 335.968 118.26C335.594 118.007 335.041 117.88 334.308 117.88H331.428V120.96ZM342.373 131C341.866 131 341.373 130.913 340.893 130.74C340.413 130.58 339.999 130.34 339.653 130.02L340.473 128.58C340.739 128.833 341.033 129.027 341.353 129.16C341.673 129.293 342.013 129.36 342.373 129.36C342.839 129.36 343.226 129.24 343.533 129C343.839 128.76 344.126 128.333 344.393 127.72L345.053 126.26L345.253 126.02L349.413 116.4H351.293L346.153 128.06C345.846 128.807 345.499 129.393 345.113 129.82C344.739 130.247 344.326 130.547 343.873 130.72C343.419 130.907 342.919 131 342.373 131ZM344.893 127.34L340.053 116.4H342.053L346.173 125.84L344.893 127.34ZM353.258 127V116.4H355.178V120.74H358.378V122.52H355.178V127H353.258ZM362.638 127.12C361.598 127.12 360.672 126.887 359.858 126.42C359.058 125.953 358.425 125.313 357.958 124.5C357.492 123.673 357.258 122.74 357.258 121.7C357.258 120.647 357.492 119.713 357.958 118.9C358.425 118.073 359.058 117.433 359.858 116.98C360.672 116.527 361.598 116.3 362.638 116.3C363.665 116.3 364.585 116.527 365.398 116.98C366.212 117.433 366.852 118.073 367.318 118.9C367.785 119.713 368.018 120.647 368.018 121.7C368.018 122.753 367.785 123.687 367.318 124.5C366.852 125.313 366.212 125.953 365.398 126.42C364.585 126.887 363.665 127.12 362.638 127.12ZM362.638 125.44C363.305 125.44 363.898 125.287 364.418 124.98C364.938 124.66 365.352 124.227 365.658 123.68C365.965 123.12 366.118 122.46 366.118 121.7C366.118 120.94 365.965 120.287 365.658 119.74C365.352 119.18 364.938 118.747 364.418 118.44C363.898 118.133 363.305 117.98 362.638 117.98C361.985 117.98 361.392 118.133 360.858 118.44C360.338 118.747 359.925 119.18 359.618 119.74C359.312 120.287 359.158 120.94 359.158 121.7C359.158 122.46 359.312 123.12 359.618 123.68C359.925 124.227 360.338 124.66 360.858 124.98C361.392 125.287 361.985 125.44 362.638 125.44ZM380.769 127.12C379.689 127.12 378.722 126.887 377.869 126.42C377.029 125.953 376.369 125.313 375.889 124.5C375.409 123.687 375.169 122.753 375.169 121.7C375.169 120.647 375.409 119.713 375.889 118.9C376.369 118.087 377.029 117.453 377.869 117C378.722 116.533 379.689 116.3 380.769 116.3C381.729 116.3 382.582 116.493 383.329 116.88C384.089 117.253 384.676 117.813 385.089 118.56L383.629 119.5C383.282 118.98 382.856 118.6 382.349 118.36C381.856 118.107 381.322 117.98 380.749 117.98C380.056 117.98 379.436 118.133 378.889 118.44C378.342 118.747 377.909 119.18 377.589 119.74C377.269 120.287 377.109 120.94 377.109 121.7C377.109 122.46 377.269 123.12 377.589 123.68C377.909 124.24 378.342 124.673 378.889 124.98C379.436 125.287 380.056 125.44 380.749 125.44C381.322 125.44 381.856 125.32 382.349 125.08C382.856 124.827 383.282 124.44 383.629 123.92L385.089 124.84C384.676 125.573 384.089 126.14 383.329 126.54C382.582 126.927 381.729 127.12 380.769 127.12ZM389.538 127V117.58L390.018 118.08H385.658V116.4H395.338V118.08H390.998L391.458 117.58V127H389.538ZM402.921 127.12C402.041 127.12 401.235 126.92 400.501 126.52C399.781 126.107 399.201 125.5 398.761 124.7C398.335 123.9 398.121 122.9 398.121 121.7C398.121 120.5 398.328 119.5 398.741 118.7C399.168 117.9 399.741 117.3 400.461 116.9C401.195 116.5 402.015 116.3 402.921 116.3C403.961 116.3 404.881 116.527 405.681 116.98C406.481 117.433 407.115 118.067 407.581 118.88C408.048 119.68 408.281 120.62 408.281 121.7C408.281 122.78 408.048 123.727 407.581 124.54C407.115 125.353 406.481 125.987 405.681 126.44C404.881 126.893 403.961 127.12 402.921 127.12ZM397.301 130.88V116.4H399.141V119.26L399.021 121.72L399.221 124.18V130.88H397.301ZM402.761 125.44C403.441 125.44 404.048 125.287 404.581 124.98C405.128 124.673 405.555 124.24 405.861 123.68C406.181 123.107 406.341 122.447 406.341 121.7C406.341 120.94 406.181 120.287 405.861 119.74C405.555 119.18 405.128 118.747 404.581 118.44C404.048 118.133 403.441 117.98 402.761 117.98C402.095 117.98 401.488 118.133 400.941 118.44C400.408 118.747 399.981 119.18 399.661 119.74C399.355 120.287 399.201 120.94 399.201 121.7C399.201 122.447 399.355 123.107 399.661 123.68C399.981 124.24 400.408 124.673 400.941 124.98C401.488 125.287 402.095 125.44 402.761 125.44ZM417.473 127V124.76L417.373 124.34V120.52C417.373 119.707 417.133 119.08 416.653 118.64C416.187 118.187 415.48 117.96 414.533 117.96C413.907 117.96 413.293 118.067 412.693 118.28C412.093 118.48 411.587 118.753 411.173 119.1L410.373 117.66C410.92 117.22 411.573 116.887 412.333 116.66C413.107 116.42 413.913 116.3 414.753 116.3C416.207 116.3 417.327 116.653 418.113 117.36C418.9 118.067 419.293 119.147 419.293 120.6V127H417.473ZM413.993 127.12C413.207 127.12 412.513 126.987 411.913 126.72C411.327 126.453 410.873 126.087 410.553 125.62C410.233 125.14 410.073 124.6 410.073 124C410.073 123.427 410.207 122.907 410.473 122.44C410.753 121.973 411.2 121.6 411.813 121.32C412.44 121.04 413.28 120.9 414.333 120.9H417.693V122.28H414.413C413.453 122.28 412.807 122.44 412.473 122.76C412.14 123.08 411.973 123.467 411.973 123.92C411.973 124.44 412.18 124.86 412.593 125.18C413.007 125.487 413.58 125.64 414.313 125.64C415.033 125.64 415.66 125.48 416.193 125.16C416.74 124.84 417.133 124.373 417.373 123.76L417.753 125.08C417.5 125.707 417.053 126.207 416.413 126.58C415.773 126.94 414.967 127.12 413.993 127.12ZM424.851 127V117.58L425.331 118.08H420.971V116.4H430.651V118.08H426.311L426.771 117.58V127H424.851ZM436.865 127.12C435.732 127.12 434.732 126.887 433.865 126.42C433.012 125.953 432.345 125.313 431.865 124.5C431.398 123.687 431.165 122.753 431.165 121.7C431.165 120.647 431.392 119.713 431.845 118.9C432.312 118.087 432.945 117.453 433.745 117C434.558 116.533 435.472 116.3 436.485 116.3C437.512 116.3 438.418 116.527 439.205 116.98C439.992 117.433 440.605 118.073 441.045 118.9C441.498 119.713 441.725 120.667 441.725 121.76C441.725 121.84 441.718 121.933 441.705 122.04C441.705 122.147 441.698 122.247 441.685 122.34H432.665V120.96H440.685L439.905 121.44C439.918 120.76 439.778 120.153 439.485 119.62C439.192 119.087 438.785 118.673 438.265 118.38C437.758 118.073 437.165 117.92 436.485 117.92C435.818 117.92 435.225 118.073 434.705 118.38C434.185 118.673 433.778 119.093 433.485 119.64C433.192 120.173 433.045 120.787 433.045 121.48V121.8C433.045 122.507 433.205 123.14 433.525 123.7C433.858 124.247 434.318 124.673 434.905 124.98C435.492 125.287 436.165 125.44 436.925 125.44C437.552 125.44 438.118 125.333 438.625 125.12C439.145 124.907 439.598 124.587 439.985 124.16L441.045 125.4C440.565 125.96 439.965 126.387 439.245 126.68C438.538 126.973 437.745 127.12 436.865 127.12ZM444.704 127V116.4H452.504V118.08H446.164L446.624 117.64V127H444.704ZM454.469 127V116.4H456.389V124.12L462.889 116.4H464.629V127H462.709V119.28L456.229 127H454.469ZM468.356 127V116.4H470.276V120.74H473.476V122.52H470.276V127H468.356ZM477.736 127.12C476.696 127.12 475.769 126.887 474.956 126.42C474.156 125.953 473.523 125.313 473.056 124.5C472.589 123.673 472.356 122.74 472.356 121.7C472.356 120.647 472.589 119.713 473.056 118.9C473.523 118.073 474.156 117.433 474.956 116.98C475.769 116.527 476.696 116.3 477.736 116.3C478.763 116.3 479.683 116.527 480.496 116.98C481.309 117.433 481.949 118.073 482.416 118.9C482.883 119.713 483.116 120.647 483.116 121.7C483.116 122.753 482.883 123.687 482.416 124.5C481.949 125.313 481.309 125.953 480.496 126.42C479.683 126.887 478.763 127.12 477.736 127.12ZM477.736 125.44C478.403 125.44 478.996 125.287 479.516 124.98C480.036 124.66 480.449 124.227 480.756 123.68C481.063 123.12 481.216 122.46 481.216 121.7C481.216 120.94 481.063 120.287 480.756 119.74C480.449 119.18 480.036 118.747 479.516 118.44C478.996 118.133 478.403 117.98 477.736 117.98C477.083 117.98 476.489 118.133 475.956 118.44C475.436 118.747 475.023 119.18 474.716 119.74C474.409 120.287 474.256 120.94 474.256 121.7C474.256 122.46 474.409 123.12 474.716 123.68C475.023 124.227 475.436 124.66 475.956 124.98C476.489 125.287 477.083 125.44 477.736 125.44ZM491.247 127V116.4H493.167V120.9H499.207V116.4H501.127V127H499.207V122.56H493.167V127H491.247ZM511.36 127V124.76L511.26 124.34V120.52C511.26 119.707 511.02 119.08 510.54 118.64C510.073 118.187 509.367 117.96 508.42 117.96C507.793 117.96 507.18 118.067 506.58 118.28C505.98 118.48 505.473 118.753 505.06 119.1L504.26 117.66C504.807 117.22 505.46 116.887 506.22 116.66C506.993 116.42 507.8 116.3 508.64 116.3C510.093 116.3 511.213 116.653 512 117.36C512.787 118.067 513.18 119.147 513.18 120.6V127H511.36ZM507.88 127.12C507.093 127.12 506.4 126.987 505.8 126.72C505.213 126.453 504.76 126.087 504.44 125.62C504.12 125.14 503.96 124.6 503.96 124C503.96 123.427 504.093 122.907 504.36 122.44C504.64 121.973 505.087 121.6 505.7 121.32C506.327 121.04 507.167 120.9 508.22 120.9H511.58V122.28H508.3C507.34 122.28 506.693 122.44 506.36 122.76C506.027 123.08 505.86 123.467 505.86 123.92C505.86 124.44 506.067 124.86 506.48 125.18C506.893 125.487 507.467 125.64 508.2 125.64C508.92 125.64 509.547 125.48 510.08 125.16C510.627 124.84 511.02 124.373 511.26 123.76L511.64 125.08C511.387 125.707 510.94 126.207 510.3 126.58C509.66 126.94 508.853 127.12 507.88 127.12ZM520.888 127V125.64L526.588 120.14C527.095 119.66 527.468 119.24 527.708 118.88C527.962 118.507 528.128 118.167 528.208 117.86C528.302 117.54 528.348 117.233 528.348 116.94C528.348 116.22 528.095 115.653 527.588 115.24C527.082 114.827 526.342 114.62 525.368 114.62C524.622 114.62 523.948 114.747 523.348 115C522.748 115.24 522.228 115.62 521.788 116.14L520.428 114.96C520.962 114.28 521.675 113.76 522.568 113.4C523.475 113.027 524.468 112.84 525.548 112.84C526.522 112.84 527.368 113 528.088 113.32C528.808 113.627 529.362 114.073 529.748 114.66C530.148 115.247 530.348 115.94 530.348 116.74C530.348 117.193 530.288 117.64 530.168 118.08C530.048 118.52 529.822 118.987 529.488 119.48C529.155 119.973 528.675 120.527 528.048 121.14L522.968 126.04L522.488 125.26H530.948V127H520.888ZM538.293 127.16C537.2 127.16 536.22 126.88 535.353 126.32C534.5 125.76 533.82 124.947 533.313 123.88C532.82 122.813 532.573 121.52 532.573 120C532.573 118.48 532.82 117.187 533.313 116.12C533.82 115.053 534.5 114.24 535.353 113.68C536.22 113.12 537.2 112.84 538.293 112.84C539.373 112.84 540.347 113.12 541.213 113.68C542.08 114.24 542.76 115.053 543.253 116.12C543.747 117.187 543.993 118.48 543.993 120C543.993 121.52 543.747 122.813 543.253 123.88C542.76 124.947 542.08 125.76 541.213 126.32C540.347 126.88 539.373 127.16 538.293 127.16ZM538.293 125.38C539.027 125.38 539.667 125.18 540.213 124.78C540.773 124.38 541.207 123.78 541.513 122.98C541.833 122.18 541.993 121.187 541.993 120C541.993 118.813 541.833 117.82 541.513 117.02C541.207 116.22 540.773 115.62 540.213 115.22C539.667 114.82 539.027 114.62 538.293 114.62C537.56 114.62 536.913 114.82 536.353 115.22C535.793 115.62 535.353 116.22 535.033 117.02C534.727 117.82 534.573 118.813 534.573 120C534.573 121.187 534.727 122.18 535.033 122.98C535.353 123.78 535.793 124.38 536.353 124.78C536.913 125.18 537.56 125.38 538.293 125.38ZM545.693 127V125.64L551.393 120.14C551.9 119.66 552.273 119.24 552.513 118.88C552.766 118.507 552.933 118.167 553.013 117.86C553.106 117.54 553.153 117.233 553.153 116.94C553.153 116.22 552.9 115.653 552.393 115.24C551.886 114.827 551.146 114.62 550.173 114.62C549.426 114.62 548.753 114.747 548.153 115C547.553 115.24 547.033 115.62 546.593 116.14L545.233 114.96C545.766 114.28 546.48 113.76 547.373 113.4C548.28 113.027 549.273 112.84 550.353 112.84C551.326 112.84 552.173 113 552.893 113.32C553.613 113.627 554.166 114.073 554.553 114.66C554.953 115.247 555.153 115.94 555.153 116.74C555.153 117.193 555.093 117.64 554.973 118.08C554.853 118.52 554.626 118.987 554.293 119.48C553.96 119.973 553.48 120.527 552.853 121.14L547.773 126.04L547.293 125.26H555.753V127H545.693ZM561.678 127.16C560.691 127.16 559.731 127.007 558.798 126.7C557.878 126.393 557.124 125.98 556.538 125.46L557.458 123.88C557.924 124.32 558.531 124.68 559.278 124.96C560.024 125.24 560.824 125.38 561.678 125.38C562.718 125.38 563.524 125.16 564.098 124.72C564.684 124.267 564.978 123.66 564.978 122.9C564.978 122.167 564.698 121.58 564.138 121.14C563.591 120.687 562.718 120.46 561.518 120.46H560.398V119.06L564.558 113.94L564.838 114.74H557.178V113H566.418V114.36L562.278 119.46L561.238 118.84H561.898C563.591 118.84 564.858 119.22 565.698 119.98C566.551 120.74 566.978 121.707 566.978 122.88C566.978 123.667 566.784 124.387 566.398 125.04C566.011 125.693 565.424 126.213 564.638 126.6C563.864 126.973 562.878 127.16 561.678 127.16ZM575.114 127V116.4H582.914V118.08H576.574L577.034 117.64V127H575.114ZM588.951 127.12C587.884 127.12 586.937 126.887 586.111 126.42C585.284 125.953 584.631 125.313 584.151 124.5C583.671 123.673 583.431 122.74 583.431 121.7C583.431 120.647 583.671 119.713 584.151 118.9C584.631 118.087 585.284 117.453 586.111 117C586.937 116.533 587.884 116.3 588.951 116.3C590.004 116.3 590.944 116.533 591.771 117C592.611 117.453 593.264 118.087 593.731 118.9C594.211 119.7 594.451 120.633 594.451 121.7C594.451 122.753 594.211 123.687 593.731 124.5C593.264 125.313 592.611 125.953 591.771 126.42C590.944 126.887 590.004 127.12 588.951 127.12ZM588.951 125.44C589.631 125.44 590.237 125.287 590.771 124.98C591.317 124.673 591.744 124.24 592.051 123.68C592.357 123.107 592.511 122.447 592.511 121.7C592.511 120.94 592.357 120.287 592.051 119.74C591.744 119.18 591.317 118.747 590.771 118.44C590.237 118.133 589.631 117.98 588.951 117.98C588.271 117.98 587.664 118.133 587.131 118.44C586.597 118.747 586.171 119.18 585.851 119.74C585.531 120.287 585.371 120.94 585.371 121.7C585.371 122.447 585.531 123.107 585.851 123.68C586.171 124.24 586.597 124.673 587.131 124.98C587.664 125.287 588.271 125.44 588.951 125.44ZM604.385 126.1V118.08H599.785L599.685 120.12C599.658 120.787 599.612 121.433 599.545 122.06C599.492 122.673 599.398 123.24 599.265 123.76C599.145 124.28 598.965 124.707 598.725 125.04C598.485 125.373 598.165 125.58 597.765 125.66L595.865 125.32C596.278 125.333 596.612 125.2 596.865 124.92C597.118 124.627 597.312 124.227 597.445 123.72C597.592 123.213 597.698 122.64 597.765 122C597.832 121.347 597.885 120.673 597.925 119.98L598.085 116.4H606.305V126.1H604.385ZM595.445 129.46V125.32H607.925V129.46H606.125V127H597.265V129.46H595.445Z" fill="black"/>
<path d="M1.00013 79.3553C27.7965 66.9695 93.9407 48.5743 144.147 74.0793M144.147 74.0793L137.857 58.7547M144.147 74.0793L121.646 78.8678" stroke="black"/>
</svg>
