<svg width="103" height="103" viewBox="0 0 103 103" fill="none" xmlns="http://www.w3.org/2000/svg">
<g clip-path="url(#clip0_520_564)">
<mask id="mask0_520_564" style="mask-type:luminance" maskUnits="userSpaceOnUse" x="0" y="0" width="103" height="103">
<path d="M103 0H0V103H103V0Z" fill="white"/>
</mask>
<g mask="url(#mask0_520_564)">
<path d="M76.4255 97.0775L62.3317 89.5757C58.7438 87.6702 56.804 83.224 57.6795 78.8637L63.9282 47.5517C64.9753 42.3158 69.6447 39.0713 74.2797 40.376L87.7898 44.1355C92.1502 45.3543 94.914 50.1438 94.1243 55.105L88.4765 90.1765C87.4465 96.3393 81.4897 99.7727 76.4255 97.0775Z" fill="#F99E51"/>
<path d="M90.761 46.8478C89.319 49.5087 88.8727 52.4957 88.598 55.4827C88.2718 59.0018 87.9972 62.5382 87.6538 66.0573C86.9157 73.3532 86.0058 80.649 84.9243 87.9105C84.9072 87.9963 85.0445 88.0307 85.0445 87.9448C86.0745 81.0095 86.9672 74.057 87.6882 67.0702C88.0487 63.6197 88.3577 60.152 88.6323 56.6843C88.907 53.3368 89.2675 49.9378 90.8812 46.9337C90.9155 46.8307 90.8125 46.762 90.761 46.8478Z" fill="white"/>
<path d="M23.8619 61.1305C24.4455 61.7485 106.846 101.781 106.846 101.781L102.073 114.279L-9.97363 114.673L0.755534 68.3748L23.8619 61.1305Z" fill="white" stroke="#202124" stroke-width="0.476852" stroke-miterlimit="10"/>
<path d="M22.7804 71.6537L8.10293 76.7693L3.43359 70.8297L17.1154 66.7955L22.7804 71.6537Z" fill="white" stroke="#202124" stroke-width="0.476852" stroke-miterlimit="10"/>
<path d="M25.6468 71.276L10.4371 76.7522L5.61328 70.3833L19.7758 66.0745L25.6468 71.276Z" fill="white" stroke="#202124" stroke-width="0.476852" stroke-miterlimit="10"/>
<path d="M24.9084 69.7482L10.2309 74.8467L5.56152 68.907L19.2434 64.8728L24.9084 69.7482Z" fill="white" stroke="#202124" stroke-width="0.476852" stroke-miterlimit="10"/>
<path d="M9.13232 71.4648C9.45849 71.4648 9.45849 70.9498 9.13232 70.9498C8.80615 70.9498 8.80615 71.4648 9.13232 71.4648Z" fill="#FFCA9D"/>
<path d="M9.61324 68.9585C10.5402 70.2288 11.5016 71.4477 12.4972 72.6493C12.5487 72.718 12.6346 72.615 12.5831 72.5635C11.5874 71.379 10.6261 70.1602 9.71622 68.8898C9.68189 68.8383 9.56174 68.8898 9.61324 68.9585Z" fill="#FFCA9D"/>
<path d="M12.0852 70.143C12.5659 70.6752 13.0465 71.2417 13.51 71.791C13.5615 71.8597 13.6474 71.7567 13.5959 71.7052C13.1324 71.1387 12.6517 70.5893 12.171 70.0572C12.1195 69.9885 12.0337 70.0743 12.0852 70.143Z" fill="#FFCA9D"/>
<path d="M12.4808 68.1688C13.3392 69.319 14.1632 70.4863 14.9528 71.688C15.0043 71.7567 15.1073 71.688 15.0558 71.6193C14.2662 70.4177 13.4422 69.2503 12.5838 68.1002C12.5323 68.0487 12.4293 68.1002 12.4808 68.1688Z" fill="#FFCA9D"/>
<path d="M14.4028 67.671C15.244 68.6323 16.0165 69.6623 16.7203 70.7267C16.7718 70.7953 16.8748 70.7267 16.8233 70.658C16.1195 69.5765 15.3298 68.5465 14.4887 67.568C14.4543 67.5165 14.3513 67.6023 14.4028 67.671Z" fill="#FFCA9D"/>
<path d="M17.012 66.8298C18.042 67.9113 19.0033 69.0272 19.9131 70.2117C19.9646 70.2803 20.0676 70.2117 20.0161 70.143C19.1063 68.9413 18.145 67.8083 17.0978 66.7268C17.0463 66.6753 16.9605 66.7783 17.012 66.8298Z" fill="#FFCA9D"/>
<path d="M35.6897 93.73L16.7549 98.4508L13.0469 92.288L31.4152 87.7045L35.6897 93.73Z" fill="#F99E51"/>
<path d="M19.8959 95.8071L17.9904 96.0818L15.999 92.9746L17.9045 92.7L19.8959 95.8071Z" fill="white"/>
<path d="M13.0469 92.5283C13.0469 92.803 13.0469 93.0777 13.0469 93.3352C13.0469 93.421 13.1842 93.421 13.1842 93.3352C13.1842 93.0605 13.1842 92.7858 13.1842 92.5283C13.167 92.4425 13.0469 92.4425 13.0469 92.5283Z" fill="#202124"/>
<path d="M13.1845 93.6785C14.163 95.4123 15.1587 97.1462 16.1372 98.88C16.1715 98.9487 16.2917 98.88 16.2402 98.8113C15.2617 97.0775 14.266 95.3437 13.2875 93.6098C13.2532 93.5412 13.133 93.5927 13.1845 93.6785Z" fill="#202124"/>
<path d="M13.8881 94.4338C14.7979 95.9102 15.6734 97.4037 16.4802 98.9143C16.5146 98.983 16.6347 98.9143 16.5832 98.8457C15.7592 97.3178 14.9009 95.8243 13.9911 94.3652C13.9396 94.2965 13.8366 94.3652 13.8881 94.4338Z" fill="#202124"/>
<path d="M17.2524 98.7255C19.6386 98.1933 22.0248 97.5925 24.3766 96.9402C24.4624 96.923 24.4281 96.7857 24.3423 96.82C21.9733 97.4895 19.6043 98.0732 17.2181 98.6053C17.1494 98.6225 17.1838 98.7427 17.2524 98.7255Z" fill="#202124"/>
<path d="M23.5186 97.5067C27.4841 96.614 31.4153 95.6012 35.3121 94.4682C35.398 94.451 35.3636 94.3137 35.2778 94.348C31.381 95.481 27.4498 96.4938 23.4843 97.3865C23.3985 97.3865 23.4328 97.5238 23.5186 97.5067Z" fill="#202124"/>
<path d="M17.5274 99.1032C19.2441 98.6568 20.9779 98.262 22.7289 97.9358C22.8147 97.9187 22.7804 97.7985 22.6946 97.8157C20.9436 98.1418 19.2097 98.5367 17.4931 98.983C17.4072 99.0002 17.4416 99.1203 17.5274 99.1032Z" fill="#202124"/>
<path d="M26.6768 96.3737C28.9428 95.8587 31.1917 95.2922 33.4233 94.6913C33.5092 94.6742 33.4748 94.554 33.389 94.5712C31.1402 95.172 28.8913 95.7213 26.6425 96.2535C26.5567 96.2535 26.591 96.3908 26.6768 96.3737Z" fill="#202124"/>
<path d="M35.2607 93.8845C35.2264 94.1935 35.1921 94.5025 35.1577 94.8115C35.1406 94.8973 35.2779 94.8973 35.2951 94.8115C35.3294 94.5025 35.3637 94.1935 35.3981 93.8845C35.3981 93.7987 35.2779 93.7987 35.2607 93.8845Z" fill="#202124"/>
<path d="M22.2481 84.0823C21.9906 84.2197 21.4069 84.4428 20.6516 84.4085C19.9649 84.3742 19.4499 84.1167 19.1924 83.9793C18.7117 81.6447 18.2482 79.2928 17.7676 76.9582H23.5356L22.2481 84.0823Z" fill="#202124"/>
<path d="M20.6692 78.898C22.2619 78.898 23.5532 77.9681 23.5532 76.8208C23.5532 75.6736 22.2619 74.7437 20.6692 74.7437C19.0764 74.7437 17.7852 75.6736 17.7852 76.8208C17.7852 77.9681 19.0764 78.898 20.6692 78.898Z" fill="white" stroke="#202124" stroke-width="0.476852" stroke-miterlimit="10"/>
<path d="M20.7036 78.074C21.7276 78.074 22.5576 77.4898 22.5576 76.7693C22.5576 76.0489 21.7276 75.4647 20.7036 75.4647C19.6796 75.4647 18.8496 76.0489 18.8496 76.7693C18.8496 77.4898 19.6796 78.074 20.7036 78.074Z" fill="white" stroke="#202124" stroke-width="0.476852" stroke-miterlimit="10"/>
<path d="M65.4434 89.1144C66.8378 88.0662 67.4601 86.5406 66.8333 85.707C66.2068 84.8734 64.5684 85.0474 63.1739 86.0956C61.7797 87.144 61.1574 88.6694 61.7839 89.5031C62.4107 90.3367 64.0491 90.1626 65.4434 89.1144Z" fill="white" stroke="#202124" stroke-width="0.476852" stroke-miterlimit="10"/>
<path d="M61.9544 89.5757C62.2291 88.8032 62.6926 88.1337 63.3449 87.6187C63.4136 87.5672 63.3106 87.4813 63.2591 87.5328C62.6067 88.065 62.1261 88.7517 61.8342 89.5585C61.7999 89.6272 61.9201 89.6615 61.9544 89.5757Z" fill="#202124"/>
<path d="M62.2634 87.2753C63.3964 87.2238 64.3749 87.8762 64.7182 88.9748C64.7354 89.0607 64.8727 89.0263 64.8384 88.9405C64.4779 87.8075 63.4651 87.0865 62.2634 87.1552C62.1947 87.1552 62.1947 87.2925 62.2634 87.2753Z" fill="#202124"/>
<path d="M52.0844 91.773L34.2139 78.9667L45.2349 71.7738L62.762 82.2455L52.0844 91.773Z" fill="white" stroke="#202124" stroke-width="0.476852" stroke-miterlimit="10"/>
<path d="M51.1739 90.434L36.4277 79.8422L45.1312 73.8338L59.7057 82.9665L51.1739 90.434Z" fill="white" stroke="#202124" stroke-width="0.476852" stroke-miterlimit="10"/>
<path d="M44.1016 74.5548L58.8649 83.7047" stroke="#202124" stroke-width="0.476852" stroke-miterlimit="10"/>
<path d="M43.0029 75.3102L57.9208 84.5287" stroke="#202124" stroke-width="0.476852" stroke-miterlimit="10"/>
<path d="M41.8867 76.0827L57.0277 85.3012" stroke="#202124" stroke-width="0.476852" stroke-miterlimit="10"/>
<path d="M40.8916 76.7522L55.9639 86.0908" stroke="#202124" stroke-width="0.476852" stroke-miterlimit="10"/>
<path d="M39.793 77.5247L55.0198 87.0522" stroke="#202124" stroke-width="0.476852" stroke-miterlimit="10"/>
<path d="M38.6084 78.3315L54.0756 87.8933" stroke="#202124" stroke-width="0.476852" stroke-miterlimit="10"/>
<path d="M37.458 79.1212L52.908 88.9062" stroke="#202124" stroke-width="0.476852" stroke-miterlimit="10"/>
<path d="M58.6243 82.297L49.7148 89.3868" stroke="#202124" stroke-width="0.476852" stroke-miterlimit="10"/>
<path d="M57.0279 81.4215L48.4961 88.5113" stroke="#202124" stroke-width="0.476852" stroke-miterlimit="10"/>
<path d="M46.3497 74.6063L38.041 80.8035" stroke="#202124" stroke-width="0.476852" stroke-miterlimit="10"/>
<path d="M47.7408 75.3273L39.6553 81.679" stroke="#202124" stroke-width="0.476852" stroke-miterlimit="10"/>
<path d="M49.1316 76.3402L40.8916 83.0523" stroke="#202124" stroke-width="0.476852" stroke-miterlimit="10"/>
<path d="M55.7746 80.6318L46.7793 87.3955" stroke="#202124" stroke-width="0.476852" stroke-miterlimit="10"/>
<path d="M49.8862 78.1427L42.2471 84.0137" stroke="#202124" stroke-width="0.476852" stroke-miterlimit="10"/>
<path d="M51.7921 79.31L43.6895 85.0608" stroke="#202124" stroke-width="0.476852" stroke-miterlimit="10"/>
<path d="M53.3365 80.2713L45.457 86.314" stroke="#202124" stroke-width="0.476852" stroke-miterlimit="10"/>
<path d="M23.8613 66.0402L45.457 80.3228L51.9288 91.7387L34.5562 79.207L23.8613 66.0402Z" fill="white" stroke="#202124" stroke-width="0.476852" stroke-miterlimit="10"/>
<path d="M46.9679 69.113C46.8305 69.1988 46.6417 69.3533 46.4185 69.5422C45.8348 70.0572 45.6975 70.4005 45.131 71.1043C44.7533 71.5678 44.4272 71.9627 43.9122 72.3403C43.586 72.5807 43.1912 72.8725 42.6075 73.027C42.3672 73.0957 41.5432 73.3188 40.599 72.9583C40.3244 72.8553 39.4489 72.512 39.1055 71.6708C39.0369 71.482 39.0025 71.3103 38.9854 71.1902C39.1399 70.864 39.4145 70.4005 39.8265 69.9198C40.1184 69.5937 40.7364 68.9585 42.9337 67.9457C43.5689 67.6538 44.4272 67.2762 45.4743 66.9157C45.5258 66.9328 46.5902 67.1217 46.9335 68.0315C47.1052 68.5122 47.0194 68.9242 46.9679 69.113Z" fill="white"/>
<path d="M65.4054 50.3327C65.0964 50.47 64.65 50.6932 64.1865 51.0537C63.517 51.5858 63.105 52.1695 62.8132 52.6502C61.8004 54.3497 61.4227 56.0148 61.4227 56.0148C61.045 57.6457 60.1695 60.3408 58.1954 65.0788C56.0495 65.6453 53.5775 66.1603 50.848 66.5208C48.8224 66.7783 46.934 66.8985 45.2002 66.9328C45.389 67.0015 45.6294 67.1388 45.904 67.3277C46.11 67.4822 46.5392 67.8083 46.7967 68.3577C47.1572 69.1302 46.9512 69.9027 46.8654 70.1258C47.4834 70.246 48.3932 70.4177 49.4747 70.6237C53.9209 71.4477 52.084 71.0357 54.9509 71.5678C54.9509 71.5678 56.5817 71.8597 58.5215 71.9283C58.9164 71.9455 59.5 71.9455 60.2039 71.7052C60.3412 71.6537 60.9249 71.4477 61.5944 70.9155C62.3497 70.3147 62.7617 69.6623 62.899 69.422C64.7359 66.5208 65.68 66.3663 66.6242 63.9802C67.0019 63.0188 67.1907 62.2292 67.431 61.079C67.7229 59.7915 67.9289 58.4182 67.9632 57.6285C68.1177 54.6415 66.4354 51.7918 65.4054 50.3327Z" fill="white"/>
<path d="M64.6843 50.6417C62.7788 51.7403 62.075 53.9033 61.4055 55.8603C60.3755 58.7958 59.3626 61.7485 58.3326 64.684C58.2983 64.7698 58.4356 64.8042 58.4528 64.7183C59.3626 62.0918 60.2725 59.4825 61.1823 56.856C61.9376 54.6758 62.59 51.9978 64.7358 50.7618C64.8216 50.7103 64.753 50.6073 64.6843 50.6417Z" fill="#202124"/>
<path d="M45.5261 66.847C49.5603 66.7783 53.5773 66.2805 57.5084 65.3535C57.5943 65.3363 57.5599 65.2162 57.4741 65.2333C53.5601 66.1603 49.5603 66.6582 45.5261 66.7268C45.4574 66.7268 45.4574 66.8642 45.5261 66.847Z" fill="#202124"/>
<path d="M45.4406 67.1903C46.5221 67.5508 47.1401 68.7525 46.7967 69.8512C46.7796 69.937 46.8997 69.9713 46.9169 69.8855C47.2774 68.7182 46.6251 67.4478 45.4577 67.0702C45.3891 67.053 45.3547 67.1732 45.4406 67.1903Z" fill="#202124"/>
<path d="M47.4144 70.246C49.543 70.7438 51.6717 71.1558 53.8347 71.482C55.62 71.7567 57.5599 72.1858 59.3624 71.9455C60.976 71.7395 61.9889 70.6923 62.9159 69.4392C64.2377 67.6882 65.4737 65.8685 66.6411 63.9973C66.6926 63.9287 66.5724 63.86 66.538 63.9287C65.5424 65.508 64.4952 67.053 63.3965 68.5637C62.1605 70.246 61.0275 71.7567 58.7615 71.8425C56.9247 71.9112 55.002 71.5163 53.1995 71.2245C51.2597 70.9155 49.3542 70.5378 47.4487 70.0915C47.38 70.1087 47.3457 70.2288 47.4144 70.246Z" fill="#202124"/>
<path d="M46.556 69.3705C45.3372 70.1602 44.9595 71.6708 43.672 72.3918C43.6033 72.4262 43.672 72.5463 43.7407 72.4948C45.0282 71.7738 45.4058 70.246 46.6247 69.4735C46.6762 69.4392 46.6247 69.3362 46.556 69.3705Z" fill="#202124"/>
<path d="M44.5299 67.3277C42.2811 68.0487 39.9121 68.9757 38.8821 71.2588C38.8478 71.3275 38.9679 71.3962 38.9851 71.3275C39.9979 69.0615 42.3326 68.1517 44.5471 67.4478C44.6329 67.4307 44.5986 67.2933 44.5299 67.3277Z" fill="#202124"/>
<path d="M39.4153 71.8082C39.9818 70.8297 40.7715 70.04 41.75 69.4735C41.8187 69.4392 41.75 69.319 41.6813 69.3705C40.6857 69.937 39.8617 70.7438 39.2952 71.7567C39.2608 71.8253 39.381 71.8768 39.4153 71.8082Z" fill="#202124"/>
<path d="M40.1011 72.0485C40.6505 71.0185 41.6805 70.452 42.6761 69.9198C42.7448 69.8855 42.6761 69.7653 42.6075 69.8168C41.5946 70.3662 40.5646 70.9498 39.9981 71.997C39.9638 72.0657 40.0668 72.1172 40.1011 72.0485Z" fill="#202124"/>
<path d="M40.9428 72.3746C41.5265 71.5335 42.3333 70.8983 43.3118 70.555C43.3976 70.5206 43.3633 70.4005 43.2775 70.4348C42.2818 70.7953 41.4406 71.4305 40.8398 72.306C40.7883 72.3746 40.9085 72.4433 40.9428 72.3746Z" fill="#202124"/>
<path d="M65.2333 50.5902C64.478 51.2082 64.375 52.221 64.272 53.251C64.0316 55.8432 63.9115 57.1307 63.9973 58.3495C64.1346 60.5125 63.86 60.9417 63.3621 65.817C63.0531 68.8383 62.6926 73.3875 62.418 80.031C68.907 83.1553 75.3788 86.2797 81.8678 89.404C81.9365 88.8375 82.0395 87.9963 82.194 86.9663C82.4 85.6617 82.5888 84.8205 82.6746 84.2712C82.9665 82.2798 83.1038 80.6318 83.224 79.1727C83.842 71.1558 83.8935 72.5635 84.048 69.4392C84.2196 66.0745 84.2883 61.6112 84.0136 56.2895C82.9321 55.1908 81.2498 53.6973 78.8636 52.427C78.3658 52.1695 76.1685 51.0193 73.0441 50.367C71.4305 50.0237 70.0571 50.0408 67.3276 50.058C66.6238 50.058 65.8513 50.0752 65.2333 50.5902Z" fill="white"/>
<path d="M65.7315 50.3155C72.3578 49.2168 79.2932 51.5172 83.9625 56.3238C84.014 56.3753 84.117 56.2895 84.0483 56.238C79.3275 51.397 72.3578 49.0967 65.6972 50.1953C65.6113 50.2125 65.6457 50.3327 65.7315 50.3155Z" fill="#202124"/>
<path d="M64.3235 55.9118C63.3965 63.6883 62.7613 71.4992 62.418 79.3272C62.418 79.413 62.5381 79.413 62.5553 79.3272C62.8986 71.4992 63.5338 63.6883 64.4608 55.9118C64.4608 55.826 64.3406 55.826 64.3235 55.9118Z" fill="#202124"/>
<path d="M83.8935 59.9975C84.5458 69.7482 83.1897 79.4645 81.8335 89.1122C81.8163 89.198 81.9537 89.2323 81.9537 89.1465C83.3098 79.4988 84.666 69.7653 84.0137 59.9975C84.0137 59.9117 83.8935 59.9117 83.8935 59.9975Z" fill="#202124"/>
<path d="M80.2196 88.786C80.3055 88.786 80.3055 88.6487 80.2196 88.6487C80.1338 88.6487 80.1338 88.786 80.2196 88.786Z" fill="#202124"/>
<path d="M60.7361 80.3743C60.7018 80.4602 60.6159 80.5975 60.4958 80.7348C60.2383 81.0267 59.9121 81.1125 59.7404 81.1468C59.1396 81.3013 58.6074 81.1125 58.4186 81.0438C57.6461 80.752 57.6461 80.3572 57.1483 80.3228C57.0453 80.3228 56.8908 80.3228 55.8951 80.9752C55.0539 81.5073 55.0024 81.6103 54.7449 81.6447C53.9896 81.7305 53.3716 81.0438 53.3373 80.9923C52.8051 80.3743 52.8909 79.619 52.9081 79.4988C53.0969 79.2242 53.3888 78.8293 53.8179 78.4517C54.1956 78.1083 54.6934 77.662 55.4831 77.4217C56.2213 77.2157 56.8564 77.2843 57.1998 77.353C57.9208 77.4903 58.0924 77.765 58.8821 77.9195C59.4314 78.0397 59.8949 78.0225 60.2211 77.9882C60.3756 78.1598 60.6846 78.5375 60.8048 79.1212C60.9078 79.6877 60.7876 80.1512 60.7361 80.3743Z" fill="white"/>
<path d="M83.9971 56.2723C83.6023 56.5813 83.0358 57.0963 82.5894 57.9032C82.2633 58.4868 82.1774 58.916 81.8684 59.8945C81.8169 60.0318 81.5423 60.8043 80.9929 62.315C80.9929 62.315 80.3234 64.1347 79.6024 65.9887C78.4694 68.9242 77.1476 71.9112 76.4609 73.4905C75.7914 73.7308 74.7958 74.0913 73.5598 74.5033C72.2036 74.9497 70.5041 75.4647 66.0751 76.5805C64.5644 76.9582 62.5731 77.456 60.2041 78.0053C60.3758 78.2113 60.6504 78.589 60.7878 79.1383C60.9938 79.9795 60.7191 80.6833 60.6161 80.9065C61.1826 80.8893 62.0066 80.8722 63.0366 80.8378C67.8261 80.6833 70.2294 80.6147 72.5641 80.3743C78.2634 79.8078 77.3708 79.207 80.4608 78.9323C80.7526 78.898 81.5251 78.8465 82.2289 78.3315C83.0014 77.765 83.3448 76.9582 83.7224 75.6878C84.3061 73.7823 84.5979 72.2545 84.7524 71.4648C85.2159 68.9242 85.4563 67.6538 85.5936 66.5895C85.8168 64.7698 85.9541 63.654 85.8854 62.109C85.7824 60.049 85.4219 58.9847 85.2846 58.607C84.8726 57.5598 84.3748 56.7873 83.9971 56.2723Z" fill="white"/>
<path d="M60.1353 78.0396C60.7018 78.692 60.8906 79.5331 60.6674 80.3571C60.6503 80.443 60.7704 80.4773 60.7876 80.3915C61.0279 79.516 60.8219 78.6233 60.2211 77.9538C60.1868 77.8851 60.0838 77.971 60.1353 78.0396Z" fill="#202124"/>
<path d="M60.9935 80.8894C64.2723 80.9237 67.5683 80.8207 70.8471 80.5632C73.8856 80.34 76.9756 80.0825 79.894 79.1384C79.9798 79.1212 79.9455 78.9838 79.8596 79.0182C76.8555 79.9967 73.6453 80.237 70.5038 80.4602C67.328 80.6834 64.1521 80.7863 60.9763 80.752C60.9076 80.7692 60.9076 80.8894 60.9935 80.8894Z" fill="#202124"/>
<path d="M84.8553 57.7658C86.3831 61.3022 85.7651 65.3192 85.13 68.9928C84.821 70.8297 84.4261 72.6493 83.9626 74.4518C83.7223 75.3788 83.5506 76.4603 83.0871 77.3015C82.6065 78.1427 81.731 78.5375 80.8726 78.9152C80.804 78.9495 80.8555 79.0525 80.9413 79.0182C81.628 78.7263 82.3661 78.4173 82.8811 77.8337C83.4133 77.2157 83.585 76.3745 83.8081 75.602C84.409 73.439 84.8896 71.2417 85.2673 69.0272C85.9025 65.3192 86.5205 61.2678 84.9755 57.6972C84.924 57.6113 84.821 57.68 84.8553 57.7658Z" fill="#202124"/>
<path d="M60.478 77.9882C65.1645 76.9238 69.7995 75.6878 74.4002 74.3145C74.486 74.2973 74.4517 74.16 74.3658 74.1943C69.7652 75.5848 65.1302 76.8037 60.4437 77.868C60.375 77.868 60.4093 78.0053 60.478 77.9882Z" fill="#202124"/>
<path d="M82.0916 59.0876C80.5294 63.4823 78.8471 67.8426 77.0618 72.1515C77.0274 72.2201 77.1476 72.2545 77.1819 72.1858C78.9673 67.877 80.6324 63.5166 82.2118 59.122C82.2461 59.0361 82.1088 59.0018 82.0916 59.0876Z" fill="#202124"/>
<path d="M60.2728 80.7005C59.6719 81.3528 58.8136 81.1983 58.0926 80.8035C57.8179 80.649 57.4918 80.2885 57.1484 80.2542C56.4961 80.2027 55.5863 81.061 55.1056 81.4215C55.0369 81.473 55.1056 81.576 55.1743 81.5245C55.6034 81.2155 56.2386 80.6318 56.7536 80.5117C57.4403 80.34 57.9209 80.9408 58.5046 81.1468C59.1741 81.3872 59.8608 81.3185 60.3586 80.7863C60.4273 80.7348 60.3414 80.649 60.2728 80.7005Z" fill="#202124"/>
<path d="M58.8825 77.868C57.9211 77.456 56.7023 76.8723 55.6551 77.2672C54.5393 77.6963 53.475 78.4517 52.8398 79.4645C52.7883 79.5332 52.9085 79.6018 52.9428 79.5332C53.4921 78.6577 54.3333 78.0568 55.2603 77.5933C56.462 76.9925 57.6465 77.4732 58.8138 77.971C58.8996 78.0053 58.9683 77.9023 58.8825 77.868Z" fill="#202124"/>
<path d="M53.1657 79.9452C53.6807 79.2757 54.3673 78.795 55.1913 78.5547C55.2772 78.5375 55.2428 78.4002 55.157 78.4345C54.3158 78.6748 53.5948 79.1727 53.0627 79.8765C52.994 79.9452 53.1142 80.0138 53.1657 79.9452Z" fill="#202124"/>
<path d="M53.6632 80.3228C54.1954 79.7563 54.8306 79.3444 55.5687 79.0869C55.6546 79.0525 55.6202 78.9323 55.5344 78.9667C54.7791 79.2242 54.1267 79.6533 53.5774 80.237C53.5259 80.2885 53.6117 80.3743 53.6632 80.3228Z" fill="#202124"/>
<path d="M54.1267 80.9065C54.6589 80.3743 55.2769 79.9795 55.9979 79.7563C56.0837 79.7392 56.0494 79.6018 55.9635 79.6362C55.2254 79.8593 54.573 80.2542 54.0409 80.8035C53.9722 80.8722 54.058 80.958 54.1267 80.9065Z" fill="#202124"/>
<path d="M73.1131 53.0622C73.0616 53.0793 72.8556 53.1308 72.7698 53.3025C72.6668 53.5257 72.8213 53.766 72.8899 53.869C73.0959 54.178 73.4049 54.281 73.5079 54.3153C73.9543 54.4527 74.3491 54.2982 74.5723 54.2123C75.1388 54.0063 75.4306 53.6115 75.5508 53.457C75.6538 53.3197 75.7396 53.1995 75.8083 53.0278C75.9456 52.5987 75.8598 52.0493 75.6366 51.8777C75.2761 51.5515 74.2461 52.015 73.1131 53.0622Z" fill="white"/>
<path d="M73.0961 53.0965C73.2163 53.2338 73.3364 53.3883 73.4566 53.5257C73.5081 53.5943 73.5939 53.4913 73.5424 53.4398C73.4223 53.3025 73.3021 53.148 73.1819 53.0107C73.1304 52.942 73.0274 53.045 73.0961 53.0965Z" fill="#202124"/>
<path d="M72.7184 53.2853C72.6841 53.9377 73.1991 54.384 73.8343 54.4183C74.7098 54.4698 75.3793 53.766 75.8943 53.1652C75.9458 53.0965 75.8599 53.0107 75.8084 53.0793C75.4994 53.457 75.1561 53.8347 74.7269 54.0578C74.0574 54.4355 72.7699 54.4012 72.8386 53.2853C72.8386 53.2167 72.7184 53.2167 72.7184 53.2853Z" fill="#202124"/>
<path d="M69.1309 48.1868C69.1309 48.2898 69.148 48.6332 69.1824 48.925C69.2167 49.3885 69.251 49.6632 69.3369 50.0065C69.4914 50.6073 69.7145 51.0193 69.766 51.1052C70.075 51.6373 70.4184 51.9635 70.5557 52.0837C71.1222 52.5815 71.6887 52.7875 71.8604 52.8562C71.9977 52.9077 72.4784 53.045 73.0964 53.045C73.371 53.045 74.2465 53.0278 75.122 52.4613C75.9117 51.9635 76.2722 51.3112 76.5812 50.7618C76.976 50.0408 77.3194 49.4228 77.2335 48.616C77.1305 47.7748 76.6155 47.2255 76.3237 46.9337C75.3624 45.9208 74.1264 45.7148 73.8345 45.6805C71.4484 45.3543 69.148 47.174 69.1309 48.1868Z" fill="white"/>
<path d="M79.7398 47.0539C78.7269 48.8907 76.2893 49.5774 74.4009 49.131C71.4826 48.4615 70.6071 45.3372 70.3324 44.29C70.1779 43.7064 69.8003 42.3502 70.4183 41.818C70.9848 41.3374 71.7744 42.0412 73.1306 41.9039C75.0704 41.715 75.4481 40.1014 76.6326 40.1357C78.4694 40.2044 81.3191 44.1699 79.7398 47.0539Z" fill="#202124"/>
<path d="M69.147 48.4958C67.3101 48.2898 66.9668 47.8092 66.8982 47.5517C66.6578 46.6247 68.838 45.1655 70.5375 44.5647C71.722 44.1355 72.649 44.1183 73.0953 44.1355C73.8163 44.1527 74.7261 44.187 75.6016 44.7878C76.3226 45.2857 76.666 45.9037 76.8033 46.1783C77.3698 47.2083 77.3355 48.204 77.3011 48.6332C77.1981 48.6332 77.0093 48.6332 76.7861 48.7018C76.2368 48.8907 76.151 49.337 75.5502 49.7662C75.327 49.9207 75.0695 50.1095 74.709 50.161C74.0223 50.2468 73.4386 49.7833 73.1811 49.5773C72.3228 48.8907 72.4773 48.3585 71.6533 47.7748C71.3615 47.5688 70.9152 47.2598 70.383 47.3457C69.5762 47.4315 69.1813 48.3928 69.147 48.4958Z" fill="#202124"/>
<path d="M69.1816 49.0623C69.1816 50.985 70.5206 52.7875 72.4776 53.0793C74.3316 53.354 76.2715 52.2725 76.7693 50.4357C76.7865 50.3498 76.6663 50.3155 76.6491 50.4013C76.1341 52.2553 74.1085 53.3025 72.2716 52.9077C70.4863 52.53 69.3018 50.8305 69.319 49.0623C69.319 48.9765 69.1816 48.9765 69.1816 49.0623Z" fill="#202124"/>
<path d="M69.1645 48.2727C69.5593 47.5002 70.4348 47.1397 71.2416 47.5345C71.7223 47.7748 72.0828 48.2555 72.3918 48.6675C72.7523 49.1482 73.13 49.6632 73.6621 49.9722C74.1428 50.2468 74.675 50.2812 75.1728 50.0408C75.7908 49.749 76.4946 48.3928 77.2328 48.6847C77.3015 48.719 77.3358 48.5988 77.2671 48.5645C76.5118 48.2727 76.1856 49.0623 75.7221 49.5087C74.3316 50.8305 73.2158 49.4915 72.3575 48.41C71.482 47.3113 69.8683 46.6418 69.0615 48.2212C69.01 48.2898 69.1301 48.3585 69.1645 48.2727Z" fill="#202124"/>
<path d="M69.199 48.2555C69.4565 46.0582 71.156 44.1527 73.4735 44.1698C75.9798 44.187 77.1815 46.3672 77.2502 48.616C77.2502 48.7018 77.3875 48.7018 77.3875 48.616C77.3188 46.2985 76.0657 44.0668 73.4907 44.0325C71.1045 44.0153 69.3535 45.9895 69.0788 48.2555C69.0617 48.3413 69.1818 48.3413 69.199 48.2555Z" fill="#202124"/>
<path d="M70.4001 50.264C70.5203 50.985 70.6919 51.7919 71.4301 52.1009C71.4988 52.1352 71.5674 52.015 71.4988 51.9979C70.7949 51.6889 70.6404 50.9164 70.5374 50.2297C70.5031 50.1439 70.3829 50.1782 70.4001 50.264Z" fill="#202124"/>
<path d="M72.1407 51.1721C72.2427 51.1507 72.3 51.0128 72.2687 50.8645C72.2373 50.716 72.1294 50.6132 72.0272 50.6347C71.9252 50.6561 71.8679 50.794 71.8991 50.9425C71.9304 51.0908 72.0385 51.1938 72.1407 51.1721Z" fill="#202124"/>
<path d="M71.5168 49.8005C71.6026 49.6975 71.7228 49.6117 71.8601 49.5945C72.0318 49.5602 72.1691 49.6632 72.3064 49.749C72.3751 49.8005 72.4438 49.6803 72.3751 49.646C72.2206 49.5258 72.0661 49.44 71.8773 49.4572C71.7056 49.4743 71.5511 49.5773 71.4309 49.7147C71.3794 49.7662 71.4653 49.8692 71.5168 49.8005Z" fill="#202124"/>
<path d="M69.6278 49.9722C69.748 49.8005 69.9883 49.8177 70.1085 49.9893C70.16 50.058 70.263 49.9893 70.2115 49.9207C70.0398 49.6632 69.6793 49.6632 69.5077 49.9035C69.4562 49.9722 69.5763 50.0408 69.6278 49.9722Z" fill="#202124"/>
<path d="M70.2499 51.363C70.3426 51.3435 70.3941 51.2149 70.3647 51.0757C70.3354 50.9364 70.2363 50.8396 70.1436 50.8592C70.0507 50.8788 69.9994 51.0073 70.0288 51.1466C70.0581 51.2858 70.1572 51.3826 70.2499 51.363Z" fill="#202124"/>
<path d="M72.5469 44.1527C72.6842 44.0497 73.5082 43.4488 74.5554 43.6892C75.5339 43.9123 76.3064 44.7878 76.4609 45.8865C76.2034 45.5603 75.6884 44.9938 74.8472 44.599C73.8515 44.1183 72.9589 44.1183 72.5469 44.1527Z" fill="white"/>
<path d="M70.6411 101.249C70.4179 101.421 69.3879 102.176 67.9459 102.004C66.8129 101.867 66.0748 101.232 65.8344 101.009L65.0791 94.7085H71.4651C71.1904 96.8887 70.9158 99.0688 70.6411 101.249Z" fill="#202124"/>
<path d="M68.2545 97.6612C70.0181 97.6612 71.4475 96.4853 71.4475 95.0347C71.4475 93.5841 70.0181 92.4082 68.2545 92.4082C66.4912 92.4082 65.0615 93.5841 65.0615 95.0347C65.0615 96.4853 66.4912 97.6612 68.2545 97.6612Z" fill="white" stroke="#202124" stroke-width="0.476852" stroke-miterlimit="10"/>
<path d="M74.1426 78.9323C73.8508 82.5545 70.9325 84.975 69.1643 87.8933C67.6708 90.3653 66.9498 93.4382 68.0485 96.1848C68.1171 96.3393 68.3575 96.2707 68.2888 96.1162C67.0013 92.8717 68.2716 89.4555 70.2115 86.7603C71.9625 84.3398 74.1426 82.0395 74.4001 78.9152C74.4173 78.7607 74.1598 78.7607 74.1426 78.9323Z" fill="#FFCA9D"/>
<path d="M68.5124 89.7645C69.3879 87.6702 69.1132 85.7132 68.2892 83.6532C67.3794 81.4043 67.4137 79.0697 68.8042 76.9925C68.89 76.8552 68.6669 76.7178 68.581 76.8552C67.4995 78.4688 67.1047 80.4602 67.5682 82.3485C67.8429 83.4815 68.478 84.5115 68.7012 85.6617C68.9759 87.0178 68.787 88.4083 68.272 89.6787C68.2034 89.8503 68.4609 89.9018 68.5124 89.7645Z" fill="#FFCA9D"/>
<path d="M66.1598 76.3402C66.4688 76.9925 66.0568 77.971 66.0053 78.6748C65.971 79.2585 66.0053 79.8593 66.1598 80.443C66.4173 81.4043 66.9495 82.2283 67.7392 82.8463C67.8765 82.9493 68.0482 82.7605 67.928 82.6575C66.8293 81.7992 66.2972 80.5288 66.2628 79.1555C66.2457 78.2113 66.8293 77.1127 66.4002 76.22C66.3143 76.0655 66.0912 76.2028 66.1598 76.3402Z" fill="#FFCA9D"/>
<path d="M66.2629 77.8508C66.0397 77.1298 65.8681 76.1685 65.9711 75.0527C66.2286 72.3918 67.9109 70.555 68.6834 69.7997C68.9409 70.5207 69.1984 71.585 69.0439 72.8382C68.7692 75.4818 66.9839 77.2328 66.2629 77.8508Z" fill="#FFCA9D"/>
<path d="M68.53 84.5973C68.4441 84.1338 68.3755 83.4472 68.4785 82.6403C68.53 82.2112 68.633 81.473 69.045 80.649C69.5428 79.6705 70.2466 79.0525 70.7101 78.7092C70.7616 79.3443 70.7788 80.5117 70.3153 81.8335C69.8003 83.224 68.9935 84.1338 68.53 84.5973Z" fill="#FFCA9D"/>
<path d="M67.9629 78.2972C68.0144 77.765 68.1861 76.632 68.9757 75.499C69.8341 74.263 70.9327 73.6793 71.4306 73.4562C71.3619 74.0055 71.1387 75.19 70.2804 76.3745C69.4564 77.4903 68.4607 78.0568 67.9629 78.2972Z" fill="#FFCA9D"/>
<path d="M67.706 92.2708C67.3627 91.8588 66.882 91.1893 66.573 90.2452C66.0409 88.5628 66.4357 87.1037 66.6245 86.5543C66.882 86.932 67.1395 87.3955 67.3627 87.9448C68.0837 89.7302 67.8949 91.3953 67.706 92.2708Z" fill="#FFCA9D"/>
<path d="M69.5938 87.447C69.8341 87.1723 70.6409 86.314 72.0314 86.0393C73.5078 85.7475 74.6408 86.3312 74.9498 86.5028C74.6751 86.7775 73.5936 87.8418 71.8941 87.9277C70.8297 87.9963 69.9886 87.653 69.5938 87.447Z" fill="#FFCA9D"/>
<path d="M72.1693 79.1898C71.9118 79.6533 71.2766 80.958 71.62 82.5717C71.7401 83.1553 71.9633 83.6188 72.1693 83.9622C72.3925 83.6017 72.8045 82.7948 72.8216 81.6962C72.856 80.4602 72.3925 79.5675 72.1693 79.1898Z" fill="#FFCA9D"/>
<path d="M11.5537 36.9083C12.1717 35.638 13.2704 33.9042 15.2102 32.6167C18.9697 30.1618 24.2914 30.488 28.892 33.3205C30.1624 32.1188 31.9992 30.694 34.4197 29.561C40.0847 26.9173 45.4235 27.5868 47.7067 28.016C46.9342 26.677 44.1189 22.2137 38.574 20.4627C33.3725 18.8318 28.9607 20.5828 26.4029 21.5957C16.9269 25.3552 12.721 34.1788 11.5537 36.9083Z" fill="#F99E51"/>
<path d="M29.3896 55.9118L33.4067 63.9802C36.8056 64.1175 40.1875 64.2377 43.5865 64.375C45.4748 61.6627 47.3631 58.9332 49.2686 56.2208C47.9125 53.5772 46.5563 50.9335 45.183 48.2898C42.3162 48.9937 39.4665 49.6803 36.5996 50.3842C34.1963 52.221 31.793 54.0578 29.3896 55.9118Z" fill="white" stroke="#202124" stroke-width="0.476852" stroke-miterlimit="10"/>
<path d="M29.338 56.032C31.8786 55.6543 34.4193 55.2938 36.96 54.9848C37.0458 54.9677 37.0458 54.8475 36.96 54.8475C34.4021 55.1737 31.8615 55.517 29.3036 55.9118C29.2178 55.929 29.2521 56.0492 29.338 56.032Z" fill="#202124"/>
<path d="M45.0629 48.41C43.9642 49.749 42.8655 51.0709 41.7669 52.4099C41.7154 52.4785 41.8012 52.5644 41.8527 52.4957C42.9514 51.1567 44.05 49.8349 45.1487 48.4959C45.2002 48.4444 45.1144 48.3414 45.0629 48.41Z" fill="#202124"/>
<path d="M39.8096 55.7917C41.1315 58.5555 42.3503 61.3708 43.449 64.2377C43.4833 64.3063 43.6035 64.2892 43.5691 64.2033C42.4705 61.3365 41.2516 58.504 39.9126 55.723C39.8783 55.6543 39.7753 55.723 39.8096 55.7917Z" fill="#202124"/>
<path d="M29.4407 55.9633C31.1917 57.4912 33.0457 58.8988 34.9855 60.1692C35.0542 60.2207 35.1229 60.1005 35.0542 60.0662C33.1144 58.7958 31.2775 57.3882 29.5265 55.8775C29.475 55.8088 29.3892 55.9118 29.4407 55.9633Z" fill="#202124"/>
<path d="M39.1406 54.384C39.1406 54.4012 39.1406 54.4183 39.1406 54.4355C39.1406 54.5213 39.278 54.5213 39.278 54.4355C39.278 54.4183 39.278 54.4012 39.278 54.384C39.2608 54.3153 39.1406 54.3153 39.1406 54.384Z" fill="#202124"/>
<path d="M35.5011 59.9975C36.8745 58.3838 38.0933 56.65 39.1405 54.8132C39.1748 54.7445 39.0718 54.6758 39.0375 54.7445C37.9903 56.5813 36.7715 58.298 35.4153 59.9117C35.3638 59.9632 35.4496 60.0662 35.5011 59.9975Z" fill="#202124"/>
<path d="M33.4926 63.6712C34.0763 62.7442 34.6599 61.8172 35.2436 60.8902C35.2951 60.8215 35.1749 60.7528 35.1406 60.8215C34.5569 61.7485 33.9733 62.6755 33.3896 63.6025C33.3381 63.6712 33.4583 63.7398 33.4926 63.6712Z" fill="#202124"/>
<path d="M36.3077 60.7013C38.5909 61.903 40.8741 63.1047 43.1572 64.2892C43.2259 64.3235 43.2946 64.2205 43.2259 64.1862C40.9427 62.9845 38.6596 61.7828 36.3764 60.5983C36.3077 60.5468 36.2391 60.667 36.3077 60.7013Z" fill="#202124"/>
<path d="M39.8437 54.5728C41.5432 54.7617 43.2427 54.9677 44.9593 55.1565C44.9937 55.1565 45.028 55.1222 45.028 55.0878C45.1997 52.942 45.3542 50.779 45.5258 48.6332C45.5258 48.5473 45.4057 48.5473 45.3885 48.6332C45.2512 50.5043 45.0967 52.3755 44.9593 54.2295C44.9078 54.8647 44.7362 54.9848 44.101 54.9162C43.6547 54.8647 43.1912 54.8132 42.7448 54.7617C41.7835 54.6587 40.8222 54.5385 39.8437 54.4355C39.7578 54.4355 39.7578 54.5728 39.8437 54.5728Z" fill="#202124"/>
<path d="M43.6726 64.1175C44.0675 62.3837 44.4966 60.667 44.943 58.9503C45.0631 58.5212 45.1661 58.092 45.2863 57.6628C45.4751 56.9762 45.4065 56.5985 46.2476 56.3753C47.0545 56.1522 48.0501 56.1865 48.8913 56.1007C48.9771 56.1007 48.9771 55.9633 48.8913 55.9633C47.9128 56.0663 46.8656 56.0663 45.9043 56.2723C45.3378 56.3925 45.355 56.9418 45.2176 57.4568C44.6168 59.6542 44.0503 61.8515 43.5525 64.066C43.5353 64.169 43.6555 64.2033 43.6726 64.1175Z" fill="#202124"/>
<path d="M11.3818 37.389L29.3897 55.9118" stroke="#202124" stroke-width="0.476852" stroke-miterlimit="10"/>
<path d="M38.9342 54.3668L33.1318 34.1102" stroke="#202124" stroke-width="0.476852" stroke-miterlimit="10"/>
<path d="M45.1826 48.2898L47.7061 27.9988" stroke="#202124" stroke-width="0.476852" stroke-miterlimit="10"/>
<path d="M36.5994 50.3842L28.8916 33.3205" stroke="#202124" stroke-width="0.476852" stroke-miterlimit="10"/>
<path d="M11.382 37.389C11.7768 36.1702 13.2188 32.2905 17.0813 30.282C21.9051 27.7585 28.5486 29.2005 33.1321 34.1102C33.1493 33.5608 33.3038 29.6125 36.4453 27.2778C39.5353 24.9775 44.2218 25.1663 47.7238 28.016C47.8096 26.4882 48.0843 18.8833 42.5566 13.3385C36.1363 6.91821 25.287 6.69504 17.9568 11.7592C10.1631 17.1667 7.21048 27.9817 11.382 37.389Z" fill="#FFCA9D"/>
</g>
</g>
<defs>
<clipPath id="clip0_520_564">
<rect width="103" height="103" fill="white"/>
</clipPath>
</defs>
</svg>
