<svg width="125" height="125" viewBox="0 0 125 125" fill="none" xmlns="http://www.w3.org/2000/svg">
<path d="M11.7709 68.6667C25.8751 66.4792 40.1667 67.9167 54.2709 69.3542C61.3126 70.0833 68.3751 70.7917 75.4376 71.0834C82.6459 71.375 89.8334 71 97.0209 70.5625C105.208 70.0625 113.417 69.5834 121.604 70.25C121.708 70.25 121.708 70.1042 121.604 70.0833C107 68.875 92.4376 71.3334 77.8334 70.9792C63.6042 70.625 49.5209 68.2917 35.3126 67.5625C27.4376 67.1667 19.5209 67.2708 11.7084 68.5C11.6251 68.5208 11.6667 68.6667 11.7709 68.6667Z" fill="#0C0C0C"/>
<path d="M80.6045 15.5208C80.6045 12.9167 78.667 10.8125 76.292 10.8125C73.917 10.8125 71.9795 12.9167 71.9795 15.5208C71.9795 17.6667 73.292 19.4792 75.0837 20.0417V22.0209H77.417V20.0625C79.2503 19.5208 80.6045 17.7083 80.6045 15.5208Z" fill="white" stroke="#0C0C0C" stroke-width="0.478316" stroke-miterlimit="10"/>
<path d="M78.1257 21.7916H74.459V23.6458H78.1257V21.7916Z" fill="#F27777"/>
<path d="M74.4375 22.375H78.1458" stroke="#0C0C0C" stroke-width="0.478316" stroke-miterlimit="10"/>
<path d="M74.459 23.1041H78.0423" stroke="#0C0C0C" stroke-width="0.478316" stroke-miterlimit="10"/>
<path d="M76.291 21.625V15.0209" stroke="#0C0C0C" stroke-width="0.478316" stroke-miterlimit="10"/>
<path d="M74.7705 14.7084L76.2497 17.3125" stroke="#0C0C0C" stroke-width="0.478316" stroke-miterlimit="10"/>
<path d="M77.8122 14.6666L76.333 17.2708" stroke="#0C0C0C" stroke-width="0.478316" stroke-miterlimit="10"/>
<path d="M67.1875 12.0624L70.25 12.6666" stroke="#0C0C0C" stroke-width="0.478316" stroke-miterlimit="10"/>
<path d="M70.083 8.27075L71.6038 10.0624" stroke="#0C0C0C" stroke-width="0.478316" stroke-miterlimit="10"/>
<path d="M73.7705 6.12494L74.3955 8.74994" stroke="#0C0C0C" stroke-width="0.478316" stroke-miterlimit="10"/>
<path d="M77.292 8.60415L77.792 6.64581" stroke="#0C0C0C" stroke-width="0.478316" stroke-miterlimit="10"/>
<path d="M79.417 10.2709L81.6878 7.62506" stroke="#0C0C0C" stroke-width="0.478316" stroke-miterlimit="10"/>
<path d="M81.083 12.1458L84.6247 10.5833" stroke="#0C0C0C" stroke-width="0.478316" stroke-miterlimit="10"/>
<path d="M81.6875 14.2083L83.8333 14.0625" stroke="#0C0C0C" stroke-width="0.478316" stroke-miterlimit="10"/>
<path d="M82 15.9791L83.3542 16.6041" stroke="#0C0C0C" stroke-width="0.478316" stroke-miterlimit="10"/>
<path d="M67.958 16.4374L70.5205 15.4583" stroke="#0C0C0C" stroke-width="0.478316" stroke-miterlimit="10"/>
<path d="M71.1247 17.375L69.708 18.9583" stroke="#0C0C0C" stroke-width="0.478316" stroke-miterlimit="10"/>
<path d="M39.625 78.6041L18.3333 87.5208L10.25 76.9166L30.0416 70.2083L39.625 78.6041Z" fill="white" stroke="#0C0C0C" stroke-width="0.478316" stroke-miterlimit="10"/>
<path d="M60.7715 109.792C60.8965 109.188 61.1673 108.271 61.7506 107.333C62.1673 106.646 62.6256 106.167 62.9798 105.854C63.2923 105.875 65.0215 106.042 65.834 107.625C66.209 108.375 66.459 109.583 66.084 109.979C65.7923 110.292 65.4381 109.875 64.459 109.979C63.6465 110.063 63.4798 110.396 62.834 110.479C62.334 110.521 61.6465 110.438 60.7715 109.792Z" fill="white" stroke="#0C0C0C" stroke-width="0.478316" stroke-miterlimit="10"/>
<path d="M16.9795 104.771C16.9379 104.542 17.0004 104.354 18.7504 102.625C19.417 101.958 19.6879 101.708 20.1045 101.708C20.6254 101.729 21.0004 102.146 21.167 102.354C22.042 102.167 22.8545 102.312 23.2295 102.792C23.5212 103.146 23.4795 103.562 23.4587 103.646C23.292 105.042 20.4795 106.479 18.417 105.854C18.2087 105.792 17.1045 105.437 16.9795 104.771Z" fill="white" stroke="#0C0C0C" stroke-width="0.478316" stroke-miterlimit="10"/>
<path d="M6.24976 87.875C5.81226 86.875 6.24976 85.2083 7.22893 85.1458C7.72893 85.125 7.83309 85.5208 8.52059 85.5833C9.60393 85.6875 10.0414 84.8125 10.7498 85.0208C11.2914 85.1875 11.4998 85.8542 11.7289 86.6458C11.9581 87.3542 12.1039 87.8333 11.9164 88.2083C11.2498 89.5417 6.95809 89.4792 6.24976 87.875Z" fill="white" stroke="#0C0C0C" stroke-width="0.478316" stroke-miterlimit="10"/>
<path d="M60.8126 109.75C61.1876 109.021 61.5209 107.937 62.1042 107.312C62.7084 106.667 63.4167 107.146 63.9376 107.5C64.1251 107.625 65.4167 108.917 64.6042 108.812C64.2292 108.771 63.8334 108.229 63.3751 108.5C63.2293 108.583 63.2709 108.625 63.1876 108.75C63.1459 108.792 63.1667 108.875 63.1459 108.917C62.9584 109.437 62.7084 109.875 62.0834 109.875C61.9792 109.875 61.9792 110.021 62.0834 110.042C62.4584 110.042 62.7709 109.917 63.0209 109.625C63.1459 109.479 63.1459 109.354 63.2501 109.208C63.2709 108.833 63.5417 108.667 64.0209 108.687C64.2501 108.771 64.4376 108.875 64.6251 109.021C65.1459 109.167 65.3126 108.917 65.0626 108.417C64.8334 107.979 64.4376 107.646 64.0417 107.375C63.7292 107.167 63.0209 106.646 62.6042 106.708C62.2709 106.75 62.0001 107.208 61.8542 107.479C61.4167 108.187 61.0834 108.958 60.7084 109.687C60.6251 109.75 60.7501 109.833 60.8126 109.75Z" fill="#0C0C0C"/>
<path d="M62.167 109.833C61.8337 109.458 61.8545 108.896 62.1462 108.5C62.3545 108.188 62.8962 107.813 63.292 107.813C63.3754 107.771 63.4587 107.792 63.5212 107.896C63.5004 108.25 63.3129 108.417 62.9171 108.458C62.7921 108.479 62.7504 108.458 62.6462 108.521C62.4796 108.604 62.3962 108.708 62.3754 108.896C62.3545 109 62.5004 109.042 62.5212 108.938C62.5421 108.771 62.9587 108.646 63.0837 108.625C63.1462 108.604 63.2087 108.604 63.2504 108.583C63.3546 108.542 63.4379 108.458 63.5212 108.375C63.667 108.167 63.7295 107.896 63.6254 107.667C63.6045 107.646 63.5837 107.625 63.5629 107.625C63.0212 107.583 62.3129 107.979 62.0212 108.438C61.7087 108.896 61.6879 109.542 62.0629 109.958C62.1254 110.021 62.2295 109.917 62.167 109.833Z" fill="#0C0C0C"/>
<path d="M21.0627 102.437C21.1461 102.625 21.2294 102.771 21.3544 102.917C21.4794 103.042 21.7919 103.167 21.8544 103.271C22.1669 103.875 21.6877 104.021 21.2294 104.187C21.0211 104.271 20.7294 104.375 20.5002 104.417C20.0419 104.479 19.7919 104.167 19.3336 104.208C18.9794 104.25 18.7294 104.479 18.5211 104.729C18.3127 104.979 18.0211 105.312 18.3544 105.521C18.4377 105.562 18.7502 105.542 18.7711 105.542C19.1461 105.542 19.3752 105.583 19.7502 105.604C20.1461 105.646 20.2502 105.542 20.6461 105.312C20.7294 105.271 20.6461 105.125 20.5627 105.187C20.0836 105.479 19.7711 105.396 19.2711 105.375C19.0836 105.354 18.4586 105.5 18.3752 105.208C18.3544 105.125 18.7086 104.708 18.7502 104.667C19.4586 104.083 19.7086 104.583 20.2502 104.604C20.5836 104.604 21.0211 104.417 21.3336 104.292C21.6252 104.187 22.2502 104.062 22.2711 103.646C22.2711 103.521 22.2086 103.458 22.1461 103.354C21.8544 102.958 21.3752 102.896 21.1252 102.354C21.1461 102.271 21.0211 102.354 21.0627 102.437Z" fill="#0C0C0C"/>
<path d="M6.2498 86.6458C6.85397 86 7.52064 86.1666 8.1873 86.625C8.66647 86.9583 9.1248 87.3333 9.54147 87.7083C10.1873 88.2916 9.7498 88.125 9.08314 88C8.45814 87.875 7.85397 87.6666 7.2498 87.4166C7.20814 87.3958 7.1248 87.4166 7.1248 87.4791C7.14564 87.9791 7.3748 88.2916 7.8123 88.5208C7.89564 88.5625 7.97897 88.4375 7.89564 88.3958C7.5623 88.2708 7.41647 88.0416 7.4373 87.6666C7.52064 87.7083 7.6248 87.75 7.70814 87.7708C7.95814 87.7916 8.27064 87.9583 8.4998 88.0208C9.04147 88.1666 9.60397 88.25 10.1665 88.2916C10.229 88.2916 10.2706 88.2083 10.229 88.1667C9.4998 87.4375 8.64564 86.6458 7.72897 86.1458C7.0623 85.7916 6.60397 86.0208 6.1248 86.5416C6.08314 86.6041 6.1873 86.7083 6.2498 86.6458Z" fill="#0C0C0C"/>
<path d="M9.74935 87.0625C9.83268 87 9.87435 86.9375 9.91602 86.8541C9.99935 86.6875 9.99935 86.5416 10.2493 86.625C10.6243 86.75 10.9785 87.1666 11.1868 87.5C11.2493 87.5833 11.3743 87.5 11.3118 87.4166C11.0827 87.0416 10.666 86.5833 10.2285 86.4375C9.83268 86.3125 9.89518 86.7708 9.66602 86.9375C9.60352 87 9.66601 87.125 9.74935 87.0625Z" fill="#0C0C0C"/>
<path d="M14.8535 78.0208L19.0618 83.25" stroke="#F6D47B" stroke-opacity="0.9" stroke-width="0.637755" stroke-miterlimit="10"/>
<path d="M18.125 75.0416L23.7917 82.0416" stroke="#F6D47B" stroke-opacity="0.9" stroke-width="0.637755" stroke-miterlimit="10"/>
<path d="M22.417 75.7916L25.4587 79.7083" stroke="#F6D47B" stroke-opacity="0.9" stroke-width="0.637755" stroke-miterlimit="10"/>
<path d="M25.084 73.3959L29.0632 78.5418" stroke="#F6D47B" stroke-opacity="0.9" stroke-width="0.637755" stroke-miterlimit="10"/>
<path d="M80.9372 106.917L67.458 104.937L78.208 95.5208L90.333 96.9166L80.9372 106.917Z" fill="white" stroke="#0C0C0C" stroke-width="0.478316" stroke-miterlimit="10"/>
<path d="M52.3958 111.708H29.0625L34 99.9792H57.3333L52.3958 111.708Z" fill="white" stroke="#0C0C0C" stroke-width="0.478316" stroke-miterlimit="10"/>
<path d="M73.375 103.708L78.25 104.437" stroke="#F6D47B" stroke-opacity="0.9" stroke-width="0.637755" stroke-miterlimit="10"/>
<path d="M74.2715 101.438L82.8548 102.646" stroke="#F6D47B" stroke-opacity="0.9" stroke-width="0.637755" stroke-miterlimit="10"/>
<path d="M74.7295 99.7917L84.417 101.229" stroke="#F6D47B" stroke-opacity="0.9" stroke-width="0.637755" stroke-miterlimit="10"/>
<path d="M77.75 98L86.0833 99.1875" stroke="#F6D47B" stroke-opacity="0.9" stroke-width="0.637755" stroke-miterlimit="10"/>
<path d="M54.2708 102.292L51.625 108.208" stroke="#F6D47B" stroke-opacity="0.9" stroke-width="0.637755" stroke-miterlimit="10"/>
<path d="M52.0622 100.979L47.708 109.792" stroke="#F6D47B" stroke-opacity="0.9" stroke-width="0.637755" stroke-miterlimit="10"/>
<path d="M48.5003 101.708L45.542 107.854" stroke="#F6D47B" stroke-opacity="0.9" stroke-width="0.637755" stroke-miterlimit="10"/>
<path d="M44.9378 101.708L41.3545 109.167" stroke="#F6D47B" stroke-opacity="0.9" stroke-width="0.637755" stroke-miterlimit="10"/>
<path d="M36.1045 100.354L32.2295 109.542" stroke="#F6D47B" stroke-opacity="0.9" stroke-width="0.637755" stroke-miterlimit="10"/>
<path d="M38.6462 101.708L36.1045 107.875" stroke="#F6D47B" stroke-opacity="0.9" stroke-width="0.637755" stroke-miterlimit="10"/>
<path d="M110.938 102.479L95.3125 98.2708L110 84.0208L122.896 84.8125L110.938 102.479Z" fill="white" stroke="#0C0C0C" stroke-width="0.478316" stroke-miterlimit="10"/>
<path d="M110.729 100.166L98.708 97.1456L110.187 85.1042L120.687 85.625L110.729 100.166Z" fill="white" stroke="#0C0C0C" stroke-width="0.478316" stroke-miterlimit="10"/>
<path d="M100.438 97.5833L112.042 85.1875" stroke="#0C0C0C" stroke-width="0.478316" stroke-miterlimit="10"/>
<path d="M102.916 98.2083L114.312 85.3125" stroke="#0C0C0C" stroke-width="0.478316" stroke-miterlimit="10"/>
<path d="M105.416 98.8334L116.333 85.4167" stroke="#0C0C0C" stroke-width="0.478316" stroke-miterlimit="10"/>
<path d="M107.896 99.4583L118.312 85.5" stroke="#0C0C0C" stroke-width="0.478316" stroke-miterlimit="10"/>
<path d="M100.292 95.4791L112.375 97.7708" stroke="#0C0C0C" stroke-width="0.478316" stroke-miterlimit="10"/>
<path d="M103.792 94.0209L113.813 95.6667" stroke="#0C0C0C" stroke-width="0.478316" stroke-miterlimit="10"/>
<path d="M105.562 92.125L115.458 93.25" stroke="#0C0C0C" stroke-width="0.478316" stroke-miterlimit="10"/>
<path d="M107.459 90.0834L116.938 91.1042" stroke="#0C0C0C" stroke-width="0.478316" stroke-miterlimit="10"/>
<path d="M107.354 88.0624L118.374 88.979" stroke="#0C0C0C" stroke-width="0.478316" stroke-miterlimit="10"/>
<path d="M108.791 86.5416L119.583 87.2291" stroke="#0C0C0C" stroke-width="0.478316" stroke-miterlimit="10"/>
<path d="M122.896 84.8125L110.937 102.479L98.708 87.1875L113.75 72.2292L122.896 84.8125Z" fill="white" stroke="#0C0C0C" stroke-width="0.478316" stroke-miterlimit="10"/>
<path d="M110.854 87.8333C110.313 87.625 109.771 87.0208 109.854 86.375C110.083 84.6667 110.875 85.7708 111.313 85.875C111.708 85.9583 112.083 86.1458 112.458 85.875C112.771 85.6458 112.813 85.3125 112.75 84.9375C112.688 84.5208 112.396 84.1042 112.604 83.6667C113.292 82.2708 114.313 83.7083 114.604 84.3333C114.771 84.7083 115.313 84.375 115.146 84.0208C114.708 83.0833 113.625 81.9375 112.521 82.7292C112.188 82.9583 112 83.3541 111.938 83.7291C111.896 83.9583 111.896 84.1667 111.938 84.3958C111.979 84.5833 112.021 84.7708 112.104 84.9375C111.896 85.3958 111.625 85.4583 111.313 85.1458C110.396 84.7083 109.5 84.9166 109.271 86.0208C109.042 87.0833 109.729 88.0416 110.688 88.4166C111.063 88.5833 111.229 87.9792 110.854 87.8333Z" fill="#F6D47B" fill-opacity="0.9"/>
<path d="M95.3125 98.2709C95.3958 98.3959 95.5417 98.5625 95.7708 98.7292C96.2083 99.0417 96.625 99.0834 97.2083 99.1667C97.7083 99.25 98.2083 99.375 98.7083 99.4375C100.417 99.6459 103.313 100.583 106.063 101.313C107.229 101.625 108.896 102.042 110.938 102.458" fill="#0C0C0C"/>
<path d="M98.7083 87.1875C98.6458 87.3125 98.5833 87.4167 98.5 87.5417C106.729 97.5417 110.875 102.542 110.938 102.5C110.979 102.438 106.896 97.3542 98.7083 87.1875Z" fill="#0C0C0C"/>
<path d="M94.7919 85.1875L72.1461 93.0208C71.9794 93.0833 71.7711 93.0625 71.6253 92.9583L59.6878 84.5625C59.2919 84.2917 59.3961 83.6667 59.8753 83.5417L81.1461 78.0833C81.2711 78.0417 81.4169 78.0625 81.5211 78.125L94.8336 84.1458C95.2919 84.3333 95.2711 85.0208 94.7919 85.1875Z" fill="#F27777"/>
<path d="M93.9792 84.2917L72.25 91.875C72.0834 91.9375 71.8959 91.9167 71.75 91.8125L60.2917 83.6875C59.9167 83.4167 60.0209 82.8334 60.4792 82.7084C62.1459 81.8125 64.8542 80.6459 68.3334 80.5C69.5834 80.4375 70.7292 80.5417 71.7084 80.6875C72.9376 80.0208 74.4167 79.2917 76.1667 78.6875C77.9167 78.0625 79.5209 77.6875 80.8959 77.4375C80.9375 77.4167 81.0001 77.4167 81.0834 77.4167C81.1459 77.4167 81.2084 77.4375 81.2709 77.4583L94.0417 83.2917C94.4792 83.4792 94.4376 84.125 93.9792 84.2917Z" fill="white"/>
<path d="M60.1253 83.0625C63.5628 80.6666 67.7503 80.3125 71.8128 80.8125C71.917 80.8333 71.917 80.6666 71.8128 80.6458C67.7295 80.1458 63.5003 80.5 60.042 82.9166C59.9795 83 60.042 83.125 60.1253 83.0625Z" fill="#0C0C0C"/>
<path d="M60.3119 83.2499C64.1244 85.6666 67.8744 88.1874 71.5619 90.7916C71.6452 90.8541 71.7285 90.7083 71.6452 90.6666C67.9577 88.0624 64.2077 85.5416 60.3952 83.1249C60.3119 83.0624 60.2285 83.1874 60.3119 83.2499Z" fill="#0C0C0C"/>
<path d="M65.5835 87.25C67.6044 88.5625 69.5835 89.9375 71.5419 91.3333C71.6252 91.3958 71.7085 91.25 71.6252 91.2083C69.6669 89.8125 67.6877 88.4375 65.6669 87.125C65.5627 87.0417 65.5002 87.1875 65.5835 87.25Z" fill="#0C0C0C"/>
<path d="M71.7292 80.75C74.6042 78.9375 77.8333 77.8334 81.2292 77.5209C81.3333 77.5209 81.3333 77.3542 81.2292 77.3542C77.8125 77.6667 74.5625 78.7709 71.6458 80.6042C71.5625 80.6667 71.6458 80.8125 71.7292 80.75Z" fill="#0C0C0C"/>
<path d="M72.375 81.125C75.8959 83.25 79.3334 85.5209 82.6875 87.8959C82.7709 87.9584 82.8542 87.8125 82.7709 87.7709C79.4167 85.3959 75.9584 83.1459 72.4584 81C72.3542 80.9375 72.2709 81.0834 72.375 81.125Z" fill="#0C0C0C"/>
<path d="M72.0418 90.6875C75.0001 88.9792 78.2709 88 81.6876 87.7917C81.7918 87.7917 81.7918 87.625 81.6876 87.625C78.2501 87.8125 74.9584 88.8125 71.9793 90.5417C71.8751 90.6042 71.9584 90.75 72.0418 90.6875Z" fill="#0C0C0C"/>
<path d="M83.1247 87.4791C86.2497 85.8958 89.5205 84.6458 92.9164 83.75C93.0205 83.7291 92.9789 83.5833 92.8747 83.6041C89.458 84.5 86.1872 85.75 83.0414 87.3333C82.958 87.3958 83.0414 87.5208 83.1247 87.4791Z" fill="#0C0C0C"/>
<path d="M72.7707 90.9375C74.9582 90.0209 77.1873 89.2084 79.4373 88.5C79.5415 88.4792 79.4999 88.3125 79.3957 88.3542C77.1457 89.0625 74.9165 89.875 72.729 90.7917C72.6457 90.8334 72.6873 90.9792 72.7707 90.9375Z" fill="#0C0C0C"/>
<path d="M76.9162 89.9583C78.1454 89.5 79.3954 89.0833 80.6245 88.6667C80.7287 88.625 80.687 88.4792 80.5829 88.5208C79.3329 88.9375 78.1037 89.375 76.8745 89.8125C76.7912 89.8542 76.8329 90 76.9162 89.9583Z" fill="#0C0C0C"/>
<path d="M84.4792 87.2916C86.0417 86.625 87.625 86.0208 89.2083 85.4375C89.2917 85.3958 89.2708 85.25 89.1667 85.2916C87.5625 85.8958 85.9792 86.5 84.3958 87.1666C84.3125 87.2083 84.3958 87.3333 84.4792 87.2916Z" fill="#0C0C0C"/>
<path d="M89.1047 85.875C90.4797 85.3333 91.8547 84.8125 93.2505 84.2708C93.3338 84.2291 93.313 84.0833 93.2088 84.125C91.8338 84.6666 90.4588 85.1875 89.063 85.7291C88.9797 85.75 89.0213 85.8958 89.1047 85.875Z" fill="#0C0C0C"/>
<path d="M70.8338 88.5833C73.3546 87.375 76.0213 86.5833 78.8129 86.2292C78.9171 86.2083 78.9171 86.0625 78.8129 86.0625C76.0004 86.4167 73.3129 87.2292 70.7713 88.4375C70.6671 88.4792 70.7504 88.625 70.8338 88.5833Z" fill="#0C0C0C"/>
<path d="M74.7497 88.1667C75.3747 87.8959 76.0205 87.7292 76.6872 87.6459C76.7914 87.625 76.7914 87.4792 76.6872 87.4792C75.9789 87.5625 75.3122 87.75 74.6664 88.0209C74.583 88.0834 74.6664 88.2084 74.7497 88.1667Z" fill="#0C0C0C"/>
<path d="M67.5203 85.4167C69.2286 84.3334 71.1036 83.75 73.1245 83.7084C73.2286 83.7084 73.2286 83.5417 73.1245 83.5417C71.0828 83.5834 69.1661 84.1667 67.4578 85.2709C67.3536 85.3334 67.437 85.4792 67.5203 85.4167Z" fill="#0C0C0C"/>
<path d="M70.0629 86.1666C71.0838 85.7291 72.1254 85.3958 73.1879 85.1458C73.2921 85.125 73.2504 84.9791 73.1463 85C72.0838 85.25 71.0421 85.5833 70.0213 86.0208C69.9171 86.0625 69.9588 86.2083 70.0629 86.1666Z" fill="#0C0C0C"/>
<path d="M75.0212 81.4375C77.292 80.1042 79.7712 79.25 82.3962 78.8959C82.5003 78.875 82.5003 78.7292 82.3962 78.7292C79.7503 79.0834 77.2503 79.9375 74.9378 81.2917C74.8545 81.3542 74.9378 81.4792 75.0212 81.4375Z" fill="#0C0C0C"/>
<path d="M79.7917 81.1666C80.75 80.75 81.7292 80.4166 82.75 80.1875C82.8542 80.1666 82.8125 80.0208 82.7083 80.0416C81.6667 80.2708 80.6667 80.6041 79.7083 81.0416C79.625 81.0625 79.7083 81.2083 79.7917 81.1666Z" fill="#0C0C0C"/>
<path d="M80.0632 83.6458C81.5007 82.6875 83.0632 81.9792 84.7298 81.5208C84.834 81.5 84.7923 81.3333 84.6882 81.375C83.0007 81.8333 81.4382 82.5417 79.9798 83.5208C79.8965 83.5625 79.9798 83.7083 80.0632 83.6458Z" fill="#0C0C0C"/>
<path d="M84.4372 84.9375C86.083 83.9792 87.8539 83.3125 89.7289 82.9584C89.833 82.9375 89.7914 82.7917 89.6872 82.8125C87.7914 83.1667 86.0205 83.8334 84.3539 84.8125C84.2705 84.8542 84.3539 85 84.4372 84.9375Z" fill="#0C0C0C"/>
<path d="M82.5835 77.3541C85.7919 78.75 88.8752 80.3333 91.8752 82.1458C91.9585 82.1875 92.0419 82.0625 91.9585 82.0208C88.9794 80.2291 85.8752 78.625 82.6669 77.2291C82.5627 77.1875 82.5002 77.3333 82.5835 77.3541Z" fill="#0C0C0C"/>
<path d="M54.625 88.2291L41.875 95.5208L41.625 95.0625L54.375 87.7708L54.625 88.2291Z" fill="#FFCA9D"/>
<path d="M42.1245 94.8541C42.2495 94.8958 42.3537 95.0208 42.3537 95.1666C42.3537 95.2708 42.5204 95.2708 42.5204 95.1666C42.5204 94.9583 42.3745 94.7708 42.1662 94.7083C42.0829 94.6667 42.0412 94.8333 42.1245 94.8541Z" fill="white"/>
<path d="M54.4584 87.7291C54.7709 87.625 55.0626 87.5208 55.3751 87.4375C55.4793 87.4166 55.4376 87.2708 55.3335 87.2916C55.021 87.375 54.7085 87.4791 54.4168 87.5833C54.3126 87.6041 54.3543 87.75 54.4584 87.7291Z" fill="black"/>
<path d="M54.875 88.1667C55.1042 87.9792 55.3125 87.7708 55.5 87.5417C55.5625 87.4583 55.4584 87.3542 55.3959 87.4375C55.2084 87.6667 55 87.8542 54.7709 88.0625C54.6875 88.125 54.7917 88.2292 54.875 88.1667Z" fill="black"/>
<path d="M55.2077 87.4791C55.2494 87.5 55.2702 87.5416 55.3119 87.5625C55.3744 87.6041 55.4577 87.5625 55.4369 87.4791C55.4369 87.4583 55.4161 87.4166 55.4161 87.3958C55.4161 87.4166 55.3952 87.4375 55.3952 87.4791C55.4994 87.5 55.5411 87.3541 55.4369 87.3333C55.3744 87.3125 55.3327 87.3333 55.2702 87.375C55.2494 87.3958 55.2494 87.4166 55.2494 87.4583C55.2494 87.4791 55.2702 87.5208 55.2702 87.5416C55.3119 87.5208 55.3536 87.5 55.3952 87.4583C55.3536 87.4375 55.3327 87.3958 55.2911 87.375C55.2494 87.2916 55.1244 87.3958 55.2077 87.4791Z" fill="black"/>
<path d="M28.3331 86.4373C27.5623 86.9582 26.4373 87.7082 25.1039 88.6457C19.7706 92.354 17.104 94.2082 17.3956 94.979C17.8748 96.2915 25.2289 94.6665 26.2706 94.4373C29.6456 93.6873 32.3331 92.7082 34.1248 91.9582C34.3123 90.7498 34.4998 89.5207 34.6664 88.3123C32.5623 87.6665 30.4581 87.0623 28.3331 86.4373Z" fill="#F27777"/>
<path d="M23.3749 89.9791C24.1249 89.9999 24.6041 90.5833 24.9999 91.1458C25.0624 91.2291 25.1874 91.1458 25.1249 91.0624C24.6874 90.4374 24.1666 89.8333 23.3541 89.8124C23.2707 89.8333 23.2707 89.9791 23.3749 89.9791Z" fill="white"/>
<path d="M25.0003 88.8334C25.6461 89.125 26.1461 89.6042 26.4378 90.2292C26.4795 90.3125 26.6253 90.25 26.5628 90.1459C26.2503 89.5 25.7086 88.9792 25.0628 88.6875C24.9795 88.6459 24.917 88.7917 25.0003 88.8334Z" fill="white"/>
<path d="M26.438 87.875C27.1255 88.1667 27.6255 88.7292 27.8339 89.4583C27.8547 89.5625 28.0214 89.5208 27.9797 89.4167C27.7714 88.6667 27.2297 88.0417 26.5214 87.75C26.4172 87.7083 26.3547 87.8542 26.438 87.875Z" fill="white"/>
<path d="M26.4375 87.8958C26.0625 88.0208 25.3958 88.1458 25.0416 87.8333C25.1875 87.0208 25.4583 86.8542 25.8541 87.3125C25.9166 87.375 26 87.4167 26.0625 87.4792C26.25 87.6458 26.2708 87.7292 26.5 87.6667C26.5416 87.6458 26.5625 87.5833 26.6041 87.5625C26.8958 87.3333 27.1875 86.8125 27.6458 86.875C27.9791 86.75 28.0416 86.9583 27.875 87.4792C27.75 87.5625 27.6041 87.6458 27.4583 87.7292C27.1041 87.9167 26.75 88.0208 26.3541 88.125C26.25 88.1458 26.2916 88.2917 26.3958 88.2708C26.7708 88.1875 28.8333 87.5833 28.3333 86.8958C27.75 86.0417 26.7083 87.5625 26.1666 87.3958C25.75 87.2708 25.5625 86.7292 25.0208 86.8333C24.75 86.8958 24.5833 87.0833 24.5625 87.3542C24.5208 88.2708 25.875 88.2708 26.4583 88.0833C26.5625 88 26.5416 87.8542 26.4375 87.8958Z" fill="white"/>
<path d="M41.5215 52.3541C40.3132 52.7499 40.0423 53.8333 38.1882 57.0208C37.2298 58.6666 37.2923 58.3958 36.459 59.7916C35.3757 61.6458 34.2715 63.8333 32.6257 67.8958C31.9798 69.4999 30.5007 73.1874 28.7507 78.6458C27.6673 81.9791 26.8757 84.7708 26.334 86.7708C26.5423 87.0624 26.8757 87.4791 27.4173 87.7916C27.8548 88.0416 28.3548 88.1874 29.9173 88.2083C30.6048 88.2291 31.5215 88.2083 32.6048 88.1249C33.209 87.0624 34.1256 85.5208 35.2923 83.6666C35.9173 82.6666 36.6465 81.5416 39.2923 77.5833C40.1673 76.2708 41.334 74.5416 42.7298 72.4791C43.2715 72.8749 45.7507 74.5624 48.959 74.0208C52.459 73.4374 54.2507 70.6458 54.7923 69.7916C57.7507 65.1874 55.6673 59.8541 55.3965 59.2291C53.5215 57.6874 51.8757 56.6458 50.7298 55.9791C48.459 54.6874 48.1048 54.8541 46.2507 53.6041C45.7715 53.2708 45.1673 52.8541 44.2506 52.5624C43.6256 52.3749 42.5423 52.0416 41.5215 52.3541Z" fill="white"/>
<path d="M26.3959 86.8126C28.2292 80.3959 30.1876 74.0001 32.7501 67.8334C34.0626 64.6667 35.5417 61.5626 37.2501 58.5834C38.0626 57.1459 38.9376 55.7292 39.8751 54.3542C40.3126 53.7084 40.8334 52.7917 41.5834 52.4376C42.8542 51.8334 44.1251 52.5834 45.2709 53.1251C48.8751 54.7917 52.2501 56.8751 55.3959 59.3126C55.4792 59.3751 55.5834 59.2709 55.5001 59.2084C52.6459 57.0001 49.5834 55.0626 46.3542 53.4792C45.1251 52.8751 43.3542 51.6876 41.9167 52.1459C40.7084 52.5209 39.9792 53.9376 39.3334 54.9167C35.3126 61.0417 32.3751 67.8334 29.9792 74.7501C28.6042 78.7292 27.3959 82.7501 26.2501 86.7917C26.2292 86.8751 26.3751 86.9167 26.3959 86.8126Z" fill="#0C0C0C"/>
<path d="M47.6459 65.2708C42.4584 72.6875 37.4167 80.2083 32.5417 87.8333C32.4792 87.9166 32.6251 88 32.6667 87.9166C37.5417 80.2916 42.5834 72.7708 47.7709 65.3541C47.8334 65.2708 47.6875 65.2083 47.6459 65.2708Z" fill="#0C0C0C"/>
<path d="M26.9583 87.6041C28.5 88.7083 30.3333 88.4375 32.0833 88.0833C32.1875 88.0625 32.1458 87.9166 32.0417 87.9375C30.3333 88.2708 28.5625 88.5416 27.0417 87.4583C26.9583 87.3958 26.875 87.5416 26.9583 87.6041Z" fill="#0C0C0C"/>
<path d="M58.4161 56.2708C59.4369 56.1875 64.1869 55.9166 68.1453 59.3125C71.7911 62.4166 72.4577 66.6458 72.7077 68.1458C73.0411 70.2291 72.8744 71.9791 72.6869 73.1666C72.1244 73.6458 71.2494 74.2916 70.0827 74.8125C68.2286 75.625 66.6036 75.6875 65.5411 75.7291C60.6661 75.8541 58.2494 75.9166 54.6661 75.5208C48.3327 74.8333 45.1452 74.4375 44.5827 72.875C44.1036 71.5833 45.1661 70.0833 46.7286 68.1458C49.1661 65.1041 52.9369 60.8958 58.4161 56.2708Z" fill="white"/>
<path d="M51.1455 75.3333C55.2705 75.6875 59.4372 75.9375 63.583 75.875C66.7913 75.8333 70.1038 75.4167 72.7288 73.4375C72.8122 73.375 72.7288 73.25 72.6455 73.3125C69.8538 75.4375 66.3122 75.75 62.9163 75.75C58.9788 75.75 55.0622 75.5417 51.1455 75.2083C51.0622 75.1667 51.0622 75.3125 51.1455 75.3333Z" fill="#0C0C0C"/>
<path d="M61.3124 28.3959C61.2916 28.0625 61.2499 27.625 61.2291 27.1042C61.1666 26.0834 61.1249 25.4167 61.2499 24.6042C61.3332 23.9792 61.4582 23.625 61.7291 23.3959C61.9582 23.2084 62.2499 23.125 62.3332 23.1042C62.6041 23.0417 62.8332 23.0625 63.1249 23.1042C63.3541 23.125 63.5624 23.1875 63.6874 23.2084C63.9166 22.2709 64.2082 21.2917 64.4374 21.3125C64.6874 21.3334 64.7291 22.5417 64.7291 22.75C64.7499 23.5 64.6874 24.5834 64.2707 25.875C64.2499 26.1667 64.2291 26.6042 64.1041 27.1042C63.9374 27.875 63.8332 28.3542 63.4791 28.6042C62.7082 29.2084 61.3749 28.4375 61.3124 28.3959Z" fill="white"/>
<path d="M73.7288 34.4167C73.6247 34.3542 73.458 34.375 73.1247 34.3958C72.1872 34.4583 71.6039 34.8542 70.5622 35.3958C70.1039 35.6458 69.6247 35.8542 69.1455 36.1042C69.0205 36.1667 68.0622 36.6458 66.1664 37.5833C65.1664 38.0833 63.5205 38.8958 61.0622 40.0833C61.5622 38.0208 62.0622 35.9167 62.5622 33.7708C62.9372 32.125 63.2914 30.4792 63.6455 28.8542C63.5205 28.7292 63.333 28.5833 63.1247 28.4792C62.3539 28.1042 61.5622 28.3333 61.333 28.4167C61.1872 28.75 60.9372 29.3333 60.6455 30.0417C59.8747 31.8542 58.3747 35.3333 57.0205 38.9167C55.8539 42.0208 56.9789 39.3542 56.1455 41.875C55.8539 42.7708 55.6455 43.3125 55.8539 43.9583C56.1039 44.7708 56.8538 45.1875 56.958 45.25C57.4788 45.5417 57.958 45.5208 58.583 45.5208C61.1247 45.5 58.208 45.75 61.4997 45.6042C64.8747 45.4375 66.583 45.3542 66.9997 45.2292C70.2289 44.3125 72.0622 41.75 72.333 41.3542C74.1039 38.6458 74.6455 34.9375 73.7288 34.4167Z" fill="white"/>
<path d="M73.1047 34.3125C71.1672 34.6459 69.2714 35.9375 67.5214 36.8125C65.4797 37.8334 63.438 38.8542 61.3755 39.8542C61.2922 39.8959 61.3547 40.0417 61.4589 39.9792C63.3755 39.0208 65.313 38.0625 67.2297 37.125C68.1672 36.6667 69.0839 36.2084 70.0214 35.7292C71.0214 35.2292 72.0214 34.6458 73.1464 34.4583C73.2505 34.4375 73.2089 34.2917 73.1047 34.3125Z" fill="#0C0C0C"/>
<path d="M61.2499 39.8333C62.1041 36.1875 62.9374 32.5208 63.7291 28.8541C63.7499 28.75 63.6041 28.7083 63.5833 28.8125C62.7916 32.4791 61.9583 36.1458 61.1041 39.7916C61.0624 39.8958 61.2083 39.9375 61.2499 39.8333Z" fill="#0C0C0C"/>
<path d="M61.3334 28.4791C62.0418 28.25 62.7709 28.3333 63.4168 28.7083C63.5001 28.75 63.5834 28.625 63.5001 28.5833C62.8126 28.1875 62.0418 28.0833 61.2918 28.3333C61.1876 28.3541 61.2293 28.5 61.3334 28.4791Z" fill="#0C0C0C"/>
<path d="M60.9789 29.0208C59.9581 31.2708 58.9372 33.5208 58.0414 35.8125C57.1456 38.1042 56.0831 40.625 55.7706 43.0833C55.5414 44.8333 56.7289 45.375 58.2706 45.5C61.0414 45.75 63.8122 45.5208 66.5831 45.3125C66.6872 45.3125 66.6872 45.1458 66.5831 45.1458C64.4164 45.3125 62.2706 45.4792 60.1039 45.4167C59.1247 45.3958 57.9372 45.4583 56.9997 45.1042C55.3122 44.4583 56.0622 42.4375 56.3956 41.1458C57.5414 36.9583 59.3539 33 61.1247 29.0625C61.1456 29.0208 61.0206 28.9375 60.9789 29.0208Z" fill="#0C0C0C"/>
<path d="M63.6047 28.6666C63.7714 28.2291 63.9172 27.7708 64.0839 27.3333C64.2089 27 64.3756 26.625 64.3964 26.2708C64.3964 25.8333 64.1464 25.5625 63.7506 25.4166C63.5006 25.3333 62.8131 25.1875 62.6256 25.4791C62.3964 25.8541 63.0631 26.0208 63.2297 26.1666C63.3131 26.2291 63.4172 26.125 63.3339 26.0625C63.5006 26.2083 63.0839 25.8541 63.1464 25.9166C63.0839 25.8541 62.9172 25.6041 63.0214 25.5C63.0839 25.4375 63.4172 25.5208 63.4797 25.5416C63.9381 25.625 64.2714 25.75 64.2089 26.4583C64.1464 27.1666 63.6881 27.9583 63.4589 28.625C63.4381 28.7291 63.5839 28.7708 63.6047 28.6666Z" fill="#0C0C0C"/>
<path d="M61.2084 25.7084C61.2501 25.2084 61.2501 24.6875 61.3959 24.2084C61.4584 23.9375 61.5834 23.6667 61.7709 23.4584C62.0001 23.1459 62.2709 23.2084 62.5834 23.6459C62.5834 23.7917 62.5834 23.9584 62.5417 24.1042C62.5209 24.2084 62.6667 24.25 62.6876 24.1459C62.7501 23.8542 62.8126 23.3959 62.6042 23.1667C62.3959 22.9375 62.0417 23.0417 61.8334 23.2084C61.0834 23.75 61.1459 24.8959 61.0626 25.7292C61.0417 25.8125 61.1876 25.8125 61.2084 25.7084Z" fill="#0C0C0C"/>
<path d="M62.6455 23.1666C62.8747 22.9791 63.1455 23.1875 63.2289 23.4166C63.3122 23.6458 63.2705 23.875 63.2289 24.1041C63.208 24.2083 63.3539 24.25 63.3747 24.1458C63.4372 23.8125 63.4997 23.4166 63.2497 23.125C63.0622 22.9166 62.7705 22.875 62.5414 23.0416C62.458 23.125 62.5622 23.2291 62.6455 23.1666Z" fill="#0C0C0C"/>
<path d="M63.3335 23.25C63.5001 23.1875 63.646 23.2708 63.7293 23.4167C63.8126 23.6042 63.771 23.8125 63.7501 24.0208C63.7293 24.125 63.8751 24.1667 63.896 24.0625C63.9376 23.8125 64.0001 23.5 63.8126 23.2708C63.6876 23.1042 63.4793 23.0208 63.2918 23.1042C63.1876 23.125 63.2293 23.2917 63.3335 23.25Z" fill="#0C0C0C"/>
<path d="M63.7297 23.2291C63.7922 22.875 63.8755 22.5208 64.0005 22.1875C64.1047 21.9166 64.1047 21.6666 64.438 21.7083C64.7922 21.75 64.688 22.0208 64.688 22.3333C64.6463 23.2291 64.4172 24.1458 64.2505 25C64.2297 25.1041 64.3755 25.1458 64.3963 25.0416C64.563 24.2291 64.7088 23.4166 64.813 22.6041C64.8755 22.125 64.9172 21.6041 64.563 21.2291C64.5422 21.2083 64.5213 21.2083 64.4797 21.2083C63.8755 21.4583 63.688 22.6458 63.5838 23.1875C63.563 23.2916 63.7297 23.3333 63.7297 23.2291Z" fill="#0C0C0C"/>
<path d="M73.7292 34.4167C73.25 34.7917 72.6458 35.3542 72 36.0834C71.5417 36.6042 71.1875 37.1042 70.7917 37.6667C69.9375 38.9375 69.3542 40.0834 68.7708 41.2917C67.625 43.625 66.5833 45.7917 65.4792 48.875C65.25 49.5209 65.0625 50.0625 64.9375 50.4375C64.3333 50.8542 63.5208 51.4167 62.5833 52.1042C61.6667 52.7917 60.7917 53.4375 59.7292 54.3542C59.1042 54.8959 58.2917 55.625 57.375 56.5625C58.1042 56.4375 59.1667 56.3542 60.4375 56.5C62.7292 56.7709 64.4167 57.6875 65.375 58.3125C66.7083 59.2084 67.5208 60.1459 67.9583 60.6875C68.6042 61.4584 69.2917 62.4584 70.0417 64.0834C71.6667 67.625 72.3958 71.5625 72.6667 73.3542C73.2292 72.8125 74.0208 72.0209 74.9167 70.9792C77.1042 68.4375 78.3333 66.2084 79.8333 63.4584C81.4792 60.4584 82.4792 58.1042 82.8125 57.2709C83.0625 56.6875 83.9375 54.5417 84.8333 51.6042C85.4583 49.5834 86.1458 47 86.7292 43.9792C85.8333 42.8125 84.5 41.25 82.6458 39.6875C82.25 39.3542 81.5 38.7084 80.5208 38.0209C79.1042 36.9584 76.8333 35.5625 73.7292 34.4167Z" fill="#FFCA9D"/>
<path d="M73.7088 34.4792C78.8546 36.3958 83.3546 39.6875 86.7088 44.0208C86.7713 44.1042 86.8754 43.9792 86.8129 43.9167C83.4379 39.5625 78.8963 36.25 73.7296 34.3333C73.6671 34.2917 73.6254 34.4583 73.7088 34.4792Z" fill="#0C0C0C"/>
<path d="M71.1457 36.9583C68.5415 41.1875 66.4373 45.6875 64.8748 50.4167C64.8332 50.5208 64.9998 50.5625 65.0207 50.4583C66.5832 45.75 68.6873 41.2708 71.2707 37.0417C71.3332 36.9375 71.1873 36.8542 71.1457 36.9583Z" fill="#0C0C0C"/>
<path d="M64.1036 50.9167C61.7078 52.5625 59.4369 54.375 57.3119 56.375C57.2286 56.4375 57.3536 56.5625 57.4161 56.4792C59.5411 54.5 61.7911 52.6875 64.1661 51.0417C64.2703 51 64.1869 50.8542 64.1036 50.9167Z" fill="#0C0C0C"/>
<path d="M57.4174 56.625C61.6465 55.8958 65.8965 57.8958 68.3757 61.2917C70.8132 64.6458 72.0424 69.125 72.6257 73.1667C72.6465 73.2708 72.7924 73.2292 72.7715 73.125C72.1465 68.7708 70.7924 63.8542 67.8757 60.4167C65.334 57.4167 61.2715 55.7917 57.3549 56.4583C57.2715 56.4792 57.3132 56.6458 57.4174 56.625Z" fill="#0C0C0C"/>
<path d="M86.2921 45.5833C84.2921 55.7292 79.7504 65.25 73.0837 73.1459C73.0212 73.2292 73.1254 73.3334 73.1879 73.25C79.8546 65.3125 84.4379 55.7708 86.4379 45.6042C86.4587 45.5417 86.3129 45.5 86.2921 45.5833Z" fill="#0C0C0C"/>
<path d="M72.9164 41.8542C74.8955 43.0417 76.9372 44.1042 79.0205 45.0833C79.1039 45.125 79.1872 45 79.1039 44.9583C77.0205 44 74.9789 42.9167 72.9997 41.7292C72.9164 41.6667 72.833 41.8125 72.9164 41.8542Z" fill="#F6D47B" fill-opacity="0.9"/>
<path d="M71.5826 45.3125C72.9367 46.25 74.3742 47.0208 75.8951 47.625C75.9784 47.6666 76.0201 47.5208 75.9367 47.4791C74.4159 46.875 72.9992 46.1041 71.6659 45.1666C71.5617 45.125 71.4992 45.2708 71.5826 45.3125Z" fill="#F6D47B" fill-opacity="0.9"/>
<path d="M67.5003 47.875C70.8545 50.0625 74.3545 52.0208 77.9587 53.7708C78.042 53.8125 78.1253 53.6875 78.042 53.6458C74.4378 51.8958 70.9378 49.9375 67.5837 47.75C67.5003 47.6875 67.417 47.8333 67.5003 47.875Z" fill="#F6D47B" fill-opacity="0.9"/>
<path d="M33.3956 87.6042C32.6248 88.125 31.4998 88.875 30.1665 89.8125C24.8331 93.5209 22.1665 95.375 22.4581 96.1459C22.9373 97.4584 30.2915 95.8334 31.3331 95.6042C34.7081 94.8542 37.3956 93.875 39.1873 93.125C39.3748 91.9167 39.5623 90.6875 39.729 89.4792C37.604 88.8334 35.4998 88.2084 33.3956 87.6042Z" fill="#F27777"/>
<path d="M28.4169 91.1458C29.1669 91.1666 29.6461 91.75 30.0419 92.3125C30.1044 92.3958 30.2294 92.3125 30.1669 92.2291C29.7294 91.6041 29.2086 91 28.3961 90.9791C28.3127 90.9791 28.3127 91.1458 28.4169 91.1458Z" fill="white"/>
<path d="M30.0419 90C30.6877 90.2917 31.1877 90.7709 31.4794 91.3959C31.5211 91.4792 31.6669 91.4167 31.6044 91.3125C31.2919 90.6667 30.7502 90.1459 30.1044 89.8542C30.0419 89.8125 29.9586 89.9584 30.0419 90Z" fill="white"/>
<path d="M31.4798 89.0417C32.1673 89.3334 32.6673 89.8959 32.8757 90.625C32.8965 90.7292 33.0632 90.6875 33.0215 90.5834C32.8132 89.8334 32.2715 89.2084 31.5632 88.9167C31.4798 88.875 31.3965 89 31.4798 89.0417Z" fill="white"/>
<path d="M31.4795 89.0417C31.1045 89.1667 30.4378 89.2917 30.0836 88.9792C30.2295 88.1667 30.5003 88 30.8961 88.4583C30.9586 88.5208 31.042 88.5625 31.1045 88.625C31.292 88.7917 31.3128 88.875 31.542 88.8125C31.5836 88.7917 31.6045 88.7292 31.6461 88.7083C31.9378 88.4792 32.2295 87.9583 32.6878 88.0208C33.0211 87.8958 33.0836 88.1042 32.917 88.625C32.792 88.7083 32.6461 88.7917 32.5003 88.875C32.1461 89.0625 31.792 89.1667 31.3961 89.2708C31.292 89.2917 31.3336 89.4375 31.4378 89.4167C31.8128 89.3333 33.8753 88.7292 33.3753 88.0417C32.792 87.1875 31.7503 88.7083 31.2086 88.5417C30.792 88.4167 30.6045 87.875 30.0628 87.9792C29.792 88.0417 29.6253 88.2292 29.6045 88.5C29.5628 89.4167 30.917 89.4167 31.5003 89.2292C31.6253 89.1667 31.5836 89.0208 31.4795 89.0417Z" fill="white"/>
<path d="M32.791 88.2083C33.9785 84.3125 35.166 81.1042 36.1243 78.75C37.3327 75.75 38.3952 73.4792 40.541 68.9375C41.9369 65.9792 43.0619 63.75 44.3744 61.3125C47.4785 55.5625 46.041 59.2292 48.666 54.7708C49.041 54.125 49.7285 52.9375 51.1035 52.2708C52.2285 51.7292 53.3327 51.7708 53.7285 51.7917C54.4369 51.8333 55.1244 52 56.8952 52.8542C58.0619 53.4167 59.1869 53.9583 60.4369 54.7917C63.9369 57.1042 66.8119 60.5833 67.666 61.625C68.0827 62.6042 68.7285 64.625 67.9577 66.625C66.7285 69.8333 62.3119 71.875 57.291 70.8125C56.166 72.125 54.4369 74.1042 52.2702 76.5208C49.9994 79.0417 48.7077 80.375 45.916 83.3958C44.416 85.0208 42.2494 87.375 39.6244 90.2708C39.166 90.3125 38.5202 90.3542 37.7494 90.3333C36.4369 90.2917 35.5618 90.2708 34.6243 89.8125C34.1868 89.5833 33.4577 89.1458 32.791 88.2083Z" fill="white"/>
<path d="M32.9372 87.9375C35.3747 80.4375 38.4164 73.1459 42.0414 66.125C43.8331 62.6667 45.6664 59.1875 47.8747 55.9792C49.0206 54.3125 50.5622 51.9584 52.7914 51.8125C54.6872 51.6875 56.6664 52.7709 58.2914 53.625C61.9581 55.5625 65.1456 58.3334 67.6039 61.6667C67.6664 61.75 67.7914 61.6667 67.7289 61.5834C65.5831 58.6667 62.9164 56.1875 59.8122 54.3125C57.2914 52.7917 53.2706 50.3334 50.5206 52.5834C49.0414 53.7917 47.9164 55.5417 46.9164 57.1459C45.7706 58.9584 44.7081 60.8125 43.6872 62.6875C41.5622 66.5417 39.6247 70.4792 37.8539 74.5C35.9372 78.875 34.2497 83.3542 32.7706 87.8959C32.7497 88 32.8956 88.0417 32.9372 87.9375Z" fill="#0C0C0C"/>
<path d="M39.6869 90.3125C45.5827 83.8542 51.4994 77.3959 57.3953 70.9375C57.4578 70.8542 57.3536 70.75 57.2911 70.8334C51.3952 77.2917 45.4786 83.75 39.5827 90.2084C39.5202 90.2709 39.6244 90.3959 39.6869 90.3125Z" fill="#0C0C0C"/>
<path d="M32.9792 88.3958C34.3334 90.5416 36.9376 90.6041 39.1876 90.2083C39.2917 90.1875 39.25 90.0416 39.1459 90.0625C36.9584 90.4375 34.4375 90.3958 33.1042 88.3125C33.0625 88.2291 32.9167 88.2916 32.9792 88.3958Z" fill="#0C0C0C"/>
<path d="M23.209 95.0625C24.6257 93.7084 26.1674 92.4584 27.7924 91.3542C27.8757 91.2917 27.7924 91.1667 27.709 91.2292C26.0632 92.3334 24.5215 93.5834 23.1049 94.9584C23.0215 95.0209 23.1257 95.125 23.209 95.0625Z" fill="white"/>
<path d="M77.1875 32.5C77.0417 32.8542 76.875 33.2916 76.7292 33.7916C76.5 34.5208 76.3958 34.8958 76.4167 35.3958C76.4167 35.625 76.4375 36.1458 76.7083 36.7292C77.0833 37.5625 77.75 37.9791 78.0833 38.1666C78.4792 38.4166 78.8542 38.5417 79.0833 38.6042C79.1042 38.75 79.1042 38.875 79.125 39.0208C78.9167 38.8958 78.6458 38.8958 78.4375 39.0208C78.25 39.1458 78.125 39.375 78.1667 39.5833C78.2292 39.9166 78.7083 40.0416 78.9583 40.1041C79.5625 40.2708 80.0833 40.1041 80.3958 40C80.7292 39.8958 80.9583 39.8125 81.2083 39.6042C81.7292 39.1458 81.75 38.4375 81.75 38.2292C82.5208 37.8333 83.0417 37.3958 83.3333 37.0833C83.625 36.7708 83.75 36.5833 83.8125 36.4375C84.0833 35.9166 84.0625 35.4166 84.0625 35.1875C84.0208 34.1875 83.4375 33.4583 83.1458 33.125C82.8125 32.7083 81.75 31.4375 80 31.3958C78.4583 31.3541 77.4375 32.25 77.1875 32.5Z" fill="white"/>
<path d="M89.2708 32.3958C89.2917 33.7083 88.7292 35.6875 87.25 36.25C86.2708 36.625 85.3333 36.2083 84.3125 35.7708C83.7083 35.5 80.8542 34.2708 80.5 31.875C80.3958 31.1042 80.5208 29.9792 81.1042 29.7083C81.75 29.3958 82.5 30.375 83.25 30.0208C83.75 29.7917 83.625 29.25 84.1458 28.7917C84.875 28.1042 86.2292 28.2083 87.1042 28.5625C88.6875 29.2292 89.25 31.125 89.2708 32.3958Z" fill="black"/>
<path d="M76.9999 33.2083C77.0832 33.0833 77.7499 32.2292 78.6041 32.0625C78.8332 32.0208 79.2916 31.9375 79.6666 32.1875C79.7916 32.2708 79.9999 32.4792 80.2499 33.8333C80.4166 34.7708 80.3541 34.875 80.5207 35.4167C80.6874 35.9375 80.8541 36.4167 81.3332 36.7083C81.3957 36.75 81.8124 36.9792 82.3124 36.8958C82.5416 36.8542 82.6666 36.7708 83.1041 36.5208C83.4582 36.3333 83.7499 36.1875 83.9582 36.0833C84.0624 35.8333 84.1874 35.4792 84.2499 35.0417C84.2916 34.7917 84.3124 34.375 84.2499 33.875C84.2082 33.6667 84.0624 32.7708 83.4582 32.0417C83.1249 31.6458 82.5624 31.1875 81.0832 30.8333C79.3749 30.4167 76.1666 30.0833 75.7707 31.125C75.6457 31.4792 75.7707 32.0625 76.9999 33.2083Z" fill="black"/>
<path d="M76.917 33.1667C76.1462 34.625 76.0003 36.4167 77.2503 37.6667C78.3337 38.75 80.417 39.2083 81.7295 38.3125C81.8128 38.25 81.7295 38.125 81.6462 38.1875C80.3962 39.0208 78.3545 38.625 77.3545 37.5625C76.167 36.3542 76.3128 34.6667 77.042 33.25C77.1045 33.1458 76.9795 33.0833 76.917 33.1667Z" fill="black"/>
<path d="M78.9793 38.6041C79.0002 38.8333 79.021 39.0416 79.0627 39.2708C79.0835 39.375 79.2293 39.375 79.2293 39.2708C79.2085 39.0416 79.1877 38.8333 79.146 38.6041C79.1252 38.5 78.9585 38.5 78.9793 38.6041Z" fill="black"/>
<path d="M78.354 38.9583C77.8749 39.4375 78.0624 39.875 78.6874 40.125C79.3957 40.3958 80.4165 40.1667 81.0415 39.7917C81.1249 39.7292 81.0415 39.6042 80.9582 39.6667C80.5415 39.9167 80.0832 40.0208 79.604 40.0625C79.3749 40.0833 79.1249 40.1042 78.9165 40.0417C78.5624 39.9583 77.9374 39.625 78.4791 39.0833C78.5416 39 78.4374 38.8958 78.354 38.9583Z" fill="black"/>
<path d="M77.7919 34.1042C77.3752 34.7709 77.2086 35.5417 77.3336 36.3126C77.3544 36.4167 77.5002 36.3751 77.4794 36.2709C77.3544 35.5209 77.5002 34.8126 77.9169 34.1876C78.0002 34.1042 77.8544 34.0209 77.7919 34.1042Z" fill="black"/>
<path d="M77.7705 32.0208C79.2914 30.8542 81.7289 30.3125 83.1872 31.875C84.4997 33.2708 84.4789 35.3333 83.4164 36.8542C83.3539 36.9375 83.4997 37.0208 83.5414 36.9375C84.708 35.2708 84.6247 32.9792 83.083 31.5625C81.5414 30.1667 79.1455 30.7917 77.6664 31.9375C77.583 31.9792 77.6872 32.0833 77.7705 32.0208Z" fill="black"/>
<path d="M77.4999 32.5C77.7499 32.375 77.9999 32.2083 78.2707 32.1249C78.4582 32.0833 78.6457 32.0416 78.8332 32.0208C79.229 32.3333 79.6249 32.6458 80.0207 32.9583C80.2082 33.3124 80.1457 33.875 80.2082 34.2708C80.3124 34.9791 80.3957 35.8958 80.9165 36.4583C81.9165 37.5833 82.8749 36.6041 83.854 36.1458C83.9374 36.1041 83.8749 35.9583 83.7707 36.0208C83.4165 36.1874 83.104 36.5625 82.7499 36.6875C81.6249 37.1041 80.9165 36.4166 80.604 35.4166C80.3332 34.5416 80.479 33.4791 80.0832 32.6458C79.5415 31.5208 78.2915 31.9375 77.4165 32.3958C77.3332 32.4166 77.3957 32.5625 77.4999 32.5Z" fill="black"/>
<path d="M77.3432 34.4094C77.4096 34.2756 77.3969 34.1338 77.3144 34.0927C77.2321 34.0517 77.1113 34.1271 77.0446 34.2611C76.978 34.395 76.9909 34.5367 77.0732 34.5777C77.1557 34.6188 77.2765 34.5434 77.3432 34.4094Z" fill="black"/>
<path d="M79.0685 34.9438C79.1352 34.8098 79.1225 34.6679 79.04 34.6271C78.9577 34.5861 78.8369 34.6613 78.7702 34.7952C78.7035 34.9292 78.7165 35.0711 78.7987 35.1119C78.8812 35.1529 79.0021 35.0777 79.0685 34.9438Z" fill="black"/>
<path d="M77.2505 33.2083C77.438 33 77.7713 33.0416 77.8547 33.3333C77.8755 33.4375 78.0422 33.3958 78.0005 33.2916C77.8755 32.8958 77.3963 32.7916 77.1255 33.1041C77.063 33.1666 77.1672 33.2708 77.2505 33.2083Z" fill="black"/>
<path d="M79.0008 33.625C79.3549 33.4167 79.6466 33.8334 79.6883 34.1459C79.7091 34.25 79.8549 34.25 79.8549 34.1459C79.8341 33.9167 79.7508 33.6875 79.5424 33.5417C79.3549 33.4167 79.1258 33.3959 78.9383 33.5C78.8341 33.5417 78.9174 33.6875 79.0008 33.625Z" fill="black"/>
<path d="M82.5625 31.3333C83.2708 31.1667 83.9792 31.4583 84.375 32.0208C84.8125 32.6458 84.7708 33.5208 84.2708 34.125C84.2917 34.0417 84.6042 32.9167 83.875 32.0417C83.3958 31.5 82.75 31.375 82.5625 31.3333Z" fill="white"/>
<path d="M81.458 73.2916C81.5413 73.6875 81.6038 74 81.6455 74.2291C81.7288 74.75 81.7288 74.8958 81.833 75.125C81.8955 75.25 82.0413 75.625 82.3747 75.875C82.6247 76.0625 82.8747 76.1041 83.583 76.1458C84.6247 76.2083 85.1455 76.25 85.8122 76.2083C86.1455 76.1875 86.458 76.1458 87.083 76.0625C88.4372 75.8958 89.1247 75.8125 89.5413 75.6458C90.333 75.3541 91.4163 74.7083 91.3122 74.25C91.2913 74.1458 91.208 73.9375 89.8747 73.625C88.4788 73.2916 87.3747 73.25 87.3122 73.25C85.7705 73.1875 85.3538 73.3958 83.7913 73.3958C82.7705 73.4166 81.958 73.3541 81.458 73.2916Z" fill="white"/>
<path d="M81.8333 38.625C81.4375 39.3542 81.3125 40 81.2292 40.3959C81.0208 41.4584 81.1458 42.1042 81.1875 43.0625C81.2292 44.3542 81.0625 45.0209 80.8958 46.3542C80.5 49.5417 80.5 53.1667 80.5 56.625C80.5 59.625 80.6042 61.8959 80.625 62.5834C80.75 65.4167 81.0208 69.0834 81.6042 73.375C81.6875 73.4584 82 73.7083 82.4792 73.7083C82.9167 73.7292 83.2292 73.5209 83.3125 73.4584C83.375 73.1459 83.4792 72.6875 83.6042 72.1042C84.1042 69.7917 84.4375 68.2709 84.6875 67.1042C85.4583 63.6042 85.8542 61.625 86.2083 59.5625C86.3542 58.6875 86.5625 57.3542 86.4167 55.625C86.3333 54.7084 86.1875 53.9792 86.0833 53.4584C86.1458 53.0834 86.2292 52.5209 86.3542 51.8542C86.5208 50.8542 87.3542 46.8542 87.4792 46.1667C88.5 41.1667 87.875 43.1667 88.3542 41.0834C88.4792 40.5625 88.75 39.4375 88.4167 38.1042C88.1458 37.0209 87.6875 36.5834 87.5625 36.4792C86.8958 35.9167 86.0833 35.9167 85.75 35.9167C84.6042 35.9167 83.7917 36.5209 83.3333 36.8542C83.125 37 82.3958 37.5834 81.8333 38.625Z" fill="white"/>
<path d="M81.458 39.7292C82.0205 37.8542 83.6247 36.125 85.6663 36C88.5622 35.8125 88.5205 38.9375 88.2913 40.9792C87.8538 44.9375 86.8538 48.8542 86.083 52.75C86.0622 52.8542 86.208 52.8959 86.2288 52.7917C86.7705 50.0834 87.3122 47.375 87.833 44.6667C88.0622 43.5 88.2705 42.3334 88.3955 41.1667C88.5413 40 88.708 38.7084 88.3122 37.5834C87.7497 36.0209 86.208 35.5417 84.708 36.0209C82.9997 36.5625 81.7705 38.0209 81.2705 39.6875C81.2913 39.7917 81.4372 39.8334 81.458 39.7292Z" fill="#0C0C0C"/>
<path d="M81.1044 43.0625C80.1252 52.9792 80.2086 62.9792 81.3961 72.875C81.4169 72.9792 81.5627 72.9792 81.5627 72.875C80.3752 62.9792 80.2711 52.9792 81.2711 43.0625C81.2711 42.9583 81.1252 42.9583 81.1044 43.0625Z" fill="#0C0C0C"/>
<path d="M86.1046 53.7083C86.7087 57.0417 86.1046 60.375 85.3962 63.6458C84.7296 66.75 84.0421 69.875 83.3546 72.9792C83.3337 73.0833 83.4796 73.125 83.5004 73.0208C84.2296 69.6458 85.0004 66.2917 85.7087 62.9167C86.3546 59.875 86.8129 56.7708 86.2504 53.6875C86.2296 53.5625 86.0837 53.6042 86.1046 53.7083Z" fill="#0C0C0C"/>
<path d="M81.5629 73.4375C82.0837 73.875 82.8129 73.9166 83.3754 73.5416C83.4587 73.4791 83.3754 73.3541 83.2921 73.4166C82.7921 73.75 82.1462 73.7291 81.6671 73.3333C81.6046 73.2708 81.4796 73.375 81.5629 73.4375Z" fill="#0C0C0C"/>
<path d="M81.5623 74.2708C81.729 74.7708 81.6665 75.4167 82.0623 75.7917C82.4373 76.1458 83.1248 76.1875 83.6248 76.25C85.5206 76.5 87.4165 76.125 89.2706 75.7708C89.3748 75.75 89.3331 75.6042 89.229 75.625C87.8331 75.8958 86.4165 76.1667 84.979 76.1667C84.2915 76.1667 83.5415 76.1667 82.8956 75.9583C81.7915 75.6042 81.9998 75.0417 81.729 74.2292C81.6873 74.125 81.5206 74.1667 81.5623 74.2708Z" fill="#0C0C0C"/>
<path d="M86.5625 75.0208C87.4792 74.8958 88.3958 74.7916 89.2083 75.3333C89.2917 75.3958 89.375 75.25 89.2917 75.2083C88.4583 74.6666 87.5 74.75 86.5625 74.875C86.4792 74.875 86.4792 75.0416 86.5625 75.0208Z" fill="#0C0C0C"/>
<path d="M83.7915 73.5C84.9999 73.4375 86.2082 73.3542 87.4165 73.3542C88.8332 73.3333 89.9999 73.75 91.2707 74.3542C91.354 74.3958 91.4374 74.2708 91.354 74.2292C90.3124 73.7292 89.2707 73.2708 88.104 73.2083C86.6874 73.125 85.229 73.2917 83.8123 73.3542C83.6873 73.3333 83.6874 73.5 83.7915 73.5Z" fill="#0C0C0C"/>
<path d="M87.292 74.2708C88.5003 74.2292 89.7087 74.375 90.8753 74.7083C90.9795 74.7292 91.0212 74.5833 90.917 74.5625C89.7295 74.2292 88.5212 74.0833 87.292 74.125C87.2087 74.125 87.2087 74.2708 87.292 74.2708Z" fill="#0C0C0C"/>
<path d="M87.916 73.7083C88.8952 73.7708 89.8327 73.9167 90.7702 74.1875C90.8744 74.2083 90.916 74.0625 90.8118 74.0417C89.8535 73.7708 88.8952 73.6042 87.916 73.5625C87.8327 73.5625 87.8327 73.7083 87.916 73.7083Z" fill="#0C0C0C"/>
</svg>
