<svg width="103" height="127" viewBox="0 0 103 127" fill="none" xmlns="http://www.w3.org/2000/svg">
<mask id="mask0_520_687" style="mask-type:luminance" maskUnits="userSpaceOnUse" x="0" y="0" width="103" height="127">
<path d="M102.585 0H0V127H102.585V0Z" fill="white"/>
</mask>
<g mask="url(#mask0_520_687)">
<path d="M67.8532 64.9658H66.0629V60.7586C66.0629 58.8788 64.4293 57.3346 62.4375 57.3346H38.1341C36.1424 57.3346 34.5087 58.8564 34.5087 60.7586V64.9658H31.9575C26.7433 64.9658 22.5137 68.9492 22.5137 73.8726V115.855C22.5137 118.317 23.5655 120.533 25.2887 122.144C27.9965 124.695 31.3533 124.762 31.9799 124.762C36.4557 125.836 42.4309 126.866 49.525 126.91C56.9995 126.955 63.2879 125.881 67.898 124.762C73.1123 124.762 77.3419 120.779 77.3419 115.855V73.8726C77.3195 68.9492 73.0899 64.9658 67.8532 64.9658Z" fill="white" stroke="#202124" stroke-width="0.352778" stroke-miterlimit="10"/>
<path d="M47.0397 124.404C45.3613 125.254 42.5863 126.306 39.14 126.217C36.0965 126.15 33.6348 125.21 32.0459 124.404C32.0459 109.656 32.0459 94.9087 32.0459 80.1611H47.0621V124.404H47.0397Z" fill="white" stroke="#202124" stroke-width="0.352778" stroke-miterlimit="10"/>
<path d="M39.5213 83.3165C43.6619 83.3165 47.0182 82.044 47.0182 80.4744C47.0182 78.9047 43.6619 77.6323 39.5213 77.6323C35.3808 77.6323 32.0244 78.9047 32.0244 80.4744C32.0244 82.044 35.3808 83.3165 39.5213 83.3165Z" fill="white" stroke="#202124" stroke-width="0.352778" stroke-miterlimit="10"/>
<path d="M32.0244 84.1445C33.4567 85.0172 35.9855 86.2481 39.2304 86.3152C42.7886 86.4047 45.5636 85.0396 47.0406 84.1445" stroke="#202124" stroke-width="0.352778" stroke-miterlimit="10"/>
<path d="M32.0244 86.6733C33.4567 87.5461 35.9855 88.7769 39.2304 88.8441C42.7886 88.9336 45.5636 87.5685 47.0406 86.6733" stroke="#202124" stroke-width="0.352778" stroke-miterlimit="10"/>
<path d="M32.0244 89.2021C33.4567 90.0749 35.9855 91.3058 39.2304 91.3729C42.7886 91.4624 45.5636 90.0973 47.0406 89.2021" stroke="#202124" stroke-width="0.352778" stroke-miterlimit="10"/>
<path d="M32.0244 91.7309C33.4567 92.6037 35.9855 93.8345 39.2304 93.9017C42.7886 93.9912 45.5636 92.6261 47.0406 91.7309" stroke="#202124" stroke-width="0.352778" stroke-miterlimit="10"/>
<path d="M32.0244 93.9017C33.4567 94.7744 35.9855 96.0053 39.2304 96.0724C42.7886 96.1619 45.5636 94.7968 47.0406 93.9017" stroke="#202124" stroke-width="0.352778" stroke-miterlimit="10"/>
<path d="M32.0244 96.4529C33.4567 97.3256 35.9855 98.5565 39.2304 98.6236C42.7886 98.7131 45.5636 97.348 47.0406 96.4529" stroke="#202124" stroke-width="0.352778" stroke-miterlimit="10"/>
<path d="M32.0244 98.9817C33.4567 99.8545 35.9855 101.085 39.2304 101.152C42.7886 101.242 45.5636 99.8768 47.0406 98.9817" stroke="#202124" stroke-width="0.352778" stroke-miterlimit="10"/>
<path d="M32.0244 101.51C33.4567 102.383 35.9855 103.614 39.2304 103.681C42.7886 103.771 45.5636 102.406 47.0406 101.51" stroke="#202124" stroke-width="0.352778" stroke-miterlimit="10"/>
<path d="M32.0244 103.681C33.4567 104.554 35.9855 105.785 39.2304 105.852C42.7886 105.941 45.5636 104.576 47.0406 103.681" stroke="#202124" stroke-width="0.352778" stroke-miterlimit="10"/>
<path d="M32.0244 106.21C33.4567 107.083 35.9855 108.314 39.2304 108.381C42.7886 108.47 45.5636 107.105 47.0406 106.21" stroke="#202124" stroke-width="0.352778" stroke-miterlimit="10"/>
<path d="M32.0244 108.739C33.4567 109.612 35.9855 110.842 39.2304 110.91C42.7886 110.999 45.5636 109.634 47.0406 108.739" stroke="#202124" stroke-width="0.352778" stroke-miterlimit="10"/>
<path d="M32.0244 111.29C33.4567 112.163 35.9855 113.394 39.2304 113.461C42.7886 113.55 45.5636 112.185 47.0406 111.29" stroke="#202124" stroke-width="0.352778" stroke-miterlimit="10"/>
<path d="M32.0244 113.461C33.4567 114.334 35.9855 115.564 39.2304 115.632C42.7886 115.721 45.5636 114.356 47.0406 113.461" stroke="#202124" stroke-width="0.352778" stroke-miterlimit="10"/>
<path d="M32.0244 115.99C33.4567 116.862 35.9855 118.093 39.2304 118.16C42.7886 118.25 45.5636 116.885 47.0406 115.99" stroke="#202124" stroke-width="0.352778" stroke-miterlimit="10"/>
<path d="M32.0244 118.518C33.4567 119.391 35.9855 120.622 39.2304 120.689C42.7886 120.779 45.5636 119.414 47.0406 118.518" stroke="#202124" stroke-width="0.352778" stroke-miterlimit="10"/>
<path d="M32.0244 121.047C33.4567 121.92 35.9855 123.151 39.2304 123.218C42.7886 123.307 45.5636 121.942 47.0406 121.047" stroke="#202124" stroke-width="0.352778" stroke-miterlimit="10"/>
<path d="M48.8534 125.254C47.2645 125.814 44.6685 126.508 41.4012 126.441C38.5367 126.396 36.2093 125.769 34.71 125.254C34.71 115.587 34.71 105.941 34.71 96.2738H48.8534V125.254Z" fill="white" stroke="#202124" stroke-width="0.352778" stroke-miterlimit="10"/>
<path d="M41.7817 98.3327C45.6872 98.3327 48.8534 97.5011 48.8534 96.4753C48.8534 95.4494 45.6872 94.6178 41.7817 94.6178C37.8761 94.6178 34.71 95.4494 34.71 96.4753C34.71 97.5011 37.8761 98.3327 41.7817 98.3327Z" fill="white" stroke="#202124" stroke-width="0.352778" stroke-miterlimit="10"/>
<path d="M34.71 98.8922C36.0751 99.4517 38.4472 100.257 41.4908 100.302C44.8476 100.347 47.4435 99.4741 48.8534 98.8922" stroke="#202124" stroke-width="0.352778" stroke-miterlimit="10"/>
<path d="M34.71 100.548C36.0751 101.108 38.4472 101.913 41.4908 101.958C44.8476 102.003 47.4435 101.13 48.8534 100.548" stroke="#202124" stroke-width="0.352778" stroke-miterlimit="10"/>
<path d="M34.71 102.204C36.0751 102.764 38.4472 103.569 41.4908 103.614C44.8476 103.659 47.4435 102.786 48.8534 102.204" stroke="#202124" stroke-width="0.352778" stroke-miterlimit="10"/>
<path d="M34.71 103.86C36.0751 104.42 38.4472 105.225 41.4908 105.27C44.8476 105.315 47.4435 104.442 48.8534 103.86" stroke="#202124" stroke-width="0.352778" stroke-miterlimit="10"/>
<path d="M34.71 105.27C36.0751 105.83 38.4472 106.635 41.4908 106.68C44.8476 106.725 47.4435 105.852 48.8534 105.27" stroke="#202124" stroke-width="0.352778" stroke-miterlimit="10"/>
<path d="M34.71 106.949C36.0751 107.508 38.4472 108.314 41.4908 108.358C44.8476 108.403 47.4435 107.53 48.8534 106.949" stroke="#202124" stroke-width="0.352778" stroke-miterlimit="10"/>
<path d="M34.71 108.605C36.0751 109.164 38.4472 109.97 41.4908 110.014C44.8476 110.059 47.4435 109.186 48.8534 108.605" stroke="#202124" stroke-width="0.352778" stroke-miterlimit="10"/>
<path d="M34.71 110.261C36.0751 110.82 38.4472 111.626 41.4908 111.67C44.8476 111.715 47.4435 110.842 48.8534 110.261" stroke="#202124" stroke-width="0.352778" stroke-miterlimit="10"/>
<path d="M34.71 111.67C36.0751 112.23 38.4472 113.036 41.4908 113.08C44.8476 113.125 47.4435 112.252 48.8534 111.67" stroke="#202124" stroke-width="0.352778" stroke-miterlimit="10"/>
<path d="M34.71 113.349C36.0751 113.908 38.4472 114.714 41.4908 114.759C44.8476 114.804 47.4435 113.931 48.8534 113.349" stroke="#202124" stroke-width="0.352778" stroke-miterlimit="10"/>
<path d="M34.71 115.005C36.0751 115.564 38.4472 116.37 41.4908 116.415C44.8476 116.46 47.4435 115.587 48.8534 115.005" stroke="#202124" stroke-width="0.352778" stroke-miterlimit="10"/>
<path d="M34.71 116.661C36.0751 117.22 38.4472 118.026 41.4908 118.071C44.8476 118.116 47.4435 117.243 48.8534 116.661" stroke="#202124" stroke-width="0.352778" stroke-miterlimit="10"/>
<path d="M34.71 118.071C36.0751 118.63 38.4472 119.436 41.4908 119.481C44.8476 119.525 47.4435 118.653 48.8534 118.071" stroke="#202124" stroke-width="0.352778" stroke-miterlimit="10"/>
<path d="M34.71 119.727C36.0751 120.286 38.4472 121.092 41.4908 121.137C44.8476 121.182 47.4435 120.309 48.8534 119.727" stroke="#202124" stroke-width="0.352778" stroke-miterlimit="10"/>
<path d="M34.71 121.405C36.0751 121.965 38.4472 122.77 41.4908 122.815C44.8476 122.86 47.4435 121.987 48.8534 121.405" stroke="#202124" stroke-width="0.352778" stroke-miterlimit="10"/>
<path d="M34.71 123.061C36.0751 123.621 38.4472 124.426 41.4908 124.471C44.8476 124.516 47.4435 123.643 48.8534 123.061" stroke="#202124" stroke-width="0.352778" stroke-miterlimit="10"/>
<path d="M54.0884 125.501C53.1261 125.836 51.5372 126.239 49.5455 126.194C47.8 126.172 46.3901 125.792 45.4502 125.501C45.4502 119.794 45.4502 114.087 45.4502 108.403H54.0884V125.501Z" fill="white" stroke="#202124" stroke-width="0.352778" stroke-miterlimit="10"/>
<path d="M49.7693 109.612C52.1547 109.612 54.0884 109.121 54.0884 108.515C54.0884 107.91 52.1547 107.419 49.7693 107.419C47.3839 107.419 45.4502 107.91 45.4502 108.515C45.4502 109.121 47.3839 109.612 49.7693 109.612Z" fill="white" stroke="#202124" stroke-width="0.352778" stroke-miterlimit="10"/>
<path d="M45.4502 109.947C46.2782 110.283 47.7328 110.753 49.5903 110.775C51.6491 110.798 53.238 110.283 54.0884 109.947" stroke="#202124" stroke-width="0.352778" stroke-miterlimit="10"/>
<path d="M45.4502 110.932C46.2782 111.268 47.7328 111.738 49.5903 111.76C51.6491 111.782 53.238 111.268 54.0884 110.932" stroke="#202124" stroke-width="0.352778" stroke-miterlimit="10"/>
<path d="M45.4502 111.894C46.2782 112.23 47.7328 112.7 49.5903 112.722C51.6491 112.745 53.238 112.23 54.0884 111.894" stroke="#202124" stroke-width="0.352778" stroke-miterlimit="10"/>
<path d="M45.4502 112.879C46.2782 113.215 47.7328 113.685 49.5903 113.707C51.6491 113.729 53.238 113.215 54.0884 112.879" stroke="#202124" stroke-width="0.352778" stroke-miterlimit="10"/>
<path d="M45.4502 113.729C46.2782 114.065 47.7328 114.535 49.5903 114.557C51.6491 114.58 53.238 114.065 54.0884 113.729" stroke="#202124" stroke-width="0.352778" stroke-miterlimit="10"/>
<path d="M45.4502 114.692C46.2782 115.027 47.7328 115.497 49.5903 115.52C51.6491 115.542 53.238 115.027 54.0884 114.692" stroke="#202124" stroke-width="0.352778" stroke-miterlimit="10"/>
<path d="M45.4502 115.676C46.2782 116.012 47.7328 116.482 49.5903 116.504C51.6491 116.527 53.238 116.012 54.0884 115.676" stroke="#202124" stroke-width="0.352778" stroke-miterlimit="10"/>
<path d="M45.4502 116.661C46.2782 116.997 47.7328 117.467 49.5903 117.489C51.6491 117.511 53.238 116.997 54.0884 116.661" stroke="#202124" stroke-width="0.352778" stroke-miterlimit="10"/>
<path d="M45.4502 117.489C46.2782 117.825 47.7328 118.295 49.5903 118.317C51.6491 118.339 53.238 117.825 54.0884 117.489" stroke="#202124" stroke-width="0.352778" stroke-miterlimit="10"/>
<path d="M45.4502 118.474C46.2782 118.809 47.7328 119.279 49.5903 119.302C51.6491 119.324 53.238 118.809 54.0884 118.474" stroke="#202124" stroke-width="0.352778" stroke-miterlimit="10"/>
<path d="M45.4502 119.458C46.2782 119.794 47.7328 120.264 49.5903 120.286C51.6491 120.309 53.238 119.794 54.0884 119.458" stroke="#202124" stroke-width="0.352778" stroke-miterlimit="10"/>
<path d="M45.4502 120.443C46.2782 120.779 47.7328 121.249 49.5903 121.271C51.6491 121.293 53.238 120.779 54.0884 120.443" stroke="#202124" stroke-width="0.352778" stroke-miterlimit="10"/>
<path d="M45.4502 121.271C46.2782 121.607 47.7328 122.077 49.5903 122.099C51.6491 122.121 53.238 121.607 54.0884 121.271" stroke="#202124" stroke-width="0.352778" stroke-miterlimit="10"/>
<path d="M45.4502 122.256C46.2782 122.591 47.7328 123.061 49.5903 123.084C51.6491 123.106 53.238 122.591 54.0884 122.256" stroke="#202124" stroke-width="0.352778" stroke-miterlimit="10"/>
<path d="M45.4502 123.24C46.2782 123.576 47.7328 124.046 49.5903 124.068C51.6491 124.091 53.238 123.576 54.0884 123.24" stroke="#202124" stroke-width="0.352778" stroke-miterlimit="10"/>
<path d="M45.4502 124.225C46.2782 124.561 47.7328 125.031 49.5903 125.053C51.6491 125.075 53.238 124.561 54.0884 124.225" stroke="#202124" stroke-width="0.352778" stroke-miterlimit="10"/>
<path d="M63.4659 125.143C62.2127 125.635 60.1538 126.284 57.5802 126.217C55.2976 126.172 53.4849 125.613 52.2988 125.143C52.2988 116.37 52.2988 107.575 52.2988 98.8027H63.4883V125.143H63.4659Z" fill="white" stroke="#202124" stroke-width="0.352778" stroke-miterlimit="10"/>
<path d="M57.8721 100.682C60.9619 100.682 63.4668 99.9209 63.4668 98.9817C63.4668 98.0424 60.9619 97.2809 57.8721 97.2809C54.7822 97.2809 52.2773 98.0424 52.2773 98.9817C52.2773 99.9209 54.7822 100.682 57.8721 100.682Z" fill="white" stroke="#202124" stroke-width="0.352778" stroke-miterlimit="10"/>
<path d="M52.2773 101.175C53.3515 101.69 55.2314 102.428 57.6483 102.473C60.3114 102.518 62.3702 101.712 63.4668 101.175" stroke="#202124" stroke-width="0.352778" stroke-miterlimit="10"/>
<path d="M52.2773 102.674C53.3515 103.189 55.2314 103.927 57.6483 103.972C60.3114 104.017 62.3702 103.211 63.4668 102.674" stroke="#202124" stroke-width="0.352778" stroke-miterlimit="10"/>
<path d="M52.2773 104.196C53.3515 104.711 55.2314 105.449 57.6483 105.494C60.3114 105.539 62.3702 104.733 63.4668 104.196" stroke="#202124" stroke-width="0.352778" stroke-miterlimit="10"/>
<path d="M52.2773 105.695C53.3515 106.21 55.2314 106.949 57.6483 106.993C60.3114 107.038 62.3702 106.232 63.4668 105.695" stroke="#202124" stroke-width="0.352778" stroke-miterlimit="10"/>
<path d="M52.2773 106.993C53.3515 107.508 55.2314 108.246 57.6483 108.291C60.3114 108.336 62.3702 107.53 63.4668 106.993" stroke="#202124" stroke-width="0.352778" stroke-miterlimit="10"/>
<path d="M52.2773 108.493C53.3515 109.007 55.2314 109.746 57.6483 109.791C60.3114 109.835 62.3702 109.03 63.4668 108.493" stroke="#202124" stroke-width="0.352778" stroke-miterlimit="10"/>
<path d="M52.2773 110.014C53.3515 110.529 55.2314 111.268 57.6483 111.312C60.3114 111.357 62.3702 110.552 63.4668 110.014" stroke="#202124" stroke-width="0.352778" stroke-miterlimit="10"/>
<path d="M52.2773 111.514C53.3515 112.029 55.2314 112.767 57.6483 112.812C60.3114 112.857 62.3702 112.051 63.4668 111.514" stroke="#202124" stroke-width="0.352778" stroke-miterlimit="10"/>
<path d="M52.2773 112.812C53.3515 113.327 55.2314 114.065 57.6483 114.11C60.3114 114.155 62.3702 113.349 63.4668 112.812" stroke="#202124" stroke-width="0.352778" stroke-miterlimit="10"/>
<path d="M52.2773 114.311C53.3515 114.826 55.2314 115.564 57.6483 115.609C60.3114 115.654 62.3702 114.848 63.4668 114.311" stroke="#202124" stroke-width="0.352778" stroke-miterlimit="10"/>
<path d="M52.2773 115.833C53.3515 116.348 55.2314 117.086 57.6483 117.131C60.3114 117.176 62.3702 116.37 63.4668 115.833" stroke="#202124" stroke-width="0.352778" stroke-miterlimit="10"/>
<path d="M52.2773 117.332C53.3515 117.847 55.2314 118.586 57.6483 118.63C60.3114 118.675 62.3702 117.869 63.4668 117.332" stroke="#202124" stroke-width="0.352778" stroke-miterlimit="10"/>
<path d="M52.2773 118.63C53.3515 119.145 55.2314 119.884 57.6483 119.928C60.3114 119.973 62.3702 119.167 63.4668 118.63" stroke="#202124" stroke-width="0.352778" stroke-miterlimit="10"/>
<path d="M52.2773 120.13C53.3515 120.644 55.2314 121.383 57.6483 121.428C60.3114 121.472 62.3702 120.667 63.4668 120.13" stroke="#202124" stroke-width="0.352778" stroke-miterlimit="10"/>
<path d="M52.2773 121.651C53.3515 122.166 55.2314 122.905 57.6483 122.949C60.3114 122.994 62.3702 122.188 63.4668 121.651" stroke="#202124" stroke-width="0.352778" stroke-miterlimit="10"/>
<path d="M52.2773 123.151C53.3515 123.666 55.2314 124.404 57.6483 124.449C60.3114 124.494 62.3702 123.688 63.4668 123.151" stroke="#202124" stroke-width="0.352778" stroke-miterlimit="10"/>
<path d="M32.5354 121.401C36.067 119.461 37.8687 115.957 36.5598 113.573C35.2508 111.19 31.3267 110.83 27.7951 112.77C24.2635 114.71 22.4618 118.214 23.7707 120.597C25.0796 122.981 29.0038 123.34 32.5354 121.401Z" fill="#202124"/>
<path d="M32.2414 120.977C35.773 119.038 37.5747 115.533 36.2658 113.15C34.9568 110.767 31.0327 110.407 27.5011 112.347C23.9697 114.286 22.1678 117.791 23.4767 120.174C24.7859 122.557 28.7098 122.917 32.2414 120.977Z" fill="#F6D47B" stroke="#202124" stroke-width="0.352778" stroke-miterlimit="10"/>
<path d="M33.2322 112.476C32.9189 112.745 32.628 113.013 32.3147 113.282C32.158 113.416 32.3818 113.662 32.5608 113.528C32.8741 113.259 33.1651 112.991 33.4784 112.722C33.635 112.588 33.3888 112.342 33.2322 112.476Z" fill="#202124"/>
<path d="M33.2995 114.401C32.561 113.036 30.3008 112.812 29.6966 114.468C29.4056 115.273 29.8308 115.475 30.3008 115.967C30.4127 116.034 30.5246 116.101 30.6365 116.169C30.726 116.661 30.8379 117.131 30.9274 117.623C30.7707 118.093 29.898 118.518 29.4728 118.63C28.2419 118.944 27.0111 118.272 26.5411 117.109C26.4516 116.907 26.1383 116.997 26.2278 117.198C26.9663 119.011 29.2937 119.66 30.7931 118.295C31.3526 117.78 31.8002 116.93 31.2631 116.236C31.0393 115.967 30.726 115.878 30.4798 115.654C28.958 114.222 31.9792 112.655 33.031 114.535C33.0981 114.759 33.3891 114.602 33.2995 114.401Z" fill="#202124"/>
<path d="M26.7864 118.071C26.3612 118.362 25.9583 118.653 25.5331 118.944C25.3541 119.078 25.5331 119.369 25.7122 119.235C26.1374 118.944 26.5402 118.653 26.9654 118.362C27.122 118.227 26.9654 117.937 26.7864 118.071Z" fill="#202124"/>
<path d="M68.8817 124.409C71.4741 123.099 72.8712 120.643 72.002 118.922C71.1328 117.201 68.3265 116.867 65.7341 118.176C63.1415 119.486 61.7444 121.942 62.6136 123.663C63.4828 125.384 66.2891 125.718 68.8817 124.409Z" fill="#202124"/>
<path d="M68.6805 124.114C71.2729 122.804 72.67 120.348 71.8008 118.627C70.9316 116.906 68.1253 116.572 65.5329 117.881C62.9404 119.191 61.5432 121.647 62.4124 123.368C63.2816 125.089 66.0879 125.423 68.6805 124.114Z" fill="#F6D47B" stroke="#202124" stroke-width="0.352778" stroke-miterlimit="10"/>
<path d="M69.5085 118.049C69.2847 118.228 69.0609 118.429 68.8371 118.608C68.6805 118.742 68.9043 118.988 69.0833 118.854C69.3071 118.675 69.5309 118.474 69.7546 118.295C69.9113 118.138 69.6651 117.914 69.5085 118.049Z" fill="#202124"/>
<path d="M69.6199 119.391C69.0604 118.429 67.3596 118.205 66.912 119.436C66.7106 119.973 66.9568 120.13 67.2701 120.488C67.6058 120.868 68.568 120.488 67.6729 121.808C67.4491 122.121 66.9791 122.278 66.6211 122.345C65.7707 122.479 65.0322 122.032 64.6965 121.271C64.607 121.07 64.3161 121.249 64.4056 121.45C64.965 122.726 66.6211 123.151 67.7176 122.256C68.0981 121.942 68.4785 121.383 68.2324 120.868C68.1428 120.667 67.9414 120.6 67.8072 120.443C67.7176 120.376 67.6281 120.331 67.5386 120.286C67.5162 119.951 67.4939 119.593 67.4715 119.257C67.74 119.145 68.0086 119.033 68.2771 118.944C68.7695 118.944 69.1275 119.167 69.3513 119.593C69.4408 119.749 69.7317 119.593 69.6199 119.391Z" fill="#202124"/>
<path d="M64.8531 121.965C64.5622 122.166 64.2489 122.368 63.9579 122.591C63.7789 122.703 63.9579 122.994 64.137 122.882C64.4279 122.681 64.7412 122.479 65.0321 122.256C65.1888 122.121 65.0321 121.831 64.8531 121.965Z" fill="#202124"/>
<path d="M77.3595 114.372C77.5774 111.302 75.8451 108.678 73.4904 108.511C71.1357 108.343 69.05 110.697 68.832 113.766C68.614 116.836 70.3461 119.46 72.7011 119.628C75.0558 119.795 77.1415 117.442 77.3595 114.372Z" fill="#202124"/>
<path d="M76.9305 114.326C77.1485 111.256 75.4164 108.632 73.0614 108.465C70.7067 108.298 68.6212 110.651 68.4033 113.721C68.1853 116.791 69.9174 119.415 72.2721 119.582C74.6271 119.749 76.7125 117.396 76.9305 114.326Z" fill="#F6D47B" stroke="#202124" stroke-width="0.352778" stroke-miterlimit="10"/>
<path d="M71.3438 109.992C71.3886 110.305 71.411 110.619 71.4557 110.932C71.4781 111.133 71.8138 111.156 71.7914 110.932C71.7467 110.619 71.7243 110.305 71.6795 109.992C71.6571 109.768 71.3215 109.768 71.3438 109.992Z" fill="#202124"/>
<path d="M72.7987 110.865C71.6574 110.686 70.2923 111.559 70.8741 112.879C71.0979 113.394 71.5231 113.64 72.0826 113.573C72.3063 113.55 72.5525 113.394 72.7763 113.394C74.0295 113.371 74.1414 114.401 73.8952 115.139C73.5372 116.191 72.3287 116.46 71.3664 116.213C71.165 116.169 71.0755 116.482 71.2769 116.527C72.6868 116.885 74.3876 116.146 74.3428 114.513C74.3428 113.998 74.0967 113.349 73.6043 113.103C73.3582 112.968 73.112 112.968 72.8434 113.013C72.6644 113.036 72.3287 113.237 72.1497 113.215C71.814 112.812 71.4783 112.431 71.1426 112.029C71.4783 111.312 72.0154 111.022 72.7315 111.178C72.9106 111.223 73.0001 110.887 72.7987 110.865Z" fill="#202124"/>
<path d="M72.1055 116.571C72.1055 116.952 72.1055 117.355 72.1055 117.735C72.1055 117.959 72.4412 117.959 72.4412 117.735C72.4412 117.355 72.4412 116.952 72.4412 116.571C72.4412 116.37 72.1055 116.37 72.1055 116.571Z" fill="#202124"/>
<path d="M9.28694 58.7221C13.724 58.7221 17.321 54.8145 17.321 49.9943C17.321 45.1741 13.724 41.2666 9.28694 41.2666C4.84989 41.2666 1.25293 45.1741 1.25293 49.9943C1.25293 54.8145 4.84989 58.7221 9.28694 58.7221Z" fill="#202124"/>
<path d="M23.8779 17.5003C26.2386 17.5003 28.1522 13.5827 28.1522 8.75013C28.1522 3.91758 26.2386 0 23.8779 0C21.5172 0 19.6035 3.91758 19.6035 8.75013C19.6035 13.5827 21.5172 17.5003 23.8779 17.5003Z" fill="#202124"/>
<path d="M95.9836 70.5606C99.1847 70.5606 101.78 66.4827 101.78 61.4524C101.78 56.4221 99.1847 52.3442 95.9836 52.3442C92.7826 52.3442 90.1875 56.4221 90.1875 61.4524C90.1875 66.4827 92.7826 70.5606 95.9836 70.5606Z" fill="#202124"/>
<path d="M8.03401 58.7221C12.4711 58.7221 16.068 54.8145 16.068 49.9943C16.068 45.1741 12.4711 41.2666 8.03401 41.2666C3.59695 41.2666 0 45.1741 0 49.9943C0 54.8145 3.59695 58.7221 8.03401 58.7221Z" fill="#F6D47B"/>
<path d="M22.6249 17.5003C24.9857 17.5003 26.8993 13.5827 26.8993 8.75013C26.8993 3.91758 24.9857 0 22.6249 0C20.2643 0 18.3506 3.91758 18.3506 8.75013C18.3506 13.5827 20.2643 17.5003 22.6249 17.5003Z" fill="#F6D47B"/>
<path d="M96.7883 70.7172C99.9894 70.7172 102.584 66.6393 102.584 61.609C102.584 56.5787 99.9894 52.5008 96.7883 52.5008C93.5872 52.5008 90.9922 56.5787 90.9922 61.609C90.9922 66.6393 93.5872 70.7172 96.7883 70.7172Z" fill="#F6D47B"/>
<path d="M7.47461 42.7212C7.47461 43.6388 7.47461 44.5563 7.47461 45.4962C7.47461 45.9214 8.14597 45.9214 8.14597 45.4962C8.14597 44.5787 8.14597 43.6612 8.14597 42.7212C8.14597 42.2737 7.47461 42.2737 7.47461 42.7212Z" fill="white"/>
<path d="M10.7645 45.72C9.19797 45.4291 7.38528 45.25 6.10969 46.3914C5.19215 47.2194 4.74458 48.7635 5.84114 49.6363C7.34052 50.8224 10.5855 49.5915 11.1897 51.8742C11.6149 53.5302 9.8022 54.4254 8.43709 54.5597C7.27339 54.6715 6.08731 54.4478 5.30405 53.5078C5.0355 53.1722 4.56554 53.6421 4.83409 53.9778C6.64678 56.1709 12.4429 55.4772 11.9282 51.9189C11.7044 50.3748 10.0707 49.8153 8.72801 49.6363C8.12378 49.5468 7.45242 49.5468 6.87057 49.3678C5.66211 48.9873 5.75162 47.667 6.49013 46.9508C7.58669 45.8767 9.24273 46.0781 10.6078 46.3466C11.0107 46.4585 11.1897 45.8095 10.7645 45.72Z" fill="white"/>
<path d="M7.81055 55.2086C7.81055 55.8128 7.81055 56.4394 7.81055 57.0437C7.81055 57.4689 8.48191 57.4689 8.48191 57.0437C8.48191 56.4394 8.48191 55.8128 8.48191 55.2086C8.48191 54.7834 7.81055 54.7834 7.81055 55.2086Z" fill="white"/>
<path d="M21.7295 1.56649C21.7295 2.48403 21.7295 3.40156 21.7295 4.34148C21.7295 4.76667 22.4009 4.76667 22.4009 4.34148C22.4009 3.42394 22.4009 2.50641 22.4009 1.56649C22.4009 1.14129 21.7295 1.14129 21.7295 1.56649Z" fill="white"/>
<path d="M23.9009 4.58765C22.8267 4.27434 21.7973 4.22958 21.0364 5.14712C20.4322 5.88562 20.1413 7.04932 20.477 7.96685C20.9917 9.35432 22.4911 8.77249 23.4534 9.57813C25.557 11.3684 22.2225 15.3071 20.7008 12.4426C20.4993 12.0622 19.9175 12.3979 20.1189 12.7783C21.3721 15.1505 24.3261 14.0091 24.6842 11.637C24.8632 10.518 24.4828 9.26483 23.3862 8.72773C22.3792 8.2354 21.0588 8.70535 21.0141 7.0717C20.9693 5.43804 22.312 4.78905 23.7443 5.21425C24.1471 5.34853 24.3261 4.72192 23.9009 4.58765Z" fill="white"/>
<path d="M21.9541 14.0763C21.9541 14.6805 21.9541 15.3071 21.9541 15.9113C21.9541 16.3365 22.6255 16.3365 22.6255 15.9113C22.6255 15.3071 22.6255 14.6805 22.6255 14.0763C22.6255 13.6511 21.9541 13.6511 21.9541 14.0763Z" fill="white"/>
<path d="M95.8711 54.7163C95.8711 55.6115 95.8711 56.5066 95.8711 57.4241C95.8711 57.8493 96.5425 57.8493 96.5425 57.4241C96.5425 56.529 96.5425 55.6338 96.5425 54.7163C96.5425 54.2911 95.8711 54.2911 95.8711 54.7163Z" fill="white"/>
<path d="M99.406 57.6479C97.6828 57.357 95.6911 57.1556 94.2812 58.4088C93.2741 59.3039 93.0056 60.9152 94.3483 61.6313C95.8253 62.437 99.943 61.5642 99.9878 64.0259C100.033 65.6819 97.8394 66.2638 96.5638 66.3085C95.4225 66.3533 94.2588 66.1295 93.4756 65.2567C93.1846 64.9434 92.7147 65.4134 93.0056 65.7267C94.8407 67.7408 101.196 67.3827 100.637 63.7126C100.391 62.1237 98.5108 61.6314 97.1681 61.4747C96.5191 61.4076 95.8253 61.4076 95.1763 61.2285C94.6616 61.0943 94.0798 60.4005 94.1022 59.841C94.1245 59.4382 94.5721 59.0354 94.8407 58.8116C96.0715 57.8269 97.7947 58.0507 99.2269 58.2745C99.6521 58.364 99.8312 57.7151 99.406 57.6479Z" fill="white"/>
<path d="M96.251 66.9128C96.251 67.517 96.251 68.1212 96.251 68.7031C96.251 69.1283 96.9223 69.1283 96.9223 68.7031C96.9223 68.0989 96.9223 67.4946 96.9223 66.9128C96.9223 66.4876 96.251 66.4876 96.251 66.9128Z" fill="white"/>
<path d="M44.0411 77.5427C43.5711 84.8606 43.7054 88.5755 44.4215 88.665C45.2048 88.7769 46.6818 84.6592 48.8302 76.3567C47.8231 75.73 46.8161 75.1258 45.809 74.4992C45.2272 75.5063 44.6453 76.5133 44.0411 77.5427Z" fill="#F6D47B"/>
<path d="M44.2208 78.505C43.9075 78.326 43.5719 78.4603 43.3033 78.6841C43.1019 78.8631 42.7438 79.1988 42.9453 79.4897C43.1019 79.7135 43.4376 79.6688 43.639 79.5792C43.9523 79.445 44.1985 79.154 44.3104 78.8184C44.3551 78.7065 44.1761 78.6841 44.1537 78.7736C44.0418 79.0869 43.6166 79.6016 43.2138 79.4673C42.8557 79.3331 43.2586 78.9526 43.3928 78.8184C43.5942 78.6393 43.8628 78.5051 44.1313 78.6393C44.2208 78.7065 44.3104 78.5498 44.2208 78.505Z" fill="white"/>
<path d="M44.22 78.7736C44.4661 78.3708 44.8018 77.9232 45.2941 77.8113C45.4508 77.7441 45.5627 77.8113 45.6298 77.9903C45.6074 78.0351 45.5627 78.0798 45.5403 78.1246C45.4508 78.2365 45.3165 78.3484 45.2046 78.4155C44.9585 78.5722 44.6899 78.6617 44.4214 78.6841C44.3095 78.7064 44.3095 78.8631 44.4214 78.8631C44.8466 78.8183 45.227 78.6617 45.5403 78.3708C45.7193 78.2141 46.0326 77.9008 45.7641 77.6994C45.5403 77.5204 45.1375 77.6546 44.9137 77.7889C44.5556 77.9903 44.3095 78.3484 44.0857 78.6841C44.0185 78.796 44.1528 78.8631 44.22 78.7736Z" fill="white"/>
<path d="M43.8849 80.4072C44.1311 80.0267 44.6011 79.8701 45.0263 79.9372C45.1382 79.9596 45.1829 79.7806 45.071 79.7806C44.5563 79.7134 44.0192 79.8925 43.7283 80.3401C43.6612 80.4072 43.8178 80.4967 43.8849 80.4072Z" fill="white"/>
<path d="M43.7511 81.28C44.042 81.0114 44.4224 80.9219 44.8029 81.0114C44.9148 81.0338 44.9595 80.8772 44.8476 80.8548C44.4224 80.7429 43.9749 80.8548 43.6392 81.1681C43.5497 81.2352 43.6839 81.3471 43.7511 81.28Z" fill="white"/>
<path d="M43.751 82.6675C43.9748 82.3765 44.3328 82.2423 44.6909 82.2646C44.8028 82.2646 44.8028 82.108 44.6909 82.0856C44.2881 82.0632 43.8853 82.2199 43.6167 82.5332C43.572 82.6451 43.6839 82.757 43.751 82.6675Z" fill="white"/>
<path d="M43.6158 84.0326C43.8396 83.876 44.0634 83.7641 44.3319 83.7193C44.4438 83.6969 44.4438 83.5403 44.3319 83.5403C44.041 83.585 43.7501 83.6746 43.5263 83.876C43.4592 83.9431 43.5263 84.0998 43.6158 84.0326Z" fill="white"/>
<path d="M48.2712 76.3119C47.5104 78.6841 46.839 81.0786 46.2795 83.4955C46.2571 83.6074 46.4138 83.6522 46.4362 83.5403C46.9956 81.1234 47.667 78.7288 48.4279 76.3567C48.4503 76.2672 48.2936 76.2224 48.2712 76.3119Z" fill="white"/>
<path d="M43.7506 51.3819C42.8778 51.2029 41.6693 50.9567 40.2595 50.7105C38.223 50.3301 38.3796 50.4196 34.1277 49.7258C32.5835 49.4797 31.017 49.4125 29.4729 49.2111C28.7791 49.1216 28.0182 49.0097 27.2126 49.3454C26.0713 49.8377 25.6237 50.8448 25.5789 50.9567C25.3999 51.4043 25.3328 51.8518 25.4223 52.7694C25.6237 54.6268 26.1608 55.9695 26.2055 56.0367C27.414 58.9236 28.9358 61.251 28.9358 61.251C30.3233 63.3322 31.8003 65.5701 34.2619 68.4122C36.4551 70.941 38.5587 72.9103 40.2371 74.3873C41.647 75.6182 42.9226 76.6029 43.952 77.3637C44.2429 77.2518 44.7129 77.0057 45.1381 76.5357C45.7647 75.8643 45.9213 75.1482 45.9885 74.8349C45.1381 73.246 44.2877 71.6347 43.4373 69.9787C42.1393 67.4275 40.9308 64.9435 39.7895 62.4818C40.3937 62.6832 41.2218 62.907 42.2288 63.086C43.7953 63.3769 45.0038 63.4217 46.1227 63.4665C47.5997 63.5112 48.7187 63.4441 50.9566 63.3098C52.7693 63.1979 53.3735 63.1084 53.8434 63.0413C55.4323 62.7727 56.4394 62.5937 57.2674 61.8999C57.7597 61.4747 58.1849 60.8705 58.5206 59.6621C58.7444 58.8117 60.0424 54.1121 57.5807 51.27C55.0519 48.3607 48.853 47.7789 43.7506 51.3819Z" fill="url(#paint0_linear_520_687)"/>
<path d="M43.1239 51.1804C39.2076 50.3524 35.2689 49.7034 31.2855 49.2782C28.7343 49.0097 25.3551 48.6516 25.3104 52.1427C25.2656 55.41 27.1454 58.5655 28.8238 61.2509C30.6589 64.1602 32.7625 66.8904 35.0675 69.4416C37.753 72.3956 40.707 75.0587 43.9072 77.4308C43.9967 77.498 44.0862 77.3413 43.9967 77.2966C37.574 72.5075 32.024 66.4876 27.9958 59.5501C26.9664 57.7822 26.0489 55.9247 25.6684 53.8883C25.4446 52.7917 25.288 51.3818 25.937 50.3748C26.6978 49.1887 28.1972 49.1887 29.4504 49.2782C34.0157 49.5915 38.6034 50.3972 43.0792 51.3595C43.1687 51.3818 43.2134 51.2028 43.1239 51.1804Z" fill="#202124"/>
<path d="M37.4172 57.6032C40.0355 63.4664 42.8552 69.2178 45.8988 74.8797C45.9435 74.9692 46.1002 74.8797 46.033 74.7902C42.9895 69.1507 40.1698 63.3769 37.5515 57.5137C37.5291 57.4242 37.3724 57.5137 37.4172 57.6032Z" fill="#202124"/>
<path d="M44.1987 77.3189C45.0491 76.9609 45.6534 76.2447 45.7429 75.3272C45.7653 75.2153 45.5862 75.2153 45.5639 75.3272C45.4743 76.1552 44.9149 76.849 44.1316 77.1623C44.0421 77.207 44.0868 77.3637 44.1987 77.3189Z" fill="#202124"/>
<path d="M39.4541 62.3475C42.5423 63.5783 45.8768 63.6455 49.1441 63.4888C51.9862 63.3545 55.1416 63.3993 57.6257 61.7656C57.7152 61.6985 57.6257 61.5642 57.5362 61.6314C54.985 63.3098 51.6729 63.2426 48.7413 63.3545C45.6083 63.4888 42.4528 63.3545 39.4988 62.1908C39.4093 62.1461 39.3646 62.3251 39.4541 62.3475Z" fill="#202124"/>
<path d="M34.1055 26.7651C34.6873 26.4294 35.5153 25.9818 36.5224 25.5119C36.9476 25.3105 38.9393 24.3929 41.8262 23.5873C43.3703 23.1621 45.4292 22.6921 47.8685 22.4012C51.4715 21.976 54.4702 22.1327 56.4172 22.3117C60.0873 22.6698 63.1532 23.4754 65.503 24.281C65.5925 25.579 65.6597 26.877 65.7492 28.175C65.4806 28.9358 65.0778 30.1219 64.5407 31.5765C62.4147 37.4398 61.4301 39.4763 60.1321 43.3254C59.595 44.892 58.8565 47.2194 58.1404 50.1286C57.6928 50.4419 57.0662 50.8447 56.2605 51.2028C55.0968 51.7399 54.1122 51.9637 53.4184 52.098C51.4715 52.5231 49.9049 52.5008 49.5916 52.5008C46.6824 52.456 44.355 51.5161 42.9899 50.8447C42.2066 48.9873 41.4457 47.1075 40.7072 45.2053C38.2232 38.8944 36.0524 32.7402 34.1055 26.7651Z" fill="url(#paint1_linear_520_687)"/>
<path d="M34.5084 26.5861C43.818 21.7299 55.0298 20.9018 64.966 24.2363C65.0779 24.2811 65.1227 24.102 65.0108 24.0796C55.0075 20.7228 43.7733 21.5732 34.4189 26.4518C34.3294 26.4966 34.4189 26.6308 34.5084 26.5861Z" fill="#202124"/>
<path d="M35.5383 31.6885C37.8433 38.1336 40.305 44.534 42.9233 50.8672C42.9681 50.9567 43.1247 50.9119 43.08 50.8224C40.4617 44.4892 38 38.0888 35.695 31.6437C35.6726 31.5318 35.5159 31.5766 35.5383 31.6885Z" fill="#202124"/>
<path d="M43.7279 51.449C48.3156 53.2169 53.5522 52.8812 57.8713 50.5091C57.9609 50.4643 57.8713 50.3077 57.7818 50.3748C53.5075 52.7246 48.3379 53.0603 43.7727 51.2923C43.6608 51.2476 43.616 51.4266 43.7279 51.449Z" fill="#202124"/>
<path d="M65.6813 28.1526C63.2196 35.4928 59.8628 42.5422 58.0725 50.1062C58.0501 50.2181 58.2068 50.2629 58.2291 50.151C59.9971 42.5869 63.3539 35.5376 65.838 28.1973C65.8603 28.1078 65.7037 28.0631 65.6813 28.1526Z" fill="#202124"/>
<path d="M52.322 21.148C52.2549 20.969 52.0535 20.499 50.4646 19.492C49.9498 19.1563 49.4799 18.9101 49.1666 18.7535C48.898 18.9325 48.4728 19.1563 47.9581 19.3801C46.772 19.9172 45.9664 20.2752 45.0265 20.1633C44.2656 20.0738 43.3257 19.6486 42.7886 18.843C41.8263 17.4331 42.6767 15.7771 42.811 15.5757C43.5943 14.121 45.1608 13.7406 45.5188 13.6511C47.7343 13.0916 49.5246 14.3672 49.7708 14.5239C49.7484 14.1882 49.7261 13.3602 50.2408 12.5321C50.3527 12.3755 51.1135 11.1894 52.2549 11.167C52.5458 11.167 52.8367 11.2789 53.3962 11.5027C54.5823 11.9727 54.7837 12.3755 55.4327 12.3755C55.5669 12.3755 55.5669 12.3531 56.4397 12.0846C56.4397 12.0846 57.0439 11.9055 57.8943 11.6594C58.7224 11.4356 59.9084 11.3461 61.0274 11.5251C63.2429 11.9055 64.5632 13.293 64.7646 13.4944C65.1451 13.9196 66.1074 15.0386 66.3088 16.6946C66.7116 19.7605 64.2947 21.976 63.78 22.446C63.1757 23.0054 61.8106 24.0796 59.7294 24.5048C59.058 24.6391 56.7978 25.0643 54.4704 23.9453C53.4409 23.453 52.7696 22.8264 52.3444 22.3788C52.4787 21.797 52.3891 21.3718 52.322 21.148Z" fill="#202124"/>
<path d="M52.0312 16.2246C52.2774 16.4708 52.546 16.7841 52.7698 17.1869C53.3068 18.1045 53.4411 18.9772 53.4635 19.5143C53.5754 19.3129 53.8887 18.6863 53.6873 17.9031C53.374 16.717 52.1208 16.2694 52.0312 16.2246Z" fill="white"/>
<path d="M45.1601 20.1633C45.1154 20.4766 45.0706 20.9242 45.1378 21.4389C45.2049 22.0655 45.3168 23.0502 46.1 23.8782C46.9728 24.7734 48.1589 24.9077 48.5393 24.93C48.6289 25.0419 48.7407 25.221 48.696 25.4C48.6065 25.7133 48.1141 25.7133 47.7785 26.1161C47.5547 26.3847 47.4428 26.7651 47.5323 27.1008C47.7337 27.7945 48.8974 27.9512 49.0317 27.9736C50.0611 28.1078 51.5829 27.6379 51.8738 26.4742C52.0976 25.5566 51.4038 24.751 51.2919 24.6167C51.2696 24.3706 51.2472 24.1468 51.2024 23.9006C51.4262 23.6992 51.7395 23.4083 51.9857 23.0055C52.3885 22.3565 52.5004 21.7522 52.5452 21.3718C52.2318 21.0137 51.8738 20.6333 51.4486 20.2529C50.6429 19.5367 49.8373 19.0444 49.1659 18.6863C48.8303 18.9101 48.4274 19.1563 47.9575 19.3801C46.8833 19.8724 45.8986 20.0962 45.1601 20.1633Z" fill="white"/>
<path d="M49.0996 20.9466C49.248 20.9466 49.3681 20.7563 49.3681 20.5214C49.3681 20.2866 49.248 20.0962 49.0996 20.0962C48.9512 20.0962 48.8311 20.2866 48.8311 20.5214C48.8311 20.7563 48.9512 20.9466 49.0996 20.9466Z" fill="#202124"/>
<path d="M45.1385 20.2081C44.758 22.3341 45.7203 24.5944 48.0253 24.8853C50.2856 25.1762 52.3221 23.6544 52.5906 21.3942C52.613 21.2823 52.434 21.2823 52.4116 21.3942C52.143 23.4307 50.3975 24.8181 48.361 24.751C45.9665 24.6615 44.8923 22.4012 45.2727 20.2529C45.3175 20.1634 45.1608 20.1186 45.1385 20.2081Z" fill="#202124"/>
<path d="M48.4503 24.9525C48.5399 25.2434 48.6518 25.5567 48.7413 25.8476C48.7636 25.9595 48.9427 25.9148 48.8979 25.8029C48.8084 25.5119 48.6965 25.1986 48.607 24.9077C48.5622 24.8182 48.4056 24.863 48.4503 24.9525Z" fill="#202124"/>
<path d="M48.5631 25.3776C48.0036 25.7133 47.2875 26.2056 47.3994 26.9441C47.4889 27.5707 48.1379 27.8169 48.675 27.884C48.7868 27.9064 48.7868 27.7273 48.675 27.705C48.0931 27.6378 47.4665 27.3245 47.5784 26.6532C47.6679 26.0937 48.205 25.7804 48.6526 25.5118C48.7421 25.4671 48.6526 25.3328 48.5631 25.3776Z" fill="#202124"/>
<path d="M51.0901 24.0349C51.1348 24.2363 51.1572 24.4601 51.202 24.6615C51.2243 24.7734 51.381 24.7286 51.3586 24.6167C51.3139 24.4153 51.2915 24.1915 51.2467 23.9901C51.2243 23.8782 51.0677 23.923 51.0901 24.0349Z" fill="#202124"/>
<path d="M47.3764 20.2753C47.0631 21.0809 46.705 22.7817 47.9135 23.0279C48.0254 23.0502 48.0701 22.8936 47.9582 22.8712C46.8617 22.6698 47.2421 21.0361 47.533 20.32C47.5778 20.2305 47.4212 20.1857 47.3764 20.2753Z" fill="#202124"/>
<path d="M45.2951 20.0739C43.0349 20.0515 41.7369 17.7465 42.7663 15.7771C43.5272 14.3225 45.1608 13.5616 46.7497 13.6064C50.5318 13.7183 52.9935 17.9479 52.5011 21.4166C52.4787 21.5285 52.6578 21.5733 52.6578 21.4614C53.2172 17.4556 49.838 12.4427 45.3623 13.584C43.8405 13.9645 42.4306 15.24 42.2516 16.8513C42.0278 18.7311 43.4601 20.2305 45.2951 20.2305C45.407 20.2529 45.407 20.0963 45.2951 20.0739Z" fill="#202124"/>
<path d="M45.3174 20.1857C46.6602 20.1857 48.0029 19.4025 49.189 18.8206C49.2785 18.7759 49.2113 18.6192 49.0994 18.6863C47.9357 19.2458 46.6154 20.0067 45.295 20.0291C45.2055 20.0067 45.2055 20.1857 45.3174 20.1857Z" fill="#202124"/>
<path d="M49.1204 18.7759C49.8366 19.0221 50.4856 19.6263 51.0674 20.0962C51.5821 20.4991 52.0521 20.9466 52.4549 21.4614C52.522 21.5509 52.6339 21.4166 52.5668 21.3495C52.0744 20.7452 51.4926 20.2305 50.8884 19.7606C50.3513 19.3354 49.7918 18.8654 49.1428 18.6192C49.0757 18.5745 49.0309 18.7535 49.1204 18.7759Z" fill="#202124"/>
<path d="M49.816 14.5463C49.7713 13.293 50.3307 11.9951 51.5392 11.4804C52.8148 10.9433 53.1057 11.7937 53.9561 12.3979C54.8065 13.0021 56.1493 12.2189 56.9773 11.9727C60.3117 10.9656 64.3399 11.7937 65.7945 15.3295C68.7485 22.5355 56.9325 27.8393 52.4344 22.2222C52.3672 22.1327 52.2553 22.267 52.3225 22.3341C54.0233 24.4601 56.9101 25.1986 59.5061 24.6391C62.1915 24.0573 65.1679 22.1103 66.0855 19.4249C66.9359 16.9408 65.9959 14.1882 63.87 12.6664C62.7734 11.8608 61.4307 11.4132 60.0655 11.3461C58.3648 11.2566 56.9325 11.9727 55.3212 12.3531C54.4932 12.5545 54.1799 12.1517 53.5981 11.6594C53.3967 11.5027 53.3743 11.3908 53.1281 11.2789C52.6134 11.0104 51.9868 11.0775 51.4721 11.3013C50.2189 11.8608 49.5922 13.2483 49.637 14.5463C49.6594 14.6582 49.8384 14.6582 49.816 14.5463Z" fill="#202124"/>
<path d="M45.5853 59.0802C45.3839 59.2816 45.093 59.6173 44.9811 60.1096C44.8692 60.5796 44.9587 60.9376 45.0706 61.3405C45.1825 61.788 45.272 62.1461 45.5406 62.4594C45.9882 62.9965 46.6819 63.1084 47.7561 63.265C48.5617 63.3769 49.0317 63.4441 49.5912 63.2427C49.7702 63.1755 50.4863 62.907 50.6653 62.3027C50.7325 62.1013 50.6877 61.8775 50.5982 61.4076C50.5087 60.8929 50.3968 60.3782 50.0164 59.8411C49.8821 59.662 49.7478 59.5054 49.6583 59.4159C49.7478 59.3487 50.0835 59.0578 50.1282 58.5655C50.1506 58.1627 49.9492 57.6479 49.5464 57.4913C49.1436 57.3123 48.696 57.5584 48.0918 57.8941C47.7113 58.0955 47.4428 58.3193 47.2638 58.476C46.9057 58.0731 46.3462 58.006 45.9658 58.2522C45.6972 58.4312 45.563 58.7445 45.5853 59.0802Z" fill="white"/>
<path d="M34.463 26.5189C34.105 26.7203 33.7469 27.0336 33.7021 27.056C32.5832 28.0183 32.2251 29.182 32.0909 29.6967C31.8895 30.3681 31.7328 31.3751 32.1356 33.5459C32.5832 35.9404 33.3665 37.686 33.5007 38.044C35.6043 42.7883 37.4842 46.3466 37.4842 46.3466C39.0059 49.2334 39.9906 51.0461 41.9376 54.6715C43.146 56.9094 44.1307 58.7445 44.7573 59.9305C44.914 59.6844 45.1601 59.3711 45.5629 59.0578C46.2119 58.5654 46.9057 58.4312 47.2414 58.3864C47.0399 57.5584 46.7266 56.3275 46.3238 54.8058C45.451 51.5832 45.1377 50.7104 44.6454 48.8306C43.974 46.3018 43.6384 44.4891 43.0789 41.4456C42.3851 37.6636 42.0271 35.7614 41.9376 34.2844C41.7362 30.5695 42.318 29.8534 41.4229 28.5554C39.9458 26.4518 36.2757 25.5342 34.463 26.5189Z" fill="url(#paint2_linear_520_687)"/>
<path d="M34.0831 26.698C32.0467 28.1078 31.5767 30.5471 31.9348 32.8745C32.4271 35.9852 33.7251 38.9839 35.0678 41.8037C38.0442 47.9802 41.4905 53.9554 44.7131 59.9977C44.7579 60.0872 44.9145 59.9977 44.8474 59.9082C42.0053 54.582 39.0736 49.3006 36.2986 43.9297C34.9559 41.3337 33.7027 38.6706 32.8299 35.8733C31.89 32.8745 31.1291 28.9358 34.1503 26.8546C34.2398 26.7651 34.1503 26.6308 34.0831 26.698Z" fill="#202124"/>
<path d="M41.6474 32.2927C42.6769 40.9757 44.5119 49.5468 47.1079 57.9164C47.1303 58.0283 47.3093 57.9836 47.2645 57.8717C44.6686 49.5244 42.8559 40.9757 41.8265 32.2927C41.8041 32.2031 41.6251 32.2031 41.6474 32.2927Z" fill="#202124"/>
<path d="M45.0706 60.1096C45.3168 59.1697 46.1672 58.5431 47.1071 58.4983C47.219 58.4983 47.219 58.3193 47.1071 58.3193C46.0777 58.3864 45.1601 59.0578 44.8916 60.0649C44.8916 60.1767 45.0483 60.2215 45.0706 60.1096Z" fill="#202124"/>
<path d="M47.6004 58.4312C47.9584 58.1179 48.3612 57.7598 48.7864 57.5808C49.2788 57.3794 49.6368 57.4018 49.883 57.8717C50.0173 58.1403 50.0397 58.4312 50.0173 58.7221C49.9949 58.834 50.1739 58.834 50.1963 58.7221C50.2635 58.2074 50.0397 57.2899 49.4354 57.2003C49.1445 57.1556 48.8088 57.3794 48.585 57.5136C48.1822 57.7374 47.8242 58.006 47.5109 58.3193C47.4213 58.3864 47.5332 58.4983 47.6004 58.4312Z" fill="#202124"/>
<path d="M45.1152 60.3782C45.1375 60.8705 44.8914 61.3628 45.0257 61.8552C45.1599 62.2804 45.518 62.5713 45.876 62.7951C46.9726 63.4665 48.3601 63.3769 49.5909 63.3098C49.7028 63.3098 49.7028 63.1308 49.5909 63.1308C48.651 63.1755 47.6664 63.2427 46.7264 62.9517C46.1894 62.7951 45.518 62.4818 45.2494 61.9447C45.048 61.5419 45.2942 60.8258 45.2494 60.3334C45.2718 60.2663 45.0928 60.2663 45.1152 60.3782Z" fill="#202124"/>
<path d="M46.7279 62.1237C47.7349 62.3475 48.7196 62.5937 49.7043 62.8398C49.8162 62.8622 49.8609 62.7056 49.749 62.6832C48.7644 62.4146 47.7573 62.1685 46.7727 61.9671C46.6608 61.9447 46.616 62.1013 46.7279 62.1237Z" fill="#202124"/>
<path d="M47.5552 60.8257C48.3609 61.2733 49.1218 61.788 49.7931 62.437C49.8826 62.5041 49.9945 62.3922 49.905 62.3251C49.2113 61.6761 48.4728 61.139 47.6224 60.6915C47.5552 60.6243 47.4657 60.7586 47.5552 60.8257Z" fill="#202124"/>
<path d="M48.5179 60.2886C49.234 60.7138 49.7935 61.3181 50.1739 62.0566C50.2186 62.1461 50.3753 62.0566 50.3082 61.9671C49.9053 61.2062 49.3235 60.5796 48.585 60.1544C48.4955 60.0872 48.4283 60.2215 48.5179 60.2886Z" fill="#202124"/>
<path d="M49.0319 59.0802C50.0613 59.6173 50.4418 60.6467 50.576 61.7433C50.5984 61.8552 50.7551 61.8552 50.7551 61.7433C50.6208 60.602 50.218 59.5054 49.1214 58.9459C49.0095 58.9012 48.92 59.0354 49.0319 59.0802Z" fill="#202124"/>
<path d="M65.5259 24.281C64.5637 24.0796 63.6909 24.6615 63.1314 25.0196C60.7593 26.5861 60.1998 29.3387 60.0208 30.4352C59.2375 33.6802 58.4766 37.037 57.7829 40.5057C56.5297 46.7047 55.545 52.6574 54.7617 58.364C54.9855 58.3417 55.4107 58.2969 55.9254 58.4759C56.5744 58.6997 56.9101 59.1249 57.0444 59.2816C57.5367 58.2745 58.2081 56.9094 58.9689 55.2534C59.9984 53.0379 61.6544 49.4573 63.4447 44.7129C65.3917 39.5434 64.8993 39.9239 66.7344 34.7096C66.7344 34.7096 67.361 32.964 67.7862 30.0548C67.9876 28.7792 68.01 28.1302 67.831 27.347C67.7638 27.0784 67.2044 24.6391 65.5259 24.281Z" fill="url(#paint3_linear_520_687)"/>
<path d="M54.9406 58.006C54.2245 58.0508 54.1798 58.006 53.7098 58.0508C53.0161 58.1179 52.658 58.1627 52.3895 58.3864C52.0538 58.6774 51.9866 59.0802 51.9195 59.3487C51.8524 59.6844 51.8747 59.9977 51.9195 60.1767C51.6733 60.4229 51.2705 60.8481 51.0467 61.4971C50.9572 61.788 50.8453 62.079 50.8901 62.4146C51.002 63.1755 51.7405 63.8916 52.5909 64.0483C53.307 64.1826 53.8888 63.8916 54.4259 63.6231C55.6344 63.0189 56.2162 62.0342 56.4624 61.5866C56.7086 61.1167 56.9771 60.6467 56.9995 59.9753C57.0219 59.2368 56.731 58.1627 56.0596 57.9389C55.8806 57.8941 55.8806 57.9612 54.9406 58.006Z" fill="white"/>
<path d="M65.4805 24.3482C68.7926 26.4071 67.8079 30.0996 67.0246 33.255C66.3309 36.1642 65.4357 39.0287 64.4287 41.8261C62.3475 47.6893 59.7515 53.3512 57.178 59.0131C57.1332 59.1026 57.2675 59.1921 57.3122 59.1026C60.132 52.926 62.9517 46.7271 65.1448 40.2819C66.219 37.0818 67.1813 33.7921 67.8079 30.4576C68.2779 27.9288 67.875 25.6014 65.5476 24.1692C65.4581 24.1468 65.391 24.3034 65.4805 24.3482Z" fill="#202124"/>
<path d="M59.9535 30.4128C57.7604 39.521 56.0148 48.7411 54.7392 58.0507C54.7169 58.1626 54.8959 58.2074 54.8959 58.0955C56.1715 48.8083 57.8947 39.5882 60.1102 30.4576C60.1325 30.3457 59.9759 30.3009 59.9535 30.4128Z" fill="#202124"/>
<path d="M54.8059 58.4312C55.6339 58.3193 56.4843 58.6326 56.999 59.304C57.0661 59.3935 57.2004 59.304 57.1333 59.2145C56.5738 58.476 55.6786 58.1403 54.7611 58.2745C54.6492 58.2969 54.694 58.4536 54.8059 58.4312Z" fill="#202124"/>
<path d="M54.2684 57.9612C53.6642 57.9388 52.8361 57.9612 52.3214 58.3193C51.8962 58.6102 51.8515 59.1025 51.8291 59.5949C51.8291 59.7068 51.9858 59.7068 52.0081 59.5949C52.0305 58.9683 52.1648 58.4983 52.8138 58.2969C53.2837 58.1403 53.7984 58.1179 54.2908 58.1179C54.3803 58.1403 54.3803 57.9612 54.2684 57.9612Z" fill="#202124"/>
<path d="M52.8816 59.4158C51.8969 59.9082 51.1584 60.7362 50.8899 61.8104C50.8675 61.9223 51.0242 61.967 51.0465 61.8551C51.3151 60.8257 52.0312 60.0201 52.9711 59.5725C53.0606 59.5053 52.9711 59.3487 52.8816 59.4158Z" fill="#202124"/>
<path d="M50.9334 62.3251C51.8957 62.1013 52.7237 61.5419 53.2608 60.7138C53.3279 60.6243 53.1713 60.5348 53.1265 60.6243C52.6118 61.4076 51.8062 61.9447 50.8886 62.1461C50.7991 62.1909 50.8439 62.3475 50.9334 62.3251Z" fill="#202124"/>
<path d="M51.1124 62.9293C52.2985 62.9293 53.216 62.1685 54.0441 61.4076C54.1336 61.3404 53.9993 61.2062 53.9322 61.2957C53.1265 62.0342 52.2761 62.7727 51.1348 62.7727C51.0229 62.7727 51.0229 62.9293 51.1124 62.9293Z" fill="#202124"/>
<path d="M51.5386 63.2874C52.5233 63.7573 53.8437 62.795 54.6941 62.3922C54.7836 62.3475 54.7164 62.1908 54.6045 62.2579C53.8213 62.6384 52.5009 63.5783 51.6058 63.1531C51.5386 63.1083 51.4491 63.2426 51.5386 63.2874Z" fill="#202124"/>
<path d="M52.2324 64.0035C53.4408 64.4959 54.806 63.6679 55.634 62.8398C56.5739 61.9223 57.0886 60.6915 57.1334 59.3935C57.1334 59.2816 56.9767 59.2816 56.9543 59.3935C56.9096 60.5572 56.4844 61.6538 55.7011 62.5265C54.8955 63.3993 53.4856 64.3616 52.2771 63.8469C52.1876 63.8021 52.1429 63.9588 52.2324 64.0035Z" fill="#202124"/>
<path d="M61.5862 48.0698C61.4296 48.2041 60.8701 48.674 60.0868 49.8154C58.9231 51.4938 58.386 52.9932 58.1399 53.6198C57.2 56.2605 56.7748 58.5879 56.551 59.953C56.372 61.0495 55.7901 64.6973 55.4544 71.1648C55.3425 73.1565 55.2978 74.8125 55.2754 75.8867C55.4768 76.1329 55.9468 76.6252 56.7524 76.8938C58.1175 77.3414 59.326 76.7147 59.505 76.6252C60.0197 75.5734 60.7582 73.9845 61.5862 72.0376C64.2046 65.9729 64.0927 64.9882 66.711 57.9613C66.711 57.9613 66.9795 57.2228 68.1209 52.7246C68.2327 52.3218 68.4565 51.3819 68.367 50.1734C68.2999 49.2335 68.2327 48.3384 67.539 47.5775C66.711 46.6823 65.5025 46.5928 65.2564 46.5704C63.5556 46.4585 62.2352 47.5327 61.5862 48.0698Z" fill="url(#paint4_linear_520_687)"/>
<path d="M55.298 75.9314C55.0518 76.9161 54.7833 77.9231 54.5371 78.9078C57.8268 87.2999 59.3709 89.4482 60.0871 89.2916C60.8479 89.1125 61.1612 86.3599 59.8185 76.4909C59.6395 76.6028 58.6101 77.2965 57.245 77.0503C56.1036 76.8266 55.477 76.1328 55.298 75.9314Z" fill="#F6D47B"/>
<path d="M58.7674 78.0798C58.6555 77.6994 58.2527 77.4308 57.8499 77.4979C57.4471 77.5651 57.1114 77.9679 57.1785 78.3931C57.2457 78.7735 57.6485 79.0421 58.0289 79.0197C58.5212 78.9973 58.8346 78.5721 58.8793 78.1022C58.8793 77.9903 58.7227 77.9903 58.7003 78.1022C58.6555 78.4826 58.387 78.8631 57.9842 78.8407C57.6932 78.8407 57.4023 78.6393 57.3575 78.3483C57.2009 77.5875 58.387 77.4084 58.6108 78.1022C58.6331 78.2365 58.7898 78.1917 58.7674 78.0798Z" fill="white"/>
<path d="M58.8786 78.2365C58.9905 77.7441 59.5052 77.207 60.0199 77.5875C60.3108 77.7889 60.1989 78.1469 59.908 78.3036C59.5947 78.4826 59.2366 78.3707 58.9457 78.2365C58.8562 78.1917 58.7667 78.3484 58.8562 78.3707C59.2366 78.5274 59.7066 78.6393 60.0646 78.3931C60.3332 78.2141 60.4675 77.856 60.266 77.5651C60.087 77.2966 59.7066 77.207 59.4157 77.3189C59.0352 77.4308 58.8114 77.8113 58.7219 78.1693C58.6995 78.2812 58.8562 78.326 58.8786 78.2365Z" fill="white"/>
<path d="M58.4547 79.4897C58.9023 79.2659 59.3946 79.1764 59.9093 79.2436C60.0212 79.2659 60.0212 79.0869 59.9093 79.0645C59.3723 78.9974 58.8575 79.1093 58.3652 79.3331C58.2757 79.4002 58.3652 79.5569 58.4547 79.4897Z" fill="white"/>
<path d="M58.7215 80.5415C59.2138 80.3848 59.7062 80.3177 60.2209 80.3624C60.3328 80.3624 60.3328 80.2058 60.2209 80.1834C59.6838 80.1387 59.1691 80.2058 58.6767 80.3848C58.5872 80.4296 58.632 80.5862 58.7215 80.5415Z" fill="white"/>
<path d="M58.9909 81.459C59.3489 81.2129 59.7517 81.1234 60.1769 81.1681C60.2888 81.1681 60.2888 81.0115 60.1769 80.9891C59.7294 80.9443 59.2818 81.0562 58.9013 81.3024C58.8118 81.3695 58.9013 81.5038 58.9909 81.459Z" fill="white"/>
<path d="M59.1701 82.6675C59.5729 82.4661 59.9981 82.3318 60.4457 82.3094C60.5575 82.3094 60.5575 82.1304 60.4457 82.1304C59.9757 82.1751 59.5057 82.287 59.0805 82.5108C58.991 82.5556 59.0582 82.7122 59.1701 82.6675Z" fill="white"/>
<path d="M59.3268 84.0774C59.6848 83.8984 60.0653 83.8536 60.4681 83.9207C60.58 83.9431 60.6248 83.7865 60.5129 83.7641C60.0653 83.6969 59.6401 83.7417 59.2373 83.9431C59.1478 83.9879 59.2373 84.1222 59.3268 84.0774Z" fill="white"/>
<path d="M54.7833 78.3036C55.947 81.2576 57.2226 84.1445 58.6325 86.9866C58.6773 87.0761 58.8339 87.009 58.7668 86.8971C57.3569 84.0773 56.0813 81.1905 54.94 78.2365C54.8952 78.1469 54.7386 78.1917 54.7833 78.3036Z" fill="white"/>
<path d="M55.3877 75.9315C55.522 71.7467 55.6562 67.5618 56.1486 63.4217C56.6409 59.3488 57.3123 54.9401 59.304 51.2924C60.2439 49.5692 61.5419 47.7789 63.4217 47.018C64.4288 46.6152 65.5477 46.5481 66.5547 46.9956C67.8303 47.5551 68.3227 48.786 68.3674 50.1287C68.4346 52.3218 67.7632 54.5149 67.1366 56.5962C66.5324 58.5655 65.9058 60.5348 65.212 62.5042C63.6007 67.159 61.7881 71.7467 59.774 76.2448C59.7292 76.3343 59.8859 76.4238 59.9082 76.3343C61.8999 71.8809 63.7126 67.3604 65.3015 62.7504C66.1295 60.4006 66.8904 58.0284 67.5842 55.6115C68.1436 53.6869 68.7703 51.449 68.4793 49.4126C68.2555 47.8908 67.2485 46.7719 65.7044 46.5481C64.0483 46.3019 62.5266 47.0852 61.3629 48.2041C58.3641 51.1134 57.3123 55.6339 56.5962 59.5949C55.6339 64.9882 55.4548 70.4711 55.2758 75.9091C55.2087 76.0434 55.3877 76.0434 55.3877 75.9315Z" fill="#202124"/>
<path d="M55.7679 76.4238C56.8197 77.4532 58.2967 77.1847 59.5723 76.7595C59.6842 76.7147 59.6394 76.5581 59.5275 76.6028C58.3191 77.028 56.9092 77.3189 55.9022 76.3119C55.7903 76.2224 55.6784 76.3343 55.7679 76.4238Z" fill="#202124"/>
<path d="M16.2915 123.442C13.606 123.442 10.943 123.442 8.25749 123.442C7.42947 118.183 6.60146 112.924 5.77344 107.642H18.3504C17.6566 112.901 16.9629 118.16 16.2915 123.442Z" fill="#202124"/>
<path d="M12.0619 109.298C15.5349 109.298 18.3504 108.637 18.3504 107.821C18.3504 107.006 15.5349 106.344 12.0619 106.344C8.58888 106.344 5.77344 107.006 5.77344 107.821C5.77344 108.637 8.58888 109.298 12.0619 109.298Z" fill="white" stroke="#202124" stroke-width="0.352778" stroke-miterlimit="10"/>
<path d="M11.4585 93.096C9.91437 95.0206 9.95913 97.2361 10.8543 99.4516C11.369 100.705 12.018 101.913 12.2194 103.278C12.4656 104.912 12.1075 106.546 11.3019 107.978C11.0781 108.358 11.6599 108.694 11.8837 108.314C13.0698 106.232 13.2936 103.838 12.4656 101.578C11.4809 98.8698 9.7801 96.2514 11.9285 93.566C12.197 93.2303 11.7271 92.738 11.4585 93.096Z" fill="#F6D47B"/>
<path d="M6.82501 97.4375C6.15365 98.9145 6.82501 100.369 7.96633 101.399C8.70484 102.048 9.55523 102.54 10.2937 103.189C11.3679 104.151 11.8603 105.404 11.8155 106.837C11.7931 107.262 12.4645 107.262 12.4869 106.837C12.5316 105.225 11.9498 103.793 10.7637 102.719C9.3762 101.466 6.3103 100.123 7.38449 97.7732C7.58589 97.3927 7.00404 97.0347 6.82501 97.4375Z" fill="#F6D47B"/>
<path d="M14.7695 90.4777C15.8213 92.2904 13.9415 94.3269 12.8897 95.6696C12.0617 96.7214 11.0546 97.9522 11.1889 99.3621C11.2336 99.7873 11.905 99.7873 11.8603 99.3621C11.6812 97.3928 13.9191 95.6696 14.8814 94.1031C15.6199 92.8946 16.1122 91.44 15.3514 90.1196C15.1499 89.7616 14.5681 90.0972 14.7695 90.4777Z" fill="#F6D47B"/>
<path d="M7.00454 99.4964C6.57934 99.004 6.01987 98.2208 5.72894 97.169C4.94568 94.3492 6.6241 91.9323 6.89264 91.5519C7.20595 92.1337 7.49687 92.8722 7.6759 93.7674C8.23537 96.341 7.45211 98.5117 7.00454 99.4964Z" fill="#F6D47B"/>
<path d="M11.0556 103.48C10.8542 103.614 9.60102 104.509 7.94498 104.129C5.99802 103.704 5.25952 101.913 5.19238 101.757C5.77423 101.667 6.60225 101.622 7.56454 101.801C9.28771 102.137 10.4738 102.988 11.0556 103.48Z" fill="#F6D47B"/>
<path d="M12.6441 103.927C12.577 103.502 12.4651 102.495 12.9798 101.421C13.8302 99.6082 15.6653 99.1159 15.9338 99.0488C15.9786 99.5187 15.9786 100.391 15.5534 101.331C14.7477 103.189 12.9798 103.815 12.6441 103.927Z" fill="#F6D47B"/>
<path d="M11.5465 100.19C11.0542 99.9663 10.3157 99.5187 9.68909 98.6907C8.25685 96.7661 8.8387 94.4611 8.95059 94.1254C9.39817 94.6849 9.8905 95.4234 10.3157 96.2962C11.0542 97.7732 11.3899 99.1607 11.5465 100.19Z" fill="#F6D47B"/>
<path d="M11.3912 94.2374C11.1226 93.8793 10.7198 93.1856 10.6527 92.2904C10.4513 90.1421 12.2192 88.6874 12.3982 88.5532C12.5773 89.0679 12.8011 89.8735 12.7339 90.8806C12.622 92.6037 11.7716 93.7898 11.3912 94.2374Z" fill="#F6D47B"/>
<path d="M13.0918 96.2738C13.1142 96.1843 13.7184 94.7297 15.2625 94.4388C16.5158 94.215 17.4557 94.9535 17.5899 95.0654C17.3214 95.3563 16.9186 95.7591 16.292 96.0724C14.8821 96.7662 13.4946 96.4081 13.0918 96.2738Z" fill="#F6D47B"/>
<path d="M15.2852 92.447C14.9943 92.1561 14.2334 91.2833 14.032 89.9406C13.741 88.0608 14.7928 86.6957 14.9943 86.4495C15.3076 86.8523 15.7775 87.5237 16.0013 88.4412C16.4489 90.4329 15.509 92.0666 15.2852 92.447Z" fill="#F6D47B"/>
</g>
<defs>
<linearGradient id="paint0_linear_520_687" x1="42.2223" y1="48.8806" x2="42.2223" y2="77.3637" gradientUnits="userSpaceOnUse">
<stop stop-color="#86D0DA"/>
<stop offset="1" stop-color="#B1CEFC"/>
</linearGradient>
<linearGradient id="paint1_linear_520_687" x1="49.9273" y1="22.1292" x2="49.9273" y2="52.501" gradientUnits="userSpaceOnUse">
<stop stop-color="#F27777"/>
<stop offset="1" stop-color="#FFCA9D"/>
</linearGradient>
<linearGradient id="paint2_linear_520_687" x1="39.5632" y1="26.1232" x2="39.5632" y2="59.9305" gradientUnits="userSpaceOnUse">
<stop stop-color="#F27777"/>
<stop offset="1" stop-color="#FFCA9D"/>
</linearGradient>
<linearGradient id="paint3_linear_520_687" x1="61.357" y1="24.2399" x2="61.357" y2="59.2816" gradientUnits="userSpaceOnUse">
<stop stop-color="#F27777"/>
<stop offset="1" stop-color="#FFCA9D"/>
</linearGradient>
<linearGradient id="paint4_linear_520_687" x1="61.8315" y1="46.5624" x2="61.8315" y2="77.0533" gradientUnits="userSpaceOnUse">
<stop stop-color="#86D0DA"/>
<stop offset="1" stop-color="#B1CEFC"/>
</linearGradient>
</defs>
</svg>
