<svg width="125" height="125" viewBox="0 0 125 125" fill="none" xmlns="http://www.w3.org/2000/svg">
<path d="M105.833 90.8958H26.3122C21.5205 90.8958 17.6455 87.0208 17.6455 82.2292V32.5C17.6455 27.7083 21.5205 23.8333 26.3122 23.8333H105.833C110.625 23.8333 114.5 27.7083 114.5 32.5V82.2292C114.5 87.0208 110.604 90.8958 105.833 90.8958Z" fill="white" stroke="#202124" stroke-width="0.49867" stroke-miterlimit="10"/>
<path d="M55.4785 44.4375H26.1243C24.5618 44.4375 23.291 43.1667 23.291 41.6042V33.1875C23.291 31.625 24.5618 30.3542 26.1243 30.3542H55.4785C57.041 30.3542 58.3118 31.625 58.3118 33.1875V41.6042C58.3118 43.1667 57.041 44.4375 55.4785 44.4375Z" fill="white" stroke="#202124" stroke-width="0.49867" stroke-miterlimit="10"/>
<path d="M26.3123 39.6042C26.9581 38.8958 27.5831 38.1667 28.1456 37.375C28.5415 36.8333 28.6665 36.7708 29.2081 37.1875C29.729 37.5833 30.2498 38 30.7498 38.4167C30.8123 38.4583 30.9165 38.4792 30.979 38.4167C31.8123 37.4167 32.6456 36.3958 33.479 35.3958C33.7498 35.0625 34.2915 34.0833 34.7706 34.1458C35.0831 34.1667 35.8956 35.1667 36.1456 35.3958C37.9373 36.9583 39.8123 38.3958 41.7915 39.7083C41.8748 39.75 41.9581 39.7083 41.9998 39.6458C42.4581 39 42.5206 38.875 43.1456 39.3333C43.2081 39.3958 43.3123 39.3333 43.354 39.2708C44.0206 38.2917 44.7081 37.3542 45.479 36.4583C45.8331 36.0208 46.2081 35.6042 46.604 35.1875C46.979 34.7917 47.2915 34.1875 47.8331 34.5C48.229 34.7292 48.5831 35.2292 48.9165 35.5208C49.3331 35.8958 49.7498 36.2708 50.1873 36.625C50.979 37.2708 51.7706 37.8542 52.604 38.4375C52.6665 38.4792 52.7706 38.4583 52.8123 38.375C53.6873 36.8125 54.5623 35.25 55.4373 33.6875C55.5415 33.5208 55.2706 33.3542 55.1665 33.5208C54.6873 34.3542 54.229 35.2083 53.7498 36.0417C53.4998 36.5 53.2706 37.0833 52.9373 37.4792C52.5415 37.9792 52.5415 38 51.979 37.6042C50.4165 36.4792 48.979 35.2292 47.6248 33.8542C47.5623 33.7917 47.4581 33.7917 47.3956 33.8542C46.4581 34.7917 45.5831 35.75 44.7706 36.7917C44.4581 37.1875 44.1456 37.6042 43.8331 38.0208C43.729 38.1667 43.479 38.7292 43.2915 38.7917C42.9581 38.8958 42.8331 38.7083 42.5623 38.5C42.4998 38.4375 42.3956 38.5 42.354 38.5625C42.0623 38.9792 41.9998 39.2917 41.479 39.1042C41.1665 38.9792 40.8331 38.6667 40.5623 38.4583C39.8123 37.9167 39.0831 37.375 38.354 36.8125C37.0831 35.8125 35.8748 34.75 34.7081 33.6458C34.6456 33.5833 34.5415 33.5833 34.479 33.6458C33.5206 34.8125 32.5623 35.9583 31.604 37.125C31.4581 37.2917 31.1873 37.8125 30.979 37.875C30.5831 38.0208 30.3956 37.7083 30.104 37.4792C29.6248 37.0833 29.104 36.7292 28.604 36.3542C28.5415 36.3125 28.4373 36.3542 28.3956 36.4167C27.6873 37.4583 26.9165 38.4375 26.0623 39.3542C25.9581 39.5417 26.1665 39.7708 26.3123 39.6042Z" fill="#202124"/>
<path d="M54.1044 34.3542C54.5211 33.9583 54.9794 33.6042 55.5002 33.3333C55.4169 33.3125 55.3544 33.2708 55.2711 33.25C55.4169 33.75 55.5419 34.25 55.6252 34.75C55.6669 34.9375 55.9586 34.8542 55.9169 34.6667C55.8336 34.1667 55.7086 33.6667 55.5627 33.1667C55.5419 33.0625 55.4169 33.0208 55.3336 33.0833C54.7919 33.375 54.3127 33.7292 53.8752 34.1458C53.7502 34.2708 53.9586 34.5 54.1044 34.3542Z" fill="#202124"/>
<path d="M25.8753 43.5625C26.3009 43.5625 26.6462 43.2175 26.6462 42.7916C26.6462 42.366 26.3009 42.0208 25.8753 42.0208C25.4495 42.0208 25.1045 42.366 25.1045 42.7916C25.1045 43.2175 25.4495 43.5625 25.8753 43.5625Z" fill="#B1CEFC"/>
<path d="M32.2077 56.3333H28.166V67.2916H32.2077V56.3333Z" fill="#B1CEFC"/>
<path d="M38.2087 50.7917H34.167V67.2917H38.2087V50.7917Z" fill="#B1CEFC"/>
<path d="M44.1247 64.0834H40.083V67.2917H44.1247V64.0834Z" fill="#B1CEFC"/>
<path d="M50.1042 47.9375H46.0625V67.2917H50.1042V47.9375Z" fill="#B1CEFC"/>
<path d="M26.1875 49.3334V67.2917" stroke="#202124" stroke-width="0.49867" stroke-miterlimit="10"/>
<path d="M51.3958 67.2917H26.1875" stroke="#202124" stroke-width="0.49867" stroke-miterlimit="10"/>
<path d="M108.833 32.375H69.1875V48.7292H108.833V32.375Z" fill="white" stroke="#202124" stroke-width="0.49867" stroke-miterlimit="10"/>
<path d="M71.75 35.875H103.208" stroke="#202124" stroke-width="0.49867" stroke-miterlimit="10"/>
<path d="M71.6875 38.9166H103.208" stroke="#202124" stroke-width="0.49867" stroke-miterlimit="10"/>
<path d="M71.7295 42.0208H102.979" stroke="#202124" stroke-width="0.49867" stroke-miterlimit="10"/>
<path d="M71.7295 45.6875H102.584" stroke="#202124" stroke-width="0.49867" stroke-miterlimit="10"/>
<path d="M79.4792 53.625C75.5625 53.625 72.375 56.8125 72.375 60.7292C72.375 64.6458 75.5625 67.8333 79.4792 67.8333C83.3958 67.8333 86.5833 64.6458 86.5833 60.7292C86.5833 56.8125 83.4167 53.625 79.4792 53.625ZM79.4792 66.25C76.4167 66.25 73.9583 63.7708 73.9583 60.7292C73.9583 57.6667 76.4375 55.2083 79.4792 55.2083C82.5208 55.2083 85 57.6875 85 60.7292C85.0208 63.7917 82.5417 66.25 79.4792 66.25Z" fill="#B1CEFC"/>
<path d="M97.5622 58.9792C95.3747 58.9792 93.583 60.7709 93.583 62.9584C93.583 65.1459 95.3747 66.9375 97.5622 66.9375C99.7497 66.9375 101.541 65.1459 101.541 62.9584C101.541 60.7709 99.7705 58.9792 97.5622 58.9792ZM97.5622 66.0625C95.8538 66.0625 94.458 64.6667 94.458 62.9584C94.458 61.25 95.8538 59.8542 97.5622 59.8542C99.2705 59.8542 100.666 61.25 100.666 62.9584C100.666 64.6667 99.2705 66.0625 97.5622 66.0625Z" fill="#B1CEFC"/>
<path d="M86.041 59.4166L88.0619 56.3958" stroke="#202124" stroke-width="0.49867" stroke-miterlimit="10"/>
<path d="M88.833 56.1459H101.979" stroke="#202124" stroke-width="0.49867" stroke-miterlimit="10"/>
<path d="M88.833 54.9167H101.541" stroke="#202124" stroke-width="0.49867" stroke-miterlimit="10"/>
<path d="M89.0215 53.2916H99.9382" stroke="#202124" stroke-width="0.49867" stroke-miterlimit="10"/>
<path d="M89.292 51.875H96.792" stroke="#202124" stroke-width="0.49867" stroke-miterlimit="10"/>
<path d="M98.3545 65.2292L99.542 67.2917" stroke="#202124" stroke-width="0.49867" stroke-miterlimit="10"/>
<path d="M99.9375 68.5H110.729" stroke="#202124" stroke-width="0.49867" stroke-miterlimit="10"/>
<path d="M99.9375 69.5624H110.729" stroke="#202124" stroke-width="0.49867" stroke-miterlimit="10"/>
<path d="M99.9375 71.0833H104.354" stroke="#202124" stroke-width="0.49867" stroke-miterlimit="10"/>
<path d="M100.666 72.3958H109.895" stroke="#202124" stroke-width="0.49867" stroke-miterlimit="10"/>
<path d="M82.4792 21.8958C87.5073 21.8958 91.5833 17.8197 91.5833 12.7917C91.5833 7.76358 87.5073 3.6875 82.4792 3.6875C77.451 3.6875 73.375 7.76358 73.375 12.7917C73.375 17.8197 77.451 21.8958 82.4792 21.8958Z" fill="#202124"/>
<path d="M81.5007 21.8958C86.5288 21.8958 90.6048 17.8197 90.6048 12.7917C90.6048 7.76358 86.5288 3.6875 81.5007 3.6875C76.4725 3.6875 72.3965 7.76358 72.3965 12.7917C72.3965 17.8197 76.4725 21.8958 81.5007 21.8958Z" fill="white" stroke="#202124" stroke-width="0.49867" stroke-miterlimit="10"/>
<path d="M80.8545 5.75006C80.8545 6.45839 80.8545 7.18756 80.8545 7.89589C80.8545 8.29173 81.4795 8.29173 81.4795 7.89589C81.4795 7.18756 81.4795 6.45839 81.4795 5.75006C81.4795 5.35423 80.8545 5.35423 80.8545 5.75006Z" fill="#202124"/>
<path d="M84.4584 8.14588C83.0834 7.50005 81.5001 7.52088 80.1667 8.25005C78.9584 8.91672 77.7084 10.4584 78.3543 11.875C78.6251 12.5 79.2501 12.9167 79.8959 13.1042C81.0001 13.4375 82.4584 12.8125 83.3959 13.6042C84.8126 14.8125 83.5418 16.4792 82.1668 16.9167C80.9168 17.3125 79.5834 17 78.5626 16.2084C78.2501 15.9584 77.8126 16.3959 78.1251 16.6459C79.4168 17.6667 81.1251 18.0209 82.6876 17.3959C84.0418 16.8334 85.1042 15.4375 84.4376 13.9792C84.1251 13.3125 83.5626 12.8334 82.8543 12.6875C81.6668 12.4167 80.2084 13.0417 79.2292 12.0834C77.9792 10.875 79.6251 9.18755 80.7293 8.68755C81.8126 8.18755 83.0626 8.20838 84.1459 8.70838C84.5001 8.85422 84.8126 8.33338 84.4584 8.14588Z" fill="#202124"/>
<path d="M81.1041 17.7292C81.1875 18.2084 81.1875 18.7084 81.1666 19.1876C81.1458 19.5834 81.7708 19.5834 81.7916 19.1876C81.8333 18.6459 81.7916 18.1042 81.7083 17.5626C81.6458 17.1667 81.0416 17.3334 81.1041 17.7292Z" fill="#202124"/>
<path d="M29.4793 75.3333C29.3334 75.6042 29.1251 76.0833 29.2293 76.6667C29.2918 77 29.4168 77.2083 29.6251 77.6042C29.7709 77.8542 30.0001 78.2708 30.4376 78.7292C31.1876 79.5417 31.4793 79.3542 31.9584 79.9792C32.1251 80.1875 32.1459 80.2917 32.6668 81.5417C32.9168 82.1458 33.1043 82.625 33.2293 82.9167C33.6876 83.1458 34.0834 83.1875 34.3334 83.1875C35.5209 83.1458 36.6668 82.1042 37.2084 80.5417C37.1459 80.0417 37.1251 79.6458 37.1043 79.3542C37.0834 79.1042 37.0626 78.6458 37.0418 77.9792C37.0418 77.9583 36.9793 77.6042 36.8543 76.9167C36.8334 76.7709 36.7918 76.5834 36.6668 76.5C36.5001 76.3959 36.2918 76.4792 36.2293 76.5C35.7709 76.6875 35.6668 77.3125 35.6459 77.3958C35.4793 77.3125 35.2293 77.1667 34.9584 76.9792C34.6876 76.8125 34.1459 76.4375 33.5209 75.7917C32.6043 74.8542 32.0418 74.0208 32.0418 74.0208C31.7293 73.5625 31.5001 73.1458 31.2084 73.1875C31.1459 73.1875 31.0626 73.2292 30.6668 73.625C30.3543 73.9375 30.2084 74.0833 30.1043 74.2292C29.9168 74.4583 29.6668 74.8333 29.4793 75.3333Z" fill="white"/>
<path d="M32.938 82.2708C32.938 82.7708 32.9171 83.5209 32.938 84.4167C32.938 87.3959 32.9588 89.7084 33.1255 92.0834C33.2505 93.6875 33.5005 96.7709 34.5213 100.604C35.1046 102.813 35.7921 104.625 36.3338 105.958C36.8338 106.479 38.2505 107.813 39.6046 107.5C41.3546 107.083 41.8755 104.188 42.2296 102.313C42.6671 100 42.9796 96.0417 41.2713 90.8958C40.8755 90.0417 40.4796 89.1459 40.0838 88.2292C38.9171 85.5209 37.9588 82.875 37.1255 80.3542C36.5421 80.3542 35.4171 80.4584 34.2505 81.1459C33.6671 81.5209 33.2505 81.9375 32.938 82.2708Z" fill="white"/>
<path d="M33.5206 81.8333C34.5831 80.875 35.9164 80.4375 37.3539 80.6042C37.4164 80.6042 37.4581 80.5208 37.4164 80.4791C37.3539 80.4166 37.2914 80.3542 37.2081 80.3125C37.1248 80.25 37.0206 80.3542 37.1039 80.4167C36.8331 80.1875 35.4789 80.5625 35.1456 80.6667C34.4998 80.8958 33.9373 81.25 33.4164 81.7083C33.3331 81.7917 33.4581 81.9166 33.5206 81.8333Z" fill="#202124"/>
<path d="M37.2498 80.6042C38.3332 84.1458 39.6665 87.5833 41.229 90.9375C41.2707 91.0208 41.4165 90.9583 41.354 90.8542C39.7915 87.5208 38.479 84.0833 37.3957 80.5625C37.3748 80.4792 37.2082 80.5208 37.2498 80.6042Z" fill="#202124"/>
<path d="M32.9165 82.4583C32.5832 90.4375 33.1457 98.5625 36.2498 106C36.2915 106.083 36.4373 106.042 36.3957 105.958C33.2915 98.5417 32.729 90.4166 33.0623 82.4583C33.0832 82.3541 32.9165 82.3541 32.9165 82.4583Z" fill="#202124"/>
<path d="M37.1039 80.5C37.2081 79.6458 37.2081 78.7916 37.1039 77.9375C37.0623 77.5208 37.0623 76.8333 36.7498 76.5C36.1456 75.8333 35.6248 77.2291 35.5206 77.6666C35.4998 77.7708 35.6456 77.8125 35.6664 77.7083C35.7498 77.2708 36.0831 76.0416 36.7498 76.9166C36.9373 77.1875 36.9373 77.9375 36.9581 78.2291C37.0206 78.9791 36.9998 79.7291 36.9164 80.4791C36.9373 80.6041 37.0831 80.6041 37.1039 80.5Z" fill="#202124"/>
<path d="M30.7912 73.875C31.0204 73.3542 31.2287 73.2292 31.4162 73.5C31.5204 73.6042 31.6246 73.7083 31.7079 73.8125C31.8746 74 32.0204 74.1667 32.1871 74.3542C32.5204 74.7709 32.8537 75.1875 33.2079 75.5833C33.8329 76.3125 34.5204 76.9792 35.3537 77.4792C35.4371 77.5209 35.5204 77.3958 35.4371 77.3542C33.8746 76.4375 32.9371 74.8958 31.7287 73.6042C31.1871 73.0208 30.3329 72.8125 30.6246 73.9167C30.6662 74.0208 30.8329 73.9792 30.7912 73.875Z" fill="#202124"/>
<path d="M30.3126 74.0625C30.7501 75.1875 31.4792 76.1042 32.4584 76.8125C32.5417 76.875 32.6251 76.7292 32.5417 76.6875C31.6042 76.0208 30.8959 75.1042 30.4792 74.0417C30.4376 73.9375 30.2917 73.9792 30.3126 74.0625Z" fill="#202124"/>
<path d="M29.7091 74.5833C29.9591 75.75 30.6882 76.7291 31.7299 77.3125C31.8132 77.3541 31.8966 77.2291 31.8132 77.1875C30.8132 76.625 30.1049 75.6875 29.8757 74.5416C29.8341 74.4583 29.6882 74.5 29.7091 74.5833Z" fill="#202124"/>
<path d="M29.3126 75.5625C29.6876 76.7292 30.4376 77.7084 31.4792 78.3542C31.5626 78.4167 31.6459 78.2709 31.5626 78.2292C30.5626 77.6042 29.8334 76.6667 29.4792 75.5417C29.4376 75.4167 29.2917 75.4584 29.3126 75.5625Z" fill="#202124"/>
<path d="M29.1456 76.6875C29.4372 77.5417 29.8747 78.2916 30.5206 78.9375C30.8956 79.3125 31.3331 79.6041 31.7289 79.9791C32.3331 80.5625 32.5831 81.5833 32.9164 82.3958C32.9581 82.4792 33.1039 82.4583 33.0622 82.3541C32.7081 81.4583 32.4581 80.375 31.7497 79.7083C31.3331 79.3125 30.8122 79.0625 30.4372 78.625C29.9164 78.0416 29.5622 77.3958 29.3122 76.6667C29.2706 76.5625 29.1247 76.6042 29.1456 76.6875Z" fill="#202124"/>
<path d="M82.7292 78.0833C82.6459 77.8541 82.5209 77.5 82.3334 77.0833C81.9584 76.2292 81.7917 76.0833 81.5417 75.3333C81.5417 75.3333 81.3542 74.7916 81.25 73.9166C81.2084 73.625 81.2084 73.4583 81.2917 73.4167C81.4375 73.3333 81.8125 73.6875 82.1459 74.0417C82.2709 73.8542 82.4375 73.5833 82.6042 73.25C83.0625 72.3333 83.2084 71.5417 83.25 71.3542C83.4584 70.2083 83.1667 70 83.4792 69.5833C83.8542 69.0625 84.7084 68.8541 85.3542 69.125C86 69.375 86.25 70.0208 86.4584 70.5417C86.6459 71.0417 86.6875 71.4792 86.7292 71.7917C86.75 72.0833 86.7709 72.4375 86.7084 72.9791C86.625 73.8958 86.3959 74.5208 86.0625 75.625C85.9167 76.125 85.6875 76.8542 85.4167 77.7917C85.3959 77.875 85.2917 78.5833 84.75 78.8542C84.1042 79.1458 83.2084 78.875 82.7292 78.0833Z" fill="white"/>
<path d="M82.333 78C82.3538 78.625 82.3747 79.25 82.3955 79.875C82.5413 84.6458 82.6038 87.0625 82.6663 88.1875C82.8538 91.1667 82.9372 92.6667 83.1872 93.75C84.0622 97.375 86.6038 102.479 89.8538 102.542C90.4163 102.542 91.2705 102.396 92.2913 101.646C92.2705 100.792 92.2497 99.625 92.1247 98.25C91.9788 96.4167 91.6455 93.7292 90.833 90.5417C90.4163 88.8958 89.7913 86.7917 88.8538 84.4375C88.083 82.5208 87.333 81 86.8538 80.0625C86.3538 79.0833 85.8747 78.25 85.4788 77.6042C85.0622 77.5208 84.3955 77.4375 83.6247 77.5833C83.083 77.6667 82.6455 77.8542 82.333 78Z" fill="white"/>
<path d="M82.667 87.0417C82.6045 85.0625 82.542 83.0625 82.5003 81.0833C82.4795 80.3333 82.1462 78.8125 82.542 78.1875C83.0212 77.4583 84.5837 77.5833 85.3545 77.6667C85.4587 77.6875 85.4587 77.5208 85.3545 77.5C84.292 77.3958 83.292 77.5208 82.292 77.9167C82.2503 77.9375 82.2295 77.9583 82.2295 78C82.3128 81.0208 82.417 84.0208 82.5003 87.0417C82.5212 87.125 82.667 87.1458 82.667 87.0417Z" fill="#202124"/>
<path d="M85.3336 77.4792C89.6878 84.7708 92.0836 93.125 92.2086 101.625C92.2086 101.729 92.3753 101.729 92.3753 101.625C92.2294 93.1042 89.8544 84.7292 85.4794 77.3958C85.4169 77.3125 85.2711 77.3958 85.3336 77.4792Z" fill="#202124"/>
<path d="M82.7706 77.8333C82.4581 77.1458 82.1456 76.4792 81.8331 75.7917C81.6664 75.4375 81.4998 75.0625 81.3956 74.6875C81.3123 74.4167 81.2706 74.125 81.2706 73.8333C81.7289 73.6042 82.0206 73.7292 82.1248 74.2083C82.1664 74.2917 82.3123 74.2083 82.2498 74.125C82.0414 73.7292 81.7498 73.3542 81.2706 73.3125C81.2498 73.3125 81.2081 73.3333 81.2081 73.3542C80.9373 73.9375 81.2289 74.7292 81.4373 75.2917C81.7914 76.1875 82.2289 77.0417 82.6248 77.8958C82.6873 78.0208 82.8123 77.9375 82.7706 77.8333Z" fill="#202124"/>
<path d="M85.4374 77.4166C86.1874 75.6875 86.9583 73.5416 86.7291 71.6458C86.7083 71.5416 86.5624 71.5416 86.5624 71.6458C86.7708 73.5 86.0208 75.6666 85.2916 77.3541C85.2499 77.4166 85.3958 77.5 85.4374 77.4166Z" fill="#202124"/>
<path d="M82.3749 73.8334C83.0624 72.5 83.4583 71.0834 83.5208 69.5834C83.5208 69.4792 83.3749 69.4792 83.3541 69.5834C83.2916 71.0625 82.9166 72.4375 82.2291 73.75C82.1874 73.8334 82.3333 73.9167 82.3749 73.8334Z" fill="#202124"/>
<path d="M83.8121 69.4583C84.3121 70.5 84.1455 71.6458 83.8746 72.7291C83.8538 72.8333 83.9996 72.875 84.0205 72.7708C84.3121 71.6458 84.4788 70.4583 83.9371 69.375C83.9163 69.2916 83.7705 69.375 83.8121 69.4583Z" fill="#202124"/>
<path d="M84.5836 69.4167C85.0211 70.4375 85.0836 71.5 84.8127 72.5625C84.7919 72.6667 84.9377 72.7083 84.9586 72.6042C85.2502 71.5 85.1669 70.3958 84.7294 69.3333C84.6877 69.25 84.5419 69.3333 84.5836 69.4167Z" fill="#202124"/>
<path d="M85.4166 69.4792C85.8749 70.3958 85.9583 71.3958 85.6666 72.375C85.6458 72.4792 85.7916 72.5208 85.8124 72.4167C86.1249 71.3958 86.0208 70.3542 85.5416 69.3958C85.4999 69.3125 85.3749 69.3958 85.4166 69.4792Z" fill="#202124"/>
<path d="M80.5214 80.6041C81.6256 80.5625 82.5631 81.4375 84.0006 82.7708C85.2089 83.8958 85.8339 84.8958 86.9797 86.75C87.3964 87.4166 88.9381 89.9166 90.5006 93.6041C91.3756 95.6458 91.6047 96.5417 91.7297 97.0208C92.3756 99.7292 92.0422 101.375 91.9172 101.896C91.6047 103.208 91.1047 103.854 90.9797 104.021C90.7506 104.312 89.8964 105.396 88.6047 105.521C87.7297 105.604 87.0422 105.229 86.4589 104.896C83.8964 103.375 82.1256 101.521 81.8964 101.271C79.3964 98.625 78.1464 97.2916 77.6047 96.3333C77.0422 95.3333 75.7714 93.0416 75.7297 89.9791C75.6464 85.7291 77.9589 80.7291 80.5214 80.6041Z" fill="white"/>
<path d="M81.4165 81.0002C84.2707 82.4377 86.0832 85.3752 87.6665 88.0419C89.3332 90.8961 90.6665 93.9169 91.6665 97.0627C91.6874 97.1669 91.854 97.1252 91.8124 97.021C90.7707 93.7502 89.3749 90.5835 87.604 87.646C86.0624 85.0627 84.2707 82.2502 81.4999 80.8752C81.3957 80.8127 81.3332 80.9585 81.4165 81.0002Z" fill="#202124"/>
<path d="M77.5417 96.375C79.7917 99.1458 82.1042 101.979 85.0417 104.063C86.1042 104.813 87.4167 105.729 88.7917 105.563C90.1876 105.396 91.0001 104.167 91.6459 103.042C91.6876 102.958 91.5626 102.875 91.5209 102.958C90.6459 104.5 89.4792 105.833 87.5209 105.25C86.0209 104.813 84.6251 103.604 83.4584 102.604C81.2917 100.729 79.4584 98.4792 77.6459 96.25C77.5834 96.1875 77.4792 96.3125 77.5417 96.375Z" fill="#202124"/>
<path d="M45.5415 81.625C45.354 81.7083 45.0624 82.0833 44.479 82.8125C43.854 83.6042 43.0624 84.5833 42.1457 86.1042C41.3957 87.3333 40.9165 88.3125 40.4999 89.1458C40.2499 89.6458 39.9165 90.3542 39.3332 91.6875C38.3749 93.8958 37.9165 94.9792 37.4999 96.2292C36.9582 97.8333 36.3332 99.7917 36.229 102.354C36.1665 104.104 36.3749 105.563 36.5832 106.563C36.8332 106.854 37.2082 107.292 37.7082 107.75C38.5832 108.563 39.104 109.042 39.9165 109.167C40.6665 109.292 41.2707 109.042 41.6874 108.875C42.0207 108.729 42.5624 108.479 43.5624 107.5C44.0415 107.042 44.6665 106.375 45.7082 104.979C45.8957 104.75 46.729 103.604 47.2915 102.729C49.1249 99.8542 50.229 96.1042 50.7082 94.25C51.8957 89.6875 52.4999 87.4167 51.7707 85.7292C50.5624 82.9167 47.1457 80.8542 45.5415 81.625Z" fill="white"/>
<path d="M45.4791 81.5833C41.5833 85.7083 39.4583 91.0208 37.4166 96.2292C37.3749 96.3125 37.5208 96.3542 37.5624 96.2708C39.5833 91.0833 41.6874 85.7917 45.5833 81.7083C45.6666 81.6042 45.5416 81.5 45.4791 81.5833Z" fill="#202124"/>
<path d="M36.5414 106.604C37.4789 107.438 38.1456 108.729 39.3956 109.125C40.6039 109.5 41.8748 109 42.8123 108.271C43.8956 107.417 44.7914 106.271 45.6248 105.188C46.7289 103.75 47.7289 102.25 48.6039 100.667C48.6456 100.583 48.5206 100.5 48.4789 100.583C47.1456 102.979 45.5623 105.271 43.6873 107.25C42.6248 108.375 41.0831 109.5 39.4373 108.979C38.2289 108.583 37.5623 107.292 36.6456 106.5C36.5831 106.438 36.4581 106.542 36.5414 106.604Z" fill="#202124"/>
<path d="M45.4165 81.6875C44.979 82.625 44.4582 83.9583 44.2499 85.625C44.1249 86.6041 44.1249 87.4791 44.1665 88.2083C44.2707 89.5416 44.4165 91.0625 44.6249 92.7291C44.7499 93.6875 44.979 95.4791 45.3749 97.6875C45.7082 99.6041 46.3957 103.25 47.6457 107.771C48.2915 110.104 49.1249 112.854 50.229 115.917C51.354 116.604 52.5624 117.229 53.8749 117.75C64.2082 121.875 74.7082 117.687 78.9999 115.667C79.2707 114.729 79.6665 113.312 80.0832 111.583C80.3124 110.667 80.7915 108.542 81.5832 103.854C81.854 102.25 82.1665 100.437 82.5207 97.9166C83.7915 88.9791 83.4374 87.0416 83.229 86.125C82.9165 84.7708 82.2915 82.7708 80.7707 80.5208C80.2082 80.3333 79.4374 80.0833 78.4999 79.8333C76.8749 79.375 73.9374 78.6666 70.2082 78.2708C68.1665 78.0625 65.1249 77.8541 61.4165 78.0833C57.4374 78.3333 54.3124 78.9791 52.4999 79.4166C49.6874 80.1041 47.3124 80.9166 45.4165 81.6875Z" fill="white"/>
<path d="M45.4377 81.75C56.6668 77.2917 69.271 76.8958 80.771 80.625C80.8752 80.6458 80.9168 80.5 80.8127 80.4792C69.2918 76.75 56.646 77.1458 45.396 81.6042C45.3127 81.6458 45.3543 81.7917 45.4377 81.75Z" fill="#202124"/>
<path d="M44.0205 87.3542C44.7497 96.8959 46.7497 106.313 49.958 115.333C49.9997 115.438 50.1455 115.396 50.1038 115.292C46.8747 106.292 44.8747 96.8959 44.1663 87.3542C44.1663 87.25 44.0205 87.25 44.0205 87.3542Z" fill="#202124"/>
<path d="M83.1251 88.0419C82.8959 97.3752 81.4792 106.646 78.9376 115.646C78.9167 115.75 79.0626 115.792 79.0834 115.688C81.6459 106.688 83.0417 97.396 83.2917 88.0419C83.2917 87.9377 83.1251 87.9377 83.1251 88.0419Z" fill="#202124"/>
<path d="M58.771 77.3125C57.5626 76.3125 57.3543 74.7709 57.2918 74.3542C57.2501 74.0625 57.0001 71.8125 58.646 70.1042C59.771 68.9584 61.7085 68.0834 63.5835 68.75C65.6668 69.4792 66.3335 71.5625 66.4793 71.9792C66.6043 72.3542 67.1668 74.125 66.3126 75.7292C64.9793 78.2084 60.896 79.0209 58.771 77.3125Z" fill="#202124"/>
<path d="M61.3544 77.625C61.1669 77.1667 60.9378 76.375 61.1461 75.4792C61.5211 73.8958 63.1044 72.6667 65.1253 72.4167C65.1253 72.8125 65.0836 73.2084 64.9794 73.6459C64.3544 76.0625 62.0419 77.2917 61.3544 77.625Z" fill="#F7F7F7"/>
<path d="M63.3123 74.8958C63.5831 74.5 63.5414 74.1667 63.7081 73.0417C63.8956 71.8125 64.0206 70.9583 64.2706 70.4583C65.1039 68.8125 68.9789 68.1458 71.8331 69.5833C74.3331 70.8333 75.2706 73.3125 75.8539 74.8958C77.2081 78.5208 76.5414 81.8333 76.1039 83.3958C75.6456 84.9792 74.3956 89.2917 70.4789 91.1458C66.0414 93.2292 59.2081 91.8542 57.1248 86.9583C55.1664 82.375 58.1039 76.5625 60.7498 75.9375C61.4164 75.7917 62.7081 75.8125 63.3123 74.8958Z" fill="#202124"/>
<path d="M79.958 125H48.5622C45.7497 125 43.458 122.708 43.458 119.896V88.5C43.458 85.6875 45.7497 83.3958 48.5622 83.3958H79.958C82.7705 83.3958 85.0622 85.6875 85.0622 88.5V119.896C85.0622 122.708 82.7913 125 79.958 125Z" fill="#B1CEFC"/>
</svg>
