<svg width="416" height="101" viewBox="0 0 416 101" fill="none" xmlns="http://www.w3.org/2000/svg">
<path d="M63.05 62V59.39L71.39 51.47C72.09 50.81 72.61 50.23 72.95 49.73C73.29 49.23 73.51 48.77 73.61 48.35C73.73 47.91 73.79 47.5 73.79 47.12C73.79 46.16 73.46 45.42 72.8 44.9C72.14 44.36 71.17 44.09 69.89 44.09C68.87 44.09 67.94 44.27 67.1 44.63C66.28 44.99 65.57 45.54 64.97 46.28L62.24 44.18C63.06 43.08 64.16 42.23 65.54 41.63C66.94 41.01 68.5 40.7 70.22 40.7C71.74 40.7 73.06 40.95 74.18 41.45C75.32 41.93 76.19 42.62 76.79 43.52C77.41 44.42 77.72 45.49 77.72 46.73C77.72 47.41 77.63 48.09 77.45 48.77C77.27 49.43 76.93 50.13 76.43 50.87C75.93 51.61 75.2 52.44 74.24 53.36L67.07 60.17L66.26 58.7H78.53V62H63.05ZM89.5409 62.3C87.8809 62.3 86.3809 61.88 85.0409 61.04C83.7209 60.2 82.6809 58.98 81.9209 57.38C81.1609 55.76 80.7809 53.8 80.7809 51.5C80.7809 49.2 81.1609 47.25 81.9209 45.65C82.6809 44.03 83.7209 42.8 85.0409 41.96C86.3809 41.12 87.8809 40.7 89.5409 40.7C91.2209 40.7 92.7209 41.12 94.0409 41.96C95.3609 42.8 96.4009 44.03 97.1609 45.65C97.9409 47.25 98.3309 49.2 98.3309 51.5C98.3309 53.8 97.9409 55.76 97.1609 57.38C96.4009 58.98 95.3609 60.2 94.0409 61.04C92.7209 61.88 91.2209 62.3 89.5409 62.3ZM89.5409 58.91C90.5209 58.91 91.3709 58.65 92.0909 58.13C92.8109 57.59 93.3709 56.77 93.7709 55.67C94.1909 54.57 94.4009 53.18 94.4009 51.5C94.4009 49.8 94.1909 48.41 93.7709 47.33C93.3709 46.23 92.8109 45.42 92.0909 44.9C91.3709 44.36 90.5209 44.09 89.5409 44.09C88.6009 44.09 87.7609 44.36 87.0209 44.9C86.3009 45.42 85.7309 46.23 85.3109 47.33C84.9109 48.41 84.7109 49.8 84.7109 51.5C84.7109 53.18 84.9109 54.57 85.3109 55.67C85.7309 56.77 86.3009 57.59 87.0209 58.13C87.7609 58.65 88.6009 58.91 89.5409 58.91ZM109.726 62.3C108.066 62.3 106.566 61.88 105.226 61.04C103.906 60.2 102.866 58.98 102.106 57.38C101.346 55.76 100.966 53.8 100.966 51.5C100.966 49.2 101.346 47.25 102.106 45.65C102.866 44.03 103.906 42.8 105.226 41.96C106.566 41.12 108.066 40.7 109.726 40.7C111.406 40.7 112.906 41.12 114.226 41.96C115.546 42.8 116.586 44.03 117.346 45.65C118.126 47.25 118.516 49.2 118.516 51.5C118.516 53.8 118.126 55.76 117.346 57.38C116.586 58.98 115.546 60.2 114.226 61.04C112.906 61.88 111.406 62.3 109.726 62.3ZM109.726 58.91C110.706 58.91 111.556 58.65 112.276 58.13C112.996 57.59 113.556 56.77 113.956 55.67C114.376 54.57 114.586 53.18 114.586 51.5C114.586 49.8 114.376 48.41 113.956 47.33C113.556 46.23 112.996 45.42 112.276 44.9C111.556 44.36 110.706 44.09 109.726 44.09C108.786 44.09 107.946 44.36 107.206 44.9C106.486 45.42 105.916 46.23 105.496 47.33C105.096 48.41 104.896 49.8 104.896 51.5C104.896 53.18 105.096 54.57 105.496 55.67C105.916 56.77 106.486 57.59 107.206 58.13C107.946 58.65 108.786 58.91 109.726 58.91ZM138.203 62.3C136.543 62.3 135.043 61.88 133.703 61.04C132.383 60.2 131.343 58.98 130.583 57.38C129.823 55.76 129.443 53.8 129.443 51.5C129.443 49.2 129.823 47.25 130.583 45.65C131.343 44.03 132.383 42.8 133.703 41.96C135.043 41.12 136.543 40.7 138.203 40.7C139.883 40.7 141.383 41.12 142.703 41.96C144.023 42.8 145.063 44.03 145.823 45.65C146.603 47.25 146.993 49.2 146.993 51.5C146.993 53.8 146.603 55.76 145.823 57.38C145.063 58.98 144.023 60.2 142.703 61.04C141.383 61.88 139.883 62.3 138.203 62.3ZM138.203 58.91C139.183 58.91 140.033 58.65 140.753 58.13C141.473 57.59 142.033 56.77 142.433 55.67C142.853 54.57 143.063 53.18 143.063 51.5C143.063 49.8 142.853 48.41 142.433 47.33C142.033 46.23 141.473 45.42 140.753 44.9C140.033 44.36 139.183 44.09 138.203 44.09C137.263 44.09 136.423 44.36 135.683 44.9C134.963 45.42 134.393 46.23 133.973 47.33C133.573 48.41 133.373 49.8 133.373 51.5C133.373 53.18 133.573 54.57 133.973 55.67C134.393 56.77 134.963 57.59 135.683 58.13C136.423 58.65 137.263 58.91 138.203 58.91ZM158.389 62.3C156.729 62.3 155.229 61.88 153.889 61.04C152.569 60.2 151.529 58.98 150.769 57.38C150.009 55.76 149.629 53.8 149.629 51.5C149.629 49.2 150.009 47.25 150.769 45.65C151.529 44.03 152.569 42.8 153.889 41.96C155.229 41.12 156.729 40.7 158.389 40.7C160.069 40.7 161.569 41.12 162.889 41.96C164.209 42.8 165.249 44.03 166.009 45.65C166.789 47.25 167.179 49.2 167.179 51.5C167.179 53.8 166.789 55.76 166.009 57.38C165.249 58.98 164.209 60.2 162.889 61.04C161.569 61.88 160.069 62.3 158.389 62.3ZM158.389 58.91C159.369 58.91 160.219 58.65 160.939 58.13C161.659 57.59 162.219 56.77 162.619 55.67C163.039 54.57 163.249 53.18 163.249 51.5C163.249 49.8 163.039 48.41 162.619 47.33C162.219 46.23 161.659 45.42 160.939 44.9C160.219 44.36 159.369 44.09 158.389 44.09C157.449 44.09 156.609 44.36 155.869 44.9C155.149 45.42 154.579 46.23 154.159 47.33C153.759 48.41 153.559 49.8 153.559 51.5C153.559 53.18 153.759 54.57 154.159 55.67C154.579 56.77 155.149 57.59 155.869 58.13C156.609 58.65 157.449 58.91 158.389 58.91ZM178.574 62.3C176.914 62.3 175.414 61.88 174.074 61.04C172.754 60.2 171.714 58.98 170.954 57.38C170.194 55.76 169.814 53.8 169.814 51.5C169.814 49.2 170.194 47.25 170.954 45.65C171.714 44.03 172.754 42.8 174.074 41.96C175.414 41.12 176.914 40.7 178.574 40.7C180.254 40.7 181.754 41.12 183.074 41.96C184.394 42.8 185.434 44.03 186.194 45.65C186.974 47.25 187.364 49.2 187.364 51.5C187.364 53.8 186.974 55.76 186.194 57.38C185.434 58.98 184.394 60.2 183.074 61.04C181.754 61.88 180.254 62.3 178.574 62.3ZM178.574 58.91C179.554 58.91 180.404 58.65 181.124 58.13C181.844 57.59 182.404 56.77 182.804 55.67C183.224 54.57 183.434 53.18 183.434 51.5C183.434 49.8 183.224 48.41 182.804 47.33C182.404 46.23 181.844 45.42 181.124 44.9C180.404 44.36 179.554 44.09 178.574 44.09C177.634 44.09 176.794 44.36 176.054 44.9C175.334 45.42 174.764 46.23 174.344 47.33C173.944 48.41 173.744 49.8 173.744 51.5C173.744 53.18 173.944 54.57 174.344 55.67C174.764 56.77 175.334 57.59 176.054 58.13C176.794 58.65 177.634 58.91 178.574 58.91ZM200.871 62V41H209.511C212.271 41 214.441 41.6 216.021 42.8C217.621 43.98 218.421 45.73 218.421 48.05C218.421 50.35 217.621 52.1 216.021 53.3C214.441 54.48 212.271 55.07 209.511 55.07H203.031L204.771 53.27V62H200.871ZM204.771 53.69L203.031 51.92H209.481C211.081 51.92 212.311 51.59 213.171 50.93C214.051 50.25 214.491 49.3 214.491 48.08C214.491 46.86 214.051 45.93 213.171 45.29C212.311 44.63 211.081 44.3 209.481 44.3H203.031L204.771 42.38V53.69ZM197.871 58.88V56.78H211.371V58.88H197.871ZM230.633 62V45.98H238.463C240.403 45.98 241.923 46.34 243.023 47.06C244.143 47.78 244.703 48.8 244.703 50.12C244.703 51.42 244.183 52.44 243.143 53.18C242.103 53.9 240.723 54.26 239.003 54.26L239.453 53.33C241.393 53.33 242.833 53.69 243.773 54.41C244.733 55.11 245.213 56.14 245.213 57.5C245.213 58.92 244.683 60.03 243.623 60.83C242.563 61.61 240.953 62 238.793 62H230.633ZM234.203 59.27H238.493C239.513 59.27 240.283 59.11 240.803 58.79C241.323 58.45 241.583 57.94 241.583 57.26C241.583 56.54 241.343 56.01 240.863 55.67C240.383 55.33 239.633 55.16 238.613 55.16H234.203V59.27ZM234.203 52.67H238.133C239.093 52.67 239.813 52.5 240.293 52.16C240.793 51.8 241.043 51.3 241.043 50.66C241.043 50 240.793 49.51 240.293 49.19C239.813 48.87 239.093 48.71 238.133 48.71H234.203V52.67ZM257.499 62V45.98H261.429L267.879 57.35H266.319L273.099 45.98H276.609L276.639 62H273.249V50L273.849 50.39L267.849 60.32H266.229L260.199 50.12L260.919 49.94V62H257.499ZM289.138 62.21C287.358 62.21 285.798 61.86 284.458 61.16C283.138 60.44 282.108 59.46 281.368 58.22C280.648 56.98 280.288 55.57 280.288 53.99C280.288 52.39 280.638 50.98 281.338 49.76C282.058 48.52 283.038 47.55 284.278 46.85C285.538 46.15 286.968 45.8 288.568 45.8C290.128 45.8 291.518 46.14 292.738 46.82C293.958 47.5 294.918 48.46 295.618 49.7C296.318 50.94 296.668 52.4 296.668 54.08C296.668 54.24 296.658 54.42 296.638 54.62C296.638 54.82 296.628 55.01 296.608 55.19H283.258V52.7H294.628L293.158 53.48C293.178 52.56 292.988 51.75 292.588 51.05C292.188 50.35 291.638 49.8 290.938 49.4C290.258 49 289.468 48.8 288.568 48.8C287.648 48.8 286.838 49 286.138 49.4C285.458 49.8 284.918 50.36 284.518 51.08C284.138 51.78 283.948 52.61 283.948 53.57V54.17C283.948 55.13 284.168 55.98 284.608 56.72C285.048 57.46 285.668 58.03 286.468 58.43C287.268 58.83 288.188 59.03 289.228 59.03C290.128 59.03 290.938 58.89 291.658 58.61C292.378 58.33 293.018 57.89 293.578 57.29L295.588 59.6C294.868 60.44 293.958 61.09 292.858 61.55C291.778 61.99 290.538 62.21 289.138 62.21ZM308.06 62.21C306.38 62.21 304.88 61.86 303.56 61.16C302.26 60.44 301.24 59.46 300.5 58.22C299.76 56.98 299.39 55.57 299.39 53.99C299.39 52.39 299.76 50.98 300.5 49.76C301.24 48.52 302.26 47.55 303.56 46.85C304.88 46.15 306.38 45.8 308.06 45.8C309.62 45.8 310.99 46.12 312.17 46.76C313.37 47.38 314.28 48.3 314.9 49.52L312.02 51.2C311.54 50.44 310.95 49.88 310.25 49.52C309.57 49.16 308.83 48.98 308.03 48.98C307.11 48.98 306.28 49.18 305.54 49.58C304.8 49.98 304.22 50.56 303.8 51.32C303.38 52.06 303.17 52.95 303.17 53.99C303.17 55.03 303.38 55.93 303.8 56.69C304.22 57.43 304.8 58 305.54 58.4C306.28 58.8 307.11 59 308.03 59C308.83 59 309.57 58.82 310.25 58.46C310.95 58.1 311.54 57.54 312.02 56.78L314.9 58.46C314.28 59.66 313.37 60.59 312.17 61.25C310.99 61.89 309.62 62.21 308.06 62.21ZM327.932 62V56.54L328.472 57.17H323.672C321.472 57.17 319.742 56.71 318.482 55.79C317.242 54.85 316.622 53.5 316.622 51.74C316.622 49.86 317.282 48.43 318.602 47.45C319.942 46.47 321.722 45.98 323.942 45.98H331.292V62H327.932ZM316.412 62L320.732 55.88H324.572L320.432 62H316.412ZM327.932 55.34V48.14L328.472 49.13H324.062C322.902 49.13 322.002 49.35 321.362 49.79C320.742 50.21 320.432 50.9 320.432 51.86C320.432 53.66 321.602 54.56 323.942 54.56H328.472L327.932 55.34ZM336.336 62V45.98H340.086V58.82H347.736V45.98H351.486V62H336.336ZM350.406 65.57V61.91L351.276 62H347.736V58.82H353.916V65.57H350.406Z" fill="black"/>
<path d="M415.5 50.5C415.5 57.1795 409.91 63.6935 399.405 69.7232C388.939 75.7313 373.76 81.1586 354.96 85.723C317.368 94.8499 265.41 100.5 208 100.5C150.59 100.5 98.6316 94.8499 61.0398 85.723C42.2399 81.1586 27.0612 75.7313 16.5946 69.7232C6.09018 63.6935 0.5 57.1795 0.5 50.5C0.5 43.8205 6.09018 37.3065 16.5946 31.2768C27.0612 25.2687 42.2399 19.8414 61.0398 15.277C98.6316 6.15014 150.59 0.5 208 0.5C265.41 0.5 317.368 6.15014 354.96 15.277C373.76 19.8414 388.939 25.2687 399.405 31.2768C409.91 37.3065 415.5 43.8205 415.5 50.5Z" stroke="black"/>
</svg>
