<svg width="342" height="283" viewBox="0 0 342 283" fill="none" xmlns="http://www.w3.org/2000/svg">
<mask id="mask0_502_6968" style="mask-type:luminance" maskUnits="userSpaceOnUse" x="0" y="0" width="342" height="283">
<path d="M342 0H0V282.088H342V0Z" fill="white"/>
</mask>
<g mask="url(#mask0_502_6968)">
<path opacity="0.49" d="M331.869 146.776C331.128 142.915 327.751 140.054 323.694 140.054C323.683 140.054 323.672 140.054 323.658 140.054C321.814 140.062 320.075 139.11 319.253 137.46C316.703 132.34 311.423 128.824 305.314 128.824C304.747 128.824 304.186 128.854 303.633 128.916C301.59 129.139 299.661 127.986 298.788 126.127C294.8 117.619 286.167 111.727 276.152 111.727C264.923 111.727 255.427 119.136 252.277 129.334C251.613 131.483 249.595 132.918 247.351 132.774C247.102 132.758 246.85 132.75 246.597 132.75C240.109 132.75 234.85 137.989 234.85 144.478C234.85 145.273 234.928 146.076 235.08 146.779H331.869V146.776Z" fill="#FDFDFF"/>
<path opacity="0.49" d="M317.762 35.0488C317.156 31.8882 314.39 29.5441 311.067 29.5441C311.059 29.5441 311.048 29.5441 311.04 29.5441C309.529 29.5495 308.105 28.7709 307.433 27.4199C305.344 23.2255 301.017 20.347 296.016 20.347C295.552 20.347 295.091 20.3715 294.64 20.423C292.967 20.6048 291.388 19.6606 290.675 18.1386C287.409 11.1717 280.338 6.34521 272.135 6.34521C262.937 6.34521 255.161 12.4142 252.581 20.7648C252.036 22.5256 250.384 23.7003 248.545 23.5809C248.341 23.5674 248.135 23.5619 247.927 23.5619C242.613 23.5619 238.306 27.8512 238.306 33.166C238.306 33.8171 238.371 34.4736 238.495 35.0488H317.762Z" fill="#FDFDFF"/>
<path opacity="0.49" d="M244.954 131.689C243.584 125.441 237.331 120.807 229.821 120.807C229.799 120.807 229.777 120.807 229.755 120.807C226.34 120.821 223.124 119.28 221.602 116.607C216.885 108.319 207.101 102.63 195.796 102.63C194.743 102.63 193.707 102.682 192.685 102.776C188.903 103.137 185.331 101.271 183.717 98.2621C176.336 84.4907 160.352 74.9521 141.812 74.9521C121.021 74.9521 103.445 86.9461 97.6101 103.452C96.3814 106.93 92.6439 109.253 88.4879 109.019C88.0271 108.995 87.5603 108.981 87.091 108.981C75.0805 108.981 65.3428 117.46 65.3428 127.964C65.3428 129.25 65.4921 130.549 65.7686 131.686H244.954V131.689Z" fill="#FDFDFF"/>
<path opacity="0.49" d="M189.221 251.772C188.48 247.912 185.103 245.049 181.048 245.049C181.037 245.049 181.024 245.049 181.013 245.049C179.168 245.057 177.43 244.105 176.608 242.456C174.058 237.336 168.777 233.82 162.669 233.82C162.101 233.82 161.54 233.85 160.987 233.913C158.945 234.135 157.016 232.982 156.142 231.123C152.155 222.616 143.521 216.723 133.507 216.723C122.277 216.723 112.781 224.132 109.632 234.33C108.967 236.479 106.949 237.914 104.706 237.77C104.457 237.754 104.204 237.746 103.952 237.746C97.4639 237.746 92.2041 242.985 92.2041 249.474C92.2041 250.269 92.283 251.072 92.4348 251.775H189.221V251.772Z" fill="#FDFDFF"/>
<path opacity="0.49" d="M315.436 266.094C314.652 261.995 311.064 258.956 306.757 258.956C306.743 258.956 306.732 258.956 306.719 258.956C304.76 258.964 302.916 257.955 302.042 256.199C299.335 250.762 293.726 247.032 287.241 247.032C286.638 247.032 286.041 247.065 285.456 247.13C283.288 247.366 281.238 246.142 280.313 244.168C276.079 235.136 266.913 228.877 256.278 228.877C244.354 228.877 234.271 236.744 230.927 247.572C230.222 249.854 228.079 251.376 225.695 251.224C225.429 251.208 225.163 251.199 224.895 251.199C218.005 251.199 212.42 256.761 212.42 263.652C212.42 264.496 212.504 265.348 212.664 266.094H315.436Z" fill="#FDFDFF"/>
<path opacity="0.49" d="M77.8399 72.7027C84.7279 72.7027 90.3117 67.1179 90.3117 60.2285C90.3117 53.339 84.7279 47.7539 77.8399 47.7539C70.952 47.7539 65.3682 53.339 65.3682 60.2285C65.3682 67.1179 70.952 72.7027 77.8399 72.7027Z" fill="#FDFDFF"/>
<path opacity="0.49" d="M329.526 188.125C336.414 188.125 341.998 182.54 341.998 175.651C341.998 168.761 336.414 163.176 329.526 163.176C322.638 163.176 317.054 168.761 317.054 175.651C317.054 182.54 322.638 188.125 329.526 188.125Z" fill="#FDFDFF"/>
<path d="M71.1072 236.449C66.0511 249.805 58.8821 261.018 52.9742 268.894C47.0693 276.767 42.4255 281.303 42.4201 281.306L41.2781 264.01C29.6661 269.336 13.2558 274.388 5.06418 276.778C1.93127 277.689 0 278.276 0 278.276C16.1635 260.668 33.8677 246.509 33.8786 246.509C33.8786 246.509 33.8786 246.509 33.8759 246.509L20.1264 241.153C33.6453 229.908 54.3063 228.324 65.6088 228.418C66.0237 228.421 66.4226 228.451 66.808 228.533C70.2744 229.262 72.4278 232.96 71.1072 236.449Z" fill="#FFA60A"/>
<path d="M71.1061 236.449C66.0505 249.805 58.8815 261.018 52.9736 268.894C47.0686 276.767 42.4249 281.303 42.4194 281.306L41.2775 264.01C29.6655 269.336 13.2551 274.388 5.06348 276.778L46.4067 254.917V262.513C55.5394 259.263 65.6082 228.421 65.6082 228.421C66.026 228.437 66.4245 228.47 66.8069 228.516C70.2738 229.246 72.4272 232.96 71.1061 236.449Z" fill="#EB9809"/>
<path d="M139.396 113.189L157.187 124.611C158.635 125.541 159.666 126.995 160.068 128.667L178.363 205.087L162.541 212.227L142.995 140.859L121.838 119.697L139.396 113.189Z" fill="#DE6D5E"/>
<path d="M225.787 191.473L223.39 211.354L211.987 211.76L210.978 205.575L209.67 192.306L225.787 191.473Z" fill="#FCC4AC"/>
<g opacity="0.65">
<path opacity="0.65" d="M224.714 200.376L211.363 207.932L210.837 204.153L224.714 200.376Z" fill="#FE7D6B"/>
</g>
<path d="M192.832 93.3843L214.284 118.04C218.014 121.749 220.228 126.714 220.493 131.966L231.866 198.53L206.31 205.138L202.054 139.004L179.72 96.7783L192.832 93.3843Z" fill="#E69509"/>
<path d="M206.439 196.457C206.193 196.457 205.967 196.286 205.911 196.034C205.843 195.741 206.027 195.45 206.32 195.385L230.542 189.861C230.835 189.796 231.125 189.978 231.191 190.271C231.259 190.564 231.074 190.854 230.781 190.92L206.559 196.443C206.521 196.451 206.48 196.457 206.439 196.457Z" fill="#FDFDFF"/>
<path d="M211.989 211.758L212.613 217.797L212.998 224.135L239.293 226.126C240.348 226.205 240.823 224.824 239.928 224.265C238.783 223.549 228.343 221.207 226.656 219.729C226.656 219.729 223.018 216.289 223.393 211.351L211.989 211.758Z" fill="#FE7D6B"/>
<path d="M282.483 175.629L283.36 192.276L272.052 194.257L270.242 180.638L282.483 175.629Z" fill="#FCC4AC"/>
<path d="M249.134 80.0908L262.325 88.9159L278.719 105.091L284.857 179.254L267.451 183.331L261.43 111.733C261.43 111.733 232.008 100.514 231.883 85.1474L249.134 80.0908Z" fill="#94B8B4"/>
<path d="M260.646 177.976L260.087 177.278C263.692 174.397 268.176 170.811 273.429 170.086C274.514 169.937 275.618 169.91 276.685 169.886C277.837 169.858 279.031 169.831 280.173 169.644C283.964 169.018 287.643 166.44 290.008 162.745C292.04 159.573 293.233 155.577 293.558 150.873L294.451 150.935C294.117 155.794 292.875 159.929 290.762 163.228C288.226 167.189 284.418 169.848 280.319 170.526C279.118 170.724 277.891 170.753 276.706 170.781C275.665 170.805 274.588 170.83 273.554 170.974C268.545 171.663 264.166 175.163 260.646 177.976Z" fill="#E0FFFC"/>
<path d="M280.517 116.39C283.745 122.099 278.908 128.222 274.359 131.364C269.773 134.529 263.889 136.76 260.952 141.789C259.726 143.889 259.178 146.402 260.116 148.721C261.025 150.97 263.035 152.56 265.094 153.718C267.551 155.105 270.421 156.095 273.272 155.702C275.656 155.371 277.625 153.996 279.456 152.522C280.699 151.521 281.903 150.458 283.262 149.616C284.699 148.727 286.289 148.168 287.911 147.72C290.938 146.882 294.058 146.345 296.773 144.671C297.217 144.397 296.811 143.692 296.363 143.968C291.798 146.784 286.077 146.481 281.678 149.711C279.624 151.22 277.804 153.13 275.466 154.212C272.474 155.596 269.162 154.883 266.328 153.455C263.665 152.115 260.778 150.004 260.466 146.79C260.184 143.862 262.056 141.119 264.087 139.201C268.175 135.341 273.76 133.509 277.845 129.627C281.412 126.236 283.847 120.612 281.225 115.975C280.962 115.522 280.259 115.932 280.517 116.39Z" fill="#E0FFFC"/>
<path d="M283.387 132.468C279.275 134.489 275.374 136.901 271.748 139.7C270.567 140.612 268.951 141.632 268.525 143.17C268.197 144.359 268.669 145.707 269.922 146.07C271.408 146.502 273.104 145.506 274.34 144.809C276.229 143.745 278.035 142.587 280.007 141.675C284.246 139.72 288.831 138.599 293.482 138.287C294.003 138.252 294.006 137.438 293.482 137.473C290.059 137.701 286.679 138.341 283.427 139.446C280.107 140.572 277.167 142.245 274.143 143.985C273.318 144.459 272.45 144.956 271.53 145.203C271.121 145.314 270.565 145.436 270.139 145.284C268.91 144.844 269.143 143.499 269.61 142.736C270.578 141.157 272.659 139.985 274.124 138.935C277.183 136.743 280.422 134.828 283.796 133.168C284.268 132.937 283.856 132.237 283.387 132.468Z" fill="#E0FFFC"/>
<path d="M239.63 102.318C243.05 102.991 246.573 102.842 249.907 101.8C253.243 100.759 255.88 98.797 258.59 96.6671C260.128 95.4598 261.733 94.3015 263.611 93.6829C265.726 92.9855 268.007 92.9585 270.188 93.3329C272 93.642 273.76 94.2226 275.445 94.9496C276.836 95.5522 278.361 96.4095 279.937 96.1733C282.549 95.7799 283.067 92.7144 281.846 90.7337C281.157 89.6189 280.078 88.8156 279.001 88.1051C277.333 87.0032 275.57 86.0266 273.741 85.2208C270.636 83.8508 267.215 82.9391 263.795 83.2976C260.298 83.6636 257.518 85.7176 254.236 86.7346C246.647 89.0897 245.236 79.4912 239.117 77.7577C238.613 77.6139 238.398 78.4003 238.9 78.5416C243.668 79.8926 244.968 85.9048 249.568 87.5784C252.156 88.52 254.776 87.5269 257.141 86.431C260.353 84.9442 263.301 83.7425 266.922 84.1194C270.535 84.4964 273.964 86.0266 277.061 87.858C278.353 88.6228 279.744 89.4127 280.724 90.5735C282.199 92.3209 282.044 95.6226 279.05 95.354C277.436 95.2077 275.96 94.2446 274.46 93.6774C272.855 93.0723 271.189 92.6275 269.485 92.4133C266.472 92.0333 263.469 92.5161 260.844 94.0764C257.724 95.9321 255.264 98.6477 251.92 100.169C248.152 101.884 243.899 102.329 239.849 101.531C239.334 101.434 239.114 102.218 239.63 102.318Z" fill="#E0FFFC"/>
<path d="M237.395 82.2037C237.802 85.2018 240.4 87.2204 240.977 90.1366C241.819 94.3769 237.438 94.7788 234.395 94.5182C233.874 94.4748 233.876 95.2886 234.395 95.332C237.107 95.5652 240.967 95.4623 241.783 92.1961C242.746 88.3407 238.664 85.5628 238.181 81.9895C238.111 81.4713 237.327 81.691 237.395 82.2037Z" fill="#E0FFFC"/>
<path d="M281.97 98.7154C280.622 100.698 278.089 101.143 275.957 101.849C273.933 102.519 271.94 103.317 270.065 104.334C266.582 106.227 263.143 109.185 262.045 113.148C261.556 114.909 261.709 116.906 262.997 118.298C263.515 118.859 264.176 119.277 264.925 119.448C266.16 119.728 267.388 119.16 268.622 119.372C270.771 119.741 272.425 122.259 271.866 124.38C271.256 126.702 268.747 127.628 266.634 128.032C262.875 128.753 257.653 128.184 255.651 132.278C255.424 132.747 256.123 133.16 256.354 132.688C258.336 128.634 263.911 129.549 267.575 128.659C270.73 127.891 273.808 125.37 272.45 121.8C271.934 120.444 270.847 119.255 269.466 118.759C268.603 118.45 267.771 118.512 266.876 118.618C265.213 118.816 263.778 118.471 262.986 116.846C261.738 114.291 263.485 111.163 265.137 109.209C266.61 107.468 268.479 106.114 270.472 105.029C272.702 103.818 275.084 102.953 277.5 102.201C279.478 101.588 281.455 100.897 282.67 99.1143C282.968 98.6934 282.266 98.284 281.97 98.7154Z" fill="#E0FFFC"/>
<path d="M130.227 150.173C120.015 144.972 96.6524 136.643 61.4913 144.614C56.8856 145.658 54.547 150.808 56.8067 154.956L72.6151 183.98C73.6101 185.808 75.8998 186.484 77.7306 185.488L130.306 156.839C132.964 155.39 132.926 151.548 130.227 150.173Z" fill="#FFB678"/>
<path d="M172.32 213.567C172.32 213.567 174.962 245.258 141.232 279.437C137.056 283.669 129.984 282.698 127.139 277.475L110.639 247.179L172.32 213.567Z" fill="#FFB678"/>
<g opacity="0.66">
<path opacity="0.66" d="M172.122 220.028C172.122 220.028 139.418 245.068 132.64 245.714L117.078 269.317L106.288 247.83L167.424 212.23L172.122 220.028Z" fill="#FFBF89"/>
</g>
<path d="M96.5856 262.505L57.1387 190.079C54.3229 184.91 57.1737 178.461 62.8998 177.097C73.2097 174.641 84.6241 173.776 96.3364 174.411L131.004 238.064C125.183 248.254 118.266 257.377 110.609 264.711C106.361 268.777 99.3985 267.67 96.5856 262.505Z" fill="#FFC18C"/>
<path d="M285.724 106.301C262.549 180.124 131.264 241.289 131.264 241.289L93.8643 172.628C93.8643 172.628 206.89 77.3886 281.2 98.0454C282.754 98.4768 284.102 99.4533 284.978 100.81C286.028 102.437 286.305 104.451 285.724 106.301Z" fill="#FFD3AD"/>
<path d="M236.965 197.558C242.366 188.446 239.36 176.679 230.249 171.276C221.138 165.874 209.374 168.881 203.972 177.993C198.571 187.106 201.578 198.872 210.688 204.275C219.799 209.678 231.563 206.67 236.965 197.558Z" fill="#FFCA9D"/>
<path d="M220.464 199.908C227.16 199.908 232.588 194.478 232.588 187.781C232.588 181.083 227.16 175.653 220.464 175.653C213.767 175.653 208.339 181.083 208.339 187.781C208.339 194.478 213.767 199.908 220.464 199.908Z" fill="#F6E7E0"/>
<path d="M253.509 141.399C258.91 132.286 255.903 120.52 246.793 115.117C237.682 109.714 225.918 112.722 220.517 121.834C215.115 130.946 218.122 142.713 227.232 148.116C236.343 153.518 248.107 150.511 253.509 141.399Z" fill="#FFCA9D"/>
<path d="M237.01 143.749C243.706 143.749 249.134 138.319 249.134 131.621C249.134 124.924 243.706 119.494 237.01 119.494C230.313 119.494 224.885 124.924 224.885 131.621C224.885 138.319 230.313 143.749 237.01 143.749Z" fill="#F6E7E0"/>
<g opacity="0.6">
<g opacity="0.6">
<path opacity="0.6" d="M270.741 107.942L265.083 143.413L252.334 157.995L270.741 107.942Z" fill="#FFCA9D"/>
</g>
</g>
<g opacity="0.6">
<g opacity="0.6">
<path opacity="0.6" d="M207.385 131.173L209.67 194.511L203.029 199.121L207.385 131.173Z" fill="#FFCA9D"/>
</g>
</g>
<g opacity="0.6">
<g opacity="0.6">
<path opacity="0.6" d="M153.419 135.492L155.236 230.114L141.503 238.087L153.419 135.492Z" fill="#FFCA9D"/>
</g>
</g>
<path d="M242.846 133.865C242.583 133.865 242.361 133.659 242.345 133.393L241.724 123.194C241.708 122.918 241.916 122.679 242.196 122.663C242.467 122.649 242.711 122.855 242.727 123.135L243.349 133.333C243.365 133.61 243.156 133.849 242.876 133.865C242.868 133.865 242.857 133.865 242.846 133.865Z" fill="#FDFDFF"/>
<path d="M236.171 139.573C235.897 139.573 235.672 139.353 235.669 139.079L235.417 122.169C235.412 121.892 235.634 121.665 235.911 121.659C235.913 121.659 235.916 121.659 235.919 121.659C236.193 121.659 236.418 121.879 236.421 122.153L236.673 139.063C236.678 139.34 236.456 139.567 236.179 139.573C236.176 139.573 236.174 139.573 236.171 139.573Z" fill="#FDFDFF"/>
<path d="M224.616 185.464C224.317 185.464 224.073 185.219 224.073 184.921V179.766C224.073 179.468 224.317 179.224 224.616 179.224C224.914 179.224 225.158 179.468 225.158 179.766V184.921C225.158 185.222 224.914 185.464 224.616 185.464Z" fill="#FDFDFF"/>
<path d="M219.734 187.363C219.436 187.363 219.191 187.118 219.191 186.82V180.037C219.191 179.739 219.436 179.495 219.734 179.495C220.032 179.495 220.276 179.739 220.276 180.037V186.82C220.276 187.121 220.032 187.363 219.734 187.363Z" fill="#FDFDFF"/>
<g opacity="0.75">
<g opacity="0.75">
<path opacity="0.75" d="M151.564 180.604L94.0219 220.307L90.6289 214.072L151.564 180.604Z" fill="#FFB87B"/>
</g>
</g>
<path d="M149.183 174.831L151.355 178.7C151.803 179.498 151.507 180.51 150.699 180.938C146.326 183.252 131.494 191.242 94.1545 212.483C93.3302 212.952 92.5244 213.419 91.8763 213.804C91.0895 214.27 90.0755 213.996 89.6276 213.199L87.4548 209.33C87.0209 208.559 87.2816 207.583 88.0409 207.132C88.7 206.742 89.5328 206.259 90.3845 205.773C127.939 184.414 142.726 176.454 147.004 174.191C147.783 173.776 148.748 174.061 149.183 174.831Z" fill="#FFB678"/>
<path d="M145.03 125.292C147.159 125.368 149.207 124.855 151.068 123.829C152.766 122.893 151.25 120.289 149.546 121.227C148.13 122.006 146.638 122.337 145.03 122.28C143.09 122.21 143.093 125.224 145.03 125.292Z" fill="#FDFDFF"/>
<path d="M152.818 126.543C150.571 127.774 148.542 129.359 146.809 131.244C145.499 132.671 147.626 134.809 148.941 133.377C150.514 131.665 152.299 130.265 154.339 129.147C156.04 128.214 154.521 125.609 152.818 126.543Z" fill="#FDFDFF"/>
<path d="M96.0344 111.133C94.0922 111.952 87.365 115.831 82.7543 118.482C82.7543 118.485 82.7543 118.485 82.7543 118.485C80.5839 119.703 78.8754 120.663 78.2244 120.945C76.2008 121.83 73.9631 122.25 71.6954 122.25L66.5335 121.757L42.607 119.47L38.2807 120.007C38.2264 120.039 38.1695 120.069 38.1043 120.094C36.1975 120.853 33.4769 121.613 31.5674 122.375C30.1162 122.953 29.3187 121.282 30.7807 120.699C31.6948 120.335 33.3494 119.855 34.1903 119.369C32.6225 119.486 28.1686 118.414 26.8531 117.85C24.8893 117.006 25.7437 115.286 27.3983 115.945C28.6189 116.428 32.5384 117.031 34.174 116.474C32.2264 116.285 28.4155 114.654 26.8097 113.298C25.6216 112.294 26.0475 111.13 27.5122 111.702C28.8603 112.229 32.598 113.756 34.2012 113.615C33.3955 113.124 31.1144 111.247 30.3765 110.601C29.1912 109.562 30.401 108.693 31.5782 109.727C32.6469 110.663 35.731 111.754 37.1848 111.708C37.4669 111.697 37.7192 111.697 37.9525 111.697C37.6514 111.325 37.3666 110.959 37.1008 110.63C36.1242 109.418 37.6894 108.382 38.6767 109.605C38.9018 109.885 41.3918 111.716 42.55 111.949L43.0274 111.898L67.6703 109.35C67.6703 109.35 83.7848 99.8218 89.123 96.96L96.0344 111.133Z" fill="#FAD9BD"/>
<g opacity="0.65">
<path opacity="0.65" d="M82.2256 100.845L88.5918 115.15L91.5405 113.49L82.2256 100.845Z" fill="#B1CEFC"/>
</g>
<path d="M145.084 223.217L148.285 205.958L131.977 206.174L130.564 221.009L145.084 223.217Z" fill="#FAD9BD"/>
<g opacity="0.65">
<path opacity="0.65" d="M146.639 215.887L131.037 218.472V214.221L146.639 215.887Z" fill="#B1CEFC"/>
</g>
<path d="M176.215 63.1851C174.799 63.1851 173.228 62.8082 171.818 63.1991C171.823 63.1961 171.831 63.1936 171.837 63.1906C173.044 62.6753 174.365 62.3413 175.632 62.3034C176.619 62.2739 176.622 61.0178 175.634 61.0477C174.349 61.0857 172.992 60.7357 171.748 61.1671C171.232 61.3458 170.714 61.5954 170.258 61.9185C171.292 61.1561 172.542 60.7981 173.736 60.6678C174.715 60.5619 174.685 59.3083 173.698 59.4141C172.518 59.5419 171.322 59.3247 170.228 59.832C170.37 59.7017 170.51 59.5689 170.652 59.4386C171.422 58.7471 170.641 57.9872 169.878 58.6707C168.574 59.84 167.017 60.7302 165.851 62.0592C165.783 62.1381 165.737 62.2195 165.701 62.3009L165.685 62.2954L163.949 63.4757L162.786 64.3764L162.729 64.3085L148.079 73.503L133.391 77.5316L137.969 89.583L152.736 83.0011C153.254 82.7705 153.734 82.4639 154.16 82.0895L167.277 69.8648L168.352 69.4145C168.352 69.4145 169.03 68.8663 169.16 68.736C170.041 67.8518 171.227 67.6671 172.396 67.724C173.378 67.7729 173.714 66.7339 172.423 66.4733C171.666 66.3215 170.836 66.1642 170.131 66.4543C170.717 65.9501 171.308 65.4618 171.983 65.1522C173.416 64.4982 174.948 64.7398 176.462 64.4223C177.425 64.2246 177.219 63.1881 176.215 63.1851Z" fill="#FAD9BD"/>
<path d="M140.712 88.8505L136.372 75.7197L125.158 77.4966L118.117 78.4138L107.549 80.9206L96.5882 87.144L81.1543 99.3906L92.5496 114.861L104.151 107.313L110.82 124.041L139.396 113.189L130.727 92.0793L140.712 88.8505Z" fill="#B1CEFC"/>
<path d="M79.5081 105.05L79.0742 104.725C82.0579 100.761 85.3615 96.8407 90.0267 96.2381C91.0168 96.1108 92.0478 96.1432 93.0403 96.1732C94.8686 96.2301 96.5966 96.2815 98.0719 95.4218C99.4419 94.6214 100.242 93.235 101.089 91.7671C101.574 90.9263 102.076 90.0551 102.7 89.2982C104.349 87.2962 106.88 86.1269 109.475 86.1568C110.693 86.1728 111.9 86.4499 113.067 86.7155C114.626 87.071 116.099 87.4075 117.602 87.1823C120.447 86.7564 122.593 84.4284 124.486 81.9784L124.706 81.6938C126.531 79.3253 128.422 76.8784 131.248 75.9258L131.422 76.4415C128.753 77.3392 126.914 79.7212 125.137 82.0249L124.917 82.3124C122.954 84.8517 120.718 87.2662 117.683 87.7195C116.08 87.9607 114.488 87.5972 112.947 87.2447C111.808 86.9841 110.628 86.7155 109.47 86.699C107.08 86.6641 104.644 87.7954 103.12 89.6427C102.526 90.3647 102.035 91.2139 101.56 92.0357C100.714 93.5006 99.8404 95.0144 98.346 95.8856C96.7349 96.8242 94.8497 96.7673 93.0243 96.7104C92.0503 96.6804 91.0442 96.648 90.0946 96.7728C85.6406 97.3505 82.4238 101.178 79.5081 105.05Z" fill="#5487D7"/>
<path d="M89.7095 111.13L89.3105 110.761C91.413 108.479 93.5883 106.116 96.2354 104.358C99.2086 102.383 102.423 101.513 105.287 101.903C105.813 101.974 106.356 102.088 106.879 102.196C108.491 102.533 110.015 102.85 111.317 102.128C112.158 101.664 112.711 100.856 113.299 100.001C113.468 99.7571 113.636 99.5104 113.812 99.2743C115.247 97.3426 117.184 96.1189 119.131 95.9157C120.434 95.7799 121.755 96.0755 123.029 96.363C124.73 96.746 126.338 97.1065 127.83 96.4824C129.225 95.8992 130.166 94.5592 130.977 93.1972L131.207 92.8092C131.959 91.5341 132.737 90.2155 133.969 89.3473C135.338 88.3787 137.538 88.1725 138.704 89.5265L138.295 89.882C137.327 88.7587 135.461 88.9624 134.283 89.7922C133.146 90.5955 132.398 91.8621 131.677 93.0888L131.446 93.4793C130.589 94.9197 129.583 96.3416 128.044 96.9871C126.393 97.6791 124.624 97.2827 122.915 96.8978C121.684 96.6212 120.409 96.3336 119.194 96.4609C117.398 96.6481 115.6 97.793 114.255 99.6053C114.083 99.836 113.918 100.075 113.753 100.316C113.153 101.187 112.535 102.085 111.585 102.611C110.107 103.431 108.412 103.078 106.774 102.736C106.258 102.627 105.727 102.517 105.219 102.449C102.485 102.077 99.4038 102.918 96.542 104.82C93.9408 106.534 91.7899 108.87 89.7095 111.13Z" fill="#5487D7"/>
<path d="M106.003 116.176L105.545 115.886C107.213 113.262 110.66 112.655 113.107 112.427C113.416 112.397 113.725 112.373 114.038 112.345C116.503 112.136 119.056 111.919 120.984 110.481C122.001 109.724 122.807 108.642 123.588 107.598C124.681 106.13 125.815 104.61 127.562 103.946C128.327 103.656 129.138 103.561 129.922 103.471C130.407 103.414 130.909 103.357 131.387 103.251C133.367 102.817 135.132 101.499 136.112 99.7246L136.586 99.9877C135.534 101.897 133.632 103.316 131.503 103.783C131.001 103.895 130.483 103.954 129.987 104.011C129.2 104.103 128.457 104.188 127.757 104.456C126.157 105.066 125.121 106.455 124.025 107.926C123.222 109.003 122.392 110.115 121.31 110.921C119.256 112.449 116.625 112.674 114.083 112.888C113.772 112.915 113.462 112.939 113.156 112.969C109.451 113.311 107.178 114.331 106.003 116.176Z" fill="#5487D7"/>
<path d="M110.007 123.227C110.007 123.227 112.217 149.788 132.045 152.433L128.297 214.165L151.963 216.205C151.963 216.205 155.188 137.337 153.419 135.493C151.651 133.645 128.12 117.967 128.12 117.967L110.007 123.227Z" fill="#F27777"/>
<path d="M144.614 168.33C146.752 167.943 148.778 167.227 150.712 166.239C152.44 165.357 150.916 162.756 149.19 163.637C147.484 164.508 145.697 165.083 143.814 165.425C141.907 165.77 142.713 168.675 144.614 168.33Z" fill="white"/>
<path d="M139.051 146.67C137.966 148.1 138.585 150.137 139.844 151.23C141.436 152.614 143.64 152.261 145.518 151.8C147.4 151.336 146.603 148.428 144.717 148.895C143.934 149.088 142.824 149.459 142.038 149.096C141.633 148.908 141.373 148.561 141.652 148.195C142.146 147.546 141.756 146.507 141.113 146.133C140.34 145.677 139.545 146.022 139.051 146.67Z" fill="white"/>
<path d="M127.884 127.97C125.885 129.114 123.886 130.262 121.887 131.407C120.205 132.37 121.721 134.977 123.409 134.009C125.408 132.864 127.407 131.716 129.406 130.571C131.087 129.608 129.571 127.004 127.884 127.97Z" fill="white"/>
<path d="M138.379 127.847C137.937 128.96 138.233 130.066 138.727 131.105C138.911 131.496 139.188 131.865 139.334 132.272C139.386 132.414 139.378 132.704 139.445 132.815C139.63 133.119 138.973 133.092 139.706 132.804C137.918 133.501 138.697 136.418 140.506 135.71C141.832 135.191 142.511 134.112 142.456 132.679C142.432 132.045 142.256 131.426 141.992 130.853C141.675 130.164 140.98 129.418 141.287 128.648C142.003 126.849 139.09 126.065 138.379 127.847Z" fill="white"/>
<path d="M125.215 144.114C125.215 145.607 125.215 147.099 125.215 148.591C125.215 150.531 128.228 150.533 128.228 148.591C128.228 147.099 128.228 145.607 128.228 144.114C128.228 142.175 125.215 142.172 125.215 144.114Z" fill="white"/>
<path d="M139.073 173.676C140.285 175.244 140.781 177.156 140.7 179.112C140.619 181.053 143.632 181.05 143.714 179.112C143.833 176.302 142.911 173.749 141.205 171.543C140.019 170.01 137.898 172.159 139.073 173.676Z" fill="white"/>
<path d="M147.925 184.831C145.302 187.118 144.263 190.719 145.125 194.069C145.608 195.947 148.516 195.152 148.03 193.268C147.423 190.903 148.228 188.556 150.057 186.964C151.522 185.686 149.381 183.562 147.925 184.831Z" fill="white"/>
<path d="M131.215 202.206C133.884 201.468 135.525 204.314 133.99 206.449C132.854 208.025 135.469 209.531 136.591 207.971C139.732 203.608 135.461 197.908 130.415 199.3C128.546 199.813 129.341 202.724 131.215 202.206Z" fill="white"/>
<path d="M144.3 205.155C144.333 206.826 144.642 208.453 145.277 210C145.586 210.751 146.277 211.286 147.129 211.053C147.84 210.857 148.494 209.957 148.181 209.2C147.645 207.892 147.341 206.568 147.314 205.155C147.276 203.217 144.262 203.212 144.3 205.155Z" fill="white"/>
<path d="M115.385 122.275C114.664 123.469 113.94 124.662 113.218 125.856C112.212 127.519 114.816 129.036 115.82 127.378C116.541 126.184 117.265 124.99 117.987 123.797C118.996 122.134 116.389 120.617 115.385 122.275Z" fill="white"/>
<path d="M114.916 67.3367L117.075 64.9871C117.075 64.9871 115.133 65.8334 114.631 64.9492C114.129 64.0645 110.742 60.5296 107.893 62.4069C107.893 62.4069 101.457 64.3655 101.335 68.5164C101.213 72.6674 104.305 75.1338 107.999 76.5172L114.916 67.3367Z" fill="black"/>
<path d="M117.075 79.415C115.42 83.8914 108.474 81.6392 108.474 81.6392L108.143 78.0964L107.774 74.1651L107.733 73.7283L115.602 73.7173L115.852 74.6779L115.881 74.8027L117.075 79.415Z" fill="#FAD9BD"/>
<g opacity="0.65">
<path opacity="0.65" d="M115.916 74.6778C115.916 74.6778 115.908 74.7212 115.884 74.7996C115.697 75.4482 114.465 78.4842 108.145 78.0963L107.776 74.165L115.854 74.6778H115.916Z" fill="#B1CEFC"/>
</g>
<path d="M114.477 75.8146C110.579 77.4367 106.806 73.5109 106.806 73.5109C105.865 74.6912 103.768 72.9682 104.289 71.8888C104.813 70.8114 106.112 71.6037 106.112 71.6037C106.112 71.6037 107.905 70.4344 108.195 69.6506C108.482 68.8662 108.222 64.1157 108.222 64.1157C109.323 63.8855 111.412 65.9824 111.984 67.0214C112.556 68.0579 114.995 67.301 114.995 67.301C115.282 67.7893 115.529 68.2476 115.744 68.6845C115.801 68.8093 115.857 68.9286 115.912 69.0479C116.132 69.5337 116.305 69.9816 116.441 70.399C116.476 70.5133 116.511 70.6296 116.541 70.7385C117.77 75.0981 114.477 75.8146 114.477 75.8146Z" fill="#FAD9BD"/>
<path d="M109.068 70.3507C109.027 70.3507 108.984 70.3367 108.952 70.3043C108.881 70.2394 108.873 70.128 108.938 70.0576L110.289 68.5598C110.354 68.4864 110.465 68.4814 110.536 68.5463C110.606 68.6112 110.614 68.7226 110.549 68.793L109.198 70.2908C109.163 70.3312 109.114 70.3507 109.068 70.3507Z" fill="black"/>
<path d="M112.982 67.7054C112.926 67.7054 112.872 67.673 112.844 67.619C112.809 67.5427 112.842 67.4533 112.918 67.4178L114.564 66.656C114.64 66.6205 114.729 66.653 114.765 66.7288C114.8 66.8047 114.767 66.8946 114.691 66.9295L113.045 67.6919C113.026 67.7004 113.004 67.7054 112.982 67.7054Z" fill="black"/>
<path d="M109.464 71.3111C109.404 71.1293 109.786 69.3554 111.511 69.7893C111.683 69.8462 111.793 71.5937 109.464 71.3111Z" fill="#FAD9BD"/>
<path d="M111.404 70.7826C111.839 70.5309 112.007 70.0107 111.782 69.6203C111.556 69.2298 111.02 69.1175 110.586 69.3691C110.152 69.6208 109.983 70.141 110.208 70.5309C110.435 70.9214 110.97 71.0342 111.404 70.7826Z" fill="black"/>
<path d="M112.931 69.0752C112.871 68.8935 113.254 67.1196 114.979 67.5535C115.147 67.6104 115.258 69.3578 112.931 69.0752Z" fill="#FAD9BD"/>
<path d="M115.172 68.8476C115.606 68.596 115.775 68.0758 115.549 67.6858C115.323 67.2954 114.788 67.183 114.353 67.4342C113.919 67.6858 113.75 68.2061 113.976 68.5965C114.202 68.9869 114.737 69.0993 115.172 68.8476Z" fill="black"/>
<path d="M113.834 71.7124C113.796 71.7124 113.76 71.6909 113.744 71.653C113.725 71.604 113.75 71.5471 113.798 71.5282C114.037 71.4328 114.165 71.3055 114.178 71.1507C114.219 70.6734 113.251 69.9654 112.874 69.7318C112.828 69.7048 112.814 69.6449 112.841 69.599C112.868 69.553 112.928 69.5396 112.974 69.5665C113.123 69.6589 114.43 70.4837 114.371 71.1672C114.352 71.3978 114.181 71.5796 113.869 71.7044C113.858 71.7124 113.847 71.7124 113.834 71.7124Z" fill="#B1CEFC"/>
<g opacity="0.66">
<path opacity="0.66" d="M111.235 73.9829C111.781 73.9829 112.223 73.5411 112.223 72.9954C112.223 72.4502 111.781 72.0083 111.235 72.0083C110.69 72.0083 110.248 72.4502 110.248 72.9954C110.248 73.5411 110.69 73.9829 111.235 73.9829Z" fill="#FE9A8C"/>
</g>
<g opacity="0.66">
<path opacity="0.66" d="M116.44 70.399C116.366 70.4669 116.285 70.5213 116.193 70.5623C115.696 70.7924 115.111 70.5782 114.883 70.0845C114.652 69.5882 114.867 69.002 115.36 68.7744C115.485 68.717 115.615 68.69 115.743 68.6875C115.8 68.8123 115.857 68.9316 115.911 69.051C116.13 69.5313 116.304 69.9816 116.44 70.399Z" fill="#FE9A8C"/>
</g>
<path d="M113.818 73.4488C113.21 73.4488 112.773 73.1288 112.749 73.1098C112.716 73.0853 112.703 73.0419 112.716 73.0014C112.73 72.9605 112.768 72.936 112.808 72.936C114.235 72.963 114.655 72.277 114.658 72.2685C114.685 72.2226 114.745 72.2061 114.789 72.2336C114.835 72.2605 114.851 72.3174 114.824 72.3639C114.808 72.3933 114.428 73.0339 113.172 73.1178C113.432 73.2266 113.831 73.3215 114.276 73.1802C114.327 73.1642 114.382 73.1912 114.398 73.2426C114.414 73.294 114.387 73.3484 114.335 73.3649C114.154 73.4243 113.98 73.4488 113.818 73.4488Z" fill="#B1CEFC"/>
<path d="M105.392 73.0661C105.368 73.0661 105.34 73.0551 105.321 73.0361C105.287 72.9982 105.287 72.9357 105.327 72.9003C105.834 72.4255 105.512 71.9647 105.498 71.9457C105.468 71.9023 105.476 71.8423 105.52 71.8099C105.563 71.7799 105.623 71.7879 105.655 71.8314C105.66 71.8368 106.086 72.453 105.46 73.0416C105.441 73.0581 105.416 73.0661 105.392 73.0661Z" fill="#B1CEFC"/>
<path d="M106.097 73.3649C105.474 73.3649 104.79 72.6135 104.635 72.3314C104.587 72.2415 104.579 72.1442 104.608 72.0463C104.698 71.7722 105.08 71.5825 105.124 71.5605C105.172 71.539 105.23 71.558 105.251 71.6069C105.273 71.6554 105.254 71.7128 105.205 71.7343C105.107 71.7802 104.844 71.9405 104.79 72.1062C104.774 72.1521 104.779 72.1956 104.804 72.239C104.969 72.5401 105.72 73.3214 106.255 73.1477C106.306 73.1317 106.36 73.1587 106.377 73.2101C106.393 73.2615 106.366 73.316 106.314 73.3324C106.244 73.3539 106.171 73.3649 106.097 73.3649Z" fill="#B1CEFC"/>
<g opacity="0.72">
<path opacity="0.72" d="M130.727 92.0791L127.238 85.2666L133.387 91.2189L130.727 92.0791Z" fill="#D5E1FA"/>
</g>
<g opacity="0.72">
<path opacity="0.72" d="M104.151 107.313L101.606 99.8818L102.141 108.621L104.151 107.313Z" fill="#D5E1FA"/>
</g>
<path d="M130.565 221.01L129.637 229.485L128.321 238.316L160.966 247.44C162.273 247.806 163.269 246.018 162.298 245.031C161.055 243.766 148.535 238.004 146.823 235.56C146.823 235.56 143.207 229.935 145.082 223.221L130.565 221.01Z" fill="#357DED"/>
<g opacity="0.65">
<path opacity="0.65" d="M82.7549 118.479C82.7549 118.479 82.7574 118.479 82.7574 118.482C82.7574 118.485 82.7574 118.485 82.7574 118.485C80.5876 119.703 78.8786 120.663 78.2275 120.945C76.204 121.83 73.9662 122.25 71.6991 122.25L66.5371 121.757C66.5371 121.757 75.2818 115.254 82.7549 118.479Z" fill="#FE8D7C"/>
</g>
<path d="M198.899 204.674L190.784 222.982L179.763 220.027L180.606 213.817L183.246 200.746L198.899 204.674Z" fill="#FCC4AC"/>
<path d="M179.762 220.027L178.59 225.985L177.102 232.157L201.66 241.766C202.645 242.152 203.504 240.971 202.813 240.174C201.929 239.154 192.63 233.855 191.451 231.948C191.451 231.948 188.979 227.594 190.783 222.982L179.762 220.027Z" fill="#FE7D6B"/>
<path d="M231.14 39.5878C229.745 39.8076 228.132 39.7153 226.811 40.2878C226.816 40.285 226.822 40.2796 226.827 40.2769C227.928 39.6231 229.173 39.113 230.413 38.8824C231.379 38.7006 231.17 37.5666 230.201 37.7484C228.943 37.9844 227.543 37.8813 226.39 38.4646C225.913 38.7061 225.444 39.0126 225.05 39.3762C225.94 38.527 227.109 38.0061 228.265 37.7022C229.211 37.4527 228.967 36.3267 228.013 36.5791C226.873 36.8775 225.658 36.8694 224.665 37.4988C224.782 37.3577 224.896 37.2166 225.015 37.0783C225.658 36.3322 224.757 35.7706 224.123 36.5058C223.038 37.7646 221.654 38.8119 220.732 40.1955C220.678 40.2769 220.645 40.3583 220.626 40.4369L220.607 40.4342L219.099 41.7717L218.082 42.7918L223.059 48.3698L224.448 46.4436C224.448 46.4436 225.023 45.844 225.129 45.7056C225.848 44.7696 226.982 44.4169 228.142 44.2867C229.119 44.1755 229.271 43.188 227.956 43.1554C227.185 43.1364 226.339 43.1256 225.693 43.4972C226.184 42.9492 226.683 42.4174 227.296 42.0322C228.598 41.2183 230.147 41.1939 231.582 40.673C232.507 40.3338 232.127 39.4304 231.14 39.5878Z" fill="#FCC4AC"/>
<path d="M138.86 122.18L129.149 115.837L118.663 132.59C116.81 133.124 116.202 133.9 114.352 134.435C112.109 135.083 111.604 136.776 114.32 136.467C115.999 136.274 115.185 136.282 116.704 135.759C114.67 137.682 113.289 139.316 109.785 141.548C108.219 142.544 109.397 143.762 111.084 143.005C112.899 142.191 114.656 140.528 116.151 139.483C114.775 141.388 113.696 143.249 111.268 145.002C109.766 146.087 110.707 147.628 112.503 146.57C115.06 145.067 116.994 142.33 118.983 140.135C117.922 142.395 116.615 144.559 114.645 146.304C112.711 148.019 115.055 148.694 116.414 147.454C118.264 145.767 119.937 143.873 121.158 141.77C121.294 143.162 120.797 143.651 120.165 145.471C119.558 147.219 120.998 147.739 122.091 146.252C123.119 144.855 123.854 142.142 124.296 140.374L138.86 122.18Z" fill="#FCC4AC"/>
<path d="M164.424 44.5853C163.233 44.3303 161.997 44.5067 160.931 45.0927C159.184 46.053 156.55 47.9033 156.018 50.516C155.21 54.4987 156.889 59.0076 152.378 58.7499C151.99 58.7285 151.477 58.723 150.881 58.7474C144.018 59.0185 141.194 67.6864 146.576 71.9566C146.576 71.9566 171.617 64.6588 171.606 59.8458C171.596 55.1552 169.662 49.1459 168.485 47.5696C167.893 46.7828 167.494 45.2419 164.424 44.5853Z" fill="black"/>
<path d="M164.484 104.116C161.557 125.587 185.88 135.604 185.88 135.604L173.712 217.922L201.55 222.233L207.387 131.171C207.747 126.96 206.443 122.777 203.752 119.518L184.971 95.416L164.484 104.116Z" fill="#86D0DA"/>
<path d="M160.984 61.1159C160.77 61.1728 160.569 61.2652 160.388 61.3925C158.543 62.6866 147.959 70.1527 146.845 71.973C145.624 73.9671 138.04 99.1628 135.813 102.381C131.918 108.013 123.759 122.886 123.759 122.886L133.597 130.713L149.641 109.955C150.042 109.434 150.341 108.857 150.517 108.254L155.863 89.9033L164.256 104.236L192.834 93.3842L185.337 72.0978L178.963 59.5991C178.963 59.5991 174.959 59.5776 171.555 58.6061C171.235 58.5142 170.901 58.5142 170.578 58.5981L160.984 61.1159Z" fill="#227E91"/>
<path d="M170.51 79.7704C170.155 79.9357 170.45 79.7974 170.54 79.7729C170.592 79.7594 170.64 79.746 170.692 79.738C170.806 79.716 170.76 79.7215 170.551 79.7539C170.562 79.727 170.841 79.7514 170.866 79.7484C171.169 79.743 170.556 79.6835 170.876 79.7569C171.644 79.9302 172.545 79.5208 172.729 78.704C172.903 77.9361 172.498 77.0384 171.676 76.8512C170.732 76.637 169.859 76.7588 168.988 77.1657C168.272 77.4997 168.034 78.5876 168.449 79.2277C168.923 79.9681 169.743 80.1284 170.51 79.7704Z" fill="white"/>
<path d="M174.74 73.894C175.822 74.6808 176.766 75.6494 177.585 76.7048C178.084 77.3474 179.191 77.2311 179.717 76.7048C180.351 76.0698 180.219 75.218 179.717 74.572C178.727 73.3023 177.563 72.2334 176.261 71.2893C175.602 70.812 174.582 71.1754 174.2 71.8295C173.752 72.5944 174.078 73.4167 174.74 73.894Z" fill="white"/>
<path d="M180.506 84.732C181.629 84.4878 182.7 84.0834 183.728 83.5682C184.455 83.2017 184.662 82.1762 184.268 81.5062C183.834 80.7658 182.936 80.5975 182.207 80.9665C181.409 81.3679 180.577 81.6365 179.706 81.8262C178.911 82 178.447 82.9251 178.653 83.6795C178.879 84.5013 179.708 84.9057 180.506 84.732Z" fill="white"/>
<path d="M179.836 93.4197C178.289 93.8182 176.744 94.2201 175.197 94.6185C173.32 95.1043 174.115 98.0125 175.998 97.5242C177.544 97.1253 179.09 96.7239 180.636 96.325C182.513 95.8422 181.718 92.934 179.836 93.4197Z" fill="white"/>
<path d="M166.613 95.5677C165.449 94.629 164.193 94.1108 162.704 93.959C161.893 93.8747 161.196 94.7104 161.196 95.4673C161.196 96.352 161.89 96.8917 162.704 96.9756C163.249 97.033 164.012 97.3256 164.481 97.7031C165.116 98.2128 165.992 98.3216 166.613 97.7031C167.139 97.1713 167.25 96.0804 166.613 95.5677Z" fill="white"/>
<path d="M157.822 79.7076C157.697 79.2223 157.572 78.739 157.445 78.2537C157.246 77.4913 156.357 76.9541 155.592 77.2007C154.805 77.4558 154.328 78.2372 154.539 79.054C154.664 79.5393 154.789 80.0226 154.917 80.5079C155.114 81.2703 156.004 81.8075 156.769 81.5608C157.556 81.3057 158.033 80.5244 157.822 79.7076Z" fill="white"/>
<path d="M160.571 72.1065C160.834 71.781 161.098 71.4525 161.361 71.1269C161.621 70.8039 161.803 70.4919 161.803 70.0605C161.803 69.6915 161.637 69.2497 161.361 68.9945C161.073 68.7314 160.696 68.5362 160.295 68.5522C159.92 68.5687 159.475 68.688 159.229 68.9945C158.966 69.3201 158.703 69.6481 158.439 69.9741C158.179 70.2966 157.997 70.6087 157.997 71.04C157.997 71.409 158.163 71.8514 158.439 72.1065C158.727 72.3696 159.104 72.5648 159.505 72.5483C159.88 72.5324 160.325 72.413 160.571 72.1065Z" fill="white"/>
<path d="M175.791 64.5393C176.969 63.1913 178.27 61.9566 179.719 60.9041C180.375 60.4268 180.701 59.5935 180.259 58.8421C179.879 58.1936 178.859 57.8196 178.197 58.3024C176.537 59.5121 175.013 60.8607 173.659 62.4099C172.39 63.8613 174.511 66.0017 175.791 64.5393Z" fill="white"/>
<path d="M184.054 67.2171C185.381 66.9759 186.704 66.7343 188.031 66.4926C188.831 66.3464 189.284 65.3753 189.083 64.6399C188.852 63.7961 188.033 63.4406 187.23 63.5874C185.904 63.8285 184.58 64.0702 183.254 64.3118C182.454 64.4581 182.001 65.4292 182.202 66.1646C182.432 67.0084 183.251 67.3639 184.054 67.2171Z" fill="white"/>
<path d="M185.717 79.0701C186.718 79.5859 187.721 80.1011 188.722 80.6194C189.446 80.9913 190.358 80.8066 190.784 80.0797C191.18 79.4041 190.968 78.3921 190.244 78.0177C189.243 77.5024 188.239 76.9867 187.239 76.4684C186.514 76.097 185.603 76.2812 185.177 77.0086C184.781 77.6842 184.99 78.6962 185.717 79.0701Z" fill="white"/>
<path d="M147.606 81.6043C147.129 83.216 146.478 84.7243 145.637 86.1811C144.666 87.8632 147.27 89.3849 148.238 87.7029C149.204 86.0318 149.963 84.2574 150.512 82.4071C151.065 80.5409 148.157 79.7455 147.606 81.6043Z" fill="white"/>
<path d="M148.67 72.51C148.439 71.6228 148.211 70.7331 147.981 69.8459C147.777 69.0566 146.904 68.5793 146.128 68.7935C145.331 69.0131 144.872 69.8569 145.075 70.6462C145.306 71.5334 145.534 72.4231 145.764 73.3103C145.968 74.1002 146.841 74.5775 147.617 74.3633C148.415 74.1461 148.873 73.2999 148.67 72.51Z" fill="white"/>
<path d="M146.958 103.245C147.313 104.255 147.869 105.172 148.683 105.877C149.28 106.393 150.237 106.507 150.815 105.877C151.336 105.31 151.452 104.295 150.815 103.745C150.687 103.633 150.562 103.52 150.446 103.398C150.389 103.335 150.335 103.27 150.278 103.208C150.416 103.362 150.324 103.27 150.245 103.159C150.15 103.02 150.064 102.874 149.985 102.725C149.971 102.698 149.846 102.456 149.925 102.619C150.012 102.798 149.865 102.451 149.863 102.445C149.602 101.702 148.821 101.13 148.01 101.393C147.278 101.629 146.678 102.451 146.958 103.245Z" fill="white"/>
<path d="M139.03 114.274C140.969 114.274 140.972 111.26 139.03 111.26C137.09 111.258 137.088 114.274 139.03 114.274Z" fill="white"/>
<path d="M140.532 104.749C140.532 103.797 140.532 102.847 140.532 101.895C140.532 99.955 137.519 99.9525 137.519 101.895C137.519 102.847 137.519 103.797 137.519 104.749C137.519 106.689 140.532 106.694 140.532 104.749Z" fill="white"/>
<path d="M142.565 111.697C143.769 112.568 145.033 113.333 146.365 113.995C148.095 114.855 149.625 112.256 147.886 111.393C146.554 110.731 145.291 109.966 144.086 109.095C143.427 108.618 142.407 108.981 142.025 109.635C141.577 110.395 141.903 111.219 142.565 111.697Z" fill="white"/>
<path d="M130.756 121.303C130.333 122.017 129.91 122.728 129.487 123.441C129.083 124.12 129.311 125.126 130.026 125.503C130.753 125.889 131.657 125.688 132.088 124.963C132.511 124.25 132.934 123.539 133.358 122.826C133.762 122.147 133.534 121.14 132.818 120.764C132.091 120.378 131.188 120.579 130.756 121.303Z" fill="white"/>
<path d="M131.293 115.571C127.811 115.867 124.328 116.163 120.848 116.458C118.93 116.621 118.911 119.638 120.848 119.473C124.331 119.177 127.814 118.881 131.293 118.585C133.211 118.426 133.228 115.409 131.293 115.571Z" fill="white"/>
<path d="M169.694 58.8419C168.21 62.854 161.985 60.836 161.985 60.836L161.689 57.6616L161.358 54.1373L161.323 53.7468L168.375 53.7358L168.598 54.5956L168.625 54.7069L169.694 58.8419Z" fill="#FAD9BD"/>
<g opacity="0.65">
<path opacity="0.65" d="M168.656 54.5985C168.656 54.5985 168.648 54.6365 168.626 54.7074C168.458 55.288 167.354 58.009 161.69 57.6615L161.359 54.1377L168.599 54.596L168.656 54.5985Z" fill="#FFDAD5"/>
</g>
<path d="M168.186 55.6463C164.296 57.5125 160.895 54.5149 160.895 54.5149C158.562 55.4426 158.098 53.4295 158.098 53.4295C158.022 52.1409 159.682 52.5074 159.682 52.5074C162.256 49.6666 163.189 46.1587 163.189 46.1587C165.869 47.8516 167.163 47.7811 167.163 47.7811C167.613 48.4186 167.99 49.0074 168.297 49.5472C168.685 50.2257 168.967 50.8303 169.165 51.3705C170.472 54.9218 168.186 55.6463 168.186 55.6463Z" fill="#FAD9BD"/>
<g opacity="0.79">
<path opacity="0.79" d="M155.86 89.9037L157.07 83.832L164.255 104.236L155.86 89.9037Z" fill="#2F6DCF"/>
</g>
<path d="M165.21 48.937C165.158 48.937 165.109 48.9044 165.09 48.8529C165.069 48.7878 165.104 48.7173 165.169 48.6929L166.84 48.1231C166.905 48.1014 166.979 48.1367 167 48.2018C167.022 48.2669 166.986 48.3374 166.922 48.3618L165.251 48.9316C165.237 48.9343 165.224 48.937 165.21 48.937Z" fill="black"/>
<path d="M161.92 50.9229C161.887 50.9229 161.852 50.9094 161.827 50.8824C161.782 50.8305 161.784 50.7521 161.836 50.7057L163.135 49.5121C163.187 49.4661 163.265 49.4688 163.311 49.5203C163.358 49.5719 163.355 49.6505 163.303 49.6966L162.004 50.8904C161.982 50.9119 161.95 50.9229 161.92 50.9229Z" fill="black"/>
<path d="M165.805 50.4612C165.748 50.2825 166.139 48.5515 167.831 48.9829C167.994 49.0398 168.092 50.7438 165.805 50.4612Z" fill="#FAD9BD"/>
<path d="M167.427 50.2461C167.86 50.008 168.04 49.5024 167.828 49.1161C167.617 48.7298 167.094 48.6093 166.66 48.847C166.227 49.0847 166.047 49.5905 166.259 49.977C166.47 50.3629 166.993 50.4838 167.427 50.2461Z" fill="black"/>
<path d="M162.392 52.3767C162.335 52.198 162.725 50.467 164.418 50.8984C164.584 50.9553 164.679 52.6618 162.392 52.3767Z" fill="#FAD9BD"/>
<path d="M164.017 52.161C164.45 51.9229 164.63 51.4171 164.418 51.0312C164.207 50.6447 163.683 50.5244 163.25 50.7621C162.817 50.9997 162.637 51.5055 162.849 51.8919C163.06 52.2778 163.583 52.3987 164.017 52.161Z" fill="black"/>
<path d="M166.106 52.3662C166.071 52.3662 166.038 52.3497 166.019 52.3172C165.989 52.2683 166.005 52.2059 166.054 52.1759C166.287 52.0351 166.401 51.8834 166.388 51.7201C166.35 51.2183 165.216 50.6517 164.782 50.4749C164.731 50.4535 164.706 50.3935 164.725 50.3421C164.747 50.2907 164.807 50.2662 164.858 50.2852C165.029 50.3556 166.532 50.9877 166.588 51.7041C166.607 51.9483 166.461 52.1655 166.157 52.3497C166.141 52.3607 166.125 52.3662 166.106 52.3662Z" fill="#FE7D6B"/>
<g opacity="0.66">
<path opacity="0.66" d="M163.543 54.4719C164.101 54.3277 164.438 53.761 164.295 53.2068C164.152 52.6526 163.582 52.3206 163.024 52.4649C162.466 52.6092 162.129 53.1758 162.272 53.73C162.416 54.2842 162.984 54.6162 163.543 54.4719Z" fill="#FE9A8C"/>
</g>
<g opacity="0.66">
<path opacity="0.66" d="M169.166 51.3761C169.054 51.4624 168.924 51.5303 168.778 51.5683C168.219 51.7121 167.649 51.3786 167.506 50.8249C167.362 50.2692 167.701 49.7047 168.26 49.5609C168.273 49.5581 168.287 49.5527 168.301 49.5527C168.688 50.2282 168.97 50.8334 169.166 51.3761Z" fill="#FE9A8C"/>
</g>
<path d="M166.404 54.1351C166.249 54.1351 166.105 54.1077 165.975 54.0562C165.595 53.9015 165.479 53.5734 165.473 53.56C165.463 53.5275 165.468 53.4946 165.487 53.4676C165.506 53.4406 165.535 53.4242 165.571 53.4272C166.976 53.4621 167.312 52.6049 167.326 52.5669C167.345 52.5155 167.405 52.488 167.456 52.507C167.508 52.526 167.535 52.5859 167.516 52.6373C167.502 52.6782 167.152 53.5949 165.739 53.6304C165.799 53.7117 165.896 53.8096 166.054 53.872C166.377 54.0023 166.835 53.9234 167.375 53.6493C167.426 53.6249 167.486 53.6438 167.51 53.6928C167.535 53.7442 167.516 53.8041 167.467 53.8286C167.065 54.0348 166.71 54.1351 166.404 54.1351Z" fill="#FE7D6B"/>
<path d="M159.425 54.1865C159.4 54.1865 159.376 54.1785 159.357 54.162C159.316 54.1241 159.311 54.0617 159.349 54.0182C159.753 53.5624 159.433 53.153 159.419 53.1365C159.384 53.0931 159.392 53.0282 159.436 52.9927C159.479 52.9573 159.544 52.9628 159.58 53.0092C159.585 53.0147 160.021 53.5709 159.504 54.154C159.482 54.1755 159.455 54.1865 159.425 54.1865Z" fill="#FE7D6B"/>
<path d="M159.931 54.3546C159.445 54.3546 159.096 54.2328 158.892 53.9936C158.57 53.6167 158.732 53.1014 158.74 53.0795C158.756 53.0251 158.814 52.9981 158.868 53.0146C158.922 53.0305 158.952 53.0875 158.933 53.1419C158.933 53.1474 158.8 53.5733 159.047 53.8638C159.278 54.1349 159.785 54.2163 160.512 54.1025C160.569 54.094 160.62 54.1319 160.628 54.1864C160.636 54.2433 160.598 54.2952 160.544 54.3032C160.319 54.3381 160.115 54.3546 159.931 54.3546Z" fill="#FE7D6B"/>
<g opacity="0.65">
<path opacity="0.65" d="M124.41 123.403L131.62 131.225L132.64 129.953L124.41 123.403Z" fill="#FE7D6B"/>
</g>
<path d="M178.96 59.6021L193.529 61.9567L219.728 40.5864L225.196 51.8944C225.196 51.8944 202.93 75.1664 200.98 75.055C199.03 74.9437 183.859 76.5254 183.859 76.5254L178.96 59.6021Z" fill="#227E91"/>
<path d="M180.833 69.6611C181.24 69.6611 181.647 69.6611 182.054 69.6611C182.843 69.6611 183.597 68.9666 183.562 68.1528C183.527 67.3365 182.9 66.6445 182.054 66.6445C181.647 66.6445 181.24 66.6445 180.833 66.6445C180.044 66.6445 179.29 67.339 179.325 68.1528C179.363 68.9721 179.987 69.6611 180.833 69.6611Z" fill="white"/>
<path d="M187.056 71.0051C187.056 71.8189 187.056 72.6327 187.056 73.4465C187.056 74.2359 187.75 74.9903 188.564 74.9548C189.38 74.9199 190.072 74.2928 190.072 73.4465C190.072 72.6327 190.072 71.8189 190.072 71.0051C190.072 70.2152 189.378 69.4613 188.564 69.4963C187.748 69.5317 187.056 70.1583 187.056 71.0051Z" fill="white"/>
<path d="M187.996 63.9342C191.178 62.1683 194.36 60.4019 197.539 58.6384C199.516 57.5425 197.745 54.507 195.768 55.6054C192.586 57.3718 189.404 59.1377 186.225 60.9011C184.248 62 186.019 65.0331 187.996 63.9342Z" fill="white"/>
<path d="M196.241 64.982C197.516 65.305 198.793 65.6275 200.068 65.948C201.95 66.4223 202.751 63.5171 200.868 63.0423C199.593 62.7193 198.315 62.3962 197.041 62.0762C195.159 61.5989 194.358 64.5046 196.241 64.982Z" fill="white"/>
<path d="M209.404 65.9179C209.976 63.8914 210.882 62.0735 212.127 60.375C213.275 58.8068 210.66 57.3015 209.526 58.8532C208.143 60.747 207.136 62.8604 206.499 65.1176C205.973 66.9868 208.878 67.7872 209.404 65.9179Z" fill="white"/>
<path d="M210.888 51.3028C209.985 50.0356 209.085 48.7688 208.181 47.5019C207.71 46.8399 206.866 46.5252 206.12 46.962C205.466 47.3445 205.105 48.3565 205.58 49.0238C206.483 50.2907 207.384 51.5579 208.287 52.8245C208.76 53.4866 209.603 53.8016 210.349 53.3647C211.003 52.9823 211.363 51.9673 210.888 51.3028Z" fill="white"/>
<path d="M219.071 56.0831C222.871 56.6013 226.671 57.119 230.474 57.6373C232.37 57.8954 233.192 54.9921 231.275 54.732C227.474 54.2138 223.674 53.6955 219.871 53.1773C217.976 52.9197 217.154 55.8224 219.071 56.0831Z" fill="white"/>
<g opacity="0.79">
<path opacity="0.79" d="M186.894 76.5251L182.369 66.2891L190.659 75.8576L186.894 76.5251Z" fill="#2B65BF"/>
</g>
<path d="M202.079 212.303C202.051 212.303 202.021 212.3 201.994 212.298L177.018 208.427C176.722 208.38 176.519 208.104 176.565 207.808C176.612 207.512 176.888 207.309 177.184 207.355L202.16 211.226C202.456 211.272 202.659 211.549 202.613 211.845C202.572 212.111 202.342 212.303 202.079 212.303Z" fill="white"/>
<path d="M172.724 108.528C172.605 108.528 172.488 108.482 172.399 108.39L171.279 107.209C171.108 107.031 171.116 106.748 171.294 106.577C171.474 106.407 171.756 106.415 171.927 106.594L173.047 107.774C173.218 107.953 173.21 108.235 173.03 108.406C172.947 108.487 172.835 108.528 172.724 108.528Z" fill="white"/>
<path d="M186.278 199.706C186.267 199.706 186.259 199.706 186.248 199.706C186.001 199.69 185.814 199.479 185.831 199.232L186.045 195.962C186.061 195.716 186.27 195.529 186.52 195.545C186.766 195.561 186.953 195.773 186.937 196.02L186.723 199.289C186.709 199.525 186.511 199.706 186.278 199.706ZM186.707 193.168C186.696 193.168 186.687 193.168 186.677 193.168C186.43 193.152 186.243 192.94 186.259 192.694L186.473 189.424C186.49 189.177 186.698 188.99 186.948 189.007C187.195 189.023 187.382 189.234 187.366 189.481L187.151 192.751C187.135 192.986 186.94 193.168 186.707 193.168ZM187.132 186.63C187.122 186.63 187.113 186.63 187.103 186.63C186.856 186.614 186.668 186.402 186.685 186.155L186.899 182.886C186.916 182.639 187.124 182.452 187.374 182.468C187.621 182.485 187.808 182.696 187.792 182.943L187.577 186.212C187.561 186.451 187.366 186.63 187.132 186.63ZM187.558 180.094C187.548 180.094 187.539 180.094 187.529 180.094C187.282 180.078 187.094 179.866 187.111 179.619L187.325 176.35C187.341 176.103 187.553 175.916 187.8 175.933C188.046 175.949 188.234 176.16 188.218 176.408L188.003 179.676C187.987 179.912 187.792 180.094 187.558 180.094ZM187.984 173.556C187.973 173.556 187.965 173.556 187.955 173.556C187.707 173.54 187.52 173.328 187.537 173.081L187.751 169.812C187.767 169.565 187.976 169.378 188.226 169.394C188.472 169.41 188.659 169.622 188.644 169.869L188.429 173.138C188.415 173.374 188.218 173.556 187.984 173.556ZM188.41 167.02C188.399 167.02 188.391 167.02 188.38 167.02C188.133 167.004 187.946 166.793 187.963 166.545L188.177 163.276C188.193 163.03 188.402 162.842 188.652 162.858C188.898 162.875 189.085 163.086 189.069 163.333L188.855 166.602C188.841 166.839 188.644 167.02 188.41 167.02ZM188.839 160.482C188.828 160.482 188.82 160.482 188.809 160.482C188.562 160.466 188.375 160.254 188.391 160.007L188.605 156.738C188.622 156.491 188.83 156.304 189.08 156.32C189.327 156.336 189.514 156.548 189.498 156.795L189.284 160.064C189.267 160.3 189.072 160.482 188.839 160.482ZM189.265 153.943C189.254 153.943 189.246 153.943 189.235 153.943C188.988 153.927 188.801 153.716 188.817 153.469L189.031 150.2C189.047 149.953 189.259 149.765 189.506 149.782C189.753 149.798 189.94 150.01 189.924 150.257L189.709 153.526C189.693 153.765 189.498 153.943 189.265 153.943ZM189.69 147.408C189.679 147.408 189.672 147.408 189.661 147.408C189.413 147.392 189.227 147.18 189.243 146.933L189.457 143.664C189.473 143.417 189.682 143.23 189.932 143.246C190.179 143.262 190.365 143.474 190.35 143.721L190.135 146.99C190.119 147.226 189.924 147.408 189.69 147.408ZM190.116 140.869C190.105 140.869 190.097 140.869 190.086 140.869C189.839 140.854 189.653 140.642 189.669 140.395L189.883 137.125C189.899 136.879 190.108 136.694 190.358 136.708C190.604 136.724 190.791 136.936 190.775 137.183L190.561 140.452C190.547 140.688 190.35 140.869 190.116 140.869ZM190.542 134.334C190.531 134.334 190.523 134.334 190.512 134.334C190.265 134.318 190.078 134.106 190.094 133.859L190.309 130.59C190.325 130.343 190.534 130.159 190.783 130.172C191.03 130.189 191.217 130.4 191.201 130.647L190.987 133.916C190.973 134.152 190.775 134.334 190.542 134.334ZM190.333 127.847C190.154 127.847 189.983 127.739 189.916 127.559C189.612 126.77 189.164 126.059 188.584 125.446L188.18 125.02C188.008 124.841 188.017 124.559 188.196 124.388C188.375 124.22 188.657 124.225 188.828 124.405L189.232 124.83C189.894 125.53 190.406 126.339 190.751 127.237C190.84 127.468 190.724 127.725 190.493 127.815C190.442 127.837 190.387 127.847 190.333 127.847ZM186.251 122.785C186.132 122.785 186.015 122.738 185.925 122.646L183.671 120.27C183.501 120.091 183.509 119.809 183.688 119.638C183.866 119.467 184.149 119.475 184.32 119.654L186.574 122.031C186.745 122.21 186.736 122.492 186.558 122.663C186.471 122.744 186.359 122.785 186.251 122.785ZM181.743 118.034C181.623 118.034 181.507 117.988 181.417 117.896L179.163 115.519C178.993 115.34 179.001 115.058 179.179 114.887C179.359 114.716 179.641 114.724 179.811 114.903L182.066 117.28C182.236 117.459 182.228 117.741 182.049 117.912C181.962 117.991 181.851 118.034 181.743 118.034ZM177.232 113.281C177.113 113.281 176.996 113.235 176.907 113.143L174.652 110.766C174.482 110.587 174.49 110.305 174.669 110.134C174.848 109.963 175.13 109.971 175.301 110.15L177.555 112.527C177.725 112.706 177.717 112.988 177.539 113.159C177.454 113.24 177.343 113.281 177.232 113.281Z" fill="white"/>
<path d="M185.961 204.601C185.95 204.601 185.942 204.601 185.931 204.601C185.684 204.585 185.497 204.373 185.513 204.126L185.619 202.501C185.635 202.255 185.847 202.064 186.093 202.083C186.34 202.1 186.527 202.312 186.511 202.558L186.405 204.183C186.389 204.419 186.194 204.601 185.961 204.601Z" fill="white"/>
<path d="M177.102 113.238C176.98 113.238 176.858 113.197 176.755 113.113C176.525 112.921 176.492 112.579 176.684 112.348C180.36 107.921 178.065 101.407 178.043 101.341C177.94 101.059 178.087 100.75 178.369 100.647C178.651 100.546 178.96 100.69 179.063 100.972C179.169 101.263 181.597 108.129 177.52 113.043C177.411 113.17 177.257 113.238 177.102 113.238Z" fill="white"/>
<path d="M297.782 3.42615C296.388 3.64591 294.774 3.55367 293.453 4.12611C293.458 4.12339 293.464 4.11797 293.469 4.11525C294.571 3.46142 295.815 2.95138 297.055 2.72077C298.021 2.539 297.812 1.40496 296.843 1.58673C295.585 1.82277 294.185 1.71967 293.032 2.30297C292.555 2.54443 292.086 2.85099 291.692 3.21454C292.582 2.36537 293.751 1.84447 294.907 1.54061C295.853 1.29101 295.609 0.165118 294.655 0.417428C293.515 0.715859 292.3 0.707721 291.307 1.33714C291.424 1.19606 291.538 1.05498 291.657 0.916621C292.3 0.170544 291.4 -0.391048 290.765 0.344177C289.68 1.60301 288.296 2.65023 287.374 4.03386C287.32 4.11525 287.287 4.19665 287.268 4.27532L287.249 4.27261L285.742 5.6101L259.748 31.6903L256.04 34.0316L260.939 46.6525L264.424 45.1603C265.862 44.5445 267.104 43.5488 268.021 42.2791L291.096 10.2819C291.096 10.2819 291.671 9.68235 291.777 9.544C292.496 8.60797 293.629 8.25529 294.79 8.12508C295.767 8.01384 295.919 7.02633 294.603 6.99378C293.833 6.97476 292.987 6.96392 292.341 7.33558C292.832 6.78758 293.331 6.25581 293.944 5.87057C295.246 5.05666 296.795 5.03225 298.23 4.51136C299.149 4.17223 298.772 3.2688 297.782 3.42615Z" fill="#FAD9BD"/>
<path d="M243.628 186.972L239.842 196.91L229.07 192.94L233.057 180.604L243.628 186.972Z" fill="#FCC4AC"/>
<path d="M218.674 45.2637C218.674 45.2637 207.927 49.1595 204.401 53.4353C200.875 57.711 202.364 86.5938 202.364 86.5938L216.471 83.368L219.677 94.293L250.947 81.5801L245.46 55.4728L264.62 45.5024L257.367 32.3145C257.367 32.3145 244.754 35.8658 234.984 40.0194L218.674 45.2637Z" fill="#FFA60A"/>
<path d="M261.1 47.781C260.937 47.781 260.779 47.6915 260.701 47.5341L253.499 33.2285C253.388 33.0087 253.477 32.7401 253.697 32.6289C253.917 32.5177 254.185 32.6072 254.296 32.827L261.498 47.1326C261.609 47.3524 261.52 47.621 261.3 47.7322C261.235 47.7675 261.167 47.781 261.1 47.781Z" fill="#FDFDFF"/>
<path d="M202.204 83.0012C201.997 83.0012 201.81 82.8574 201.767 82.6457C201.715 82.4045 201.87 82.1684 202.111 82.1169L216.012 79.1897C216.254 79.1378 216.49 79.2926 216.542 79.5342C216.593 79.7754 216.438 80.0115 216.197 80.0629L202.295 82.9907C202.263 82.9987 202.233 83.0012 202.204 83.0012Z" fill="#FDFDFF"/>
<path d="M219.804 47.7973C216.986 47.7973 214.93 47.1951 214.881 47.1815C214.645 47.1109 214.512 46.8614 214.582 46.6253C214.653 46.3893 214.902 46.2563 215.139 46.3269C215.247 46.3594 226.175 49.5391 231.853 40.6648C231.986 40.4559 232.262 40.3963 232.471 40.5292C232.68 40.6621 232.74 40.9389 232.607 41.1478C229.094 46.6389 223.715 47.7973 219.804 47.7973Z" fill="#FDFDFF"/>
<path d="M221.089 27.4388C221.089 27.4388 217.172 26.3563 215.659 28.6081C214.145 30.8599 214.197 33.8659 211.536 34.9837C208.875 36.1014 208.457 38.4699 208.457 38.4699C208.457 38.4699 213.885 47.5557 226.132 40.9008C226.132 40.9008 228.809 40.6511 228.882 38.8198C228.882 38.8198 227.013 33.3776 225.568 32.0943C224.119 30.8111 223.34 27.6966 221.089 27.4388Z" fill="#6E000E"/>
<path d="M219.216 35.7217C219.216 35.7217 220.732 42.0511 218.673 45.2633C219.058 45.8575 225.606 45.9199 228.698 42.0403L225.435 36.1151L219.216 35.7217Z" fill="#FCC4AC"/>
<g opacity="0.59">
<g opacity="0.59">
<path opacity="0.59" d="M225.799 36.7988C225.799 36.7988 224.998 39.5552 219.647 38.4238L219.216 35.7217L225.799 36.7988Z" fill="#FE7D6B"/>
</g>
</g>
<path d="M219.272 35.8602C219.272 35.8602 222.81 39.2351 226.203 36.4977C226.203 36.4977 228.093 34.7885 226.499 32.0619C226.198 31.5492 225.774 31.0012 225.191 30.4151C224.269 29.4954 222.95 28.497 221.093 27.439C221.093 27.439 220.114 28.9609 220.097 29.8779C220.081 30.795 219.511 33.0522 218.567 33.4483C218.567 33.4483 217.303 33.2665 217.113 34.2567C217.108 34.2567 217.225 36.3512 219.272 35.8602Z" fill="#FCC4AC"/>
<path d="M222.053 29.8669C222.012 29.8669 221.972 29.8479 221.947 29.8127C221.906 29.7557 221.92 29.6743 221.98 29.6336L223.453 28.6054C223.509 28.5647 223.591 28.5782 223.632 28.6379C223.672 28.6976 223.659 28.7763 223.599 28.817L222.126 29.8452C222.105 29.8588 222.08 29.8669 222.053 29.8669Z" fill="#610008"/>
<path d="M219.017 32.5827C218.976 32.5827 218.935 32.5638 218.911 32.5285C218.87 32.4715 218.884 32.3901 218.943 32.3494L220.416 31.3212C220.474 31.2805 220.555 31.2941 220.595 31.3537C220.636 31.4108 220.622 31.4921 220.563 31.5328L219.09 32.561C219.068 32.5746 219.041 32.5827 219.017 32.5827Z" fill="#610008"/>
<path d="M222.579 31.3291C222.495 31.1555 222.631 29.3432 224.402 29.5358C224.575 29.5711 224.928 31.2884 222.579 31.3291Z" fill="white"/>
<path d="M224.479 30.826C224.876 30.5161 224.972 29.9758 224.694 29.6191C224.415 29.2625 223.868 29.2245 223.471 29.5344C223.074 29.8443 222.979 30.3846 223.257 30.7413C223.535 31.0979 224.083 31.1358 224.479 30.826Z" fill="#79020E"/>
<path d="M219.79 33.9179C219.706 33.7443 219.841 31.932 221.613 32.1247C221.787 32.1572 222.139 33.8746 219.79 33.9179Z" fill="white"/>
<path d="M221.693 33.4129C222.09 33.1031 222.186 32.5627 221.907 32.206C221.629 31.8494 221.082 31.8115 220.685 32.1213C220.288 32.4312 220.192 32.9715 220.471 33.3282C220.749 33.6849 221.297 33.7228 221.693 33.4129Z" fill="#79020E"/>
<path d="M224.141 33.4103C224.112 33.4103 224.082 33.3968 224.06 33.3724C224.025 33.329 224.03 33.2611 224.074 33.2259C224.266 33.0658 224.347 32.9139 224.312 32.7728C224.185 32.2519 222.715 31.8314 222.159 31.7147C222.102 31.7039 222.066 31.6469 222.077 31.5927C222.088 31.5357 222.145 31.5004 222.199 31.5112C222.416 31.5574 224.331 31.9833 224.51 32.724C224.565 32.9519 224.461 33.1743 224.201 33.3886C224.188 33.4022 224.166 33.4103 224.141 33.4103Z" fill="#FE7D6B"/>
<g opacity="0.66">
<path opacity="0.66" d="M220.957 36.2183C221.545 36.2183 222.021 35.7421 222.021 35.1548C222.021 34.5675 221.545 34.0913 220.957 34.0913C220.37 34.0913 219.895 34.5675 219.895 35.1548C219.895 35.7421 220.37 36.2183 220.957 36.2183Z" fill="#FE9A8C"/>
</g>
<g opacity="0.66">
<path opacity="0.66" d="M224.731 31.7496C224.96 32.2922 225.583 32.5472 226.126 32.3166C226.27 32.2569 226.395 32.1674 226.492 32.0589C226.191 31.5461 225.768 30.9981 225.185 30.4121C224.726 30.678 224.523 31.2504 224.731 31.7496Z" fill="#FE9A8C"/>
</g>
<path d="M224.778 35.2146C223.875 35.2146 223.636 34.6231 223.622 34.5906C223.612 34.558 223.614 34.5227 223.633 34.4929C223.652 34.4658 223.688 34.4414 223.72 34.4495C225.153 34.4549 225.475 33.5732 225.489 33.5352C225.508 33.481 225.568 33.4511 225.621 33.4701C225.676 33.4891 225.706 33.5461 225.687 33.6003C225.673 33.641 225.337 34.5878 223.904 34.6529C224.07 34.8591 224.518 35.1874 225.559 34.8754C225.613 34.8591 225.673 34.889 225.689 34.946C225.706 35.0002 225.676 35.0599 225.619 35.0762C225.291 35.1739 225.011 35.2146 224.778 35.2146Z" fill="#FE7D6B"/>
<path d="M215.022 63.562L214.577 63.6055L216.343 81.6116L216.788 81.5682L215.022 63.562Z" fill="#C98408"/>
<path d="M219.679 94.2928C219.679 94.2928 218.523 99.8981 225.248 109.158C232.341 118.927 245.198 120.365 245.198 120.365L226.026 185.971L242.822 190.96C242.822 190.96 272.173 114.291 270.744 107.942C269.314 101.594 237.972 86.8921 237.972 86.8921L219.679 94.2928Z" fill="#A9D2CE"/>
<path d="M216.137 118.216L215.358 117.779C220.054 109.426 230.635 104.752 239.971 106.906C242.288 107.441 244.583 108.352 246.801 109.231C251.185 110.97 255.324 112.614 259.626 111.615C262.186 111.021 264.668 109.481 267.218 106.903C270.492 103.591 273.02 99.5077 274.525 95.0991L275.372 95.3867C273.823 99.9226 271.224 104.122 267.855 107.53C265.184 110.232 262.558 111.855 259.829 112.487C255.253 113.545 250.791 111.773 246.473 110.061C244.284 109.193 242.022 108.295 239.771 107.774C230.806 105.71 220.645 110.197 216.137 118.216Z" fill="#E0FFFC"/>
<path d="M242.902 101.406C240.238 101.406 237.398 100.446 235.67 98.0478C233.471 94.9932 234.002 90.9207 234.835 88.0424C235.654 85.2155 236.902 83.525 238.656 82.877L238.966 83.7152C237.496 84.2574 236.427 85.7552 235.692 88.292C234.913 90.9806 234.403 94.7651 236.394 97.527C238.141 99.9495 241.759 101.07 245.196 100.248C247.974 99.5835 250.632 97.893 253.564 94.9223C254.508 93.9677 255.425 92.9447 256.309 91.9547C257.682 90.4214 259.103 88.8347 260.676 87.4373L261.27 88.1048C259.735 89.4693 258.333 91.0345 256.977 92.5488C256.084 93.5469 255.159 94.5778 254.202 95.5494C251.147 98.6419 248.354 100.411 245.405 101.116C244.619 101.306 243.769 101.406 242.902 101.406Z" fill="#E0FFFC"/>
<path d="M230.898 169.628C229.68 169.628 228.462 169.489 227.266 169.156C221.242 167.471 217.96 161.492 216.541 158.076C214.876 154.069 214.349 150.599 214.932 147.471C216.278 140.273 223.382 135.97 229.056 134.47C233.554 133.282 238.273 133.146 242.839 133.016C244.791 132.959 246.812 132.902 248.784 132.761C256.995 132.175 262.781 129.948 266.472 125.949C269.526 122.641 271.01 118.268 272.502 113.312L273.357 113.569C271.832 118.634 270.31 123.108 267.129 126.556C263.274 130.732 257.296 133.051 248.846 133.653C246.858 133.795 244.827 133.854 242.863 133.911C238.349 134.041 233.684 134.177 229.285 135.338C223.862 136.771 217.081 140.848 215.812 147.636C215.261 150.588 215.768 153.89 217.366 157.734C218.722 160.998 221.844 166.711 227.508 168.296C231.653 169.457 236.223 168.068 239.895 166.95L258.164 161.399C260.304 160.748 263.233 159.858 265.846 160.775C267.351 161.304 268.617 162.658 269.076 164.224C269.426 165.42 269.239 166.562 268.55 167.444L267.847 166.893C268.354 166.248 268.485 165.387 268.219 164.476C267.845 163.196 266.773 162.048 265.55 161.619C263.391 160.86 261.045 161.459 258.424 162.254L240.156 167.805C237.4 168.643 234.153 169.628 230.898 169.628Z" fill="#E0FFFC"/>
<path d="M267.09 153.689C264.042 149.19 259.276 148.2 252.093 150.574C248.89 151.632 244.425 152.539 241.341 150.84C239.809 149.996 238.786 148.596 238.303 146.679C237.831 144.806 238.078 143.304 239.033 142.213C241.542 139.353 248.41 140.156 252.514 140.634C253.289 140.723 253.957 140.802 254.483 140.843C262.485 141.472 266.391 140.884 267.646 132.815L268.531 132.953C267.118 142.042 262.024 142.332 254.415 141.735C253.873 141.692 253.195 141.613 252.411 141.521C248.48 141.062 241.903 140.294 239.705 142.801C238.946 143.67 238.77 144.866 239.171 146.458C239.591 148.127 240.465 149.337 241.772 150.056C244.723 151.678 249.329 150.545 251.814 149.725C256.61 148.144 263.483 146.779 267.831 153.187L267.09 153.689Z" fill="#E0FFFC"/>
<path d="M230.654 193.88C229.91 193.88 229.172 193.708 228.483 193.318L228.923 192.539C231.096 193.768 233.914 192.303 235.46 190.304C236.309 189.205 236.958 187.919 237.581 186.674C238.162 185.521 238.761 184.327 239.534 183.25C241.077 181.096 243.258 179.473 245.181 178.041C249.128 175.103 253.153 172.151 257.151 169.264L257.675 169.989C253.683 172.873 249.657 175.825 245.716 178.757C243.844 180.152 241.723 181.73 240.261 183.771C239.529 184.791 238.946 185.955 238.381 187.078C237.736 188.359 237.071 189.685 236.168 190.852C234.858 192.542 232.729 193.88 230.654 193.88Z" fill="#E0FFFC"/>
<path d="M229.069 192.94L227.233 198.081L224.827 204.015L247.88 217.265C248.805 217.797 249.839 216.747 249.266 215.849C248.536 214.701 240.057 208.027 239.165 205.949C239.165 205.949 238.37 202.707 239.838 196.91L229.069 192.94Z" fill="#009FA3"/>
<g opacity="0.7">
<g opacity="0.7">
<path opacity="0.7" d="M245.459 55.4725L243.275 47.4883L248.784 53.7415L245.459 55.4725Z" fill="#D98D08"/>
</g>
</g>
<path d="M218.735 35.6569C218.377 35.6569 218.057 35.524 217.797 35.2717C217.488 34.9678 217.357 34.5853 217.368 34.4198C217.384 34.1458 217.677 33.8609 217.71 33.831C217.751 33.7931 217.818 33.7931 217.856 33.8365C217.894 33.8772 217.894 33.945 217.851 33.983C217.778 34.0535 217.582 34.2678 217.574 34.4334C217.569 34.5256 217.666 34.8566 217.94 35.1251C218.185 35.3639 218.483 35.4724 218.83 35.448C218.887 35.4426 218.938 35.486 218.941 35.543C218.946 35.5999 218.903 35.6515 218.846 35.6542C218.811 35.6542 218.773 35.6569 218.735 35.6569Z" fill="#FE7D6B"/>
<path d="M217.832 35.0788C217.794 35.0788 217.759 35.0571 217.74 35.0219C217.713 34.9703 217.732 34.9079 217.783 34.8808C217.789 34.8781 218.407 34.5498 218.336 34.1211C218.328 34.0642 218.366 34.0099 218.423 34.0018C218.478 33.9909 218.535 34.0316 218.543 34.0886C218.637 34.6637 217.911 35.049 217.878 35.0652C217.865 35.0761 217.848 35.0788 217.832 35.0788Z" fill="#FE7D6B"/>
<path d="M261.235 100.21C261.037 99.8956 260.828 99.616 260.611 99.3688C260.98 99.0109 261.099 98.2919 260.576 97.9584C259.711 97.4077 258.677 96.9868 257.644 96.7646C257.896 96.3792 257.754 95.7227 257.226 95.5464C256.065 95.156 254.912 94.7436 253.705 94.7676L248.6 95.1126L216.843 88.9186L216.479 83.3652L205.041 85.9804L206.422 95.9858C207.086 98.3139 208.553 100.055 210.376 100.655C211.158 100.913 211.982 101.119 212.69 101.16L248.009 101.133L252.49 102.196C252.588 102.28 255.221 102.541 256.594 103.069C257.5 103.419 257.975 102.231 257.131 101.716C256.762 101.491 256.387 101.301 256.005 101.135C257.014 101.249 257.994 101.502 258.872 102.066C259.721 102.611 260.342 101.455 259.564 100.761C259.079 100.329 258.566 100.015 258.034 99.7812C258.926 99.944 259.746 100.373 260.351 101.333C260.944 102.288 261.834 101.168 261.235 100.21Z" fill="#FFCA9D"/>
<g opacity="0.59">
<g opacity="0.59">
<path opacity="0.59" d="M242.227 190.727L230.04 190.033L230.856 187.409L242.227 190.727Z" fill="#FE7D6B"/>
</g>
</g>
<path d="M272.051 194.257L273.046 199.625L273.947 205.963L300.537 205.83C301.603 205.825 301.97 204.398 301.025 203.909C299.819 203.282 289.134 201.774 287.317 200.429C287.317 200.429 285 198.028 283.357 192.273L272.051 194.257Z" fill="#009FA3"/>
<g opacity="0.59">
<g opacity="0.59">
<path opacity="0.59" d="M282.699 179.758L270.976 186.174L270.521 182.737L282.699 179.758Z" fill="#FE7D6B"/>
</g>
</g>
<g opacity="0.59">
<g opacity="0.59">
<path opacity="0.59" d="M216.836 88.9186L212.273 89.1652L216.703 86.8945L216.836 88.9186Z" fill="#FE7D6B"/>
</g>
</g>
<path d="M260.61 99.4724C260.594 99.4724 260.575 99.4669 260.559 99.4589C260.526 99.4399 257.114 97.5187 254.73 97.6276C254.659 97.63 254.624 97.5841 254.621 97.5272C254.618 97.4703 254.662 97.4214 254.722 97.4184C257.174 97.3125 260.521 99.1983 260.662 99.2771C260.71 99.3041 260.729 99.369 260.7 99.4179C260.681 99.4534 260.645 99.4724 260.61 99.4724Z" fill="#FE7D6B"/>
<path d="M258.028 99.8818C258.017 99.8818 258.007 99.8793 257.993 99.8763C257.969 99.8683 255.59 99.052 254.282 99.4669C254.228 99.4858 254.168 99.4534 254.152 99.399C254.136 99.3445 254.166 99.2851 254.22 99.2687C255.592 98.8318 257.963 99.6461 258.064 99.6786C258.117 99.6975 258.147 99.7569 258.128 99.8114C258.109 99.8573 258.069 99.8818 258.028 99.8818Z" fill="#FE7D6B"/>
<path d="M257.64 96.8698C257.632 96.8698 257.621 96.8698 257.613 96.8673C257.595 96.8618 255.859 96.379 255.267 96.379C255.21 96.379 255.164 96.3331 255.164 96.2757C255.164 96.2188 255.21 96.1729 255.267 96.1729C255.886 96.1729 257.595 96.6477 257.668 96.6691C257.722 96.6856 257.754 96.7425 257.741 96.7969C257.727 96.8404 257.687 96.8698 257.64 96.8698Z" fill="#FE7D6B"/>
<path d="M255.999 101.238C255.991 101.238 255.985 101.238 255.977 101.236L254.228 100.872C254.171 100.861 254.136 100.804 254.147 100.75C254.157 100.693 254.211 100.658 254.268 100.668L256.018 101.032C256.075 101.043 256.11 101.1 256.099 101.154C256.091 101.203 256.048 101.238 255.999 101.238Z" fill="#FE7D6B"/>
</g>
</svg>
