<svg width="26" height="20" viewBox="0 0 26 20" fill="none" xmlns="http://www.w3.org/2000/svg">
<g clip-path="url(#clip0_106_9385)">
<path d="M9.01815 19.2915C8.80149 19.2915 8.59836 19.2565 8.40877 19.1865C8.2192 19.1177 8.04315 18.9998 7.88065 18.8332L0.893156 11.6665C0.595238 11.361 0.452781 10.9648 0.465781 10.4782C0.479863 9.99262 0.635863 9.59707 0.93378 9.2915C1.2317 8.98595 1.61086 8.83317 2.07127 8.83317C2.5317 8.83317 2.91086 8.98595 3.20877 9.2915L9.01815 15.2498L22.79 1.12484C23.088 0.819282 23.4741 0.666504 23.9486 0.666504C24.4221 0.666504 24.8077 0.819282 25.1056 1.12484C25.4036 1.43039 25.5525 1.82595 25.5525 2.3115C25.5525 2.79817 25.4036 3.19428 25.1056 3.49983L10.1556 18.8332C9.99315 18.9998 9.81711 19.1177 9.62752 19.1865C9.43795 19.2565 9.23483 19.2915 9.01815 19.2915Z" fill="#86D0DA"/>
</g>
<defs>
<clipPath id="clip0_106_9385">
<rect width="26" height="20" fill="white"/>
</clipPath>
</defs>
</svg>
