<svg width="101" height="101" viewBox="0 0 101 101" fill="none" xmlns="http://www.w3.org/2000/svg">
<circle cx="38" cy="51" r="34" fill="#FAD9BD"/>
<g clip-path="url(#clip0_498_18)">
<path d="M95.3899 43.9667V76.9067C95.3899 78.7632 94.6524 80.5437 93.3396 81.8564C92.0269 83.1692 90.2464 83.9067 88.3899 83.9067H42.6299C40.7734 83.9067 38.9929 83.1692 37.6801 81.8564C36.3674 80.5437 35.6299 78.7632 35.6299 76.9067V43.9667C35.6299 43.7767 35.6299 43.5867 35.6299 43.3867C35.7668 45.1426 36.5662 46.7807 37.866 47.9691C39.1658 49.1575 40.8688 49.8073 42.6299 49.7867H88.4399C90.1825 49.7903 91.8628 49.1381 93.1467 47.9598C94.4306 46.7815 95.2242 45.1633 95.3699 43.4267C95.3799 43.5867 95.3899 43.7867 95.3899 43.9667Z" stroke="#020202" stroke-width="1.5" stroke-linecap="round" stroke-linejoin="round"/>
<path d="M95.3899 42.7867C95.3899 42.9867 95.3899 43.1867 95.3899 43.3767C95.256 45.1256 94.4648 46.759 93.1753 47.9482C91.8859 49.1375 90.194 49.7943 88.4399 49.7867H42.63C40.8809 49.7895 39.1953 49.1317 37.9104 47.9451C36.6255 46.7584 35.836 45.1304 35.7 43.3867C35.7 43.1967 35.7 42.9967 35.7 42.7967C35.7158 40.9506 36.4603 39.1855 37.7713 37.8857C39.0823 36.5859 40.8538 35.8566 42.7 35.8567H88.4399C90.2757 35.8697 92.0329 36.6034 93.3329 37.8996C94.6329 39.1959 95.3716 40.951 95.3899 42.7867Z" stroke="#020202" stroke-width="1.5" stroke-linecap="round" stroke-linejoin="round"/>
<path d="M89.5999 42.4067H80.8599" stroke="#020202" stroke-width="1.5" stroke-linecap="round" stroke-linejoin="round"/>
<path d="M60.6799 56.5466H65.4999" stroke="#020202" stroke-width="1.5" stroke-linecap="round" stroke-linejoin="round"/>
<path d="M60.5498 60.5666H79.4198" stroke="#020202" stroke-width="1.5" stroke-linecap="round" stroke-linejoin="round"/>
<path d="M61.48 69.3366H66.7" stroke="#020202" stroke-width="1.5" stroke-linecap="round" stroke-linejoin="round"/>
<path d="M61.48 73.3467H77.55" stroke="#020202" stroke-width="1.5" stroke-linecap="round" stroke-linejoin="round"/>
<path d="M44.9999 61.3966C44.4399 61.3966 43.4799 61.2866 43.4799 62.1666C43.4799 62.6166 43.8199 62.7866 44.2099 62.9466L50.9999 66.0266C51.8011 66.285 52.4949 66.8002 52.9739 67.4925C53.453 68.1849 53.6905 69.0157 53.6499 69.8566C53.6499 72.5866 51.7899 73.8566 49.1999 73.8566H44.9999C43.8068 74.0028 42.6019 73.6999 41.6199 73.0066C41.1099 72.6166 40.3799 72.1066 40.3799 71.4266C40.3838 71.2454 40.4234 71.0667 40.4963 70.9008C40.5693 70.7348 40.6743 70.5849 40.8052 70.4595C40.9361 70.3341 41.0905 70.2358 41.2595 70.1701C41.4284 70.1044 41.6087 70.0726 41.7899 70.0766C41.9817 70.0779 42.1708 70.1216 42.3437 70.2046C42.5165 70.2876 42.6689 70.4078 42.7899 70.5566C43.0932 70.796 43.4418 70.9716 43.8147 71.073C44.1876 71.1744 44.5771 71.1994 44.9599 71.1466H48.6999C49.6999 71.1466 50.9599 71.2366 50.9599 69.6566C50.9599 69.0066 50.1699 68.5866 49.5499 68.3066L43.1799 65.3966C42.4778 65.1856 41.8649 64.7488 41.4364 64.1539C41.0079 63.5591 40.7877 62.8394 40.8099 62.1066C40.8098 61.6308 40.9082 61.16 41.0988 60.724C41.2894 60.288 41.5682 59.8961 41.9176 59.5731C42.2669 59.25 42.6794 59.0027 43.1289 58.8467C43.5785 58.6907 44.0555 58.6294 44.5299 58.6666H49.1499C49.7078 58.5856 50.2767 58.6267 50.8172 58.7873C51.3576 58.9479 51.8567 59.224 52.2799 59.5966C52.7899 60.0166 53.3499 60.3566 53.3499 61.1166C53.35 61.4775 53.2087 61.824 52.9564 62.082C52.704 62.3399 52.3607 62.4888 51.9999 62.4966C51.7775 62.5014 51.5572 62.453 51.3572 62.3556C51.1572 62.2583 50.9833 62.1146 50.8499 61.9366C50.6309 61.7256 50.3667 61.5672 50.0773 61.4736C49.7879 61.3801 49.481 61.3537 49.1799 61.3966H44.9999Z" stroke="#020202" stroke-width="1.5" stroke-linecap="round" stroke-linejoin="round"/>
<path d="M47.0398 56.5466V75.9266" stroke="#020202" stroke-width="1.5" stroke-linecap="round" stroke-linejoin="round"/>
<path d="M53.6599 39.0366H41.4199V46.1066H53.6599V39.0366Z" stroke="#020202" stroke-width="1.5" stroke-linecap="round" stroke-linejoin="round"/>
</g>
<defs>
<clipPath id="clip0_498_18">
<rect width="61" height="50" fill="white" transform="translate(35 34.7866)"/>
</clipPath>
</defs>
</svg>
