<svg width="99" height="99" viewBox="0 0 99 99" fill="none" xmlns="http://www.w3.org/2000/svg">
<circle cx="41" cy="46" r="34" fill="#C9F3EE"/>
<path d="M76.3347 32.3739H15.6775C13.0659 32.3739 10.9487 34.491 10.9487 37.1027V77.6871C10.9487 80.2987 13.0659 82.4158 15.6775 82.4158H76.3347C78.9463 82.4158 81.0634 80.2987 81.0634 77.6871V37.1027C81.0634 34.491 78.9463 32.3739 76.3347 32.3739Z" stroke="#020202" stroke-width="1.5" stroke-linecap="round" stroke-linejoin="round"/>
<path d="M29.023 73.6287C35.0808 73.6287 39.9917 68.7179 39.9917 62.66C39.9917 56.6021 35.0808 51.6912 29.023 51.6912C22.9651 51.6912 18.0542 56.6021 18.0542 62.66C18.0542 68.7179 22.9651 73.6287 29.023 73.6287Z" stroke="#020202" stroke-width="1.5" stroke-linecap="round" stroke-linejoin="round"/>
<path d="M28.5841 39.4915H63.416" stroke="#020202" stroke-width="1.5" stroke-linecap="round" stroke-linejoin="round"/>
<path d="M38.7974 43.1478H53.203" stroke="#020202" stroke-width="1.5" stroke-linecap="round" stroke-linejoin="round"/>
<path d="M50.4604 52.91H74.1164" stroke="#020202" stroke-width="1.5" stroke-linecap="round" stroke-linejoin="round"/>
<path d="M50.4604 59.2352H62.2823" stroke="#020202" stroke-width="1.5" stroke-linecap="round" stroke-linejoin="round"/>
<path d="M50.4604 65.5727H71.9592" stroke="#020202" stroke-width="1.5" stroke-linecap="round" stroke-linejoin="round"/>
<path d="M50.4604 71.8979H57.5536" stroke="#020202" stroke-width="1.5" stroke-linecap="round" stroke-linejoin="round"/>
</svg>
