<svg width="94" height="94" viewBox="0 0 94 94" fill="none" xmlns="http://www.w3.org/2000/svg">
<circle cx="57" cy="48.2134" r="34" fill="#B1CEFC"/>
<g clip-path="url(#clip0_498_8)">
<path d="M43.4809 21C28.3271 21 16 33.3287 16 48.4809C16 54.8476 18.1822 60.7107 21.8286 65.3748C21.8646 65.4409 21.9081 65.499 21.965 65.5473C25.2053 69.6236 29.5741 72.759 34.5979 74.4813C34.6279 74.4959 34.6623 74.5035 34.6953 74.5141C35.9752 74.947 37.2956 75.2877 38.652 75.529C38.694 75.5378 38.7344 75.5542 38.7794 75.5542C38.7824 75.5542 38.7854 75.5529 38.7884 75.5529C40.3141 75.8164 41.8803 75.9619 43.4809 75.9619C46.7122 75.9619 49.8116 75.3968 52.6937 74.3686C52.7057 74.3642 52.7177 74.3611 52.7282 74.3567C57.8089 72.5359 62.2018 69.2594 65.4015 65.0315C65.4211 65.0136 65.4344 64.9896 65.4525 64.9686C68.9087 60.372 70.9619 54.6618 70.9619 48.4809C70.9619 33.3287 58.6332 21 43.4809 21ZM43.4809 22.2215C57.9603 22.2215 69.7403 34.0016 69.7403 48.4809C69.7403 53.6831 68.2132 58.533 65.5936 62.6171V58.1553C65.5936 56.1485 63.9644 54.5179 61.9618 54.5179H52.7956C52.4854 54.5179 52.1811 54.5583 51.8859 54.6348V53.2125C51.8859 51.2072 50.2583 49.575 48.256 49.575H39.0881C37.0873 49.575 35.4582 51.2072 35.4582 53.2125V54.6348C35.1629 54.5598 34.8587 54.5179 34.5484 54.5179H25.3821C23.3798 54.5179 21.7507 56.1485 21.7507 58.1553V63.2076C18.8941 59.0051 17.2215 53.9348 17.2215 48.4809C17.2215 34.0016 29.0016 22.2215 43.4809 22.2215ZM22.9721 64.8532V58.1553C22.9721 56.8229 24.0528 55.7393 25.3821 55.7393H34.5484C34.8647 55.7393 35.1734 55.8008 35.4582 55.9192V62.3983C35.4582 63.6018 36.0457 64.6688 36.9584 65.3328V67.3397C36.9584 68.579 36.0307 69.6116 34.8002 69.7406C34.4885 69.7735 34.2532 70.036 34.2532 70.3474V73.0633C29.7884 71.3818 25.9022 68.5178 22.9721 64.8532ZM38.1694 67.4683V74.201C37.2522 74.012 36.3544 73.7707 35.4747 73.4891V70.8557C37.0094 70.4539 38.1124 69.0886 38.1694 67.4683ZM39.3909 74.421V65.4063C39.3909 65.0945 39.1541 64.8322 38.8439 64.7993C37.6104 64.6704 36.6796 63.6377 36.6796 62.3983V53.2125C36.6796 51.8816 37.7603 50.7965 39.0896 50.7965H48.256C49.5853 50.7965 50.6659 51.8816 50.6659 53.2125V62.3983C50.6659 63.2675 50.2178 64.0469 49.4654 64.4845C49.1672 64.6599 48.8464 64.7663 48.5107 64.7993C48.1975 64.8292 47.9607 65.093 47.9607 65.4063V74.3509C46.5024 74.6024 45.0082 74.7403 43.4809 74.7403C42.0901 74.7403 40.7233 74.6294 39.3909 74.421ZM51.8694 73.3587C50.9926 73.6554 50.0964 73.9069 49.1822 74.1109V67.5464C49.2706 69.1321 50.3602 70.4601 51.8694 70.8557V73.3587ZM53.0909 72.912V70.3492C53.0909 70.0361 52.8556 69.7735 52.5438 69.7406C51.3134 69.6116 50.3856 68.579 50.3856 67.341V65.3358C51.3299 64.6554 51.8859 63.5853 51.8859 62.3983V55.9192C52.1707 55.8008 52.4794 55.7393 52.7956 55.7393H61.9618C63.2911 55.7393 64.3721 56.8229 64.3721 58.1553V64.3676C61.4837 68.1563 57.5886 71.1361 53.0909 72.912Z" fill="black"/>
<path d="M43.6728 47.8409C46.8022 47.8409 49.35 45.2945 49.35 42.1652C49.35 39.0358 46.8022 36.4879 43.6728 36.4879C40.5434 36.4879 37.9971 39.0358 37.9971 42.1652C37.9971 45.2945 40.5434 47.8409 43.6728 47.8409ZM43.6728 37.7094C46.1293 37.7094 48.1286 39.7087 48.1286 42.1652C48.1286 44.6216 46.1293 46.6194 43.6728 46.6194C41.2164 46.6194 39.2171 44.6216 39.2171 42.1652C39.2171 39.7087 41.2164 37.7094 43.6728 37.7094Z" fill="black"/>
<path d="M57.3787 52.7838C60.5083 52.7838 63.056 50.236 63.056 47.1066C63.056 43.9772 60.5083 41.4309 57.3787 41.4309C54.2494 41.4309 51.703 43.9772 51.703 47.1066C51.703 50.236 54.2494 52.7838 57.3787 52.7838ZM57.3787 42.6523C59.8352 42.6523 61.8345 44.6501 61.8345 47.1066C61.8345 49.563 59.8352 51.5623 57.3787 51.5623C54.9223 51.5623 52.9245 49.563 52.9245 47.1066C52.9245 44.6501 54.9223 42.6523 57.3787 42.6523Z" fill="black"/>
<path d="M29.9667 52.7838C33.0976 52.7838 35.644 50.236 35.644 47.1066C35.644 43.9772 33.0976 41.4309 29.9667 41.4309C26.8374 41.4309 24.291 43.9772 24.291 47.1066C24.291 50.236 26.8374 52.7838 29.9667 52.7838ZM29.9667 42.6523C32.4232 42.6523 34.4225 44.6501 34.4225 47.1066C34.4225 49.563 32.4232 51.5623 29.9667 51.5623C27.5103 51.5623 25.5125 49.563 25.5125 47.1066C25.5125 44.6501 27.5103 42.6523 29.9667 42.6523Z" fill="black"/>
</g>
<defs>
<clipPath id="clip0_498_8">
<rect width="55" height="55" fill="white" transform="translate(16 21)"/>
</clipPath>
</defs>
</svg>
