<svg width="100" height="100" viewBox="0 0 100 100" fill="none" xmlns="http://www.w3.org/2000/svg">
<circle cx="40" cy="47.2134" r="34" fill="#F4E9C9"/>
<g clip-path="url(#clip0_498_15)">
<path d="M42.6809 30.0623C46.2076 28.4309 50.1422 27.5091 54.3121 27.5091C69.1612 27.5091 81.2387 39.1712 81.2387 53.5251C81.2387 53.829 81.2387 54.1179 81.2125 54.4101H82.5844C82.6106 54.1179 82.6106 53.829 82.6106 53.5251C82.6106 38.4498 69.9179 26.1899 54.3121 26.1899C49.7883 26.1899 45.4894 27.2302 41.7047 29.0637L42.2294 29.578L42.4613 29.8001C42.5415 29.8819 42.6269 29.9704 42.6809 30.0623Z" fill="black"/>
<path d="M27.3925 53.5251C27.3925 49.3489 28.4053 45.4064 30.234 41.8997C30.1643 41.863 30.1102 41.8062 30.0509 41.7545L29.7354 41.4456L29.2037 40.9362C27.1728 44.71 26.0205 48.9949 26.0205 53.5251C26.0205 68.4467 38.4779 80.6281 53.878 80.8504C53.7925 80.6531 53.7559 80.4279 53.7559 80.2056V79.5311C39.1804 79.2437 27.3925 67.6836 27.3925 53.5251Z" fill="black"/>
<path d="M53.7559 71.3603C43.8332 71.0715 35.856 63.1734 35.856 53.5251C35.856 49.242 37.4214 45.3129 40.0328 42.2287L39.0671 41.2969C36.1994 44.6182 34.484 48.8863 34.484 53.5251C34.484 63.9098 43.0766 72.3907 53.7559 72.6782V71.3603Z" fill="black"/>
<path d="M71.7728 47.7274H73.2247C70.6726 39.9894 63.1679 34.3621 54.3121 34.3621C49.6489 34.3621 45.3709 35.9167 41.9941 38.5116L42.9808 39.4634C46.1117 37.0906 50.0463 35.6796 54.3121 35.6796C62.3974 35.6796 69.2903 40.7158 71.7728 47.7274Z" fill="black"/>
<path d="M52.2549 64.8634V63.5191C47.4296 62.5823 43.7739 58.4578 43.7739 53.5252C43.7739 51.3527 44.4765 49.3489 45.6828 47.6858L44.7066 46.739C43.2544 48.6343 42.402 50.982 42.402 53.5252C42.402 59.1943 46.6747 63.9099 52.2549 64.8634Z" fill="black"/>
<path d="M63.4694 48.4889C63.7413 48.1349 64.1545 47.8877 64.6217 47.7792C62.5786 44.3393 58.719 42.0183 54.312 42.0183C51.8575 42.0183 49.5685 42.743 47.6597 43.9853L48.6464 44.9472C50.292 43.9336 52.2445 43.3358 54.312 43.3358C58.2413 43.3358 61.6564 45.4214 63.4694 48.4889Z" fill="black"/>
<path d="M53.8362 53.6956C53.9652 53.8242 54.1412 53.886 54.3191 53.886C54.4951 53.886 54.666 53.8242 54.8054 53.6956C55.0739 53.4385 55.0739 53.021 54.8054 52.7638L35.476 34.0834L26.8451 25.7476C26.5766 25.4855 26.1426 25.4855 25.8759 25.7426C25.6022 25.9998 25.6022 26.4172 25.8706 26.6744L34.4893 35.0052L53.8362 53.6956Z" fill="black"/>
<path d="M39.2502 35.8651L40.413 36.9822L41.6786 31.3298C41.7152 31.1078 41.6507 30.8807 41.4851 30.722L40.943 30.201L32.6624 22.1959C32.4846 22.0255 32.2214 21.9587 31.9756 22.0255C31.7402 22.1024 31.5467 22.2877 31.5084 22.5248L30.4258 27.349L31.5781 28.4561L32.5753 23.9876L39.7435 30.9074L40.2474 31.3966L39.2502 35.8651Z" fill="black"/>
<path d="M31.5083 41.0199C31.5624 41.0199 31.6059 41.0199 31.66 41.0032L37.5017 39.7776L36.3546 38.6705L31.728 39.634L31.1492 39.0729L24.0576 32.2149L28.679 31.2514L27.5319 30.1443L22.5357 31.1846C22.3004 31.2364 22.0964 31.4117 22.0267 31.6488C21.957 31.8692 22.0267 32.1214 22.2028 32.2917L30.4205 40.2318L31.0272 40.8179C31.1492 40.9515 31.3323 41.0199 31.5083 41.0199Z" fill="black"/>
<path d="M78.472 55.7293H65.774V50.3591H78.472V55.7293ZM89.2422 67.864H76.7251V69.1831H87.7408V79.541H56.5051V69.1831H67.5156V67.864H54.9989V57.0468H65.0715C65.0768 57.0468 65.082 57.0468 65.0872 57.0468H79.1587C79.1639 57.0468 79.1691 57.0468 79.1744 57.0468H89.2422V67.864ZM89.9288 55.7293H79.8458V49.6996C79.8458 49.3338 79.5336 49.04 79.1587 49.04H65.0872C64.7072 49.04 64.4021 49.3338 64.4021 49.6996V55.7293H54.3121C53.9477 55.7293 53.627 56.0332 53.627 56.3872V68.5236C53.627 68.8843 53.9477 69.1831 54.3121 69.1831H55.1332V80.2009C55.1332 80.5662 55.4382 80.8603 55.82 80.8603H88.428C88.8077 80.8603 89.1127 80.5662 89.1127 80.2009V69.1831H89.9288C90.3091 69.1831 90.6141 68.8843 90.6141 68.5236V56.3872C90.6141 56.0332 90.3091 55.7293 89.9288 55.7293Z" fill="black"/>
<path d="M72.6512 70.7897H71.5948C70.861 70.7897 70.2662 70.2167 70.2662 69.512V66.0423H73.9812V69.512C73.9812 70.2167 73.385 70.7897 72.6512 70.7897ZM74.6665 64.7231H69.5796C69.1995 64.7231 68.8927 65.022 68.8927 65.3827V69.512C68.8927 70.9431 70.1044 72.107 71.5948 72.107H72.6512C74.1416 72.107 75.3531 70.9431 75.3531 69.512V65.3827C75.3531 65.022 75.0481 64.7231 74.6665 64.7231Z" fill="black"/>
</g>
<defs>
<clipPath id="clip0_498_15">
<rect width="69" height="59" fill="white" transform="translate(22 22)"/>
</clipPath>
</defs>
</svg>
