<svg width="82" height="82" viewBox="0 0 82 82" fill="none" xmlns="http://www.w3.org/2000/svg">
<circle cx="41" cy="42" r="34" fill="#F4E9C9"/>
<g clip-path="url(#clip0_498_10)">
<path d="M38.32 28.9574H33.68M29.04 28.9574H14.9112C13.4795 28.9573 12.1064 29.5305 11.0929 30.5511C10.0795 31.5717 9.50866 32.9564 9.50559 34.4013V64.8403C9.50138 65.2331 9.53635 65.6253 9.60999 66.011C9.86989 67.2358 10.5378 68.3339 11.5024 69.122C12.467 69.9102 13.6701 70.3411 14.9112 70.3427H56.5088C57.7499 70.3411 58.953 69.9102 59.9176 69.122C60.8823 68.3339 61.5501 67.2358 61.81 66.011C61.8836 65.6253 61.9186 65.2331 61.9144 64.8403V34.4013C61.9113 32.9564 61.3405 31.5717 60.327 30.5511C59.3136 29.5305 57.9404 28.9573 56.5088 28.9574H41.8H29.04ZM49.92 37.1525C50.5353 37.1525 51.1254 37.3992 51.5605 37.8383C51.9955 38.2774 52.24 38.8729 52.24 39.4939C52.24 40.1149 51.9955 40.7104 51.5605 41.1496C51.1254 41.5887 50.5353 41.8354 49.92 41.8354C49.3533 41.8381 48.8065 41.6248 48.3888 41.2383C48.1428 41.0202 47.9453 40.752 47.8093 40.4514C47.6733 40.1507 47.602 39.8244 47.6 39.4939C47.6 38.8729 47.8444 38.2774 48.2794 37.8383C48.7146 37.3992 49.3047 37.1525 49.92 37.1525ZM36 40.6647C36.5419 40.6672 37.0657 40.861 37.4808 41.2126C37.8957 41.5641 38.1757 42.0513 38.2722 42.5894C38.3686 43.1274 38.2755 43.6827 38.0087 44.1587C37.742 44.6347 37.3186 45.0015 36.812 45.1954C36.5539 45.2996 36.278 45.3513 36 45.3476C35.3847 45.3476 34.7946 45.1009 34.3594 44.6618C33.9244 44.2226 33.68 43.6271 33.68 43.0061C33.68 42.3852 33.9244 41.7896 34.3594 41.3505C34.7946 40.9113 35.3847 40.6647 36 40.6647ZM28.7384 47.0569C29.1462 46.7068 29.6647 46.5158 30.2 46.5183C30.5476 46.5186 30.8906 46.5976 31.2038 46.7495C31.517 46.9015 31.7924 47.1225 32.0096 47.3964C32.3395 47.8115 32.5196 48.3276 32.52 48.8598C32.52 49.4807 32.2755 50.0763 31.8405 50.5154C31.4054 50.9546 30.8153 51.2013 30.2 51.2013C29.5847 51.2013 28.9946 50.9546 28.5594 50.5154C28.1244 50.0763 27.88 49.4807 27.88 48.8598C27.8822 48.514 27.9604 48.1729 28.1088 47.8612C28.2573 47.5494 28.4722 47.2747 28.7384 47.0569ZM24.4 40.6647C25.0153 40.6647 25.6054 40.9113 26.0405 41.3505C26.4755 41.7896 26.72 42.3852 26.72 43.0061C26.72 43.6271 26.4755 44.2226 26.0405 44.6618C25.6054 45.1009 25.0153 45.3476 24.4 45.3476C23.7847 45.3476 23.1946 45.1009 22.7594 44.6618C22.3244 44.2226 22.08 43.6271 22.08 43.0061C22.08 42.3852 22.3244 41.7896 22.7594 41.3505C23.1946 40.9113 23.7847 40.6647 24.4 40.6647Z" stroke="black" stroke-linecap="round" stroke-linejoin="round"/>
<path d="M61.9143 60.1572H9.50549V65.9407H61.9143V60.1572Z" stroke="black" stroke-linecap="round" stroke-linejoin="round"/>
<path d="M25.56 74.6157H13.09C10.0508 74.6157 7.57996 72.6722 7.57996 70.2722V65.9405H63.84V70.2722C63.84 72.6722 61.3692 74.6157 58.33 74.6157H31.36" stroke="black" stroke-linecap="round" stroke-linejoin="round"/>
<path d="M43.714 65.9405H24.9568V70.284H43.714V65.9405Z" stroke="black" stroke-linecap="round" stroke-linejoin="round"/>
<path d="M22.7644 44.6571L17.9156 49.5508L16.28 51.2015" stroke="black" stroke-linecap="round" stroke-linejoin="round"/>
<path d="M28.7383 47.0569L26.4067 44.1769" stroke="black" stroke-linecap="round" stroke-linejoin="round"/>
<path d="M34.8982 45.0664L32.0098 47.3961" stroke="black" stroke-linecap="round" stroke-linejoin="round"/>
<path d="M40.64 50.0306L36.812 45.1955" stroke="black" stroke-linecap="round" stroke-linejoin="round"/>
<path d="M40.64 50.0305L49.92 39.4939" stroke="black" stroke-linecap="round" stroke-linejoin="round"/>
<path d="M16.28 53.5427C17.5613 53.5427 18.6 52.4944 18.6 51.2013C18.6 49.9081 17.5613 48.8598 16.28 48.8598C14.9987 48.8598 13.96 49.9081 13.96 51.2013C13.96 52.4944 14.9987 53.5427 16.28 53.5427Z" stroke="black" stroke-linecap="round" stroke-linejoin="round"/>
<path d="M26.72 43.0061C26.72 43.6271 26.4755 44.2226 26.0404 44.6618C25.6053 45.1009 25.0152 45.3476 24.4 45.3476C23.7847 45.3476 23.1946 45.1009 22.7595 44.6618C22.3244 44.2226 22.08 43.6271 22.08 43.0061C22.08 42.3852 22.3244 41.7896 22.7595 41.3505C23.1946 40.9113 23.7847 40.6647 24.4 40.6647C25.0152 40.6647 25.6053 40.9113 26.0404 41.3505C26.4755 41.7896 26.72 42.3852 26.72 43.0061Z" stroke="black" stroke-linecap="round" stroke-linejoin="round"/>
<path d="M32.52 48.8598C32.52 49.4809 32.2756 50.0764 31.8405 50.5154C31.4054 50.9546 30.8153 51.2013 30.2 51.2013C29.5847 51.2013 28.9946 50.9546 28.5595 50.5154C28.1244 50.0764 27.88 49.4809 27.88 48.8598C27.8823 48.514 27.9604 48.1729 28.1089 47.8612C28.2572 47.5495 28.4723 47.2747 28.7384 47.0569C29.1461 46.7068 29.6647 46.5158 30.2 46.5183C30.5475 46.5186 30.8906 46.5976 31.2038 46.7495C31.5171 46.9015 31.7925 47.1225 32.0096 47.3964C32.3396 47.8115 32.5195 48.3277 32.52 48.8598Z" stroke="black" stroke-linecap="round" stroke-linejoin="round"/>
<path d="M38.3201 43.0061C38.3192 43.4825 38.1745 43.9474 37.905 44.3385C37.6355 44.7297 37.2542 45.0287 36.8121 45.1954C36.554 45.2996 36.278 45.3513 36.0001 45.3476C35.3848 45.3476 34.7947 45.1009 34.3596 44.6618C33.9245 44.2226 33.6801 43.6271 33.6801 43.0061C33.6801 42.3852 33.9245 41.7896 34.3596 41.3505C34.7947 40.9113 35.3848 40.6647 36.0001 40.6647C36.6153 40.6647 37.2054 40.9113 37.6405 41.3505C38.0756 41.7896 38.3201 42.3852 38.3201 43.0061Z" stroke="black" stroke-linecap="round" stroke-linejoin="round"/>
<path d="M52.24 39.4939C52.24 40.1149 51.9956 40.7104 51.5604 41.1496C51.1253 41.5887 50.5352 41.8354 49.92 41.8354C49.3533 41.8381 48.8065 41.6248 48.3888 41.2383C48.1427 41.0202 47.9453 40.752 47.8094 40.4514C47.6734 40.1507 47.6021 39.8244 47.6 39.4939C47.6 38.8729 47.8444 38.2774 48.2795 37.8383C48.7146 37.3992 49.3047 37.1525 49.92 37.1525C50.5352 37.1525 51.1253 37.3992 51.5604 37.8383C51.9956 38.2774 52.24 38.8729 52.24 39.4939Z" stroke="black" stroke-linecap="round" stroke-linejoin="round"/>
<path d="M48.76 55.2988H54.444" stroke="black" stroke-linecap="round" stroke-linejoin="round"/>
<path d="M48.76 52.9574H56.88" stroke="black" stroke-linecap="round" stroke-linejoin="round"/>
<path d="M48.76 50.6159H52.82" stroke="black" stroke-linecap="round" stroke-linejoin="round"/>
<path d="M48.76 48.2744H56.88" stroke="black" stroke-linecap="round" stroke-linejoin="round"/>
</g>
<defs>
<clipPath id="clip0_498_10">
<rect width="58" height="48" fill="white" transform="translate(7 27.7866)"/>
</clipPath>
</defs>
</svg>
