<svg width="112" height="112" viewBox="0 0 112 112" fill="none" xmlns="http://www.w3.org/2000/svg">
<circle cx="64" cy="44" r="34" fill="#C9F3EE"/>
<g clip-path="url(#clip0_482_2476)">
<path d="M73.2793 78.9451H72.6286L71.3756 68.4408C71.3529 68.2675 71.279 68.1027 71.1597 67.972L62.6188 58.5901V45.7219L74.0379 60.8461L73.2793 78.9451ZM60.9225 43.1932V70.4724H44.8579V28.1116C44.8579 21.9262 47.8412 16.2663 52.8731 12.8596C57.925 16.2777 60.9225 21.9404 60.9225 28.1116V43.1932ZM45.966 73.217V72.1686H59.7803V73.217C59.7803 73.2284 59.7803 73.2398 59.7803 73.2511H45.966C45.966 73.2398 45.966 73.2284 45.966 73.217ZM58.2432 78.9451H45.6932C46.0995 77.9108 46.4632 76.9931 46.8155 76.135L47.2758 74.9474H58.4705L58.9364 76.1464C59.2831 76.9931 59.6439 77.9137 60.0531 78.9451H58.2432ZM52.8731 98.8937C49.7733 95.4302 47.9464 90.0886 47.9464 84.4003C47.9464 83.1019 48.0373 81.8631 48.2191 80.6385H57.5243C57.709 81.8631 57.7999 83.1019 57.7999 84.4003C57.7999 90.0914 55.9701 95.433 52.8731 98.8937ZM43.1616 58.5873L34.5866 67.9692C34.4673 68.0999 34.3934 68.2647 34.3707 68.4408L33.1177 78.9451H32.467L31.7084 60.8461L43.1616 45.7191V58.5873ZM75.5722 60.0676L62.6188 42.909V28.1116C62.6188 21.1732 59.1439 14.8258 53.3278 11.1321C53.0493 10.956 52.697 10.956 52.4185 11.1321C46.6223 14.8116 43.1616 21.159 43.1616 28.1116V42.909L30.1713 60.0676C30.0519 60.2238 29.9923 60.417 30.0008 60.6131L30.8077 79.8259C30.8248 80.2805 31.1998 80.6385 31.6544 80.6385H33.8706C34.2997 80.6385 34.6605 80.3174 34.7116 79.8912L36.0215 68.9125L43.1616 61.1018V71.3191C43.1616 71.7879 43.5395 72.1686 44.0083 72.1686H44.2697V73.217C44.2697 74.0836 44.7897 74.7513 45.4801 74.8905L45.2386 75.5071C44.8891 76.3623 44.5226 77.2943 44.1078 78.3399L43.656 79.4792C43.5537 79.7406 43.5878 80.0361 43.7441 80.2691C43.9032 80.4992 44.1646 80.6385 44.4459 80.6385H46.5342C46.3609 81.8659 46.2501 83.1047 46.2501 84.4003C46.2501 90.887 48.5032 96.9929 52.2765 100.726C52.4413 100.888 52.6572 100.971 52.8731 100.971C53.0891 100.971 53.305 100.888 53.4698 100.726C57.243 96.9929 59.4962 90.8898 59.4962 84.4003C59.4962 83.1047 59.3854 81.8659 59.2121 80.6385H61.3004C61.5788 80.6385 61.8431 80.4992 61.9994 80.2691C62.1585 80.0361 62.1926 79.7406 62.0874 79.4792L61.6499 78.374C61.2322 77.3142 60.86 76.3709 60.5105 75.5213L60.2662 74.8877C60.9566 74.7513 61.4766 74.0836 61.4766 73.217V72.1686H61.7692C62.238 72.1686 62.6188 71.7879 62.6188 71.3191V61.1075L69.722 68.9125L71.0346 79.8912C71.0858 80.3174 71.4466 80.6385 71.8757 80.6385H74.0919C74.5465 80.6385 74.9215 80.2805 74.9386 79.8259L75.7426 60.6131C75.7512 60.417 75.6915 60.2238 75.5722 60.0676Z" fill="#0C0C0C"/>
<path d="M58.6723 33.7713C58.6723 37.0047 56.0725 39.6357 52.8732 39.6357C49.674 39.6357 47.0713 37.0047 47.0713 33.7713C47.0713 30.5407 49.674 27.9097 52.8732 27.9097C56.0725 27.9097 58.6723 30.5407 58.6723 33.7713ZM45.3779 33.7713C45.3779 37.9394 48.7392 41.3291 52.8732 41.3291C57.0073 41.3291 60.3685 37.9394 60.3685 33.7713C60.3685 29.606 57.0073 26.2163 52.8732 26.2163C48.7392 26.2163 45.3779 29.606 45.3779 33.7713Z" fill="#0C0C0C"/>
<path d="M52.0264 29.6714C52.0264 30.1402 52.4043 30.5181 52.8731 30.5181C54.646 30.5181 56.0866 31.9785 56.0866 33.7714C56.0866 34.2402 56.4673 34.6209 56.9361 34.6209C57.4049 34.6209 57.7828 34.2402 57.7828 33.7714C57.7828 31.0438 55.5808 28.8247 52.8731 28.8247C52.4043 28.8247 52.0264 29.2026 52.0264 29.6714Z" fill="#0C0C0C"/>
<path d="M52.8731 47.9038C52.4043 47.9038 52.0264 48.2817 52.0264 48.7505C52.0264 49.2193 52.4043 49.5972 52.8731 49.5972C54.646 49.5972 56.0866 51.0576 56.0866 52.8505C56.0866 53.3193 56.4673 53.6972 56.9361 53.6972C57.4049 53.6972 57.7828 53.3193 57.7828 52.8505C57.7828 50.1229 55.5808 47.9038 52.8731 47.9038Z" fill="#0C0C0C"/>
<path d="M52.8732 58.7124C49.674 58.7124 47.0713 56.0843 47.0713 52.8509C47.0713 49.6203 49.674 46.9893 52.8732 46.9893C56.0725 46.9893 58.6723 49.6203 58.6723 52.8509C58.6723 56.0843 56.0725 58.7124 52.8732 58.7124ZM52.8732 45.2959C48.7392 45.2959 45.3779 48.6856 45.3779 52.8509C45.3779 57.019 48.7392 60.4087 52.8732 60.4087C57.0073 60.4087 60.3685 57.019 60.3685 52.8509C60.3685 48.6856 57.0073 45.2959 52.8732 45.2959Z" fill="#0C0C0C"/>
</g>
<defs>
<clipPath id="clip0_482_2476">
<rect width="46" height="90" fill="white" transform="translate(30 11)"/>
</clipPath>
</defs>
</svg>
