<svg width="112" height="112" viewBox="0 0 112 112" fill="none" xmlns="http://www.w3.org/2000/svg">
<circle cx="61" cy="56" r="34" fill="#B1CEFC"/>
<g clip-path="url(#clip0_482_2409)">
<path d="M63.44 88.5972H17.4053V73.0842C17.4053 72.6973 17.0908 72.3828 16.7014 72.3828C16.3145 72.3828 16 72.6973 16 73.0842V89.2986C16 89.6855 16.3145 90 16.7014 90H63.44C63.8294 90 64.1439 89.6855 64.1439 89.2986C64.1439 88.9092 63.8294 88.5972 63.44 88.5972Z" fill="#0C0C0C"/>
<path d="M68.2749 88.3326L63.9367 86.9348C64.1564 86.9199 64.366 86.8001 64.4883 86.5979C64.688 86.2634 64.5807 85.8316 64.2462 85.6319L32.0871 66.3574C31.8699 66.2276 31.6003 66.2251 31.3782 66.3474C31.1585 66.4722 31.0237 66.7068 31.0237 66.9589C31.0237 70.7704 27.9686 73.8705 24.2145 73.8705C23.88 73.8705 23.5556 73.8331 23.2336 73.7906C19.9438 73.3064 17.4053 70.4334 17.4053 66.9589V23.4053H68.2749V88.3326ZM26.6207 74.9114C29.616 73.9803 31.8874 71.357 32.3442 68.1495L63.4001 86.7626L26.6207 74.9114ZM68.9762 22H16.7014C16.3145 22 16 22.3145 16 22.7039V66.9589C16 71.03 18.9029 74.4196 22.7219 75.1335L68.7616 89.9675C68.834 89.99 68.9064 90 68.9762 90C69.0636 90 69.146 89.98 69.2259 89.9526C69.2508 89.9426 69.2733 89.9276 69.2982 89.9151C69.3482 89.8877 69.3931 89.8577 69.4355 89.8203C69.458 89.8003 69.478 89.7828 69.4979 89.7604C69.5354 89.7179 69.5653 89.6705 69.5928 89.6206C69.6053 89.5956 69.6202 89.5732 69.6302 89.5457C69.6352 89.5357 69.6427 89.5257 69.6477 89.5133C69.6577 89.4758 69.6527 89.4384 69.6602 89.4009C69.6652 89.366 69.6801 89.336 69.6801 89.2986V22.7039C69.6801 22.3145 69.3656 22 68.9762 22Z" fill="#0C0C0C"/>
<path d="M19.9087 26.0483H65.7712V32.1737H19.9087V26.0483ZM19.2073 33.5789H66.4726C66.862 33.5789 67.174 33.2644 67.174 32.8751V25.3445C67.174 24.9576 66.862 24.6431 66.4726 24.6431H19.2073C18.8179 24.6431 18.5034 24.9576 18.5034 25.3445V32.8751C18.5034 33.2644 18.8179 33.5789 19.2073 33.5789Z" fill="#0C0C0C"/>
<path d="M65.6667 37.9321H45.219C44.8296 37.9321 44.5151 38.2466 44.5151 38.636C44.5151 39.0229 44.8296 39.3374 45.219 39.3374H65.6667C66.0561 39.3374 66.3706 39.0229 66.3706 38.636C66.3706 38.2466 66.0561 37.9321 65.6667 37.9321Z" fill="#0C0C0C"/>
<path d="M65.6667 41.0249H45.219C44.8296 41.0249 44.5151 41.3394 44.5151 41.7263C44.5151 42.1157 44.8296 42.4302 45.219 42.4302H65.6667C66.0561 42.4302 66.3706 42.1157 66.3706 41.7263C66.3706 41.3394 66.0561 41.0249 65.6667 41.0249Z" fill="#0C0C0C"/>
<path d="M65.6667 44.0879H45.219C44.8296 44.0879 44.5151 44.4024 44.5151 44.7893C44.5151 45.1787 44.8296 45.4932 45.219 45.4932H65.6667C66.0561 45.4932 66.3706 45.1787 66.3706 44.7893C66.3706 44.4024 66.0561 44.0879 65.6667 44.0879Z" fill="#0C0C0C"/>
<path d="M65.6667 47.1777H45.219C44.8296 47.1777 44.5151 47.4922 44.5151 47.8816C44.5151 48.2685 44.8296 48.583 45.219 48.583H65.6667C66.0561 48.583 66.3706 48.2685 66.3706 47.8816C66.3706 47.4922 66.0561 47.1777 65.6667 47.1777Z" fill="#0C0C0C"/>
<path d="M65.6667 50.2407H45.219C44.8296 50.2407 44.5151 50.5552 44.5151 50.9446C44.5151 51.3315 44.8296 51.646 45.219 51.646H65.6667C66.0561 51.646 66.3706 51.3315 66.3706 50.9446C66.3706 50.5552 66.0561 50.2407 65.6667 50.2407Z" fill="#0C0C0C"/>
<path d="M65.6667 53.3306H45.219C44.8296 53.3306 44.5151 53.6451 44.5151 54.0345C44.5151 54.4213 44.8296 54.7358 45.219 54.7358H65.6667C66.0561 54.7358 66.3706 54.4213 66.3706 54.0345C66.3706 53.6451 66.0561 53.3306 65.6667 53.3306Z" fill="#0C0C0C"/>
<path d="M65.6667 56.3955H45.219C44.8296 56.3955 44.5151 56.7075 44.5151 57.0969C44.5151 57.4838 44.8296 57.8008 45.219 57.8008H65.6667C66.0561 57.8008 66.3706 57.4838 66.3706 57.0969C66.3706 56.7075 66.0561 56.3955 65.6667 56.3955Z" fill="#0C0C0C"/>
<path d="M65.6667 59.4585H45.219C44.8296 59.4585 44.5151 59.773 44.5151 60.1599C44.5151 60.5493 44.8296 60.8638 45.219 60.8638H65.6667C66.0561 60.8638 66.3706 60.5493 66.3706 60.1599C66.3706 59.773 66.0561 59.4585 65.6667 59.4585Z" fill="#0C0C0C"/>
<path d="M65.6667 62.5483H45.219C44.8296 62.5483 44.5151 62.8628 44.5151 63.2522C44.5151 63.6391 44.8296 63.9536 45.219 63.9536H65.6667C66.0561 63.9536 66.3706 63.6391 66.3706 63.2522C66.3706 62.8628 66.0561 62.5483 65.6667 62.5483Z" fill="#0C0C0C"/>
<path d="M65.6667 65.6113H45.219C44.8296 65.6113 44.5151 65.9258 44.5151 66.3127C44.5151 66.7021 44.8296 67.0166 45.219 67.0166H65.6667C66.0561 67.0166 66.3706 66.7021 66.3706 66.3127C66.3706 65.9258 66.0561 65.6113 65.6667 65.6113Z" fill="#0C0C0C"/>
<path d="M65.6667 68.7012H45.219C44.8296 68.7012 44.5151 69.0157 44.5151 69.4051C44.5151 69.7919 44.8296 70.1065 45.219 70.1065H65.6667C66.0561 70.1065 66.3706 69.7919 66.3706 69.4051C66.3706 69.0157 66.0561 68.7012 65.6667 68.7012Z" fill="#0C0C0C"/>
<path d="M40.4614 68.7012H39.9597C39.5728 68.7012 39.2583 69.0157 39.2583 69.4051C39.2583 69.7919 39.5728 70.1065 39.9597 70.1065H40.4614C40.8483 70.1065 41.1628 69.7919 41.1628 69.4051C41.1628 69.0157 40.8483 68.7012 40.4614 68.7012Z" fill="#0C0C0C"/>
<path d="M28.832 68.7012H20.0135C19.6241 68.7012 19.3096 69.0157 19.3096 69.4051C19.3096 69.7919 19.6241 70.1065 20.0135 70.1065H28.832C29.2189 70.1065 29.5334 69.7919 29.5334 69.4051C29.5334 69.0157 29.2189 68.7012 28.832 68.7012Z" fill="#0C0C0C"/>
<path d="M29.6382 65.6113H20.0135C19.6241 65.6113 19.3096 65.9258 19.3096 66.3127C19.3096 66.7021 19.6241 67.0166 20.0135 67.0166H29.6382C30.0276 67.0166 30.3421 66.7021 30.3421 66.3127C30.3421 65.9258 30.0276 65.6113 29.6382 65.6113Z" fill="#0C0C0C"/>
<path d="M40.4616 65.6113H33.8396C33.4527 65.6113 33.1382 65.9258 33.1382 66.3127C33.1382 66.7021 33.4527 67.0166 33.8396 67.0166H40.4616C40.8485 67.0166 41.163 66.7021 41.163 66.3127C41.163 65.9258 40.8485 65.6113 40.4616 65.6113Z" fill="#0C0C0C"/>
<path d="M40.4611 62.5483H20.0135C19.6241 62.5483 19.3096 62.8628 19.3096 63.2522C19.3096 63.6391 19.6241 63.9536 20.0135 63.9536H40.4611C40.848 63.9536 41.1625 63.6391 41.1625 63.2522C41.1625 62.8628 40.848 62.5483 40.4611 62.5483Z" fill="#0C0C0C"/>
<path d="M40.4611 59.4585H20.0135C19.6241 59.4585 19.3096 59.773 19.3096 60.1599C19.3096 60.5493 19.6241 60.8638 20.0135 60.8638H40.4611C40.848 60.8638 41.1625 60.5493 41.1625 60.1599C41.1625 59.773 40.848 59.4585 40.4611 59.4585Z" fill="#0C0C0C"/>
<path d="M40.4611 56.3955H20.0135C19.6241 56.3955 19.3096 56.7075 19.3096 57.0969C19.3096 57.4838 19.6241 57.8008 20.0135 57.8008H40.4611C40.848 57.8008 41.1625 57.4838 41.1625 57.0969C41.1625 56.7075 40.848 56.3955 40.4611 56.3955Z" fill="#0C0C0C"/>
<path d="M40.4611 53.3306H20.0135C19.6241 53.3306 19.3096 53.6451 19.3096 54.0345C19.3096 54.4213 19.6241 54.7358 20.0135 54.7358H40.4611C40.848 54.7358 41.1625 54.4213 41.1625 54.0345C41.1625 53.6451 40.848 53.3306 40.4611 53.3306Z" fill="#0C0C0C"/>
<path d="M40.4611 50.2407H20.0135C19.6241 50.2407 19.3096 50.5552 19.3096 50.9446C19.3096 51.3315 19.6241 51.646 20.0135 51.646H40.4611C40.848 51.646 41.1625 51.3315 41.1625 50.9446C41.1625 50.5552 40.848 50.2407 40.4611 50.2407Z" fill="#0C0C0C"/>
<path d="M40.4611 47.1777H20.0135C19.6241 47.1777 19.3096 47.4922 19.3096 47.8816C19.3096 48.2685 19.6241 48.583 20.0135 48.583H40.4611C40.848 48.583 41.1625 48.2685 41.1625 47.8816C41.1625 47.4922 40.848 47.1777 40.4611 47.1777Z" fill="#0C0C0C"/>
<path d="M40.4611 44.0879H20.0135C19.6241 44.0879 19.3096 44.4024 19.3096 44.7893C19.3096 45.1787 19.6241 45.4932 20.0135 45.4932H40.4611C40.848 45.4932 41.1625 45.1787 41.1625 44.7893C41.1625 44.4024 40.848 44.0879 40.4611 44.0879Z" fill="#0C0C0C"/>
<path d="M40.4611 41.0249H20.0135C19.6241 41.0249 19.3096 41.3394 19.3096 41.7263C19.3096 42.1157 19.6241 42.4302 20.0135 42.4302H40.4611C40.848 42.4302 41.1625 42.1157 41.1625 41.7263C41.1625 41.3394 40.848 41.0249 40.4611 41.0249Z" fill="#0C0C0C"/>
<path d="M65.6667 34.8721H45.219C44.8296 34.8721 44.5151 35.1841 44.5151 35.5735C44.5151 35.9628 44.8296 36.2749 45.219 36.2749H65.6667C66.0561 36.2749 66.3706 35.9628 66.3706 35.5735C66.3706 35.1841 66.0561 34.8721 65.6667 34.8721Z" fill="#0C0C0C"/>
<path d="M40.4611 34.8721H20.0135C19.6241 34.8721 19.3096 35.1841 19.3096 35.5735C19.3096 35.9628 19.6241 36.2749 20.0135 36.2749H40.4611C40.848 36.2749 41.1625 35.9628 41.1625 35.5735C41.1625 35.1841 40.848 34.8721 40.4611 34.8721Z" fill="#0C0C0C"/>
<path d="M40.4611 37.9321H20.0135C19.6241 37.9321 19.3096 38.2466 19.3096 38.636C19.3096 39.0229 19.6241 39.3374 20.0135 39.3374H40.4611C40.848 39.3374 41.1625 39.0229 41.1625 38.636C41.1625 38.2466 40.848 37.9321 40.4611 37.9321Z" fill="#0C0C0C"/>
</g>
<defs>
<clipPath id="clip0_482_2409">
<rect width="54" height="68" fill="white" transform="translate(16 22)"/>
</clipPath>
</defs>
</svg>
