<svg width="112" height="112" viewBox="0 0 112 112" fill="none" xmlns="http://www.w3.org/2000/svg">
<circle cx="55" cy="55" r="34" fill="#FAD9BD"/>
<g clip-path="url(#clip0_482_2410)">
<path d="M58.2835 46.058C57.0046 46.058 55.8027 46.5553 54.8968 47.4583C53.0288 49.3263 53.0288 52.3607 54.8968 54.2287L62.0018 61.3249L69.1068 54.2287C70.9748 52.3607 70.9748 49.3263 69.1068 47.4583C68.2009 46.5553 66.999 46.058 65.7201 46.058C64.4382 46.058 63.2363 46.5553 62.3304 47.4583C62.2446 47.5471 62.1261 47.5944 62.0018 47.5944C61.8775 47.5944 61.759 47.5471 61.6732 47.4583C60.7673 46.5553 59.5654 46.058 58.2835 46.058ZM62.0018 62.4469C61.8775 62.4469 61.759 62.3995 61.6732 62.3107L54.2396 54.8859C53.1561 53.8054 52.561 52.3696 52.561 50.842C52.561 49.3174 53.1561 47.8816 54.2396 46.8011C56.3622 44.6784 59.7548 44.5778 62.0018 46.4961C63.0379 45.611 64.3405 45.1284 65.7201 45.1284C67.2477 45.1284 68.6835 45.7235 69.764 46.8011C71.9962 49.0302 71.9962 52.6568 69.764 54.8859L62.3304 62.3107C62.2446 62.3995 62.1261 62.4469 62.0018 62.4469Z" fill="#0C0C0C" stroke="#0C0C0C" stroke-width="0.7"/>
<path d="M46.682 39.6459C44.4794 39.6459 42.6884 41.434 42.6884 43.6336V61.5411C42.6884 63.7407 44.4794 65.5288 46.682 65.5288H55.9629C56.398 65.5288 56.8155 65.7361 57.0789 66.0795L61.6261 72.0151C61.7179 72.1335 61.8541 72.1986 62.0021 72.1986C62.1501 72.1986 62.2863 72.1335 62.3781 72.0151L66.9253 66.0795C67.1888 65.7361 67.6062 65.5288 68.0414 65.5288H77.3223C79.5248 65.5288 81.3159 63.7407 81.3159 61.5411V43.6336C81.3159 41.434 79.5248 39.6459 77.3223 39.6459H46.682ZM62.0021 73.1282C61.561 73.1282 61.1554 72.9299 60.889 72.5805L56.3388 66.6449C56.25 66.5294 56.1109 66.4584 55.9629 66.4584H46.682C43.9673 66.4584 41.7588 64.2529 41.7588 61.5411V43.6336C41.7588 40.9218 43.9673 38.7134 46.682 38.7134H77.3223C80.037 38.7134 82.2454 40.9218 82.2454 43.6336V61.5411C82.2454 64.2529 80.037 66.4584 77.3223 66.4584H68.0414C67.8933 66.4584 67.7542 66.5294 67.6654 66.6449L63.1152 72.5805C62.8488 72.9299 62.4432 73.1282 62.0021 73.1282Z" fill="#0C0C0C" stroke="#0C0C0C" stroke-width="0.7"/>
<path d="M38.9433 19.9296C37.2825 19.9296 35.9325 21.2795 35.9325 22.9373V88.9073C35.9325 90.5651 37.2825 91.9121 38.9433 91.9121H85.0606C86.7214 91.9121 88.0714 90.5651 88.0714 88.9073V22.9373C88.0714 21.2795 86.7214 19.9296 85.0606 19.9296H38.9433ZM85.0606 92.8417H38.9433C36.7703 92.8417 35 91.0772 35 88.9073V22.9373C35 20.7674 36.7703 19 38.9433 19H85.0606C87.2336 19 89.0039 20.7674 89.0039 22.9373V88.9073C89.0039 91.0772 87.2336 92.8417 85.0606 92.8417Z" fill="#0C0C0C" stroke="#0C0C0C" stroke-width="0.7"/>
<path d="M88.5362 26.5048H35.4677C35.2102 26.5048 35 26.2946 35 26.04C35 25.7824 35.2102 25.5752 35.4677 25.5752H88.5362C88.7937 25.5752 89.0039 25.7824 89.0039 26.04C89.0039 26.2946 88.7937 26.5048 88.5362 26.5048Z" fill="#0C0C0C" stroke="#0C0C0C" stroke-width="0.7"/>
<path d="M88.5362 86.2694H35.4677C35.2102 86.2694 35 86.0622 35 85.8046C35 85.55 35.2102 85.3398 35.4677 85.3398H88.5362C88.7937 85.3398 89.0039 85.55 89.0039 85.8046C89.0039 86.0622 88.7937 86.2694 88.5362 86.2694Z" fill="#0C0C0C" stroke="#0C0C0C" stroke-width="0.7"/>
<path d="M61.7594 88.0961C61.2561 88.0961 60.8476 88.5046 60.8476 89.0079C60.8476 89.5082 61.2561 89.9167 61.7594 89.9167C62.2626 89.9167 62.6712 89.5082 62.6712 89.0079C62.6712 88.5046 62.2626 88.0961 61.7594 88.0961ZM61.7594 90.8463C60.744 90.8463 59.915 90.0203 59.915 89.0079C59.915 87.9925 60.744 87.1665 61.7594 87.1665C62.7748 87.1665 63.6008 87.9925 63.6008 89.0079C63.6008 90.0203 62.7748 90.8463 61.7594 90.8463Z" fill="#0C0C0C" stroke="#0C0C0C" stroke-width="0.7"/>
<path d="M67.2566 23.1976H56.2617C56.0041 23.1976 55.7969 22.9904 55.7969 22.7328C55.7969 22.4783 56.0041 22.2681 56.2617 22.2681H67.2566C67.5142 22.2681 67.7214 22.4783 67.7214 22.7328C67.7214 22.9904 67.5142 23.1976 67.2566 23.1976Z" fill="#0C0C0C" stroke="#0C0C0C" stroke-width="0.7"/>
</g>
<defs>
<clipPath id="clip0_482_2410">
<rect width="56" height="76" fill="white" transform="translate(34 18)"/>
</clipPath>
</defs>
</svg>
