<svg width="112" height="112" viewBox="0 0 112 112" fill="none" xmlns="http://www.w3.org/2000/svg">
<circle cx="59" cy="52" r="34" fill="#F4E9C9"/>
<g clip-path="url(#clip0_482_2503)">
<path d="M77.8939 27.2744C77.8293 27.2825 77.7082 27.2717 77.6624 27.2475L76.1848 26.3297L81.7724 24.0741L83.3443 25.0566L77.8939 27.2744ZM73.9912 25.3822C73.9885 25.3822 73.9885 25.3876 73.9831 25.3876L68.9714 27.4144C68.9606 27.4171 68.9472 27.4144 68.9364 27.4197L46.3354 36.5576C46.1497 36.6356 45.9963 36.606 45.8994 36.5656C45.8052 36.5253 45.6733 36.4365 45.6033 36.2642C45.5468 36.1162 45.5522 35.9439 45.6195 35.7986C45.6625 35.707 45.746 35.5832 45.9371 35.5132L45.9559 35.5052L46.3516 35.3464L68.53 26.3781C68.5461 26.37 68.5596 26.3539 68.5757 26.3458L76.9438 22.9571L80.7873 21.4122L81.1991 22.4538L73.9912 25.3822ZM45.2104 18.3223C35.3135 18.3223 27.2604 26.4293 27.2604 36.3907C27.2604 46.3737 35.3135 54.4968 45.2104 54.4968C55.1072 54.4968 63.1576 46.3737 63.1576 36.3907C63.1576 34.7865 62.9692 33.2577 62.5951 31.8285L64.8641 30.908C65.3566 32.6871 65.6043 34.5281 65.6043 36.3907C65.6043 47.7221 56.4557 56.9407 45.2104 56.9407C33.9839 56.9407 24.8488 47.7221 24.8488 36.3907C24.8488 25.0808 33.9839 15.8784 45.2104 15.8784C52.814 15.8784 59.6236 19.9937 63.1899 26.6823L60.9129 27.6055C57.718 21.859 51.7697 18.3223 45.2104 18.3223ZM45.2104 22.4996C37.5986 22.4996 31.4081 28.7305 31.4081 36.3907C31.4081 44.0697 37.5986 50.3195 45.2104 50.3195C52.8382 50.3195 59.045 44.0697 59.045 36.3907C59.045 35.3814 58.9077 34.3936 58.6924 33.3977L60.9936 32.4691C61.2951 33.6964 61.4566 35.0099 61.4566 36.3907C61.4566 45.437 54.1679 52.7984 45.2104 52.7984C36.2529 52.7984 28.9641 45.437 28.9641 36.3907C28.9641 27.3632 36.2529 20.0207 45.2104 20.0207C51.0779 20.0207 56.4045 23.1563 59.3222 28.2622L57.0209 29.1935C54.5124 25.0566 50.0713 22.4996 45.2104 22.4996ZM45.2104 26.6446C39.8703 26.6446 35.5235 31.0157 35.5235 36.3907C35.5235 41.7684 39.8703 46.1422 45.2104 46.1422C50.5531 46.1422 54.8973 41.7684 54.8973 36.3907C54.8973 35.9197 54.865 35.4406 54.8031 34.9857L57.1178 34.0517C57.2685 34.8296 57.3412 35.6021 57.3412 36.3907C57.3412 43.1357 51.8989 48.6211 45.2104 48.6211C38.5407 48.6211 33.1118 43.1357 33.1118 36.3907C33.1118 29.6672 38.5407 24.198 45.2104 24.198C49.3823 24.198 53.2231 26.3297 55.4463 29.8233L53.1289 30.7573C51.3067 28.168 48.3972 26.6446 45.2104 26.6446ZM45.2104 30.8219C42.1554 30.8219 39.6711 33.3196 39.6711 36.3907C39.6711 39.4833 42.1554 41.9972 45.2104 41.9972C48.2114 41.9972 50.65 39.5936 50.763 36.6006L53.1558 35.6344C53.1774 35.8874 53.1935 36.1404 53.1935 36.3907C53.1935 40.8318 49.6137 44.4411 45.2104 44.4411C40.807 44.4411 37.2272 40.8318 37.2272 36.3907C37.2272 31.9523 40.807 28.3429 45.2104 28.3429C47.7054 28.3429 49.9906 29.4815 51.5032 31.4275L49.0593 32.4153C48.0392 31.414 46.6826 30.8219 45.2104 30.8219ZM44.018 36.8806C44.2495 37.4539 44.6855 37.898 45.2427 38.1321C45.5683 38.2694 45.9155 38.3152 46.2628 38.2882C46.505 38.2721 46.7445 38.2263 46.976 38.1321L48.9651 37.3381C48.5452 39.0365 47.0218 40.2988 45.2104 40.2988C43.0948 40.2988 41.3749 38.5439 41.3749 36.3907C41.3749 34.2563 43.0948 32.5202 45.2104 32.5202C45.964 32.5202 46.6826 32.7329 47.2909 33.1258L45.458 33.8768L45.3073 33.936C45.2373 33.9629 45.1727 34.0006 45.1081 34.0329C45.0462 34.0652 44.9789 34.0894 44.9224 34.1244C44.8685 34.1567 44.8228 34.1998 44.7743 34.2348C44.7097 34.2859 44.6398 34.329 44.5778 34.3882C44.5375 34.4232 44.5079 34.4689 44.4702 34.5093C44.411 34.5739 44.3464 34.6358 44.2925 34.7112C44.2091 34.8269 44.1337 34.9534 44.0718 35.0907C43.8161 35.6451 43.7919 36.2911 44.018 36.8806ZM50.3351 60.5689C50.2301 60.5905 50.1278 60.6147 50.0202 60.6362C48.4645 60.9484 46.8576 61.118 45.2104 61.118C43.5927 61.118 42.0155 60.9511 40.484 60.647C40.309 60.6147 40.1449 60.5743 39.9753 60.5366C28.9695 58.1089 20.7011 48.212 20.7011 36.3907C20.7011 22.7768 31.6961 11.6984 45.2104 11.6984C54.3993 11.6984 62.8697 16.9442 67.0416 25.1346L64.7672 26.0551C60.929 18.7153 53.5138 14.1773 45.2104 14.1773C33.0445 14.1773 23.1477 24.1441 23.1477 36.3907C23.1477 48.6588 33.0445 58.6391 45.2104 58.6391C57.395 58.6391 67.308 48.6588 67.308 36.3907C67.308 34.3101 67.0039 32.2565 66.436 30.2701L68.7238 29.3442C69.4074 31.624 69.752 33.9925 69.752 36.3907C69.752 48.2551 61.4135 58.1869 50.3351 60.5689ZM50.6312 85.3016H48.6932V62.5849C49.3688 62.4961 50.0121 62.3857 50.6312 62.2565V85.3016ZM41.7275 85.3016H39.8219V62.2565C39.8488 62.2646 39.8784 62.2673 39.9026 62.2727C39.9672 62.2861 40.0372 62.2915 40.1018 62.305C40.6266 62.41 41.1596 62.5069 41.7275 62.5849V85.3016ZM74.9305 20.4217C74.9547 20.3652 75.057 20.2575 75.127 20.2225L80.5316 18.0397L80.0714 19.8592L76.4162 21.3395L74.5026 22.1066L74.9305 20.4217ZM85.659 24.4967L83.1532 22.9329C83.1505 22.8333 83.1371 22.7311 83.0994 22.6315L82.0524 19.9803C82.012 19.8753 81.9474 19.7784 81.8693 19.6977L82.5934 16.8312C82.6714 16.5216 82.5665 16.1933 82.3242 15.9833C82.082 15.7734 81.7428 15.7169 81.4468 15.838L74.4649 18.656C74.4568 18.6614 74.446 18.6641 74.438 18.6695C73.8916 18.9117 73.4179 19.4554 73.286 19.9803L72.5458 22.906L68.608 24.4994C64.1724 15.6711 55.0857 10 45.2104 10C30.7567 10 19 21.8401 19 36.3907C19 48.4839 27.1043 58.6795 38.1208 61.807V86.1522C38.1208 86.6205 38.5003 87 38.9713 87H42.5807C43.0517 87 43.4312 86.6205 43.4312 86.1522V62.7276C44.0234 62.7679 44.6101 62.8164 45.2104 62.8164C45.8106 62.8164 46.3973 62.7679 46.9895 62.7276V86.1522C46.9895 86.6205 47.3717 87 47.84 87H51.4844C51.9527 87 52.3349 86.6205 52.3349 86.1522V61.8017C63.3514 58.666 71.4557 48.4731 71.4557 36.3907C71.4557 33.7745 71.0493 31.1987 70.2903 28.7117L74.2334 27.1183L76.7608 28.6902C77.0649 28.8786 77.4552 28.9782 77.8347 28.9782C78.0662 28.9782 78.2923 28.9405 78.4941 28.8651C78.5022 28.8624 78.5076 28.8597 78.513 28.857L85.5299 26.004C85.8259 25.8829 86.0278 25.6083 86.0547 25.2907C86.0816 24.9731 85.9309 24.6663 85.659 24.4967Z" fill="#0C0C0C"/>
</g>
<defs>
<clipPath id="clip0_482_2503">
<rect width="68" height="77" fill="white" transform="translate(19 10)"/>
</clipPath>
</defs>
</svg>
