<svg width="112" height="112" viewBox="0 0 112 112" fill="none" xmlns="http://www.w3.org/2000/svg">
<circle cx="51" cy="53" r="34" fill="#F4E9C9"/>
<g clip-path="url(#clip0_482_2443)">
<path d="M93.8823 76.4381C93.8823 77.7251 92.8455 78.7749 91.5713 78.7749H30.6857C29.4348 78.7749 28.3773 77.7045 28.3773 76.4381V38.7141C28.3773 37.4245 29.4116 36.3747 30.6857 36.3747H91.5713C92.8455 36.3747 93.8823 37.4245 93.8823 38.7141V76.4381ZM54.7578 87.4102C55.5084 86.6493 55.9546 85.6795 56.0938 84.4931V80.1496H66.1916L66.1967 84.5756C66.3334 85.713 66.7745 86.6622 67.5121 87.4102H54.7578ZM69.8773 88.7849H75.3556C77.027 88.7849 78.4223 89.9791 78.7422 91.5628H43.5433C43.8579 89.9791 45.2456 88.7849 46.9014 88.7849H69.8773ZM91.5713 35H30.6857C28.6533 35 27 36.6662 27 38.7141V76.4381C27 78.4499 28.6868 80.1496 30.6857 80.1496H54.7165L54.7217 84.4131C54.5515 85.8394 53.7648 86.7937 52.2611 87.4102H46.9014C44.2525 87.4102 42.0989 89.5819 42.0989 92.2488C42.0989 92.628 42.4058 92.9375 42.7875 92.9375H79.4979C79.877 92.9375 80.1865 92.628 80.1865 92.2488C80.1865 89.5819 78.02 87.4102 75.3556 87.4102H70.0217C68.5206 86.8041 67.734 85.8523 67.5663 84.4931V80.1496H91.5713C93.6037 80.1496 95.257 78.4834 95.257 76.4381V38.7141C95.257 36.6662 93.6037 35 91.5713 35Z" fill="#0C0C0C"/>
<path d="M90.9367 69.3709C90.9367 69.487 90.8361 69.5901 90.7278 69.5901H82.2034V44.5973C82.2034 43.9293 81.6618 43.3876 80.9963 43.3876H41.2889C40.6235 43.3876 40.0818 43.9293 40.0818 44.5973V69.5901H31.5574C31.4465 69.5901 31.3459 69.487 31.3459 69.3709V39.2634C31.3459 39.1473 31.4465 39.0442 31.5574 39.0442H90.7278C90.8361 39.0442 90.9367 39.1473 90.9367 39.2634V69.3709ZM80.8261 69.5901H41.4591V44.7624H80.8261V69.5901ZM90.7278 37.6694H31.5574C30.6831 37.6694 29.9712 38.3839 29.9712 39.2634V69.3709C29.9712 70.2504 30.6831 70.9649 31.5574 70.9649H90.7278C91.6022 70.9649 92.314 70.2504 92.314 69.3709V39.2634C92.314 38.3839 91.6022 37.6694 90.7278 37.6694Z" fill="#0C0C0C"/>
<path d="M70.8576 75.8888C70.3159 75.8888 69.8568 75.4219 69.8568 74.87C69.8568 74.318 70.3159 73.8537 70.8576 73.8537C71.425 73.8537 71.8867 74.3103 71.8867 74.87C71.8867 75.4322 71.425 75.8888 70.8576 75.8888ZM70.8576 72.479C69.5473 72.479 68.4795 73.552 68.4795 74.87C68.4795 76.1905 69.5473 77.2635 70.8576 77.2635C72.1859 77.2635 73.264 76.1905 73.264 74.87C73.264 73.552 72.1859 72.479 70.8576 72.479Z" fill="#0C0C0C"/>
<path d="M64.0455 76.7684H58.2396C57.2053 76.7684 56.3671 75.9173 56.3671 74.8701C56.3671 73.8255 57.2053 72.9743 58.2396 72.9743H64.0455C65.0772 72.9743 65.918 73.8255 65.918 74.8701C65.918 75.9173 65.0772 76.7684 64.0455 76.7684ZM64.0455 71.5996H58.2396C56.447 71.5996 54.9897 73.0672 54.9897 74.8701C54.9897 76.6756 56.447 78.1431 58.2396 78.1431H64.0455C65.8355 78.1431 67.2953 76.6756 67.2953 74.8701C67.2953 73.0672 65.8355 71.5996 64.0455 71.5996Z" fill="#0C0C0C"/>
<path d="M51.3995 75.8888C50.8553 75.8888 50.3962 75.4219 50.3962 74.87C50.3962 74.318 50.8553 73.8537 51.3995 73.8537C51.9412 73.8537 52.4003 74.318 52.4003 74.87C52.4003 75.4219 51.9412 75.8888 51.3995 75.8888ZM51.3995 72.479C50.0867 72.479 49.0215 73.552 49.0215 74.87C49.0215 76.1905 50.0867 77.2635 51.3995 77.2635C52.7098 77.2635 53.7776 76.1905 53.7776 74.87C53.7776 73.552 52.7098 72.479 51.3995 72.479Z" fill="#0C0C0C"/>
<path d="M70.9635 49.3739C71.1827 49.3404 71.3736 49.2011 71.4741 49.0025L71.99 47.9811L72.5058 49.0025C72.6064 49.2011 72.7973 49.3404 73.0165 49.3739L74.1488 49.5467L73.3338 50.3875C73.1868 50.5423 73.1171 50.7564 73.1481 50.9679L73.3235 52.1131L72.2814 51.5972C72.0854 51.5018 71.8559 51.5018 71.6624 51.6024L70.6565 52.1182L70.8293 50.9679C70.8629 50.7538 70.7906 50.5371 70.6385 50.3824L69.8131 49.5493L70.9635 49.3739ZM69.4185 51.1046L69.225 52.3865C69.2199 52.42 69.2173 52.4535 69.2173 52.4896C69.2173 52.6083 69.2173 52.8585 69.3437 53.0416C69.4804 53.3201 69.7254 53.5368 70.0143 53.6296C70.1252 53.6683 70.2387 53.6864 70.3522 53.6864C70.5224 53.6864 70.6901 53.6477 70.8474 53.5677L71.9848 52.9823L73.0346 53.4981C73.3544 53.7148 73.6588 53.6993 73.7722 53.6658C74.3938 53.5961 74.8272 53.0442 74.7549 52.3865L74.5615 51.0994L75.4075 50.225C75.6551 50.0213 75.7222 49.7479 75.7557 49.6112C75.8898 48.9999 75.5055 48.4118 74.8323 48.2622L73.5762 48.0688L73.0011 46.9262C72.9882 46.903 72.9753 46.8798 72.9598 46.8591C72.8566 46.7018 72.738 46.5832 72.5033 46.431C72.235 46.2943 71.9152 46.2711 71.6289 46.3665C71.3426 46.4619 71.1105 46.6631 70.9789 46.9262L70.4038 48.0688L69.1451 48.2622C69.109 48.2674 69.0703 48.2751 69.0342 48.288C68.931 48.3241 68.7015 48.3989 68.5183 48.6182C68.1082 49.0309 68.0876 49.6937 68.5158 50.1967L69.4185 51.1046Z" fill="#0C0C0C"/>
<path d="M59.3176 49.5339C59.5781 49.4875 59.8386 49.4411 60.0914 49.3998C60.2951 49.3663 60.4731 49.245 60.5789 49.0671C60.7775 48.7266 60.9606 48.3732 61.1411 48.0251C61.1927 48.1231 61.2417 48.2211 61.2907 48.3191C61.4145 48.5615 61.5409 48.804 61.6647 49.0413C61.7653 49.2347 61.9536 49.3688 62.1702 49.3998C62.4359 49.4411 62.6938 49.4875 62.9543 49.5339C63.073 49.5571 63.189 49.5778 63.3025 49.5984C63.2148 49.6912 63.1271 49.7815 63.0395 49.8744C62.8589 50.0601 62.6784 50.2509 62.4927 50.4392C62.3379 50.594 62.2683 50.8106 62.3018 51.0273L62.4772 52.1699L61.4377 51.654C61.3423 51.605 61.234 51.5818 61.1282 51.5818C61.0173 51.5818 60.9038 51.6076 60.8032 51.6618C60.486 51.832 60.1533 52.0022 59.8077 52.1699L59.9831 51.0273C60.0166 50.8106 59.9444 50.594 59.7922 50.4392C59.6013 50.2458 59.413 50.0472 59.2222 49.8486C59.1422 49.766 59.0597 49.6809 58.9797 49.5958C59.0906 49.5778 59.2041 49.5571 59.3176 49.5339ZM58.2266 50.8003C58.3427 50.919 58.4561 51.0376 58.5696 51.1563L58.3891 52.353C58.3143 52.6574 58.3942 52.8947 58.469 53.0958C58.6006 53.3641 58.8327 53.5653 59.119 53.6607C59.4027 53.7535 59.7225 53.7355 59.9676 53.6091C60.3622 53.4337 60.7568 53.2403 61.1386 53.0391L62.1935 53.5575C62.4127 53.702 62.6294 53.7226 62.828 53.7226C62.8589 53.7226 62.8899 53.7226 62.9208 53.72C63.5372 53.653 63.9809 53.0778 63.9061 52.4098L63.7152 51.1563C63.821 51.0453 63.9267 50.9344 64.0325 50.8235C64.2156 50.6327 64.3987 50.4418 64.5896 50.2484C64.765 50.0704 64.8578 49.8305 64.8888 49.7351C64.9042 49.6887 64.9146 49.6422 64.9197 49.5932C64.9842 49.0129 64.6076 48.4687 63.9835 48.3165C63.7178 48.2752 63.4599 48.2288 63.1994 48.1824C63.042 48.154 62.8847 48.1256 62.7248 48.0973C62.6551 47.9631 62.5881 47.829 62.5184 47.6949C62.3946 47.4525 62.2708 47.2074 62.147 46.9727C62.1367 46.9521 62.1238 46.934 62.1109 46.9134C62.0335 46.7948 61.8891 46.5781 61.6183 46.4672C61.3578 46.3485 61.056 46.3305 60.7826 46.4208C60.4937 46.5162 60.2616 46.7174 60.1378 46.9727L59.9418 47.3493C59.8128 47.5969 59.6839 47.8497 59.5472 48.0973C59.3872 48.1256 59.2299 48.154 59.07 48.1824C58.8095 48.2288 58.549 48.2778 58.2936 48.3165C58.2575 48.3242 58.2214 48.332 58.1853 48.3449C58.0847 48.3784 57.9326 48.43 57.7701 48.5383C57.7211 48.5719 57.6746 48.6131 57.6334 48.6621C57.2362 49.129 57.2491 49.8021 57.6669 50.2226C57.8552 50.4108 58.0409 50.6043 58.2266 50.8003Z" fill="#0C0C0C"/>
<path d="M49.2537 49.454C49.4652 49.4179 49.6483 49.2838 49.7463 49.0955L50.2802 48.0741L50.8167 49.0955C50.9147 49.2838 51.0978 49.4179 51.3093 49.454L52.4519 49.6501L51.6446 50.4651C51.495 50.6173 51.4254 50.8288 51.4538 51.0403L51.6137 52.2241L50.5923 51.7109C50.4943 51.6619 50.3885 51.6361 50.2802 51.6361C50.177 51.6361 50.0713 51.6593 49.9759 51.7083L48.9519 52.2138L49.1118 51.0403C49.1402 50.8314 49.0705 50.6224 48.9235 50.4703L48.1265 49.6501L49.2537 49.454ZM47.701 51.1873L47.5333 52.4382C47.4895 52.6265 47.5075 52.8303 47.5849 53.0598C47.5926 53.0908 47.6055 53.1217 47.621 53.1501C47.7525 53.4209 47.9847 53.6221 48.2736 53.7149C48.3896 53.7536 48.5108 53.7743 48.6321 53.7743C48.81 53.7743 48.9854 53.733 49.1428 53.6556L50.2802 53.0908L51.4744 53.6892C51.7194 53.7717 51.9464 53.7872 52.0857 53.7485C52.3926 53.7098 52.6686 53.5396 52.8517 53.2842C53.0297 53.0289 53.0916 52.7245 53.0348 52.4795L52.862 51.1924L53.7415 50.3052C53.7725 50.2717 53.8009 50.2381 53.8267 50.1994C53.8963 50.0937 53.9995 49.9364 54.0717 49.632C54.1078 49.3354 54.0201 49.0285 53.8318 48.7886C53.6435 48.5513 53.3779 48.4017 53.1251 48.3733L51.8793 48.1567L51.2758 47.0063C51.1675 46.7923 50.9972 46.622 50.8167 46.5318C50.5613 46.3847 50.2518 46.3538 49.9655 46.4389C49.6689 46.5292 49.4213 46.7381 49.2898 47.0012L48.6837 48.1567L47.4766 48.3682C47.2264 48.3888 47.0407 48.5152 46.9272 48.59C46.8911 48.6158 46.855 48.6442 46.824 48.6777C46.3933 49.111 46.3907 49.8435 46.8163 50.2717L47.701 51.1873Z" fill="#0C0C0C"/>
<path d="M73.4469 65.8813H51.1545C50.7727 65.8813 50.4658 66.1883 50.4658 66.5674C50.4658 66.9466 50.7727 67.2561 51.1545 67.2561H73.4469C73.8286 67.2561 74.1355 66.9466 74.1355 66.5674C74.1355 66.1883 73.8286 65.8813 73.4469 65.8813Z" fill="#0C0C0C"/>
<path d="M73.4469 62.5513H51.1545C50.7727 62.5513 50.4658 62.8608 50.4658 63.2399C50.4658 63.6191 50.7727 63.926 51.1545 63.926H73.4469C73.8286 63.926 74.1355 63.6191 74.1355 63.2399C74.1355 62.8608 73.8286 62.5513 73.4469 62.5513Z" fill="#0C0C0C"/>
<path d="M73.4469 55.9253H51.1545C50.7727 55.9253 50.4658 56.2348 50.4658 56.614C50.4658 56.9931 50.7727 57.3 51.1545 57.3H73.4469C73.8286 57.3 74.1355 56.9931 74.1355 56.614C74.1355 56.2348 73.8286 55.9253 73.4469 55.9253Z" fill="#0C0C0C"/>
<path d="M73.4469 59.2524H51.1545C50.7727 59.2524 50.4658 59.5594 50.4658 59.9411C50.4658 60.3202 50.7727 60.6272 51.1545 60.6272H73.4469C73.8286 60.6272 74.1355 60.3202 74.1355 59.9411C74.1355 59.5594 73.8286 59.2524 73.4469 59.2524Z" fill="#0C0C0C"/>
</g>
<defs>
<clipPath id="clip0_482_2443">
<rect width="69" height="58" fill="white" transform="translate(27 35)"/>
</clipPath>
</defs>
</svg>
