<svg width="112" height="112" viewBox="0 0 112 112" fill="none" xmlns="http://www.w3.org/2000/svg">
<circle cx="66" cy="62" r="34" fill="#C9F3EE"/>
<path d="M83.1126 75.9831C83.1126 76.3238 82.842 76.5994 82.5089 76.5994H14.0066C13.6709 76.5994 13.4004 76.3238 13.4004 75.9831V73.1849C13.4004 72.8442 13.6709 72.5686 14.0066 72.5686H82.5089C82.842 72.5686 83.1126 72.8442 83.1126 73.1849V75.9831ZM78.145 86.5371H18.368V77.9997H78.145V86.5371ZM19.3675 71.0856C19.3675 70.5746 19.7759 70.1612 20.2769 70.1612H30.846C31.347 70.1612 31.7553 70.5746 31.7553 71.0856V71.1683H19.3675V71.0856ZM36.2545 57.052C37.5421 56.8491 38.6794 56.6462 39.6965 56.4658L38.4565 60.7746L38.4139 60.9249C38.3438 61.1704 38.4114 61.4359 38.5943 61.6163L45.9192 68.8661C46.077 69.0214 46.3 69.0941 46.5154 69.0615C46.7359 69.0289 46.9263 68.8936 47.029 68.7007L48.2665 66.391L49.4815 68.6957C49.5867 68.8911 49.7771 69.0264 49.995 69.0615C50.0326 69.0665 50.0677 69.069 50.1027 69.069C50.1528 69.069 50.1979 69.0515 50.248 69.0414C50.2781 69.0339 50.3082 69.0339 50.3382 69.0239C50.4334 68.9888 50.5211 68.9387 50.5937 68.8661L57.9187 61.6163C58.1016 61.4359 58.1717 61.1704 58.0991 60.9249L58.0565 60.7746L56.8164 56.4658C57.8335 56.6462 58.9733 56.8491 60.256 57.052C64.6098 57.7559 67.1325 61.694 67.7663 68.7609H65.667C64.3944 68.7609 63.3573 69.803 63.3573 71.0856V71.1683H33.1557V71.0856C33.1557 69.803 32.1211 68.7609 30.846 68.7609H28.7467C29.3805 61.694 31.9056 57.7559 36.2545 57.052ZM41.3699 55.7719C41.3749 55.7543 41.3674 55.7343 41.3699 55.7168L41.405 55.599L42.6325 55.2157V57.4528C42.6325 57.5906 42.6726 57.7259 42.7477 57.8386L47.4573 64.9331L46.2374 67.2127L39.8769 60.9149L41.3699 55.7719ZM37.7901 43.8776V39.8619C42.6024 39.3183 47.6477 37.4319 52.8083 34.2454C54.4616 36.1994 56.4156 37.6599 58.7504 38.6845V43.8776C58.7504 49.7095 54.0508 54.4567 48.2715 54.4567C42.4922 54.4567 37.7901 49.7095 37.7901 43.8776ZM36.3898 39.2306V42.1466C35.0094 39.2306 34.6237 35.5456 35.5105 32.6622C37.3968 26.5648 43.5544 24.4004 48.2565 24.4004C52.9586 24.4004 59.1186 26.5648 61.0025 32.6622C61.8868 35.5256 61.511 39.1805 60.1533 42.0864V38.2211C60.1533 37.938 59.9804 37.6825 59.7174 37.5747C57.2223 36.5552 55.1906 35.0245 53.5097 32.8902C53.2867 32.6071 52.8884 32.5395 52.5853 32.7324C47.2018 36.1418 41.9686 38.0933 37.0286 38.5317C36.6653 38.5643 36.3898 38.8674 36.3898 39.2306ZM48.269 63.6279L44.0329 57.2424V55.0554C45.3531 55.5664 46.776 55.857 48.2715 55.857C49.7545 55.857 51.1699 55.569 52.4826 55.0654V57.2424L48.269 63.6279ZM55.1105 55.599L55.143 55.7168C55.148 55.7343 55.1405 55.7543 55.1455 55.7719L56.6386 60.9149L56.581 60.9725L50.2806 67.2077L49.0832 64.9381L53.7677 57.8386C53.8429 57.7234 53.883 57.5906 53.883 57.4528V55.2157L55.1105 55.599ZM76.2386 70.1612C76.7396 70.1612 77.1479 70.5746 77.1479 71.0856V71.1683H64.7602V71.0856C64.7602 70.5746 65.166 70.1612 65.667 70.1612H76.2386ZM24.5832 52.9185C24.5832 51.19 25.9209 49.8373 27.6294 49.8373C29.3504 49.8373 30.7007 51.19 30.7007 52.9185C30.7007 54.6596 29.3504 56.0249 27.6294 56.0249C25.9209 56.0249 24.5832 54.6596 24.5832 52.9185ZM68.8861 56.0249C67.1626 56.0249 65.8123 54.6596 65.8123 52.9185C65.8123 51.19 67.1626 49.8373 68.8861 49.8373C70.5946 49.8373 71.9323 51.19 71.9323 52.9185C71.9323 54.6596 70.5946 56.0249 68.8861 56.0249ZM82.5089 71.1683H78.5483V71.0856C78.5483 69.803 77.5137 68.7609 76.2386 68.7609H73.8487C74.2395 63.4926 72.7339 59.016 71.5941 56.4933C72.6513 55.6767 73.3326 54.3991 73.3326 52.9185C73.3326 50.4485 71.3386 48.4394 68.8861 48.4394C66.3785 48.4394 64.4119 50.4059 64.4119 52.9185C64.4119 55.4462 66.3785 57.4252 68.8861 57.4252C69.4096 57.4252 69.8981 57.32 70.3591 57.1597C71.4413 59.5821 72.8391 63.8133 72.4458 68.7609H69.1666C68.4878 60.9023 65.5718 56.4933 60.4764 55.6692C59.1437 55.4587 57.9663 55.2483 56.9242 55.0629L56.3856 54.9677L56.353 54.8525C56.2879 54.6245 56.1125 54.4467 55.8896 54.3765L54.627 53.9807C57.6732 52.0267 59.7775 48.7225 60.1006 44.9022C62.6208 41.5303 63.5627 36.2095 62.3427 32.2489C60.6067 26.6299 55.0779 23 48.2565 23C41.4376 23 35.9088 26.6324 34.1727 32.2489C32.9578 36.1919 33.8872 41.4802 36.4424 44.9247C36.7705 48.73 38.8723 52.0242 41.906 53.9757L40.6259 54.3765C40.4004 54.4467 40.2276 54.6245 40.1625 54.8525L40.1299 54.9677L39.5888 55.0629C38.5467 55.2483 37.3693 55.4587 36.034 55.6692C30.9437 56.4933 28.0277 60.9023 27.3488 68.7609H24.0696C23.6763 63.8108 25.0742 59.5821 26.1539 57.1597C26.6173 57.32 27.1058 57.4252 27.6294 57.4252C30.137 57.4252 32.101 55.4462 32.101 52.9185C32.101 50.4059 30.137 48.4394 27.6294 48.4394C25.1769 48.4394 23.1828 50.4485 23.1828 52.9185C23.1828 54.3966 23.8617 55.6767 24.9189 56.4933C23.7815 59.016 22.276 63.4926 22.6668 68.7609H20.2769C19.0018 68.7609 17.9647 69.803 17.9647 71.0856V71.1683H14.0066C12.8993 71.1683 12 72.0726 12 73.1849V75.9831C12 77.0954 12.8993 77.9997 14.0066 77.9997H16.9676V87.2361C16.9676 87.6244 17.2808 87.9375 17.6666 87.9375H78.8464C79.2347 87.9375 79.5478 87.6244 79.5478 87.2361V77.9997H82.5089C83.6136 77.9997 84.513 77.0954 84.513 75.9831V73.1849C84.513 72.0726 83.6136 71.1683 82.5089 71.1683Z" fill="#0C0C0C"/>
</svg>
