<svg width="198" height="228" viewBox="0 0 198 228" fill="none" xmlns="http://www.w3.org/2000/svg">
<path d="M-7.69395 34.5418C-8.37795 39.1018 -8.98596 43.9278 -9.47996 49.0198C-10.126 56.0118 -10.4299 62.5858 -10.4679 68.7418C-5.75595 67.4878 -0.81596 66.3098 4.39004 65.3218C24.986 61.3318 43.834 60.6858 59.946 61.5978C43.606 42.8638 29.09 33.2498 20.236 28.3477C18.526 27.3977 6.36605 20.6337 0.286045 24.2437C-1.23396 25.1177 -2.71597 26.5618 -2.71597 26.5618C-5.71796 29.3738 -7.04795 32.6418 -7.69395 34.5418Z" fill="#373737"/>
<path d="M39.35 205.921L128.916 160.321C131.082 145.805 147.65 27.0934 104.102 7.63739C101.328 6.38339 98.212 5.50939 94.792 5.12939C73.398 8.81539 56.792 11.3994 46.684 12.9574C18.032 17.2894 -1.61397 19.7214 -6.78197 32.3374C-7.23796 33.4014 -7.46596 34.3514 -7.57996 34.9214C-6.78195 32.4134 -4.76794 27.2454 -0.169952 25.4594C-0.169952 25.4594 5.56805 23.1794 14.688 29.2594C31.864 40.6974 37.944 172.633 39.35 205.921Z" fill="#F7F7F7"/>
<path d="M105.014 18.353L30.838 31.919" stroke="#D5E1FA" stroke-miterlimit="10"/>
<path d="M112.804 27.7778L53.372 39.2538" stroke="#D5E1FA" stroke-miterlimit="10"/>
<path d="M100.454 43.0532L36.31 56.0872" stroke="#D5E1FA" stroke-miterlimit="10"/>
<path d="M122.418 60.3433L42.96 77.6333" stroke="#D5E1FA" stroke-miterlimit="10"/>
<path d="M122.418 72.1997L87.23 80.4837" stroke="#D5E1FA" stroke-miterlimit="10"/>
<path d="M112.804 84.9673L45.088 99.9013" stroke="#D5E1FA" stroke-miterlimit="10"/>
<path d="M120.138 99.6353L51.244 115.747" stroke="#D5E1FA" stroke-miterlimit="10"/>
<path d="M84 61.9019L96.92 176.586L34.22 204.478L17.69 71.4779L84 61.9019Z" fill="#B1CEFC"/>
<path d="M56.108 76.1891L82.784 72.2751L82.214 65.4351L55.538 69.3491L56.108 76.1891Z" fill="#5487D7"/>
<path d="M135.794 163.514L134.958 163.02C115.502 158.498 91.904 151.24 66.368 139.384C45.126 129.504 27.342 118.674 13.016 108.642C15.676 146.224 18.374 183.844 21.034 221.426" fill="white"/>
<path d="M135.794 163.514L134.958 163.02C115.502 158.498 91.904 151.24 66.368 139.384C45.126 129.504 27.342 118.674 13.016 108.642C15.676 146.224 18.374 183.844 21.034 221.426" stroke="#373737" stroke-width="0.75" stroke-miterlimit="10"/>
<path d="M137.162 86.6772L135.794 163.513L21.034 221.463L137.162 86.6772Z" fill="white" stroke="#373737" stroke-width="0.75" stroke-miterlimit="10"/>
<path d="M122.57 120.231L134.996 114.151L135.224 100.775L122.57 106.741V120.231Z" fill="#5185EC"/>
<path d="M123.938 118.104L133.666 113.354L133.818 102.904L123.938 107.578V118.104Z" fill="#D5E1FA"/>
<path d="M49.952 145.083C40.338 147.629 30.686 150.213 21.072 152.759C20.35 152.949 20.046 151.847 20.768 151.657C30.382 149.111 40.034 146.527 49.648 143.981C50.332 143.791 50.636 144.893 49.952 145.083Z" fill="#D5E1FA"/>
<path d="M55.006 148.769C50.826 149.643 46.684 150.821 42.656 152.303C41.972 152.569 41.668 151.467 42.352 151.201C46.38 149.757 50.522 148.579 54.702 147.667C55.424 147.515 55.728 148.617 55.006 148.769Z" fill="#D5E1FA"/>
<path d="M52.08 154.887C44.29 157.319 36.538 159.751 28.748 162.145C28.064 162.373 27.76 161.271 28.444 161.043C36.234 158.611 43.986 156.179 51.776 153.785C52.46 153.557 52.764 154.659 52.08 154.887Z" fill="#D5E1FA"/>
<path d="M147.08 159.904C148.904 160.208 150.158 160.436 151.07 160.588C152.476 160.816 153.692 161.044 155.212 161.728C155.364 161.804 155.478 161.842 155.592 161.918C156.466 162.374 157.644 163.21 158.746 164.73C159.772 165.034 160.57 165.414 161.102 165.68C162.356 166.326 165.016 167.656 166.46 170.468C166.764 171.076 166.954 171.608 167.03 171.912C166.84 172.444 166.46 173.204 165.738 173.698C164.446 174.572 162.812 174.078 161.52 173.698C157.226 172.406 155.06 171.76 152.856 170.582C150.842 169.518 148.22 167.96 145.37 165.718C145.294 165.072 145.256 164.008 145.598 162.792C145.902 161.386 146.624 160.398 147.08 159.904Z" fill="#FFCA9D"/>
<path d="M99.808 119.927C100.796 116.127 107.028 114.759 109.042 114.379C109.346 114.797 109.84 115.443 110.372 116.279C112.12 118.977 113.108 121.181 113.602 122.283C115.008 125.475 117.896 131.783 121.582 140.143C123.824 141.815 126.066 143.487 128.308 145.197C129.486 146.109 132.07 148.047 135.072 150.403C138.188 152.835 142.254 156.027 147.08 159.903C146.662 160.397 146.016 161.271 145.598 162.525C145.18 163.893 145.218 165.071 145.294 165.717C141.418 164.045 138.188 162.525 135.832 161.385C125.838 156.483 118.846 151.961 116.604 150.441C114.134 148.807 112.158 147.401 110.79 146.413C109.916 145.197 108.852 143.639 107.712 141.739C106.648 139.953 105.242 137.369 103.836 134.139C102.468 130.909 101.784 128.515 100.796 125.209C99.618 121.029 99.694 120.383 99.808 119.927Z" fill="#227E91"/>
<path d="M149.474 160.094C153.16 160.854 157.53 161.462 159.164 165.338C159.202 165.414 159.164 165.528 159.088 165.566C157.264 166.212 155.896 164.654 154.11 164.464C153.92 164.464 153.92 164.16 154.11 164.16C155.06 164.274 155.744 164.654 156.618 165.034C157.302 165.338 158.556 165.718 158.556 164.692C158.556 164.046 157.378 163.21 156.884 162.868C154.718 161.234 151.944 160.892 149.398 160.36C149.208 160.322 149.284 160.056 149.474 160.094Z" fill="#373737"/>
<path d="M166.004 172.862C164.408 170.924 162.432 169.442 160.114 168.492C159.962 168.416 160.038 168.15 160.19 168.226C162.546 169.176 164.598 170.696 166.194 172.672C166.346 172.824 166.118 173.014 166.004 172.862Z" fill="#373737"/>
<path d="M164.902 173.355C163.914 172.709 162.964 171.987 161.938 171.379C161.064 170.847 160.038 170.733 159.126 170.315C158.974 170.239 159.088 170.011 159.278 170.087C160.19 170.505 161.216 170.619 162.09 171.151C163.116 171.759 164.066 172.481 165.054 173.127C165.206 173.241 165.092 173.469 164.902 173.355Z" fill="#373737"/>
<path d="M163.458 173.736C162.166 173.204 160.836 172.748 159.468 172.368C159.278 172.33 159.354 172.064 159.544 172.102C160.912 172.482 162.28 172.938 163.61 173.508C163.762 173.584 163.648 173.812 163.458 173.736Z" fill="#373737"/>
<path d="M175.238 180.499C165.32 176.737 155.364 172.937 145.446 169.175C145.218 171.227 144.99 173.317 144.762 175.369C154.908 177.079 165.054 178.789 175.238 180.499Z" fill="white"/>
<path d="M183.636 181.905C172.654 176.927 161.71 171.911 150.728 166.933C148.942 167.693 147.118 168.453 145.332 169.213C153.54 172.367 161.748 175.521 169.956 178.675C171.058 179.093 172.16 179.511 173.262 179.929C170.982 179.549 168.702 179.093 166.346 178.599C157.454 176.699 149.322 174.305 141.912 171.645C140.506 172.139 139.024 172.709 137.466 173.431C134.806 174.647 132.526 176.015 130.626 177.307C134.008 177.953 137.466 178.523 140.962 179.093C141.76 179.207 142.52 179.359 143.318 179.473C143.432 181.183 143.546 182.893 143.66 184.641C154.49 183.729 165.282 182.817 176.112 181.905C178.62 181.829 181.128 181.867 183.636 181.905Z" fill="#B1CEFC"/>
<path d="M145.446 169.175C145.522 170.353 145.56 171.569 145.636 172.747C145.636 172.937 145.37 172.937 145.332 172.747C145.256 171.569 145.218 170.353 145.142 169.175C145.142 168.985 145.446 168.985 145.446 169.175Z" fill="#373737"/>
<path d="M183.636 182.019C168.816 181.449 153.768 181.525 139.138 178.865C138.948 178.827 139.024 178.561 139.214 178.599C153.806 181.297 168.854 181.183 183.636 181.753C183.826 181.753 183.826 182.019 183.636 182.019Z" fill="white"/>
<path d="M141.038 171.949C138.378 173.089 135.794 174.381 133.248 175.787C133.096 175.863 132.944 175.635 133.096 175.559C135.604 174.153 138.226 172.861 140.886 171.721C141.038 171.645 141.19 171.873 141.038 171.949Z" fill="#373737"/>
<path d="M143.242 179.739C143.356 181.221 143.508 182.665 143.622 184.147C143.622 184.337 143.356 184.337 143.318 184.147C143.204 182.665 143.052 181.221 142.938 179.739C142.938 179.587 143.204 179.587 143.242 179.739Z" fill="#373737"/>
<path d="M108.966 113.126C109.498 114.152 109.536 115.14 109.612 116.66C109.726 120.27 108.396 123.082 107.598 124.526C107.104 125.21 106.344 126.198 105.28 127.338C103.532 129.238 101.784 130.682 99.96 131.974C92.74 137.142 83.772 140.752 80.01 142.158C78.262 142.804 76.818 143.298 75.982 143.602C72.372 142.652 68.002 141.17 63.328 138.852C59.756 137.066 56.716 135.166 54.246 133.38C55.728 130.796 57.97 127.528 61.124 124.184C66.368 118.636 71.536 115.748 75.412 113.696C79.478 111.53 82.214 110.086 86.356 109.326C89.472 108.756 91.752 108.87 94.792 108.984C101.29 109.364 107.104 109.592 108.966 113.126Z" fill="#227E91"/>
<path d="M107.712 124.639C105.204 127.945 102.164 130.795 98.668 133.075C98.516 133.189 98.364 132.923 98.516 132.847C101.974 130.567 104.938 127.793 107.446 124.487C107.56 124.335 107.826 124.487 107.712 124.639Z" fill="white"/>
<path d="M133.324 169.556C133.97 169.48 134.806 169.48 135.832 169.556C136.212 169.594 137.618 169.746 139.366 170.392C140.316 170.734 141 171 141.722 171.608C142.216 172.026 143.052 172.748 142.9 173.318C142.672 174.23 140.316 173.926 140.05 174.838C139.936 175.218 140.354 175.674 141.152 176.586C142.216 177.802 142.9 178.562 144.078 179.094C144.724 179.398 145.332 179.474 146.51 179.664C148.638 179.968 149.436 179.702 150.12 180.386C150.652 180.918 150.69 181.64 150.69 181.83C150.69 183.008 149.664 183.844 148.98 184.376C146.966 186.01 144.648 186.124 144.078 186.162C141.722 186.238 139.974 185.364 139.176 184.946C136.326 183.464 134.882 181.108 133.628 179.094C132.526 177.27 131.842 175.636 131.424 174.42C132.07 172.786 132.716 171.152 133.324 169.556Z" fill="#FFCA9D"/>
<path d="M87.116 112.631C87.344 112.783 87.99 113.239 88.598 113.923C89.358 114.797 89.662 115.595 90.194 116.811C91.258 119.319 91.144 118.749 91.828 120.421C93.462 124.525 94.678 129.161 94.678 129.161C96.806 137.331 98.858 147.516 99.162 148.96C103.874 151.392 107.864 153.595 110.904 155.343C115.654 158.041 121.05 161.158 127.662 165.718C129.942 167.276 131.804 168.644 133.02 169.556C133.02 170.24 132.944 171.228 132.526 172.33C132.222 173.204 131.804 173.888 131.462 174.382C129.79 174.191 127.434 173.85 124.66 173.356C119.074 172.33 114.476 170.924 105.28 168.15C105.28 168.15 102.05 167.161 96.616 164.882C95.4 164.349 94.374 163.932 93.158 163.058C92.664 162.716 90.992 161.462 88.902 158.726C87.61 157.054 86.926 155.647 86.014 153.823C83.278 148.275 81.872 145.54 81.53 144.666C78.034 136.762 75.45 128.592 74.462 125.286C74.12 124.564 73.132 122.359 73.816 119.813C74.272 118.027 75.298 116.964 76.096 116.128C79.174 112.974 84.456 110.959 87.116 112.631Z" fill="#227E91"/>
<path d="M88.712 113.848C93.006 120.194 93.994 127.794 96.198 134.976C96.236 135.166 95.97 135.242 95.932 135.052C93.728 127.908 92.74 120.308 88.446 114C88.37 113.848 88.598 113.696 88.712 113.848Z" fill="white"/>
<path d="M150.538 181.525C149.816 182.019 148.904 181.981 148.03 181.981C146.89 181.981 145.712 181.867 144.572 181.715C144.382 181.677 144.458 181.411 144.648 181.449C146.168 181.677 148.98 182.209 150.348 181.335C150.538 181.183 150.69 181.411 150.538 181.525Z" fill="#373737"/>
<path d="M150.386 182.552C148.524 183.464 146.51 183.654 144.496 183.768C144.306 183.768 144.306 183.502 144.496 183.464C146.472 183.35 148.448 183.198 150.234 182.286C150.386 182.248 150.538 182.476 150.386 182.552Z" fill="#373737"/>
<path d="M149.702 183.806C148.638 184.68 147.384 185.212 146.016 185.326C145.826 185.326 145.826 185.06 146.016 185.022C147.308 184.908 148.524 184.414 149.512 183.578C149.626 183.502 149.854 183.692 149.702 183.806Z" fill="#373737"/>
<path d="M74.31 124.564C75.754 129.238 77.312 133.874 79.022 138.472C79.098 138.662 78.794 138.7 78.756 138.548C77.046 133.95 75.45 129.314 74.044 124.64C73.968 124.45 74.234 124.412 74.31 124.564Z" fill="white"/>
<path d="M100.226 117.989C100.112 118.103 99.846 118.293 99.846 118.293C99.77 118.369 99.2 118.749 98.63 118.787C98.022 118.863 97.528 118.559 96.882 118.179C95.932 117.571 95.438 116.849 95.248 116.583C95.096 116.355 94.83 115.937 94.678 115.367C94.412 114.379 94.374 112.593 95.286 112.061C96.35 111.453 98.098 113.011 98.402 113.277C100.15 114.835 100.872 117.305 100.226 117.989Z" fill="#FFCA9D"/>
<path d="M99.2 117.685C98.896 117.761 98.592 117.799 98.25 117.799C98.06 117.799 98.06 117.533 98.25 117.495C98.554 117.495 98.82 117.457 99.124 117.381C99.314 117.381 99.39 117.647 99.2 117.685Z" fill="#373737"/>
<path d="M108.738 112.024C108.7 112.404 108.51 112.86 108.32 113.354C108.092 113.924 107.674 114.95 106.8 115.9C106.344 116.394 105.47 117.382 103.988 117.876C102.278 118.484 100.796 118.104 100.264 117.952C99.0104 117.61 98.1744 117.04 97.7184 116.66C97.1864 116.242 96.2364 115.558 95.5904 114.304C95.5144 114.152 95.1344 113.392 94.9444 112.328C94.8304 111.644 94.6024 110.352 95.1724 108.946C95.3244 108.604 95.7804 107.54 96.8064 106.78C98.7824 105.298 101.404 105.982 102.468 106.248C105.774 107.16 109.042 109.934 108.738 112.024Z" fill="#FFCA9D"/>
<path d="M106.192 113.354C105.964 114.228 105.698 115.102 105.28 115.9C105.014 116.432 104.672 116.888 104.026 116.888C103.836 116.888 103.836 116.622 104.026 116.584C104.824 116.546 105.166 115.52 105.432 114.874C105.66 114.342 105.812 113.81 105.926 113.24C105.964 113.088 106.23 113.164 106.192 113.354Z" fill="#373737"/>
<path d="M104.938 112.327C104.596 111.795 103.912 112.023 103.494 112.289C103.342 112.365 103.19 112.137 103.342 112.061C103.95 111.719 104.748 111.529 105.204 112.213C105.28 112.365 105.052 112.479 104.938 112.327Z" fill="#373737"/>
<path d="M107.674 113.163C107.484 112.821 107.104 112.631 106.724 112.897C106.572 113.011 106.42 112.745 106.572 112.669C107.028 112.327 107.636 112.593 107.902 113.049C108.016 113.163 107.788 113.315 107.674 113.163Z" fill="#373737"/>
<path d="M103.298 114.504C103.082 114.421 102.98 114.164 103.07 113.929C103.16 113.694 103.408 113.569 103.623 113.652C103.839 113.734 103.941 113.992 103.851 114.227C103.762 114.462 103.514 114.586 103.298 114.504Z" fill="#373737"/>
<path d="M106.299 115.233C106.083 115.151 105.981 114.894 106.071 114.659C106.161 114.423 106.409 114.299 106.624 114.381C106.84 114.464 106.942 114.721 106.852 114.956C106.762 115.192 106.515 115.316 106.299 115.233Z" fill="#373737"/>
<path d="M87.002 102.675C87.268 107.349 93.196 110.883 98.288 110.579C103.988 110.199 109.004 104.955 108.548 100.965C108.358 99.4451 107.294 97.4311 105.698 96.9751C103.912 96.4811 102.658 98.3051 101.176 97.6971C99.504 97.0131 100.112 94.4671 98.744 93.5931C96.122 91.9211 86.622 96.5571 87.002 102.675Z" fill="#5185EC"/>
<path d="M108.738 112.517C108.738 112.213 108.662 111.415 108.092 110.655C107.864 110.389 107.218 109.591 106.154 109.477C105.128 109.363 104.33 109.857 103.76 110.237C102.772 110.883 102.772 111.377 101.784 111.833C101.442 111.985 100.872 112.289 100.15 112.251C99.922 112.251 99.504 112.175 97.3 110.921C96.578 110.503 96.198 110.313 95.742 110.313C95.134 110.313 94.678 110.617 94.374 110.883C94.26 110.313 94.146 109.477 94.298 108.451C94.792 105.411 97.338 103.815 97.604 103.625C100.226 102.029 102.962 102.827 103.95 103.093C105.622 103.549 106.724 104.385 107.636 105.107C110.296 107.159 113.108 110.769 112.234 112.099C111.968 112.593 111.132 112.973 108.738 112.517Z" fill="#5185EC"/>
<path d="M104.33 103.436C104.216 103.322 102.278 101.46 99.6564 102.106C97.4904 102.638 96.578 104.538 96.464 104.804C96.92 104.348 98.06 103.36 99.808 102.98C101.974 102.448 103.76 103.17 104.33 103.436Z" fill="#B1CEFC"/>
</svg>
