<svg width="364" height="364" viewBox="0 0 364 364" fill="none" xmlns="http://www.w3.org/2000/svg">
<path d="M328.389 55.1463C329.481 62.4264 330.451 70.1311 331.24 78.2604C332.271 89.4231 332.757 99.9184 332.817 109.746C325.295 107.744 317.408 105.864 309.097 104.286C276.215 97.9164 246.125 96.8851 220.402 98.3411C246.489 68.4324 269.663 53.0836 283.799 45.2576C286.529 43.741 305.942 32.9423 315.649 38.7056C318.075 40.101 320.441 42.4063 320.441 42.4063C325.234 46.8956 327.357 52.113 328.389 55.1463Z" fill="#373737"/>
<path d="M253.283 328.753L110.292 255.953C106.834 232.778 80.3833 43.2558 149.907 12.1944C154.336 10.1924 159.311 8.7971 164.771 8.19043C198.926 14.0751 225.437 18.2004 241.575 20.6878C287.317 27.6038 318.682 31.4864 326.933 51.6278C327.661 53.3264 328.025 54.8431 328.207 55.7531C326.933 51.7491 323.717 43.4984 316.377 40.6471C316.377 40.6471 307.216 37.0071 292.656 46.7138C265.235 64.9744 255.528 275.609 253.283 328.753Z" fill="#F7F7F7"/>
<path d="M148.451 29.3018L266.873 50.9598" stroke="#D5E1FA" stroke-miterlimit="10"/>
<path d="M136.015 44.3477L230.897 62.6689" stroke="#D5E1FA" stroke-miterlimit="10"/>
<path d="M155.731 68.7354L258.137 89.544" stroke="#D5E1FA" stroke-miterlimit="10"/>
<path d="M120.666 96.3389L247.52 123.942" stroke="#D5E1FA" stroke-miterlimit="10"/>
<path d="M120.666 115.267L176.843 128.492" stroke="#D5E1FA" stroke-miterlimit="10"/>
<path d="M136.015 135.65L244.123 159.492" stroke="#D5E1FA" stroke-miterlimit="10"/>
<path d="M124.306 159.068L234.295 184.791" stroke="#D5E1FA" stroke-miterlimit="10"/>
<path d="M182 98.8262L161.373 281.918L261.473 326.447L287.863 114.114L182 98.8262Z" fill="#B1CEFC"/>
<path d="M226.529 121.636L183.941 115.388L184.851 104.468L227.439 110.716L226.529 121.636Z" fill="#5487D7"/>
<path d="M99.3113 261.049L100.646 260.26C131.707 253.041 169.381 241.454 210.149 222.526C244.062 206.752 272.454 189.462 295.325 173.446C291.079 233.446 286.771 293.506 282.525 353.505" fill="white"/>
<path d="M99.3113 261.049L100.646 260.26C131.707 253.041 169.381 241.454 210.149 222.526C244.062 206.752 272.454 189.462 295.325 173.446C291.079 233.446 286.771 293.506 282.525 353.505" stroke="#373737" stroke-width="0.75" stroke-miterlimit="10"/>
<path d="M97.1273 138.381L99.3113 261.049L282.525 353.566L97.1273 138.381Z" fill="white" stroke="#373737" stroke-width="0.75" stroke-miterlimit="10"/>
<path d="M120.423 191.949L100.585 182.242L100.221 160.888L120.423 170.412V191.949Z" fill="#5185EC"/>
<path d="M118.239 188.552L102.709 180.968L102.466 164.285L118.239 171.747V188.552Z" fill="#D5E1FA"/>
<path d="M236.357 231.625C251.706 235.69 267.115 239.815 282.464 243.88C283.617 244.183 284.102 242.424 282.949 242.121C267.601 238.056 252.191 233.931 236.843 229.866C235.751 229.563 235.265 231.322 236.357 231.625Z" fill="#D5E1FA"/>
<path d="M228.289 237.51C234.962 238.905 241.575 240.786 248.005 243.152C249.097 243.576 249.583 241.817 248.491 241.392C242.06 239.087 235.447 237.206 228.774 235.75C227.621 235.508 227.136 237.267 228.289 237.51Z" fill="#D5E1FA"/>
<path d="M232.96 247.277C245.397 251.16 257.773 255.043 270.209 258.865C271.301 259.229 271.787 257.469 270.695 257.105C258.258 253.223 245.882 249.34 233.445 245.518C232.353 245.154 231.868 246.913 232.96 247.277Z" fill="#D5E1FA"/>
<path d="M81.2934 255.285C78.3814 255.77 76.3794 256.135 74.9234 256.377C72.6787 256.741 70.7374 257.105 68.3107 258.197C68.068 258.319 67.886 258.379 67.704 258.501C66.3087 259.229 64.428 260.563 62.6687 262.99C61.0307 263.475 59.7567 264.082 58.9074 264.506C56.9054 265.538 52.6587 267.661 50.3534 272.151C49.868 273.121 49.5647 273.97 49.4434 274.456C49.7467 275.305 50.3534 276.519 51.506 277.307C53.5687 278.703 56.1774 277.914 58.24 277.307C65.0954 275.245 68.5534 274.213 72.072 272.332C75.2874 270.634 79.4734 268.147 84.0234 264.567C84.1447 263.536 84.2054 261.837 83.6594 259.896C83.174 257.651 82.0214 256.074 81.2934 255.285Z" fill="#FFCA9D"/>
<path d="M156.763 191.464C155.185 185.397 145.236 183.213 142.021 182.606C141.535 183.274 140.747 184.305 139.897 185.64C137.107 189.947 135.529 193.466 134.741 195.225C132.496 200.321 127.885 210.392 122.001 223.738C118.421 226.408 114.842 229.077 111.263 231.807C109.382 233.263 105.257 236.357 100.464 240.118C95.4893 244.001 88.998 249.097 81.2933 255.285C81.9607 256.074 82.992 257.469 83.6593 259.471C84.3267 261.655 84.266 263.536 84.1447 264.567C90.3327 261.898 95.4893 259.471 99.2507 257.651C115.206 249.825 126.369 242.606 129.948 240.179C133.891 237.57 137.046 235.326 139.23 233.748C140.625 231.807 142.324 229.32 144.144 226.286C145.843 223.435 148.087 219.31 150.332 214.153C152.516 208.996 153.608 205.174 155.185 199.896C157.066 193.223 156.945 192.192 156.763 191.464Z" fill="#227E91"/>
<path d="M77.4713 255.589C71.5867 256.802 64.61 257.773 62.0013 263.961C61.9407 264.082 62.0013 264.264 62.1227 264.325C65.0347 265.356 67.2187 262.869 70.07 262.566C70.3733 262.566 70.3733 262.08 70.07 262.08C68.5533 262.262 67.4613 262.869 66.066 263.476C64.974 263.961 62.972 264.568 62.972 262.93C62.972 261.898 64.8527 260.564 65.6413 260.018C69.0993 257.409 73.528 256.863 77.5927 256.014C77.896 255.953 77.7747 255.528 77.4713 255.589Z" fill="#373737"/>
<path d="M51.0814 275.973C53.6294 272.879 56.7841 270.513 60.4847 268.996C60.7273 268.875 60.6061 268.45 60.3634 268.571C56.6021 270.088 53.3261 272.515 50.7781 275.669C50.5354 275.912 50.8994 276.215 51.0814 275.973Z" fill="#373737"/>
<path d="M52.8407 276.761C54.418 275.73 55.9347 274.577 57.5727 273.607C58.968 272.757 60.6061 272.575 62.062 271.908C62.3047 271.787 62.1227 271.423 61.8194 271.544C60.3634 272.211 58.7254 272.393 57.33 273.243C55.692 274.213 54.1754 275.366 52.598 276.397C52.3554 276.579 52.5374 276.943 52.8407 276.761Z" fill="#373737"/>
<path d="M55.1459 277.368C57.2086 276.519 59.3319 275.791 61.516 275.184C61.8193 275.124 61.698 274.699 61.3947 274.76C59.2106 275.366 57.0266 276.094 54.9032 277.004C54.6606 277.126 54.8426 277.49 55.1459 277.368Z" fill="#373737"/>
<path d="M36.3392 288.167C52.1732 282.161 68.068 276.094 83.902 270.088C84.266 273.364 84.63 276.701 84.994 279.977C68.796 282.707 52.5979 285.437 36.3392 288.167Z" fill="white"/>
<path d="M22.9319 290.411C40.4646 282.464 57.9366 274.456 75.4693 266.509C78.3207 267.722 81.2327 268.935 84.084 270.149C70.98 275.184 57.8759 280.219 44.7719 285.255C43.0126 285.922 41.2532 286.589 39.4939 287.257C43.1339 286.65 46.7739 285.922 50.5352 285.133C64.7313 282.1 77.714 278.278 89.544 274.031C91.7887 274.82 94.1547 275.73 96.642 276.883C100.889 278.824 104.529 281.008 107.562 283.071C102.163 284.102 96.642 285.012 91.0607 285.922C89.7867 286.104 88.5733 286.347 87.2993 286.529C87.1173 289.259 86.9353 291.989 86.7533 294.779C69.4633 293.323 52.2339 291.867 34.9439 290.411C30.9399 290.29 26.9359 290.351 22.9319 290.411Z" fill="#B1CEFC"/>
<path d="M83.902 270.088C83.7806 271.969 83.72 273.91 83.5986 275.791C83.5986 276.094 84.0233 276.094 84.084 275.791C84.2053 273.91 84.266 271.969 84.3873 270.088C84.3873 269.785 83.902 269.785 83.902 270.088Z" fill="#373737"/>
<path d="M22.9318 290.593C46.5918 289.683 70.616 289.804 93.9726 285.558C94.276 285.497 94.1546 285.072 93.8513 285.133C70.5553 289.44 46.5312 289.258 22.9318 290.168C22.6285 290.168 22.6285 290.593 22.9318 290.593Z" fill="white"/>
<path d="M90.9393 274.516C95.186 276.336 99.3113 278.399 103.376 280.644C103.619 280.765 103.861 280.401 103.619 280.28C99.6147 278.035 95.4287 275.972 91.182 274.152C90.9393 274.031 90.6967 274.395 90.9393 274.516Z" fill="#373737"/>
<path d="M87.4207 286.953C87.2387 289.319 86.996 291.625 86.814 293.991C86.814 294.294 87.2387 294.294 87.2994 293.991C87.4814 291.625 87.724 289.319 87.906 286.953C87.906 286.711 87.4814 286.711 87.4207 286.953Z" fill="#373737"/>
<path d="M142.142 180.605C141.293 182.243 141.232 183.82 141.111 186.247C140.929 192.01 143.052 196.5 144.326 198.805C145.115 199.897 146.328 201.474 148.027 203.294C150.817 206.328 153.608 208.633 156.52 210.696C168.047 218.946 182.364 224.71 188.37 226.954C191.161 227.986 193.466 228.774 194.801 229.26C200.564 227.743 207.541 225.377 215.003 221.676C220.705 218.825 225.559 215.792 229.502 212.94C227.136 208.815 223.557 203.598 218.521 198.259C210.149 189.402 201.899 184.791 195.711 181.515C189.219 178.057 184.851 175.752 178.239 174.538C173.264 173.628 169.624 173.81 164.771 173.992C154.397 174.599 145.115 174.963 142.142 180.605Z" fill="#227E91"/>
<path d="M144.144 198.987C148.148 204.265 153.001 208.815 158.583 212.455C158.825 212.637 159.068 212.212 158.825 212.091C153.305 208.451 148.573 204.022 144.569 198.744C144.387 198.501 143.962 198.744 144.144 198.987Z" fill="white"/>
<path d="M103.255 270.695C102.223 270.573 100.889 270.573 99.2507 270.695C98.644 270.755 96.3994 270.998 93.6087 272.029C92.092 272.575 91 273 89.8474 273.971C89.0587 274.638 87.724 275.791 87.9667 276.701C88.3307 278.157 92.092 277.671 92.5167 279.127C92.6987 279.734 92.0314 280.462 90.7574 281.918C89.0587 283.859 87.9667 285.072 86.086 285.922C85.0547 286.407 84.084 286.528 82.2034 286.832C78.806 287.317 77.532 286.893 76.44 287.985C75.5907 288.834 75.53 289.987 75.53 290.29C75.53 292.171 77.168 293.505 78.26 294.355C81.4754 296.963 85.176 297.145 86.086 297.206C89.8474 297.327 92.638 295.932 93.912 295.265C98.462 292.899 100.767 289.137 102.769 285.922C104.529 283.01 105.621 280.401 106.288 278.46C105.257 275.851 104.225 273.243 103.255 270.695Z" fill="#FFCA9D"/>
<path d="M177.025 179.816C176.661 180.058 175.63 180.786 174.659 181.878C173.446 183.274 172.961 184.548 172.111 186.489C170.413 190.493 170.595 189.583 169.503 192.252C166.894 198.804 164.953 206.206 164.953 206.206C161.555 219.249 158.279 235.508 157.794 237.813C150.271 241.696 143.901 245.214 139.048 248.005C131.465 252.312 122.85 257.287 112.294 264.567C108.654 267.054 105.681 269.238 103.74 270.694C103.74 271.786 103.861 273.364 104.529 275.123C105.014 276.518 105.681 277.61 106.227 278.399C108.897 278.096 112.658 277.55 117.087 276.761C126.005 275.123 133.345 272.878 148.027 268.45C148.027 268.45 153.183 266.872 161.859 263.232C163.8 262.383 165.438 261.716 167.379 260.32C168.168 259.774 170.837 257.772 174.174 253.404C176.237 250.735 177.329 248.49 178.785 245.578C183.153 236.721 185.397 232.353 185.943 230.958C191.525 218.339 195.65 205.296 197.227 200.018C197.773 198.865 199.351 195.346 198.259 191.282C197.531 188.43 195.893 186.732 194.619 185.397C189.705 180.362 181.272 177.146 177.025 179.816Z" fill="#227E91"/>
<path d="M174.477 181.758C167.622 191.889 166.045 204.022 162.526 215.488C162.465 215.792 162.89 215.913 162.951 215.61C166.469 204.204 168.047 192.071 174.902 182C175.023 181.758 174.659 181.515 174.477 181.758Z" fill="white"/>
<path d="M75.7726 289.805C76.9253 290.594 78.3813 290.533 79.7766 290.533C81.5966 290.533 83.4773 290.351 85.2973 290.108C85.6006 290.048 85.4793 289.623 85.176 289.684C82.7493 290.048 78.26 290.897 76.076 289.502C75.7726 289.259 75.53 289.623 75.7726 289.805Z" fill="#373737"/>
<path d="M76.0153 291.443C78.988 292.899 82.2033 293.202 85.4186 293.384C85.722 293.384 85.722 292.96 85.4186 292.899C82.264 292.717 79.1093 292.474 76.258 291.018C76.0153 290.958 75.7726 291.322 76.0153 291.443Z" fill="#373737"/>
<path d="M77.1073 293.445C78.806 294.84 80.808 295.689 82.992 295.871C83.2953 295.871 83.2953 295.447 82.992 295.386C80.9293 295.204 78.988 294.415 77.4106 293.081C77.2286 292.959 76.8646 293.263 77.1073 293.445Z" fill="#373737"/>
<path d="M197.47 198.866C195.165 206.328 192.677 213.729 189.947 221.07C189.826 221.373 190.311 221.434 190.372 221.191C193.102 213.85 195.65 206.449 197.895 198.987C198.016 198.684 197.591 198.623 197.47 198.866Z" fill="white"/>
<path d="M156.095 188.37C156.277 188.552 156.702 188.855 156.702 188.855C156.823 188.976 157.733 189.583 158.643 189.644C159.614 189.765 160.403 189.28 161.434 188.673C162.951 187.702 163.739 186.55 164.043 186.125C164.285 185.761 164.71 185.094 164.953 184.184C165.377 182.606 165.438 179.755 163.982 178.906C162.283 177.935 159.493 180.422 159.007 180.847C156.217 183.334 155.064 187.278 156.095 188.37Z" fill="#FFCA9D"/>
<path d="M157.733 187.885C158.219 188.006 158.704 188.067 159.25 188.067C159.553 188.067 159.553 187.642 159.25 187.581C158.765 187.581 158.34 187.521 157.855 187.399C157.551 187.399 157.43 187.824 157.733 187.885Z" fill="#373737"/>
<path d="M142.505 178.845C142.566 179.452 142.869 180.18 143.173 180.968C143.537 181.878 144.204 183.516 145.599 185.033C146.327 185.822 147.723 187.399 150.089 188.188C152.819 189.158 155.185 188.552 156.034 188.309C158.036 187.763 159.371 186.853 160.099 186.246C160.948 185.579 162.465 184.487 163.496 182.485C163.617 182.242 164.224 181.029 164.527 179.33C164.709 178.238 165.073 176.176 164.163 173.931C163.921 173.385 163.193 171.686 161.555 170.473C158.4 168.107 154.214 169.199 152.515 169.624C147.237 171.08 142.02 175.508 142.505 178.845Z" fill="#FFCA9D"/>
<path d="M146.571 180.968C146.935 182.364 147.359 183.759 148.027 185.033C148.451 185.882 148.997 186.61 150.029 186.61C150.332 186.61 150.332 186.186 150.029 186.125C148.755 186.064 148.209 184.426 147.784 183.395C147.42 182.546 147.177 181.696 146.995 180.786C146.935 180.544 146.51 180.665 146.571 180.968Z" fill="#373737"/>
<path d="M148.573 179.331C149.119 178.482 150.211 178.846 150.878 179.27C151.121 179.392 151.363 179.028 151.121 178.906C150.15 178.36 148.876 178.057 148.148 179.149C148.027 179.392 148.391 179.574 148.573 179.331Z" fill="#373737"/>
<path d="M144.205 180.665C144.508 180.119 145.115 179.816 145.721 180.241C145.964 180.423 146.207 179.998 145.964 179.877C145.236 179.331 144.265 179.755 143.841 180.483C143.659 180.665 144.023 180.908 144.205 180.665Z" fill="#373737"/>
<path d="M151.191 182.805C151.535 182.673 151.698 182.263 151.554 181.887C151.411 181.512 151.016 181.313 150.672 181.445C150.327 181.576 150.165 181.987 150.308 182.363C150.451 182.738 150.846 182.937 151.191 182.805Z" fill="#373737"/>
<path d="M146.4 183.97C146.744 183.839 146.907 183.428 146.764 183.052C146.62 182.676 146.225 182.478 145.88 182.61C145.536 182.741 145.373 183.152 145.516 183.528C145.66 183.904 146.056 184.102 146.4 183.97Z" fill="#373737"/>
<path d="M177.207 163.922C176.783 171.384 167.319 177.026 159.189 176.54C150.089 175.934 142.081 167.562 142.809 161.192C143.113 158.765 144.811 155.55 147.359 154.822C150.211 154.033 152.213 156.945 154.579 155.974C157.248 154.882 156.277 150.818 158.461 149.422C162.647 146.753 177.814 154.154 177.207 163.922Z" fill="#5185EC"/>
<path d="M142.506 179.634C142.506 179.149 142.627 177.875 143.537 176.662C143.901 176.237 144.933 174.963 146.631 174.781C148.269 174.599 149.543 175.388 150.453 175.994C152.031 177.026 152.031 177.814 153.608 178.542C154.154 178.785 155.064 179.27 156.217 179.21C156.581 179.21 157.248 179.088 160.767 177.086C161.919 176.419 162.526 176.116 163.254 176.116C164.225 176.116 164.953 176.601 165.438 177.026C165.62 176.116 165.802 174.781 165.559 173.143C164.771 168.29 160.706 165.742 160.281 165.438C156.095 162.89 151.727 164.164 150.15 164.589C147.481 165.317 145.721 166.652 144.265 167.804C140.019 171.08 135.529 176.844 136.925 178.967C137.349 179.756 138.684 180.362 142.506 179.634Z" fill="#5185EC"/>
<path d="M149.543 165.135C149.725 164.953 152.819 161.98 157.005 163.012C160.463 163.861 161.919 166.894 162.101 167.319C161.373 166.591 159.553 165.014 156.763 164.407C153.305 163.558 150.453 164.71 149.543 165.135Z" fill="#B1CEFC"/>
</svg>
