<svg width="99" height="63" viewBox="0 0 99 63" fill="none" xmlns="http://www.w3.org/2000/svg">
<mask id="path-1-outside-1_96_769" maskUnits="userSpaceOnUse" x="-1" y="-1" width="101" height="65" fill="black">
<rect fill="white" x="-1" y="-1" width="101" height="65"/>
<path d="M12.24 63V6.39L19.89 13.77H0.54V-4.29153e-06H30.06V63H12.24ZM38.9046 50.94V39.33L67.1646 -4.29153e-06H85.6146L58.1646 39.33L49.7046 36.81H98.9346V50.94H38.9046ZM72.2046 63V50.94L72.7446 36.81V26.1H89.5746V63H72.2046Z"/>
</mask>
<path d="M12.24 63H11.24V64H12.24V63ZM12.24 6.39L12.9343 5.67031L11.24 4.03581V6.39H12.24ZM19.89 13.77V14.77H22.3669L20.5843 13.0503L19.89 13.77ZM0.54 13.77H-0.46V14.77H0.54V13.77ZM0.54 -3.8147e-06V-1H-0.46V-3.8147e-06H0.54ZM30.06 -3.8147e-06H31.06V-1H30.06V-3.8147e-06ZM30.06 63V64H31.06V63H30.06ZM13.24 63V6.39H11.24V63H13.24ZM11.5457 7.10969L19.1957 14.4897L20.5843 13.0503L12.9343 5.67031L11.5457 7.10969ZM19.89 12.77H0.54V14.77H19.89V12.77ZM1.54 13.77V-3.8147e-06H-0.46V13.77H1.54ZM0.54 0.999996H30.06V-1H0.54V0.999996ZM29.06 -3.8147e-06V63H31.06V-3.8147e-06H29.06ZM30.06 62H12.24V64H30.06V62ZM38.9046 50.94H37.9046V51.94H38.9046V50.94ZM38.9046 39.33L38.0925 38.7465L37.9046 39.008V39.33H38.9046ZM67.1646 -3.8147e-06V-1H66.6518L66.3525 -0.583525L67.1646 -3.8147e-06ZM85.6146 -3.8147e-06L86.4346 0.572325L87.532 -1H85.6146V-3.8147e-06ZM58.1646 39.33L57.8791 40.2884L58.5713 40.4946L58.9846 39.9023L58.1646 39.33ZM49.7046 36.81V35.81L49.4191 37.7684L49.7046 36.81ZM98.9346 36.81H99.9346V35.81H98.9346V36.81ZM98.9346 50.94V51.94H99.9346V50.94H98.9346ZM72.2046 63H71.2046V64H72.2046V63ZM72.2046 50.94L71.2053 50.9018L71.2046 50.9209V50.94H72.2046ZM72.7446 36.81L73.7439 36.8482L73.7446 36.8291V36.81H72.7446ZM72.7446 26.1V25.1H71.7446V26.1H72.7446ZM89.5746 26.1H90.5746V25.1H89.5746V26.1ZM89.5746 63V64H90.5746V63H89.5746ZM39.9046 50.94V39.33H37.9046V50.94H39.9046ZM39.7167 39.9135L67.9767 0.583517L66.3525 -0.583525L38.0925 38.7465L39.7167 39.9135ZM67.1646 0.999996H85.6146V-1H67.1646V0.999996ZM84.7946 -0.572332L57.3446 38.7577L58.9846 39.9023L86.4346 0.572325L84.7946 -0.572332ZM58.4501 38.3716L49.9901 35.8516L49.4191 37.7684L57.8791 40.2884L58.4501 38.3716ZM49.7046 37.81H98.9346V35.81H49.7046V37.81ZM97.9346 36.81V50.94H99.9346V36.81H97.9346ZM98.9346 49.94H38.9046V51.94H98.9346V49.94ZM73.2046 63V50.94H71.2046V63H73.2046ZM73.2039 50.9782L73.7439 36.8482L71.7453 36.7718L71.2053 50.9018L73.2039 50.9782ZM73.7446 36.81V26.1H71.7446V36.81H73.7446ZM72.7446 27.1H89.5746V25.1H72.7446V27.1ZM88.5746 26.1V63H90.5746V26.1H88.5746ZM89.5746 62H72.2046V64H89.5746V62Z" fill="#227E91" mask="url(#path-1-outside-1_96_769)"/>
</svg>
