<svg width="90" height="90" viewBox="0 0 90 90" fill="none" xmlns="http://www.w3.org/2000/svg">
<path d="M48.5322 12H41.9613H48.5322ZM35.3904 12H15.3821C13.3547 12 11.4101 12.8214 9.97496 14.2839C8.53983 15.7464 7.73139 17.7306 7.72704 19.8012V63.4206C7.72108 63.9835 7.77061 64.5455 7.87489 65.0983C8.24293 66.8535 9.18875 68.4269 10.5548 69.5564C11.9208 70.6859 13.6245 71.3033 15.3821 71.3057H74.29C76.0476 71.3033 77.7514 70.6859 79.1174 69.5564C80.4834 68.4269 81.4292 66.8535 81.7973 65.0983C81.9015 64.5455 81.9511 63.9835 81.9451 63.4206V19.8012C81.9407 17.7306 81.1323 15.7464 79.6972 14.2839C78.262 12.8214 76.3174 12 74.29 12H53.4603H35.3904ZM64.9594 23.7437C65.8307 23.7437 66.6664 24.0972 67.2825 24.7265C67.8987 25.3557 68.2448 26.2091 68.2448 27.099C68.2448 27.9889 67.8987 28.8424 67.2825 29.4716C66.6664 30.1009 65.8307 30.4544 64.9594 30.4544C64.1569 30.4582 63.3825 30.1526 62.791 29.5988C62.4426 29.2862 62.163 28.9019 61.9704 28.471C61.7779 28.0402 61.6769 27.5726 61.6739 27.099C61.6739 26.2091 62.0201 25.3557 62.6362 24.7265C63.2524 24.0972 64.088 23.7437 64.9594 23.7437ZM45.2467 28.7767C46.0141 28.7803 46.7559 29.0581 47.3437 29.5619C47.9314 30.0657 48.328 30.7637 48.4645 31.5348C48.6011 32.3059 48.4691 33.1016 48.0914 33.7837C47.7137 34.4658 47.1141 34.9914 46.3967 35.2693C46.0311 35.4186 45.6404 35.4927 45.2467 35.4874C44.3754 35.4874 43.5397 35.1339 42.9236 34.5046C42.3075 33.8754 41.9613 33.0219 41.9613 32.132C41.9613 31.2422 42.3075 30.3887 42.9236 29.7595C43.5397 29.1302 44.3754 28.7767 45.2467 28.7767ZM34.9633 37.9368C35.5407 37.4351 36.2751 37.1613 37.0332 37.1651C37.5253 37.1654 38.0111 37.2786 38.4547 37.4964C38.8982 37.7142 39.2882 38.0309 39.5958 38.4233C40.0631 39.0181 40.318 39.7578 40.3186 40.5204C40.3186 41.4103 39.9724 42.2637 39.3563 42.893C38.7402 43.5222 37.9045 43.8757 37.0332 43.8757C36.1618 43.8757 35.3261 43.5222 34.71 42.893C34.0939 42.2637 33.7477 41.4103 33.7477 40.5204C33.7509 40.0248 33.8616 39.5361 34.0718 39.0894C34.282 38.6426 34.5864 38.249 34.9633 37.9368V37.9368ZM28.8196 28.7767C29.6909 28.7767 30.5266 29.1302 31.1427 29.7595C31.7589 30.3887 32.105 31.2422 32.105 32.132C32.105 33.0219 31.7589 33.8754 31.1427 34.5046C30.5266 35.1339 29.6909 35.4874 28.8196 35.4874C27.9482 35.4874 27.1125 35.1339 26.4964 34.5046C25.8803 33.8754 25.5341 33.0219 25.5341 32.132C25.5341 31.2422 25.8803 30.3887 26.4964 29.7595C27.1125 29.1302 27.9482 28.7767 28.8196 28.7767V28.7767Z" stroke="#2A91A6" stroke-width="1.5" stroke-linecap="round" stroke-linejoin="round"/>
<path d="M81.9446 56.7087H7.72656V64.9964H81.9446V56.7087Z" stroke="#2A91A6" stroke-width="1.5" stroke-linecap="round" stroke-linejoin="round"/>
<path d="M30.4621 77.7069H12.8029C8.49899 77.7069 5 74.922 5 71.4828V65.2754H84.6719V71.4828C84.6719 74.922 81.1729 77.7069 76.869 77.7069H38.6757" stroke="#2A91A6" stroke-width="1.5" stroke-linecap="round" stroke-linejoin="round"/>
<path d="M56.1721 64.9967H29.6094V71.2209H56.1721V64.9967Z" stroke="#2A91A6" stroke-width="1.5" stroke-linecap="round" stroke-linejoin="round"/>
<path d="M26.5031 34.498L19.6365 41.5107L17.3203 43.8762" stroke="#2A91A6" stroke-width="1.5" stroke-linecap="round" stroke-linejoin="round"/>
<path d="M34.964 37.9369L31.6621 33.8098" stroke="#2A91A6" stroke-width="1.5" stroke-linecap="round" stroke-linejoin="round"/>
<path d="M43.6861 35.0845L39.5957 38.423" stroke="#2A91A6" stroke-width="1.5" stroke-linecap="round" stroke-linejoin="round"/>
<path d="M51.8155 42.1987L46.3945 35.2699" stroke="#2A91A6" stroke-width="1.5" stroke-linecap="round" stroke-linejoin="round"/>
<path d="M51.8184 42.1988L64.9601 27.0997" stroke="#2A91A6" stroke-width="1.5" stroke-linecap="round" stroke-linejoin="round"/>
<path d="M17.3206 47.2306C19.1351 47.2306 20.606 45.7283 20.606 43.8752C20.606 42.0221 19.1351 40.5199 17.3206 40.5199C15.5061 40.5199 14.0352 42.0221 14.0352 43.8752C14.0352 45.7283 15.5061 47.2306 17.3206 47.2306Z" stroke="#2A91A6" stroke-width="1.5" stroke-linecap="round" stroke-linejoin="round"/>
<path d="M32.1041 32.1326C32.1041 33.0225 31.7579 33.8759 31.1418 34.5051C30.5257 35.1344 29.69 35.4879 28.8186 35.4879C27.9473 35.4879 27.1116 35.1344 26.4955 34.5051C25.8793 33.8759 25.5332 33.0225 25.5332 32.1326C25.5332 31.2427 25.8793 30.3892 26.4955 29.76C27.1116 29.1307 27.9473 28.7772 28.8186 28.7772C29.69 28.7772 30.5257 29.1307 31.1418 29.76C31.7579 30.3892 32.1041 31.2427 32.1041 32.1326V32.1326Z" stroke="#2A91A6" stroke-width="1.5" stroke-linecap="round" stroke-linejoin="round"/>
<path d="M40.3189 40.5203C40.3189 41.4102 39.9728 42.2636 39.3566 42.8929C38.7405 43.5221 37.9048 43.8756 37.0335 43.8756C36.1621 43.8756 35.3265 43.5221 34.7103 42.8929C34.0942 42.2636 33.748 41.4102 33.748 40.5203C33.7513 40.0247 33.8619 39.536 34.0721 39.0892C34.2823 38.6425 34.5868 38.2489 34.9637 37.9367C35.5411 37.435 36.2754 37.1612 37.0335 37.165C37.5256 37.1653 38.0114 37.2785 38.455 37.4963C38.8986 37.7141 39.2885 38.0308 39.5961 38.4232C40.0634 39.018 40.3183 39.7577 40.3189 40.5203Z" stroke="#2A91A6" stroke-width="1.5" stroke-linecap="round" stroke-linejoin="round"/>
<path d="M48.5318 32.1326C48.5306 32.8153 48.3256 33.4814 47.944 34.0419C47.5624 34.6025 47.0225 35.0309 46.3963 35.2698C46.0308 35.4191 45.64 35.4932 45.2464 35.4879C44.375 35.4879 43.5394 35.1344 42.9232 34.5051C42.3071 33.8759 41.9609 33.0225 41.9609 32.1326C41.9609 31.2427 42.3071 30.3892 42.9232 29.76C43.5394 29.1307 44.375 28.7772 45.2464 28.7772C46.1177 28.7772 46.9534 29.1307 47.5695 29.76C48.1857 30.3892 48.5318 31.2427 48.5318 32.1326V32.1326Z" stroke="#2A91A6" stroke-width="1.5" stroke-linecap="round" stroke-linejoin="round"/>
<path d="M68.2447 27.1C68.2447 27.9899 67.8986 28.8433 67.2824 29.4726C66.6663 30.1018 65.8306 30.4553 64.9593 30.4553C64.1568 30.4591 63.3824 30.1536 62.7909 29.5997C62.4425 29.2871 62.1628 28.9028 61.9703 28.472C61.7778 28.0411 61.6767 27.5735 61.6738 27.1C61.6738 26.2101 62.02 25.3566 62.6361 24.7274C63.2522 24.0981 64.0879 23.7446 64.9593 23.7446C65.8306 23.7446 66.6663 24.0981 67.2824 24.7274C67.8986 25.3566 68.2447 26.2101 68.2447 27.1V27.1Z" stroke="#2A91A6" stroke-width="1.5" stroke-linecap="round" stroke-linejoin="round"/>
<path d="M63.3164 49.7473H71.3657" stroke="#2A91A6" stroke-width="1.5" stroke-linecap="round" stroke-linejoin="round"/>
<path d="M63.3164 46.3923H74.8154" stroke="#2A91A6" stroke-width="1.5" stroke-linecap="round" stroke-linejoin="round"/>
<path d="M63.3164 43.0372H69.0659" stroke="#2A91A6" stroke-width="1.5" stroke-linecap="round" stroke-linejoin="round"/>
<path d="M63.3164 39.6821H74.8154" stroke="#2A91A6" stroke-width="1.5" stroke-linecap="round" stroke-linejoin="round"/>
</svg>
