<svg width="90" height="90" viewBox="0 0 90 90" fill="none" xmlns="http://www.w3.org/2000/svg">
<path d="M33.6667 77.1289H10V23.4661C10 24.3929 10.3325 25.2819 10.9242 25.9373C11.516 26.5927 12.3187 26.9609 13.1556 26.9609H77.8444C78.6813 26.9609 79.484 26.5927 80.0758 25.9373C80.6675 25.2819 81 24.3929 81 23.4661V77.1289H43.1333" stroke="#2A91A6" stroke-width="1.61364" stroke-linecap="round" stroke-linejoin="round"/>
<path d="M77.8287 13H13.1713C11.4199 13 10 14.5725 10 16.5123V23.467C10 25.4068 11.4199 26.9793 13.1713 26.9793H77.8287C79.5801 26.9793 81 25.4068 81 23.467V16.5123C81 14.5725 79.5801 13 77.8287 13Z" stroke="#2A91A6" stroke-width="1.61364" stroke-linecap="round" stroke-linejoin="round"/>
<path d="M22.6197 40.4319H16.3086V64.8956H22.6197V40.4319Z" stroke="#2A91A6" stroke-width="1.61364" stroke-linecap="round" stroke-linejoin="round"/>
<path d="M33.6666 47.427H27.3555V64.9011H33.6666V47.427Z" stroke="#2A91A6" stroke-width="1.61364" stroke-linecap="round" stroke-linejoin="round"/>
<path d="M44.7095 42.1812H38.3984V64.8974H44.7095V42.1812Z" stroke="#2A91A6" stroke-width="1.61364" stroke-linecap="round" stroke-linejoin="round"/>
<path d="M55.7564 54.4128H49.4453V64.8973H55.7564V54.4128Z" stroke="#2A91A6" stroke-width="1.61364" stroke-linecap="round" stroke-linejoin="round"/>
<path d="M61.2773 51.791H72.3218" stroke="#2A91A6" stroke-width="1.61364" stroke-linecap="round" stroke-linejoin="round"/>
<path d="M61.2773 48.2993H77.0551" stroke="#2A91A6" stroke-width="1.61364" stroke-linecap="round" stroke-linejoin="round"/>
<path d="M61.2773 44.8052H69.1662" stroke="#2A91A6" stroke-width="1.61364" stroke-linecap="round" stroke-linejoin="round"/>
<path d="M61.2773 41.3066H77.0551" stroke="#2A91A6" stroke-width="1.61364" stroke-linecap="round" stroke-linejoin="round"/>
</svg>
