<svg width="90" height="90" viewBox="0 0 90 90" fill="none" xmlns="http://www.w3.org/2000/svg">
<path d="M66.0975 34.1417C66.0928 30.7312 65.2689 27.3723 63.6961 24.3508C62.1233 21.3294 59.848 18.7349 57.0639 16.7881C54.2798 14.8413 51.0693 13.5998 47.7056 13.1693C44.342 12.7388 40.9247 13.1321 37.7446 14.3156C34.5645 15.4991 31.7157 17.4378 29.4407 19.9667C27.1657 22.4957 25.5319 25.54 24.6781 28.8407C23.8244 32.1413 23.776 35.6006 24.5373 38.924C25.2985 42.2475 26.8467 45.3368 29.0502 47.929C31.0665 50.3548 32.157 53.4242 32.1258 56.5859C32.1292 58.4588 32.8704 60.254 34.187 61.5783C35.5037 62.9026 37.2885 63.6481 39.1505 63.6515H50.9343C52.7974 63.6515 54.5841 62.9071 55.9015 61.582C57.2189 60.257 57.959 58.4598 57.959 56.5859C57.9311 53.4126 59.0308 50.3336 61.06 47.9036C64.3274 44.0734 66.1155 39.1885 66.0975 34.1417Z" stroke="#2A91A6" stroke-width="1.68645" stroke-miterlimit="10"/>
<path d="M36.8232 63.2444H53.1382V72.6524C53.1382 73.5404 52.7875 74.392 52.1633 75.0199C51.539 75.6478 50.6923 76.0006 49.8094 76.0006H40.1521C39.2692 76.0006 38.4225 75.6478 37.7982 75.0199C37.174 74.392 36.8232 73.5404 36.8232 72.6524V63.2444V63.2444Z" stroke="#2A91A6" stroke-width="1.68645" stroke-miterlimit="10"/>
<path d="M55.5684 33.0855C55.3049 33.1016 55.043 33.0344 54.8194 32.8934C54.5957 32.7524 54.4215 32.5446 54.3211 32.2991C54.2207 32.0536 54.1991 31.7827 54.2593 31.5242C54.3195 31.2657 54.4586 31.0326 54.6571 30.8576C54.7835 30.7385 54.8843 30.5946 54.9533 30.4347C55.0222 30.2749 55.0577 30.1025 55.0577 29.9283C55.0577 29.754 55.0222 29.5816 54.9533 29.4218C54.8843 29.2619 54.7835 29.118 54.6571 28.9989L52.2143 26.5037C52.096 26.3785 51.9537 26.2788 51.7959 26.2107C51.6382 26.1426 51.4683 26.1074 51.2966 26.1074C51.1249 26.1074 50.955 26.1426 50.7973 26.2107C50.6395 26.2788 50.4972 26.3785 50.379 26.5037C50.2056 26.7099 49.9716 26.8552 49.7107 26.9189C49.4498 26.9825 49.1756 26.961 48.9276 26.8575C48.6796 26.7541 48.4708 26.574 48.3313 26.3434C48.1917 26.1127 48.1287 25.8434 48.1513 25.5743V25.5743C48.1513 25.2367 48.018 24.9129 47.7806 24.6741C47.5432 24.4354 47.2213 24.3013 46.8856 24.3013H43.4049C43.0692 24.3013 42.7473 24.4354 42.5099 24.6741C42.2725 24.9129 42.1392 25.2367 42.1392 25.5743C42.1618 25.8434 42.0988 26.1127 41.9593 26.3434C41.8197 26.574 41.6109 26.7541 41.3629 26.8575C41.115 26.961 40.8407 26.9825 40.5798 26.9189C40.3189 26.8552 40.0849 26.7099 39.9115 26.5037C39.7932 26.3765 39.6501 26.2751 39.4911 26.2058C39.3322 26.1365 39.1608 26.1007 38.9876 26.1007C38.8143 26.1007 38.643 26.1365 38.484 26.2058C38.3251 26.2751 38.182 26.3765 38.0636 26.5037L35.5955 29.0498C35.469 29.1689 35.3682 29.3128 35.2993 29.4727C35.2304 29.6326 35.1948 29.8049 35.1948 29.9792C35.1948 30.1534 35.2304 30.3258 35.2993 30.4857C35.3682 30.6455 35.469 30.7894 35.5955 30.9085C35.7939 31.0836 35.933 31.3166 35.9932 31.5751C36.0535 31.8336 36.0319 32.1045 35.9315 32.35C35.831 32.5956 35.6568 32.8034 35.4331 32.9444C35.2095 33.0854 34.9476 33.1525 34.6842 33.1364V33.1364C34.3485 33.1364 34.0265 33.2705 33.7892 33.5093C33.5518 33.748 33.4185 34.0718 33.4185 34.4095V37.885C33.4185 38.2226 33.5518 38.5464 33.7892 38.7852C34.0265 39.0239 34.3485 39.158 34.6842 39.158C34.9506 39.1384 35.2163 39.204 35.4434 39.3454C35.6704 39.4869 35.8472 39.697 35.9483 39.9457C36.0495 40.1943 36.0698 40.4688 36.0064 40.7298C35.943 40.9907 35.7992 41.2249 35.5955 41.3986C35.471 41.5176 35.3719 41.6607 35.3042 41.8194C35.2364 41.9781 35.2015 42.1489 35.2015 42.3216C35.2015 42.4943 35.2364 42.6652 35.3042 42.8238C35.3719 42.9825 35.471 43.1257 35.5955 43.2446L38.0383 45.7016C38.1567 45.8288 38.2998 45.9302 38.4587 45.9995C38.6176 46.0689 38.789 46.1046 38.9623 46.1046C39.1355 46.1046 39.3069 46.0689 39.4658 45.9995C39.6247 45.9302 39.7678 45.8288 39.8862 45.7016C40.0609 45.5009 40.2939 45.3604 40.5522 45.3C40.8106 45.2396 41.0812 45.2623 41.326 45.365C41.5708 45.4677 41.7774 45.6452 41.9165 45.8724C42.0556 46.0995 42.1202 46.3649 42.1012 46.631C42.1012 46.9686 42.2346 47.2924 42.4719 47.5312C42.7093 47.7699 43.0312 47.904 43.3669 47.904H46.8097C47.1454 47.904 47.4673 47.7699 47.7047 47.5312C47.942 47.2924 48.0754 46.9686 48.0754 46.631C48.0528 46.3619 48.1158 46.0926 48.2553 45.8619C48.3949 45.6313 48.6037 45.4512 48.8517 45.3478C49.0996 45.2443 49.3739 45.2228 49.6348 45.2865C49.8957 45.3501 50.1297 45.4955 50.303 45.7016C50.4213 45.8268 50.5636 45.9265 50.7214 45.9946C50.8791 46.0627 51.049 46.0979 51.2207 46.0979C51.3923 46.0979 51.5622 46.0627 51.72 45.9946C51.8777 45.9265 52.0201 45.8268 52.1383 45.7016L54.5811 43.2446C54.7056 43.1257 54.8047 42.9825 54.8724 42.8238C54.9402 42.6652 54.9751 42.4943 54.9751 42.3216C54.9751 42.1489 54.9402 41.9781 54.8724 41.8194C54.8047 41.6607 54.7056 41.5176 54.5811 41.3986V41.3986C54.4007 41.2147 54.2801 40.9798 54.2356 40.7252C54.191 40.4707 54.2246 40.2085 54.3317 39.9736C54.4389 39.7387 54.6146 39.5422 54.8355 39.4101C55.0564 39.2781 55.312 39.2168 55.5684 39.2344C55.9041 39.2344 56.226 39.1003 56.4634 38.8615C56.7007 38.6228 56.8341 38.299 56.8341 37.9613V34.3967C56.8392 34.2264 56.8102 34.0567 56.7489 33.8978C56.6875 33.7389 56.5951 33.594 56.4771 33.4717C56.359 33.3495 56.2178 33.2523 56.0617 33.1859C55.9056 33.1195 55.7378 33.0854 55.5684 33.0855V33.0855ZM45.1263 40.5075C44.1249 40.5075 43.1461 40.2088 42.3135 39.6493C41.4809 39.0897 40.832 38.2944 40.4488 37.3639C40.0656 36.4334 39.9654 35.4095 40.1607 34.4217C40.3561 33.4339 40.8383 32.5266 41.5463 31.8144C42.2544 31.1022 43.1565 30.6172 44.1386 30.4207C45.1207 30.2243 46.1386 30.3251 47.0637 30.7105C47.9889 31.096 48.7796 31.7486 49.3359 32.5861C49.8922 33.4235 50.1891 34.408 50.1891 35.4152C50.1891 36.7658 49.6557 38.061 48.7062 39.016C47.7568 39.971 46.469 40.5075 45.1263 40.5075Z" stroke="#2A91A6" stroke-width="1.68645" stroke-miterlimit="10"/>
<path d="M53.1382 67.6492H36.8232V71.583H53.1382V67.6492Z" stroke="#2A91A6" stroke-width="1.68645" stroke-miterlimit="10"/>
</svg>
