<svg width="90" height="90" viewBox="0 0 90 90" fill="none" xmlns="http://www.w3.org/2000/svg">
<path d="M68.8313 45.0299C68.8313 31.9697 58.1807 21.3462 45.0904 21.3462C32.0002 21.3462 21.3496 31.9697 21.3496 45.0299C21.3463 48.4362 22.0838 51.8024 23.511 54.8953C23.5342 54.9702 23.5676 55.0416 23.6103 55.1074C25.5352 59.1764 28.5757 62.6154 32.3782 65.0243C36.1808 67.4332 40.5891 68.7131 45.0904 68.715C58.1807 68.715 68.8313 58.087 68.8313 45.0299ZM45.0904 23.1511C57.185 23.1511 67.0263 32.9654 67.0263 45.0299C67.0283 47.7837 66.5072 50.5129 65.4906 53.0723C64.5516 52.2068 63.3434 51.6906 62.0688 51.6103C61.607 51.5878 61.3604 51.8886 61.1979 52.0871C60.9422 52.4002 60.6274 52.6598 60.2713 52.851C59.9153 53.0423 59.525 53.1616 59.1228 53.2019C58.7207 53.2423 58.3145 53.203 57.9275 53.0863C57.5406 52.9696 57.1804 52.7778 56.8676 52.5218C56.6702 52.3605 56.4938 52.1751 56.3427 51.9698C56.2555 51.8534 56.1418 51.7595 56.0109 51.6959C55.8801 51.6323 55.736 51.6009 55.5906 51.6043C54.6862 51.625 53.801 51.8694 53.0141 52.3158C51.9332 51.1207 50.4275 50.3962 48.8191 50.2972C48.3483 50.2672 48.0987 50.5725 47.9167 50.7936C47.5655 51.2232 47.1209 51.567 46.6167 51.7986C46.1125 52.0302 45.562 52.1436 45.0073 52.1301C44.4526 52.1166 43.9084 51.9766 43.416 51.7207C42.9237 51.4649 42.4963 51.0999 42.1665 50.6537C42.0794 50.5371 41.9657 50.443 41.8349 50.3792C41.7041 50.3153 41.5599 50.2836 41.4144 50.2867C40.578 50.3105 39.7552 50.5039 38.9958 50.8553C38.2364 51.2067 37.5564 51.7087 36.9968 52.3308C36.2604 51.9097 35.437 51.6637 34.5903 51.6118C34.1285 51.5908 33.8818 51.8901 33.7194 52.0886C33.4229 52.4514 33.0474 52.7416 32.6216 52.9371C32.1959 53.1326 31.7311 53.2283 31.2627 53.2169C30.7943 53.2054 30.3348 53.0871 29.9191 52.871C29.5034 52.6548 29.1426 52.3466 28.8641 51.9698C28.7776 51.8527 28.664 51.7584 28.533 51.6947C28.402 51.6311 28.2576 51.6 28.1121 51.6043C26.8318 51.6382 25.6034 52.1169 24.6376 52.958C23.6507 50.434 23.1456 47.7474 23.1485 45.0374C23.1545 32.9684 32.9959 23.1511 45.0904 23.1511ZM25.4258 54.7163C26.0165 54.0216 26.8419 53.5682 27.7451 53.4423C28.6214 54.3957 29.8405 54.962 31.1343 55.0168C32.4281 55.0715 33.6907 54.6101 34.6444 53.7341C34.7392 53.6469 34.8294 53.5566 34.9167 53.4634C35.2925 53.5299 35.6558 53.6542 35.9936 53.8319C35.5978 54.6545 35.3922 55.5557 35.392 56.4686V64.6524C31.0738 62.5179 27.5733 59.028 25.4258 54.7163ZM37.1984 65.4436V56.4686C37.2051 55.4019 37.5982 54.3737 38.3047 53.5745C39.0113 52.7753 39.9835 52.2592 41.0414 52.1217C42.0064 53.1979 43.3594 53.8466 44.8027 53.9253C46.2461 54.004 47.6616 53.5062 48.7379 52.5414C48.8774 52.4159 49.0105 52.2833 49.1365 52.1443C50.1641 52.3103 51.0991 52.8366 51.7742 53.6288C52.4493 54.4211 52.8206 55.4277 52.8216 56.4686V65.5053C47.7825 67.3986 42.2238 67.3767 37.1999 65.4436H37.1984ZM54.6265 64.7322V56.4686C54.6264 55.5518 54.4208 54.6467 54.0248 53.8199C54.3977 53.626 54.8012 53.4978 55.2176 53.4408C55.6514 53.9132 56.1741 54.2955 56.7557 54.5659C57.3373 54.8363 57.9665 54.9895 58.6073 55.0168C59.2481 55.044 59.888 54.9448 60.4904 54.7247C61.0929 54.5046 61.6461 54.168 62.1184 53.7341C62.2132 53.6469 62.3034 53.5566 62.3907 53.4634C63.301 53.6276 64.1182 54.1233 64.6844 54.8547C62.5028 59.1589 58.9695 62.6288 54.6265 64.7322Z" fill="#2A91A6"/>
<path d="M48.9899 13.793C49.1686 13.7932 49.3433 13.7403 49.4919 13.641C49.6405 13.5418 49.7563 13.4006 49.8246 13.2355C49.8929 13.0704 49.9106 12.8887 49.8755 12.7135C49.8405 12.5383 49.7542 12.3774 49.6277 12.2513L45.6388 8.26393C45.4695 8.09493 45.2402 8 45.001 8C44.7619 8 44.5325 8.09493 44.3633 8.26393L40.3744 12.2513C40.2036 12.4193 40.1066 12.6481 40.1046 12.8876C40.1027 13.1271 40.1959 13.3576 40.3639 13.5283C40.5318 13.699 40.7607 13.7961 41.0002 13.798C41.2396 13.8 41.4701 13.7068 41.6408 13.5388L41.6514 13.5283L43.9572 11.221V18.6317C43.9572 18.8711 44.0522 19.1006 44.2215 19.2699C44.3907 19.4391 44.6203 19.5342 44.8596 19.5342C45.099 19.5342 45.3285 19.4391 45.4978 19.2699C45.667 19.1006 45.7621 18.8711 45.7621 18.6317V11.0164C45.7636 10.9894 45.7636 10.9623 45.7621 10.9352L48.3552 13.5283C48.5235 13.6969 48.7517 13.792 48.9899 13.793Z" fill="#2A91A6"/>
<path d="M40.3744 76.4723C40.2905 76.5561 40.2239 76.6557 40.1785 76.7652C40.1331 76.8748 40.1097 76.9922 40.1097 77.1108C40.1097 77.2294 40.1331 77.3469 40.1785 77.4564C40.2239 77.566 40.2905 77.6655 40.3744 77.7493L44.3633 81.7367C44.5325 81.9057 44.7619 82.0006 45.0011 82.0006C45.2402 82.0006 45.4696 81.9057 45.6388 81.7367L49.6277 77.7493C49.797 77.58 49.8922 77.3503 49.8922 77.1108C49.8922 76.8713 49.797 76.6417 49.6277 76.4723C49.4584 76.303 49.2287 76.2079 48.9892 76.2079C48.7497 76.2079 48.52 76.303 48.3507 76.4723L46.0449 78.7796V71.3689C46.0449 71.1295 45.9498 70.9 45.7806 70.7308C45.6113 70.5615 45.3818 70.4664 45.1424 70.4664C44.9031 70.4664 44.6735 70.5615 44.5043 70.7308C44.3351 70.9 44.24 71.1295 44.24 71.3689V78.9842C44.24 79.0113 44.24 79.0383 44.24 79.0654L41.6484 76.4723C41.4793 76.3038 41.2502 76.2092 41.0114 76.2092C40.7726 76.2092 40.5436 76.3038 40.3744 76.4723Z" fill="#2A91A6"/>
<path d="M12.8906 49.892C13.0692 49.8921 13.244 49.8392 13.3925 49.74C13.5411 49.6407 13.6569 49.4996 13.7252 49.3345C13.7935 49.1693 13.8113 48.9877 13.7762 48.8125C13.7411 48.6372 13.6549 48.4764 13.5283 48.3503L11.221 46.0445H18.6317C18.8711 46.0445 19.1006 45.9494 19.2699 45.7801C19.4391 45.6109 19.5342 45.3813 19.5342 45.142C19.5342 44.9026 19.4391 44.6731 19.2699 44.5039C19.1006 44.3346 18.8711 44.2395 18.6317 44.2395H11.0164H10.9352L13.5283 41.648C13.6128 41.5648 13.6802 41.4658 13.7265 41.3566C13.7727 41.2474 13.7971 41.1302 13.798 41.0116C13.799 40.8931 13.7766 40.7754 13.7322 40.6655C13.6877 40.5556 13.622 40.4555 13.5388 40.371C13.4557 40.2864 13.3567 40.2191 13.2475 40.1728C13.1383 40.1265 13.0211 40.1022 12.9025 40.1012C12.7839 40.1002 12.6663 40.1226 12.5564 40.1671C12.4465 40.2116 12.3464 40.2773 12.2618 40.3604L12.2513 40.371L8.26393 44.3629C8.09493 44.5321 8 44.7615 8 45.0006C8 45.2398 8.09493 45.4691 8.26393 45.6383L12.2513 49.6272C12.3352 49.7112 12.4349 49.7779 12.5446 49.8233C12.6543 49.8687 12.7718 49.8921 12.8906 49.892Z" fill="#2A91A6"/>
<path d="M77.7493 40.3744C77.5814 40.2036 77.3525 40.1066 77.113 40.1046C76.8735 40.1027 76.6431 40.1959 76.4723 40.3639C76.3016 40.5318 76.2046 40.7607 76.2026 41.0002C76.2006 41.2396 76.2939 41.4701 76.4618 41.6408C76.4657 41.644 76.4692 41.6475 76.4723 41.6514L78.7796 43.9572H71.3689C71.1295 43.9572 70.9 44.0522 70.7308 44.2215C70.5615 44.3907 70.4664 44.6203 70.4664 44.8596C70.4664 45.099 70.5615 45.3285 70.7308 45.4978C70.9 45.667 71.1295 45.7621 71.3689 45.7621H78.9842C79.0112 45.7636 79.0384 45.7636 79.0654 45.7621L76.4723 48.3552C76.3016 48.5229 76.2045 48.7516 76.2024 48.991C76.2003 49.2303 76.2933 49.4607 76.4611 49.6314C76.6288 49.8021 76.8575 49.8992 77.0968 49.9014C77.3362 49.9035 77.5665 49.8104 77.7373 49.6427L77.7493 49.6322L81.7367 45.6433C81.9057 45.4741 82.0006 45.2447 82.0006 45.0055C82.0006 44.7664 81.9057 44.537 81.7367 44.3678L77.7493 40.3744Z" fill="#2A91A6"/>
<path d="M19.4736 26.0165C19.713 26.0165 19.9425 25.9214 20.1118 25.7522C20.281 25.5829 20.3761 25.3534 20.3761 25.114V21.8516L25.6164 27.0919C25.7875 27.2513 26.0138 27.3381 26.2476 27.334C26.4814 27.3299 26.7044 27.2352 26.8698 27.0698C27.0351 26.9045 27.1298 26.6814 27.134 26.4476C27.1381 26.2138 27.0513 25.9875 26.8919 25.8165L21.5072 20.4317C21.4862 20.412 21.4641 20.3934 21.441 20.3761H25.114C25.3534 20.3761 25.5829 20.281 25.7522 20.1118C25.9214 19.9425 26.0165 19.713 26.0165 19.4736C26.0165 19.2343 25.9214 19.0047 25.7522 18.8355C25.5829 18.6662 25.3534 18.5712 25.114 18.5712H19.4736C19.2343 18.5712 19.0047 18.6662 18.8355 18.8355C18.6662 19.0047 18.5712 19.2343 18.5712 19.4736V25.114C18.5712 25.3534 18.6662 25.5829 18.8355 25.7522C19.0047 25.9214 19.2343 26.0165 19.4736 26.0165Z" fill="#2A91A6"/>
<path d="M63.9827 70.5276C63.9827 70.767 64.0778 70.9965 64.2471 71.1658C64.4163 71.335 64.6458 71.4301 64.8852 71.4301H70.5256C70.7649 71.4301 70.9945 71.335 71.1637 71.1658C71.333 70.9965 71.4281 70.767 71.4281 70.5276V64.8872C71.4281 64.6479 71.333 64.4183 71.1637 64.2491C70.9945 64.0798 70.7649 63.9848 70.5256 63.9848C70.2862 63.9848 70.0567 64.0798 69.8875 64.2491C69.7182 64.4183 69.6231 64.6479 69.6231 64.8872V68.1496L64.3828 62.9093C64.2132 62.7422 63.9845 62.649 63.7464 62.6498C63.5083 62.6506 63.2802 62.7455 63.1117 62.9137C62.9433 63.082 62.8482 63.31 62.8471 63.548C62.8459 63.7861 62.939 64.015 63.1058 64.1848L68.4905 69.5695C68.512 69.5893 68.5346 69.6079 68.5582 69.6252H64.8852C64.6458 69.6252 64.4163 69.7202 64.2471 69.8895C64.0778 70.0587 63.9827 70.2883 63.9827 70.5276Z" fill="#2A91A6"/>
<path d="M71.43 25.114V19.4736C71.43 19.2343 71.335 19.0047 71.1657 18.8355C70.9965 18.6662 70.7669 18.5712 70.5276 18.5712H64.8872C64.6478 18.5712 64.4183 18.6662 64.249 18.8355C64.0798 19.0047 63.9847 19.2343 63.9847 19.4736C63.9847 19.713 64.0798 19.9425 64.249 20.1118C64.4183 20.281 64.6478 20.3761 64.8872 20.3761H68.1496L62.9093 25.6164C62.8243 25.6991 62.7565 25.7976 62.7097 25.9065C62.6629 26.0154 62.6379 26.1324 62.6363 26.2509C62.6347 26.3694 62.6565 26.4871 62.7003 26.5972C62.7442 26.7073 62.8093 26.8077 62.892 26.8926C62.9746 26.9776 63.0732 27.0454 63.1821 27.0922C63.291 27.1391 63.408 27.164 63.5265 27.1656C63.645 27.1672 63.7627 27.1455 63.8728 27.1016C63.9829 27.0577 64.0833 26.9926 64.1682 26.9099L64.1848 26.8919L69.5695 21.5072C69.5905 21.4876 69.6056 21.4621 69.6251 21.441V25.114C69.6251 25.3534 69.7202 25.5829 69.8894 25.7522C70.0587 25.9214 70.2882 26.0165 70.5276 26.0165C70.7669 26.0165 70.9965 25.9214 71.1657 25.7522C71.335 25.5829 71.43 25.3534 71.43 25.114Z" fill="#2A91A6"/>
<path d="M27.0919 63.1084C26.9227 62.9394 26.6933 62.8444 26.4542 62.8444C26.215 62.8444 25.9857 62.9394 25.8165 63.1084L20.4317 68.4931C20.412 68.514 20.3934 68.5361 20.3761 68.5592V64.8862C20.3761 64.6469 20.281 64.4173 20.1118 64.2481C19.9425 64.0788 19.713 63.9837 19.4736 63.9837C19.2343 63.9837 19.0047 64.0788 18.8355 64.2481C18.6662 64.4173 18.5712 64.6469 18.5712 64.8862V70.5266C18.5712 70.766 18.6662 70.9955 18.8355 71.1647C19.0047 71.334 19.2343 71.4291 19.4736 71.4291H25.114C25.3534 71.4291 25.5829 71.334 25.7522 71.1647C25.9214 70.9955 26.0165 70.766 26.0165 70.5266C26.0165 70.2873 25.9214 70.0577 25.7522 69.8885C25.5829 69.7192 25.3534 69.6241 25.114 69.6241H21.8516L27.0919 64.3838C27.5898 64.3838 27.9944 64.244 27.9944 63.7461C27.9944 63.5067 27.8993 63.2772 27.7301 63.108C27.5608 62.9387 27.3313 62.8436 27.0919 62.8436V63.1084Z" fill="#2A91A6"/>
<path d="M45.0094 50.3292C46.493 50.328 47.9155 49.7381 48.9645 48.689C50.0136 47.64 50.6035 46.2175 50.6047 44.7339V42.3875C50.5806 40.9192 49.9804 39.5192 48.9336 38.4894C47.8867 37.4596 46.4771 36.8824 45.0086 36.8824C43.5402 36.8824 42.1305 37.4596 41.0837 38.4894C40.0368 39.5192 39.4367 40.9192 39.4126 42.3875V44.7339C39.4146 46.2175 40.0049 47.6397 41.0541 48.6887C42.1034 49.7376 43.5258 50.3276 45.0094 50.3292ZM41.219 42.386C41.2388 41.3936 41.6469 40.4485 42.3557 39.7537C43.0645 39.0588 44.0175 38.6696 45.0101 38.6696C46.0027 38.6696 46.9557 39.0588 47.6645 39.7537C48.3734 40.4485 48.7815 41.3936 48.8012 42.386V44.7324C48.8113 45.2366 48.7206 45.7377 48.5346 46.2065C48.3486 46.6752 48.071 47.1022 47.7179 47.4623C47.3649 47.8224 46.9436 48.1085 46.4786 48.3038C46.0137 48.4992 45.5144 48.5998 45.0101 48.5998C44.5058 48.5998 44.0066 48.4992 43.5416 48.3038C43.0767 48.1085 42.6554 47.8224 42.3023 47.4623C41.9493 47.1022 41.6716 46.6752 41.4856 46.2065C41.2996 45.7377 41.209 45.2366 41.219 44.7324V42.386Z" fill="#2A91A6"/>
<path d="M58.7382 51.8648C60.0668 51.8636 61.3406 51.3354 62.2802 50.3961C63.2197 49.4568 63.7483 48.1831 63.7499 46.8546V44.8C63.7271 43.486 63.1892 42.2336 62.2519 41.3124C61.3147 40.3913 60.0531 39.8751 58.739 39.8751C57.4248 39.8751 56.1632 40.3913 55.226 41.3124C54.2887 42.2336 53.7508 43.486 53.728 44.8V46.8546C53.7292 48.183 54.2575 49.4567 55.1968 50.396C56.1361 51.3353 57.4098 51.8636 58.7382 51.8648ZM55.533 44.7955C55.5511 43.9572 55.8969 43.1594 56.4961 42.573C57.0954 41.9866 57.9005 41.6582 58.739 41.6582C59.5774 41.6582 60.3825 41.9866 60.9818 42.573C61.5811 43.1594 61.9268 43.9572 61.945 44.7955V46.8501C61.9438 47.7001 61.6055 48.5149 61.0043 49.1158C60.4032 49.7166 59.5882 50.0545 58.7382 50.0553C57.8886 50.0553 57.0737 49.7184 56.4723 49.1183C55.8708 48.5183 55.5319 47.7042 55.5299 46.8546L55.533 44.7955Z" fill="#2A91A6"/>
<path d="M31.2621 51.8648C32.591 51.8644 33.8655 51.3365 34.8055 50.3971C35.7454 49.4577 36.2741 48.1835 36.2753 46.8546V44.8C36.2525 43.486 35.7146 42.2336 34.7773 41.3124C33.8401 40.3913 32.5785 39.8751 31.2644 39.8751C29.9502 39.8751 28.6886 40.3913 27.7514 41.3124C26.8141 42.2336 26.2762 43.486 26.2534 44.8V46.8546C26.255 48.1826 26.7832 49.4558 27.7221 50.395C28.661 51.3342 29.9341 51.8628 31.2621 51.8648ZM28.0553 44.7955C28.0735 43.9572 28.4192 43.1594 29.0185 42.573C29.6178 41.9866 30.4229 41.6582 31.2613 41.6582C32.0998 41.6582 32.9049 41.9866 33.5042 42.573C34.1034 43.1594 34.4492 43.9572 34.4673 44.7955V46.8501C34.4665 47.6999 34.1286 48.5147 33.5277 49.1157C32.9267 49.7166 32.1119 50.0545 31.2621 50.0553C30.4121 50.0545 29.5972 49.7166 28.996 49.1158C28.3948 48.5149 28.0565 47.7001 28.0553 46.8501V44.7955Z" fill="#2A91A6"/>
</svg>
