<svg width="90" height="90" viewBox="0 0 90 90" fill="none" xmlns="http://www.w3.org/2000/svg">
<path d="M71.6107 32.1607V73.2033C71.6107 73.9694 71.4592 74.7279 71.1648 75.4352C70.8704 76.1424 70.439 76.7845 69.8955 77.3243C69.3519 77.8641 68.7069 78.2911 67.9976 78.5806C67.2884 78.8701 66.5288 79.0164 65.7628 79.0111H15.7944C14.2564 79.0075 12.7826 78.3941 11.6963 77.3053C10.61 76.2165 10 74.7413 10 73.2033V23.1948C10 21.658 10.6105 20.1842 11.6971 19.0975C12.7838 18.0109 14.2576 17.4004 15.7944 17.4004H65.7628C66.1766 17.4045 66.5889 17.4493 66.9939 17.5342V17.9357H59.8881V23.9843H67.101V32.1607H71.6107Z" stroke="#2A91A6" stroke-width="2.02632" stroke-linecap="round" stroke-linejoin="round"/>
<path d="M66.8313 23.9843V72.4004C66.8313 72.8901 66.6368 73.3599 66.2905 73.7062C65.9441 74.0525 65.4744 74.2471 64.9846 74.2471H16.6087C16.1213 74.2435 15.655 74.0474 15.3115 73.7015C14.9681 73.3555 14.7754 72.8878 14.7754 72.4004V24.0244C14.7754 23.537 14.9681 23.0693 15.3115 22.7233C15.655 22.3774 16.1213 22.1813 16.6087 22.1777H59.8861V23.9843H66.8313Z" stroke="#2A91A6" stroke-width="2.02632" stroke-linecap="round" stroke-linejoin="round"/>
<path d="M45.5808 74.2442H16.6088C16.3669 74.2442 16.1274 74.1964 15.9041 74.1034C15.6808 74.0104 15.4781 73.8742 15.3077 73.7025C15.1372 73.5309 15.0025 73.3272 14.9111 73.1032C14.8198 72.8792 14.7737 72.6394 14.7754 72.3975V59.4303L23.3132 50.2637L27.6489 54.934L34.6343 62.4413L35.5175 63.3914L40.3351 68.5435L45.5808 74.2442Z" stroke="#2A91A6" stroke-width="2.02632" stroke-linecap="round" stroke-linejoin="round"/>
<path d="M66.8314 59.4344V72.4015C66.8332 72.6445 66.7867 72.8855 66.6945 73.1103C66.6023 73.3352 66.4664 73.5395 66.2945 73.7113C66.1227 73.8832 65.9184 74.0191 65.6935 74.1113C65.4687 74.2035 65.2277 74.25 64.9847 74.2483H45.5808L40.3351 68.5475L35.5176 63.3955L38.9969 59.6217L43.8278 54.4295L52.9811 44.5938L66.8314 59.4344Z" stroke="#2A91A6" stroke-width="2.02632" stroke-linecap="round" stroke-linejoin="round"/>
<path d="M43.856 54.4286L38.9983 59.6208L35.519 63.3945L34.6358 62.4444L27.6504 54.9371C28.482 53.5553 29.6466 52.404 31.0379 51.5884C32.4292 50.7728 34.0027 50.319 35.6147 50.2684C37.2266 50.2178 38.8255 50.5721 40.2652 51.2989C41.7049 52.0256 42.9394 53.1016 43.856 54.4286V54.4286Z" stroke="#2A91A6" stroke-width="2.02632" stroke-linecap="round" stroke-linejoin="round"/>
<path d="M80.7607 17.9355V23.9842H73.6281V32.1606H67.0441V23.9842H59.8848V17.9355H67.0441V10H73.6281V17.9355H80.7607Z" stroke="#2A91A6" stroke-width="2.02632" stroke-linecap="round" stroke-linejoin="round"/>
<path d="M19.5254 28.24V38.8787" stroke="#2A91A6" stroke-width="2.02632" stroke-linecap="round" stroke-linejoin="round"/>
<path d="M19.5254 42.1719V46.802" stroke="#2A91A6" stroke-width="2.02632" stroke-linecap="round" stroke-linejoin="round"/>
</svg>
