<svg width="90" height="90" viewBox="0 0 90 90" fill="none" xmlns="http://www.w3.org/2000/svg">
<path d="M45.2916 79.5418C44.1683 79.5418 43.0493 79.4854 41.9325 79.3748C40.8157 79.262 39.7054 79.0972 38.6037 78.8782C37.5043 78.657 36.4156 78.3837 35.3422 78.0585C34.2688 77.731 33.2127 77.3537 32.1761 76.9243C31.1373 76.4927 30.1246 76.0135 29.1357 75.4844C28.1447 74.9552 27.184 74.3784 26.2494 73.7538C25.3169 73.1315 24.4169 72.4635 23.5473 71.7523C22.6799 71.0388 21.8494 70.2863 21.0557 69.4926C20.262 68.6989 19.5095 67.8705 18.796 67.0031C18.0847 66.1357 17.4168 65.2357 16.7923 64.301C16.1677 63.3686 15.5909 62.4079 15.0617 61.419C14.5304 60.4301 14.0512 59.4174 13.6218 58.3808C13.1903 57.3443 12.8129 56.2882 12.4855 55.2147C12.1602 54.1413 11.8869 53.0548 11.6658 51.9554C11.4467 50.8537 11.2797 49.7456 11.1691 48.6288C11.0586 47.512 11.0022 46.393 11 45.2718C11 44.7796 11.0087 44.2873 11.0325 43.795C11.1366 41.1689 11.54 38.5905 12.2469 36.0598C12.9517 33.529 13.9406 31.1132 15.2092 28.8124C15.9574 27.4505 16.7923 26.1451 17.7161 24.896C18.6399 23.649 19.6439 22.4693 20.7282 21.3569C21.8125 20.2444 22.9662 19.21 24.1914 18.2558C25.4167 17.2995 26.7004 16.432 28.0428 15.6513C29.3851 14.8707 30.7752 14.1832 32.2108 13.5912C33.6485 12.9992 35.1167 12.5069 36.6195 12.1144C38.1245 11.7219 39.6468 11.4313 41.1887 11.247C42.7305 11.0605 44.2789 10.9802 45.8316 11.0041C47.3864 11.028 48.9305 11.1581 50.4658 11.3923C52.0033 11.6265 53.5148 11.9626 55.0046 12.4028C56.4944 12.8409 57.9495 13.3808 59.3656 14.0162C60.7839 14.6538 62.1501 15.3824 63.4686 16.2065C64.7849 17.0284 66.0405 17.937 67.2354 18.9302C68.4302 19.9234 69.5514 20.9925 70.601 22.1375C71.6484 23.2825 72.6156 24.4948 73.5004 25.7699C74.3851 27.0472 75.1788 28.3787 75.8814 29.7622C76.2111 30.4128 76.519 31.072 76.8074 31.7421C77.0937 32.4122 77.3604 33.0888 77.6033 33.7763C77.8483 34.4637 78.0695 35.1555 78.269 35.8559C78.4686 36.5585 78.6464 37.2633 78.8003 37.9768C78.9565 38.6881 79.0888 39.4037 79.1972 40.1237C79.3056 40.8436 79.3924 41.5679 79.4552 42.2944C79.5181 43.0187 79.5572 43.7473 79.5745 44.4738C79.5919 45.2024 79.5854 45.9311 79.555 46.6597C79.5246 47.3884 79.4726 48.1127 79.3967 48.8391C79.3186 49.5634 79.221 50.2834 79.0974 51.0034C78.976 51.7212 78.8307 52.4346 78.6637 53.1438C78.4967 53.8529 78.3059 54.5555 78.0934 55.2516C77.8809 55.9499 77.6467 56.6395 77.3886 57.3204C77.1327 58.0014 76.8551 58.6758 76.5559 59.3394C76.2566 60.0051 75.9357 60.6578 75.5952 61.3019C75.2526 61.946 74.8926 62.5792 74.5109 63.1994C74.1292 63.8196 73.7281 64.4268 73.3074 65.0232C72.8888 65.6174 72.4486 66.2007 71.991 66.7667C71.5335 67.3349 71.0585 67.8857 70.5663 68.4235C70.074 68.9613 69.5644 69.4818 69.0396 69.987C68.5126 70.4901 67.9727 70.9781 67.4153 71.4487C66.858 71.9192 66.2877 72.3703 65.7022 72.804C65.1145 73.2377 64.516 73.6519 63.9044 74.0488C63.2929 74.4434 62.6683 74.8186 62.033 75.1743C61.3954 75.5321 60.7492 75.866 60.0921 76.1805C59.435 76.4949 58.7671 76.7898 58.0905 77.0609C57.4139 77.3342 56.7308 77.5835 56.039 77.8112C55.3451 78.0411 54.6468 78.2471 53.942 78.4314C53.2372 78.6158 52.5259 78.7763 51.8103 78.915C51.0947 79.0538 50.3747 79.1688 49.6526 79.262C48.9305 79.3553 48.204 79.4247 47.4775 79.4724C46.7489 79.5179 46.0202 79.5418 45.2916 79.5418ZM45.2916 12.5221C43.83 12.5243 42.3727 12.6219 40.9241 12.8192C39.4733 13.0144 38.0442 13.3071 36.6325 13.6931C35.2229 14.0813 33.8437 14.5606 32.497 15.1309C31.1504 15.7012 29.8492 16.3605 28.5893 17.1065C27.3315 17.8503 26.1279 18.6765 24.9808 19.583C23.8314 20.4873 22.7493 21.4674 21.7323 22.517C20.7152 23.5688 19.7719 24.6813 18.9044 25.8588C18.037 27.0342 17.2498 28.2637 16.545 29.5454C15.3328 31.7443 14.3873 34.0517 13.715 36.4718C13.0406 38.8897 12.6525 41.3532 12.5549 43.8623C12.5332 44.335 12.5245 44.8034 12.5245 45.2718C12.5245 45.853 12.5419 46.4342 12.5722 47.0154C12.6047 47.5965 12.6503 48.1756 12.7132 48.7546C12.7761 49.3336 12.852 49.9104 12.9452 50.4851C13.0385 51.0576 13.1469 51.6301 13.2705 52.1983C13.3941 52.7664 13.5329 53.3324 13.6869 53.8941C13.8408 54.4536 14.0078 55.0109 14.1921 55.5639C14.3743 56.1169 14.5738 56.6633 14.7863 57.2055C14.9988 57.7455 15.2244 58.2811 15.4651 58.8124C15.708 59.3415 15.9617 59.8642 16.2306 60.3803C16.4995 60.8964 16.7836 61.4038 17.0785 61.9048C17.3756 62.4057 17.6835 62.9002 18.0066 63.3837C18.3298 63.8695 18.6637 64.3444 19.0107 64.8107C19.3598 65.2769 19.7198 65.7345 20.0906 66.1812C20.4636 66.6301 20.8475 67.066 21.2422 67.4932C21.639 67.9204 22.0445 68.3368 22.4631 68.7423C22.8794 69.1478 23.3088 69.5425 23.7469 69.9241C24.1849 70.308 24.6338 70.6788 25.0935 71.0366C25.5511 71.3944 26.0195 71.7414 26.4944 72.0754C26.9715 72.4093 27.4573 72.7303 27.9517 73.0382C28.4461 73.3462 28.9471 73.6411 29.4567 73.9208C29.9663 74.2027 30.4846 74.4695 31.0072 74.7232C31.532 74.9769 32.0633 75.2176 32.599 75.4432C33.1368 75.6687 33.6789 75.879 34.2254 76.0742C34.774 76.2716 35.327 76.4537 35.8843 76.6207C36.4417 76.7877 37.0033 76.9395 37.5693 77.0761C38.1353 77.2149 38.7057 77.3363 39.2782 77.4426C39.8485 77.5488 40.4253 77.6399 41.0022 77.718C41.579 77.7939 42.158 77.8546 42.737 77.9001C43.3182 77.9457 43.8994 77.9739 44.4806 77.9891C45.0639 78.0042 45.6451 78.0021 46.2284 77.9847C46.8096 77.9695 47.3908 77.937 47.972 77.8893C48.551 77.8416 49.13 77.7787 49.7068 77.7006C50.2836 77.6226 50.8583 77.5293 51.4308 77.4187C52.0012 77.3103 52.5715 77.1867 53.1353 77.0479C53.7013 76.9069 54.263 76.753 54.8181 76.5838C55.3754 76.4147 55.9284 76.2303 56.4749 76.033C57.0236 75.8335 57.5635 75.621 58.1013 75.3933C58.637 75.1656 59.1661 74.9249 59.6887 74.669C60.2114 74.4131 60.7275 74.1442 61.2371 73.8601C61.7445 73.5782 62.2455 73.2811 62.7377 72.971C63.2322 72.6609 63.7158 72.3399 64.1907 72.0038C64.6656 71.6677 65.134 71.3207 65.5894 70.9586C66.047 70.5986 66.4937 70.2256 66.9318 69.8417C67.3676 69.4579 67.7948 69.0632 68.2112 68.6555C68.6276 68.2478 69.0331 67.8315 69.4256 67.4021C69.8203 66.9727 70.202 66.5347 70.5728 66.0858C70.9436 65.6369 71.3014 65.1793 71.6462 64.7109C71.9932 64.2425 72.3272 63.7654 72.6459 63.2796C72.9669 62.7939 73.2748 62.2995 73.5697 61.7985C73.8625 61.2954 74.1444 60.7858 74.4112 60.2697C74.6779 59.7514 74.9316 59.2288 75.1702 58.6975C75.4087 58.1662 75.6342 57.6305 75.8446 57.0884C76.0549 56.5462 76.2501 55.9976 76.4323 55.4446C76.6123 54.8916 76.7792 54.3343 76.931 53.7726C77.0828 53.211 77.2195 52.645 77.3387 52.0768C77.4602 51.5065 77.5664 50.9361 77.6575 50.3615C77.7486 49.7846 77.8245 49.21 77.8852 48.631C77.9438 48.0519 77.9893 47.4708 78.0175 46.8896C78.0478 46.3084 78.0609 45.7272 78.0587 45.1461C78.0565 44.5649 78.0392 43.9815 78.0066 43.4025C77.9741 42.8214 77.9264 42.2402 77.8614 41.6633C77.7985 41.0843 77.7182 40.5075 77.625 39.9328C77.5296 39.3603 77.4211 38.7878 77.2953 38.2197C77.1696 37.6515 77.0308 37.0877 76.8746 36.526C76.6383 35.6716 76.3672 34.8258 76.0614 33.9909C75.7557 33.1582 75.4174 32.3385 75.0444 31.5318C74.6714 30.7251 74.268 29.9357 73.83 29.1637C73.3941 28.3895 72.9257 27.6349 72.4291 26.8997C71.9303 26.1646 71.4033 25.4511 70.846 24.7593C70.2909 24.0654 69.7075 23.3975 69.096 22.7534C68.4845 22.1072 67.8491 21.4891 67.1876 20.8949C66.5262 20.3029 65.8431 19.7369 65.1362 19.1991C64.4292 18.6613 63.7006 18.1539 62.9524 17.6746C62.2043 17.1975 61.4366 16.7508 60.6516 16.3344C59.8666 15.9181 59.0664 15.5342 58.2488 15.1851C57.4334 14.8338 56.605 14.5172 55.7615 14.2331C54.92 13.949 54.0678 13.7018 53.2047 13.4871C52.3438 13.2724 51.4742 13.0946 50.5959 12.9515C49.7198 12.8083 48.8394 12.6999 47.9524 12.6284C47.0677 12.5568 46.1807 12.5221 45.2916 12.5221Z" fill="#2A91A6"/>
<path d="M44.2802 66.0859C44.2173 66.0859 44.1545 66.0773 44.0937 66.0621C44.033 66.0469 43.9745 66.0252 43.9203 65.9949C43.8639 65.9645 43.8118 65.9298 43.7663 65.8864C43.7207 65.8452 43.6795 65.7975 43.6448 65.7455C43.6101 65.6913 43.582 65.6371 43.5603 65.5763C43.5408 65.5178 43.5277 65.4571 43.5212 65.3942C43.5147 65.3313 43.5169 65.2684 43.5277 65.2077C43.5364 65.1448 43.5538 65.0841 43.5776 65.0277L43.6839 64.7761L49.4956 50.4983C49.5347 50.4028 49.5889 50.3183 49.6626 50.2467L51.2782 48.6311C51.4062 48.5032 51.5601 48.4316 51.7401 48.4121C51.9223 48.3948 52.0871 48.436 52.2389 48.5379C52.3473 48.6094 54.9561 50.2944 56.6411 48.6637L60.3819 43.8581C60.4014 43.8342 60.4231 43.8104 60.4448 43.7887L74.7335 29.5L75.8112 30.5778L61.5551 44.8318L57.8143 49.6373C57.7948 49.6634 57.7731 49.6872 57.7492 49.7089C55.9471 51.5132 53.4121 50.8908 51.9396 50.1253L50.8488 51.2117L45.6746 63.9347L58.3998 58.7562L59.4906 57.6654C58.7294 56.1951 58.1027 53.6622 59.907 51.858C59.9308 51.8363 59.9547 51.8146 59.9785 51.7951L64.7884 48.0565L77.262 35.5937L78.3398 36.6715L65.8271 49.1689C65.8055 49.1906 65.7816 49.2123 65.7578 49.2296L60.95 52.9704C59.3084 54.6663 61.0585 57.3423 61.0758 57.3705C61.1777 57.5201 61.2189 57.6871 61.2016 57.8671C61.1821 58.0471 61.1105 58.201 60.9804 58.3311L59.3648 59.9446C59.2932 60.0183 59.2087 60.0725 59.1133 60.1115L44.5665 66.0296C44.4754 66.0664 44.38 66.0859 44.2802 66.0859Z" fill="#2A91A6"/>
<path d="M43.7402 64.7843L51.8182 56.7129L52.8959 57.7907L44.818 65.8621L43.7402 64.7843Z" fill="#2A91A6"/>
<path d="M56.6719 49.7086L57.7497 48.6309L60.9787 51.8599L59.903 52.9376L56.6719 49.7086Z" fill="#2A91A6"/>
<path d="M54.5126 58.0122H52.3571C52.2552 58.0122 52.1576 57.9927 52.0643 57.9537C51.9711 57.9168 51.8887 57.8604 51.8171 57.7889C51.7456 57.7173 51.6913 57.6349 51.6523 57.5416C51.6133 57.4484 51.5938 57.3508 51.5938 57.2511V55.0955C51.5938 54.8852 51.6675 54.7052 51.8171 54.5577L53.4327 52.9421C53.5043 52.8706 53.5867 52.8163 53.6799 52.7773C53.7732 52.7383 53.8707 52.7188 53.9727 52.7188C54.0724 52.7188 54.17 52.7383 54.2633 52.7773C54.3565 52.8163 54.4389 52.8706 54.5105 52.9421L56.6682 55.0977C56.7376 55.1692 56.794 55.2516 56.833 55.3449C56.8699 55.4381 56.8894 55.5357 56.8894 55.6355C56.8894 55.7374 56.8699 55.835 56.833 55.9282C56.794 56.0215 56.7376 56.1039 56.6682 56.1755L55.0526 57.7889C54.903 57.9385 54.723 58.0122 54.5126 58.0122ZM53.1183 56.4899H54.1982L55.0505 55.6355L53.9727 54.5577L53.1183 55.4099V56.4899Z" fill="#2A91A6"/>
<path d="M58.2871 47.019L59.3649 45.9434L63.6695 50.2458L62.5917 51.3236L58.2871 47.019Z" fill="#2A91A6"/>
<path d="M43.8479 57.5249L35.1454 50.9845C35.089 50.939 35.0369 50.8891 34.9936 50.8306L28.5161 42.2257L19.9047 35.7547C19.8461 35.7113 19.7962 35.6614 19.7507 35.6029L13.2168 26.9112L14.4355 25.9961L20.9087 34.6097L29.5201 41.0828C29.5787 41.1262 29.6285 41.1783 29.6719 41.2346L36.1494 49.8417L44.7673 56.3192L43.8479 57.5249Z" fill="#2A91A6"/>
<path d="M40.0766 61.3582L33.6598 57.1013C33.5731 57.0449 33.5037 56.9733 33.4452 56.8887L29.2707 50.6107L22.9905 46.4384C22.9059 46.382 22.8343 46.3105 22.778 46.2259L18.5254 39.8199L19.794 38.9785L23.962 45.2544L30.2422 49.4267C30.3289 49.4831 30.3983 49.5546 30.4569 49.6392L34.6292 55.9172L40.918 60.0895L40.0766 61.3582Z" fill="#2A91A6"/>
<path d="M45.4515 52.2431L40.3706 49.3199C40.2513 49.2505 40.1581 49.1572 40.0908 49.0401L37.2652 44.1457L32.3686 41.3222C32.2493 41.255 32.156 41.1617 32.0888 41.0424L29.1699 35.9702L30.4906 35.209L33.3054 40.1034L38.2042 42.9269C38.3235 42.9963 38.4167 43.0874 38.4839 43.2067L41.3074 48.1011L46.2127 50.9203L45.4515 52.2431Z" fill="#2A91A6"/>
<path d="M48.8072 48.0071L40.3953 41.7551C40.3368 41.7117 40.2869 41.6597 40.2414 41.6033L34.0414 33.2803L25.725 27.0934C25.6664 27.05 25.6144 26.998 25.5688 26.9373L19.3125 18.5297L20.5356 17.6211L26.7247 25.9397L35.0411 32.1245C35.0997 32.17 35.1496 32.2221 35.1929 32.2806L41.3907 40.5993L49.7137 46.7862L48.8072 48.0071Z" fill="#2A91A6"/>
<path d="M44.5322 65.8337H44.3869C20.0534 65.7578 11.9299 46.3187 11.082 44.1024C11.0581 44.0461 11.0386 43.9875 11.0234 43.9268L11.7651 43.7468L12.4916 43.5234C13.3156 45.6747 21.0748 64.2333 44.3891 64.3092H44.5322V65.8337Z" fill="#2A91A6"/>
<path d="M54.4366 33.0856H40.7204C40.6184 33.0856 40.5209 33.066 40.4276 33.027C40.3344 32.988 40.252 32.9338 40.1804 32.8622C40.1088 32.7906 40.0546 32.7082 40.0156 32.615C39.9765 32.5217 39.957 32.4241 39.957 32.3222V18.6147C39.957 18.5128 39.9765 18.4152 40.0156 18.3219C40.0546 18.2287 40.1088 18.1463 40.1804 18.0747C40.252 18.0053 40.3344 17.9489 40.4276 17.9099C40.5209 17.873 40.6184 17.8535 40.7204 17.8535H54.4366C54.5385 17.8535 54.6339 17.873 54.7272 17.9099C54.8204 17.9489 54.9028 18.0053 54.9744 18.0747C55.0459 18.1463 55.1023 18.2287 55.1414 18.3219C55.1782 18.4152 55.1977 18.5128 55.1977 18.6147V32.3222C55.1977 32.4241 55.1782 32.5217 55.1414 32.615C55.1023 32.7082 55.0459 32.7906 54.9744 32.8622C54.9028 32.9338 54.8204 32.988 54.7272 33.027C54.6339 33.066 54.5385 33.0856 54.4366 33.0856ZM41.4815 31.561H53.6754V19.3759H41.4815V31.561Z" fill="#2A91A6"/>
<path d="M54.4387 39.9391C53.9378 39.9391 53.4433 39.8892 52.9532 39.7916C52.461 39.694 51.9861 39.5487 51.5242 39.3579C51.0623 39.1671 50.622 38.9307 50.2078 38.6531C49.7915 38.3755 49.4055 38.0611 49.052 37.7076C48.6985 37.352 48.3841 36.9681 48.1043 36.5539C47.8267 36.1376 47.5925 35.6995 47.4017 35.2376C47.2087 34.7757 47.0634 34.2986 46.9658 33.8085C46.8682 33.3184 46.8184 32.824 46.8184 32.323H48.3429C48.3429 32.7242 48.3819 33.1189 48.46 33.5114C48.538 33.9039 48.653 34.2856 48.8069 34.6543C48.9587 35.0251 49.1474 35.3764 49.3708 35.7082C49.592 36.0421 49.8457 36.3501 50.1276 36.632C50.4117 36.9139 50.7196 37.1676 51.0514 37.3888C51.3854 37.6122 51.7367 37.7987 52.1053 37.9527C52.4762 38.1066 52.8557 38.2216 53.2503 38.2996C53.6428 38.3777 54.0375 38.4167 54.4387 38.4167C54.8399 38.4167 55.2346 38.3777 55.6271 38.2996C56.0196 38.2216 56.4013 38.1066 56.7721 37.9527C57.1408 37.7987 57.4921 37.6122 57.826 37.3888C58.1578 37.1676 58.4657 36.9139 58.7498 36.632C59.0317 36.3501 59.2855 36.0421 59.5067 35.7082C59.73 35.3764 59.9187 35.0251 60.0705 34.6543C60.2245 34.2856 60.3394 33.9039 60.4175 33.5114C60.4955 33.1189 60.5346 32.7242 60.5346 32.323C60.5346 31.924 60.4955 31.5272 60.4175 31.1347C60.3394 30.7422 60.2245 30.3627 60.0705 29.9918C59.9187 29.6232 59.73 29.2719 59.5067 28.9379C59.2855 28.6061 59.0317 28.2982 58.7498 28.0163C58.4657 27.7322 58.1578 27.4806 57.826 27.2573C57.4921 27.0361 57.1408 26.8474 56.7721 26.6956C56.4013 26.5416 56.0196 26.4267 55.6271 26.3486C55.2346 26.2706 54.8399 26.2315 54.4387 26.2315V24.707C54.9397 24.707 55.4341 24.7569 55.9242 24.8545C56.4165 24.9521 56.8914 25.0974 57.3533 25.2882C57.8152 25.479 58.2554 25.7154 58.6718 25.993C59.086 26.2706 59.472 26.585 59.8254 26.9385C60.1789 27.292 60.4955 27.678 60.7731 28.0943C61.0507 28.5085 61.2849 28.9488 61.4757 29.4107C61.6687 29.8726 61.8119 30.3475 61.9094 30.8376C62.007 31.3277 62.0569 31.8243 62.0569 32.323C62.0569 32.824 62.007 33.3184 61.9094 33.8085C61.8119 34.2986 61.6687 34.7757 61.4757 35.2376C61.2849 35.6995 61.0507 36.1376 60.7731 36.5539C60.4955 36.9703 60.1789 37.3541 59.8254 37.7076C59.472 38.0611 59.086 38.3777 58.6718 38.6553C58.2554 38.9329 57.8152 39.1671 57.3533 39.3601C56.8914 39.5509 56.4165 39.6962 55.9242 39.7938C55.4341 39.8914 54.9397 39.9391 54.4387 39.9391Z" fill="#2A91A6"/>
<path d="M40.1816 19.154L41.2594 18.0762L54.9756 31.7859L53.9 32.8637L40.1816 19.154Z" fill="#2A91A6"/>
<path d="M44.752 19.1537L45.8297 18.0781L54.9746 27.2165L53.8968 28.2943L44.752 19.1537Z" fill="#2A91A6"/>
<path d="M40.1816 23.7221L41.2594 22.6465L50.4043 31.7848L49.3265 32.8626L40.1816 23.7221Z" fill="#2A91A6"/>
<path d="M49.3262 19.154L50.404 18.0762L54.9753 22.6453L53.8975 23.7231L49.3262 19.154Z" fill="#2A91A6"/>
<path d="M40.1816 28.2924L41.2594 27.2168L45.8329 31.786L44.7552 32.8616L40.1816 28.2924Z" fill="#2A91A6"/>
</svg>
