<svg width="90" height="90" viewBox="0 0 90 90" fill="none" xmlns="http://www.w3.org/2000/svg">
<path d="M80.0015 43.4922C80.0015 52.3905 76.4666 60.9244 70.1745 67.2165C63.8824 73.5086 55.3486 77.0434 46.4502 77.0434C45.821 77.0434 45.1799 77.0434 44.5625 77.0434V43.4922H80.0015Z" stroke="#2A91A6" stroke-width="1.5909" stroke-linecap="round" stroke-linejoin="round"/>
<path d="M41.6635 46.2715V79.7634C33.1066 79.2812 25.0587 75.5426 19.1708 69.3148C13.2829 63.0869 10.0016 54.842 10 46.2715H41.6635Z" stroke="#2A91A6" stroke-width="1.5909" stroke-linecap="round" stroke-linejoin="round"/>
<path d="M44.56 10V43.4919H12.8965C12.8981 34.9214 16.1794 26.6764 22.0673 20.4486C27.9552 14.2207 36.0031 10.4822 44.56 10V10Z" stroke="#2A91A6" stroke-width="1.5909" stroke-linecap="round" stroke-linejoin="round"/>
<path d="M54.6628 11.9238H49.4746V37.39H54.6628V11.9238Z" stroke="#2A91A6" stroke-width="1.5909" stroke-linecap="round" stroke-linejoin="round"/>
<path d="M63.1778 15.8047H58.0371V37.4242H63.1778V15.8047Z" stroke="#2A91A6" stroke-width="1.5909" stroke-linecap="round" stroke-linejoin="round"/>
<path d="M71.7214 11.9238H66.5332V37.39H71.7214V11.9238Z" stroke="#2A91A6" stroke-width="1.5909" stroke-linecap="round" stroke-linejoin="round"/>
<path d="M80.0001 21.5059H74.8594V37.4267H80.0001V21.5059Z" stroke="#2A91A6" stroke-width="1.5909" stroke-linecap="round" stroke-linejoin="round"/>
</svg>
