<svg width="115" height="31" viewBox="0 0 115 31" fill="none" xmlns="http://www.w3.org/2000/svg">
<path d="M17.9659 15.9723C19.2267 16.4116 20.2143 17.1018 20.9287 18.0429C21.6433 18.9631 22.0005 20.0821 22.0005 21.3997C22.0005 23.3239 21.2229 24.8088 19.668 25.8545C18.113 26.9003 15.8646 27.4231 12.9228 27.4231H1.00842V5.46277H12.2924C15.1081 5.46277 17.2515 5.98564 18.7224 7.03137C20.1933 8.05619 20.9287 9.44701 20.9287 11.2038C20.9287 12.2496 20.6661 13.1907 20.1408 14.0273C19.6365 14.843 18.9115 15.4914 17.9659 15.9723ZM7.18625 9.94896V14.1842H11.4729C13.5742 14.1842 14.6249 13.4731 14.6249 12.0508C14.6249 10.6496 13.5742 9.94896 11.4729 9.94896H7.18625ZM12.4185 22.937C14.6038 22.937 15.6966 22.1945 15.6966 20.7095C15.6966 19.2246 14.6038 18.4821 12.4185 18.4821H7.18625V22.937H12.4185Z" fill="white"/>
<path d="M40.0152 23.1566H30.6854L28.9519 27.4231H22.585L32.3245 5.46277H38.4708L48.2418 27.4231H41.7488L40.0152 23.1566ZM38.1871 18.5762L35.3503 11.5489L32.5135 18.5762H38.1871Z" fill="white"/>
<path d="M57.7655 27.8622C55.9794 27.8622 54.2458 27.6426 52.5648 27.2034C50.8837 26.7642 49.5179 26.1786 48.4673 25.4465L50.5161 20.8663C51.5036 21.5146 52.6489 22.0375 53.9517 22.4349C55.2544 22.8323 56.5362 23.0309 57.797 23.0309C60.1925 23.0309 61.3903 22.4349 61.3903 21.2427C61.3903 20.6153 61.0435 20.1552 60.3501 19.8623C59.6777 19.5486 58.585 19.2245 57.072 18.8899C55.4121 18.5342 54.0251 18.1578 52.9116 17.7604C51.7979 17.3422 50.8417 16.6833 50.0433 15.7841C49.2447 14.8847 48.8455 13.6716 48.8455 12.1449C48.8455 10.8063 49.2132 9.60373 49.9486 8.53708C50.6841 7.44953 51.7768 6.59203 53.2267 5.9646C54.6976 5.33716 56.4943 5.02344 58.6165 5.02344C60.0665 5.02344 61.4953 5.19075 62.9031 5.52539C64.3111 5.83911 65.5508 6.30969 66.6226 6.93713L64.6998 11.5488C62.5985 10.4194 60.5603 9.85472 58.585 9.85472C57.3453 9.85472 56.4417 10.0429 55.8744 10.4194C55.307 10.775 55.0234 11.2455 55.0234 11.8311C55.0234 12.4167 55.3595 12.856 56.0319 13.1488C56.7044 13.4415 57.7865 13.7448 59.2785 14.0585C60.9595 14.4141 62.3463 14.801 63.4391 15.2194C64.5527 15.6166 65.5088 16.265 66.3073 17.1644C67.1268 18.0428 67.5366 19.2454 67.5366 20.7722C67.5366 22.0898 67.1688 23.2819 66.4334 24.3485C65.6979 25.4152 64.5947 26.2727 63.1238 26.921C61.6529 27.5484 59.8668 27.8622 57.7655 27.8622Z" fill="white"/>
<path d="M70.4191 5.46277H76.66V27.4231H70.4191V5.46277Z" fill="white"/>
<path d="M88.8538 27.8624C87.0677 27.8624 85.3342 27.6427 83.653 27.2035C81.972 26.7644 80.6062 26.1787 79.5555 25.4466L81.6043 20.8664C82.5919 21.5148 83.7371 22.0376 85.04 22.435C86.3427 22.8324 87.6246 23.031 88.8853 23.031C91.2807 23.031 92.4785 22.435 92.4785 21.2428C92.4785 20.6154 92.1319 20.1553 91.4384 19.8625C90.766 19.5488 89.6733 19.2246 88.1603 18.89C86.5004 18.5343 85.1135 18.1579 83.9998 17.7605C82.8861 17.3423 81.9301 16.6834 81.1315 15.7842C80.333 14.8848 79.9337 13.6718 79.9337 12.145C79.9337 10.8065 80.3015 9.60386 81.037 8.53721C81.7724 7.44966 82.865 6.59215 84.315 5.96472C85.7859 5.33728 87.5825 5.02356 89.7048 5.02356C91.1547 5.02356 92.5836 5.19088 93.9915 5.52551C95.3993 5.83923 96.6392 6.30981 97.7108 6.93725L95.788 11.5489C93.6868 10.4195 91.6485 9.85484 89.6733 9.85484C88.4335 9.85484 87.53 10.0431 86.9626 10.4195C86.3953 10.7751 86.1116 11.2457 86.1116 11.8313C86.1116 12.4169 86.4478 12.8561 87.1203 13.1489C87.7927 13.4416 88.8749 13.745 90.3667 14.0587C92.0478 14.4142 93.4346 14.8011 94.5273 15.2195C95.641 15.6168 96.5971 16.2651 97.3956 17.1645C98.2151 18.0429 98.6248 19.2456 98.6248 20.7723C98.6248 22.0899 98.2571 23.282 97.5217 24.3486C96.7863 25.4153 95.683 26.2728 94.2121 26.9212C92.7413 27.5486 90.955 27.8624 88.8538 27.8624Z" fill="white"/>
<path d="M108.536 1.00793H113.863L103.462 30.5603H98.1348L108.536 1.00793Z" fill="white"/>
</svg>
