<svg width="149" height="152" viewBox="0 0 149 152" fill="none" xmlns="http://www.w3.org/2000/svg">
<g clip-path="url(#clip0_481_11296)">
<mask id="mask0_481_11296" style="mask-type:luminance" maskUnits="userSpaceOnUse" x="0" y="0" width="149" height="152">
<path d="M148.872 0H0.00341797V151.033H148.872V0Z" fill="white"/>
</mask>
<g mask="url(#mask0_481_11296)">
<path d="M3.39111 129.196H137.029" stroke="#202124" stroke-width="0.284699" stroke-miterlimit="10"/>
<path d="M30.0675 126.378H7.74707V129.168H30.0675V126.378Z" fill="white" stroke="#202124" stroke-width="0.213524" stroke-miterlimit="10"/>
<path d="M27.3631 124.641H5.46973V126.378H27.3631V124.641Z" fill="white" stroke="#202124" stroke-width="0.213524" stroke-miterlimit="10"/>
<path d="M28.7862 122.819H6.63672V124.584H28.7862V122.819Z" fill="#86D0DA"/>
<path d="M30.0674 122.05H6.63672V122.819H30.0674V122.05Z" fill="white" stroke="#202124" stroke-width="0.213524" stroke-miterlimit="10"/>
<path d="M99.6479 125.381C99.8472 125.125 104.886 122.62 104.886 122.62L110.893 125.125L107.221 128.171L99.6479 125.381Z" fill="white" stroke="#202124" stroke-width="0.213524" stroke-miterlimit="10"/>
<path d="M108.103 126.008H103.69L102.182 117.239H109.47L108.103 126.008Z" fill="#FAD9BD"/>
<path d="M105.826 118.549C107.838 118.549 109.47 117.975 109.47 117.267C109.47 116.56 107.838 115.986 105.826 115.986C103.813 115.986 102.182 116.56 102.182 117.267C102.182 117.975 103.813 118.549 105.826 118.549Z" fill="white" stroke="#202124" stroke-width="0.213524" stroke-miterlimit="10"/>
<path d="M108.787 116.67C108.417 116.954 107.506 117.552 106.168 117.638C104.431 117.751 103.207 116.897 102.865 116.67C102.865 116.271 102.894 115.844 102.894 115.445C103.662 115.275 104.659 115.132 105.826 115.161C106.965 115.189 107.961 115.36 108.702 115.531C108.73 115.929 108.758 116.299 108.787 116.67Z" fill="white" stroke="#202124" stroke-width="0.213524" stroke-miterlimit="10"/>
<path d="M105.826 117.011C107.461 117.011 108.787 116.399 108.787 115.645C108.787 114.89 107.461 114.278 105.826 114.278C104.191 114.278 102.865 114.89 102.865 115.645C102.865 116.399 104.191 117.011 105.826 117.011Z" fill="white" stroke="#202124" stroke-width="0.213524" stroke-miterlimit="10"/>
<path d="M104.659 0.113892H0.117188V94.9756H104.659V0.113892Z" fill="#F7F7F7"/>
<path d="M148.759 62.4915H88.3169V99.3314H148.759V62.4915Z" fill="white" stroke="#202124" stroke-width="0.213524" stroke-miterlimit="10"/>
<path d="M148.872 62.406H88.2031V68.4986H148.872V62.406Z" fill="#AAAAAA"/>
<path d="M91.3916 84.6124C93.47 80.5698 95.5198 76.5554 97.598 72.5128C100.103 79.4878 102.609 86.4344 105.114 93.4096C107.477 89.7655 109.84 86.1214 112.203 82.4773C114.338 84.3563 116.474 86.2069 118.637 88.0858C119.805 85.8651 120.943 83.6446 122.111 81.4524C123.677 81.6516 125.271 81.8509 126.837 82.0501C128.659 83.9007 130.481 85.7513 132.303 87.5734C136.374 82.762 140.417 77.979 144.488 73.1676" stroke="#202124" stroke-width="0.284699" stroke-miterlimit="10"/>
<path d="M141.214 74.4772L144.459 73.1676" stroke="#202124" stroke-width="0.284699" stroke-miterlimit="10"/>
<path d="M144.459 76.9826V73.1676" stroke="#202124" stroke-width="0.284699" stroke-miterlimit="10"/>
<path d="M44.1318 11.9573L47.9468 23.9716C47.9183 23.9716 47.8897 23.9716 47.8614 24.0001C45.1282 24.8827 43.6194 27.7866 44.4734 30.5481C45.356 33.2813 48.2598 34.7901 51.0216 33.9361C51.0499 33.9361 51.0785 33.9075 51.1068 33.9075L54.9218 45.9218L67.591 41.8791C68.5304 44.5268 71.3774 45.9504 74.082 45.0962C76.7583 44.2421 78.2672 41.4237 77.4986 38.7191L88.8579 35.1033L78.0679 1.16724L44.1318 11.9573Z" fill="#86D0DA"/>
<path d="M37.0426 29.8934C37.0426 27.018 39.3771 24.6833 42.2526 24.6833V12.0997H6.63672V47.7156H19.5336C19.5336 47.6871 19.5336 47.6585 19.5336 47.6016C19.5336 44.7261 21.868 42.3916 24.7435 42.3916C27.6191 42.3916 29.9536 44.7261 29.9536 47.6016C29.9536 47.6302 29.9536 47.6585 29.9536 47.7156H42.2526V35.1034C39.3771 35.1034 37.0426 32.7689 37.0426 29.8934Z" fill="#B1CEFC"/>
<path d="M37.0426 67.3028C37.0426 64.4272 39.3771 62.0927 42.2526 62.0927V47.6301H29.9536C29.9536 47.6015 29.9536 47.5446 29.9536 47.5161C29.9536 44.6408 27.6191 42.3063 24.7435 42.3063C21.868 42.3063 19.5336 44.6408 19.5336 47.5161C19.5336 47.5446 19.5336 47.6015 19.5336 47.6301H6.63672V83.2459H42.2526V72.5128C39.3771 72.5128 37.0426 70.1781 37.0426 67.3028Z" fill="#F27777"/>
<path d="M66.0249 47.687C65.9396 50.5056 63.662 52.7547 60.8151 52.7547C57.9681 52.7547 55.6905 50.5056 55.605 47.687H42.3096V62.1213C42.2811 62.1213 42.2525 62.1213 42.2242 62.1213C39.3487 62.1213 37.0142 64.4558 37.0142 67.3311C37.0142 70.2067 39.3487 72.5412 42.2242 72.5412C42.2525 72.5412 42.2811 72.5412 42.3096 72.5412V83.3314H77.9254V47.687H66.0249Z" fill="#FAD9BD"/>
<path d="M84.6443 115.331C84.445 115.047 84.445 114.534 84.4734 113.538C84.4734 113.082 84.5019 112.484 84.6159 111.63C84.6442 111.289 84.7866 110.235 85.1567 109.096C85.2707 108.783 85.413 108.413 85.7832 108.157C86.0393 107.986 86.2956 107.958 86.4663 107.958C86.4094 109.011 86.4949 109.267 86.5803 109.296C86.8081 109.353 87.3489 107.844 87.4629 107.502C87.8613 106.335 88.0322 105.395 88.26 105.424C88.3169 105.424 88.3169 105.452 88.573 105.822C88.8577 106.193 88.8577 106.193 88.9148 106.278C89.0003 106.449 89.1426 106.734 89.0855 107.246C89.1709 107.417 89.3133 107.701 89.3987 108.043C89.4556 108.214 89.6265 108.84 89.4842 109.951C89.3987 110.691 89.2564 111.232 89.0286 112C88.8579 112.513 88.687 113.111 88.3452 113.823C87.8044 114.99 87.5481 115.559 87.0073 115.844C86.2671 116.129 85.1282 115.958 84.6443 115.331Z" fill="#F8DBC3"/>
<path d="M75.7904 104.57C76.0182 104.826 76.3314 105.196 76.673 105.652C77.7548 107.104 78.4381 108.47 79.1498 110.235C79.8046 111.858 80.6587 114.079 81.4275 116.897C81.6836 116.499 81.9114 116.157 82.0822 115.901C82.6516 115.132 83.0786 114.534 83.8189 114.022C84.189 113.766 84.5022 113.595 84.73 113.509C85.0147 113.481 85.4131 113.509 85.8404 113.623C86.7798 113.908 87.3206 114.563 87.5201 114.819C87.4915 115.559 87.463 116.613 87.3206 117.837C86.9505 120.997 86.2388 123.388 85.6409 125.267C85.0147 127.232 85.1285 126.435 84.1035 129.481C83.648 130.848 83.1355 132.356 81.9399 133.695C81.4275 134.264 80.915 134.663 80.2602 134.634C79.8332 134.606 79.4914 134.406 79.2922 134.236C78.8652 133.894 78.2387 133.381 77.5556 132.67C77.2138 132.3 76.132 131.132 74.68 128.399C74.0538 127.203 73.1143 125.325 72.2032 122.734C71.5484 120.883 71.0928 119.09 70.9219 118.264C69.9256 112.855 74.2816 106.591 75.7904 104.57Z" fill="#040844"/>
<path d="M86.4946 108.584C86.4946 108.812 86.4946 109.04 86.4946 109.267C86.4946 109.41 86.7224 109.41 86.7224 109.267C86.7224 109.04 86.7224 108.812 86.7224 108.584C86.6941 108.442 86.4946 108.442 86.4946 108.584Z" fill="#202124"/>
<path d="M88.4022 105.395C88.6871 106.563 88.6016 107.702 88.2029 108.812C88.146 108.954 88.3738 109.011 88.4022 108.869C88.8008 107.73 88.8863 106.534 88.6016 105.339C88.5731 105.196 88.3738 105.253 88.4022 105.395Z" fill="#202124"/>
<path d="M88.7439 106.022C89.114 107.189 89.0855 108.385 88.6868 109.552C88.6299 109.694 88.8577 109.751 88.8863 109.609C89.3133 108.413 89.3133 107.189 88.9432 105.965C88.9146 105.822 88.7154 105.879 88.7439 106.022Z" fill="#202124"/>
<path d="M89.2566 107.474C89.4273 108.499 89.3419 109.495 89.0003 110.463C88.9434 110.605 89.1712 110.662 89.1995 110.52C89.5696 109.495 89.6551 108.47 89.4559 107.417C89.4273 107.275 89.2281 107.331 89.2566 107.474Z" fill="#202124"/>
<path d="M43.5622 102.634C43.2489 103.289 42.8219 104.256 42.5656 105.481C42.2809 106.876 42.2809 107.958 42.3094 108.612C42.4232 112.741 42.4801 114.79 42.8219 116.869C42.9642 117.837 43.5622 121.509 45.3273 126.748C46.466 130.107 48.2595 134.662 51.135 139.759C52.9856 140.613 56.4305 141.894 60.8432 141.78C66.9358 141.637 71.2633 138.99 72.9999 137.823C73.1991 137.111 73.4555 136.143 73.7401 135.004C74.338 132.527 74.9928 129.452 75.6191 124.783C76.5302 118.065 76.9858 114.733 76.6725 110.52C76.4733 107.986 76.1032 105.908 75.79 104.541C75.4767 104.37 74.9928 104.114 74.4235 103.829C70.1529 101.637 66.5374 100.783 65.7686 100.612C63.918 100.185 60.3593 99.502 55.8326 99.7584C50.9644 100.014 47.2917 101.21 45.7258 101.78C44.8149 102.093 44.0746 102.406 43.5622 102.634Z" fill="#040844"/>
<path d="M64.3739 98.1641C67.3299 98.1641 69.7262 95.7678 69.7262 92.8117C69.7262 89.8557 67.3299 87.4594 64.3739 87.4594C61.4178 87.4594 59.0215 89.8557 59.0215 92.8117C59.0215 95.7678 61.4178 98.1641 64.3739 98.1641Z" fill="#86D0DA"/>
<path d="M63.9468 88.4558C64.3169 88.5698 64.9717 88.8545 65.5127 89.4524C66.566 90.5911 66.5091 92.0147 66.4805 92.4703C66.4236 93.6658 65.9397 94.5201 65.655 94.9471C65.114 92.7833 64.5161 90.6196 63.9468 88.4558Z" fill="#FAD9BD"/>
<path d="M64.374 88.5983C63.7477 87.7726 62.4665 86.1784 60.8153 86.2352C58.9078 86.2921 57.1995 88.5129 56.7725 90.5341C56.4593 92.0146 57.0572 92.3279 56.6871 93.3811C55.8616 95.6873 52.6728 95.0894 51.0217 97.2816C49.228 99.6446 50.5376 103.602 51.6765 105.623C52.0749 106.363 54.2957 110.292 57.9112 110.321C61.1569 110.349 63.3207 107.274 64.3171 105.851C68.0181 100.584 67.7619 92.9541 64.374 88.5983Z" fill="#86D0DA"/>
<path d="M75.3915 151.033H42.9359C41.0569 151.033 39.5195 149.495 39.5195 147.616V106.933C39.5195 105.054 41.0569 103.516 42.9359 103.516H75.3915C77.2706 103.516 78.808 105.054 78.808 106.933V147.616C78.808 149.495 77.2706 151.033 75.3915 151.033Z" fill="#CCCCCC"/>
</g>
</g>
<defs>
<clipPath id="clip0_481_11296">
<rect width="148.993" height="151.14" fill="white" transform="translate(0.00341797)"/>
</clipPath>
</defs>
</svg>
