<svg width="170" height="170" viewBox="0 0 170 170" fill="none" xmlns="http://www.w3.org/2000/svg">
<path d="M138.38 135.462C139.938 144.103 141.497 152.773 143.055 161.415C148.013 161.472 152.943 161.557 157.902 161.613C159.148 152.887 160.367 144.188 161.613 135.462H138.38Z" fill="#3A6E79"/>
<path d="M149.997 140.335C156.412 140.335 161.613 138.318 161.613 135.83C161.613 133.342 156.412 131.325 149.997 131.325C143.581 131.325 138.38 133.342 138.38 135.83C138.38 138.318 143.581 140.335 149.997 140.335Z" fill="white" stroke="#3A6E79" stroke-width="0.2125" stroke-miterlimit="10"/>
<path d="M147.872 106.703C146.115 109.055 144.67 111.605 143.537 114.325C142.489 116.79 141.61 119.567 142.035 122.258C142.432 124.752 144.019 126.508 145.719 128.237C148.042 130.617 149.629 133.138 149.544 136.567C149.544 137.105 150.394 137.105 150.394 136.567C150.45 134.13 149.77 131.807 148.297 129.852C146.824 127.897 144.642 126.423 143.509 124.185C142.064 121.352 142.942 118.037 144.047 115.232C145.209 112.342 146.739 109.622 148.609 107.128C148.92 106.703 148.184 106.278 147.872 106.703Z" fill="#2A91A6"/>
<path d="M149.373 131.382C147.361 125.233 155.692 120.955 153.68 114.665C153.51 114.155 152.688 114.382 152.858 114.892C154.841 121.04 146.483 125.29 148.551 131.608C148.721 132.118 149.543 131.892 149.373 131.382Z" fill="#2A91A6"/>
<path d="M143.962 104.323C142.828 105.967 141.723 107.695 141.44 109.707C141.1 111.888 141.922 113.9 142.772 115.855C142.998 116.365 143.707 115.912 143.508 115.43C142.687 113.503 141.865 111.492 142.375 109.338C142.772 107.638 143.735 106.165 144.698 104.748C144.982 104.295 144.245 103.87 143.962 104.323Z" fill="#2A91A6"/>
<path d="M151.328 122.967C150.45 121.097 149.996 119.085 150.081 117.017C150.166 115.175 151.045 113.418 150.875 111.577C150.818 111.038 149.968 111.038 150.025 111.577C150.138 112.852 149.656 113.985 149.43 115.203C149.26 116.11 149.175 117.073 149.203 118.008C149.26 119.907 149.77 121.692 150.563 123.392C150.846 123.873 151.583 123.448 151.328 122.967Z" fill="#2A91A6"/>
<path d="M150.393 115.827C150.818 113.928 152.292 112.37 153.057 110.613C153.793 108.913 154.218 107.128 154.417 105.287C154.473 104.748 153.623 104.748 153.567 105.287C153.34 107.412 152.773 109.452 151.753 111.35C150.988 112.767 149.912 114.013 149.543 115.628C149.458 116.138 150.28 116.365 150.393 115.827Z" fill="#2A91A6"/>
<path d="M142.97 124.015C142.715 124.043 140.279 124.185 138.635 122.258C137.417 120.813 137.105 118.773 137.842 116.96C138.55 117.215 139.684 117.725 140.704 118.773C142.687 120.785 142.914 123.278 142.97 124.015Z" fill="#2A91A6"/>
<path d="M143.282 116.195C143.027 115.543 144.585 114.297 145.492 113.73C146.767 112.908 148.042 112.653 148.863 112.568C148.807 112.937 148.41 115.232 146.512 116.195C145.237 116.818 143.508 116.762 143.282 116.195Z" fill="#2A91A6"/>
<path d="M143.083 106.477C142.97 106.137 142.148 103.502 143.707 101.207C144.5 100.045 145.577 99.4784 146.115 99.2517C146.455 99.9884 146.54 100.612 146.568 101.093C146.653 104.267 143.367 106.307 143.083 106.477Z" fill="#2A91A6"/>
<path d="M147.447 108.885C147.22 108.403 146.738 107.185 147.05 105.712C147.588 103.105 150.053 102 150.308 101.915C150.28 102.708 150.167 103.813 149.742 105.003C149.118 106.873 148.127 108.148 147.447 108.885Z" fill="#2A91A6"/>
<path d="M151.725 122.117C152.178 121.295 153 120.02 154.445 118.887C156.173 117.498 157.93 116.988 158.893 116.762C158.723 117.413 158.383 118.207 157.845 118.972C155.833 121.72 152.433 122.06 151.725 122.117Z" fill="#2A91A6"/>
<path d="M146.313 128.775C146.002 128.35 144.812 126.622 145.038 124.185C145.265 121.635 146.88 120.105 147.248 119.765C147.447 120.502 147.617 121.352 147.673 122.315C147.843 125.205 146.965 127.5 146.313 128.775Z" fill="#2A91A6"/>
<path d="M82.1384 131.75V114.042C82.1384 112.483 80.8917 111.237 79.3334 111.237H75.6217C74.0634 111.237 72.8167 112.483 72.8167 114.042V131.807C66.2717 132.713 61.54 135.405 61.54 138.55C61.54 142.46 68.7934 145.633 77.7184 145.633C86.6434 145.633 93.8967 142.46 93.8967 138.55C93.8967 135.32 88.9384 132.572 82.1384 131.75Z" fill="white" stroke="#3A6E79" stroke-width="0.283333" stroke-miterlimit="10"/>
<path d="M136.028 129.2L29.9199 104.89L34.2549 2.57837L144.84 16.0367L136.028 129.2Z" fill="white" stroke="#3A6E79" stroke-width="0.2125" stroke-miterlimit="10"/>
<path d="M30.4016 93.245L29.9199 104.89L136.028 129.2L137.077 115.77L30.4016 93.245Z" fill="white" stroke="#3A6E79" stroke-width="0.2125" stroke-miterlimit="10"/>
<path d="M77.2082 113.928C78.6634 113.928 79.8432 112.749 79.8432 111.293C79.8432 109.838 78.6634 108.658 77.2082 108.658C75.753 108.658 74.5732 109.838 74.5732 111.293C74.5732 112.749 75.753 113.928 77.2082 113.928Z" fill="white" stroke="#3A6E79" stroke-width="0.283333" stroke-miterlimit="10"/>
<path d="M49.3565 11.1634C49.0165 11.475 46.6082 13.5717 43.0949 13.1184C39.4965 12.665 37.6832 9.86005 37.4565 9.49171C37.8249 9.18005 40.2332 7.14005 43.7182 7.59338C47.2882 8.04671 49.1015 10.7667 49.3565 11.1634Z" stroke="#3A6E79" stroke-width="0.2125" stroke-miterlimit="10"/>
<path d="M43.1235 12.4667C44.2971 12.4667 45.2485 11.5153 45.2485 10.3417C45.2485 9.16808 44.2971 8.21667 43.1235 8.21667C41.95 8.21667 40.9985 9.16808 40.9985 10.3417C40.9985 11.5153 41.95 12.4667 43.1235 12.4667Z" fill="#3A6E79" stroke="#3A6E79" stroke-width="0.2125" stroke-miterlimit="10"/>
<path d="M7.70648 57.7716C7.56482 58.3666 6.77148 83.7533 6.77148 83.7533L59.5565 94.3499L62.3048 68.4533L7.70648 57.7716Z" fill="white" stroke="#3A6E79" stroke-width="0.2125" stroke-miterlimit="10"/>
<path d="M7.25342 65.5633L61.5118 75.6783L62.2768 68.4816L7.70675 57.7716L7.25342 65.5633Z" fill="#3A6E79"/>
<path d="M10.6534 70.5783C11.4202 70.5783 12.0418 69.9567 12.0418 69.19C12.0418 68.4233 11.4202 67.8016 10.6534 67.8016C9.88671 67.8016 9.26514 68.4233 9.26514 69.19C9.26514 69.9567 9.88671 70.5783 10.6534 70.5783Z" fill="#004D58"/>
<path d="M10.4268 81.43C11.084 81.43 11.6168 80.8974 11.6168 80.2401C11.6168 79.5827 11.084 79.05 10.4268 79.05C9.7696 79.05 9.23682 79.5827 9.23682 80.2401C9.23682 80.8974 9.7696 81.43 10.4268 81.43Z" fill="#004D58"/>
<path d="M13.3169 70.0684L53.8619 77.9167" stroke="#3A6E79" stroke-width="0.283333" stroke-miterlimit="10"/>
<path d="M11.6167 74.0067L44.795 80.9767" stroke="#3A6E79" stroke-width="0.283333" stroke-miterlimit="10"/>
<path d="M15.0166 80.24L53.8616 88.4" stroke="#3A6E79" stroke-width="0.283333" stroke-miterlimit="10"/>
<path d="M110.274 23.1483L107.894 40.715L151.612 49.64L155.125 31.4783L110.274 23.1483Z" fill="white" stroke="#3A6E79" stroke-width="0.2125" stroke-miterlimit="10"/>
<path d="M109.763 26.8316C124.638 29.58 139.513 32.3 154.388 35.0483C154.643 33.8583 154.87 32.6683 155.125 31.4783C140.165 28.7016 125.233 25.925 110.273 23.1766" fill="#3A6E79"/>
<path d="M112.54 32.2433C113.291 32.2433 113.9 31.6344 113.9 30.8833C113.9 30.1322 113.291 29.5233 112.54 29.5233C111.789 29.5233 111.18 30.1322 111.18 30.8833C111.18 31.6344 111.789 32.2433 112.54 32.2433Z" fill="#004D58"/>
<path d="M111.095 37.995C111.815 37.995 112.398 37.4116 112.398 36.6916C112.398 35.9717 111.815 35.3883 111.095 35.3883C110.375 35.3883 109.792 35.9717 109.792 36.6916C109.792 37.4116 110.375 37.995 111.095 37.995Z" fill="#004D58"/>
<path d="M115.742 30.2034L146.455 35.3884" stroke="#3A6E79" stroke-width="0.283333" stroke-miterlimit="10"/>
<path d="M120.53 32.7816L151.725 38.0233" stroke="#3A6E79" stroke-width="0.283333" stroke-miterlimit="10"/>
<path d="M114.892 33.83L138.012 37.315" stroke="#3A6E79" stroke-width="0.283333" stroke-miterlimit="10"/>
<path d="M113.928 36.4083L150.563 43.0383" stroke="#3A6E79" stroke-width="0.283333" stroke-miterlimit="10"/>
<path d="M113.928 38.0233L146.455 43.8033" stroke="#3A6E79" stroke-width="0.283333" stroke-miterlimit="10"/>
<path d="M130.9 43.6616L149.175 46.9766" stroke="#3A6E79" stroke-width="0.283333" stroke-miterlimit="10"/>
<path d="M121.465 67.4617C121.692 68.255 121.975 69.4167 122.343 70.7767C123.052 73.525 124.808 80.41 126.565 88.8533C128.69 99.0817 130.078 108.12 130.928 114.353C127.33 113.588 123.732 112.823 120.105 112.058C116.733 105.032 114.948 101.008 113.9 98.5433C113.617 97.8633 112.852 96.0217 111.605 93.6983C110.613 91.8567 109.707 90.3833 109.14 89.505C108.942 90.1283 108.602 91.12 108.148 92.2533C106.987 95.2283 105.825 97.325 105.4 98.1183C104.323 100.102 102.765 103.19 100.753 108.007C96.5883 107.128 92.4516 106.25 88.2866 105.4C89.9866 99.5633 91.8283 93.67 93.7833 87.6633C94.52 85.4533 95.2283 83.2717 95.965 81.09C97.6366 79.56 99.5349 78.0017 101.66 76.5C108.828 71.4567 115.94 68.85 121.465 67.4617Z" fill="white"/>
<path d="M95.9365 80.9483C93.1032 89.0516 90.7798 97.3533 88.0598 105.513C88.0032 105.655 88.2298 105.712 88.2582 105.57C90.9782 97.4099 93.2732 89.1366 96.1348 81.0049C96.1632 80.8633 95.9648 80.8066 95.9365 80.9483Z" fill="#3A6E79"/>
<path d="M121.352 67.49C125.46 82.8467 128.634 98.4584 130.787 114.212C130.815 114.353 131.014 114.297 130.985 114.155C128.832 98.4017 125.659 82.79 121.55 67.4334C121.522 67.2917 121.324 67.3484 121.352 67.49Z" fill="#3A6E79"/>
<path d="M105.372 86.19C109.509 88.6833 111.407 93.2733 113.305 97.495C115.572 102.51 117.839 107.553 120.105 112.568C120.162 112.682 120.332 112.597 120.275 112.455C117.867 107.1 115.459 101.717 113.022 96.3616C111.237 92.4233 109.282 88.315 105.457 85.9916C105.372 85.935 105.259 86.1333 105.372 86.19Z" fill="#3A6E79"/>
<path d="M108.941 90.3833C106.165 96.2767 103.416 102.17 100.64 108.063C100.583 108.177 100.753 108.29 100.81 108.177C103.586 102.283 106.335 96.39 109.111 90.4967C109.168 90.355 108.998 90.2417 108.941 90.3833Z" fill="#3A6E79"/>
<path d="M58.8201 45.6733C59.5001 45.4749 59.9818 45.4466 62.7584 45.1066C66.2151 44.6816 68.9918 44.2566 70.8051 43.9449C71.4568 44.1433 72.4484 44.5683 73.3268 45.4466C74.7718 46.8916 75.0268 48.7049 75.1684 49.7249C75.3384 51.0283 75.2251 52.1049 75.0551 52.8699C73.8934 53.3516 72.6184 53.8049 71.3151 54.2583C70.5501 54.5133 67.9434 55.3633 64.3734 56.1283C63.1551 56.3833 60.0951 57.0066 56.0718 57.4316C54.3718 57.6016 52.9268 57.6866 51.8501 57.7433C53.6918 49.0166 56.5251 46.3816 58.8201 45.6733Z" fill="#86D0DA"/>
<path d="M53.8619 57.7433C57.8285 57.4883 61.7669 56.8933 65.6202 55.9867C69.3319 55.1083 73.1569 54.0883 76.5285 52.275C76.6419 52.2183 76.5285 52.02 76.4152 52.105C73.0719 53.89 69.2185 54.91 65.5352 55.7883C61.6819 56.695 57.7719 57.2617 53.8335 57.545C53.7485 57.545 53.7202 57.7433 53.8619 57.7433Z" fill="#3A6E79"/>
<path d="M58.8482 45.7583C64.0615 45.0216 69.2465 44.2849 74.4599 43.5199C74.6015 43.4916 74.5449 43.2933 74.4032 43.3216C69.1899 44.0583 64.0049 44.7949 58.7915 45.5599C58.6499 45.5883 58.7065 45.7866 58.8482 45.7583Z" fill="#3A6E79"/>
<path d="M69.5582 43.945C69.4448 44.4266 69.3032 45.1633 69.5298 46.0133C69.7848 46.9483 70.3515 47.5433 70.6348 47.8266C72.1365 49.4416 71.4282 49.3566 74.4032 53.1816C74.7715 53.635 75.9048 55.08 77.6898 57.0916C78.2848 57.7433 80.1832 59.84 84.2632 63.7216C86.0198 65.3933 88.3432 67.5466 91.1482 70.0116C91.5732 71.145 92.0265 72.3066 92.4798 73.4683C93.3582 75.7066 94.2365 77.9166 95.1432 80.07C95.2848 80.3533 95.5398 80.75 95.9932 81.09C96.7865 81.7133 97.7215 81.77 99.2515 81.77C101.263 81.77 102.283 81.77 103.077 81.685C106.25 81.345 108.658 80.4666 109.848 79.985C111.095 79.475 112.682 78.8233 114.495 77.52C115.543 76.7833 117.47 75.3666 119.113 72.7883C119.793 71.74 120.672 70.0683 121.21 67.8016C120.785 66.4416 120.162 64.6566 119.312 62.6166C118.632 60.9733 117.413 58.055 115.288 54.57C114.353 53.04 112.767 50.4616 110.188 47.515C108.687 45.815 106.477 43.35 103.105 41.0833C101.348 39.8933 97.0132 37.0316 90.8365 36.125C87.6915 35.6716 85.3965 35.8983 84.8582 35.955C81.8548 36.295 79.6732 37.1733 78.1148 37.8533C76.3582 38.59 73.9498 39.6383 71.5132 41.8766C70.6632 42.6416 69.9832 43.4066 69.5582 43.945Z" fill="#86D0DA"/>
<path d="M80.4386 101.093C80.0702 101.008 79.5319 100.867 78.8802 100.81C77.8886 100.697 77.3502 100.668 76.7269 100.952C76.5285 101.037 75.6786 101.462 75.5369 102.312C75.4519 102.793 75.6502 103.19 75.7352 103.388C74.4885 103.757 73.6952 104.352 73.2702 104.72C72.5052 105.4 72.2786 105.995 72.2219 106.137C72.1086 106.477 71.8536 107.1 72.1369 107.695C72.2219 107.865 72.3919 108.177 73.2986 108.63C74.2619 109.112 74.9136 109.452 75.8486 109.423C76.9819 109.423 77.8319 108.913 78.4269 108.545C79.1635 108.092 78.9936 108.007 80.0136 107.298C81.0336 106.59 81.3452 106.59 82.2519 105.882C82.7335 105.513 83.1019 105.23 83.4702 104.72C83.6969 104.437 84.1502 103.813 84.3486 102.878C84.4052 102.623 84.4619 102.198 84.3769 101.688C84.3485 101.575 84.2352 100.867 83.8952 100.527C83.3286 99.9317 81.8836 100.102 80.4386 101.093Z" fill="white"/>
<path d="M92.5934 36.4366C91.8567 37.5983 91.12 38.8733 90.4117 40.29C88.6834 43.69 87.635 46.92 86.9834 49.6683C86.0767 55.9866 85.1984 62.39 84.3484 68.85C82.96 79.6733 81.7417 90.2983 80.665 100.753C81.005 100.668 81.5717 100.583 82.195 100.725C83.64 101.065 84.3484 102.283 84.4617 102.51C85.085 100.952 85.8784 98.9116 86.785 96.5316C87.975 93.3866 89.6184 89.0516 91.4317 83.895C93.0184 79.4466 95.0867 73.015 99.195 60.3216C100.073 57.5733 100.697 54.7683 101.632 52.0483C101.915 51.2833 102.368 49.9516 102.623 48.11C102.822 46.5233 103.02 45.05 102.425 43.3216C101.745 41.3383 100.442 40.1766 99.6767 39.4683C98.3167 38.2216 96.9567 37.655 96.305 37.3716C94.86 36.7483 93.5284 36.5216 92.5934 36.4366Z" fill="#86D0DA"/>
<path d="M92.8765 36.5784C97.7215 37.0884 102.821 40.8284 102.736 46.07C102.708 48.5917 101.83 51.085 101.121 53.4934C100.441 55.845 99.7332 58.225 99.0248 60.5767C96.2198 69.8134 93.1315 78.9933 89.8448 88.06C87.9465 93.2733 85.9632 98.4867 83.9232 103.643C83.8665 103.757 84.0648 103.813 84.1215 103.7C88.0882 93.6983 91.7715 83.6117 95.1715 73.4117C96.8432 68.3967 98.4298 63.3533 99.9598 58.2817C100.753 55.675 101.546 53.0684 102.226 50.4617C102.793 48.3934 103.246 46.1833 102.765 44.03C101.801 39.695 97.0415 36.805 92.8765 36.38C92.7632 36.3517 92.7632 36.5784 92.8765 36.5784Z" fill="white"/>
<path d="M84.0083 103.558C82.9599 106.023 80.1833 106.675 78.3983 108.432C78.3133 108.517 78.4549 108.687 78.5399 108.573C80.3249 106.788 83.1299 106.137 84.1783 103.643C84.2349 103.558 84.0649 103.445 84.0083 103.558Z" fill="#3A6E79"/>
<path d="M80.3819 100.952C78.9085 100.725 76.1319 99.9883 75.7069 102.113C75.6785 102.255 75.8769 102.312 75.9052 102.17C76.3019 100.187 78.9369 100.923 80.3252 101.15C80.4385 101.178 80.4952 100.952 80.3819 100.952Z" fill="#3A6E79"/>
<path d="M78.0017 102.283C75.7634 103.445 71.7967 104.125 71.9667 107.412C71.9667 107.553 72.1934 107.553 72.1934 107.412C72.0234 104.21 75.9334 103.615 78.1151 102.482C78.2284 102.425 78.115 102.227 78.0017 102.283Z" fill="#3A6E79"/>
<path d="M73.1567 108.063C73.61 106.533 74.6867 105.343 76.1317 104.692C76.245 104.635 76.16 104.465 76.0183 104.522C74.5167 105.202 73.4117 106.448 72.9583 108.035C72.93 108.148 73.1283 108.205 73.1567 108.063Z" fill="#3A6E79"/>
<path d="M74.4885 108.715C75.1968 107.213 76.3868 106.08 77.8885 105.428C78.0018 105.372 77.9168 105.202 77.7751 105.258C76.2168 105.91 74.9985 107.1 74.2901 108.63C74.2335 108.715 74.4035 108.828 74.4885 108.715Z" fill="#3A6E79"/>
<path d="M75.9901 109.423C76.4151 108.148 77.3785 107.128 78.6535 106.618C78.7668 106.562 78.7385 106.363 78.5968 106.42C77.2651 106.958 76.2451 108.007 75.7918 109.367C75.7351 109.508 75.9335 109.565 75.9901 109.423Z" fill="#3A6E79"/>
<path d="M73.4966 40.0067C73.2699 39.8367 72.9016 39.5817 72.5049 39.1851C72.1082 38.7601 71.5416 38.1934 71.2299 37.3151C71.0882 36.8617 70.7482 35.8134 71.2866 34.7934C71.3149 34.7084 71.8816 33.7451 72.9866 33.4901C73.3549 33.4051 73.7232 33.4051 75.3949 33.9717C77.3216 34.6234 77.2649 34.7651 78.9082 35.3317C79.5599 35.5301 80.0699 35.7001 80.8066 36.0684C81.3166 36.3517 81.7132 36.5501 82.1099 36.9467C83.0166 37.8534 83.2432 38.9584 83.2999 39.2701C83.4132 39.8651 83.5266 40.5167 83.2432 41.1117C82.4782 42.6701 79.3899 42.4717 79.0499 42.4717C76.8682 42.3017 75.2249 41.1684 73.4966 40.0067Z" fill="#3A6E79"/>
<path d="M73.5252 39.8367C73.4685 40.1483 73.4118 40.6017 73.4402 41.1683C73.4402 41.7917 73.4685 42.9817 74.1768 44.2C74.4318 44.6533 74.9985 45.5883 76.1885 46.1267C77.2368 46.6083 78.1718 46.495 78.7101 46.4383C80.0135 46.2967 80.8918 45.73 81.0902 45.5883C81.3168 45.4183 81.7135 45.1633 82.0818 44.71C82.6768 43.9733 82.8468 43.2367 83.1018 42.075C83.2435 41.5083 83.3002 40.9983 83.3568 40.6017C83.0735 40.12 82.2802 38.9583 80.7502 38.2217C79.1068 37.4283 77.6335 37.5983 77.3502 37.655C75.1402 37.91 73.8368 39.4683 73.5252 39.8367Z" fill="white"/>
<path d="M73.4116 40.0066C73.1 42.8116 74.29 46.3533 77.5766 46.6366C80.665 46.8916 83.215 44.625 83.2433 41.5933C83.2433 41.4516 83.045 41.4516 83.0166 41.5933C82.9883 44.5683 80.2116 46.9766 77.18 46.3816C74.2616 45.815 73.3266 42.6133 73.61 40.035C73.6383 39.865 73.4116 39.865 73.4116 40.0066Z" fill="#3A6E79"/>
<path d="M75.9616 40.3184C75.4799 41.4517 75.0549 43.3784 76.3299 44.1717C76.4432 44.2567 76.5566 44.0584 76.4432 44.0017C75.2532 43.265 75.7349 41.4234 76.1599 40.375C76.2166 40.2617 76.0182 40.205 75.9616 40.3184Z" fill="#3A6E79"/>
<path d="M73.4966 39.8083C71.9666 38.9017 70.6632 36.975 71.2866 35.1617C72.1366 32.64 74.9132 33.8583 76.6699 34.5383C79.6166 35.6717 83.6682 36.55 83.2716 40.6017C83.2716 40.7433 83.4699 40.7433 83.4982 40.6017C83.6682 38.8167 82.9032 37.0883 81.3166 36.1817C80.2966 35.5867 79.1066 35.2467 78.0016 34.8217C76.6982 34.3117 75.2816 33.575 73.8649 33.3767C72.3066 33.1783 71.0599 34.255 70.9182 35.8133C70.7766 37.5133 72.0232 39.1567 73.4116 39.9783C73.5249 40.0633 73.6382 39.865 73.4966 39.8083Z" fill="#3A6E79"/>
<path d="M73.6098 39.8933C75.9614 36.3517 81.2031 37.4 83.2431 40.6583C83.3281 40.7717 83.4981 40.6583 83.4131 40.545C81.2881 37.145 75.8764 36.125 73.4114 39.78C73.3548 39.8933 73.5531 40.0067 73.6098 39.8933Z" fill="#3A6E79"/>
<path d="M77.9733 41.3383C78.1612 41.3383 78.3133 41.0593 78.3133 40.715C78.3133 40.3708 78.1612 40.0917 77.9733 40.0917C77.7855 40.0917 77.6333 40.3708 77.6333 40.715C77.6333 41.0593 77.7855 41.3383 77.9733 41.3383Z" fill="#3A6E79"/>
<path d="M68.3686 39.4684C68.4819 39.5534 68.5952 39.6667 68.7086 39.78C69.3886 40.46 69.7569 41.225 69.9836 41.8484C69.8136 42.1317 69.5586 42.6134 69.2469 43.1517C68.8502 43.7751 67.4336 46.07 64.5152 49.0734C63.6936 49.9234 64.0902 49.4417 61.3986 51.9917C58.9902 54.2867 56.0436 57.1484 53.6919 57.6017C53.0969 57.715 52.4736 57.715 52.4736 57.715C52.0202 57.715 51.0002 57.6867 49.8102 57.2334C48.9319 56.8934 48.1669 56.5817 47.5719 55.8167C46.7219 54.7117 46.7786 53.3801 46.8069 53.0117C46.8352 52.7284 46.9202 51.765 48.1669 50.0084C49.1019 48.705 50.1786 47.6 51.4536 46.6084C53.0686 45.3334 54.4569 44.6534 55.9302 43.9167C56.4686 43.6334 58.1119 42.8684 61.8802 41.5367C63.5519 40.9701 65.7336 40.2334 68.3686 39.4684Z" fill="#86D0DA"/>
<path d="M68.3682 39.4683C68.5948 39.4116 68.9632 39.2983 69.4165 39.185C70.9182 38.7883 71.2015 38.845 72.1082 38.5616C73.0715 38.25 72.9865 38.1083 73.8648 37.8816C74.4598 37.7116 75.0548 37.57 75.7915 37.6833C76.8398 37.825 77.9448 38.505 77.8882 38.9866C77.8598 39.185 77.6615 39.2983 77.5198 39.3833C76.9532 39.7233 76.4148 39.4683 75.7915 39.4683C75.3382 39.4683 74.7148 39.8083 73.4115 40.5166C72.1365 41.1966 71.8532 41.48 71.1448 41.5366C70.6065 41.5933 70.1248 41.48 69.8415 41.3666C69.6998 41.0833 69.5015 40.7433 69.2182 40.375C68.9065 39.9783 68.6232 39.695 68.3682 39.4683Z" fill="white"/>
<path d="M68.3116 39.5816C69.0766 40.1766 69.6149 40.9699 69.8983 41.9049C69.9266 42.0466 70.1533 41.9899 70.0966 41.8483C69.8133 40.8566 69.2466 40.0066 68.4249 39.3833C68.3116 39.2983 68.1983 39.4966 68.3116 39.5816Z" fill="#3A6E79"/>
<path d="M70.1817 41.48C71.23 41.7917 72.1084 41.4517 73.015 40.8567C73.695 40.4034 74.3467 39.865 75.14 39.6384C75.9334 39.44 76.84 39.4967 77.6334 39.44C77.775 39.44 77.775 39.2134 77.6334 39.2134C76.6417 39.27 75.565 39.185 74.63 39.5534C73.1284 40.1767 72.08 41.7917 70.21 41.225C70.0967 41.225 70.04 41.4234 70.1817 41.48Z" fill="#3A6E79"/>
<path d="M68.8785 39.4117C71.6268 38.845 74.9985 37.57 77.6618 38.93C77.7751 38.9867 77.8885 38.8167 77.7751 38.76C75.0268 37.3717 71.6268 38.6467 68.8218 39.2417C68.6801 39.2133 68.7368 39.44 68.8785 39.4117Z" fill="#3A6E79"/>
<path d="M72.1083 38.6466C72.7883 38.5333 73.3266 38.08 74.0066 37.91C74.9133 37.655 75.8199 37.6833 76.7266 37.9383C76.8683 37.9666 76.9249 37.7683 76.7833 37.74C76.0466 37.5416 75.3099 37.4566 74.5733 37.5983C73.6666 37.74 72.9583 38.3066 72.0799 38.4766C71.9099 38.4766 71.9666 38.675 72.1083 38.6466Z" fill="#3A6E79"/>
</svg>
