<svg width="148" height="151" viewBox="0 0 148 151" fill="none" xmlns="http://www.w3.org/2000/svg">
<g clip-path="url(#clip0_481_11416)">
<mask id="mask0_481_11416" style="mask-type:luminance" maskUnits="userSpaceOnUse" x="0" y="0" width="148" height="151">
<path d="M147.965 0.000488281H0.00683594V150.109H147.965V0.000488281Z" fill="white"/>
</mask>
<g mask="url(#mask0_481_11416)">
<path d="M3.37402 128.406H136.194" stroke="#202124" stroke-width="0.282957" stroke-miterlimit="10"/>
<path d="M29.8869 125.605H7.70312V128.378H29.8869V125.605Z" fill="white" stroke="#202124" stroke-width="0.212218" stroke-miterlimit="10"/>
<path d="M27.1988 123.879H5.43945V125.605H27.1988V123.879Z" fill="white" stroke="#202124" stroke-width="0.212218" stroke-miterlimit="10"/>
<path d="M28.6136 122.068H6.59961V123.822H28.6136V122.068Z" fill="#FFE299"/>
<path d="M29.8869 121.304H6.59961V122.068H29.8869V121.304Z" fill="white" stroke="#202124" stroke-width="0.212218" stroke-miterlimit="10"/>
<path d="M99.042 124.615C99.2401 124.36 104.248 121.87 104.248 121.87L110.219 124.36L106.569 127.388L99.042 124.615Z" fill="white" stroke="#202124" stroke-width="0.212218" stroke-miterlimit="10"/>
<path d="M107.446 125.237H103.06L101.56 116.522H108.804L107.446 125.237Z" fill="#202124"/>
<path d="M105.182 117.824C107.182 117.824 108.804 117.254 108.804 116.55C108.804 115.847 107.182 115.277 105.182 115.277C103.182 115.277 101.56 115.847 101.56 116.55C101.56 117.254 103.182 117.824 105.182 117.824Z" fill="white" stroke="#202124" stroke-width="0.212218" stroke-miterlimit="10"/>
<path d="M108.125 115.956C107.757 116.239 106.851 116.833 105.522 116.918C103.796 117.031 102.579 116.183 102.239 115.956C102.239 115.56 102.268 115.136 102.268 114.739C103.032 114.57 104.022 114.428 105.182 114.457C106.314 114.485 107.304 114.655 108.04 114.824C108.068 115.22 108.096 115.588 108.125 115.956Z" fill="white" stroke="#202124" stroke-width="0.212218" stroke-miterlimit="10"/>
<path d="M105.182 116.296C106.807 116.296 108.125 115.688 108.125 114.938C108.125 114.187 106.807 113.579 105.182 113.579C103.557 113.579 102.239 114.187 102.239 114.938C102.239 115.688 103.557 116.296 105.182 116.296Z" fill="white" stroke="#202124" stroke-width="0.212218" stroke-miterlimit="10"/>
<path d="M104.022 0.11377H0.120117V94.3949H104.022V0.11377Z" fill="white" stroke="#202124" stroke-width="0.212218" stroke-miterlimit="10"/>
<path d="M147.852 62.1096H87.7803V98.7242H147.852V62.1096Z" fill="white" stroke="#202124" stroke-width="0.212218" stroke-miterlimit="10"/>
<path d="M147.965 62.0247H87.667V68.0799H147.965V62.0247Z" fill="#A4E2DD"/>
<path d="M90.8359 84.0952C92.9015 80.0773 94.9388 76.0876 97.0044 72.0696C99.4944 79.002 101.984 85.9062 104.474 92.8386C106.823 89.2168 109.172 85.5949 111.52 81.9731C113.642 83.8406 115.764 85.6798 117.915 87.5473C119.075 85.3402 120.207 83.1332 121.367 80.9544C122.923 81.1525 124.508 81.3506 126.064 81.5486C127.875 83.3879 129.686 85.2271 131.497 87.038C135.543 82.256 139.561 77.5023 143.607 72.7204" stroke="#202124" stroke-width="0.282957" stroke-miterlimit="10"/>
<path d="M140.354 74.0221L143.579 72.7205" stroke="#202124" stroke-width="0.282957" stroke-miterlimit="10"/>
<path d="M143.579 76.5121V72.7205" stroke="#202124" stroke-width="0.282957" stroke-miterlimit="10"/>
<path d="M43.8652 11.8847L47.6569 23.8255C47.6286 23.8255 47.6003 23.8255 47.572 23.8538C44.8556 24.7309 43.3559 27.6171 44.2048 30.3618C45.0819 33.0782 47.9681 34.5778 50.7128 33.729C50.7411 33.729 50.7694 33.7007 50.7977 33.7007L54.5893 45.6414L67.1809 41.6235C68.1146 44.255 70.9442 45.6697 73.6323 44.8209C76.2921 43.972 77.7917 41.1707 77.0278 38.4826L88.3177 34.8891L77.5937 1.16064L43.8652 11.8847Z" fill="#FFE299"/>
<path d="M36.8194 29.7109C36.8194 26.8531 39.1396 24.5328 41.9975 24.5328V12.0261H6.59961V47.424H19.4175C19.4175 47.3957 19.4175 47.3674 19.4175 47.3108C19.4175 44.453 21.7378 42.1327 24.5957 42.1327C27.4535 42.1327 29.7738 44.453 29.7738 47.3108C29.7738 47.3391 29.7738 47.3674 29.7738 47.424H41.9975V34.889C39.1396 34.889 36.8194 32.5688 36.8194 29.7109Z" fill="white" stroke="#202124" stroke-width="0.282957" stroke-miterlimit="10"/>
<path d="M36.8194 66.8914C36.8194 64.0336 39.1396 61.7133 41.9975 61.7133V47.3391H29.7738C29.7738 47.3108 29.7738 47.2543 29.7738 47.226C29.7738 44.3681 27.4535 42.0479 24.5957 42.0479C21.7378 42.0479 19.4175 44.3681 19.4175 47.226C19.4175 47.2543 19.4175 47.3108 19.4175 47.3391H6.59961V82.737H41.9975V72.0696C39.1396 72.0696 36.8194 69.7493 36.8194 66.8914Z" fill="white" stroke="#202124" stroke-width="0.282957" stroke-miterlimit="10"/>
<path d="M65.6248 47.3958C65.5399 50.197 63.2763 52.4324 60.4467 52.4324C57.6171 52.4324 55.3535 50.197 55.2686 47.3958H42.0545V61.7417C42.0262 61.7417 41.9979 61.7417 41.9696 61.7417C39.1117 61.7417 36.7915 64.0619 36.7915 66.9198C36.7915 69.7776 39.1117 72.0979 41.9696 72.0979C41.9979 72.0979 42.0262 72.0979 42.0545 72.0979V82.8219H77.4524V47.3958H65.6248Z" fill="white" stroke="#202124" stroke-width="0.282957" stroke-miterlimit="10"/>
<path d="M84.1299 114.626C83.9319 114.343 83.9319 113.834 83.9602 112.844C83.9602 112.391 83.9885 111.797 84.1017 110.948C84.1299 110.608 84.2714 109.561 84.6393 108.43C84.7524 108.118 84.8939 107.75 85.2618 107.496C85.5164 107.326 85.7711 107.298 85.9409 107.298C85.8843 108.345 85.9692 108.599 86.0541 108.628C86.2804 108.684 86.818 107.185 86.9312 106.845C87.3274 105.685 87.4971 104.751 87.7235 104.779C87.7801 104.779 87.7801 104.808 88.0347 105.176C88.3177 105.543 88.3177 105.543 88.3743 105.628C88.4592 105.798 88.6007 106.081 88.5441 106.59C88.629 106.76 88.7704 107.043 88.8553 107.383C88.9119 107.552 89.0817 108.175 88.9402 109.278C88.8553 110.014 88.7138 110.552 88.4875 111.316C88.3177 111.825 88.1479 112.419 87.8084 113.127C87.2708 114.287 87.0161 114.853 86.4785 115.136C85.7428 115.419 84.611 115.249 84.1299 114.626Z" fill="white"/>
<path d="M75.3299 103.931C75.5563 104.185 75.8676 104.553 76.2071 105.006C77.2823 106.449 77.9614 107.807 78.6688 109.562C79.3196 111.174 80.1685 113.381 80.9325 116.183C81.1871 115.787 81.4135 115.447 81.5833 115.192C82.1492 114.428 82.5736 113.834 83.3093 113.325C83.6772 113.07 83.9884 112.9 84.2148 112.816C84.4977 112.787 84.8939 112.816 85.3183 112.929C86.2521 113.212 86.7897 113.862 86.9878 114.117C86.9595 114.853 86.9312 115.9 86.7897 117.116C86.4218 120.257 85.7144 122.634 85.1202 124.502C84.4977 126.454 84.6109 125.662 83.5923 128.689C83.1395 130.048 82.6302 131.547 81.4418 132.877C80.9325 133.443 80.4232 133.839 79.7724 133.811C79.3479 133.783 79.0084 133.585 78.8103 133.415C78.3859 133.075 77.7634 132.566 77.0843 131.858C76.7447 131.491 75.6695 130.331 74.2264 127.614C73.6039 126.426 72.6701 124.558 71.7647 121.983C71.1139 120.144 70.6612 118.361 70.4914 117.541C69.501 112.165 73.8303 105.94 75.3299 103.931Z" fill="white"/>
<path d="M75.2449 104.015C77.3671 106.449 78.6121 109.42 79.6025 112.476C80.6211 115.532 81.5266 118.644 82.4603 121.728C82.4886 121.87 82.715 121.813 82.6584 121.672C81.6397 118.276 80.6494 114.853 79.5176 111.514C78.5555 108.741 77.3388 106.081 75.3864 103.874C75.3015 103.761 75.16 103.902 75.2449 104.015Z" fill="#202124"/>
<path d="M70.6893 118.757C72.2172 124.02 74.396 130.189 78.9516 133.584C79.0648 133.669 79.178 133.471 79.0648 133.415C74.5941 130.047 72.4153 123.907 70.9156 118.701C70.859 118.588 70.661 118.644 70.6893 118.757Z" fill="#202124"/>
<path d="M81.0459 116.239C81.8382 114.938 82.8569 113.834 84.0453 112.9C84.1585 112.815 83.9887 112.674 83.9038 112.759C82.6871 113.693 81.6684 114.853 80.8762 116.154C80.7913 116.268 80.9611 116.352 81.0459 116.239Z" fill="#202124"/>
<path d="M84.2716 112.929C85.3468 112.872 86.3371 113.325 86.9596 114.174C87.0445 114.287 87.2143 114.174 87.1294 114.06C86.4503 113.155 85.4034 112.646 84.2433 112.702C84.1301 112.731 84.1301 112.929 84.2716 112.929Z" fill="#202124"/>
<path d="M79.2064 133.839C80.508 134.037 81.3852 133.301 82.036 132.254C83.0547 130.585 83.7903 128.661 84.4694 126.85C85.9408 122.86 86.8463 118.729 87.2424 114.485C87.2424 114.343 87.0444 114.343 87.0161 114.485C86.7048 117.852 86.0823 121.163 85.0637 124.388C84.5543 126.001 83.9884 127.557 83.3093 129.114C82.6019 130.755 81.555 134.009 79.2347 133.641C79.1499 133.613 79.0933 133.839 79.2064 133.839Z" fill="#202124"/>
<path d="M83.9886 112.646C84.1301 111.599 84.1301 107.637 85.658 107.468C85.7995 107.439 85.7995 107.241 85.658 107.241C83.8754 107.439 83.932 111.372 83.7905 112.646C83.7622 112.787 83.9886 112.759 83.9886 112.646Z" fill="#202124"/>
<path d="M85.9692 107.92C85.9692 108.147 85.9692 108.373 85.9692 108.599C85.9692 108.741 86.1956 108.741 86.1956 108.599C86.1956 108.373 86.1956 108.147 86.1956 107.92C86.1673 107.779 85.9692 107.779 85.9692 107.92Z" fill="#202124"/>
<path d="M86.2521 108.628C86.9878 107.468 87.3557 106.024 87.8367 104.751C87.8933 104.61 87.6669 104.581 87.6386 104.695C87.1576 105.94 86.7898 107.383 86.0824 108.515C85.9975 108.628 86.1955 108.741 86.2521 108.628Z" fill="#202124"/>
<path d="M87.8648 104.751C88.1478 105.911 88.0629 107.043 87.6668 108.147C87.6102 108.288 87.8365 108.345 87.8648 108.203C88.261 107.071 88.3459 105.883 88.0629 104.694C88.0346 104.553 87.8365 104.61 87.8648 104.751Z" fill="#202124"/>
<path d="M88.2043 105.374C88.5722 106.534 88.5439 107.722 88.1477 108.882C88.0911 109.024 88.3175 109.08 88.3458 108.939C88.7702 107.75 88.7702 106.534 88.4024 105.317C88.3741 105.176 88.176 105.232 88.2043 105.374Z" fill="#202124"/>
<path d="M88.7139 106.817C88.8837 107.835 88.7988 108.826 88.4592 109.788C88.4026 109.929 88.629 109.986 88.6573 109.844C89.0251 108.826 89.11 107.807 88.912 106.76C88.8837 106.619 88.6856 106.675 88.7139 106.817Z" fill="#202124"/>
<path d="M88.8552 108.316C89.025 110.438 87.8365 112.532 87.0726 114.428C87.016 114.541 87.214 114.598 87.2706 114.485C88.0346 112.561 89.223 110.438 89.0815 108.316C89.0533 108.175 88.8552 108.175 88.8552 108.316Z" fill="#202124"/>
<path d="M43.2995 102.006C42.9882 102.657 42.5638 103.619 42.3091 104.836C42.0261 106.223 42.0261 107.298 42.0544 107.949C42.1676 112.051 42.2242 114.089 42.5638 116.154C42.7052 117.116 43.2995 120.766 45.0538 125.973C46.1856 129.312 47.9682 133.839 50.8261 138.904C52.6653 139.753 56.0891 141.026 60.4749 140.913C66.5302 140.772 70.8311 138.14 72.5572 136.98C72.7552 136.273 73.0099 135.31 73.2929 134.179C73.8871 131.717 74.5379 128.661 75.1604 124.02C76.0658 117.343 76.5186 114.032 76.2073 109.844C76.0092 107.326 75.6414 105.26 75.3302 103.902C75.0189 103.733 74.5379 103.478 73.972 103.195C69.7276 101.016 66.1341 100.167 65.3701 99.9975C63.5309 99.573 59.9939 98.8939 55.4949 99.1486C50.6563 99.4033 47.0062 100.592 45.4499 101.158C44.5445 101.469 43.8088 101.78 43.2995 102.006Z" fill="white"/>
<path d="M43.3275 102.091C53.4291 97.7055 65.285 98.3846 74.8489 103.817C74.9621 103.874 75.0753 103.704 74.9621 103.648C65.3416 98.1582 53.4008 97.5074 43.2144 101.922C43.1012 101.978 43.2144 102.148 43.3275 102.091Z" fill="#202124"/>
<path d="M42.1674 104.864C40.9224 115.56 44.233 126.03 48.8735 135.537C48.9301 135.65 49.1281 135.565 49.0433 135.424C44.4311 125.945 41.1205 115.504 42.3655 104.864C42.3938 104.723 42.1957 104.723 42.1674 104.864Z" fill="#202124"/>
<path d="M75.5282 104.779C76.4053 109.986 76.2073 115.277 75.5565 120.512C74.9057 125.633 74.1134 130.896 72.7552 135.848C72.7269 135.99 72.925 136.046 72.9533 135.905C74.3398 130.925 75.1037 125.633 75.7828 120.512C76.4619 115.277 76.66 109.958 75.7545 104.723C75.7262 104.581 75.4999 104.638 75.5282 104.779Z" fill="#202124"/>
<path d="M63.9836 97.564C66.9216 97.564 69.3032 95.1823 69.3032 92.2444C69.3032 89.3064 66.9216 86.9248 63.9836 86.9248C61.0457 86.9248 58.6641 89.3064 58.6641 92.2444C58.6641 95.1823 61.0457 97.564 63.9836 97.564Z" fill="#202124"/>
<path d="M63.5591 87.9153C63.9269 88.0285 64.5777 88.3114 65.1153 88.9056C66.1623 90.0375 66.1057 91.4522 66.0774 91.905C66.0208 93.0934 65.5398 93.9423 65.2568 94.3667C64.7192 92.2162 64.125 90.0658 63.5591 87.9153Z" fill="#202124"/>
<path d="M63.9836 88.0568C63.3611 87.2362 62.0878 85.6517 60.4467 85.7083C58.5509 85.7649 56.8531 87.9719 56.4287 89.9809C56.1174 91.4523 56.7117 91.7635 56.3438 92.8105C55.5232 95.1024 52.3541 94.5082 50.713 96.687C48.9303 99.0355 50.2319 102.969 51.3638 104.978C51.7599 105.713 53.967 109.618 57.5605 109.646C60.7862 109.675 62.9367 106.619 63.927 105.204C67.6055 99.9693 67.3508 92.386 63.9836 88.0568Z" fill="#202124"/>
<path d="M74.9338 150.109H42.6767C40.8092 150.109 39.2812 148.581 39.2812 146.714V106.279C39.2812 104.412 40.8092 102.884 42.6767 102.884H74.9338C76.8013 102.884 78.3293 104.412 78.3293 106.279V146.714C78.3293 148.581 76.8013 150.109 74.9338 150.109Z" fill="#FFE299"/>
</g>
</g>
<defs>
<clipPath id="clip0_481_11416">
<rect width="147.986" height="150.25" fill="white" transform="translate(0.00683594 0.000488281)"/>
</clipPath>
</defs>
</svg>
