<svg width="39" height="15" viewBox="0 0 39 15" fill="none" xmlns="http://www.w3.org/2000/svg">
<g clip-path="url(#clip0_481_11216)">
<path d="M1.78748 6.19932C1.29836 6.19932 0.901855 6.59583 0.901855 7.08494C0.901855 7.57405 1.29836 7.97057 1.78748 7.97057V6.19932ZM37.8388 7.71117C38.1845 7.36531 38.1845 6.80457 37.8388 6.45872L32.2027 0.822626C31.8568 0.476768 31.296 0.476768 30.9502 0.822626C30.6043 1.16848 30.6043 1.72923 30.9502 2.07508L35.96 7.08494L30.9502 12.0948C30.6043 12.4407 30.6043 13.0014 30.9502 13.3472C31.296 13.6931 31.8568 13.6931 32.2027 13.3472L37.8388 7.71117ZM1.78748 7.97057H37.2125V6.19932H1.78748V7.97057Z" fill="#282828"/>
</g>
<defs>
<clipPath id="clip0_481_11216">
<rect width="38.9675" height="14.17" fill="white" transform="translate(0.0161133)"/>
</clipPath>
</defs>
</svg>
