<svg width="165" height="138" viewBox="0 0 165 138" fill="none" xmlns="http://www.w3.org/2000/svg">
<g clip-path="url(#clip0_481_11667)">
<mask id="mask0_481_11667" style="mask-type:luminance" maskUnits="userSpaceOnUse" x="0" y="0" width="165" height="138">
<path d="M164.766 0.000488281H0.00830078V137.664H164.766V0.000488281Z" fill="white"/>
</mask>
<g mask="url(#mask0_481_11667)">
<path d="M31.4873 97.5288C31.8527 96.5731 55.8834 71.9241 55.8834 71.9241L164.654 76.2805L163.305 103.909" fill="white"/>
<path d="M31.4873 97.5288C31.8527 96.5731 55.8834 71.9241 55.8834 71.9241L164.654 76.2805L163.305 103.909" stroke="#202124" stroke-width="0.210796" stroke-miterlimit="10"/>
<path d="M163.305 106.185L31.4873 100.536V97.5288L163.305 103.178V106.185Z" fill="#202124"/>
<path d="M110.044 88.4506L66.3105 85.6681L75.0234 77.7422L114.035 79.1756L110.044 88.4506Z" fill="white" stroke="#202124" stroke-width="0.210796" stroke-miterlimit="10"/>
<path d="M109.313 87.0733L69.1772 84.6562L75.7541 78.782L112.095 79.9906L109.313 87.0733Z" fill="white" stroke="#202124" stroke-width="0.210796" stroke-miterlimit="10"/>
<path d="M70.5264 83.4758L109.987 85.3308" stroke="#202124" stroke-width="0.210796" stroke-miterlimit="10"/>
<path d="M72.1284 82.0422L110.549 83.9254" stroke="#202124" stroke-width="0.210796" stroke-miterlimit="10"/>
<path d="M73.8433 80.4966L111.309 82.0424" stroke="#202124" stroke-width="0.210796" stroke-miterlimit="10"/>
<path d="M72.1567 84.853L78.4525 78.8945" stroke="#202124" stroke-width="0.210796" stroke-miterlimit="10"/>
<path d="M75.7544 84.9935L81.2913 78.9788" stroke="#202124" stroke-width="0.210796" stroke-miterlimit="10"/>
<path d="M79.2959 85.2744L84.4674 79.0911" stroke="#202124" stroke-width="0.210796" stroke-miterlimit="10"/>
<path d="M83.7925 84.0941L87.5306 79.1755" stroke="#202124" stroke-width="0.210796" stroke-miterlimit="10"/>
<path d="M87.6714 84.2907L90.6506 79.2878" stroke="#202124" stroke-width="0.210796" stroke-miterlimit="10"/>
<path d="M91.9717 84.4033L94.2202 79.4004" stroke="#202124" stroke-width="0.210796" stroke-miterlimit="10"/>
<path d="M94.7539 86.2864L97.3959 79.5972" stroke="#202124" stroke-width="0.210796" stroke-miterlimit="10"/>
<path d="M98.4077 86.427L100.431 79.5972" stroke="#202124" stroke-width="0.210796" stroke-miterlimit="10"/>
<path d="M102.652 86.6798L104.226 79.7375" stroke="#202124" stroke-width="0.210796" stroke-miterlimit="10"/>
<path d="M107.205 79.822L106.193 86.9048" stroke="#202124" stroke-width="0.210796" stroke-miterlimit="10"/>
<path d="M111.674 97.3883L124.884 98.3439C127.469 94.8306 130.055 91.3454 132.669 87.8322C132.697 87.3263 132.697 86.8204 132.725 86.3145C125.811 89.4904 118.897 92.6664 111.983 95.8705L111.702 96.2921V97.3883H111.674Z" fill="white" stroke="#202124" stroke-width="0.210796" stroke-miterlimit="10"/>
<path d="M124.828 97.3038C120.415 97.0509 116.031 96.7979 111.618 96.5449C111.646 96.8541 111.674 97.1914 111.702 97.5006C111.534 97.0227 111.365 96.5449 111.196 96.0671C114.485 92.5539 117.773 89.0406 121.062 85.5273C125.081 85.7241 129.072 85.9208 133.091 86.1176L124.828 97.3038Z" fill="#B1CEFC"/>
<path d="M121.398 87.7478L122.776 86.3425L129.718 86.6236L128.537 88.1413L121.398 87.7478Z" fill="white" stroke="#202124" stroke-width="0.210796" stroke-miterlimit="10"/>
<path d="M145.457 91.2331H137.897L136.014 77.5735H147.678L145.457 91.2331Z" fill="#202124"/>
<path d="M141.86 79.8219C145.011 79.8219 147.565 78.8152 147.565 77.5734C147.565 76.3317 145.011 75.325 141.86 75.325C138.709 75.325 136.154 76.3317 136.154 77.5734C136.154 78.8152 138.709 79.8219 141.86 79.8219Z" fill="white" stroke="#202124" stroke-width="0.210796" stroke-miterlimit="10"/>
<path d="M137.279 65.6003C137.588 67.5958 138.431 69.3665 139.752 70.8842C140.511 71.7836 141.438 72.5706 141.944 73.6386C142.506 74.8191 142.534 76.0839 142.394 77.3486C142.338 77.8826 143.181 77.8826 143.237 77.3486C143.462 75.3812 143.097 73.5543 141.86 71.9804C141.101 71.0247 140.202 70.2659 139.527 69.2541C138.74 68.0736 138.29 66.7526 138.066 65.3754C138.009 64.8414 137.194 65.0662 137.279 65.6003Z" fill="#B1CEFC"/>
<path d="M143.434 64.2793C142.506 66.1343 143.237 68.2422 143.659 70.1253C144.277 72.936 144.867 75.8028 143.883 78.6134C143.715 79.1193 144.53 79.3442 144.699 78.8382C145.429 76.7584 145.345 74.6223 144.98 72.4582C144.783 71.2496 144.502 70.0691 144.249 68.8887C143.94 67.5115 143.49 66.0219 144.164 64.7009C144.389 64.2231 143.687 63.8015 143.434 64.2793Z" fill="#B1CEFC"/>
<path d="M147.903 67.624C147.65 69.9849 144.783 71.1091 144.277 73.4701C144.165 74.0041 144.98 74.2289 145.092 73.6949C145.598 71.2778 148.465 70.2097 148.746 67.624C148.802 67.0619 147.959 67.0619 147.903 67.624Z" fill="#B1CEFC"/>
<path d="M140.707 70.828C140.848 68.7481 142.562 67.2023 143.406 65.4035C144.108 63.8577 144.446 62.2275 144.502 60.5411C144.53 60.0071 143.687 60.0071 143.659 60.5411C143.602 62.7334 142.956 64.7571 141.775 66.6121C140.904 67.9612 140.005 69.1697 139.892 70.828C139.836 71.362 140.679 71.362 140.707 70.828Z" fill="#B1CEFC"/>
<path d="M139.752 70.2659C139.443 70.3502 137.588 70.7437 135.986 69.5914C134.468 68.5233 133.765 66.4997 134.271 64.5042C135.058 64.9538 135.957 65.6003 136.885 66.4716C138.318 67.8207 139.19 69.226 139.752 70.2659Z" fill="#B1CEFC"/>
<path d="M137.897 66.584C137.616 66.0781 136.941 64.7852 137.054 63.0145C137.166 61.019 138.178 59.6699 138.543 59.2483C138.768 59.8666 138.965 60.6817 139.049 61.6373C139.161 63.9139 138.375 65.7127 137.897 66.584Z" fill="#B1CEFC"/>
<path d="M146.272 70.9684C146.638 70.3501 147.312 68.9729 147.144 67.1179C146.975 65.572 146.301 64.3916 145.851 63.7451C145.57 64.4478 145.289 65.4315 145.261 66.64C145.204 68.5232 145.795 70.069 146.272 70.9684Z" fill="#B1CEFC"/>
<path d="M142.535 73.8353C142.254 73.9759 140.005 75.072 137.785 73.9478C136.632 73.3575 136.014 72.43 135.733 71.9803C136.351 71.8117 137.56 71.5868 139.021 71.896C140.904 72.2895 142.085 73.3575 142.535 73.8353Z" fill="#B1CEFC"/>
<path d="M140.398 69.9566C140.567 69.6194 141.185 68.3265 142.675 67.5957C144.193 66.865 145.598 67.1741 145.963 67.2584C145.767 67.7081 145.401 68.2984 144.811 68.8043C143.069 70.3782 140.792 70.041 140.398 69.9566Z" fill="#B1CEFC"/>
<path d="M142.647 65.9375C142.31 65.5159 141.972 64.9538 141.776 64.2792C140.989 61.6372 142.731 59.2482 143.012 58.8547C142.9 61.2157 142.759 63.5766 142.647 65.9375Z" fill="#B1CEFC"/>
<path d="M69.5146 10.8213V59.7822L134.131 60.5972L134.721 11.3553L69.5146 10.8213Z" fill="white" stroke="#202124" stroke-width="0.210796" stroke-miterlimit="10"/>
<path d="M78.0029 54.4141H121.062" stroke="#202124" stroke-width="0.210796" stroke-miterlimit="10"/>
<path d="M87.1934 52.6433H111.14" stroke="#202124" stroke-width="0.210796" stroke-miterlimit="10"/>
<path d="M79.0708 49.0457H106.924" stroke="#202124" stroke-width="0.210796" stroke-miterlimit="10"/>
<path d="M92.646 46.7971H123.563" stroke="#202124" stroke-width="0.210796" stroke-miterlimit="10"/>
<path d="M76.8784 50.1137C77.375 50.1137 77.7778 49.711 77.7778 49.2143C77.7778 48.7177 77.375 48.3149 76.8784 48.3149C76.3818 48.3149 75.979 48.7177 75.979 49.2143C75.979 49.711 76.3818 50.1137 76.8784 50.1137Z" fill="#B1CEFC"/>
<path d="M76.5695 55.1167C77.0197 55.1167 77.3845 54.7519 77.3845 54.3016C77.3845 53.8514 77.0197 53.4866 76.5695 53.4866C76.1192 53.4866 75.7544 53.8514 75.7544 54.3016C75.7544 54.7519 76.1192 55.1167 76.5695 55.1167Z" fill="#B1CEFC"/>
<path d="M93.4049 16.1897H74.9673V22.4293H93.4049V16.1897Z" stroke="#202124" stroke-width="0.210796" stroke-miterlimit="10"/>
<path d="M95.1478 30.4956H73.7871V32.0133H95.1478V30.4956Z" stroke="#202124" stroke-width="0.210796" stroke-miterlimit="10"/>
<path d="M123.591 15.0374H111.14V23.7503H123.591V15.0374Z" stroke="#202124" stroke-width="0.210796" stroke-miterlimit="10"/>
<path d="M148.802 -0.0556641H127.273V41.963H148.802V-0.0556641Z" fill="#86D0DA"/>
<path d="M132.051 25.0994C133.2 25.0994 134.131 23.9669 134.131 22.5698C134.131 21.1728 133.2 20.0403 132.051 20.0403C130.902 20.0403 129.971 21.1728 129.971 22.5698C129.971 23.9669 130.902 25.0994 132.051 25.0994Z" fill="white" stroke="#202124" stroke-width="0.210796" stroke-miterlimit="10"/>
<path d="M133.231 25.6332C134.706 25.6332 135.901 24.2113 135.901 22.4572C135.901 20.7032 134.706 19.2812 133.231 19.2812C131.756 19.2812 130.561 20.7032 130.561 22.4572C130.561 24.2113 131.756 25.6332 133.231 25.6332Z" fill="#202124"/>
<path d="M135.62 11.9456C135.339 11.9737 135.086 12.0299 134.805 12.058C134.271 12.5639 133.428 13.4914 132.866 14.8405C131.994 16.8922 132.219 18.7472 132.36 19.5342C132.95 19.5061 133.512 19.478 134.102 19.4218C134.074 18.7472 134.131 17.9322 134.355 17.0047C135.002 14.4189 136.66 12.8168 137.475 12.1423C136.829 12.1142 136.238 12.0299 135.62 11.9456Z" fill="#202124"/>
<path d="M135.367 11.9457C135.789 11.9457 137.981 12.03 139.724 14.8968C141.298 17.4826 141.466 20.5743 141.494 21.3612C141.972 20.7148 142.45 20.0684 142.956 19.3938C142.956 18.2977 142.815 16.3865 142.028 14.7001C140.679 11.8052 138.009 10.6809 135.367 11.9457Z" fill="white" stroke="#202124" stroke-width="0.210796" stroke-miterlimit="10"/>
<path d="M142.703 26.4204C144.286 26.4204 145.57 24.8852 145.57 22.9914C145.57 21.0977 144.286 19.5625 142.703 19.5625C141.12 19.5625 139.836 21.0977 139.836 22.9914C139.836 24.8852 141.12 26.4204 142.703 26.4204Z" fill="white" stroke="#202124" stroke-width="0.210796" stroke-miterlimit="10"/>
<path d="M143.827 25.6615C145.023 25.6615 145.991 24.466 145.991 22.9914C145.991 21.5167 145.023 20.3213 143.827 20.3213C142.632 20.3213 141.663 21.5167 141.663 22.9914C141.663 24.466 142.632 25.6615 143.827 25.6615Z" fill="white" stroke="#202124" stroke-width="0.210796" stroke-miterlimit="10"/>
<path d="M129.803 12.5359C130.28 12.4797 130.561 12.1705 130.758 11.7489C130.983 11.2992 131.067 10.7371 131.18 10.2312C131.236 9.92204 131.208 9.24749 131.348 8.99454C131.489 8.71348 131.236 8.76969 131.489 8.85401C131.573 8.88211 131.742 9.07886 131.826 9.13507C132.107 9.33181 132.388 9.47234 132.697 9.55666C133.4 9.78151 134.075 9.7534 134.777 9.52856C134.918 9.47234 134.862 9.2756 134.721 9.33181C133.484 9.7534 132.22 9.38802 131.348 8.40431C131.292 8.31999 131.18 8.40431 131.18 8.48863C131.124 9.41613 131.095 12.1705 129.774 12.3673C129.606 12.3392 129.662 12.5359 129.803 12.5359Z" fill="#202124"/>
<path d="M139.33 9.50046C139.808 9.86584 140.23 10.0626 140.82 10.1469C141.157 10.2031 142.563 9.86584 142.759 9.95016C143.097 10.1188 142.872 10.3155 142.956 10.7371C143.012 11.1025 143.209 11.496 143.462 11.7771C143.743 12.0862 144.136 12.3111 144.502 12.4516C144.783 12.564 145.064 12.5921 145.317 12.7046C145.991 12.9575 145.795 12.6765 145.767 13.2667C145.739 14.0818 145.626 14.6158 146.244 15.2903C146.329 15.4027 146.497 15.2341 146.385 15.1498C145.795 14.5034 145.767 13.4915 146.273 12.817C146.301 12.7608 146.273 12.6765 146.216 12.6483C144.895 12.4235 142.338 11.8333 143.293 9.78152C143.321 9.6972 143.265 9.61289 143.181 9.61289C141.86 9.92205 140.567 10.175 139.415 9.30372C139.33 9.24751 139.246 9.41614 139.33 9.50046Z" fill="#202124"/>
<path d="M128.875 26.7575C129.887 27.6288 130.393 28.7812 130.336 30.1022C130.336 30.1865 130.421 30.2146 130.505 30.1865C131.686 29.5681 133.063 29.7368 134.075 30.6643C134.187 30.7486 134.328 30.6081 134.215 30.5238C133.737 30.0741 133.203 29.793 132.557 29.6806C132.276 29.6244 131.967 29.6244 131.686 29.6525C131.461 29.6806 130.814 29.9616 130.702 29.9054C130.561 29.8492 130.421 28.5844 130.308 28.3596C130.055 27.685 129.606 27.1229 129.044 26.6451C128.931 26.5327 128.763 26.6732 128.875 26.7575Z" fill="#202124"/>
<path d="M139.696 31.5356C140.736 30.4395 141.972 31.0578 143.04 31.62C143.125 31.6481 143.181 31.62 143.209 31.5356C143.321 29.8493 144.923 29.3153 146.357 29.4277C146.441 29.4277 146.469 29.3434 146.469 29.2871C146.329 28.3034 146.722 27.4603 147.565 26.9263C147.678 26.8419 147.565 26.6733 147.453 26.7576C146.553 27.3478 146.582 27.8819 146.216 28.7812C145.963 29.4277 144.474 29.2871 143.827 29.8493C143.49 30.1303 143.377 30.4395 143.153 30.8049C142.815 31.3108 143.125 31.2827 142.309 31.0297C141.298 30.7206 140.398 30.58 139.611 31.4232C139.443 31.4794 139.583 31.62 139.696 31.5356Z" fill="#202124"/>
<path d="M114.007 0.000488281H92.4775V42.0191H114.007V0.000488281Z" fill="#86D0DA"/>
<path d="M96.8059 18.8878C94.2764 21.2206 93.7424 25.9986 94.7823 26.6732C95.9909 27.4882 99.729 22.654 100.488 21.6141C100.488 21.6703 100.516 22.0075 100.769 22.1762C101.05 22.3729 101.584 22.2886 101.893 21.867C102.483 21.9513 103.074 22.0356 103.664 22.12C103.664 22.1481 103.804 22.5697 104.226 22.6821C104.591 22.7664 105.013 22.5697 105.182 22.1481C103.72 26.9823 103.917 28.3876 104.451 28.753C105.884 29.7367 112.124 23.5253 111.028 20.2931C110.381 18.4381 107.514 18.1008 104.507 17.7354C101.331 17.3419 98.8015 17.0328 96.8059 18.8878Z" fill="white" stroke="#202124" stroke-width="0.210796" stroke-miterlimit="10"/>
<path d="M99.7568 18.3256C99.974 18.3256 100.15 18.2375 100.15 18.1289C100.15 18.0202 99.974 17.9321 99.7568 17.9321C99.5395 17.9321 99.3633 18.0202 99.3633 18.1289C99.3633 18.2375 99.5395 18.3256 99.7568 18.3256Z" fill="white" stroke="#202124" stroke-width="0.210796" stroke-miterlimit="10"/>
<path d="M98.745 19.0564C98.9623 19.0564 99.1385 18.9557 99.1385 18.8315C99.1385 18.7073 98.9623 18.6067 98.745 18.6067C98.5278 18.6067 98.3516 18.7073 98.3516 18.8315C98.3516 18.9557 98.5278 19.0564 98.745 19.0564Z" fill="white" stroke="#202124" stroke-width="0.210796" stroke-miterlimit="10"/>
<path d="M100.657 19.0564C100.92 19.0564 101.134 18.9557 101.134 18.8315C101.134 18.7073 100.92 18.6067 100.657 18.6067C100.393 18.6067 100.179 18.7073 100.179 18.8315C100.179 18.9557 100.393 19.0564 100.657 19.0564Z" fill="white" stroke="#202124" stroke-width="0.210796" stroke-miterlimit="10"/>
<path d="M99.701 19.9558C99.9649 19.9558 100.179 19.8551 100.179 19.731C100.179 19.6068 99.9649 19.5061 99.701 19.5061C99.437 19.5061 99.2231 19.6068 99.2231 19.731C99.2231 19.8551 99.437 19.9558 99.701 19.9558Z" fill="white" stroke="#202124" stroke-width="0.210796" stroke-miterlimit="10"/>
<path d="M100.769 21.9515C100.825 21.9796 100.938 22.0358 101.078 22.0358C101.303 22.0639 101.5 21.9515 101.556 21.8953C101.528 21.5018 101.528 21.1083 101.5 20.7148C102.146 20.5461 102.287 20.3775 102.287 20.2651C102.287 20.0122 101.612 19.6749 100.994 19.7311C100.488 19.7873 99.9539 20.0965 99.982 20.3494C99.982 20.4056 100.038 20.5742 100.657 20.7148C100.685 21.1364 100.741 21.5299 100.769 21.9515Z" fill="#202124"/>
<path d="M104.057 22.345C104.113 22.3731 104.226 22.4293 104.366 22.4293C104.591 22.4574 104.788 22.345 104.844 22.2888C104.816 21.8953 104.816 21.5018 104.788 21.1083C105.434 20.9397 105.575 20.7711 105.575 20.6586C105.575 20.4057 104.9 20.0684 104.282 20.1246C103.776 20.1808 103.242 20.49 103.27 20.743C103.27 20.7992 103.326 20.9678 103.945 21.1083C103.973 21.5299 104.029 21.9234 104.057 22.345Z" fill="#202124"/>
<path d="M108.614 19.1997C108.621 19.0913 108.451 18.9919 108.234 18.9775C108.017 18.9633 107.836 19.0396 107.829 19.148C107.822 19.2564 107.992 19.3559 108.209 19.3702C108.425 19.3845 108.607 19.3082 108.614 19.1997Z" fill="white" stroke="#202124" stroke-width="0.210796" stroke-miterlimit="10"/>
<path d="M107.541 19.8184C107.55 19.6945 107.38 19.5824 107.163 19.5682C106.947 19.5539 106.764 19.6427 106.756 19.7667C106.748 19.8906 106.917 20.0026 107.134 20.0169C107.351 20.0311 107.533 19.9423 107.541 19.8184Z" fill="white" stroke="#202124" stroke-width="0.210796" stroke-miterlimit="10"/>
<path d="M109.562 19.9642C109.57 19.8404 109.364 19.7259 109.1 19.7085C108.837 19.6912 108.617 19.7776 108.609 19.9015C108.6 20.0254 108.807 20.1399 109.071 20.1572C109.334 20.1745 109.554 20.0882 109.562 19.9642Z" fill="white" stroke="#202124" stroke-width="0.210796" stroke-miterlimit="10"/>
<path d="M108.551 20.7824C108.559 20.6584 108.352 20.544 108.089 20.5266C107.826 20.5093 107.606 20.5957 107.597 20.7196C107.589 20.8435 107.796 20.958 108.059 20.9753C108.323 20.9927 108.543 20.9063 108.551 20.7824Z" fill="white" stroke="#202124" stroke-width="0.210796" stroke-miterlimit="10"/>
<path d="M94.7261 17.2858C95.0353 17.0047 95.2601 16.7518 95.4288 16.3864C95.5131 16.1897 95.7098 14.8968 95.7941 14.8687C95.8503 14.8406 96.7778 15.3184 97.1713 15.2341C97.5367 15.1778 97.8178 15.0092 98.0988 14.7562C98.3237 14.5595 98.7453 13.7725 98.9139 13.7163C98.9982 13.6882 99.5322 14.1941 99.6447 14.2503C100.263 14.5595 100.966 14.5033 101.612 14.4752C101.753 14.4752 101.753 14.2503 101.612 14.2503C100.628 14.2784 99.5604 14.3066 98.9701 13.2385C98.942 13.1823 98.8296 13.1542 98.8015 13.2385C98.408 14.1379 96.9184 16.1897 95.7941 14.3909C95.7379 14.3066 95.5974 14.3347 95.5974 14.4471C95.485 15.4308 95.3444 16.4145 94.5575 17.0891C94.4731 17.2296 94.6137 17.3701 94.7261 17.2858Z" fill="#202124"/>
<path d="M106.868 15.8806C107.261 16.2179 107.655 16.3022 108.189 16.246C108.498 16.2179 108.835 16.1335 109.117 16.0211C109.201 15.993 110.044 15.5995 110.1 15.6557C110.156 15.6838 110.381 16.4146 110.522 16.5832C110.943 17.0892 111.449 17.3702 112.096 17.3983C112.236 17.3983 112.236 17.2016 112.096 17.1735C111.337 17.1454 110.185 16.4146 110.409 15.459C110.437 15.3747 110.325 15.2904 110.241 15.3466C109.426 15.7401 107.824 16.4989 106.98 15.7682C106.896 15.6557 106.756 15.7963 106.868 15.8806Z" fill="#202124"/>
<path d="M100.965 29.9335C101.893 30.3551 102.511 31.0578 102.849 32.0134C102.877 32.0977 102.989 32.0977 103.045 32.0415C103.72 31.1702 104.591 30.6643 105.687 30.5519C105.828 30.5237 105.828 30.327 105.687 30.327C105.209 30.3832 104.76 30.4956 104.338 30.6924C104.198 30.7486 103.045 31.7042 103.045 31.7042C102.849 31.648 102.568 30.9172 102.399 30.7205C102.033 30.2708 101.584 29.9616 101.078 29.7368C100.937 29.7087 100.825 29.8773 100.965 29.9335Z" fill="#202124"/>
<path d="M113.192 24.9869C112.32 25.3803 111.702 26.1954 111.59 27.1791C111.562 27.404 111.646 27.6007 111.477 27.7413C111.337 27.8537 110.943 27.8818 110.746 27.938C110.212 28.1628 109.763 28.5001 109.369 28.9217C109.285 29.0341 109.425 29.1747 109.51 29.0622C110.1 28.3877 110.831 28.0223 111.73 27.9099C111.786 27.9099 111.843 27.8537 111.843 27.7975C111.702 26.6732 112.264 25.6333 113.304 25.1555C113.417 25.1274 113.304 24.9306 113.192 24.9869Z" fill="#202124"/>
<path d="M93.0113 24.2843C93.461 25.5491 93.1519 26.7858 92.8146 28.0225C92.7865 28.1068 92.8708 28.163 92.9551 28.163C93.9951 28.0225 94.9225 28.5284 95.4004 29.4559C95.4566 29.5683 95.6533 29.484 95.569 29.3434C95.3441 28.8937 95.035 28.5284 94.6134 28.2473C94.3885 28.1068 94.1637 28.0225 93.9388 27.9662C93.7702 27.9381 93.2643 27.9662 93.2081 27.8819C92.9832 27.6571 93.3767 26.6171 93.4329 26.2799C93.5172 25.5491 93.461 24.9027 93.2362 24.2C93.1519 24.1157 92.9551 24.1719 93.0113 24.2843Z" fill="#202124"/>
<path d="M80.2515 0.000488281H58.7222V42.0191H80.2515V0.000488281Z" fill="#86D0DA"/>
<path d="M73.7868 12.7607H64.6523V30.8049H73.7868V12.7607Z" fill="white" stroke="#202124" stroke-width="0.210796" stroke-miterlimit="10"/>
<path d="M69.2339 20.4337C70.755 20.4337 71.9883 19.2257 71.9883 17.7355C71.9883 16.2454 70.755 15.0374 69.2339 15.0374C67.7128 15.0374 66.4795 16.2454 66.4795 17.7355C66.4795 19.2257 67.7128 20.4337 69.2339 20.4337Z" fill="#202124" stroke="#202124" stroke-width="0.210796" stroke-miterlimit="10"/>
<path d="M69.2339 28.6127C70.755 28.6127 71.9883 27.4047 71.9883 25.9145C71.9883 24.4243 70.755 23.2163 69.2339 23.2163C67.7128 23.2163 66.4795 24.4243 66.4795 25.9145C66.4795 27.4047 67.7128 28.6127 69.2339 28.6127Z" fill="#202124" stroke="#202124" stroke-width="0.210796" stroke-miterlimit="10"/>
<path d="M61.5608 12.9012C62.4602 11.6926 62.3196 10.203 62.0386 8.79772C61.9824 8.82582 61.9262 8.85393 61.8699 8.91014C62.8537 9.69711 64.1184 9.89386 65.2989 9.41605C65.4113 9.35984 65.3551 9.1631 65.2427 9.21931C64.1465 9.66901 62.9661 9.50037 62.0386 8.76961C61.9543 8.7134 61.8418 8.76961 61.8699 8.88204C62.151 10.2311 62.2915 11.6364 61.4202 12.8169C61.3078 12.9012 61.4765 12.9855 61.5608 12.9012Z" fill="#202124"/>
<path d="M60.8578 17.7635C61.2513 19.0283 60.8578 20.2087 59.8741 21.0519C59.846 21.08 59.846 21.1644 59.8741 21.1925C60.5768 21.7827 60.7173 22.5697 60.8297 23.4128C60.8578 23.5534 61.0546 23.5534 61.0546 23.4128C60.9702 22.8507 60.914 22.2886 60.6611 21.7827C60.38 21.2487 60.1552 21.2487 60.5205 20.7147C61.167 19.7309 61.4481 18.8315 61.0827 17.6792C61.0265 17.5668 60.8297 17.623 60.8578 17.7635Z" fill="#202124"/>
<path d="M60.2114 30.58C61.4762 31.3951 62.1226 32.8285 61.8416 34.2901C61.8416 34.3744 61.8978 34.4587 61.9821 34.4306C63.1063 34.0371 64.0057 34.7116 64.8489 35.3862C64.9613 35.4705 65.1019 35.33 64.9895 35.2457C64.4273 34.7679 63.809 34.2619 63.0501 34.1214C62.8253 34.0933 62.488 34.1776 62.3194 34.1214C61.9821 34.009 62.1507 34.0371 62.1507 33.5593C62.1226 32.2664 61.42 31.1141 60.3519 30.4114C60.2114 30.3271 60.099 30.4957 60.2114 30.58Z" fill="#202124"/>
<path d="M73.4215 9.10684C73.8712 9.64085 74.6582 9.24736 75.2203 9.16305C75.7824 9.07873 75.5576 9.24737 75.5857 9.69706C75.6138 10.0062 75.7262 10.2873 75.923 10.5121C76.1197 10.7089 76.3445 10.8494 76.5975 10.9337C76.8786 11.0462 77.6093 10.9899 77.7217 11.2148C77.7498 11.2429 77.4688 12.1142 77.4688 12.1985C77.4126 12.7606 77.525 13.2946 77.7498 13.8006C77.8061 13.913 78.0028 13.8849 77.9466 13.7443C77.5812 12.8168 77.6093 11.9174 78.059 11.0181C78.0871 10.9337 78.059 10.8494 77.9747 10.8494C77.6374 10.8494 77.1034 10.8775 76.8223 10.737C76.0073 10.3716 75.6981 9.69706 75.923 8.88199C75.9511 8.79767 75.8667 8.74146 75.7824 8.74146C75.2484 8.88199 73.9836 9.3879 73.562 8.88199C73.4777 8.85388 73.3372 8.99441 73.4215 9.10684Z" fill="#202124"/>
<path d="M79.0149 23.666C77.8344 24.481 77.2161 25.8301 77.6939 27.2355C77.6658 27.1792 78.1155 28.163 78.1155 28.0505C78.0874 28.5845 77.8063 28.5564 77.4971 28.978C77.0755 29.5402 76.9631 30.1866 77.0193 30.8611C77.0193 31.0017 77.2442 31.0017 77.2442 30.8611C77.1317 29.765 77.5814 28.9499 78.5371 28.4159C78.5933 28.3878 78.5933 28.3035 78.5652 28.2473C77.3566 26.8139 77.6095 24.9026 79.1273 23.8346C79.2116 23.7784 79.1273 23.5817 79.0149 23.666Z" fill="#202124"/>
<path d="M70.7798 35.2737C71.8478 34.4305 73.1969 34.4586 74.4898 34.7397C74.546 34.7397 74.6022 34.7116 74.6303 34.6554C74.7989 33.8965 75.2767 33.4187 76.0356 33.2219C76.1761 33.1938 76.1199 32.9971 75.9794 33.0252C75.5016 33.1657 75.08 33.3906 74.7708 33.8122C74.4336 34.2619 74.5741 34.4305 73.9276 34.4305C72.691 34.4586 71.7073 34.3462 70.6673 35.1613C70.5268 35.2175 70.6673 35.358 70.7798 35.2737Z" fill="#202124"/>
<path d="M68.6155 136.203H33.9045C32.0495 136.203 30.5317 134.685 30.5317 132.83V123.049C30.5317 121.194 32.0495 119.677 33.9045 119.677H68.6155C70.4705 119.677 71.9883 121.194 71.9883 123.049V132.83C71.9883 134.685 70.4705 136.203 68.6155 136.203Z" fill="#B1CEFC"/>
<path d="M24.0107 110.542C24.1232 111.273 24.2637 112.453 24.4604 113.943C25.0226 118.102 25.0507 118.608 25.3036 119.761C25.8657 122.403 26.1468 123.752 27.2148 125.157C27.6083 125.691 28.592 126.956 30.2784 127.687C31.4027 128.193 32.4426 128.277 33.8198 128.389C35.0002 128.502 35.9839 128.446 36.6585 128.417C37.586 128.951 38.9351 129.598 40.6215 130.132C41.2679 130.329 43.9099 131.088 47.6761 130.891C50.5148 130.75 52.679 130.16 53.9719 129.767C61.5324 127.518 71.1447 123.274 73.2527 122.346C72.9997 122.993 72.7187 123.892 72.4376 124.96C72.269 125.663 72.016 126.675 71.7912 128.333C71.5663 129.823 71.3415 131.874 71.2571 134.432C72.8311 135.022 75.1358 135.697 77.9745 135.894C81.0662 136.09 83.6238 135.641 85.3383 135.191C85.5632 133.448 85.8723 130.919 86.2658 127.855C86.6312 125.045 86.9404 122.234 87.2776 119.423C87.7835 115.292 87.9803 113.858 87.39 111.807C86.6312 109.165 85.2821 108.097 85.001 107.872C83.7363 106.916 82.3591 106.691 81.6283 106.635C79.1269 106.438 77.581 106.382 74.4893 106.579C70.3577 106.832 71.0604 106.579 67.8001 106.804C65.5516 106.972 63.7809 107.197 60.3801 107.647C57.4008 108.04 55.8269 108.293 54.4216 108.49C51.611 108.884 49.0533 109.137 42.364 109.586C37.6703 109.867 31.487 110.233 24.0107 110.542Z" fill="white"/>
<path d="M33.595 124.201C36.5743 130.947 44.7531 131.706 51.1332 130.497C56.108 129.57 60.8298 127.687 65.4674 125.747C70.1611 123.78 74.8267 121.784 79.5204 119.789C79.6328 119.733 79.5485 119.564 79.408 119.62C75.0515 121.475 70.6951 123.33 66.3386 125.157C62.0103 126.984 57.6538 128.783 53.1007 129.879C46.3552 131.509 37.0802 131.565 33.7636 124.117C33.7355 123.977 33.5388 124.089 33.595 124.201Z" fill="#202124"/>
<path d="M54.1405 108.659C63.2188 107.029 72.4095 106.354 81.6283 106.663C81.7689 106.663 81.7689 106.467 81.6283 106.438C72.3814 106.129 63.1626 106.804 54.0843 108.434C53.9438 108.49 54 108.687 54.1405 108.659Z" fill="#202124"/>
<path d="M24.292 111.722C24.292 114.196 24.5449 116.669 25.0509 119.114C25.4724 121.166 25.9784 123.386 27.1026 125.185C29.1544 128.474 33.1735 128.614 36.6587 128.53C36.7992 128.53 36.7992 128.305 36.6587 128.305C32.8925 128.389 28.7609 128.164 26.8778 124.314C25.0228 120.548 24.5168 115.854 24.5168 111.722C24.5168 111.582 24.292 111.582 24.292 111.722Z" fill="#202124"/>
<path d="M84.9448 107.928C87.0808 109.361 87.4743 111.863 87.4743 114.252C87.4743 116.585 87.2776 118.917 86.9403 121.25C86.9122 121.391 87.137 121.447 87.137 121.306C87.5305 118.524 87.8678 115.629 87.6148 112.818C87.4462 110.823 86.7436 108.94 85.0291 107.787C84.9448 107.675 84.8323 107.844 84.9448 107.928Z" fill="#202124"/>
<path d="M73.1684 122.29C71.7631 126.169 71.3977 130.272 71.1729 134.376C71.1729 134.516 71.3696 134.516 71.3977 134.376C71.6226 130.301 71.9879 126.197 73.3932 122.346C73.4213 122.234 73.1965 122.178 73.1684 122.29Z" fill="#202124"/>
<path d="M86.9689 121.138C86.4067 125.803 85.8165 130.469 85.2544 135.163C85.2263 135.303 85.4511 135.303 85.4792 135.163C86.0414 130.497 86.6316 125.832 87.1937 121.138C87.1937 120.997 86.9689 120.997 86.9689 121.138Z" fill="#202124"/>
<path d="M21.7904 53.2335C20.9191 54.3297 20.0759 55.4258 19.2046 56.522C18.6987 58.0116 18.1366 60.0071 17.6588 62.3961C17.2934 64.1949 16.7875 67.2304 16.6751 71.4744C16.4783 78.4447 17.4902 83.9535 18.5301 89.6591C19.5138 95.0836 20.6662 99.4962 21.5093 102.616C22.2963 105.567 22.999 108.012 23.5611 109.839C23.9546 110.261 24.3481 110.711 24.7134 111.132C25.4442 111.413 26.456 111.779 27.7208 112.116C29.351 112.537 31.0655 112.875 34.2696 113.1C36.6867 113.296 39.2724 113.493 42.8138 113.353C45.8212 113.24 49.6155 112.875 53.9438 111.919C54 110.992 54.0844 109.558 54.0844 107.816C54.0844 105.511 53.9719 104.19 53.8314 101.492C53.8314 101.492 53.719 98.8498 53.6628 95.6457C53.6066 91.9076 53.7752 89.8558 53.9438 86.1458C54.0844 82.6888 54.2811 77.7702 54.1406 71.8679C54 66.6964 53.6909 64.0544 52.7634 61.0752C52.1169 58.9672 51.33 57.2808 50.7397 56.1285C49.1658 55.5945 47.1422 54.948 44.7531 54.3859C41.9987 53.7395 38.2887 53.0368 33.8761 52.7838C29.2948 52.5028 25.2194 52.7557 21.7904 53.2335Z" fill="white"/>
<path d="M21.7905 53.3459C31.5152 52.0812 41.4085 53.0649 50.6836 56.269C50.8241 56.3252 50.8803 56.1003 50.7398 56.0722C41.4366 52.8681 31.5433 51.8844 21.7905 53.1492C21.6499 53.1492 21.6499 53.3459 21.7905 53.3459Z" fill="#202124"/>
<path d="M51.6111 57.4213C56.333 72.0927 52.7073 87.5792 53.8034 102.616C53.8034 102.756 54.0283 102.756 54.0283 102.616C52.9321 87.5511 56.5578 72.0646 51.836 57.3651C51.7798 57.2246 51.583 57.2808 51.6111 57.4213Z" fill="#202124"/>
<path d="M19.317 55.8192C14.6514 69.1415 16.5626 83.4194 20.104 96.7698C20.1321 96.9103 20.3288 96.8541 20.3007 96.7136C16.7593 83.4194 14.8481 69.1696 19.5137 55.8754C19.5699 55.7349 19.3732 55.6787 19.317 55.8192Z" fill="#202124"/>
<path d="M21.3973 102.644C21.7345 104.331 22.1561 105.989 22.6339 107.619C22.9712 108.771 23.2804 110.12 24.2641 110.936C25.2478 111.779 26.625 112.004 27.8336 112.256C29.4918 112.594 31.1501 112.875 32.8365 113.072C39.8911 113.943 47.0301 113.549 53.9723 112.06C54.0285 112.06 54.0566 112.004 54.0566 111.947C54.2814 109.727 54.2533 107.507 53.9723 105.286C53.9442 105.146 53.7474 105.146 53.7474 105.286C53.9723 106.973 54.0566 108.687 53.9723 110.401C53.9442 111.02 54.0285 111.554 53.4101 111.947C53.0729 112.144 52.4826 112.144 52.1173 112.2C51.246 112.369 50.3747 112.509 49.5034 112.65C45.7372 113.184 41.9428 113.409 38.1485 113.268C34.4666 113.128 30.7566 112.706 27.1309 111.891C26.3158 111.694 25.4446 111.498 24.7138 111.02C23.6177 110.289 23.2804 108.996 22.915 107.816C22.381 106.101 21.9594 104.359 21.594 102.588C21.5659 102.447 21.3692 102.504 21.3973 102.644Z" fill="#202124"/>
<path d="M85.3103 85.6399C85.4789 85.2183 85.5632 85.3307 86.2097 84.2065C86.6594 83.4195 86.8561 83.1103 87.2496 82.4639C87.5869 81.9018 87.7555 81.6769 88.0647 81.5926C88.4582 81.5083 88.8235 81.7331 88.9922 81.8737C89.1889 81.705 89.47 81.4521 89.8354 81.171C90.4256 80.7213 91.0439 80.2435 91.8871 79.9343C92.5054 79.7095 92.8708 79.569 93.3767 79.5971C94.3042 79.6814 95.035 80.2716 95.7939 80.8899C96.0468 81.0867 96.2436 81.2834 96.3841 81.424C96.1873 81.5364 95.9063 81.705 95.5409 81.9299C94.501 82.5763 93.967 82.9136 93.4892 83.3352C93.18 83.6162 93.18 83.7006 92.2244 85.134C91.2688 86.5674 90.791 87.2981 90.3413 87.7197C89.6105 88.3943 88.936 88.7597 88.2614 89.0969C87.2496 89.631 86.7437 89.8839 86.3502 89.7715C85.2541 89.4342 84.6638 87.1295 85.3103 85.6399Z" fill="white"/>
<path d="M50.712 56.1565C51.6676 57.4494 52.9605 59.2763 54.2534 61.6372C55.4619 63.8014 56.5581 66.2747 58.2725 71.1933C59.453 74.6222 60.8864 79.2316 62.1793 84.9091C65.2991 84.9934 68.3907 85.1058 71.5105 85.1901C76.0637 85.3306 80.645 85.4993 85.1982 85.6679C85.5636 85.8366 86.0414 86.1457 86.4068 86.6516C87.6153 88.2818 86.6316 90.4741 86.5754 90.5865C85.8727 90.8113 84.7766 91.1205 83.4837 91.514C77.0193 93.5095 76.5977 93.8187 73.4498 94.7462C69.5712 95.8985 65.8612 96.6574 58.4693 98.1751C57.598 98.3438 56.8953 98.4843 56.4175 98.5967C56.0522 98.0065 55.5181 97.1352 54.8717 96.0953C51.499 90.6708 51.0774 90.193 50.0655 88.4785C47.7608 84.5718 46.3836 81.2834 45.6248 79.4284C44.0227 75.4654 43.2077 73.498 42.9828 71.6149C42.1677 65.0099 47.5922 59.0514 50.712 56.1565Z" fill="white"/>
<path d="M50.9646 56.4656C56.8387 64.785 59.4526 74.7627 61.8978 84.5155C61.9259 84.6561 62.1227 84.5999 62.0946 84.4593C59.6212 74.6784 57.0355 64.7007 51.1332 56.3532C51.077 56.2408 50.8802 56.3532 50.9646 56.4656Z" fill="#202124"/>
<path d="M62.6288 85.1059C70.0489 85.2746 77.4689 85.4432 84.8889 85.6119C85.0294 85.6119 85.0294 85.4151 84.8889 85.387C77.4689 85.2184 70.0489 85.0497 62.6288 84.8811C62.4883 84.8811 62.4883 85.1059 62.6288 85.1059Z" fill="#202124"/>
<path d="M85.1698 85.7524C86.9124 86.3707 86.8562 88.3943 86.6313 89.884C86.6032 90.0245 86.828 90.0807 86.828 89.9402C87.0529 88.31 87.0529 86.2021 85.226 85.5556C85.0855 85.4994 85.0292 85.7243 85.1698 85.7524Z" fill="#202124"/>
<path d="M43.8259 75.1C46.7489 83.1103 50.7681 90.6708 55.7991 97.5849C55.8834 97.6973 56.0521 97.5849 55.9678 97.4725C50.9368 90.5865 46.9176 83.054 44.0227 75.0438C43.9664 74.9033 43.7697 74.9595 43.8259 75.1Z" fill="#202124"/>
<path d="M58.4691 98.2875C67.8284 96.6574 76.991 94.1278 85.8725 90.727C85.9849 90.6708 85.9568 90.474 85.8163 90.5303C76.9348 93.903 67.7722 96.4325 58.4128 98.0908C58.3004 98.0908 58.3566 98.2875 58.4691 98.2875Z" fill="#202124"/>
<path d="M85.5353 85.4712C85.9288 84.7967 86.3223 84.1502 86.7158 83.4757C87.025 82.9417 87.8682 80.9743 88.7957 81.7893C88.9081 81.8737 89.0486 81.7331 88.9362 81.6488C88.3741 81.171 87.7557 81.5083 87.3622 82.0142C86.5753 83.0541 85.985 84.2627 85.3386 85.3588C85.2824 85.4993 85.4791 85.5837 85.5353 85.4712Z" fill="#202124"/>
<path d="M87.2218 89.5465C88.9362 89.1249 90.3696 87.804 91.4377 86.4549C92.1403 85.5555 92.6181 84.4312 93.377 83.588C94.2764 82.6043 95.6536 81.986 96.8059 81.2833C96.9184 81.2271 96.806 81.0304 96.6935 81.1147C95.0915 82.0703 93.5175 82.8573 92.4776 84.4874C91.2128 86.5111 89.6108 88.7596 87.1374 89.3498C87.025 89.3779 87.0812 89.6028 87.2218 89.5465Z" fill="#202124"/>
<path d="M90.2852 81.9862C91.4375 81.0587 92.7585 80.4966 94.1919 80.2998C94.3325 80.2717 94.2762 80.075 94.1357 80.1031C92.6461 80.2998 91.297 80.8901 90.1165 81.8457C90.0322 81.93 90.1728 82.0705 90.2852 81.9862Z" fill="#202124"/>
<path d="M91.7185 82.0142C92.7865 81.3397 93.9388 80.8619 95.1474 80.6089C95.2879 80.5808 95.2317 80.3841 95.0912 80.4122C93.8545 80.6932 92.6741 81.171 91.606 81.8456C91.5217 81.9018 91.606 82.0985 91.7185 82.0142Z" fill="#202124"/>
<path d="M92.674 82.492C93.6577 81.9018 94.6977 81.3959 95.7938 81.0024C95.9343 80.9462 95.8781 80.7494 95.7376 80.8056C94.6133 81.1991 93.5734 81.705 92.5616 82.2953C92.4773 82.3796 92.5616 82.5482 92.674 82.492Z" fill="#202124"/>
<path d="M37.8954 44.0427C38.2046 44.4081 38.6543 45.0264 38.9634 45.8134C39.1602 46.3193 39.7785 47.9214 39.2445 49.7764C39.104 50.2261 38.8791 50.9849 38.2046 51.6314C38.064 51.7719 37.6987 52.1092 36.7993 52.5027C35.5907 53.0367 34.4102 53.5145 33.5952 53.1491C32.2742 52.5308 32.0212 49.8045 32.7239 47.8933C33.9043 44.8578 37.53 44.0989 37.8954 44.0427Z" fill="white" stroke="#202124" stroke-width="0.210796" stroke-miterlimit="10"/>
<path d="M22.1278 38.7308C21.9873 38.9275 21.7343 39.3491 21.6781 39.9112C21.5938 40.642 21.9311 41.0074 22.1278 41.7943C22.3246 42.5813 22.2683 43.3964 22.1278 43.9023C21.7905 45.0265 20.8349 45.1952 19.2891 46.4318C18.6708 46.9096 17.153 48.1182 16.1412 50.0294C15.9164 50.4791 15.1575 51.9406 15.0451 54.0205C15.017 54.5826 14.9607 56.3814 15.8039 58.4613C16.1412 59.3326 17.3217 62.0588 20.329 63.689C22.3808 64.7851 24.3763 64.8695 25.5849 64.7851C28.7046 64.5603 30.7564 62.9301 31.5153 62.2837C33.2859 60.8222 34.101 59.2201 34.5507 58.3207C35.675 56.0722 35.8998 54.0767 35.9841 52.9525C36.209 50.4229 35.8436 48.2868 35.422 46.7972C35.5625 46.4881 35.8155 46.0384 36.2371 45.5324C37.0803 44.5487 37.6705 44.5487 38.4856 43.5369C38.8228 43.1153 39.2163 42.6375 39.3288 41.9068C39.3569 41.7381 39.5255 40.642 38.8791 39.8831C37.9797 38.8713 36.209 39.2648 35.5625 39.4334C34.354 39.7145 33.5108 40.3609 33.0892 40.7263C32.8643 40.1361 32.3584 38.9275 31.1499 37.9719C29.1824 36.398 26.8777 36.679 26.0627 36.7914C25.5568 36.8477 23.1396 37.1568 22.1278 38.7308Z" fill="#202124" stroke="#202124" stroke-width="0.210796" stroke-miterlimit="10"/>
<path d="M45.9337 137.608L7.84991 133.392C3.38104 132.914 0.00830078 129.12 0.00830078 124.623V65.01C0.00830078 59.7541 4.56149 55.6787 9.78923 56.2409L47.8449 60.4287C52.3138 60.9346 55.6865 64.7008 55.6865 69.1978V128.811C55.7146 134.095 51.1614 138.17 45.9337 137.608Z" fill="#B1CEFC"/>
</g>
</g>
<defs>
<clipPath id="clip0_481_11667">
<rect width="164.983" height="137.72" fill="white" transform="translate(0.00830078 0.000488281)"/>
</clipPath>
</defs>
</svg>
