<svg width="165" height="165" viewBox="0 0 165 165" fill="none" xmlns="http://www.w3.org/2000/svg">
<path d="M12.1552 18.893C11.8527 24.283 11.7977 30.1955 12.1552 36.5755C12.7877 47.7955 14.5477 57.6405 16.6102 65.8905C34.3477 60.473 52.0852 55.0555 69.8227 49.638C68.3377 42.543 67.1277 33.8805 67.1277 23.9805C67.1002 17.9855 67.5402 12.513 68.1452 7.64551C49.4727 11.3855 30.8002 15.1255 12.1552 18.893Z" fill="white" stroke="#202124" stroke-width="0.20625" stroke-miterlimit="10"/>
<path d="M14.3273 22.0831C14.2173 23.8981 14.1898 25.8781 14.2448 27.9956C14.3548 30.7456 14.6023 33.2481 14.9598 35.4756C18.8923 34.5406 22.7973 33.6056 26.7298 32.6706C26.2348 30.8281 25.7673 28.4081 25.7398 25.5481C25.7123 23.2656 25.9598 21.2581 26.2623 19.6631C22.3023 20.4606 18.3148 21.2581 14.3273 22.0831Z" fill="white" stroke="#202124" stroke-width="0.20625" stroke-miterlimit="10"/>
<path d="M16.3076 41.663C16.0326 43.368 15.8401 45.4305 15.8951 47.768C15.9776 50.6555 16.4451 53.1305 16.9401 55.028C20.8726 54.093 24.7776 53.158 28.7101 52.223C28.2427 50.3255 27.8301 47.9055 27.7751 45.073C27.7476 42.818 27.9676 40.838 28.2426 39.188C24.2826 40.0405 20.2951 40.838 16.3076 41.663Z" fill="white" stroke="#202124" stroke-width="0.20625" stroke-miterlimit="10"/>
<path d="M33.9901 21.2031C34.3091 21.2031 34.5676 20.9445 34.5676 20.6256C34.5676 20.3067 34.3091 20.0481 33.9901 20.0481C33.6711 20.0481 33.4126 20.3067 33.4126 20.6256C33.4126 20.9445 33.6711 21.2031 33.9901 21.2031Z" fill="#FFCA9D"/>
<path d="M34.5952 29.4805C34.9294 29.4805 35.2002 29.2096 35.2002 28.8755C35.2002 28.5414 34.9294 28.2705 34.5952 28.2705C34.2611 28.2705 33.9902 28.5414 33.9902 28.8755C33.9902 29.2096 34.2611 29.4805 34.5952 29.4805Z" fill="#FFCA9D"/>
<path d="M35.2002 40.4256C35.5343 40.4256 35.8052 40.1547 35.8052 39.8206C35.8052 39.4865 35.5343 39.2156 35.2002 39.2156C34.8661 39.2156 34.5952 39.4865 34.5952 39.8206C34.5952 40.1547 34.8661 40.4256 35.2002 40.4256Z" fill="#FFCA9D"/>
<path d="M36.7402 19.6356L56.5677 15.4556" stroke="#202124" stroke-width="0.20625" stroke-miterlimit="10"/>
<path d="M37.7026 21.8906L45.2101 20.0481" stroke="#202124" stroke-width="0.20625" stroke-miterlimit="10"/>
<path d="M36.96 27.5556L56.925 22.8806" stroke="#202124" stroke-width="0.20625" stroke-miterlimit="10"/>
<path d="M39.2427 28.8754L61.6277 23.4304" stroke="#202124" stroke-width="0.20625" stroke-miterlimit="10"/>
<path d="M38.0049 31.1854L52.1949 27.5554" stroke="#202124" stroke-width="0.20625" stroke-miterlimit="10"/>
<path d="M37.6475 38.5555L59.84 33.0005" stroke="#202124" stroke-width="0.20625" stroke-miterlimit="10"/>
<path d="M38.0049 40.9206L54.3674 36.4656" stroke="#202124" stroke-width="0.20625" stroke-miterlimit="10"/>
<path d="M36.2451 46.4481L59.1526 39.8206" stroke="#202124" stroke-width="0.20625" stroke-miterlimit="10"/>
<path d="M24.1998 41.4706C23.4023 43.4781 22.6598 45.5131 21.9448 47.5481C21.8898 47.6856 22.1098 47.7406 22.1373 47.6031C22.8523 45.5681 23.5948 43.5331 24.3923 41.5256C24.4473 41.4156 24.2548 41.3606 24.1998 41.4706Z" fill="#202124"/>
<path d="M24.3649 41.5804C24.5299 41.4704 24.8324 41.5804 24.8599 41.8004C24.8874 41.9379 25.0799 41.9379 25.0799 41.8004C25.0249 41.4429 24.6124 41.1954 24.2824 41.3879C24.1449 41.4704 24.2549 41.6629 24.3649 41.5804Z" fill="#202124"/>
<path d="M24.805 41.8006C24.145 43.8356 23.43 45.8156 22.6875 47.8231C22.6325 47.9606 22.8525 47.9881 22.88 47.8781C23.65 45.8981 24.3375 43.8906 24.9975 41.8556C25.0525 41.7181 24.8325 41.6631 24.805 41.8006Z" fill="#202124"/>
<path d="M21.9724 47.5755C22.1099 47.878 22.4674 48.043 22.7974 47.988C22.9349 47.9605 22.8799 47.768 22.7424 47.7955C22.4949 47.823 22.2749 47.6855 22.1649 47.4655C22.0824 47.3555 21.9174 47.4655 21.9724 47.5755Z" fill="#202124"/>
<path d="M21.9177 47.4655C21.6702 47.7405 21.4227 48.043 21.2027 48.318C21.1202 48.428 21.2577 48.5655 21.3402 48.4555C21.5877 48.1805 21.8352 47.878 22.0552 47.603C22.1377 47.493 22.0002 47.3555 21.9177 47.4655Z" fill="#202124"/>
<path d="M21.3677 48.5656C21.6702 48.6481 21.5602 49.0881 21.2577 49.0331C21.1202 49.0056 21.0652 49.1981 21.2027 49.2256C21.4227 49.2806 21.6977 49.1431 21.7527 48.9231C21.8077 48.6756 21.6427 48.4556 21.4227 48.3731C21.2852 48.3181 21.2302 48.5106 21.3677 48.5656Z" fill="#202124"/>
<path d="M21.1199 49.1979C21.2024 49.6379 21.2299 50.0504 21.2299 50.4904C21.2299 50.6279 21.4499 50.6279 21.4499 50.4904C21.4499 50.0229 21.3949 49.5829 21.3124 49.1429C21.2849 49.0054 21.0924 49.0604 21.1199 49.1979Z" fill="#202124"/>
<path d="M21.4227 50.4905C21.7252 50.243 22.0002 49.968 22.2752 49.6655C22.3577 49.5555 22.2202 49.418 22.1377 49.528C21.8902 49.8305 21.5877 50.1055 21.2852 50.353C21.1752 50.4355 21.3402 50.573 21.4227 50.4905Z" fill="#202124"/>
<path d="M22.3577 49.4181C22.3027 49.3081 22.2202 49.1431 22.3027 49.0331C22.3302 48.9781 22.4402 48.9231 22.4952 49.0056C22.5502 49.1156 22.7427 49.0056 22.6602 48.8956C22.5777 48.7306 22.3302 48.7306 22.1927 48.8406C21.9727 49.0056 22.0827 49.3081 22.1652 49.5281C22.2477 49.6381 22.4127 49.5556 22.3577 49.4181Z" fill="#202124"/>
<path d="M22.7424 47.8781C22.6874 48.2081 22.6324 48.5381 22.6049 48.8681C22.5774 49.0056 22.7974 49.0606 22.7974 48.9231C22.8524 48.5931 22.9074 48.2631 22.9349 47.9331C22.9624 47.8231 22.7699 47.7681 22.7424 47.8781Z" fill="#202124"/>
<path d="M21.4776 50.298C21.5601 50.023 21.6976 49.7755 21.8626 49.5555C21.9451 49.4455 21.7526 49.3355 21.6976 49.4455C21.5326 49.693 21.3951 49.968 21.3126 50.243C21.2576 50.3805 21.4501 50.4355 21.4776 50.298Z" fill="#202124"/>
<path d="M22.1649 47.7681C21.8624 47.8506 21.7799 48.2631 22.0824 48.4006C22.3574 48.5656 22.6599 48.2631 22.5774 47.9606C22.5499 47.8231 22.3299 47.8781 22.3849 48.0156C22.4124 48.1256 22.3299 48.2906 22.1924 48.2081C22.0549 48.1531 22.1099 47.9881 22.2474 47.9331C22.3574 47.9331 22.3024 47.7406 22.1649 47.7681Z" fill="#202124"/>
<path d="M18.0125 52.553C19.0575 51.9755 20.075 51.398 21.12 50.8205C21.23 50.7655 21.12 50.573 21.01 50.6555C19.965 51.233 18.9475 51.8105 17.9025 52.388C17.7925 52.443 17.9025 52.608 18.0125 52.553Z" fill="#202124"/>
<path d="M15.9501 47.0255C16.3901 46.943 16.8026 46.833 17.1876 46.668C18.0126 46.3105 18.1776 45.8705 19.1401 46.228C20.1301 46.613 21.0651 47.053 22.1101 47.383C22.2476 47.4105 22.3026 47.218 22.1651 47.1905C21.5051 46.9705 20.8451 46.7505 20.2126 46.4755C19.7726 46.283 19.0576 45.788 18.5901 45.733C18.3701 45.7055 18.4251 45.733 18.1776 45.8155C17.9301 45.898 17.7101 46.173 17.4626 46.283C16.9401 46.558 16.4451 46.6955 15.8951 46.8055C15.7576 46.8605 15.8126 47.053 15.9501 47.0255Z" fill="#202124"/>
<path d="M22.9076 47.7404C23.5126 48.0704 24.2276 48.1254 24.8876 48.2354C25.7951 48.4004 26.7301 48.5929 27.6376 48.7579C27.7751 48.7854 27.8301 48.5929 27.6926 48.5654C26.8951 48.4279 26.0976 48.2629 25.3001 48.1254C24.5576 47.9879 23.6501 47.9329 22.9901 47.5754C22.9076 47.4929 22.7976 47.6854 22.9076 47.7404Z" fill="#202124"/>
<path d="M16.5276 48.9231C17.2701 48.5381 18.0401 48.1531 18.7551 47.7131C18.8651 47.6581 18.7551 47.4656 18.6451 47.5481C17.9026 47.9606 17.1601 48.3731 16.4176 48.7581C16.3076 48.8131 16.4176 48.9781 16.5276 48.9231Z" fill="#202124"/>
<path d="M17.2152 50.1055C18.1777 49.5555 19.1127 48.978 20.0477 48.373C20.1577 48.2905 20.0477 48.1255 19.9377 48.208C19.0027 48.813 18.0677 49.3905 17.1052 49.9405C16.9952 49.9955 17.0777 50.1605 17.2152 50.1055Z" fill="#202124"/>
<path d="M21.5876 52.7456C22.8526 51.6456 24.1726 50.6006 25.5476 49.6106C25.6576 49.5281 25.5476 49.3631 25.4376 49.4456C24.0626 50.4356 22.7151 51.4806 21.4501 52.6081C21.3401 52.6906 21.4776 52.8281 21.5876 52.7456Z" fill="#202124"/>
<path d="M23.7327 52.5254C24.6402 51.8104 25.5202 51.0679 26.4277 50.3529C26.5377 50.2704 26.3727 50.1329 26.2902 50.2154C25.3827 50.9304 24.5027 51.6729 23.5952 52.3879C23.4852 52.4429 23.6502 52.6079 23.7327 52.5254Z" fill="#202124"/>
<path d="M17.5173 27.1156C17.8748 28.8756 18.2323 30.6356 18.5623 32.3956C18.5898 32.5331 18.7823 32.4781 18.7548 32.3406C18.3973 30.5806 18.0398 28.8206 17.7098 27.0606C17.6823 26.9231 17.4898 26.9781 17.5173 27.1156Z" fill="#202124"/>
<path d="M17.7652 27.2256C19.1677 27.3906 20.5152 27.0881 21.8902 26.7306C22.0277 26.7031 21.9727 26.5106 21.8352 26.5381C20.4877 26.8681 19.1677 27.1981 17.7652 27.0056C17.6277 27.0056 17.6277 27.1981 17.7652 27.2256Z" fill="#202124"/>
<path d="M21.8349 26.648C21.7524 28.3255 21.6974 29.9755 21.6699 31.653C21.6699 31.7905 21.8624 31.7905 21.8899 31.653C21.8899 29.9755 21.9449 28.3255 22.0549 26.648C22.0549 26.5105 21.8624 26.5105 21.8349 26.648Z" fill="#202124"/>
<path d="M18.6726 32.6154C19.2776 32.9179 19.9376 33.0554 20.5976 32.8904C21.1201 32.7804 21.8075 32.5329 21.9175 31.9554C21.945 31.8179 21.7525 31.7629 21.725 31.9004C21.5875 32.5054 20.7076 32.7254 20.1851 32.7529C19.6901 32.7804 19.2225 32.6704 18.755 32.4504C18.645 32.3954 18.5626 32.5604 18.6726 32.6154Z" fill="#202124"/>
<path d="M21.1476 26.8404C21.5326 25.6304 21.8901 24.3929 22.2201 23.1554C22.2476 23.0179 22.0551 22.9629 22.0276 23.1004C21.6976 24.3379 21.3401 25.5754 20.9551 26.7854C20.9001 26.9229 21.0926 26.9779 21.1476 26.8404Z" fill="#202124"/>
<path d="M22.1925 23.1004C22.33 23.1554 22.44 23.2654 22.4675 23.4304C22.495 23.5679 22.6875 23.5129 22.66 23.3754C22.605 23.1829 22.495 23.0179 22.3025 22.9354C22.1925 22.8804 22.0825 23.0454 22.1925 23.1004Z" fill="#202124"/>
<path d="M22.4399 23.348C22.0549 24.448 21.7249 25.5755 21.4499 26.703C21.4224 26.8405 21.6149 26.8955 21.6424 26.758C21.9449 25.6305 22.2749 24.503 22.6324 23.403C22.6874 23.2655 22.4949 23.2105 22.4399 23.348Z" fill="#202124"/>
<path d="M22.2751 23.1006C22.0551 22.4681 22.9076 22.0281 23.3201 21.7256C23.4301 21.6431 23.3201 21.4781 23.2101 21.5606C22.7151 21.9181 21.8076 22.4131 22.0551 23.1556C22.1101 23.2931 22.3026 23.2381 22.2751 23.1006Z" fill="#202124"/>
<path d="M23.2374 21.4506C23.1549 21.7531 23.2374 22.0281 23.2374 22.3031C23.2099 22.6881 23.0174 23.0181 22.7149 23.2656C22.6049 23.3481 22.7699 23.4856 22.8524 23.4031C23.0999 23.2106 23.2924 22.9631 23.3749 22.6606C23.4849 22.2756 23.3199 21.8631 23.4299 21.5056C23.4849 21.3956 23.2924 21.3406 23.2374 21.4506Z" fill="#202124"/>
<path d="M16.8299 25.1356C17.1324 25.8506 17.4899 26.5381 17.8749 27.1981C17.9299 27.3081 18.1224 27.1981 18.0399 27.0881C17.6549 26.4281 17.2974 25.7406 16.9949 25.0256C16.9399 24.9156 16.7749 24.9981 16.8299 25.1356Z" fill="#202124"/>
<path d="M16.9948 25.0531C17.0223 24.9431 17.1323 24.9156 17.2423 24.9431C17.3798 24.9706 17.4348 24.7781 17.2973 24.7506C17.0773 24.6956 16.8573 24.8056 16.8023 25.0256C16.7473 25.1081 16.9398 25.1631 16.9948 25.0531Z" fill="#202124"/>
<path d="M17.2427 24.8881C17.5452 25.6856 17.8752 26.4556 18.2602 27.2256C18.3152 27.3356 18.5077 27.2531 18.4252 27.1156C18.0402 26.3731 17.7102 25.6031 17.4352 24.8331C17.3802 24.6956 17.1877 24.7506 17.2427 24.8881Z" fill="#202124"/>
<path d="M16.9677 25.0255C16.8027 24.6405 16.7752 24.2555 16.8577 23.8705C16.8852 23.733 16.6927 23.678 16.6652 23.8155C16.5827 24.2555 16.6102 24.668 16.7752 25.0805C16.8302 25.1905 17.0227 25.163 16.9677 25.0255Z" fill="#202124"/>
<path d="M16.7473 23.9805C16.9123 24.2005 17.0773 24.448 17.2148 24.668C17.2973 24.778 17.4623 24.668 17.3798 24.558C17.2148 24.338 17.0498 24.0905 16.9123 23.8705C16.8573 23.7605 16.6648 23.8705 16.7473 23.9805Z" fill="#202124"/>
<path d="M19.2776 27.0054C19.4426 25.8229 19.6351 24.6404 19.8551 23.4579C19.8826 23.3204 19.6901 23.2654 19.6626 23.4029C19.4151 24.5854 19.2226 25.7954 19.0576 27.0054C19.0576 27.1429 19.2501 27.1429 19.2776 27.0054Z" fill="#202124"/>
<path d="M19.5251 22.9355C18.8376 22.3305 18.0401 22.963 17.8201 23.7055C17.7101 24.0905 17.6551 24.558 17.9301 24.888C18.0676 25.053 18.2326 25.053 18.4251 25.163C18.7826 25.383 18.6726 25.878 18.6451 26.263C18.6176 26.4005 18.8376 26.4005 18.8651 26.263C18.8926 25.933 19.0851 25.273 18.7826 25.0255C18.7551 24.998 18.7276 24.998 18.7001 24.9705C18.6176 24.9705 18.5076 24.943 18.4251 24.943C18.2876 24.613 18.1501 24.283 17.9851 23.953C17.9851 23.348 18.7826 22.5505 19.3876 23.1005C19.4701 23.183 19.6351 23.0455 19.5251 22.9355Z" fill="#202124"/>
<path d="M18.8101 26.483C18.8651 26.483 18.9476 26.5105 19.0026 26.5105C19.1401 26.538 19.1951 26.3455 19.0576 26.318C19.0026 26.318 18.9201 26.2905 18.8651 26.2905C18.7276 26.263 18.6726 26.4555 18.8101 26.483Z" fill="#202124"/>
<path d="M18.6451 24.4755C18.3701 24.283 18.4801 23.9255 18.6176 23.7055C18.7001 23.5955 18.7826 23.458 18.9476 23.4305C19.1401 23.4305 19.2501 23.5956 19.2776 23.7606C19.3326 23.9806 19.3051 24.2831 19.1401 24.4481C18.9751 24.6406 18.6726 24.6406 18.5626 24.4206C18.5076 24.3106 18.3151 24.393 18.3976 24.5305C18.5626 24.8605 19.0026 24.888 19.2501 24.668C19.5526 24.393 19.6076 23.7881 19.3601 23.4581C18.7826 22.6881 17.7926 24.1455 18.5351 24.668C18.6451 24.723 18.7551 24.5305 18.6451 24.4755Z" fill="#202124"/>
<path d="M20.1302 23.2654C20.3227 23.1279 20.5427 22.9904 20.7902 22.9629C21.3402 22.9079 21.5052 23.5954 21.3402 24.0079C21.1477 24.4754 20.6527 24.6679 20.2952 24.9979C20.1852 25.0804 20.3502 25.2179 20.4327 25.1354C21.0102 24.6129 21.8352 24.2279 21.5602 23.2929C21.3127 22.5229 20.5427 22.7704 20.0202 23.1004C19.9102 23.1829 20.0202 23.3479 20.1302 23.2654Z" fill="#202124"/>
<path d="M20.1575 25.1905C20.1025 25.493 20.075 26.373 19.6075 26.3455C19.47 26.3455 19.47 26.538 19.6075 26.5655C20.24 26.6205 20.2675 25.6855 20.35 25.273C20.405 25.108 20.185 25.053 20.1575 25.1905Z" fill="#202124"/>
<path d="M18.7001 26.373C18.6726 26.6205 18.6451 26.8405 18.6176 27.088C18.5901 27.2255 18.8101 27.2255 18.8376 27.088C18.8651 26.8405 18.8926 26.6205 18.9201 26.373C18.9201 26.263 18.7276 26.263 18.7001 26.373Z" fill="#202124"/>
<path d="M19.6352 26.373C19.6077 26.6205 19.5802 26.8405 19.5527 27.088C19.5252 27.2255 19.7452 27.2255 19.7727 27.088C19.8002 26.8405 19.8277 26.6205 19.8552 26.373C19.8827 26.263 19.6627 26.263 19.6352 26.373Z" fill="#202124"/>
<path d="M20.2124 24.2554C20.1849 24.0354 20.2124 23.7604 20.4049 23.6229C20.6249 23.4579 20.9274 23.5129 20.9824 23.8154C21.0099 23.9529 21.2024 23.8979 21.1749 23.7604C21.1199 23.4029 20.7349 23.2379 20.4049 23.3754C20.0474 23.5404 19.9649 23.9529 20.0199 24.3104C20.0474 24.4204 20.2399 24.3654 20.2124 24.2554Z" fill="#202124"/>
<path d="M20.0476 24.4206C20.2126 24.5581 20.4326 24.5856 20.6526 24.5031C20.9001 24.3931 21.0376 24.1456 21.1201 23.8981C21.1751 23.7606 20.9551 23.7056 20.9276 23.8431C20.8451 24.1181 20.5426 24.5581 20.2126 24.2831C20.1026 24.2006 19.9651 24.3381 20.0476 24.4206Z" fill="#202124"/>
<path d="M75.4048 127.903C75.4048 128.261 79.5848 146.328 79.5848 146.328H91.5473C92.4273 140.223 93.3073 134.118 94.2148 128.041C87.9448 127.986 81.6748 127.958 75.4048 127.903Z" fill="#202124"/>
<path d="M84.8923 129.278C90.0865 129.278 94.2973 128.749 94.2973 128.096C94.2973 127.442 90.0865 126.913 84.8923 126.913C79.6981 126.913 75.4873 127.442 75.4873 128.096C75.4873 128.749 79.6981 129.278 84.8923 129.278Z" fill="white" stroke="#202124" stroke-width="0.20625" stroke-miterlimit="10"/>
<path d="M82.1702 105.49C80.1902 108.46 79.8602 112.338 81.3452 115.583C82.2802 117.618 83.9577 119.13 84.7277 121.275C85.5527 123.558 85.5802 126.005 84.8927 128.315C84.7277 128.838 85.5252 129.03 85.6902 128.535C86.8177 124.768 86.0477 120.945 83.7377 117.783C82.4452 115.995 81.4002 114.235 81.2352 111.953C81.0702 109.78 81.6477 107.69 82.8577 105.875C83.1877 105.463 82.4727 105.05 82.1702 105.49Z" fill="#FFCA9D"/>
<path d="M76.3677 116.683C76.3952 118.91 78.3202 119.845 80.0527 120.725C82.3627 121.908 84.8377 123.283 85.3052 126.06C85.3877 126.583 86.1852 126.363 86.1027 125.84C85.8002 124.025 84.6727 122.623 83.2152 121.578C81.4002 120.258 77.1927 119.323 77.1927 116.655C77.1927 116.16 76.3677 116.16 76.3677 116.683Z" fill="#FFCA9D"/>
<path d="M84.0125 119.295C84.535 119.295 84.535 118.47 84.0125 118.47C83.49 118.47 83.49 119.295 84.0125 119.295Z" fill="#FFCA9D"/>
<path d="M84.7277 119.048C83.9027 116.353 86.3777 114.483 87.6702 112.475C88.8527 110.633 88.9902 108.515 89.0177 106.398C89.0177 105.875 88.1927 105.875 88.1927 106.398C88.1652 107.773 88.1377 109.203 87.6977 110.523C87.2302 111.898 86.2952 112.943 85.4152 114.07C84.2327 115.583 83.3252 117.343 83.9027 119.295C84.0952 119.763 84.8927 119.57 84.7277 119.048Z" fill="#FFCA9D"/>
<path d="M78.32 103.4C77.4675 105.05 77.1375 106.865 77.495 108.708C77.66 109.505 77.9075 110.33 78.375 110.99C78.925 111.733 79.75 112.008 80.355 112.668C80.7125 113.053 81.29 112.475 80.9325 112.09C80.6025 111.733 80.245 111.54 79.86 111.265C79.035 110.66 78.595 109.918 78.375 108.928C77.935 107.168 78.1825 105.408 79.0075 103.813C79.255 103.345 78.54 102.905 78.32 103.4Z" fill="#FFCA9D"/>
<path d="M77.6049 118.718C77.0824 118.471 76.4774 118.031 75.9824 117.343C74.9374 115.831 75.0474 113.658 76.1199 111.706C76.5599 112.173 77.3299 113.136 77.7149 114.566C78.2649 116.491 77.7974 118.113 77.6049 118.718Z" fill="#FFCA9D"/>
<path d="M81.3998 121.935C82.3898 122.183 83.1598 122.568 83.6548 122.898C84.8373 123.558 85.0848 123.888 85.0573 124.08C84.9198 124.603 82.1973 124.74 80.2998 123.338C79.5848 122.815 79.1723 122.183 78.9248 121.743C79.5023 121.688 80.3823 121.688 81.3998 121.935Z" fill="#FFCA9D"/>
<path d="M85.4152 122.018C85.3327 121.606 85.1127 120.368 85.7727 119.076C86.9277 116.876 89.5952 116.738 89.7052 116.738C89.7602 117.288 89.7602 118.086 89.4027 118.938C88.4677 121.358 85.7177 121.963 85.4152 122.018Z" fill="#FFCA9D"/>
<path d="M86.0751 113.41C85.7176 112.695 85.1401 111.265 85.1951 109.395C85.2226 108.075 85.5801 107.03 85.8551 106.398C86.1026 106.948 86.3501 107.608 86.5151 108.378C86.9551 110.578 86.4326 112.42 86.0751 113.41Z" fill="#FFCA9D"/>
<path d="M83.8751 118.36C83.3251 117.563 82.5551 116.215 82.3351 114.428C82.0876 112.228 82.7476 109.89 83.2151 109.89C83.5726 109.89 83.7926 111.238 83.9576 112.145C84.2051 113.603 84.3426 115.72 83.8751 118.36Z" fill="#FFCA9D"/>
<path d="M81.5375 107.526C81.2625 106.893 80.9875 105.986 80.96 104.858C80.8775 102.026 82.555 99.303 83.215 99.4405C83.6 99.523 83.655 100.541 83.7375 101.696C83.7925 102.741 83.875 103.951 83.2425 105.326C83.0225 105.821 82.5275 106.701 81.5375 107.526Z" fill="#FFCA9D"/>
<path d="M78.1826 109.671C77.3851 108.873 75.8176 107.086 75.4876 104.473C75.1301 101.641 76.3126 98.863 76.8076 98.918C77.0826 98.9455 77.1376 99.853 77.4676 103.071C77.7151 105.848 77.9901 108.131 78.1826 109.671Z" fill="#FFCA9D"/>
<path d="M88.5223 108.57C88.1923 107.855 87.7248 106.48 88.0273 104.858C88.4123 102.823 89.8973 101.09 90.3648 101.283C90.9148 101.503 90.1448 104.528 90.0623 104.803C89.6498 106.453 89.0173 107.718 88.5223 108.57Z" fill="#FFCA9D"/>
<path d="M25.6575 58.2456C24.5025 58.6306 23.32 58.9881 22.165 59.3731C25.575 75.6256 28.9575 91.9056 32.3675 108.158C43.505 110.908 54.6425 113.658 65.78 116.408C66.605 115.886 67.43 115.363 68.255 114.841C66.5225 97.2956 64.8175 79.7506 63.085 62.2331C50.6275 60.9131 38.1425 59.5656 25.6575 58.2456Z" fill="white" stroke="#202124" stroke-width="0.20625" stroke-miterlimit="10"/>
<path d="M22.5225 59.4829L28.2975 109.725L65.78 116.435C64.185 98.6704 62.6175 80.9329 61.0225 63.1679C48.18 61.9304 35.365 60.6929 22.5225 59.4829Z" fill="white" stroke="#202124" stroke-width="0.20625" stroke-miterlimit="10"/>
<path d="M36.1075 71.8855C35.5575 72.078 35.0075 72.298 34.43 72.4905C34.21 85.223 33.99 97.9555 33.77 110.688C34.045 125.181 34.32 139.646 34.5675 154.138C35.1175 154.688 35.6675 155.238 36.245 155.815C36.7125 155.32 37.1525 154.798 37.62 154.303C37.125 139.673 36.6025 125.071 36.1075 110.441C36.1075 97.598 36.1075 84.7555 36.1075 71.8855Z" fill="#FFCA9D"/>
<path d="M39.2974 111.706C39.3524 111.706 39.2974 114.401 39.2974 114.401L51.8099 116.436L52.0574 113.988L39.2974 111.706Z" fill="#FFCA9D"/>
<path d="M33.2752 70.153C33.0827 70.9505 24.1177 162.47 24.1177 162.47L27.3077 163.653C30.2502 132.605 33.1927 101.558 36.1077 70.5105C35.6402 70.0155 35.1727 69.5205 34.7052 69.053C34.2377 69.383 33.7702 69.768 33.2752 70.153Z" fill="#FFCA9D"/>
<path d="M36.1351 70.4829C44.3851 85.6354 52.6351 100.815 60.8576 115.968C62.3976 129.938 63.9101 143.908 65.4501 157.905C65.1751 158.675 64.8726 159.445 64.5976 160.215C63.5526 159.39 62.4801 158.593 61.4351 157.768C60.4726 143.743 59.5101 129.718 58.5751 115.693C50.8201 101.09 43.0651 86.4879 35.3101 71.8854C35.5851 71.4179 35.8601 70.9504 36.1351 70.4829Z" fill="#FFCA9D"/>
<path d="M116.05 149.985C108.185 154.578 104.445 157.273 104.83 158.098C105.243 159.033 110.88 157.548 121.715 153.725C121.413 152.405 121.11 151.085 120.808 149.765C119.24 149.82 117.645 149.903 116.05 149.985Z" fill="#FFCA9D"/>
<path d="M115.39 150.645C115.143 150.205 114.703 149.793 114.153 149.738C113.795 149.71 113.493 149.903 113.575 150.288C113.713 151.058 115.17 151.608 115.253 150.563C115.198 150.563 115.115 150.59 115.06 150.59C115.115 150.948 115.775 153.45 116.573 152.598C116.82 152.35 116.655 151.938 116.545 151.663C116.27 151.14 115.803 150.755 115.28 150.535C115.17 150.48 115.06 150.673 115.17 150.7C115.445 150.81 115.693 150.975 115.913 151.168C116.05 151.278 116.545 151.828 116.463 152.02C116.243 152.075 116.05 152.103 115.83 152.158C115.803 152.103 115.775 152.048 115.72 151.993C115.61 151.883 115.555 151.635 115.5 151.47C115.39 151.168 115.308 150.838 115.253 150.508C115.225 150.398 115.06 150.425 115.06 150.535C115.033 150.975 114.318 150.92 114.098 150.673C113.905 150.453 113.96 149.93 114.318 149.958C114.675 149.958 115.06 150.425 115.225 150.728C115.28 150.865 115.445 150.755 115.39 150.645Z" fill="white"/>
<path d="M112.97 151.47C113.493 151.525 113.933 151.855 114.153 152.323C114.208 152.433 114.4 152.35 114.318 152.213C114.043 151.663 113.548 151.333 112.943 151.25C112.833 151.25 112.833 151.443 112.97 151.47Z" fill="white"/>
<path d="M112.007 152.213C112.447 152.241 112.805 152.571 112.942 152.983C112.97 153.121 113.19 153.066 113.135 152.928C112.997 152.406 112.53 152.048 112.007 152.021C111.87 152.021 111.87 152.213 112.007 152.213Z" fill="white"/>
<path d="M110.413 153.258C110.908 153.258 111.375 153.56 111.54 154.028C111.595 154.138 111.788 154.11 111.733 153.973C111.513 153.423 110.99 153.065 110.385 153.065C110.275 153.038 110.275 153.258 110.413 153.258Z" fill="white"/>
<path d="M109.395 153.945C109.807 153.973 110.11 154.33 110.11 154.743C110.11 154.88 110.302 154.88 110.33 154.743C110.357 154.22 109.945 153.78 109.422 153.753C109.257 153.725 109.257 153.945 109.395 153.945Z" fill="white"/>
<path d="M112.888 155.981C115.638 155.073 118.333 154.083 121.055 153.066C121.165 153.011 121.138 152.818 121 152.873C118.305 153.891 115.583 154.881 112.833 155.788C112.695 155.816 112.75 156.008 112.888 155.981Z" fill="white"/>
<path d="M102.877 82.2254C102.932 84.3704 103.015 87.1479 103.207 90.3929C103.427 94.0504 103.895 99.7154 104.857 106.535C106.452 117.645 108.68 126.638 110.247 132.248C111.622 137.225 113.52 143.275 116.105 150.068C116.38 150.343 116.847 150.728 117.48 150.948C119.185 151.525 120.725 150.453 120.945 150.315C120.615 148.28 120.202 145.393 119.79 141.955C117.892 125.895 118.085 113.025 118.332 106.15C118.552 100.293 119.075 92.8954 120.23 84.3979C120.01 83.9854 117.645 79.4479 112.31 78.6779C106.755 77.8529 103.097 81.9504 102.877 82.2254Z" fill="white"/>
<path d="M102.768 82.2254C103.153 100.238 105.93 118.195 111.073 135.493C112.53 140.415 114.18 145.31 116.023 150.123C116.078 150.233 116.27 150.205 116.215 150.068C109.78 133.155 105.6 115.418 103.868 97.4054C103.373 92.3729 103.098 87.3129 102.988 82.2529C102.96 82.0879 102.768 82.0879 102.768 82.2254Z" fill="#202124"/>
<path d="M118.882 94.6005C117.452 112.998 118.057 131.505 120.725 149.765C120.752 149.903 120.945 149.848 120.917 149.711C118.277 131.478 117.672 112.971 119.102 94.573C119.102 94.463 118.91 94.463 118.882 94.6005Z" fill="#202124"/>
<path d="M116.572 150.728C117.892 151.305 119.322 151.25 120.56 150.563C120.67 150.508 120.56 150.315 120.45 150.398C119.267 151.058 117.892 151.113 116.655 150.563C116.545 150.508 116.435 150.673 116.572 150.728Z" fill="#202124"/>
<path d="M141.295 147.703C136.428 154.468 134.31 158.153 135.025 158.785C135.795 159.473 139.893 156.475 147.318 149.82C146.713 148.665 146.108 147.51 145.503 146.355C144.1 146.795 142.698 147.235 141.295 147.703Z" fill="#FFCA9D"/>
<path d="M141.047 148.171C140.552 147.951 140.057 148.006 139.59 148.253C139.287 148.418 138.71 148.721 138.82 149.161C138.957 149.573 139.507 149.518 139.837 149.408C140.305 149.271 140.662 148.968 140.937 148.583C141.02 148.473 140.827 148.363 140.772 148.473C140.607 148.693 140.442 148.886 140.222 149.023C140.085 149.106 139.947 149.161 139.81 149.216C139.562 149.298 139.59 149.298 139.37 149.051C139.122 148.941 139.095 148.831 139.26 148.748C139.315 148.693 139.397 148.638 139.48 148.583C139.59 148.501 139.727 148.446 139.837 148.391C140.195 148.226 140.58 148.171 140.965 148.363C141.047 148.418 141.157 148.226 141.047 148.171Z" fill="white"/>
<path d="M140.8 148.418C140.855 148.858 141.02 149.27 141.35 149.545C141.625 149.765 142.038 149.903 142.313 149.628C142.588 149.353 142.45 148.913 142.203 148.665C141.873 148.335 141.433 148.17 140.965 148.115C140.828 148.088 140.828 148.308 140.965 148.335C141.378 148.39 142.615 148.858 142.148 149.463C141.9 149.765 141.515 149.49 141.323 149.27C141.13 149.023 141.02 148.748 140.993 148.445C140.993 148.28 140.773 148.28 140.8 148.418Z" fill="white"/>
<path d="M139.315 150.316C139.783 150.041 140.333 150.096 140.773 150.426C140.883 150.508 140.993 150.316 140.883 150.261C140.388 149.903 139.755 149.876 139.233 150.151C139.095 150.178 139.205 150.371 139.315 150.316Z" fill="white"/>
<path d="M138.517 151.223C139.04 150.893 139.672 150.893 140.195 151.223C140.305 151.305 140.415 151.113 140.305 151.058C139.727 150.7 138.985 150.7 138.407 151.058C138.297 151.113 138.407 151.305 138.517 151.223Z" fill="white"/>
<path d="M137.83 152.351C138.352 151.993 139.067 152.048 139.535 152.488C139.617 152.571 139.782 152.433 139.672 152.351C139.15 151.828 138.325 151.773 137.72 152.186C137.61 152.241 137.72 152.433 137.83 152.351Z" fill="white"/>
<path d="M137.088 153.395C137.583 153.148 138.16 153.175 138.628 153.478C138.738 153.56 138.848 153.368 138.738 153.313C138.215 152.955 137.555 152.928 136.978 153.23C136.868 153.258 136.978 153.45 137.088 153.395Z" fill="white"/>
<path d="M136.428 154.468C136.813 154.33 137.253 154.413 137.555 154.715C137.665 154.798 137.803 154.66 137.693 154.578C137.335 154.248 136.84 154.138 136.373 154.275C136.235 154.303 136.29 154.495 136.428 154.468Z" fill="white"/>
<path d="M146.685 149.243C144.43 151.443 142.12 153.588 139.755 155.678C139.645 155.76 139.81 155.898 139.892 155.815C142.257 153.725 144.567 151.58 146.822 149.38C146.932 149.298 146.767 149.16 146.685 149.243Z" fill="white"/>
<path d="M126.225 85.1954C126.665 87.2304 127.242 89.8154 127.957 92.7854C128.507 95.0129 129.662 99.7704 131.285 105.545C134.887 118.333 138.517 128.37 139.782 131.808C141.24 135.768 143.192 140.828 145.667 146.658C145.447 146.933 145.172 147.208 144.76 147.455C143.275 148.363 141.625 147.813 141.267 147.703C136.977 142.065 133.457 136.95 130.652 132.66C128.672 129.608 123.062 120.945 118.195 111.183C116.875 108.543 114.51 103.62 112.365 99.028C111.485 97.158 110.77 95.5904 110.275 94.5454C110.495 93.2529 111.182 90.3654 113.63 87.9729C118.607 83.1604 125.84 85.0854 126.225 85.1954Z" fill="white"/>
<path d="M126.142 85.223C130.707 106.151 137.17 126.611 145.42 146.383C145.475 146.493 145.667 146.438 145.612 146.328C137.362 126.583 130.9 106.096 126.335 85.168C126.307 85.0305 126.115 85.0855 126.142 85.223Z" fill="#202124"/>
<path d="M111.815 97.983C119.625 115.665 129.497 132.385 141.212 147.758C141.295 147.868 141.46 147.758 141.377 147.648C129.662 132.276 119.79 115.555 111.98 97.873C111.925 97.763 111.76 97.8455 111.815 97.983Z" fill="#202124"/>
<path d="M141.955 148.143C143.22 148.281 144.458 147.923 145.448 147.126C145.558 147.043 145.393 146.906 145.31 146.988C144.348 147.758 143.193 148.088 141.955 147.951C141.818 147.896 141.818 148.116 141.955 148.143Z" fill="#202124"/>
<path d="M81.0701 46.3654C81.0976 46.5029 81.0977 46.7504 81.0427 46.9979C80.8502 47.6854 80.2176 47.9879 80.1626 48.0154C79.5301 48.2904 78.6501 48.1529 78.2376 47.5204C77.9076 47.0254 78.0726 46.4479 78.1001 46.3654C78.2926 45.7879 78.8151 45.3754 79.4751 45.3204C79.7501 45.0179 80.0527 44.7429 80.3277 44.4404C80.0802 44.1379 79.6952 43.6979 79.2276 43.2304C77.4401 41.4704 75.5151 40.5354 74.2501 40.0404C71.8576 39.1054 69.8226 39.0504 68.5851 39.0504C66.9626 39.0229 64.9276 38.9954 62.5901 40.0129C60.3076 41.0029 59.0426 42.4329 58.6851 42.8729C57.9701 43.6979 57.1451 44.7429 56.9801 46.2829C56.8701 47.4654 57.2001 48.3729 57.3101 48.6204C57.8601 49.9954 58.9051 50.7104 59.4276 51.0404C61.2976 52.2779 63.3326 52.1679 64.6251 52.0854C65.2301 52.0579 66.5501 51.9754 68.0626 51.3429C70.2076 50.4629 71.1151 49.8304 71.1151 49.8304C71.5552 49.5279 72.1876 49.0604 73.0401 49.0604C73.2601 49.0604 73.7276 49.0604 74.0026 49.3629C74.2501 49.6379 74.1952 49.9404 74.2776 50.2704C74.4701 50.9854 75.1576 51.4254 75.5976 51.7004C77.3026 52.7454 79.8326 51.7279 81.1526 50.7104C81.2901 50.6004 82.0326 50.0229 82.5276 49.0604C82.9676 48.2079 82.9126 47.7679 82.8576 47.6029C82.7751 47.1629 82.5001 46.8879 82.4451 46.8329C81.9501 46.2829 81.1801 46.3654 81.0701 46.3654Z" fill="white"/>
<path d="M59.9777 48.4554C59.4827 48.3179 58.6852 47.9329 58.6302 47.3554C58.5752 46.9154 59.0151 46.8329 59.5101 45.8704C59.9226 45.1004 59.8127 44.8529 60.0877 44.6879C60.7477 44.3029 62.6176 45.1554 62.6726 46.4754C62.7276 47.3004 62.0952 48.0429 61.4077 48.3454C60.7752 48.6479 60.1702 48.5104 59.9777 48.4554Z" fill="#FFCA9D"/>
<path d="M65.6152 43.5879C64.5427 43.5604 63.6352 43.0929 63.6627 42.9279C63.6902 42.7354 65.0927 43.0104 65.2852 42.5429C65.4502 42.1304 64.4877 41.5804 64.6252 41.1954C64.8177 40.7004 66.6327 40.9479 67.7602 41.2504C68.4202 41.4154 69.8227 41.7729 69.8227 42.2129C69.8227 42.5429 69.0252 42.7629 67.5952 43.1754C66.7152 43.4779 66.2477 43.5879 65.6152 43.5879Z" fill="#B1CEFC"/>
<path d="M68.2552 47.7405C67.6227 47.4655 67.1002 46.7505 67.2652 46.338C67.4577 45.788 68.6677 46.228 69.6027 45.403C70.3727 44.7155 70.0977 43.9455 70.7302 43.6705C71.5277 43.313 72.9302 44.0555 73.0127 44.8805C73.0402 45.348 72.6277 45.7055 71.8852 46.283C70.7577 47.163 69.4102 48.2355 68.2552 47.7405Z" fill="#E0E0E0"/>
<path d="M85.2777 49.3629C85.0852 48.8129 84.9202 48.3454 84.6177 47.7129C84.0402 46.5304 83.4627 45.7329 83.1327 45.3204C82.5002 44.5229 82.1702 44.1379 81.6752 44.0554C80.9877 43.9454 80.3827 44.4404 80.1902 44.5779C80.0802 44.6604 79.6952 44.9904 79.4202 45.5954C79.2552 45.9529 79.2277 46.2829 79.2002 46.5029C79.2277 46.5854 79.3102 46.8329 79.5302 46.9704C79.8602 47.1904 80.2452 47.0254 80.4377 46.9429C80.8227 46.7779 81.0152 46.5029 81.0977 46.3654C81.2627 46.3654 81.6477 46.3654 82.0602 46.5854C82.1977 46.6679 82.6652 46.9154 82.8577 47.4104C83.0502 47.9329 82.8577 48.4004 82.6652 48.8679C82.6377 48.9504 82.4452 49.3629 82.0602 49.8579C81.8127 50.1604 81.3727 50.6279 80.6577 51.0129C80.8502 51.1229 81.1252 51.2879 81.4552 51.4804C82.5552 52.0854 83.1052 52.3879 83.7102 52.4429C84.4252 52.4979 85.4702 52.2229 85.8002 51.5354C85.9102 51.1504 85.6902 50.5454 85.2777 49.3629Z" fill="white"/>
<path d="M101.09 33.8804C100.897 34.0454 100.54 34.3754 100.182 34.8429C99.6325 35.5579 99.385 36.2454 99.33 36.4104C99.1925 36.7954 99.33 36.3004 95.755 43.1754C94.6275 45.3204 93.1975 48.0979 91.4925 51.4254C89.43 50.5729 87.34 49.7479 85.2775 48.8954C85.0025 49.0879 84.645 49.3904 84.315 49.8579C83.5725 50.9029 83.6275 52.0579 83.655 52.4429C83.9575 52.9654 84.425 53.7354 85.0025 54.6154C85.525 55.3854 86.02 56.1004 88.3575 59.0154C90.695 61.9579 88.3575 58.9329 91.41 62.5904C91.795 63.0579 92.4825 63.8554 93.61 64.2679C93.94 64.4054 94.5175 64.5979 95.205 64.4604C95.8375 64.3504 96.2775 63.9929 96.91 63.4154C98.4775 61.9579 99.0275 61.2154 99.0275 61.2154C102.822 56.0179 104.692 52.3054 104.692 52.3054C107.855 45.9804 108.267 42.9279 108.377 41.8829C108.652 39.3804 108.322 38.3354 107.965 37.6204C106.342 34.3754 101.832 33.9354 101.09 33.8804Z" fill="white"/>
<path d="M100.348 34.3205C97.02 40.3705 93.83 46.503 90.805 52.718C90.75 52.828 90.915 52.938 90.97 52.828C93.995 46.613 97.185 40.4805 100.513 34.4305C100.595 34.3205 100.403 34.2105 100.348 34.3205Z" fill="#202124"/>
<path d="M85.2501 49.0055C87.3126 49.858 89.4026 50.683 91.4651 51.5355C91.5751 51.5905 91.6301 51.398 91.5201 51.343C89.4576 50.4905 87.3676 49.6655 85.3051 48.813C85.1676 48.758 85.1126 48.9505 85.2501 49.0055Z" fill="#202124"/>
<path d="M84.7824 49.1431C83.9024 49.9681 83.4624 51.0956 83.4624 52.3056C83.4624 52.4431 83.6824 52.4431 83.6824 52.3056C83.6549 51.1506 84.0949 50.1056 84.9474 49.3081C85.0299 49.1981 84.8924 49.0606 84.7824 49.1431Z" fill="#202124"/>
<path d="M83.9027 53.2131C85.6627 55.7156 87.5052 58.1356 89.4302 60.4731C90.6127 61.9031 92.7577 64.9006 94.9302 64.6256C96.9652 64.3506 98.7252 61.8756 99.8252 60.3356C101.64 57.7781 103.153 55.0006 104.803 52.3331C104.885 52.2231 104.693 52.1131 104.638 52.2231C103.345 54.3406 102.08 56.4581 100.76 58.5756C99.5227 60.5556 97.9002 63.2231 95.6177 64.1856C93.0877 65.2581 90.5027 61.4631 89.1277 59.7581C87.3677 57.6131 85.6902 55.3856 84.0952 53.1031C83.9852 52.9931 83.8202 53.1031 83.9027 53.2131Z" fill="#202124"/>
<path d="M79.0901 46.558C79.2551 46.8605 79.4751 47.218 79.8876 47.218C80.3551 47.218 80.7951 46.8055 81.0976 46.503C81.1801 46.4205 81.0426 46.2555 80.9601 46.3655C80.7126 46.613 80.4376 46.8605 80.1076 46.9705C79.6676 47.108 79.4476 46.778 79.2826 46.448C79.2001 46.338 79.0351 46.448 79.0901 46.558Z" fill="#202124"/>
<path d="M79.3375 45.898C79.7225 45.238 80.1625 44.413 80.96 44.2205C82.1425 43.9455 82.8025 45.0455 83.325 45.788C84.0125 46.7505 84.5625 47.7955 85.03 48.8955C85.085 49.0055 85.2775 48.9505 85.2225 48.8405C84.59 47.328 83.6825 45.238 82.28 44.248C80.9325 43.2855 79.75 44.743 79.145 45.8155C79.09 45.9255 79.2825 46.008 79.3375 45.898Z" fill="#202124"/>
<path d="M81.0974 46.4754C83.7649 46.8054 82.5824 49.3354 81.2899 50.4904C80.2174 51.4254 78.7324 52.0029 77.3024 52.0029C76.2299 52.0029 75.0749 51.6179 74.5249 50.6004C74.2774 50.1604 74.2774 49.4729 73.9199 49.0604C73.6449 48.7579 73.4249 48.6754 73.0124 48.7304C72.1599 48.8404 71.2249 49.7479 70.4824 50.1604C69.1899 50.8754 67.8149 51.3979 66.3849 51.7279C63.7449 52.3054 60.5824 52.2779 58.5199 50.2704C56.2099 48.0429 56.9249 45.0454 58.8499 42.8454C60.7199 40.7004 63.0574 39.7654 65.8349 39.3529C71.1424 38.5829 76.6699 40.1229 80.1074 44.3854C80.1899 44.4954 80.3274 44.3304 80.2449 44.2479C77.1099 40.3704 72.1874 38.6654 67.2924 38.9954C63.0849 39.2704 58.0524 41.1954 56.9524 45.8154C55.8799 50.2979 60.8574 52.5254 64.5424 52.2229C67.1274 52.0029 69.4649 51.0404 71.6649 49.6929C72.3799 49.2529 72.2149 49.2529 73.1774 49.5829C74.7724 50.1329 73.6449 49.4729 74.1674 50.3529C74.4149 50.7379 74.4974 51.0404 74.8274 51.3429C75.4874 51.9754 76.3949 52.1954 77.3024 52.1954C79.2824 52.2229 81.3999 51.1504 82.4449 49.4454C83.4074 47.8779 82.9674 46.5029 81.0974 46.2554C80.9599 46.2554 80.9599 46.4479 81.0974 46.4754Z" fill="#202124"/>
<path d="M79.5024 45.2104C78.9524 45.1279 78.2924 45.7604 78.0449 46.2279C77.7424 46.8054 77.9074 47.4379 78.4024 47.8504C79.5024 48.7854 81.0424 47.9879 81.2074 46.6404C81.2349 46.5029 81.0149 46.5029 80.9874 46.6404C80.8499 47.7129 79.6949 48.4279 78.7324 47.8229C78.1549 47.4654 77.9074 46.8329 78.2649 46.2554C78.4574 45.9529 79.0349 45.3479 79.4474 45.4304C79.5574 45.4304 79.6399 45.2379 79.5024 45.2104Z" fill="#202124"/>
<path d="M80.5475 51.0954C81.51 51.7004 82.5275 52.1679 83.6275 52.5254C83.765 52.5529 83.82 52.3604 83.6825 52.3329C82.61 51.9754 81.62 51.5079 80.6575 50.9304C80.5475 50.8479 80.4375 51.0404 80.5475 51.0954Z" fill="#202124"/>
<path d="M101.09 33.8804C100.897 34.7879 100.65 36.0254 100.402 37.4554C100.32 37.9779 100.045 39.3804 99.9349 41.2504C99.6874 45.1829 99.5499 49.4729 99.6324 54.0104C99.6599 55.3854 99.7149 56.9804 99.7974 58.8229C99.8524 59.6754 100.017 62.9479 100.43 67.0729C100.98 72.5179 101.805 77.4679 102.52 81.3454C102.685 81.7579 102.822 82.1704 102.987 82.5829C103.455 83.0779 104.142 83.7104 105.05 84.3979C106.177 85.2779 108.515 86.8729 111.87 87.8904C114.482 88.6879 116.682 88.7979 117.892 88.7979C119.35 88.7979 120.587 88.7979 122.1 88.2754C124.162 87.5604 125.537 86.3504 126.252 85.5529C126.362 84.7279 126.5 83.5454 126.665 82.1429C126.94 79.8879 127.71 73.0129 128.37 63.8279C128.727 59.0979 129.057 53.5429 129.277 47.2729C128.837 46.7779 128.177 46.0629 127.325 45.2929C126.747 44.7704 125.675 43.8629 122.76 42.0754C121.44 41.2779 120.092 40.4529 118.195 39.4629C114.812 37.7304 111.87 36.6579 109.972 36.0254C106.7 35.0079 103.702 34.3204 101.09 33.8804Z" fill="white"/>
<path d="M101.063 33.9906C111.073 35.6681 120.505 39.9306 128.398 46.3381C128.508 46.4206 128.645 46.2831 128.535 46.2006C120.615 39.7656 111.155 35.5031 101.118 33.7981C100.98 33.7706 100.925 33.9631 101.063 33.9906Z" fill="#202124"/>
<path d="M99.8798 40.233C98.9173 54.1755 99.8248 68.2005 102.575 81.923C102.602 82.0605 102.795 82.0055 102.767 81.868C100.017 68.173 99.1098 54.1755 100.072 40.233C100.1 40.0955 99.9073 40.0955 99.8798 40.233Z" fill="#202124"/>
<path d="M129.03 48.9779C128.618 61.2154 127.628 73.4254 126.115 85.5529C126.088 85.6904 126.308 85.6904 126.335 85.5529C127.848 73.3979 128.81 61.1879 129.25 48.9779C129.223 48.8404 129.03 48.8404 129.03 48.9779Z" fill="#202124"/>
<path d="M102.905 82.6655C106.013 85.7455 110 87.863 114.318 88.6055C118.168 89.2655 122.733 89.1005 125.813 86.4055C125.923 86.323 125.758 86.1855 125.675 86.268C122.458 89.1005 117.535 89.128 113.548 88.248C109.588 87.368 105.958 85.388 103.07 82.528C102.96 82.418 102.823 82.5555 102.905 82.6655Z" fill="#202124"/>
<path d="M117.315 37.1255C117.26 36.823 117.15 36.328 116.875 35.833C116.792 35.668 115.857 34.018 114.07 33.6605C112.97 33.468 112.035 33.8255 110.99 34.238C110.632 34.3755 110.33 34.5405 110.11 34.6505C109.862 34.678 109.395 34.6505 108.927 34.403C108.047 33.9355 107.827 33.0555 107.772 32.863C107.552 32.0655 107.745 31.1855 108.212 30.553C108.982 29.5355 110.302 29.453 111.155 29.4255C112.502 29.3705 113.575 29.8105 114.207 30.113C114.152 29.673 114.152 29.123 114.235 28.518C114.29 28.1055 114.565 26.1255 116.05 25.108C116.325 24.9155 116.737 24.6405 117.15 24.7505C117.535 24.833 117.782 25.1905 118.002 25.548C118.387 26.1255 118.305 26.373 118.607 26.648C118.992 27.033 119.542 27.0605 119.9 27.0605C120.862 27.088 121.385 26.6755 122.182 26.373C123.337 25.9605 124.327 26.0705 125.482 26.208C126.39 26.318 127.792 26.483 129.167 27.4455C130.377 28.298 130.955 29.3155 131.395 30.0855C132.412 31.873 132.605 33.4955 132.632 33.963C132.715 34.788 132.852 36.328 132.11 38.033C131.12 40.288 129.222 41.333 128.617 41.663C126.17 42.983 123.86 42.6255 123.09 42.488C122.292 42.3505 121 42.1305 119.762 41.1405C119.515 40.948 118.662 40.233 118.03 39.023C117.59 38.308 117.397 37.6205 117.315 37.1255Z" fill="#202124"/>
<path d="M116.16 31.3504C116.463 31.5154 117.013 31.9004 117.453 32.6429C117.755 33.1929 117.865 33.6879 117.893 33.9904C117.92 33.9354 118.36 33.0554 117.865 32.2029C117.508 31.6254 116.848 31.2954 116.16 31.3504Z" fill="white"/>
<path d="M110.22 34.678C110.082 34.9255 109.917 35.3105 109.78 35.8055C109.642 36.328 109.45 37.0155 109.587 37.8405C109.642 38.143 109.78 38.8855 110.412 39.5455C111.265 40.4255 112.392 40.4805 112.667 40.508C112.997 40.563 113.245 40.8655 113.245 41.1955C113.272 41.5255 113.052 41.8005 112.75 41.9105C112.722 42.1305 112.75 42.433 112.942 42.6805C113.382 43.2305 114.482 43.038 115.087 42.708C116.05 42.213 116.325 41.223 116.38 41.003C116.132 40.563 115.885 40.123 115.637 39.683C115.885 39.4355 116.187 39.133 116.462 38.748C116.902 38.143 117.177 37.5655 117.37 37.098C117.232 36.5755 116.93 35.7505 116.242 34.953C115.885 34.568 115.252 33.8255 114.152 33.578C113.245 33.3855 112.502 33.6055 112.062 33.743C111.155 33.963 110.55 34.403 110.22 34.678Z" fill="white"/>
<path d="M113.781 35.5764C113.869 35.3828 113.84 35.1802 113.716 35.1232C113.592 35.0666 113.419 35.1771 113.331 35.3707C113.242 35.5641 113.272 35.767 113.396 35.8237C113.52 35.8806 113.693 35.7698 113.781 35.5764Z" fill="#202124"/>
<path d="M110.083 34.6779C109.175 36.7404 109.038 39.4079 111.54 40.3429C113.355 41.0304 115.445 40.3704 116.518 38.7754C116.6 38.6654 116.408 38.5554 116.353 38.6654C115.418 40.0679 113.63 40.7004 111.98 40.2604C109.368 39.5454 109.368 36.8504 110.275 34.7879C110.33 34.6504 110.138 34.5679 110.083 34.6779Z" fill="#202124"/>
<path d="M112.805 40.7004C112.997 40.9754 113.19 41.2504 113.382 41.5254C113.465 41.6354 113.63 41.5254 113.547 41.4154C113.355 41.1404 113.162 40.8654 112.97 40.5904C112.915 40.5079 112.722 40.5904 112.805 40.7004Z" fill="#202124"/>
<path d="M112.778 41.5254C112.338 42.3504 112.998 43.2029 113.878 43.2029C115.088 43.2304 116.05 41.9929 116.463 41.0029C116.518 40.8929 116.325 40.8379 116.27 40.9479C115.995 41.6354 115.473 42.3229 114.84 42.7354C114.483 42.9554 114.015 43.0929 113.575 42.9829C112.97 42.8179 112.64 42.1854 112.943 41.6354C113.025 41.5254 112.833 41.4154 112.778 41.5254Z" fill="#202124"/>
<path d="M112.035 34.6231C111.347 35.4481 110.632 36.4656 111.182 37.5656C111.237 37.6756 111.43 37.5931 111.347 37.4556C110.852 36.4656 111.54 35.5031 112.172 34.7606C112.255 34.6781 112.117 34.5406 112.035 34.6231Z" fill="#202124"/>
<path d="M110.165 34.5406C107.498 34.5681 106.783 31.1856 109.12 29.9756C110.413 29.3156 112.035 29.4256 113.355 29.9481C116.27 31.0756 117.783 34.1006 117.178 37.1256C117.15 37.2631 117.343 37.3181 117.37 37.1806C118.168 33.1656 115.198 29.1781 110.963 29.3431C109.395 29.3981 107.58 30.2506 107.415 32.0106C107.278 33.6331 108.598 34.7881 110.138 34.7606C110.303 34.7606 110.303 34.5406 110.165 34.5406Z" fill="#202124"/>
<path d="M110.275 34.7606C111.513 34.0731 112.723 33.2481 114.208 33.6881C115.308 34.0181 117.508 35.7506 117.233 37.0981C117.205 37.2356 117.398 37.2906 117.425 37.1531C117.7 35.8881 115.913 34.2656 114.895 33.7431C113.135 32.8631 111.733 33.7156 110.193 34.5681C110.055 34.6506 110.138 34.8156 110.275 34.7606Z" fill="#202124"/>
<path d="M114.263 30.1405C114.153 28.9305 114.345 27.7755 114.923 26.703C115.335 25.9055 116.545 24.0355 117.81 25.5205C118.003 25.7405 118.085 26.0705 118.195 26.318C118.69 27.2255 119.295 27.473 120.313 27.2255C121.275 27.0055 122.073 26.5105 123.035 26.373C124.053 26.2355 125.098 26.263 126.115 26.5105C128.095 26.978 129.855 28.1605 131.01 29.838C133.32 33.248 133.155 38.9955 129.305 41.223C127.133 42.4605 124.795 42.9005 122.375 42.158C120.038 41.443 117.425 39.848 117.48 37.098C117.48 36.9605 117.288 36.9605 117.26 37.098C117.205 40.7005 121.523 42.6255 124.603 42.763C128.425 42.9005 131.808 40.4255 132.523 36.658C133.155 33.413 132.028 29.838 129.333 27.8305C128.013 26.8405 126.39 26.2355 124.74 26.098C123.943 26.043 123.145 26.098 122.375 26.263C121.935 26.373 121.495 26.5105 121.083 26.6755C120.78 26.7855 121.11 27.0055 120.23 27.033C119.708 27.0605 118.635 26.6205 118.333 26.208C117.645 25.273 117.26 24.0355 115.885 25.0805C114.4 26.208 113.85 28.408 114.015 30.168C114.07 30.2505 114.263 30.2505 114.263 30.1405Z" fill="#202124"/>
<path d="M126.72 24.5029C126.693 24.8054 126.638 25.2729 126.473 25.8229C126.088 27.0329 125.483 27.4179 124.63 28.6004C123.338 30.3879 123.008 31.9004 122.925 32.2579C122.678 33.4954 122.843 34.1554 123.008 34.5404C123.255 35.1179 123.613 35.4754 123.86 35.6954C123.173 37.0979 122.1 39.2154 120.808 41.8004C116.628 50.1329 115.335 52.4704 113.3 56.6779C112.008 59.3179 110.193 63.1679 108.103 67.9529C108.185 68.0629 108.405 68.3929 108.873 68.5854C109.34 68.7504 109.725 68.6679 109.863 68.6404C110.413 67.3204 111.265 65.3404 112.338 62.9479C114.153 58.8779 114.703 57.9704 116.958 53.1304C120.01 46.5854 120.313 45.5679 122.458 41.3054C123.75 38.7479 124.878 36.6854 125.648 35.3104C126.033 35.2004 126.555 34.9804 127.105 34.5679C128.535 33.4404 128.755 31.7354 128.783 31.4879C128.92 30.2504 128.48 29.2054 128.068 28.2154C127.765 27.4729 127.463 27.0329 127.078 25.9054C126.913 25.3004 126.775 24.8329 126.72 24.5029Z" fill="white"/>
<path d="M122.32 55.0279C122.21 54.7254 122.072 54.2854 121.907 53.7904C121.577 52.7179 121.385 52.1954 121.247 51.5629C120.972 50.4629 121.082 50.3804 120.835 49.6654C120.587 48.9229 120.422 48.4554 119.955 48.0979C119.24 47.5204 118.332 47.6854 118.195 47.6854C117.535 47.7954 117.122 48.1804 116.655 48.6204C116.352 48.8954 115.72 49.5279 115.39 50.5729C115.142 51.3429 115.197 52.0029 115.252 52.4154C115.445 52.3604 115.802 52.2779 116.215 52.3604C116.407 52.3879 117.095 52.4979 117.397 53.0204C117.617 53.3779 117.452 53.5704 117.59 54.0654C117.755 54.6704 118.195 55.0279 118.415 55.2479C118.58 55.3854 119.68 56.3204 120.972 55.9629C121.687 55.7429 122.1 55.2754 122.32 55.0279Z" fill="white"/>
<path d="M129.167 46.7231C128.892 46.3931 128.645 46.2556 128.425 46.2281C126.912 45.9531 124.52 49.3356 124.135 52.6906C123.97 54.2306 124.217 55.4956 124.492 56.3481C123.695 55.5781 122.925 54.8081 122.127 54.0381C121.77 54.1206 121.192 54.3131 120.587 54.7806C120.092 55.1656 119.762 55.5781 119.57 55.8531C119.68 56.2106 119.845 56.7881 120.037 57.4756C121.495 62.3156 122.732 65.3956 123.062 66.2481C124.025 68.5856 124.52 69.5206 124.74 69.9056C125.537 71.3081 126.17 72.4356 127.435 73.4806C128.37 74.2781 129.497 75.2406 131.175 75.3231C132.88 75.4056 134.145 74.5256 134.585 74.1681C136.015 73.0406 136.427 71.5006 136.647 70.6481C137.252 68.2556 136.647 66.2481 135.547 62.6181C135.08 61.1606 134.695 60.1431 133.925 58.1356C132.88 55.4131 132.275 54.2031 130.762 50.5731C130.047 48.8956 129.497 47.5481 129.167 46.7231Z" fill="white"/>
<path d="M122.072 54.0931C124.905 56.9256 127.847 59.6481 130.872 62.2606C130.982 62.3431 131.12 62.2056 131.01 62.1231C127.957 59.5106 125.042 56.7881 122.21 53.9556C122.127 53.8456 121.962 54.0106 122.072 54.0931Z" fill="#202124"/>
<path d="M121.825 54.0654C120.835 54.3129 120.01 54.9179 119.46 55.7704C119.378 55.8804 119.57 55.9904 119.625 55.8804C120.148 55.0829 120.918 54.5054 121.853 54.2579C122.018 54.2304 121.963 54.0379 121.825 54.0654Z" fill="#202124"/>
<path d="M119.57 56.3204C120.918 60.6929 122.238 65.1754 124.328 69.2729C125.758 72.0779 128.398 75.7904 132 75.3779C135.878 74.9379 137.198 70.6754 136.868 67.3479C136.455 63.4704 134.558 59.6204 133.1 56.0179C131.835 52.8829 130.515 49.8029 129.25 46.6679C129.195 46.5579 129.003 46.6129 129.058 46.7229C130.268 49.7204 131.56 52.6904 132.77 55.6879C133.458 57.4204 134.145 59.1804 134.805 60.9129C135.74 63.3604 136.73 65.8354 136.758 68.5029C136.785 71.3079 135.383 74.4979 132.358 75.1029C129.443 75.6804 126.968 73.1504 125.538 70.9504C122.705 66.5779 121.33 61.1879 119.79 56.2654C119.735 56.1554 119.543 56.1829 119.57 56.3204Z" fill="#202124"/>
<path d="M119.433 55.6881C118.388 55.3031 117.673 54.3956 117.508 53.3231C117.48 53.1856 117.288 53.2406 117.315 53.3781C117.48 54.5331 118.278 55.4956 119.378 55.9081C119.488 55.9356 119.543 55.7156 119.433 55.6881Z" fill="#202124"/>
<path d="M115.28 52.4981C116.023 52.2781 116.793 52.4981 117.343 53.0756C117.425 53.1856 117.59 53.0206 117.48 52.9381C116.903 52.3056 116.05 52.0856 115.225 52.3056C115.088 52.3331 115.143 52.5531 115.28 52.4981Z" fill="#202124"/>
<path d="M115.17 51.5905C115.748 50.903 116.655 51.2055 117.37 51.453C117.508 51.508 117.535 51.288 117.425 51.2605C116.628 50.9855 115.638 50.7105 115.033 51.453C114.923 51.5355 115.088 51.673 115.17 51.5905Z" fill="#202124"/>
<path d="M115.39 50.7655C115.94 49.858 116.875 49.8855 117.81 50.078C117.948 50.1055 118.003 49.913 117.865 49.8855C116.848 49.6655 115.83 49.6655 115.225 50.6555C115.143 50.7655 115.308 50.8755 115.39 50.7655Z" fill="#202124"/>
<path d="M116.243 49.2804C116.958 48.7029 117.893 48.5929 118.718 48.9504C118.828 49.0054 118.883 48.8129 118.773 48.7579C117.865 48.3729 116.875 48.5379 116.078 49.1429C115.995 49.2254 116.16 49.3629 116.243 49.2804Z" fill="#202124"/>
<path d="M117.535 47.9606C118.608 47.6031 119.79 47.8506 120.423 48.8956C120.78 49.4731 120.89 50.3531 121.028 51.0131C121.248 52.1131 121.523 53.1856 121.99 54.2031C122.045 54.3131 122.238 54.2306 122.155 54.0931C121.083 51.7831 121.385 46.4206 117.453 47.7681C117.343 47.8231 117.398 48.0156 117.535 47.9606Z" fill="#202124"/>
<path d="M115.225 52.3605C112.86 57.503 110.467 62.6455 108.102 67.788C108.047 67.898 108.212 68.008 108.267 67.898C110.632 62.7555 113.025 57.613 115.39 52.4705C115.445 52.3605 115.28 52.2505 115.225 52.3605Z" fill="#202124"/>
<path d="M108.075 68.008C108.432 68.5855 109.12 68.8605 109.78 68.723C109.917 68.6955 109.862 68.503 109.725 68.5305C109.147 68.668 108.57 68.4205 108.24 67.9255C108.185 67.788 107.992 67.898 108.075 68.008Z" fill="#202124"/>
<path d="M110 68.6405C112.2 63.4155 114.565 58.2455 117.068 53.158C117.123 53.048 116.958 52.938 116.903 53.048C114.373 58.163 112.035 63.333 109.808 68.5855C109.753 68.723 109.973 68.778 110 68.6405Z" fill="#202124"/>
<path d="M117.92 47.7129C119.982 43.7254 122.017 39.7654 124.08 35.7779C124.135 35.6679 123.97 35.5579 123.915 35.6679C121.852 39.6554 119.817 43.6154 117.755 47.6029C117.672 47.7404 117.837 47.8229 117.92 47.7129Z" fill="#202124"/>
<path d="M119.432 47.6854C121.44 43.5054 123.557 39.3804 125.757 35.3379C125.812 35.2279 125.647 35.1179 125.592 35.2279C123.365 39.2979 121.247 43.4229 119.267 47.5754C119.185 47.7129 119.377 47.8229 119.432 47.6854Z" fill="#202124"/>
<path d="M124.053 35.8054C124.438 35.4479 124.933 35.2829 125.483 35.3379C125.62 35.3654 125.62 35.1454 125.483 35.1179C124.905 35.0629 124.328 35.2554 123.915 35.6404C123.805 35.7504 123.97 35.8879 124.053 35.8054Z" fill="#202124"/>
<path d="M123.943 35.6131C121.413 33.6881 123.888 29.8106 125.18 27.9681C126.005 26.8131 127.023 25.6581 126.72 24.1456C126.693 24.0081 126.5 24.0631 126.528 24.2006C126.885 25.8506 125.428 27.2256 124.575 28.4631C123.97 29.3431 123.42 30.2781 123.063 31.2956C122.568 32.8081 122.458 34.7331 123.833 35.7781C123.943 35.8606 124.053 35.6956 123.943 35.6131Z" fill="#202124"/>
<path d="M126.61 24.2829C126.857 26.1254 127.902 27.6379 128.452 29.3704C129.25 31.8729 128.012 34.4579 125.482 35.2829C125.345 35.3104 125.4 35.5304 125.537 35.4754C127.297 34.8979 128.645 33.4129 128.892 31.5704C129.25 28.9579 127.16 26.7579 126.802 24.2554C126.802 24.1454 126.61 24.1454 126.61 24.2829Z" fill="#202124"/>
<path d="M123.42 30.2504C123.612 30.2779 123.942 30.3329 124.327 30.2504C125.18 30.0854 125.372 29.5079 125.812 29.5629C126.582 29.6454 126.775 31.3504 127.435 31.3504C127.847 31.3504 128.04 30.6354 128.425 30.6904C128.672 30.7454 128.837 31.1304 128.92 31.4604C128.947 31.2129 128.975 30.8829 128.947 30.4429C128.892 29.5629 128.617 29.1229 128.177 28.0504C127.82 27.1979 128.04 27.5829 127.187 25.2729C126.912 24.5304 126.665 23.8979 126.5 23.4304C126.527 23.8704 126.5 24.5029 126.28 25.2179C126.032 26.0704 125.675 26.5929 125.207 27.3079C124.795 27.9679 124.162 28.9579 123.42 30.2504Z" fill="#FFCA9D"/>
</svg>
