<svg width="191" height="125" viewBox="0 0 191 125" fill="none" xmlns="http://www.w3.org/2000/svg">
<g clip-path="url(#clip0_481_11553)">
<mask id="mask0_481_11553" style="mask-type:luminance" maskUnits="userSpaceOnUse" x="0" y="-66" width="191" height="192">
<path d="M191 -65.9995H0V125H191V-65.9995Z" fill="white"/>
</mask>
<g mask="url(#mask0_481_11553)">
<path d="M141.722 114.018L115.587 100.107C108.934 96.5733 105.336 88.3285 106.96 80.2428L118.547 22.1788C120.489 12.4696 129.148 6.45312 137.743 8.87245L162.796 15.844C170.881 18.1041 176.006 26.9856 174.542 36.1855L164.069 101.221C162.159 112.649 151.113 119.016 141.722 114.018Z" fill="#F99E51"/>
<path d="M168.303 20.8736C165.629 25.8078 164.801 31.3468 164.292 36.8858C163.687 43.4116 163.178 49.9693 162.541 56.4951C161.172 70.0243 159.485 83.5534 157.48 97.0189C157.448 97.1781 157.703 97.2418 157.703 97.0826C159.613 84.2219 161.268 71.3294 162.605 58.3733C163.273 51.9748 163.846 45.5444 164.356 39.1141C164.865 32.9066 165.534 26.6036 168.526 21.0328C168.59 20.8418 168.399 20.7144 168.303 20.8736Z" fill="white"/>
<path d="M44.2484 47.3589C45.3307 48.5049 198.131 122.74 198.131 122.74L189.281 145.915L-18.4951 146.647L1.40072 60.7925L44.2484 47.3589Z" fill="white" stroke="#202124" stroke-width="0.23875" stroke-miterlimit="10"/>
<path d="M42.2429 66.8728L15.0254 76.3592L6.3667 65.3448L31.7379 57.864L42.2429 66.8728Z" fill="white" stroke="#202124" stroke-width="0.23875" stroke-miterlimit="10"/>
<path d="M47.5592 66.1724L19.3548 76.3272L10.4097 64.517L36.6722 56.5269L47.5592 66.1724Z" fill="white" stroke="#202124" stroke-width="0.23875" stroke-miterlimit="10"/>
<path d="M46.1902 63.3392L18.9726 72.7938L10.314 61.7794L35.6852 54.2986L46.1902 63.3392Z" fill="white" stroke="#202124" stroke-width="0.23875" stroke-miterlimit="10"/>
<path d="M16.9356 66.5226C17.5404 66.5226 17.5404 65.5676 16.9356 65.5676C16.3307 65.5676 16.3307 66.5226 16.9356 66.5226Z" fill="#FFCA9D"/>
<path d="M17.8267 61.8749C19.5457 64.2305 21.3283 66.4907 23.1747 68.719C23.2702 68.8464 23.4293 68.6554 23.3338 68.5599C21.4875 66.3634 19.7048 64.1032 18.0176 61.7475C17.954 61.652 17.7312 61.7475 17.8267 61.8749Z" fill="#FFCA9D"/>
<path d="M22.4108 64.0715C23.3021 65.0583 24.1935 66.1088 25.053 67.1275C25.1485 67.2548 25.3076 67.0638 25.2121 66.9683C24.3526 65.9178 23.4613 64.8991 22.57 63.9123C22.4745 63.785 22.3153 63.9441 22.4108 64.0715Z" fill="#FFCA9D"/>
<path d="M23.1427 60.4105C24.7344 62.5433 26.2624 64.708 27.7267 66.9363C27.8222 67.0637 28.0132 66.9363 27.9177 66.809C26.4534 64.5807 24.9254 62.416 23.3337 60.2832C23.2382 60.1877 23.0472 60.2832 23.1427 60.4105Z" fill="#FFCA9D"/>
<path d="M26.7084 59.4875C28.2682 61.2701 29.7007 63.1801 31.0059 65.1538C31.1014 65.2811 31.2924 65.1538 31.1969 65.0265C29.8917 63.021 28.4274 61.111 26.8676 59.2965C26.8039 59.201 26.6129 59.3601 26.7084 59.4875Z" fill="#FFCA9D"/>
<path d="M31.547 57.9277C33.457 59.9332 35.2397 62.0024 36.9268 64.1989C37.0223 64.3262 37.2133 64.1989 37.1178 64.0716C35.4307 61.8432 33.648 59.7422 31.7062 57.7367C31.6107 57.6412 31.4515 57.8322 31.547 57.9277Z" fill="#FFCA9D"/>
<path d="M66.1815 107.81L31.0694 116.565L24.1934 105.136L58.255 96.637L66.1815 107.81Z" fill="#F99E51"/>
<path d="M36.8951 111.662L33.3616 112.172L29.6689 106.41L33.2024 105.9L36.8951 111.662Z" fill="white"/>
<path d="M24.1934 105.582C24.1934 106.091 24.1934 106.601 24.1934 107.078C24.1934 107.237 24.448 107.237 24.448 107.078C24.448 106.569 24.448 106.06 24.448 105.582C24.4162 105.423 24.1934 105.423 24.1934 105.582Z" fill="#202124"/>
<path d="M24.4483 107.715C26.2628 110.93 28.1091 114.145 29.9236 117.36C29.9873 117.488 30.2101 117.36 30.1146 117.233C28.3001 114.018 26.4538 110.803 24.6393 107.588C24.5756 107.46 24.3528 107.556 24.4483 107.715Z" fill="#202124"/>
<path d="M25.7531 109.116C27.4402 111.853 29.0637 114.623 30.5599 117.424C30.6236 117.551 30.8464 117.424 30.7509 117.297C29.2229 114.464 27.6312 111.694 25.9441 108.988C25.8486 108.861 25.6576 108.988 25.7531 109.116Z" fill="#202124"/>
<path d="M31.9924 117.074C36.4173 116.087 40.8421 114.973 45.2033 113.763C45.3624 113.731 45.2988 113.477 45.1396 113.54C40.7466 114.782 36.3536 115.864 31.9288 116.851C31.8015 116.883 31.8651 117.106 31.9924 117.074Z" fill="#202124"/>
<path d="M43.6119 114.814C50.9654 113.158 58.2553 111.28 65.4814 109.179C65.6406 109.147 65.5769 108.893 65.4178 108.956C58.1916 111.057 50.9018 112.936 43.5483 114.591C43.3891 114.591 43.4528 114.846 43.6119 114.814Z" fill="#202124"/>
<path d="M32.5021 117.774C35.6854 116.947 38.9006 116.215 42.1476 115.61C42.3067 115.578 42.2431 115.355 42.0839 115.387C38.8369 115.992 35.6217 116.724 32.4384 117.552C32.2792 117.583 32.3429 117.806 32.5021 117.774Z" fill="#202124"/>
<path d="M49.4689 112.713C53.6709 111.758 57.841 110.707 61.9794 109.593C62.1385 109.561 62.0749 109.338 61.9157 109.37C57.7455 110.484 53.5754 111.503 49.4052 112.49C49.246 112.49 49.3097 112.745 49.4689 112.713Z" fill="#202124"/>
<path d="M65.3856 108.097C65.322 108.67 65.2583 109.243 65.1946 109.816C65.1628 109.975 65.4175 109.975 65.4493 109.816C65.513 109.243 65.5766 108.67 65.6403 108.097C65.6403 107.938 65.4175 107.938 65.3856 108.097Z" fill="#202124"/>
<path d="M41.2563 89.9201C40.7788 90.1747 39.6964 90.5886 38.2958 90.5249C37.0224 90.4612 36.0674 89.9837 35.5899 89.7291C34.6986 85.3997 33.8391 81.0386 32.9478 76.7092H43.6438L41.2563 89.9201Z" fill="#202124"/>
<path d="M38.3275 80.3065C41.281 80.3065 43.6755 78.582 43.6755 76.4546C43.6755 74.3272 41.281 72.6028 38.3275 72.6028C35.374 72.6028 32.9795 74.3272 32.9795 76.4546C32.9795 78.582 35.374 80.3065 38.3275 80.3065Z" fill="white" stroke="#202124" stroke-width="0.23875" stroke-miterlimit="10"/>
<path d="M38.3911 78.7784C40.29 78.7784 41.8291 77.6951 41.8291 76.359C41.8291 75.023 40.29 73.9397 38.3911 73.9397C36.4923 73.9397 34.9531 75.023 34.9531 76.359C34.9531 77.6951 36.4923 78.7784 38.3911 78.7784Z" fill="white" stroke="#202124" stroke-width="0.23875" stroke-miterlimit="10"/>
<path d="M121.355 99.2513C123.941 97.3072 125.095 94.4785 123.933 92.9327C122.771 91.3869 119.733 91.7097 117.147 93.6534C114.562 95.5972 113.408 98.4262 114.569 99.972C115.732 101.518 118.77 101.195 121.355 99.2513Z" fill="white" stroke="#202124" stroke-width="0.23875" stroke-miterlimit="10"/>
<path d="M114.886 100.107C115.396 98.6742 116.255 97.4327 117.465 96.4777C117.592 96.3822 117.401 96.223 117.306 96.3185C116.096 97.3053 115.205 98.5787 114.664 100.075C114.6 100.202 114.823 100.266 114.886 100.107Z" fill="#202124"/>
<path d="M115.46 95.8411C117.561 95.7456 119.375 96.9552 120.012 98.9926C120.044 99.1517 120.298 99.088 120.235 98.9289C119.566 96.8279 117.688 95.4909 115.46 95.6182C115.332 95.6182 115.332 95.8729 115.46 95.8411Z" fill="#202124"/>
<path d="M96.5823 104.182L63.4438 80.4339L83.8808 67.0957L116.383 86.514L96.5823 104.182Z" fill="white" stroke="#202124" stroke-width="0.23875" stroke-miterlimit="10"/>
<path d="M94.8951 101.698L67.5503 82.0572L83.6898 70.9155L110.716 87.8509L94.8951 101.698Z" fill="white" stroke="#202124" stroke-width="0.23875" stroke-miterlimit="10"/>
<path d="M81.7798 72.2527L109.156 89.2199" stroke="#202124" stroke-width="0.23875" stroke-miterlimit="10"/>
<path d="M79.7427 73.6533L107.406 90.7478" stroke="#202124" stroke-width="0.23875" stroke-miterlimit="10"/>
<path d="M77.6733 75.0857L105.75 92.1802" stroke="#202124" stroke-width="0.23875" stroke-miterlimit="10"/>
<path d="M75.8271 76.3274L103.777 93.6447" stroke="#202124" stroke-width="0.23875" stroke-miterlimit="10"/>
<path d="M73.7896 77.7598L102.026 95.4273" stroke="#202124" stroke-width="0.23875" stroke-miterlimit="10"/>
<path d="M71.5933 79.2559L100.275 96.987" stroke="#202124" stroke-width="0.23875" stroke-miterlimit="10"/>
<path d="M69.4604 80.7202L98.1105 98.8652" stroke="#202124" stroke-width="0.23875" stroke-miterlimit="10"/>
<path d="M108.711 86.6094L92.1895 99.7565" stroke="#202124" stroke-width="0.23875" stroke-miterlimit="10"/>
<path d="M105.75 84.9858L89.9292 98.133" stroke="#202124" stroke-width="0.23875" stroke-miterlimit="10"/>
<path d="M85.9503 72.3481L70.543 83.84" stroke="#202124" stroke-width="0.23875" stroke-miterlimit="10"/>
<path d="M88.5287 73.6851L73.5352 85.4634" stroke="#202124" stroke-width="0.23875" stroke-miterlimit="10"/>
<path d="M91.1072 75.5632L75.8271 88.0101" stroke="#202124" stroke-width="0.23875" stroke-miterlimit="10"/>
<path d="M103.427 83.5217L86.7461 96.0641" stroke="#202124" stroke-width="0.23875" stroke-miterlimit="10"/>
<path d="M92.5076 78.9058L78.3418 89.7928" stroke="#202124" stroke-width="0.23875" stroke-miterlimit="10"/>
<path d="M96.0415 81.0706L81.0161 91.7347" stroke="#202124" stroke-width="0.23875" stroke-miterlimit="10"/>
<path d="M98.9064 82.853L84.2949 94.0584" stroke="#202124" stroke-width="0.23875" stroke-miterlimit="10"/>
<path d="M44.2485 56.4634L84.2949 82.9487L96.296 104.118L64.0807 80.8795L44.2485 56.4634Z" fill="white" stroke="#202124" stroke-width="0.23875" stroke-miterlimit="10"/>
<path d="M87.096 62.1613C86.8413 62.3205 86.4911 62.607 86.0773 62.9572C84.995 63.9122 84.7403 64.5488 83.6898 65.854C82.9895 66.7135 82.3846 67.4457 81.4296 68.146C80.8248 68.5917 80.0926 69.1328 79.0103 69.4193C78.5646 69.5467 77.0366 69.9605 75.2858 69.292C74.7765 69.101 73.153 68.4643 72.5163 66.9045C72.389 66.5543 72.3253 66.236 72.2935 66.0132C72.58 65.4083 73.0893 64.5488 73.8533 63.6575C74.3945 63.0527 75.5405 61.8748 79.6151 59.9967C80.793 59.4555 82.3846 58.7552 84.3265 58.0867C84.422 58.1185 86.3956 58.4687 87.0323 60.1558C87.3506 61.0472 87.1915 61.8112 87.096 62.1613Z" fill="white"/>
<path d="M121.285 27.3357C120.712 27.5904 119.885 28.0042 119.025 28.6727C117.784 29.6595 117.02 30.7419 116.478 31.6332C114.6 34.7847 113.9 37.8725 113.9 37.8725C113.2 40.8967 111.576 45.8945 107.915 54.6805C103.936 55.731 99.3521 56.686 94.2906 57.3545C90.5342 57.832 87.0325 58.0549 83.8174 58.1185C84.1675 58.2459 84.6132 58.5005 85.1226 58.8507C85.5046 59.1372 86.3004 59.742 86.7779 60.7607C87.4464 62.1932 87.0644 63.6257 86.9052 64.0395C88.0512 64.2624 89.7384 64.5807 91.7439 64.9627C99.9887 66.4907 96.5826 65.7267 101.899 66.7135C101.899 66.7135 104.923 67.2547 108.52 67.382C109.252 67.4139 110.335 67.4139 111.64 66.9682C111.894 66.8727 112.977 66.4907 114.218 65.5039C115.619 64.3897 116.383 63.18 116.638 62.7344C120.044 57.3545 121.795 57.068 123.545 52.6432C124.246 50.8605 124.596 49.3962 125.042 47.2634C125.583 44.8759 125.965 42.3292 126.028 40.8649C126.315 35.3259 123.195 30.0415 121.285 27.3357Z" fill="white"/>
<path d="M119.948 27.9087C116.415 29.9461 115.11 33.9571 113.868 37.5861C111.958 43.0296 110.08 48.5049 108.17 53.9484C108.106 54.1076 108.361 54.1712 108.393 54.0121C110.08 49.1416 111.767 44.3029 113.454 39.4324C114.855 35.3896 116.065 30.4236 120.044 28.1316C120.203 28.0361 120.076 27.8451 119.948 27.9087Z" fill="#202124"/>
<path d="M84.4222 57.9595C91.903 57.8322 99.352 56.9091 106.642 55.1901C106.801 55.1582 106.737 54.9354 106.578 54.9672C99.3202 56.6862 91.903 57.6094 84.4222 57.7367C84.2948 57.7367 84.2948 57.9914 84.4222 57.9595Z" fill="#202124"/>
<path d="M84.2629 58.596C86.2684 59.2645 87.4144 61.4929 86.7777 63.5302C86.7459 63.6894 86.9687 63.7531 87.0005 63.5939C87.669 61.4292 86.4594 59.0736 84.2947 58.3732C84.1674 58.3414 84.1037 58.5642 84.2629 58.596Z" fill="#202124"/>
<path d="M87.9239 64.2625C91.8712 65.1857 95.8186 65.9497 99.8296 66.5545C103.14 67.0639 106.737 67.8597 110.08 67.414C113.072 67.032 114.95 65.0902 116.669 62.7664C119.121 59.5194 121.413 56.145 123.577 52.6752C123.673 52.5479 123.45 52.4205 123.386 52.5479C121.54 55.4765 119.598 58.3415 117.561 61.1429C115.269 64.2625 113.168 67.0639 108.966 67.223C105.56 67.3504 101.994 66.6182 98.6517 66.077C95.0546 65.504 91.5211 64.8037 87.9876 63.976C87.8602 64.0079 87.7966 64.2307 87.9239 64.2625Z" fill="#202124"/>
<path d="M86.3319 62.639C84.0717 64.1034 83.3714 66.9047 80.9839 68.2417C80.8566 68.3054 80.9839 68.5282 81.1112 68.4327C83.4987 67.0957 84.1991 64.2625 86.4592 62.83C86.5547 62.7664 86.4592 62.5754 86.3319 62.639Z" fill="#202124"/>
<path d="M82.5759 58.8508C78.4057 60.1878 74.0127 61.9067 72.1027 66.1406C72.039 66.2679 72.2619 66.3952 72.2937 66.2679C74.1719 62.0659 78.5012 60.3787 82.6077 59.0736C82.7669 59.0417 82.7032 58.7871 82.5759 58.8508Z" fill="#202124"/>
<path d="M73.0896 67.1593C74.1401 65.3448 75.6045 63.8804 77.419 62.8299C77.5463 62.7663 77.419 62.5434 77.2916 62.6389C75.4453 63.6894 73.9173 65.1856 72.8668 67.0638C72.8031 67.1911 73.026 67.2866 73.0896 67.1593Z" fill="#202124"/>
<path d="M74.363 67.6049C75.3817 65.6949 77.2917 64.6444 79.138 63.6576C79.2653 63.5939 79.138 63.3711 79.0107 63.4666C77.1325 64.4852 75.2225 65.5676 74.172 67.5094C74.1083 67.6367 74.2993 67.7322 74.363 67.6049Z" fill="#202124"/>
<path d="M75.9225 68.2098C77.0048 66.65 78.501 65.4721 80.3155 64.8355C80.4746 64.7718 80.411 64.549 80.2518 64.6126C78.4055 65.2811 76.8456 66.459 75.7315 68.0825C75.636 68.2098 75.8588 68.3371 75.9225 68.2098Z" fill="#202124"/>
<path d="M120.967 27.8132C119.566 28.9592 119.375 30.8374 119.184 32.7474C118.738 37.5542 118.516 39.9417 118.675 42.2019C118.929 46.2129 118.42 47.0087 117.497 56.0494C116.924 61.6521 116.255 70.0879 115.746 82.4074C127.779 88.2011 139.78 93.9947 151.813 99.7884C151.941 98.7379 152.132 97.1781 152.418 95.2681C152.8 92.8487 153.15 91.2889 153.309 90.2702C153.851 86.5776 154.105 83.5216 154.328 80.8157C155.474 65.9496 155.57 68.5599 155.856 62.7662C156.174 56.5269 156.302 48.2502 155.792 38.3819C153.787 36.3446 150.667 33.5751 146.242 31.2194C145.319 30.7419 141.245 28.6091 135.451 27.3994C132.459 26.7627 129.912 26.7946 124.85 26.8264C123.545 26.8264 122.113 26.8582 120.967 27.8132Z" fill="white"/>
<path d="M121.89 27.304C134.177 25.2667 147.038 29.5323 155.697 38.4457C155.792 38.5412 155.983 38.382 155.856 38.2865C147.102 29.3095 134.177 25.0438 121.826 27.0812C121.667 27.113 121.731 27.3358 121.89 27.304Z" fill="#202124"/>
<path d="M119.28 37.6816C117.561 52.1021 116.383 66.5863 115.746 81.1023C115.746 81.2615 115.969 81.2615 116.001 81.1023C116.637 66.5863 117.815 52.1021 119.534 37.6816C119.534 37.5225 119.311 37.5225 119.28 37.6816Z" fill="#202124"/>
<path d="M155.57 45.258C156.779 63.3394 154.265 81.357 151.75 99.2474C151.718 99.4065 151.973 99.4702 151.973 99.311C154.487 81.4207 157.002 63.3712 155.793 45.258C155.793 45.0989 155.57 45.0989 155.57 45.258Z" fill="#202124"/>
<path d="M148.757 98.6424C148.916 98.6424 148.916 98.3877 148.757 98.3877C148.598 98.3877 148.598 98.6424 148.757 98.6424Z" fill="#202124"/>
<path d="M112.626 83.0442C112.563 83.2034 112.403 83.458 112.181 83.7127C111.703 84.2539 111.098 84.413 110.78 84.4767C109.666 84.7632 108.679 84.413 108.329 84.2857C106.896 83.7445 106.896 83.0124 105.973 82.9487C105.782 82.9487 105.496 82.9487 103.649 84.1584C102.089 85.1452 101.994 85.3362 101.516 85.3999C100.116 85.559 98.9698 84.2857 98.9061 84.1902C97.9193 83.0442 98.0785 81.6435 98.1103 81.4207C98.4605 80.9114 99.0016 80.1792 99.7975 79.4789C100.498 78.8422 101.421 78.0145 102.885 77.5689C104.254 77.1869 105.432 77.3142 106.069 77.4415C107.406 77.6962 107.724 78.2055 109.188 78.492C110.207 78.7149 111.066 78.683 111.671 78.6194C111.958 78.9377 112.531 79.638 112.754 80.7204C112.945 81.7709 112.722 82.6304 112.626 83.0442Z" fill="white"/>
<path d="M155.761 38.3501C155.028 38.9231 153.978 39.8781 153.15 41.3743C152.545 42.4566 152.386 43.2524 151.813 45.0669C151.718 45.3216 151.208 46.7541 150.19 49.5554C150.19 49.5554 148.948 52.9298 147.611 56.3678C145.51 61.8113 143.059 67.3503 141.786 70.2789C140.544 70.7246 138.698 71.3931 136.406 72.1571C133.891 72.9848 130.74 73.9398 122.527 76.0089C119.725 76.7093 116.033 77.6324 111.64 78.6511C111.958 79.0331 112.467 79.7334 112.722 80.7521C113.104 82.3119 112.595 83.6171 112.404 84.0309C113.454 83.9991 114.982 83.9673 116.892 83.9036C125.774 83.6171 130.23 83.4898 134.56 83.0441C145.128 81.9936 143.473 80.8794 149.203 80.3701C149.744 80.3064 151.177 80.2109 152.482 79.2559C153.914 78.2054 154.551 76.7093 155.251 74.3536C156.334 70.8201 156.875 67.9869 157.161 66.5226C158.021 61.8113 158.466 59.4556 158.721 57.4819C159.135 54.1076 159.39 52.0384 159.262 49.1734C159.071 45.3534 158.403 43.3798 158.148 42.6794C157.384 40.7376 156.461 39.3051 155.761 38.3501Z" fill="white"/>
<path d="M111.512 78.7148C112.563 79.9244 112.913 81.4843 112.499 83.0123C112.467 83.1714 112.69 83.2351 112.722 83.0759C113.167 81.4524 112.785 79.7971 111.671 78.5556C111.608 78.4283 111.417 78.5874 111.512 78.7148Z" fill="#202124"/>
<path d="M113.104 83.9991C119.184 84.0627 125.296 83.8717 131.376 83.3942C137.011 82.9804 142.741 82.5029 148.153 80.7521C148.312 80.7202 148.248 80.4656 148.089 80.5292C142.518 82.3437 136.565 82.7894 130.74 83.2032C124.851 83.6171 118.961 83.8081 113.072 83.7444C112.945 83.7762 112.945 83.9991 113.104 83.9991Z" fill="#202124"/>
<path d="M157.352 41.1197C160.185 47.6773 159.039 55.1263 157.861 61.9387C157.288 65.3448 156.556 68.7192 155.697 72.0617C155.251 73.7807 154.933 75.7862 154.073 77.346C153.182 78.9058 151.558 79.638 149.967 80.3383C149.839 80.402 149.935 80.593 150.094 80.5293C151.367 79.9882 152.736 79.4152 153.691 78.3328C154.678 77.1868 154.996 75.627 155.41 74.1945C156.524 70.1835 157.416 66.1088 158.116 62.0023C159.294 55.1263 160.44 47.6137 157.575 40.9923C157.479 40.8332 157.288 40.9605 157.352 41.1197Z" fill="#202124"/>
<path d="M112.149 78.6193C120.839 76.6456 129.434 74.3536 137.966 71.807C138.125 71.7751 138.061 71.5205 137.902 71.5841C129.371 74.1626 120.776 76.4228 112.085 78.3965C111.958 78.3965 112.021 78.6511 112.149 78.6193Z" fill="#202124"/>
<path d="M152.227 43.5707C149.33 51.72 146.211 59.8057 142.9 67.7959C142.836 67.9232 143.059 67.9869 143.123 67.8595C146.433 59.8694 149.521 51.7837 152.45 43.6344C152.514 43.4752 152.259 43.4115 152.227 43.5707Z" fill="#202124"/>
<path d="M111.767 83.6489C110.653 84.8586 109.061 84.5721 107.724 83.8399C107.215 83.5534 106.61 82.8849 105.973 82.8213C104.764 82.7258 103.076 84.3174 102.185 84.9859C102.058 85.0814 102.185 85.2724 102.312 85.1769C103.108 84.6039 104.286 83.5216 105.241 83.2988C106.514 82.9804 107.406 84.0946 108.488 84.4766C109.73 84.9223 111.003 84.7949 111.926 83.8081C112.053 83.7126 111.894 83.5534 111.767 83.6489Z" fill="#202124"/>
<path d="M109.188 78.3965C107.406 77.6325 105.145 76.5501 103.204 77.2823C101.134 78.0781 99.1608 79.4788 97.9829 81.357C97.8874 81.4843 98.1103 81.6116 98.1739 81.4843C99.1926 79.8608 100.752 78.7466 102.471 77.8871C104.7 76.773 106.896 77.6643 109.061 78.5875C109.22 78.6511 109.347 78.4601 109.188 78.3965Z" fill="#202124"/>
<path d="M98.5877 82.2483C99.5427 81.0068 100.816 80.1154 102.344 79.6698C102.503 79.6379 102.44 79.3833 102.28 79.4469C100.721 79.8926 99.3836 80.8158 98.3967 82.1209C98.2694 82.2483 98.4922 82.3756 98.5877 82.2483Z" fill="#202124"/>
<path d="M99.5109 82.9485C100.498 81.898 101.676 81.134 103.044 80.6565C103.204 80.5929 103.14 80.37 102.981 80.4337C101.58 80.9112 100.37 81.707 99.3517 82.7893C99.2562 82.8848 99.4154 83.044 99.5109 82.9485Z" fill="#202124"/>
<path d="M100.371 84.0309C101.357 83.044 102.503 82.3119 103.84 81.8981C104 81.8662 103.936 81.6115 103.777 81.6752C102.408 82.089 101.198 82.8212 100.211 83.8399C100.084 83.9672 100.243 84.1264 100.371 84.0309Z" fill="#202124"/>
<path d="M135.578 32.3974C135.483 32.4292 135.101 32.5247 134.942 32.843C134.751 33.2569 135.037 33.7025 135.165 33.8935C135.547 34.4665 136.12 34.6575 136.311 34.7212C137.138 34.9759 137.87 34.6894 138.284 34.5302C139.335 34.1482 139.876 33.416 140.099 33.1295C140.29 32.8749 140.449 32.652 140.576 32.3337C140.831 31.5379 140.672 30.5192 140.258 30.2009C139.589 29.5961 137.679 30.4556 135.578 32.3974Z" fill="white"/>
<path d="M135.546 32.4608C135.769 32.7155 135.992 33.002 136.215 33.2567C136.31 33.384 136.469 33.193 136.374 33.0975C136.151 32.8428 135.928 32.5563 135.705 32.3017C135.61 32.1743 135.419 32.3653 135.546 32.4608Z" fill="#202124"/>
<path d="M134.846 32.8111C134.783 34.0208 135.738 34.8485 136.915 34.9121C138.539 35.0076 139.78 33.7025 140.735 32.5883C140.831 32.461 140.672 32.3018 140.576 32.4291C140.003 33.1295 139.367 33.8298 138.571 34.2436C137.329 34.944 134.942 34.8803 135.069 32.8111C135.069 32.6838 134.846 32.6838 134.846 32.8111Z" fill="#202124"/>
<path d="M128.193 23.3567C128.193 23.5477 128.225 24.1843 128.288 24.7255C128.352 25.585 128.416 26.0943 128.575 26.731C128.861 27.8452 129.275 28.6092 129.371 28.7684C129.944 29.7552 130.58 30.36 130.835 30.5828C131.886 31.506 132.936 31.888 133.254 32.0153C133.509 32.1108 134.4 32.3655 135.546 32.3655C136.056 32.3655 137.679 32.3337 139.303 31.2832C140.767 30.36 141.436 29.1504 142.009 28.1317C142.741 26.7947 143.377 25.6487 143.218 24.1525C143.027 22.5927 142.072 21.574 141.531 21.0328C139.748 19.1547 137.456 18.7727 136.915 18.709C132.49 18.1042 128.225 21.4785 128.193 23.3567Z" fill="white"/>
<path d="M147.866 21.2556C145.988 24.6618 141.468 25.9351 137.966 25.1075C132.554 23.866 130.931 18.0723 130.421 16.1304C130.135 15.0481 129.435 12.5333 130.581 11.5465C131.631 10.6551 133.095 11.9603 135.61 11.7056C139.207 11.3555 139.908 8.36312 142.104 8.42678C145.51 8.55412 150.795 15.9076 147.866 21.2556Z" fill="#202124"/>
<path d="M128.225 23.9296C124.818 23.5476 124.182 22.6562 124.054 22.1787C123.609 20.4597 127.652 17.7539 130.803 16.6397C133 15.8439 134.719 15.8121 135.546 15.8439C136.883 15.8757 138.57 15.9394 140.194 17.0535C141.531 17.9767 142.168 19.1227 142.422 19.6321C143.473 21.5421 143.409 23.3884 143.345 24.1842C143.154 24.1842 142.804 24.1842 142.39 24.3116C141.372 24.6617 141.213 25.4894 140.098 26.2852C139.685 26.5717 139.207 26.9219 138.539 27.0174C137.265 27.1766 136.183 26.317 135.705 25.935C134.114 24.6617 134.4 23.6749 132.872 22.5925C132.331 22.2105 131.503 21.6375 130.517 21.7967C129.02 21.9559 128.288 23.7386 128.225 23.9296Z" fill="#202124"/>
<path d="M128.289 24.9802C128.289 28.5455 130.772 31.8881 134.401 32.4292C137.839 32.9386 141.436 30.933 142.359 27.5269C142.391 27.3677 142.168 27.3041 142.136 27.4632C141.181 30.9012 137.425 32.8431 134.019 32.1109C130.708 31.4106 128.511 28.259 128.543 24.9802C128.543 24.821 128.289 24.821 128.289 24.9802Z" fill="#202124"/>
<path d="M128.256 23.5159C128.989 22.0834 130.612 21.4149 132.108 22.1471C133 22.5927 133.668 23.4841 134.241 24.2481C134.91 25.1394 135.61 26.0944 136.597 26.6674C137.488 27.1767 138.475 27.2404 139.398 26.7947C140.544 26.2536 141.849 23.7387 143.218 24.2799C143.345 24.3436 143.409 24.1207 143.282 24.0571C141.881 23.5159 141.276 24.9802 140.417 25.8079C137.838 28.2591 135.769 25.7761 134.177 23.7706C132.554 21.7332 129.562 20.4917 128.065 23.4204C127.97 23.5477 128.193 23.6751 128.256 23.5159Z" fill="#202124"/>
<path d="M128.32 23.484C128.798 19.4094 131.949 15.8759 136.247 15.9077C140.894 15.9395 143.123 19.9824 143.25 24.1525C143.25 24.3117 143.505 24.3117 143.505 24.1525C143.377 19.855 141.054 15.7167 136.279 15.653C131.854 15.6212 128.607 19.282 128.097 23.484C128.066 23.6432 128.288 23.6432 128.32 23.484Z" fill="#202124"/>
<path d="M130.549 27.2083C130.771 28.5453 131.09 30.0415 132.459 30.6145C132.586 30.6782 132.713 30.4554 132.586 30.4235C131.281 29.8505 130.994 28.418 130.803 27.1447C130.74 26.9855 130.517 27.0492 130.549 27.2083Z" fill="#202124"/>
<path d="M133.776 28.8923C133.965 28.8525 134.072 28.5969 134.014 28.3219C133.955 28.0465 133.755 27.8558 133.566 27.8956C133.377 27.9357 133.27 28.191 133.328 28.4664C133.386 28.7414 133.587 28.9324 133.776 28.8923Z" fill="#202124"/>
<path d="M132.618 26.349C132.777 26.158 133 25.9988 133.254 25.967C133.573 25.9033 133.827 26.0943 134.082 26.2535C134.209 26.349 134.337 26.1261 134.209 26.0625C133.923 25.8396 133.636 25.6805 133.286 25.7123C132.968 25.7441 132.681 25.9351 132.459 26.1898C132.363 26.2853 132.522 26.4763 132.618 26.349Z" fill="#202124"/>
<path d="M129.116 26.6672C129.339 26.3488 129.785 26.3807 130.008 26.699C130.103 26.8264 130.294 26.699 130.199 26.5717C129.88 26.0942 129.212 26.0942 128.893 26.5399C128.798 26.6672 129.021 26.7945 129.116 26.6672Z" fill="#202124"/>
<path d="M130.27 29.2463C130.441 29.21 130.537 28.9716 130.483 28.7135C130.428 28.4556 130.244 28.2757 130.073 28.312C129.9 28.3483 129.805 28.5871 129.86 28.8449C129.914 29.1031 130.098 29.2826 130.27 29.2463Z" fill="#202124"/>
<path d="M134.528 15.8757C134.782 15.6847 136.31 14.5706 138.252 15.0162C140.067 15.4301 141.499 17.0536 141.786 19.0909C141.308 18.4861 140.353 17.4356 138.793 16.7034C136.947 15.8121 135.292 15.8121 134.528 15.8757Z" fill="white"/>
<path d="M130.994 121.753C130.58 122.072 128.67 123.472 125.996 123.154C123.895 122.899 122.527 121.722 122.081 121.308L120.68 109.625H132.522C132.013 113.668 131.504 117.711 130.994 121.753Z" fill="#202124"/>
<path d="M126.569 115.1C129.84 115.1 132.49 112.92 132.49 110.23C132.49 107.54 129.84 105.359 126.569 105.359C123.3 105.359 120.648 107.54 120.648 110.23C120.648 112.92 123.3 115.1 126.569 115.1Z" fill="white" stroke="#202124" stroke-width="0.23875" stroke-miterlimit="10"/>
<path d="M137.488 80.3701C136.947 87.0869 131.536 91.5754 128.257 96.9871C125.487 101.571 124.15 107.269 126.188 112.363C126.315 112.649 126.761 112.522 126.633 112.235C124.246 106.219 126.601 99.8839 130.199 94.8861C133.446 90.3976 137.488 86.1319 137.966 80.3383C137.998 80.0518 137.52 80.0517 137.488 80.3701Z" fill="#FFCA9D"/>
<path d="M127.047 100.457C128.67 96.5733 128.161 92.9443 126.633 89.1243C124.946 84.9542 125.01 80.6248 127.588 76.773C127.747 76.5183 127.333 76.2637 127.174 76.5183C125.169 79.5107 124.437 83.2033 125.296 86.705C125.805 88.806 126.983 90.716 127.397 92.8488C127.906 95.3637 127.556 97.9422 126.601 100.298C126.474 100.616 126.951 100.712 127.047 100.457Z" fill="#FFCA9D"/>
<path d="M122.686 75.5633C123.259 76.7729 122.495 78.5874 122.399 79.8926C122.335 80.9749 122.399 82.0891 122.686 83.1714C123.163 84.9541 124.15 86.4821 125.614 87.6281C125.869 87.8191 126.187 87.4689 125.964 87.2779C123.927 85.6863 122.94 83.3306 122.877 80.7839C122.845 79.0331 123.927 76.9958 123.131 75.3404C122.972 75.0539 122.558 75.3086 122.686 75.5633Z" fill="#FFCA9D"/>
<path d="M122.877 78.3646C122.463 77.0276 122.145 75.245 122.336 73.1758C122.813 68.2416 125.933 64.8355 127.365 63.4348C127.843 64.7718 128.32 66.7455 128.034 69.0693C127.524 73.9716 124.214 77.2186 122.877 78.3646Z" fill="#FFCA9D"/>
<path d="M127.079 90.8751C126.919 90.0156 126.792 88.7423 126.983 87.2461C127.079 86.4503 127.27 85.0815 128.034 83.5535C128.957 81.739 130.262 80.593 131.121 79.9563C131.217 81.1341 131.249 83.2988 130.389 85.75C129.434 88.3285 127.938 90.0156 127.079 90.8751Z" fill="#FFCA9D"/>
<path d="M126.028 79.1923C126.124 78.2055 126.442 76.1045 127.906 74.0035C129.498 71.7115 131.535 70.6292 132.459 70.2153C132.331 71.234 131.917 73.4305 130.326 75.627C128.798 77.6962 126.951 78.7467 126.028 79.1923Z" fill="#FFCA9D"/>
<path d="M125.551 105.105C124.914 104.341 124.023 103.099 123.45 101.348C122.463 98.2287 123.195 95.5228 123.545 94.5042C124.023 95.2045 124.5 96.064 124.914 97.0826C126.251 100.393 125.901 103.481 125.551 105.105Z" fill="#FFCA9D"/>
<path d="M129.052 96.1596C129.498 95.6502 130.994 94.0586 133.573 93.5492C136.31 93.0081 138.411 94.0904 138.984 94.4087C138.475 94.9181 136.469 96.8917 133.318 97.0509C131.344 97.1782 129.784 96.5416 129.052 96.1596Z" fill="#FFCA9D"/>
<path d="M133.828 80.8477C133.35 81.7072 132.172 84.1265 132.809 87.1188C133.032 88.2012 133.446 89.0607 133.828 89.6973C134.241 89.0288 135.005 87.5327 135.037 85.4953C135.101 83.2033 134.241 81.548 133.828 80.8477Z" fill="#FFCA9D"/>
</g>
</g>
<defs>
<clipPath id="clip0_481_11553">
<rect width="191" height="191" fill="white" transform="translate(0 -65.9995)"/>
</clipPath>
</defs>
</svg>
