<svg width="191" height="191" viewBox="0 0 191 191" fill="none" xmlns="http://www.w3.org/2000/svg">
<path d="M177.471 168.431C176.166 169.672 174.829 170.882 173.524 172.123C148.343 172.505 123.163 172.919 97.9831 173.301C81.1751 126.602 64.3671 79.9022 47.5591 33.1709C48.8642 31.9294 50.2013 30.7198 51.5064 29.4783C77.8326 25.4991 104.159 21.5199 130.485 17.5408L177.471 168.431Z" fill="#202124" stroke="#202124" stroke-width="0.23875" stroke-miterlimit="10"/>
<path d="M173.524 172.123L94.0357 177.026L47.5591 33.1708L126.538 21.2334L173.524 172.123Z" fill="white" stroke="#202124" stroke-width="0.23875" stroke-miterlimit="10"/>
<path d="M89.4198 144.078C90.5802 144.078 91.5209 143.138 91.5209 141.977C91.5209 140.817 90.5802 139.876 89.4198 139.876C88.2595 139.876 87.3188 140.817 87.3188 141.977C87.3188 143.138 88.2595 144.078 89.4198 144.078Z" fill="#B1CEFC"/>
<path d="M95.9454 165.979C97.1411 165.979 98.1101 165.01 98.1101 163.815C98.1101 162.619 97.1411 161.65 95.9454 161.65C94.7501 161.65 93.7808 162.619 93.7808 163.815C93.7808 165.01 94.7501 165.979 95.9454 165.979Z" fill="#B1CEFC"/>
<path d="M93.7808 140.608L143.345 133.7" stroke="#202124" stroke-width="0.318333" stroke-miterlimit="10"/>
<path d="M94.4175 143.06L138.029 137.17" stroke="#202124" stroke-width="0.318333" stroke-miterlimit="10"/>
<path d="M98.8423 158.212L155.633 149.936" stroke="#202124" stroke-width="0.318333" stroke-miterlimit="10"/>
<path d="M100.371 161.65L154.806 154.074" stroke="#202124" stroke-width="0.318333" stroke-miterlimit="10"/>
<path d="M101.58 165.98L125.391 163.115" stroke="#202124" stroke-width="0.318333" stroke-miterlimit="10"/>
<path d="M130.421 162.414L155.283 159.04" stroke="#202124" stroke-width="0.318333" stroke-miterlimit="10"/>
<path d="M127.238 140.99L144.778 138.38" stroke="#202124" stroke-width="0.318333" stroke-miterlimit="10"/>
<path d="M85.3451 129.626C84.8039 129.498 83.2122 129.053 82.1936 127.588C81.4296 126.442 80.9202 124.628 81.6206 124.119C82.1299 123.737 83.2441 124.214 84.2946 125.042C84.8994 123.8 85.7589 123.004 86.3956 123.132C87.1914 123.323 87.4142 125.042 87.3187 126.06C87.1277 127.97 85.8226 129.212 85.3451 129.626Z" fill="#FFCA9D"/>
<path d="M142.199 117.816C142.772 118.93 142.932 120.108 143.441 121.222C143.505 121.381 143.696 121.445 143.855 121.445C144.969 121.477 146.242 120.967 147.325 120.713C148.598 120.394 149.967 120.171 151.24 119.758C152.864 119.216 151.845 116.988 151.686 115.651C151.59 115.046 150.699 115.301 150.763 115.906C150.922 116.988 151.527 118.421 150.412 118.994C149.489 119.471 148.12 119.567 147.102 119.789C146.338 119.98 144.682 120.744 144.109 120.012C143.887 119.758 143.727 118.771 143.6 118.452C143.441 118.07 143.25 117.72 143.059 117.338C142.741 116.765 141.913 117.275 142.199 117.816Z" fill="#FFCA9D"/>
<path d="M145.351 114.887C145.637 115.937 146.019 116.956 146.465 117.943C146.72 118.516 147.547 118.007 147.293 117.465C146.879 116.542 146.529 115.619 146.274 114.664C146.083 114.027 145.192 114.282 145.351 114.887Z" fill="#FFCA9D"/>
<path d="M144.428 117.02C144.937 117.434 145.446 117.847 145.956 118.261C146.274 118.516 146.688 118.802 147.134 118.611C147.547 118.452 147.707 117.943 147.866 117.561C148.12 116.956 148.343 116.319 148.502 115.683C148.662 115.078 147.738 114.823 147.579 115.428C147.484 115.81 147.388 116.16 147.261 116.542C147.197 116.701 146.943 117.656 146.752 117.72C146.752 117.72 146.21 117.243 146.115 117.147C145.797 116.892 145.446 116.606 145.128 116.351C144.651 115.969 143.95 116.638 144.428 117.02Z" fill="#FFCA9D"/>
<path d="M136.056 120.84C136.692 121.667 137.361 122.495 137.997 123.291C136.851 123.004 135.705 122.718 134.559 122.431C134.209 122.654 133.636 122.941 132.904 122.973C131.281 123.004 129.562 121.636 129.434 119.885C129.275 117.752 131.535 116.033 133.509 116.256C134.814 116.415 136.247 117.434 136.469 118.93C136.597 119.789 136.247 120.49 136.056 120.84Z" fill="#FFCA9D"/>
<path d="M151.591 112.468L80.3793 122.623L52.2705 35.6539C60.9928 34.4443 69.747 33.2028 78.4693 31.9931C78.6603 32.6616 78.8513 33.3619 79.0423 34.0304C84.4222 33.1391 89.802 32.2478 95.1818 31.3564C94.9908 30.5924 94.7998 29.8603 94.6088 29.0963C104.605 27.7911 114.568 26.4541 124.564 25.1489C133.605 54.2446 142.614 83.3403 151.591 112.468Z" fill="white" stroke="#202124" stroke-width="0.23875" stroke-miterlimit="10"/>
<path d="M80.6654 33.0117C83.0848 32.5661 85.5041 32.1204 87.9235 31.7384C88.5283 31.6429 88.2736 30.7198 87.6688 30.8153C85.2494 31.2291 82.8301 31.6429 80.4108 32.0886C79.8059 32.2159 80.0606 33.1072 80.6654 33.0117Z" fill="#202124"/>
<path d="M91.9028 31.1652C92.5077 31.1652 92.5077 30.2102 91.9028 30.2102C91.298 30.2102 91.298 31.1652 91.9028 31.1652Z" fill="#202124"/>
<path d="M95.5002 43.1983C105.05 41.6703 114.6 40.1423 124.15 38.6461C124.755 38.5506 124.5 37.6275 123.896 37.723C114.346 39.251 104.796 40.779 95.2455 42.2752C94.6407 42.4025 94.9272 43.2938 95.5002 43.1983Z" fill="#B1CEFC"/>
<path d="M96.7414 45.8404C99.9247 45.4903 103.044 45.0128 106.164 44.3761C106.769 44.2488 106.514 43.3256 105.909 43.4529C102.853 44.0578 99.7974 44.5353 96.7095 44.8854C96.1365 44.9491 96.1365 45.9041 96.7414 45.8404Z" fill="#B1CEFC"/>
<path d="M96.8691 49.5332C105.751 48.3236 114.6 46.8911 123.418 45.2357C124.023 45.1084 123.768 44.2171 123.163 44.3126C114.346 45.9679 105.496 47.4004 96.6144 48.6101C96.0096 48.7056 96.2642 49.5969 96.8691 49.5332Z" fill="#B1CEFC"/>
<path d="M105.05 30.4649C110.875 29.8282 116.669 28.9687 122.431 27.8864C123.036 27.759 122.781 26.8359 122.176 26.9632C116.51 28.0455 110.812 28.8732 105.05 29.5099C104.445 29.5735 104.445 30.5285 105.05 30.4649Z" fill="#B1CEFC"/>
<path d="M68.0913 60.8021C72.1978 65.5453 76.3362 70.2566 80.4427 74.9998C73.885 73.4399 67.3592 71.8483 60.8015 70.2884C58.796 71.5936 55.3898 73.3763 51.0923 73.5036C41.5423 73.7583 30.8782 65.7363 30.146 54.8811C29.3183 42.2433 42.3063 31.4836 54.0528 33.6164C62.3613 35.1444 69.2055 42.9754 69.874 51.3794C70.2242 55.4541 69.0463 58.8284 68.0913 60.8021Z" fill="white" stroke="#202124" stroke-width="0.23875" stroke-miterlimit="10"/>
<path d="M34.4756 33.9665C30.8467 29.0961 27.3131 24.1301 23.8751 19.0686C23.525 18.5592 22.6973 19.0367 23.0475 19.5461C26.4855 24.5757 29.9871 29.5417 33.6161 34.444C33.9981 34.9534 34.8258 34.4759 34.4756 33.9665Z" fill="#B1CEFC"/>
<path d="M25.626 44.0577C21.5513 43.0709 17.4767 41.9567 13.4657 40.7471C12.8608 40.5561 12.638 41.4792 13.211 41.6702C17.222 42.9117 21.2967 43.9941 25.3713 44.9809C25.9762 45.1401 26.2308 44.2169 25.626 44.0577Z" fill="#B1CEFC"/>
<path d="M13.4017 67.6782C17.3172 65.8 21.1054 63.6672 24.7344 61.2797C25.2437 60.9295 24.7662 60.1019 24.2569 60.452C20.6279 62.8395 16.8715 65.0042 12.9242 66.8505C12.3512 67.137 12.8287 67.9329 13.4017 67.6782Z" fill="#B1CEFC"/>
<path d="M34.6665 75.6046C32.9157 79.7429 31.0693 83.8176 29.1912 87.8923C28.9365 88.4334 29.7642 88.9428 30.0188 88.3698C31.897 84.2951 33.7433 80.1886 35.4942 76.0821C35.717 75.5091 34.9212 75.0316 34.6665 75.6046Z" fill="#B1CEFC"/>
<path d="M56.0265 48.5462C56.2175 48.0369 56.3449 47.4639 56.3449 46.8591C56.3449 44.2169 54.212 42.0522 51.538 42.0522C48.8959 42.0522 46.7312 44.1851 46.7312 46.8591C46.7312 48.2597 47.336 49.5331 48.3229 50.4244C48.1319 50.5836 47.9727 50.6791 47.8772 50.7427C44.5665 53.3531 43.0067 57.8416 43.8344 62.3619C51.0287 60.6747 58.1912 59.0194 65.3855 57.3322C63.953 52.6209 60.2922 49.2147 56.0265 48.5462Z" fill="#FFCA9D"/>
<path d="M34.73 55.8043L40.6191 53.6396" stroke="#202124" stroke-width="0.955" stroke-miterlimit="10"/>
<path d="M36.3218 51.1248L39.0276 57.9053" stroke="#202124" stroke-width="0.955" stroke-miterlimit="10"/>
<path d="M55.7399 92.349C55.6126 92.158 55.4216 91.8396 55.1988 91.4895C54.8486 90.8846 54.6894 90.5026 54.0846 89.1656C53.7344 88.4016 53.3524 87.574 52.6203 86.8418C52.4611 86.6826 52.2701 86.4916 52.1109 86.5553C51.8244 86.6508 51.8563 87.4466 51.9199 88.1151C51.9518 88.3061 51.9836 88.5926 51.8244 88.8473C51.5698 89.2611 51.0604 89.1338 50.2328 89.5476C49.8826 89.7386 49.3414 90.0251 49.1823 90.5345C49.0868 90.9165 49.2141 91.2348 49.3414 91.5531C49.6279 92.2216 49.9144 92.2216 50.2646 92.922C50.5193 93.4631 50.4556 93.6223 50.6784 93.8133C50.8694 93.9725 51.0923 94.0043 51.7926 94.068C52.2064 94.0998 52.6521 94.1316 53.1933 94.1635C53.4479 94.5455 53.7344 94.8956 53.9891 95.2776C54.6258 94.3226 55.1988 93.3358 55.7399 92.349Z" fill="white"/>
<path d="M85.5042 83.0537C85.4724 83.1174 83.244 86.2689 83.1804 86.3326C79.1375 92.0307 78.9147 92.3809 78.6919 92.6992C77.1002 94.9276 74.6809 98.2382 71.02 102.727C70.0014 102.249 68.9509 101.708 67.9004 101.135C62.9344 98.4292 58.8597 95.2777 55.5809 92.2217C55.358 92.3809 54.5622 93.0175 54.2757 94.1954C54.021 95.2459 54.3394 96.0736 54.4667 96.3601C56.3449 98.5884 57.9684 100.498 59.178 101.963C63.5392 107.088 63.3482 106.865 63.4119 106.929C64.4305 108.329 65.0672 109.348 66.4679 110.462C67.2955 111.131 68.2187 111.863 69.5557 112.181C71.4657 112.627 73.121 111.99 74.84 111.29C75.413 111.067 76.75 110.494 79.6787 108.425C82.0344 106.801 83.817 105.56 85.918 103.459C87.0004 102.377 88.4647 100.912 89.8972 98.6839C91.8709 95.6597 93.5262 93.0812 93.0805 90.248C92.3165 85.4412 85.9817 83.2129 85.5042 83.0537Z" fill="url(#paint0_linear_481_11471)"/>
<path d="M85.4086 82.9901C80.761 89.5796 76.3998 96.6466 70.9245 102.631C70.829 102.759 70.9881 102.918 71.0836 102.79C76.559 96.8058 80.9201 89.7069 85.5996 83.0856C85.6951 82.9901 85.4723 82.8628 85.4086 82.9901Z" fill="#202124"/>
<path d="M70.893 102.631C65.4495 99.8299 60.388 96.3601 55.8359 92.2536C55.7085 92.1581 55.5494 92.3172 55.6767 92.4127C60.2289 96.5192 65.3222 100.021 70.7975 102.822C70.9249 102.886 71.0204 102.695 70.893 102.631Z" fill="#202124"/>
<path d="M55.5174 92.2853C54.5305 93.0175 53.9575 94.0998 53.9575 95.3413C53.9575 95.5005 54.1804 95.5005 54.2122 95.3413C54.244 94.1953 54.7534 93.1767 55.6765 92.5082C55.772 92.3808 55.6447 92.1898 55.5174 92.2853Z" fill="#202124"/>
<path d="M54.7851 96.9649C58.0957 100.912 61.3109 104.923 64.6852 108.807C67.3592 111.895 70.3834 113.295 74.3307 111.608C77.8961 110.112 81.3022 107.629 84.2309 105.114C87.2551 102.504 89.8336 99.4479 91.6162 95.8507C91.6799 95.7234 91.4889 95.5961 91.4252 95.7234C88.1464 102.408 81.8116 107.565 75.2539 110.908C72.9619 112.054 70.3834 112.722 67.9959 111.417C66.2769 110.462 65.0354 108.871 63.7939 107.374C60.8334 103.841 57.9047 100.307 54.9442 96.7739C54.8487 96.6784 54.6577 96.8694 54.7851 96.9649Z" fill="#202124"/>
<path d="M55.6445 92.1581C55.1352 90.9166 54.5622 89.7069 53.8937 88.5291C53.448 87.7014 53.066 86.8101 52.1747 86.3963C52.111 86.3644 52.0155 86.3963 51.9837 86.4599C51.6653 87.2876 51.6972 88.0834 52.111 88.8793C52.1747 89.0066 52.3975 88.9111 52.302 88.7519C52.0473 88.2744 51.6653 86.0143 52.6522 87.0648C53.1297 87.5741 53.448 88.1789 53.7663 88.8156C54.3712 89.9298 54.9123 91.0758 55.3898 92.2536C55.5172 92.4446 55.7082 92.3173 55.6445 92.1581Z" fill="#202124"/>
<path d="M51.4428 88.8473C50.5833 89.1657 49.0234 89.8023 49.0234 90.9483C49.0234 92.1262 50.2968 91.9033 50.9653 91.4895C51.0926 91.4258 50.9653 91.203 50.8379 91.2985C50.5196 91.4895 50.1058 91.7123 49.7238 91.585C49.0553 91.394 49.1826 90.63 49.5646 90.2162C50.0421 89.675 50.8379 89.3248 51.5064 89.0702C51.6656 89.0383 51.6019 88.8155 51.4428 88.8473Z" fill="#202124"/>
<path d="M50.2328 90.9482C50.7103 90.6935 51.2515 90.6299 51.7608 90.789C51.92 90.8209 51.9836 90.598 51.8245 90.5662C51.2515 90.3752 50.6466 90.4389 50.1055 90.7254C49.9781 90.8209 50.1055 91.0119 50.2328 90.9482Z" fill="#202124"/>
<path d="M49.8511 92.3809C50.7106 92.8266 51.4746 92.2217 52.1112 91.6806C52.2386 91.5851 52.0476 91.3941 51.9521 91.5214C51.4109 91.9989 50.7424 92.6037 49.9784 92.1899C49.8511 92.1262 49.7238 92.3172 49.8511 92.3809Z" fill="#202124"/>
<path d="M50.2649 93.0492C50.9652 93.3994 51.8247 93.1447 52.2385 92.4762C52.334 92.3489 52.1112 92.2216 52.0475 92.3489C51.6974 92.8901 50.997 93.1129 50.424 92.8264C50.2649 92.7946 50.1375 92.9855 50.2649 93.0492Z" fill="#202124"/>
<path d="M50.647 93.9088C50.838 94.259 51.1882 94.3863 51.5702 94.3226C52.0477 94.2589 52.3978 93.8769 52.6843 93.5268C52.7798 93.3994 52.6207 93.2403 52.5252 93.3676C52.175 93.7814 51.2837 94.6091 50.8698 93.8133C50.7743 93.6541 50.5833 93.7815 50.647 93.9088Z" fill="#202124"/>
<path d="M85.2496 83.0855C85.1541 83.6585 85.0586 84.3589 85.0586 85.091C85.0586 86.8419 85.4406 88.2744 85.7908 89.2612C86.2364 90.63 86.8731 92.54 87.6689 94.8002C88.3693 96.8057 90.5021 102.695 93.7173 110.399C94.7678 112.913 96.1366 116.097 97.8238 119.758C104.923 118.707 112.021 117.657 119.12 116.606C118.579 114.41 118.006 112.245 117.465 110.017C114.855 99.5115 112.467 89.1339 110.271 78.8835C109.602 78.979 108.583 79.1382 107.374 79.2974C103.649 79.8385 99.0334 80.5389 93.5899 81.5257C91.4571 81.8759 88.6239 82.417 85.2496 83.0855Z" fill="url(#paint1_linear_481_11471)"/>
<path d="M85.6954 89.2929C88.9742 99.193 92.7942 108.87 97.1236 118.357C97.1872 118.484 97.3782 118.389 97.3146 118.229C92.9852 108.775 89.1971 99.0975 85.9182 89.2292C85.8546 89.1019 85.6317 89.1337 85.6954 89.2929Z" fill="#202124"/>
<path d="M85.2496 83.2128C93.2716 81.6848 101.294 80.3478 109.379 79.2018C109.538 79.1699 109.475 78.9471 109.316 78.9789C101.23 80.1249 93.2079 81.4619 85.1859 82.9899C85.0268 82.9899 85.0904 83.2446 85.2496 83.2128Z" fill="#202124"/>
<path d="M110.716 81.0164C113.168 91.7124 115.619 102.408 118.07 113.073C118.102 113.232 118.325 113.168 118.293 113.009C115.842 102.313 113.39 91.6169 110.939 80.9527C110.907 80.8254 110.685 80.889 110.716 81.0164Z" fill="#202124"/>
<path d="M104.063 118.675C103.649 118.739 103.745 118.898 102.63 119.566C101.612 120.171 101.134 120.299 100.307 120.967C99.8292 121.381 99.6382 121.636 99.5745 121.954C99.479 122.431 99.7018 122.813 99.8292 123.004C99.67 123.45 99.479 124.214 99.5108 125.169C99.5427 126.029 99.7655 126.729 99.9883 127.238C100.116 127.525 101.039 129.721 102.249 129.626C102.726 129.594 103.076 129.212 103.14 129.148C103.49 128.766 103.394 128.416 103.617 127.748C103.745 127.397 103.999 127.015 104.54 126.283C105.304 125.233 105.305 125.328 105.718 124.723C106.037 124.214 106.514 123.482 106.769 122.431C106.928 121.795 107.023 121.381 106.928 120.903C106.641 119.63 105.177 118.516 104.063 118.675Z" fill="white"/>
<path d="M103.267 81.2074C103.713 80.3161 104.541 79.6794 106.164 78.3424C107.819 77.0054 108.679 76.3369 109.889 76.1778C111.767 75.9549 113.263 76.9736 113.836 77.3556C115.077 78.2151 115.746 79.2656 116.574 80.6981C118.038 83.3084 118.961 85.3139 120.043 87.8288C121.794 91.8716 121.444 90.9166 122.495 93.3996C123.577 95.9781 124.691 98.6203 125.933 102.09C126.76 104.35 127.747 107.343 128.766 110.876C128.352 111.258 127.62 111.863 126.697 112.563C125.391 113.55 123.577 114.76 114.695 118.898C113.518 119.471 112.276 120.012 110.716 120.713C109.252 121.349 107.883 121.922 106.705 122.368C106.705 121.986 106.61 121.477 106.387 120.935C105.718 119.407 104.286 118.834 103.904 118.707C105.114 117.561 106.323 116.447 107.501 115.301C110.398 112.531 113.295 109.762 116.16 107.024C115.332 105.56 114.504 104.064 113.613 102.599C110.748 97.6652 107.788 92.9539 104.859 88.4973C104.541 88.0516 101.803 84.1679 103.267 81.2074Z" fill="url(#paint2_linear_481_11471)"/>
<path d="M103.363 81.3029C104.604 79.8386 106.037 78.5016 107.66 77.4192C109.952 75.8912 112.212 76.0186 114.282 77.8649C116.924 80.2524 118.261 84.1679 119.693 87.3194C123.099 94.7366 126.06 102.377 128.638 110.112C128.702 110.271 128.925 110.208 128.861 110.048C125.901 101.135 122.399 92.4128 118.356 83.9451C116.956 81.0164 115.332 77.2601 111.926 76.2096C108.552 75.1591 105.114 78.8199 103.172 81.1119C103.076 81.2393 103.235 81.4302 103.363 81.3029Z" fill="#202124"/>
<path d="M105.623 89.8023C109.157 95.2776 112.531 100.848 115.746 106.515C115.81 106.642 116.033 106.515 115.937 106.387C112.722 100.721 109.348 95.1503 105.814 89.675C105.75 89.5476 105.528 89.6431 105.623 89.8023Z" fill="#202124"/>
<path d="M119.534 103.522C114.505 108.711 109.348 113.773 103.968 118.58C103.84 118.675 104.031 118.866 104.127 118.739C109.507 113.9 114.664 108.839 119.693 103.682C119.821 103.586 119.63 103.395 119.534 103.522Z" fill="#202124"/>
<path d="M103.904 118.93C105.304 119.407 106.355 120.585 106.61 122.018C106.641 122.177 106.864 122.113 106.832 121.954C106.546 120.426 105.432 119.184 103.936 118.707C103.808 118.643 103.776 118.866 103.904 118.93Z" fill="#202124"/>
<path d="M106.896 122.336C110.875 121.317 114.727 119.153 118.388 117.338C121.953 115.555 125.932 113.836 128.861 111.035C128.957 110.94 128.797 110.749 128.702 110.876C125.805 113.645 121.826 115.364 118.292 117.147C114.663 118.962 110.812 121.126 106.832 122.145C106.673 122.145 106.737 122.4 106.896 122.336Z" fill="#202124"/>
<path d="M103.65 118.93C102.472 119.471 101.294 120.076 100.275 120.84C99.6704 121.286 99.2565 121.89 99.543 122.654C99.6067 122.782 99.8295 122.75 99.7659 122.591C99.3202 121.477 100.785 120.744 101.549 120.299C102.281 119.853 103.013 119.471 103.777 119.121C103.936 119.089 103.809 118.866 103.65 118.93Z" fill="#202124"/>
<path d="M106.61 122.432C106.005 123.896 105.369 124.978 104.414 126.22C103.745 127.111 103.299 128.034 103.013 129.117C102.981 129.276 103.204 129.339 103.236 129.18C103.618 127.684 104.414 126.697 105.337 125.456C106.005 124.564 106.451 123.514 106.865 122.463C106.897 122.336 106.674 122.272 106.61 122.432Z" fill="#202124"/>
<path d="M100.148 121.859C99.4475 123.355 99.2246 124.915 99.4793 126.57C99.5111 126.729 99.734 126.665 99.7021 126.506C99.4793 124.946 99.7021 123.418 100.371 121.986C100.434 121.827 100.211 121.699 100.148 121.859Z" fill="#202124"/>
<path d="M101.103 122.782C100.243 124.564 100.052 126.474 100.562 128.384C100.593 128.543 100.816 128.48 100.784 128.321C100.307 126.474 100.498 124.628 101.294 122.909C101.357 122.75 101.166 122.622 101.103 122.782Z" fill="#202124"/>
<path d="M101.707 124.341C101.039 125.965 101.071 127.684 101.739 129.307C101.803 129.435 101.994 129.339 101.93 129.18C101.262 127.62 101.262 125.965 101.898 124.405C101.994 124.278 101.771 124.214 101.707 124.341Z" fill="#202124"/>
<path d="M102.981 125.233C102.312 126.57 102.153 128.002 102.503 129.435C102.535 129.594 102.758 129.53 102.726 129.371C102.376 128.002 102.535 126.602 103.172 125.328C103.235 125.233 103.044 125.105 102.981 125.233Z" fill="#202124"/>
<path d="M92.4442 77.3874C92.6989 77.069 93.1127 76.6552 93.7175 76.2732C94.1632 75.9867 95.2774 75.3182 96.678 75.5092C97.06 75.5729 98.015 75.7002 98.6835 76.5279C99.2247 77.1964 99.2884 77.9285 99.2884 78.215C99.4794 78.2787 99.8932 78.406 100.243 78.788C100.848 79.4247 100.753 80.2524 100.753 80.4115C100.912 80.316 101.167 80.1569 101.358 79.8704C101.771 79.2974 101.644 78.6289 101.58 78.406C101.517 78.024 101.326 77.5465 100.498 76.7189C99.6385 75.8275 99.4157 75.923 98.588 75.159C97.4102 74.0767 97.4739 73.5355 96.4234 72.8989C96.1369 72.7397 95.723 72.485 95.0864 72.3577C93.9404 72.1667 92.5397 72.485 91.6484 73.5037C91.3619 73.8539 90.6934 74.6179 90.8844 75.6365C91.139 76.8462 92.3487 77.3237 92.4442 77.3874Z" fill="#202124" stroke="#202124" stroke-width="0.23875" stroke-miterlimit="10"/>
<path d="M93.4308 76.4324C93.3353 76.7507 93.2398 77.2282 93.1125 77.7694C93.017 78.3742 92.8897 78.9472 92.9215 79.5839C92.9533 80.2842 92.9533 80.9527 93.3672 81.5894C94.163 82.8627 95.882 83.0537 96.455 83.1174C96.8688 83.1492 97.219 83.1492 97.4737 83.1174C98.0467 83.4676 98.174 83.6586 98.1422 83.7541C98.0785 83.9132 97.6328 83.7859 97.3463 84.0724C97.0598 84.3271 96.9643 84.8364 97.1553 85.091C97.3782 85.4094 97.9193 85.3139 98.3968 85.2184C98.6833 85.1547 99.3518 85.0592 99.9248 84.4862C100.275 84.1679 100.784 83.6586 100.721 82.9901C100.625 82.3216 99.9885 81.9714 99.893 81.9077C100.052 81.8122 100.434 81.5576 100.657 81.0482C100.88 80.5389 100.784 80.0614 100.752 79.8704C100.593 79.1382 100.116 78.7244 99.9248 78.5334C99.702 78.3424 99.4792 78.215 99.32 78.1195C99.32 77.8967 99.2882 77.4829 99.0972 77.0372C98.7788 76.3369 98.2058 75.9867 97.9512 75.8594C97.3463 75.5092 96.8052 75.4774 96.5187 75.4456C95.0225 75.3819 93.8765 76.1141 93.4308 76.4324Z" fill="white"/>
<path d="M92.9536 78.2468C92.6671 80.507 93.0491 82.6398 95.5957 83.1492C97.6331 83.5312 99.7977 82.9263 100.721 80.9208C100.785 80.7935 100.594 80.6661 100.53 80.7935C99.7022 82.608 97.7922 83.2128 95.9141 82.9263C93.3674 82.5443 92.9536 80.4433 93.2401 78.2468C93.2082 78.0876 92.9854 78.0876 92.9536 78.2468Z" fill="#202124"/>
<path d="M95.3725 77.8966C94.9269 78.8516 94.4812 80.0295 95.3089 80.9208C95.4044 81.0163 95.5954 80.8571 95.468 80.7616C94.704 79.9658 95.1497 78.8835 95.5635 78.024C95.659 77.8648 95.4362 77.7375 95.3725 77.8966Z" fill="#202124"/>
<path d="M97.3781 83.2128C97.6009 83.4356 97.8237 83.6266 98.0466 83.8495C98.1421 83.945 98.3331 83.7858 98.2057 83.6903C97.9829 83.4675 97.7601 83.2765 97.5372 83.0536C97.4417 82.9263 97.2826 83.1173 97.3781 83.2128Z" fill="#202124"/>
<path d="M97.219 84.0406C96.6142 84.9001 97.0917 85.6004 98.1422 85.4412C98.7152 85.3457 99.1927 85.0592 99.6065 84.6772C100.052 84.2952 100.657 83.6586 100.784 83.0856C100.816 82.9264 100.593 82.8627 100.561 83.0219C100.37 83.6904 99.5747 84.4862 98.9698 84.8364C98.6515 85.0592 98.2695 85.1866 97.8875 85.2184C97.1553 85.2502 97.0598 84.6454 97.41 84.136C97.5055 84.0087 97.3145 83.9132 97.219 84.0406Z" fill="#202124"/>
<path d="M97.3464 78.597C97.3783 78.5652 97.3783 78.5652 97.4101 78.5334C97.3783 78.5652 97.3464 78.597 97.3464 78.597C97.2828 78.597 97.2828 78.5652 97.2828 78.597C97.2828 78.6607 97.3464 78.597 97.3464 78.597V78.6289C97.3146 78.6607 97.2191 78.5652 97.3146 78.5334C97.3465 78.5334 97.3783 78.5334 97.4101 78.5334C97.4101 78.5334 97.4101 78.5652 97.4419 78.5652C97.4101 78.6289 97.4101 78.6289 97.3464 78.597C97.3783 78.4697 97.1554 78.406 97.1236 78.5652C97.0918 78.7562 97.2509 78.9154 97.4419 78.8835C97.6329 78.8517 97.6966 78.6289 97.6011 78.4697C97.4101 78.1195 96.8371 78.3742 97.0599 78.7562C97.1554 78.8835 97.3464 78.979 97.5056 78.8517C97.6329 78.7562 97.6011 78.5334 97.5056 78.4379C97.2191 78.1832 96.9008 78.7244 97.2191 78.8835C97.3783 78.979 97.5374 78.8199 97.5374 78.6289C97.5374 78.5334 97.5056 78.4697 97.4419 78.406C97.3464 78.3424 97.2828 78.406 97.1873 78.4697C97.0599 78.5334 97.2509 78.7244 97.3464 78.597Z" fill="#202124"/>
<path d="M94.2586 78.4379C94.2904 78.406 94.2904 78.406 94.3222 78.3742C94.2585 78.406 94.2586 78.406 94.2586 78.4379C94.1949 78.4379 94.1949 78.406 94.1949 78.4379C94.1949 78.4697 94.2267 78.4379 94.2586 78.4379C94.2267 78.4379 94.1949 78.3742 94.2586 78.4379V78.4697C94.2267 78.5015 94.1312 78.406 94.2267 78.3742C94.2586 78.3742 94.2904 78.3742 94.3222 78.3742C94.3222 78.3742 94.3222 78.406 94.354 78.406C94.3222 78.4379 94.2904 78.4697 94.2586 78.4379C94.2904 78.3105 94.0675 78.2469 94.0357 78.406C94.0039 78.597 94.163 78.7562 94.354 78.7244C94.545 78.6925 94.6087 78.4697 94.5132 78.3105C94.3222 77.9604 93.7492 78.215 93.9721 78.597C94.0676 78.7244 94.2586 78.8199 94.4177 78.6925C94.5451 78.597 94.5132 78.3742 94.4177 78.2787C94.1312 78.024 93.8129 78.5652 94.1312 78.7244C94.2904 78.8199 94.4496 78.6607 94.4496 78.4697C94.4496 78.3742 94.4177 78.3105 94.354 78.2469C94.2585 78.1832 94.1949 78.2469 94.0994 78.3105C93.9721 78.3742 94.1312 78.5334 94.2586 78.4379Z" fill="#202124"/>
<path d="M94.1947 77.5783C94.322 77.4191 94.5448 77.3872 94.7358 77.4827C94.8632 77.5782 94.9905 77.3554 94.8632 77.2918C94.5767 77.1008 94.1947 77.1963 94.0037 77.4509C93.8763 77.6101 94.0992 77.7056 94.1947 77.5783Z" fill="#202124"/>
<path d="M97.1555 77.6102C97.442 77.5784 97.6967 77.6739 97.9195 77.8649C98.0469 77.9604 98.206 77.8012 98.0787 77.7057C97.7922 77.4511 97.442 77.3556 97.0919 77.4192C96.9645 77.4192 97.0282 77.6421 97.1555 77.6102Z" fill="#202124"/>
<path d="M92.4756 77.26C89.4515 76.3368 91.5843 73.0898 93.4306 72.5805C94.9586 72.1348 96.2956 72.7715 97.2825 73.9175C98.6513 75.4773 101.58 77.0053 101.484 79.2655C101.484 79.4246 101.707 79.4246 101.739 79.2655C101.835 76.9735 99.7336 76.1776 98.3648 74.777C97.1233 73.5036 96.2956 72.103 94.2901 72.1985C92.9531 72.2621 91.5525 73.0261 90.9795 74.2995C90.3746 75.6365 91.0113 77.069 92.3801 77.4828C92.5711 77.5465 92.6348 77.2918 92.4756 77.26Z" fill="#202124"/>
<path d="M92.6352 77.4192C94.1313 75.2227 99.0018 74.6497 99.161 78.1832C99.161 78.2469 99.2247 78.3106 99.2883 78.3106C100.243 78.7244 100.689 79.4566 100.593 80.4752C100.593 80.6344 100.816 80.6344 100.848 80.4752C100.912 79.3929 100.339 78.8835 99.734 78.1195C99.2565 77.5147 99.1292 76.7189 98.4925 76.1459C96.7417 74.6179 93.6857 75.541 92.476 77.3237C92.3487 77.4192 92.5397 77.5465 92.6352 77.4192Z" fill="#202124"/>
<path d="M100.88 80.6026C101.325 80.1887 101.644 79.6794 101.739 79.0746C101.771 78.9154 101.548 78.8517 101.516 79.0109C101.421 79.5839 101.134 80.0614 100.721 80.4434C100.593 80.5389 100.752 80.6981 100.88 80.6026Z" fill="#202124"/>
<defs>
<linearGradient id="paint0_linear_481_11471" x1="73.6666" y1="83.0537" x2="73.6666" y2="112.329" gradientUnits="userSpaceOnUse">
<stop stop-color="#B1CEFC"/>
<stop offset="1" stop-color="#86D0DA"/>
</linearGradient>
<linearGradient id="paint1_linear_481_11471" x1="102.089" y1="78.8835" x2="102.089" y2="119.758" gradientUnits="userSpaceOnUse">
<stop stop-color="#B1CEFC"/>
<stop offset="1" stop-color="#86D0DA"/>
</linearGradient>
<linearGradient id="paint2_linear_481_11471" x1="115.803" y1="76.1462" x2="115.803" y2="122.368" gradientUnits="userSpaceOnUse">
<stop stop-color="#B1CEFC"/>
<stop offset="1" stop-color="#86D0DA"/>
</linearGradient>
</defs>
</svg>
