<svg width="161" height="161" viewBox="0 0 161 161" fill="none" xmlns="http://www.w3.org/2000/svg">
<g clip-path="url(#clip0_481_11220)">
<path d="M136.314 117.074H33.8907C27.719 117.074 22.728 112.083 22.728 105.911V41.8601C22.728 35.6884 27.719 30.6974 33.8907 30.6974H136.314C142.485 30.6974 147.476 35.6884 147.476 41.8601V105.911C147.476 112.083 142.458 117.074 136.314 117.074Z" fill="white" stroke="#202124" stroke-width="0.20125" stroke-miterlimit="10"/>
<path d="M71.457 57.2355H33.6488C31.6363 57.2355 29.9995 55.5987 29.9995 53.5862V42.7455C29.9995 40.733 31.6363 39.0962 33.6488 39.0962H71.457C73.4695 39.0962 75.1063 40.733 75.1063 42.7455V53.5862C75.1063 55.5987 73.4695 57.2355 71.457 57.2355Z" fill="white" stroke="#202124" stroke-width="0.20125" stroke-miterlimit="10"/>
<path d="M33.8904 51.0102C34.7223 50.0979 35.5273 49.1587 36.2518 48.139C36.7616 47.4414 36.9226 47.3609 37.6203 47.8975C38.2911 48.4074 38.9619 48.944 39.6059 49.4807C39.6864 49.5344 39.8206 49.5612 39.9011 49.4807C40.9744 48.1927 42.0478 46.8779 43.1211 45.5899C43.4699 45.1605 44.1676 43.8994 44.7848 43.9799C45.1873 44.0067 46.2338 45.2947 46.5558 45.5899C48.8634 47.6024 51.2784 49.4539 53.8276 51.1444C53.9349 51.198 54.0423 51.1444 54.0959 51.0639C54.6863 50.232 54.7668 50.071 55.5718 50.6614C55.6523 50.7419 55.7864 50.6614 55.8401 50.5809C56.6988 49.3197 57.5843 48.1122 58.5771 46.9584C59.0333 46.3949 59.5163 45.8582 60.0261 45.3215C60.5091 44.8117 60.9116 44.0335 61.6093 44.436C62.1191 44.7312 62.5753 45.3752 63.0046 45.7509C63.5413 46.2339 64.0779 46.7169 64.6414 47.173C65.6611 48.0049 66.6808 48.7562 67.7541 49.5075C67.8346 49.5612 67.9688 49.5344 68.0224 49.427C69.1494 47.4145 70.2764 45.402 71.4034 43.3895C71.5376 43.1749 71.1888 42.9602 71.0546 43.1749C70.4374 44.2482 69.8471 45.3484 69.2299 46.4217C68.9079 47.012 68.6128 47.7634 68.1834 48.2732C67.6736 48.9172 67.6736 48.944 66.9491 48.4342C64.9366 46.9852 63.0851 45.3752 61.3409 43.6042C61.2604 43.5237 61.1263 43.5237 61.0458 43.6042C59.8383 44.8117 58.7113 46.046 57.6648 47.3877C57.2623 47.8975 56.8598 48.4342 56.4573 48.9709C56.3231 49.1587 56.0011 49.8832 55.7596 49.9637C55.3303 50.0979 55.1693 49.8564 54.8204 49.588C54.7399 49.5075 54.6058 49.588 54.5521 49.6685C54.1764 50.2052 54.0959 50.6077 53.4251 50.3662C53.0226 50.2052 52.5933 49.8027 52.2444 49.5344C51.2784 48.8367 50.3393 48.139 49.4001 47.4145C47.7633 46.1265 46.2069 44.758 44.7043 43.3359C44.6238 43.2554 44.4896 43.2554 44.4091 43.3359C43.1748 44.8385 41.9404 46.3144 40.7061 47.817C40.5183 48.0317 40.1694 48.7025 39.9011 48.783C39.3913 48.9709 39.1498 48.5684 38.7741 48.2732C38.1569 47.7634 37.4861 47.3072 36.8421 46.8242C36.7616 46.7705 36.6274 46.8242 36.5738 46.9047C35.6614 48.2464 34.6686 49.5075 33.5684 50.6882C33.4343 50.9297 33.7026 51.2249 33.8904 51.0102Z" fill="#202124"/>
<path d="M69.6863 44.2481C70.223 43.7383 70.8133 43.2821 71.4842 42.9333C71.3768 42.9065 71.2963 42.8528 71.189 42.826C71.3768 43.47 71.5378 44.114 71.6452 44.758C71.6988 44.9995 72.0745 44.8921 72.0208 44.6506C71.9135 44.0066 71.7525 43.3626 71.5647 42.7186C71.5378 42.5845 71.3768 42.5308 71.2695 42.6113C70.5718 42.987 69.9547 43.4431 69.3912 43.9798C69.2302 44.1408 69.4985 44.436 69.6863 44.2481Z" fill="#202124"/>
<path d="M33.3268 56.1085C33.8753 56.1085 34.3197 55.6638 34.3197 55.1156C34.3197 54.5674 33.8753 54.1228 33.3268 54.1228C32.7786 54.1228 32.334 54.5674 32.334 55.1156C32.334 55.6638 32.7786 56.1085 33.3268 56.1085Z" fill="#B1CEFC"/>
<path d="M41.4845 72.5574H36.2788V86.6717H41.4845V72.5574Z" fill="#B1CEFC"/>
<path d="M49.2125 65.4197H44.0068V86.6717H49.2125V65.4197Z" fill="#B1CEFC"/>
<path d="M56.8331 82.5393H51.6274V86.6716H56.8331V82.5393Z" fill="#B1CEFC"/>
<path d="M64.5343 61.7435H59.3286V86.6717H64.5343V61.7435Z" fill="#B1CEFC"/>
<path d="M33.7295 63.5414V86.6717" stroke="#202124" stroke-width="0.20125" stroke-miterlimit="10"/>
<path d="M66.1978 86.6716H33.7295" stroke="#202124" stroke-width="0.20125" stroke-miterlimit="10"/>
<path d="M140.177 41.699H89.1133V62.7631H140.177V41.699Z" fill="white" stroke="#202124" stroke-width="0.20125" stroke-miterlimit="10"/>
<path d="M92.4141 46.207H132.932" stroke="#202124" stroke-width="0.20125" stroke-miterlimit="10"/>
<path d="M92.3335 50.1246H132.932" stroke="#202124" stroke-width="0.20125" stroke-miterlimit="10"/>
<path d="M92.3872 54.1228H132.637" stroke="#202124" stroke-width="0.20125" stroke-miterlimit="10"/>
<path d="M92.3872 58.8455H132.127" stroke="#202124" stroke-width="0.20125" stroke-miterlimit="10"/>
<path d="M102.369 69.069C97.3247 69.069 93.2192 73.1745 93.2192 78.2191C93.2192 83.2638 97.3247 87.3693 102.369 87.3693C107.414 87.3693 111.52 83.2638 111.52 78.2191C111.52 73.1745 107.441 69.069 102.369 69.069ZM102.369 85.33C98.4249 85.33 95.2586 82.1368 95.2586 78.2191C95.2586 74.2746 98.4517 71.1083 102.369 71.1083C106.287 71.1083 109.48 74.3015 109.48 78.2191C109.507 82.1636 106.314 85.33 102.369 85.33Z" fill="#B1CEFC"/>
<path d="M125.66 75.9652C122.843 75.9652 120.535 78.2729 120.535 81.0904C120.535 83.9079 122.843 86.2155 125.66 86.2155C128.478 86.2155 130.785 83.9079 130.785 81.0904C130.785 78.2729 128.505 75.9652 125.66 75.9652ZM125.66 85.0885C123.46 85.0885 121.662 83.2907 121.662 81.0904C121.662 78.89 123.46 77.0922 125.66 77.0922C127.861 77.0922 129.658 78.89 129.658 81.0904C129.658 83.2907 127.861 85.0885 125.66 85.0885Z" fill="#B1CEFC"/>
<path d="M110.822 76.5287L113.425 72.6378" stroke="#202124" stroke-width="0.20125" stroke-miterlimit="10"/>
<path d="M114.417 72.3158H131.349" stroke="#202124" stroke-width="0.20125" stroke-miterlimit="10"/>
<path d="M114.417 70.7327H130.786" stroke="#202124" stroke-width="0.20125" stroke-miterlimit="10"/>
<path d="M114.659 68.6396H128.719" stroke="#202124" stroke-width="0.20125" stroke-miterlimit="10"/>
<path d="M115.008 66.8149H124.668" stroke="#202124" stroke-width="0.20125" stroke-miterlimit="10"/>
<path d="M126.68 84.0151L128.21 86.6716" stroke="#202124" stroke-width="0.20125" stroke-miterlimit="10"/>
<path d="M128.72 88.228H142.619" stroke="#202124" stroke-width="0.20125" stroke-miterlimit="10"/>
<path d="M128.72 89.5964H142.619" stroke="#202124" stroke-width="0.20125" stroke-miterlimit="10"/>
<path d="M128.72 91.5553H134.408" stroke="#202124" stroke-width="0.20125" stroke-miterlimit="10"/>
<path d="M129.659 93.2458H141.546" stroke="#202124" stroke-width="0.20125" stroke-miterlimit="10"/>
<path d="M106.233 28.2018C112.709 28.2018 117.959 22.9519 117.959 16.4757C117.959 9.99951 112.709 4.74951 106.233 4.74951C99.7568 4.74951 94.5068 9.99951 94.5068 16.4757C94.5068 22.9519 99.7568 28.2018 106.233 28.2018Z" fill="#202124"/>
<path d="M104.972 28.2018C111.448 28.2018 116.698 22.9519 116.698 16.4757C116.698 9.99951 111.448 4.74951 104.972 4.74951C98.4956 4.74951 93.2456 9.99951 93.2456 16.4757C93.2456 22.9519 98.4956 28.2018 104.972 28.2018Z" fill="white" stroke="#202124" stroke-width="0.20125" stroke-miterlimit="10"/>
<path d="M104.14 7.40606C104.14 8.31839 104.14 9.25756 104.14 10.1699C104.14 10.6797 104.945 10.6797 104.945 10.1699C104.945 9.25756 104.945 8.31839 104.945 7.40606C104.945 6.89622 104.14 6.89622 104.14 7.40606Z" fill="#202124"/>
<path d="M108.782 10.4918C107.011 9.66001 104.972 9.68685 103.254 10.626C101.698 11.4847 100.088 13.4703 100.92 15.295C101.269 16.1 102.074 16.6367 102.906 16.8782C104.328 17.3075 106.206 16.5025 107.414 17.5222C109.238 19.0785 107.601 21.2252 105.83 21.7887C104.22 22.2985 102.503 21.896 101.188 20.8763C100.786 20.5543 100.222 21.1178 100.625 21.4398C102.288 22.7547 104.489 23.2108 106.501 22.4058C108.245 21.6813 109.614 19.8835 108.755 18.0052C108.353 17.1465 107.628 16.5293 106.716 16.3415C105.186 15.9927 103.308 16.7977 102.047 15.5633C100.437 14.007 102.557 11.8335 103.979 11.1895C105.374 10.5455 106.984 10.5723 108.38 11.2163C108.836 11.4042 109.238 10.7333 108.782 10.4918Z" fill="#202124"/>
<path d="M104.462 22.8352C104.57 23.4523 104.57 24.0963 104.543 24.7135C104.516 25.2233 105.321 25.2233 105.348 24.7135C105.402 24.0158 105.348 23.3182 105.241 22.6205C105.16 22.1107 104.382 22.3253 104.462 22.8352Z" fill="#202124"/>
<path d="M37.969 97.0294C37.7812 97.3782 37.5129 97.9954 37.647 98.7467C37.7275 99.1761 37.8885 99.4444 38.1569 99.9542C38.3447 100.276 38.6399 100.813 39.2034 101.403C40.1694 102.45 40.545 102.208 41.1622 103.013C41.3769 103.282 41.4037 103.416 42.0745 105.026C42.3965 105.804 42.638 106.421 42.799 106.797C43.3894 107.092 43.8992 107.146 44.2212 107.146C45.7507 107.092 47.2265 105.75 47.9242 103.738C47.8437 103.094 47.8169 102.584 47.79 102.208C47.7632 101.886 47.7364 101.296 47.7095 100.437C47.7095 100.41 47.629 99.9542 47.468 99.0687C47.4412 98.8809 47.3875 98.6394 47.2265 98.5321C47.0119 98.3979 46.7435 98.5052 46.663 98.5321C46.0727 98.7736 45.9385 99.5786 45.9117 99.6859C45.697 99.5786 45.375 99.3907 45.0262 99.1492C44.6774 98.9346 43.9797 98.4516 43.1747 97.6197C41.994 96.4122 41.2695 95.3389 41.2695 95.3389C40.867 94.7486 40.5719 94.2119 40.1962 94.2656C40.1157 94.2656 40.0084 94.3192 39.4985 94.8291C39.096 95.2316 38.9082 95.4194 38.774 95.6072C38.5325 95.9024 38.2105 96.3854 37.969 97.0294Z" fill="white"/>
<path d="M42.4235 105.965C42.4235 106.609 42.3967 107.575 42.4235 108.729C42.4235 112.566 42.4504 115.544 42.665 118.603C42.826 120.67 43.148 124.641 44.4629 129.578C45.2142 132.423 46.0997 134.757 46.7974 136.474C47.4414 137.145 49.266 138.863 51.0102 138.46C53.2642 137.923 53.935 134.194 54.3912 131.779C54.9547 128.8 55.3572 123.702 53.1569 117.074C52.647 115.974 52.1372 114.82 51.6274 113.639C50.1247 110.151 48.8904 106.743 47.817 103.496C47.0657 103.496 45.6167 103.63 44.114 104.516C43.3627 104.999 42.826 105.536 42.4235 105.965Z" fill="white"/>
<path d="M43.1748 105.401C44.5433 104.167 46.2606 103.604 48.1121 103.818C48.1926 103.818 48.2463 103.711 48.1926 103.657C48.1121 103.577 48.0316 103.496 47.9243 103.443C47.817 103.362 47.6828 103.496 47.7901 103.577C47.4413 103.282 45.6971 103.765 45.2678 103.899C44.436 104.194 43.7115 104.65 43.0406 105.24C42.9333 105.348 43.0943 105.509 43.1748 105.401Z" fill="#202124"/>
<path d="M47.9778 103.818C49.3731 108.38 51.0905 112.807 53.103 117.128C53.1566 117.235 53.3445 117.154 53.264 117.02C51.2515 112.727 49.561 108.299 48.1656 103.765C48.1388 103.657 47.9241 103.711 47.9778 103.818Z" fill="#202124"/>
<path d="M42.3969 106.206C41.9676 116.484 42.6921 126.949 46.6902 136.528C46.7439 136.635 46.9317 136.582 46.8781 136.474C42.8799 126.922 42.1554 116.457 42.5847 106.206C42.6116 106.072 42.3969 106.072 42.3969 106.206Z" fill="#202124"/>
<path d="M47.79 103.684C47.9242 102.584 47.9242 101.484 47.79 100.384C47.7363 99.8469 47.7363 98.9614 47.3338 98.5321C46.5557 97.6734 45.8848 99.4712 45.7507 100.035C45.7238 100.169 45.9117 100.223 45.9385 100.088C46.0458 99.5249 46.4752 97.9417 47.3338 99.0687C47.5753 99.4176 47.5753 100.384 47.6022 100.759C47.6827 101.725 47.6558 102.691 47.5485 103.657C47.5753 103.818 47.7632 103.818 47.79 103.684Z" fill="#202124"/>
<path d="M39.6595 95.1511C39.9546 94.4802 40.223 94.3192 40.4645 94.668C40.5986 94.8022 40.7328 94.9364 40.8401 95.0705C41.0548 95.312 41.2426 95.5267 41.4573 95.7682C41.8866 96.3049 42.316 96.8415 42.7721 97.3514C43.5771 98.2905 44.4626 99.1492 45.536 99.7932C45.6433 99.8469 45.7506 99.6859 45.6433 99.6322C43.6308 98.4515 42.4233 96.4659 40.867 94.8022C40.1693 94.0509 39.0691 93.7825 39.4448 95.2047C39.4985 95.3389 39.7131 95.2852 39.6595 95.1511Z" fill="#202124"/>
<path d="M39.0426 95.3926C39.6061 96.8416 40.5453 98.0222 41.8065 98.9346C41.9138 99.0151 42.0211 98.8272 41.9138 98.7736C40.7063 97.9149 39.794 96.7342 39.2573 95.3657C39.2036 95.2316 39.0158 95.2852 39.0426 95.3926Z" fill="#202124"/>
<path d="M38.2643 96.0633C38.5863 97.566 39.5255 98.8272 40.8672 99.5785C40.9745 99.6322 41.0818 99.4712 40.9745 99.4175C39.6865 98.693 38.7742 97.4855 38.479 96.0097C38.4253 95.9023 38.2375 95.956 38.2643 96.0633Z" fill="#202124"/>
<path d="M37.7546 97.3245C38.2376 98.8272 39.2036 100.088 40.5452 100.92C40.6526 101.001 40.7599 100.813 40.6526 100.759C39.3646 99.9542 38.4254 98.7467 37.9692 97.2977C37.9156 97.1367 37.7277 97.1903 37.7546 97.3245Z" fill="#202124"/>
<path d="M37.5397 98.7735C37.9154 99.8737 38.4789 100.84 39.3107 101.672C39.7937 102.155 40.3572 102.53 40.8671 103.013C41.6452 103.765 41.9672 105.079 42.3966 106.126C42.4502 106.233 42.6381 106.206 42.5844 106.072C42.1282 104.918 41.8062 103.523 40.8939 102.664C40.3572 102.155 39.6864 101.833 39.2034 101.269C38.5326 100.518 38.0764 99.6859 37.7544 98.7467C37.7007 98.6125 37.5129 98.6662 37.5397 98.7735Z" fill="#202124"/>
<path d="M106.555 100.571C106.448 100.276 106.287 99.82 106.045 99.2833C105.562 98.1832 105.348 97.9953 105.026 97.0293C105.026 97.0293 104.784 96.3317 104.65 95.2047C104.596 94.829 104.596 94.6143 104.704 94.5607C104.891 94.4533 105.374 94.9095 105.804 95.3657C105.965 95.1242 106.179 94.7753 106.394 94.346C106.984 93.1653 107.172 92.1457 107.226 91.9042C107.494 90.4283 107.119 90.16 107.521 89.6233C108.004 88.9525 109.104 88.6842 109.936 89.033C110.768 89.355 111.09 90.1868 111.358 90.8577C111.6 91.5017 111.653 92.0652 111.707 92.4677C111.734 92.8433 111.761 93.2995 111.68 93.9972C111.573 95.1778 111.278 95.9828 110.848 97.405C110.661 98.049 110.365 98.9882 110.017 100.196C109.99 100.303 109.856 101.215 109.158 101.564C108.326 101.94 107.172 101.591 106.555 100.571Z" fill="white"/>
<path d="M106.045 100.464C106.072 101.269 106.099 102.074 106.126 102.879C106.314 109.024 106.394 112.136 106.475 113.585C106.716 117.423 106.824 119.355 107.146 120.75C108.273 125.419 111.546 131.993 115.732 132.074C116.457 132.074 117.557 131.886 118.872 130.92C118.845 129.82 118.818 128.317 118.657 126.546C118.469 124.185 118.04 120.723 116.993 116.618C116.457 114.498 115.652 111.788 114.444 108.755C113.451 106.287 112.485 104.328 111.868 103.12C111.224 101.859 110.607 100.786 110.097 99.9542C109.561 99.8468 108.702 99.7395 107.709 99.9273C107.011 100.035 106.448 100.276 106.045 100.464Z" fill="white"/>
<path d="M106.475 112.11C106.394 109.561 106.314 106.985 106.26 104.435C106.233 103.469 105.804 101.511 106.314 100.706C106.931 99.7664 108.943 99.9274 109.936 100.035C110.07 100.062 110.07 99.8469 109.936 99.82C108.568 99.6859 107.28 99.8469 105.992 100.357C105.938 100.384 105.911 100.41 105.911 100.464C106.018 104.355 106.153 108.219 106.26 112.11C106.287 112.217 106.475 112.244 106.475 112.11Z" fill="#202124"/>
<path d="M109.909 99.7931C115.517 109.185 118.603 119.945 118.764 130.893C118.764 131.027 118.979 131.027 118.979 130.893C118.791 119.918 115.732 109.131 110.097 99.6858C110.017 99.5785 109.829 99.6858 109.909 99.7931Z" fill="#202124"/>
<path d="M106.609 100.249C106.207 99.3639 105.804 98.5052 105.402 97.6197C105.187 97.1635 104.972 96.6805 104.838 96.1975C104.731 95.8487 104.677 95.473 104.677 95.0973C105.267 94.8022 105.643 94.9632 105.777 95.5804C105.831 95.6877 106.019 95.5803 105.938 95.473C105.67 94.9632 105.294 94.4802 104.677 94.4265C104.65 94.4265 104.597 94.4534 104.597 94.4802C104.248 95.2315 104.623 96.2512 104.892 96.9757C105.348 98.1295 105.911 99.2297 106.421 100.33C106.502 100.491 106.663 100.384 106.609 100.249Z" fill="#202124"/>
<path d="M110.044 99.7127C111.01 97.4855 112.002 94.7217 111.707 92.2798C111.68 92.1457 111.493 92.1457 111.493 92.2798C111.761 94.668 110.795 97.4587 109.856 99.6322C109.802 99.7127 109.99 99.82 110.044 99.7127Z" fill="#202124"/>
<path d="M106.099 95.0973C106.985 93.38 107.495 91.5553 107.575 89.6233C107.575 89.4892 107.387 89.4892 107.36 89.6233C107.28 91.5285 106.797 93.2995 105.911 94.99C105.858 95.0973 106.046 95.2047 106.099 95.0973Z" fill="#202124"/>
<path d="M107.951 89.4623C108.595 90.804 108.38 92.2798 108.031 93.6752C108.004 93.8093 108.192 93.863 108.219 93.7288C108.595 92.2798 108.809 90.7503 108.112 89.355C108.085 89.2477 107.897 89.355 107.951 89.4623Z" fill="#202124"/>
<path d="M108.943 89.4086C109.507 90.7235 109.587 92.092 109.238 93.4605C109.211 93.5946 109.399 93.6483 109.426 93.5141C109.802 92.092 109.694 90.6698 109.131 89.3013C109.077 89.194 108.889 89.3013 108.943 89.4086Z" fill="#202124"/>
<path d="M110.017 89.4892C110.607 90.6699 110.714 91.9579 110.339 93.219C110.312 93.3532 110.5 93.4069 110.526 93.2727C110.929 91.9579 110.795 90.6162 110.178 89.3819C110.124 89.2745 109.963 89.3819 110.017 89.4892Z" fill="#202124"/>
<path d="M103.711 103.818C105.133 103.764 106.34 104.891 108.192 106.609C109.748 108.058 110.553 109.346 112.029 111.734C112.566 112.593 114.551 115.813 116.564 120.562C117.691 123.192 117.986 124.346 118.147 124.963C118.979 128.451 118.549 130.571 118.388 131.242C117.986 132.932 117.342 133.764 117.181 133.979C116.886 134.354 115.786 135.75 114.122 135.911C112.995 136.018 112.109 135.535 111.358 135.106C108.058 133.147 105.777 130.759 105.482 130.437C102.262 127.029 100.652 125.312 99.9539 124.077C99.2294 122.789 97.5926 119.838 97.5389 115.893C97.4316 110.419 100.41 103.979 103.711 103.818Z" fill="white"/>
<path d="M104.865 104.328C108.541 106.179 110.875 109.963 112.915 113.398C115.061 117.074 116.779 120.965 118.067 125.016C118.094 125.151 118.308 125.097 118.255 124.963C116.913 120.75 115.115 116.671 112.834 112.888C110.849 109.56 108.541 105.938 104.972 104.167C104.838 104.086 104.757 104.274 104.865 104.328Z" fill="#202124"/>
<path d="M99.8735 124.131C102.771 127.7 105.75 131.349 109.533 134.032C110.902 134.998 112.592 136.179 114.363 135.964C116.161 135.75 117.208 134.167 118.04 132.718C118.093 132.61 117.932 132.503 117.879 132.61C116.752 134.596 115.249 136.313 112.727 135.562C110.795 134.998 108.997 133.442 107.494 132.154C104.703 129.739 102.342 126.841 100.008 123.97C99.9271 123.889 99.793 124.05 99.8735 124.131Z" fill="#202124"/>
<path d="M58.6575 105.133C58.416 105.24 58.0403 105.723 57.289 106.662C56.484 107.682 55.4643 108.943 54.2836 110.902C53.3176 112.485 52.7005 113.746 52.1638 114.82C51.8418 115.464 51.4125 116.376 50.6611 118.093C49.4268 120.938 48.8365 122.333 48.2998 123.943C47.6021 126.009 46.7971 128.532 46.663 131.832C46.5825 134.086 46.8508 135.964 47.1191 137.252C47.4411 137.628 47.9241 138.192 48.5681 138.782C49.6951 139.828 50.366 140.446 51.4125 140.607C52.3785 140.768 53.1566 140.446 53.6933 140.231C54.1226 140.043 54.8203 139.721 56.1083 138.46C56.7255 137.87 57.5305 137.011 58.8721 135.213C59.1136 134.918 60.187 133.442 60.9115 132.315C63.2728 128.612 64.695 123.782 65.3121 121.394C66.8416 115.517 67.6198 112.593 66.6806 110.419C65.1243 106.797 60.7236 104.14 58.6575 105.133Z" fill="white"/>
<path d="M58.5771 105.079C53.5593 110.392 50.8223 117.235 48.1926 123.943C48.139 124.05 48.3268 124.104 48.3805 123.997C50.9833 117.315 53.6935 110.5 58.7113 105.24C58.8186 105.106 58.6576 104.972 58.5771 105.079Z" fill="#202124"/>
<path d="M47.0655 137.306C48.273 138.379 49.1317 140.043 50.7417 140.553C52.298 141.036 53.9349 140.392 55.1424 139.453C56.5377 138.353 57.6915 136.877 58.7649 135.481C60.187 133.63 61.475 131.698 62.602 129.659C62.6557 129.551 62.4947 129.444 62.441 129.551C60.7237 132.637 58.6844 135.589 56.2694 138.138C54.9009 139.587 52.9152 141.036 50.7954 140.365C49.239 139.855 48.3804 138.192 47.1997 137.172C47.1192 137.091 46.9582 137.226 47.0655 137.306Z" fill="#202124"/>
<path d="M58.4966 105.214C57.9331 106.421 57.2623 108.138 56.9939 110.285C56.8329 111.546 56.8329 112.673 56.8866 113.612C57.0208 115.33 57.2086 117.289 57.4769 119.435C57.6379 120.67 57.9331 122.977 58.4429 125.822C58.8723 128.29 59.7578 132.986 61.3678 138.809C62.1996 141.814 63.2729 145.356 64.6951 149.301C66.1441 150.186 67.7004 150.991 69.3909 151.662C82.7003 156.975 96.2243 151.582 101.752 148.979C102.101 147.771 102.611 145.947 103.147 143.719C103.442 142.539 104.06 139.802 105.079 133.764C105.428 131.698 105.831 129.364 106.287 126.117C107.924 114.605 107.467 112.11 107.199 110.929C106.797 109.185 105.992 106.609 104.033 103.711C103.308 103.469 102.315 103.147 101.108 102.825C99.0149 102.235 95.2314 101.323 90.4283 100.813C87.7986 100.545 83.8809 100.276 79.1046 100.571C73.9794 100.893 69.9544 101.725 67.6199 102.289C63.9974 103.174 60.9384 104.221 58.4966 105.214Z" fill="white"/>
<path d="M58.5233 105.294C72.9865 99.5516 89.2206 99.0418 104.033 103.845C104.167 103.872 104.22 103.684 104.086 103.657C89.2475 98.8539 72.9596 99.3638 58.4696 105.106C58.3623 105.16 58.416 105.348 58.5233 105.294Z" fill="#202124"/>
<path d="M56.6987 112.512C57.6379 124.802 60.2139 136.93 64.3462 148.549C64.3999 148.683 64.5877 148.63 64.5341 148.496C60.3749 136.904 57.7989 124.802 56.8866 112.512C56.8866 112.378 56.6987 112.378 56.6987 112.512Z" fill="#202124"/>
<path d="M107.065 113.398C106.77 125.419 104.945 137.36 101.672 148.952C101.645 149.086 101.833 149.14 101.859 149.005C105.16 137.413 106.958 125.446 107.28 113.398C107.28 113.263 107.065 113.263 107.065 113.398Z" fill="#202124"/>
<path d="M75.6967 99.5784C74.1403 98.2904 73.872 96.3048 73.7915 95.7681C73.7378 95.3924 73.4158 92.4944 75.5357 90.2941C76.9847 88.8183 79.4802 87.6913 81.8952 88.5499C84.5785 89.4891 85.4372 92.1724 85.625 92.7091C85.786 93.1921 86.5105 95.4729 85.4103 97.5391C83.693 100.732 78.4337 101.779 75.6967 99.5784Z" fill="#202124"/>
<path d="M79.0242 99.981C78.7827 99.3907 78.4875 98.371 78.7558 97.2172C79.2388 95.1779 81.2782 93.5947 83.881 93.2727C83.881 93.7825 83.8273 94.2924 83.6932 94.8559C82.8882 97.9685 79.9097 99.5517 79.0242 99.981Z" fill="#F7F7F7"/>
<path d="M81.5464 96.4659C81.8953 95.956 81.8416 95.5267 82.0563 94.0777C82.2978 92.4945 82.4588 91.3944 82.7808 90.7504C83.8541 88.6305 88.8451 87.7719 92.5213 89.6234C95.7413 91.2334 96.9488 94.4265 97.7001 96.4659C99.4443 101.135 98.5856 105.401 98.0221 107.414C97.4318 109.453 95.8218 115.008 90.7771 117.396C85.0616 120.079 76.2603 118.308 73.5769 112.002C71.0546 106.099 74.8381 98.6125 78.2459 97.8075C79.1046 97.6197 80.7683 97.6465 81.5464 96.4659Z" fill="#202124"/>
<path d="M102.986 161H62.5483C58.9258 161 55.9741 158.048 55.9741 154.426V113.988C55.9741 110.365 58.9258 107.414 62.5483 107.414H102.986C106.609 107.414 109.56 110.365 109.56 113.988V154.426C109.56 158.048 106.635 161 102.986 161Z" fill="#B1CEFC"/>
</g>
<defs>
<clipPath id="clip0_481_11220">
<rect width="161" height="161" fill="white"/>
</clipPath>
</defs>
</svg>
