<svg width="75" height="72" viewBox="0 0 75 72" fill="none" xmlns="http://www.w3.org/2000/svg">
<g clip-path="url(#clip0_91_125)">
<mask id="mask0_91_125" style="mask-type:luminance" maskUnits="userSpaceOnUse" x="0" y="0" width="75" height="72">
<path d="M75 0H0V71.9072H75V0Z" fill="white"/>
</mask>
<g mask="url(#mask0_91_125)">
<path d="M31.418 8.22285V10.1437C31.418 11.696 32.0408 13.1846 33.1496 14.2822C34.2583 15.3798 35.762 15.9964 37.3299 15.9964C38.898 15.9964 40.4018 15.3798 41.5103 14.2822C42.6191 13.1846 43.242 11.696 43.242 10.1437V8.22285C43.242 6.67062 42.6191 5.18193 41.5103 4.08434C40.4018 2.98674 38.898 2.37012 37.3299 2.37012C35.762 2.37012 34.2583 2.98674 33.1496 4.08434C32.0408 5.18193 31.418 6.67062 31.418 8.22285ZM41.1165 8.22285V10.1437C41.1165 10.636 41.0183 11.1234 40.8281 11.5782C40.638 12.033 40.359 12.4462 40.0073 12.7943C39.6559 13.1424 39.2381 13.4185 38.7788 13.6069C38.3194 13.7953 37.827 13.8922 37.3299 13.8922C36.8327 13.8922 36.3403 13.7953 35.8809 13.6069C35.4215 13.4185 35.0041 13.1424 34.6525 12.7943C34.3009 12.4462 34.022 12.033 33.8317 11.5782C33.6414 11.1234 33.5435 10.636 33.5435 10.1437V8.22285C33.5459 7.2294 33.9456 6.27737 34.6552 5.57489C35.3647 4.8724 36.3265 4.47674 37.3299 4.47432C38.3333 4.47674 39.2951 4.8724 40.0046 5.57489C40.7141 6.27737 41.1139 7.2294 41.1165 8.22285Z" fill="#0C0C0C"/>
<path d="M63.2486 12.1866C64.6556 12.1846 66.0041 11.6305 66.9986 10.6458C67.9931 9.66113 68.553 8.32617 68.5549 6.93356V5.26071C68.4821 3.91613 67.8915 2.65029 66.9045 1.72394C65.9171 0.797592 64.6091 0.28125 63.2486 0.28125C61.8885 0.28125 60.5801 0.797592 59.5931 1.72394C58.6061 2.65029 58.0151 3.91613 57.9427 5.26071V6.93356C57.9446 8.32617 58.5045 9.66113 59.499 10.6458C60.4935 11.6305 61.842 12.1846 63.2486 12.1866ZM60.0682 5.26071C60.1237 4.46318 60.483 3.71631 61.0736 3.17085C61.6639 2.62541 62.4412 2.32206 63.2486 2.32206C64.0564 2.32206 64.8337 2.62541 65.424 3.17085C66.0146 3.71631 66.3739 4.46318 66.4294 5.26071V6.93356C66.3739 7.73109 66.0146 8.47799 65.424 9.02341C64.8337 9.56887 64.0564 9.87224 63.2486 9.87224C62.4412 9.87224 61.6639 9.56887 61.0736 9.02341C60.483 8.47799 60.1237 7.73109 60.0682 6.93356V5.26071Z" fill="#0C0C0C"/>
<path d="M70.0811 12.1223C70.0159 12.1148 69.8809 12.1012 66.1534 12.0938C65.9659 12.0939 65.7818 12.1432 65.6194 12.2366C65.4574 12.3301 65.3231 12.4644 65.2305 12.6258L63.4208 15.7461L61.7141 12.6423C61.623 12.4765 61.488 12.338 61.3241 12.2415C61.1603 12.1449 60.9728 12.0939 60.7819 12.0938H57.2674C55.8176 12.0938 54.4275 12.6638 53.4026 13.6785C52.3778 14.6933 51.8018 16.0696 51.8018 17.5046C51.8018 17.6549 51.8231 27.8183 51.8246 28.2497C51.8261 29.1427 52.1854 29.9988 52.8233 30.6301C53.4615 31.2615 54.3263 31.6167 55.2285 31.6179H55.2634C55.7145 31.6127 56.1596 31.5166 56.5721 31.3353L56.7435 38.2088C56.7469 38.3012 56.7615 38.3932 56.7878 38.4823L53.3884 41.8474C53.2586 41.9758 53.1649 42.135 53.1161 42.3102C53.067 42.485 53.0648 42.6694 53.109 42.8454L53.1544 43.0287C51.0656 41.5148 48.5543 40.6787 45.9656 40.636H45.5921C45.4403 40.636 45.2794 40.636 45.1245 40.6494L45.1916 37.8239C45.7616 38.1026 46.3943 38.2325 47.0291 38.2017C47.6644 38.1709 48.2809 37.9802 48.8209 37.6476C49.3609 37.3151 49.806 36.8518 50.1146 36.3014C50.4233 35.7509 50.5849 35.1317 50.5841 34.5022V22.7787C50.7315 21.1923 50.2399 19.6126 49.2161 18.3835C48.1924 17.1544 46.7198 16.3755 45.1185 16.2165C45.0578 16.2165 44.8969 16.194 40.6459 16.1849C40.4588 16.1851 40.275 16.234 40.1134 16.3269C39.9514 16.4198 39.8175 16.5533 39.7245 16.714L37.5229 20.5136L35.443 16.7336C35.3515 16.5674 35.2166 16.4289 35.0522 16.3323C34.8879 16.2358 34.7003 16.1848 34.5093 16.1849H30.4936C28.8759 16.187 27.3251 16.824 26.1812 17.9564C25.0374 19.0888 24.3939 20.6241 24.3918 22.2256C24.3918 22.3924 24.4161 34.0122 24.4176 34.5052C24.4176 34.991 24.5144 35.4722 24.7022 35.921C24.8901 36.3699 25.1654 36.7778 25.5125 37.1214C25.8597 37.4647 26.2717 37.7371 26.7252 37.923C27.1787 38.1089 27.6647 38.2043 28.1555 38.204H28.198C28.7653 38.1984 29.3232 38.0607 29.8271 37.8028L30.117 53.5333C30.12 53.6602 30.1457 53.7853 30.193 53.9029C29.8485 56.123 29.9913 58.3907 30.6117 60.5514C31.2322 62.7118 32.3157 64.7144 33.7885 66.4231C35.2612 68.1318 37.0887 69.5061 39.1463 70.4525C41.2039 71.3989 43.4434 71.8951 45.7121 71.9077H45.8018C54.3386 71.9077 61.4138 65.0614 61.5911 56.604C61.5911 56.4764 61.5911 56.3502 61.5911 56.2221C61.587 54.9172 61.368 53.622 60.9431 52.3865H67.3406C67.9335 52.3891 68.5054 52.1716 68.9441 51.7771C69.3829 51.3826 69.6563 50.8396 69.7106 50.2554V50.1845L70.2345 31.3579C70.7524 31.5765 71.3171 31.6646 71.8778 31.6143C72.4388 31.564 72.978 31.3769 73.4479 31.0697C73.9178 30.7626 74.3033 30.3449 74.5703 29.8541C74.8373 29.3632 74.9771 28.8146 74.9775 28.2572V18.0006C75.1054 16.5804 74.6636 15.1673 73.7471 14.0671C72.831 12.967 71.514 12.2684 70.0811 12.1223ZM59.3306 38.9436L59.5523 41.1741L55.8098 44.8807L55.3148 42.9266L59.3306 38.9436ZM57.3128 46.3685L61.0568 42.662L63.3098 42.8828L59.2943 46.8584L57.3128 46.3685ZM31.9086 35.4551L31.8934 34.421C31.889 34.1449 31.7751 33.8815 31.5762 33.6877C31.3774 33.494 31.1096 33.3854 30.8306 33.3854C30.5487 33.3854 30.2784 33.4963 30.0791 33.6936C29.8798 33.8909 29.7679 34.1585 29.7679 34.4375C29.7761 34.8672 29.6137 35.2828 29.3156 35.5951C29.0175 35.9074 28.6074 36.0913 28.1737 36.1074H28.1555C27.7279 36.1074 27.3178 35.9392 27.0154 35.6399C26.7131 35.3405 26.5432 34.9345 26.5432 34.5112C26.5432 34.391 26.5173 22.3984 26.5173 22.2346C26.5186 21.1907 26.9381 20.1899 27.6838 19.4519C28.4296 18.7139 29.4407 18.299 30.4951 18.2982H33.8792L36.5664 23.18C36.6569 23.3443 36.79 23.4817 36.952 23.5782C37.1139 23.6746 37.299 23.7265 37.488 23.7286H37.5C37.6871 23.7286 37.8705 23.6799 38.0325 23.5873C38.1941 23.4947 38.3284 23.3614 38.4218 23.201L41.2609 18.2997C42.7455 18.2997 44.6554 18.3117 44.9303 18.3207C45.9746 18.4318 46.9324 18.9474 47.5939 19.7551C48.2558 20.5627 48.5674 21.5968 48.4616 22.6314C48.4616 22.6659 48.4616 22.702 48.4616 22.7366V34.5127C48.4699 34.9365 48.3075 35.346 48.0105 35.6513C47.7135 35.9565 47.3063 36.1325 46.878 36.1404C46.4501 36.1484 46.0365 35.9878 45.7283 35.6938C45.4196 35.3998 45.2419 34.9965 45.234 34.5728V34.4947C45.2314 34.2156 45.1174 33.949 44.9164 33.7534C44.7154 33.5577 44.4439 33.4492 44.1623 33.4516C43.8803 33.454 43.611 33.5671 43.4134 33.7661C43.2158 33.9651 43.1059 34.2337 43.1085 34.5127C43.1085 34.5503 43.1085 34.5878 43.1085 34.6254L43.1175 35.4716L42.993 40.8947C40.7423 41.3048 38.6081 42.1922 36.7363 43.4956C34.8647 44.7994 33.3001 46.4884 32.15 48.4473L31.9086 35.4551ZM59.4656 56.5621C59.3138 63.8786 53.1908 69.8034 45.8018 69.8034H45.7245C42.1005 69.8175 38.6194 68.4057 36.0469 65.8787C33.4745 63.3516 32.0213 59.9164 32.0072 56.329C31.9931 52.7413 33.4192 49.2953 35.9717 46.7486C38.5241 44.2019 41.994 42.7633 45.618 42.7492H45.9416C48.684 42.8027 51.2966 43.9179 53.2181 45.856L54.0184 46.6569L45.0503 55.5337C44.8508 55.7311 44.739 55.9987 44.739 56.2778C44.739 56.5569 44.8508 56.8245 45.0503 57.0219C45.2498 57.219 45.5198 57.33 45.8018 57.33C46.0838 57.33 46.3541 57.219 46.5533 57.0219L55.5109 48.1541L56.4218 49.0559C58.3545 50.9554 59.4506 53.5336 59.4716 56.2299C59.4686 56.3394 59.4686 56.4508 59.4656 56.5621ZM72.8565 17.8443C72.8565 17.8788 72.8565 17.9149 72.8565 17.9495V28.2572C72.8633 28.5932 72.7346 28.9181 72.4991 29.1603C72.264 29.4026 71.9411 29.5424 71.6018 29.549C71.262 29.5556 70.9339 29.4284 70.6894 29.1954C70.4445 28.9625 70.3035 28.6428 70.2968 28.3067V28.2406C70.2923 27.9645 70.1783 27.7011 69.9795 27.5073C69.7808 27.3136 69.513 27.205 69.234 27.205H69.225C68.9445 27.2074 68.6768 27.3193 68.4791 27.5164C68.2819 27.7134 68.1713 27.9797 68.1713 28.2572C68.1713 28.2917 68.1713 28.3263 68.1713 28.3609L68.1833 29.0928L67.599 50.081C67.5878 50.1389 67.557 50.1908 67.5113 50.2287C67.4655 50.2662 67.4078 50.287 67.3485 50.287H60C59.7469 49.8405 59.466 49.4096 59.1589 48.9973L59.3655 49.0485C59.5433 49.0923 59.7296 49.0897 59.9063 49.0414C60.0829 48.9928 60.2441 48.9 60.3735 48.7716L66.4039 42.8019C66.546 42.6609 66.6446 42.4831 66.6889 42.2887C66.7328 42.0946 66.72 41.8919 66.6525 41.7045C66.5846 41.5167 66.4646 41.3523 66.306 41.2298C66.1478 41.107 65.9573 41.0316 65.7574 41.0116L61.6399 40.603L61.224 36.5237C61.2041 36.3253 61.128 36.1366 61.0039 35.9794C60.8801 35.8222 60.7136 35.7032 60.5239 35.6361C60.3341 35.569 60.1294 35.5566 59.9329 35.6004C59.7364 35.6442 59.5564 35.7424 59.4143 35.8834L58.8221 36.4696L58.6384 29.0778L58.6245 28.176C58.6204 27.8998 58.5064 27.6364 58.3076 27.4427C58.1089 27.249 57.8408 27.1404 57.5618 27.1404H57.5528C57.2726 27.1428 57.0045 27.2547 56.8073 27.4518C56.61 27.6488 56.499 27.915 56.499 28.1925C56.5065 28.5317 56.3801 28.8604 56.1465 29.1086C55.9129 29.3568 55.5904 29.5048 55.248 29.5212H55.2206C54.8824 29.5204 54.5576 29.387 54.3184 29.1502C54.0788 28.9134 53.9438 28.5923 53.9426 28.2572C53.9426 28.1519 53.9213 17.6594 53.9213 17.5151C53.9213 16.6381 54.273 15.7971 54.8996 15.177C55.5259 14.5569 56.3756 14.2085 57.2614 14.2085H60.1459L62.4596 18.4169C62.55 18.5812 62.6831 18.7188 62.8455 18.8152C63.0075 18.9116 63.1924 18.9635 63.3814 18.9654C63.5704 18.9674 63.7568 18.9195 63.9206 18.8265C64.0849 18.7335 64.221 18.5989 64.3148 18.4365L66.7609 14.2145C68.0378 14.2145 69.6349 14.225 69.8854 14.2325C70.7633 14.328 71.5676 14.7627 72.1234 15.4422C72.6791 16.1216 72.9416 16.9909 72.8535 17.8608L72.8565 17.8443Z" fill="#0C0C0C"/>
<path d="M6.14722 5.26071V6.93356C6.14722 8.32676 6.70627 9.66288 7.70137 10.648C8.69647 11.6332 10.0461 12.1866 11.4534 12.1866C12.8607 12.1866 14.2103 11.6332 15.2054 10.648C16.2005 9.66288 16.7596 8.32676 16.7596 6.93356V5.26071C16.6869 3.91613 16.0962 2.65029 15.109 1.72394C14.1219 0.797592 12.8135 0.28125 11.4534 0.28125C10.0932 0.28125 8.78489 0.797592 7.79774 1.72394C6.81063 2.65029 6.21989 3.91613 6.14722 5.26071ZM14.6341 5.26071V6.93356C14.6341 7.76868 14.2989 8.56959 13.7025 9.1601C13.106 9.75065 12.297 10.0824 11.4534 10.0824C10.6098 10.0824 9.80081 9.75065 9.20433 9.1601C8.60782 8.56959 8.27272 7.76868 8.27272 6.93356V5.26071C8.27272 4.42558 8.60782 3.62468 9.20433 3.03416C9.80081 2.44365 10.6098 2.1119 11.4534 2.1119C12.297 2.1119 13.106 2.44365 13.7025 3.03416C14.2989 3.62468 14.6341 4.42558 14.6341 5.26071Z" fill="#0C0C0C"/>
<path d="M18.2854 12.1223C18.2201 12.1148 18.085 12.1012 14.3578 12.0938C14.1702 12.0939 13.986 12.1432 13.8238 12.2366C13.6617 12.3301 13.5275 12.4644 13.4347 12.6258L11.6265 15.7431L9.92002 12.6423C9.8286 12.4762 9.6936 12.3376 9.52931 12.2411C9.36499 12.1446 9.17741 12.0936 8.98635 12.0938H5.46559C4.017 12.0969 2.62868 12.668 1.60438 13.6821C0.580076 14.6961 0.00320838 16.0705 0 17.5046C0 17.6549 0.0212551 27.8183 0.0227733 28.2497C0.0223743 28.6923 0.110062 29.1308 0.280829 29.54C0.451598 29.9492 0.702098 30.321 1.01804 30.6344C1.33397 30.9477 1.70915 31.1964 2.12215 31.3661C2.53516 31.5359 2.9779 31.6235 3.4251 31.6239H3.46458C3.91969 31.6196 4.3689 31.5218 4.78391 31.3368L5.34716 50.189C5.34566 50.2131 5.34566 50.2372 5.34716 50.2614C5.40285 50.8444 5.67671 51.3855 6.11497 51.7786C6.5532 52.172 7.12414 52.3887 7.71559 52.3865H15.5435C16.1361 52.3891 16.7082 52.172 17.1471 51.7778C17.586 51.3837 17.86 50.8411 17.915 50.2569C17.9165 50.2328 17.9165 50.2087 17.915 50.1845L18.4387 31.3579C18.9567 31.5765 19.5213 31.6646 20.0821 31.6143C20.6429 31.564 21.1823 31.3769 21.6522 31.0697C22.122 30.7626 22.5077 30.3449 22.7746 29.8541C23.0415 29.3632 23.1814 28.8146 23.1817 28.2572V18.0021C23.3138 16.5806 22.8732 15.165 21.9558 14.0637C21.0385 12.9624 19.7187 12.2646 18.2839 12.1223H18.2854ZM21.0623 17.8443C21.06 17.8798 21.06 17.9155 21.0623 17.951V28.2572C21.059 28.5869 20.9261 28.9024 20.6916 29.1366C20.4572 29.3708 20.1397 29.5054 19.8068 29.5116C19.4738 29.5179 19.1514 29.3954 18.9081 29.1701C18.6649 28.9449 18.5199 28.6346 18.504 28.3053V28.2391C18.4993 27.9632 18.3852 27.7002 18.1864 27.5068C17.9876 27.3134 17.72 27.205 17.4413 27.2051H17.4322C17.1519 27.2074 16.8839 27.3193 16.6866 27.5164C16.4892 27.7134 16.3785 27.9797 16.3785 28.2572C16.3785 28.2902 16.3785 28.3248 16.3785 28.3578L16.3907 29.0913L15.8062 50.0795C15.7955 50.1374 15.7645 50.1897 15.7187 50.2276C15.6729 50.2651 15.6152 50.2855 15.5557 50.2855H7.72013C7.66076 50.2859 7.60305 50.2658 7.55722 50.2283C7.5114 50.1908 7.48035 50.1389 7.46963 50.081L6.84262 29.0703L6.82894 28.1685C6.82455 27.8923 6.71066 27.6289 6.51184 27.4352C6.31301 27.2414 6.04519 27.1329 5.76619 27.1329C5.48565 27.1349 5.2173 27.2466 5.0196 27.4437C4.82194 27.6408 4.71101 27.9073 4.71105 28.185C4.71896 28.5245 4.59259 28.8535 4.35885 29.102C4.12515 29.3506 3.80261 29.4988 3.46002 29.5152H3.43269C3.0939 29.5164 2.7684 29.3847 2.52742 29.149C2.28643 28.9132 2.14957 28.5926 2.14676 28.2572C2.14676 28.1519 2.12551 17.6594 2.12551 17.5151C2.12791 16.6389 2.48058 15.7992 3.10645 15.1796C3.73232 14.56 4.58047 14.2108 5.46559 14.2085H8.3502L10.6639 18.4169C10.7544 18.5813 10.8876 18.7188 11.0496 18.8152C11.2117 18.9116 11.3968 18.9635 11.5858 18.9654C11.7748 18.9674 11.961 18.9195 12.1251 18.8265C12.2892 18.7335 12.4253 18.5989 12.5192 18.4365L14.9712 14.1995C16.2465 14.1995 17.8436 14.21 18.0957 14.2175C18.9741 14.3107 19.7795 14.7446 20.3355 15.4244C20.8915 16.1041 21.1528 16.9742 21.0623 17.8443Z" fill="#0C0C0C"/>
<path d="M54.1245 50.5482C54.0019 50.615 53.8942 50.7048 53.8069 50.8124C53.7195 50.9204 53.6546 51.0444 53.6156 51.1769C53.577 51.3097 53.5646 51.4489 53.58 51.5862C53.5954 51.7235 53.6381 51.8564 53.7052 51.9778C54.7511 53.8665 55.071 56.0662 54.6064 58.1705C54.1414 60.2748 52.9234 62.1413 51.1766 63.4258C49.4299 64.7103 47.2729 65.3256 45.1039 65.1582C42.9345 64.9908 40.8997 64.0522 39.375 62.5157C37.8506 60.9789 36.9391 58.948 36.8091 56.7977C36.6792 54.6477 37.3395 52.5233 38.6681 50.8176C39.9967 49.1119 41.904 47.9398 44.0374 47.5175C46.1711 47.0955 48.387 47.4518 50.2759 48.5206C50.5204 48.6602 50.811 48.6977 51.0836 48.6253C51.3562 48.5526 51.5884 48.3759 51.7294 48.1336C51.8704 47.8916 51.9082 47.6039 51.8351 47.3338C51.7616 47.0639 51.5831 46.8342 51.3386 46.6947C49.0057 45.3705 46.2675 44.927 43.6301 45.4458C40.9927 45.9646 38.634 47.411 36.9897 49.5175C35.3455 51.6241 34.527 54.2487 34.6852 56.906C34.8434 59.5637 35.9678 62.0748 37.8506 63.9754C39.7335 65.8764 42.2471 67.038 44.928 67.2466C47.6089 67.4552 50.2755 66.6966 52.4351 65.1103C54.5947 63.5241 56.1015 61.2175 56.6771 58.6173C57.2527 56.0168 56.8582 53.2979 55.5667 50.9631C55.4996 50.8421 55.4089 50.7352 55.2997 50.6487C55.1906 50.5623 55.0657 50.498 54.9315 50.4595C54.7976 50.4209 54.657 50.409 54.5182 50.4242C54.3795 50.4394 54.2452 50.4817 54.123 50.5482H54.1245Z" fill="#0C0C0C"/>
<path d="M45.8028 52.1816C44.9853 52.1816 44.1862 52.4214 43.5063 52.8712C42.8264 53.321 42.2966 53.9601 41.9834 54.708C41.6707 55.4558 41.5889 56.2786 41.7483 57.0728C41.9077 57.8667 42.3014 58.5959 42.8797 59.1682C43.4579 59.7405 44.1944 60.1302 44.9966 60.2883C45.7983 60.4461 46.6297 60.3651 47.3849 60.0552C48.1406 59.7457 48.7859 59.2209 49.2404 58.5481C49.6946 57.8748 49.9372 57.0836 49.9372 56.2741C49.9372 55.995 49.8251 55.7275 49.6259 55.5304C49.4264 55.3329 49.1561 55.222 48.8744 55.222C48.5924 55.222 48.3221 55.3329 48.1229 55.5304C47.9234 55.7275 47.8117 55.995 47.8117 56.2741C47.8117 56.6675 47.6939 57.052 47.4731 57.379C47.2526 57.706 46.9387 57.9609 46.5716 58.1113C46.2048 58.2619 45.8009 58.3013 45.4113 58.2244C45.0217 58.1476 44.6636 57.9583 44.3827 57.6804C44.1018 57.402 43.9106 57.048 43.8329 56.662C43.7553 56.2764 43.7954 55.8767 43.9473 55.5133C44.0992 55.15 44.3568 54.8393 44.6872 54.6207C45.0176 54.4025 45.4057 54.2856 45.8028 54.2856C46.0848 54.2856 46.3552 54.175 46.5543 53.9776C46.7538 53.7801 46.8656 53.5125 46.8656 53.2334C46.8656 52.9547 46.7538 52.6871 46.5543 52.4897C46.3552 52.2922 46.0848 52.1816 45.8028 52.1816Z" fill="#0C0C0C"/>
</g>
</g>
<defs>
<clipPath id="clip0_91_125">
<rect width="75" height="72" fill="white"/>
</clipPath>
</defs>
</svg>
