<svg width="85" height="85" viewBox="0 0 85 85" fill="none" xmlns="http://www.w3.org/2000/svg">
<g clip-path="url(#clip0_91_145)">
<path d="M69.8726 42.5326C69.8726 27.5314 57.6394 15.3291 42.6037 15.3291C27.5679 15.3291 15.3345 27.5314 15.3345 42.5326C15.3306 46.4451 16.1777 50.3118 17.8171 53.8644C17.8437 53.9502 17.8821 54.0322 17.9311 54.1079C20.1421 58.7816 23.6345 62.7316 28.0021 65.4983C32.3698 68.2655 37.4333 69.7356 42.6037 69.7377C57.6394 69.7377 69.8726 57.5304 69.8726 42.5326ZM42.6037 17.4023C56.4957 17.4023 67.7994 28.6752 67.7994 42.5326C67.802 45.6959 67.2031 48.8307 66.0357 51.7704C64.957 50.7763 63.5694 50.183 62.1053 50.0912C61.5749 50.0653 61.2914 50.4108 61.1048 50.6386C60.8111 50.9982 60.4495 51.2965 60.0406 51.5162C59.6318 51.736 59.1834 51.8728 58.7214 51.9191C58.2594 51.9655 57.7928 51.9204 57.3487 51.7865C56.9041 51.6522 56.4902 51.4321 56.131 51.138C55.9041 50.9527 55.7018 50.7398 55.528 50.5039C55.4281 50.37 55.2972 50.2625 55.1472 50.1894C54.9967 50.1163 54.8314 50.0802 54.6644 50.084C53.6252 50.1078 52.6086 50.3887 51.7047 50.9013C50.4632 49.5285 48.7339 48.6964 46.8864 48.5829C46.3458 48.548 46.059 48.8991 45.8499 49.1528C45.4465 49.6462 44.9357 50.0411 44.3568 50.3071C43.7776 50.5732 43.1452 50.7036 42.5081 50.6879C41.871 50.6726 41.2458 50.5115 40.6803 50.2179C40.1148 49.9238 39.6239 49.5047 39.245 48.9922C39.145 48.8583 39.0144 48.7503 38.8642 48.6768C38.7139 48.6037 38.5484 48.5672 38.3812 48.5706C37.4205 48.5982 36.4754 48.82 35.6032 49.2238C34.731 49.6275 33.9498 50.2038 33.3071 50.9187C32.4613 50.4346 31.5155 50.1524 30.5429 50.0929C30.0125 50.0687 29.7292 50.4125 29.5426 50.6403C29.202 51.0572 28.7707 51.3904 28.2817 51.6148C27.7927 51.8397 27.2588 51.9493 26.7208 51.9361C26.1828 51.923 25.655 51.7874 25.1775 51.5392C24.7 51.2906 24.2856 50.9365 23.9658 50.5039C23.8664 50.3696 23.7358 50.2612 23.5854 50.1881C23.435 50.115 23.2691 50.0793 23.102 50.084C21.6315 50.1231 20.2204 50.673 19.1111 51.6391C17.9775 48.7397 17.3974 45.6542 17.4008 42.5411C17.4076 28.6786 28.7116 17.4023 42.6037 17.4023ZM20.0164 53.6587C20.6949 52.8605 21.643 52.3399 22.6804 52.1954C23.687 53.2902 25.0873 53.9409 26.5734 54.0038C28.0595 54.0667 29.5096 53.5367 30.6051 52.5303C30.714 52.4304 30.8176 52.3267 30.9178 52.2196C31.3495 52.2957 31.7668 52.4385 32.1548 52.6429C31.7002 53.5877 31.464 54.6226 31.4637 55.6715V65.0716C26.5038 62.6198 22.4832 58.6112 20.0164 53.6587ZM33.5386 65.9803V55.6715C33.5464 54.4462 33.9979 53.2651 34.8094 52.3471C35.621 51.4291 36.7377 50.8362 37.9528 50.6786C39.0613 51.9145 40.6153 52.6595 42.2731 52.75C43.931 52.8405 45.5566 52.2685 46.7929 51.1605C46.9536 51.0164 47.1062 50.8639 47.2511 50.7045C48.4313 50.8949 49.5053 51.4997 50.2805 52.4096C51.0561 53.3195 51.4824 54.4755 51.4837 55.6715V66.0508C45.6956 68.2255 39.3109 68.2005 33.5404 65.9803H33.5386ZM53.5568 65.163V55.6715C53.5568 54.6183 53.3205 53.5788 52.8658 52.6289C53.2942 52.4062 53.7574 52.2591 54.236 52.1937C54.7341 52.736 55.3346 53.1754 56.0023 53.4857C56.6704 53.7964 57.3933 53.9723 58.1294 54.0038C58.8651 54.0348 59.6003 53.9209 60.2922 53.668C60.9841 53.4156 61.6195 53.0288 62.1622 52.5303C62.271 52.4304 62.3747 52.3267 62.475 52.2196C63.5205 52.4079 64.4593 52.9774 65.1096 53.8176C62.6038 58.7616 58.5455 62.7469 53.5568 65.163Z" fill="#0C0C0C"/>
<path d="M47.0815 6.65492C47.2868 6.65509 47.4874 6.59432 47.6583 6.48033C47.8287 6.36635 47.9617 6.20425 48.0403 6.01458C48.119 5.82494 48.1394 5.61627 48.099 5.41499C48.0586 5.21375 47.9596 5.029 47.8142 4.88412L43.2323 0.304129C43.0381 0.110011 42.7746 0.000976567 42.4999 0.000976562C42.2252 0.000976567 41.9618 0.110011 41.7674 0.304129L37.1857 4.88412C36.9896 5.07703 36.8781 5.33993 36.8759 5.61499C36.8736 5.89005 36.9807 6.15478 37.1736 6.35088C37.3665 6.54697 37.6294 6.65845 37.9045 6.6607C38.1796 6.66296 38.4443 6.55586 38.6404 6.36299L38.6525 6.35088L41.3009 3.70067V12.2128C41.3009 12.4877 41.4102 12.7513 41.6046 12.9457C41.799 13.1401 42.0626 13.2494 42.3375 13.2494C42.6127 13.2494 42.8762 13.1401 43.0704 12.9457C43.265 12.7513 43.3743 12.4877 43.3743 12.2128V3.46572C43.376 3.43464 43.376 3.4035 43.3743 3.37242L46.3527 6.35088C46.546 6.54447 46.8078 6.65378 47.0815 6.65492Z" fill="#0C0C0C"/>
<path d="M37.1856 78.6496C37.0892 78.7456 37.0127 78.86 36.9606 78.9862C36.9084 79.112 36.8816 79.2467 36.8816 79.3831C36.8816 79.5191 36.9084 79.6539 36.9606 79.7801C37.0127 79.9059 37.0892 80.0202 37.1856 80.1163L41.7673 84.6965C41.9617 84.8903 42.2251 84.9995 42.4998 84.9995C42.7745 84.9995 43.038 84.8903 43.2322 84.6965L47.8142 80.1163C48.0084 79.9216 48.118 79.6581 48.118 79.3831C48.118 79.1077 48.0084 78.8442 47.8142 78.6496C47.6195 78.4549 47.3556 78.3457 47.0806 78.3457C46.8056 78.3457 46.5417 78.4549 46.3475 78.6496L43.6989 81.2999V72.7876C43.6989 72.5126 43.5897 72.2491 43.395 72.0548C43.2008 71.8602 42.9373 71.751 42.6623 71.751C42.3873 71.751 42.1236 71.8602 41.9292 72.0548C41.7348 72.2491 41.6257 72.5126 41.6257 72.7876V81.5349C41.6257 81.5659 41.6257 81.597 41.6257 81.628L38.6489 78.6496C38.4546 78.4558 38.1915 78.3474 37.9173 78.3474C37.643 78.3474 37.3799 78.4558 37.1856 78.6496Z" fill="#0C0C0C"/>
<path d="M5.61823 48.1179C5.82346 48.1179 6.02414 48.0571 6.19482 47.9432C6.36546 47.8293 6.49849 47.6674 6.5769 47.4774C6.65535 47.2878 6.67575 47.0792 6.63551 46.8781C6.59522 46.6767 6.49615 46.4918 6.35076 46.3469L3.70055 43.6987H12.2127C12.4875 43.6987 12.7512 43.5895 12.9456 43.3948C13.14 43.2006 13.2492 42.9371 13.2492 42.6621C13.2492 42.3871 13.14 42.1234 12.9456 41.929C12.7512 41.7346 12.4875 41.6254 12.2127 41.6254H3.46559H3.3723L6.35076 38.6487C6.44787 38.5532 6.52518 38.4395 6.57834 38.314C6.63151 38.1887 6.65948 38.054 6.66058 37.9178C6.66169 37.7816 6.63597 37.6465 6.58489 37.5203C6.5338 37.394 6.45837 37.279 6.36287 37.1819C6.26733 37.0848 6.15364 37.0075 6.02822 36.9543C5.90281 36.9012 5.76817 36.8732 5.63195 36.8721C5.49578 36.871 5.36068 36.8967 5.23441 36.9478C5.10814 36.9988 4.99318 37.0743 4.89607 37.1698L4.884 37.1819L0.304007 41.7671C0.109889 41.9614 0.000854496 42.2249 0.000854492 42.4996C0.000854492 42.7743 0.109889 43.0378 0.304007 43.2321L4.884 47.814C4.98034 47.9105 5.09484 47.987 5.22081 48.0392C5.34682 48.0911 5.48184 48.1179 5.61823 48.1179Z" fill="#0C0C0C"/>
<path d="M80.1159 37.1858C79.9229 36.9897 79.6603 36.8783 79.3849 36.876C79.1099 36.8737 78.8451 36.9808 78.6492 37.1737C78.4529 37.3666 78.3415 37.6295 78.3394 37.9046C78.3373 38.1797 78.4444 38.4444 78.6369 38.6405C78.6416 38.6441 78.6454 38.6481 78.6492 38.6526L81.2995 41.3011H72.7872C72.5122 41.3011 72.2487 41.4103 72.0545 41.6047C71.8598 41.7991 71.7506 42.0628 71.7506 42.3376C71.7506 42.6124 71.8598 42.8763 72.0545 43.0705C72.2487 43.2652 72.5122 43.3744 72.7872 43.3744H81.5345C81.5656 43.3761 81.5966 43.3761 81.6276 43.3744L78.6492 46.3528C78.4529 46.5453 78.3415 46.808 78.339 47.0829C78.3368 47.3579 78.4435 47.6227 78.636 47.8186C78.829 48.0145 79.0916 48.1263 79.3666 48.1289C79.6416 48.131 79.9059 48.0243 80.1023 47.8314L80.1159 47.8195L84.6961 43.238C84.8899 43.0433 84.9991 42.7798 84.9991 42.5053C84.9991 42.2305 84.8899 41.9671 84.6961 41.7727L80.1159 37.1858Z" fill="#0C0C0C"/>
<path d="M13.1798 20.6954C13.4547 20.6954 13.7183 20.5861 13.9127 20.3917C14.1071 20.1973 14.2163 19.9337 14.2163 19.6588V15.9115L20.2354 21.9306C20.432 22.1137 20.6918 22.2134 20.9604 22.2087C21.229 22.2039 21.4852 22.0951 21.6751 21.9053C21.865 21.7153 21.9738 21.4591 21.9785 21.1905C21.9833 20.922 21.8836 20.6621 21.7005 20.4656L15.5155 14.2806C15.4914 14.2579 15.4661 14.2366 15.4395 14.2167H19.6584C19.9334 14.2167 20.197 14.1075 20.3914 13.9131C20.5858 13.7187 20.695 13.455 20.695 13.1801C20.695 12.9052 20.5858 12.6415 20.3914 12.4471C20.197 12.2527 19.9334 12.1436 19.6584 12.1436H13.1798C12.9048 12.1436 12.6412 12.2527 12.4468 12.4471C12.2524 12.6415 12.1432 12.9052 12.1432 13.1801V19.6588C12.1432 19.9337 12.2524 20.1973 12.4468 20.3917C12.6412 20.5861 12.9048 20.6954 13.1798 20.6954Z" fill="#0C0C0C"/>
<path d="M64.3046 71.8202C64.3046 72.0947 64.4139 72.3586 64.6081 72.5529C64.8023 72.7475 65.0662 72.8567 65.3412 72.8567H71.8199C72.0945 72.8567 72.3584 72.7475 72.5526 72.5529C72.7473 72.3586 72.8565 72.0947 72.8565 71.8202V65.3415C72.8565 65.0665 72.7473 64.8026 72.5526 64.6083C72.3584 64.4141 72.0945 64.3049 71.8199 64.3049C71.5449 64.3049 71.281 64.4141 71.0868 64.6083C70.8926 64.8026 70.7833 65.0665 70.7833 65.3415V69.0887L64.7641 63.0694C64.5694 62.8777 64.3063 62.7706 64.0331 62.7715C63.7594 62.7723 63.4976 62.8811 63.3042 63.0745C63.1104 63.2679 63.0012 63.5297 62.9999 63.803C62.9986 64.0767 63.1057 64.3393 63.2974 64.5344L69.4824 70.7194C69.5071 70.7424 69.533 70.7636 69.5602 70.7836H65.3412C65.0662 70.7836 64.8023 70.8928 64.6081 71.087C64.4139 71.2813 64.3046 71.5452 64.3046 71.8202Z" fill="#0C0C0C"/>
<path d="M72.8564 19.6588V13.1801C72.8564 12.9052 72.7472 12.6415 72.5526 12.4471C72.3583 12.2527 72.0944 12.1436 71.8199 12.1436H65.3412C65.0662 12.1436 64.8022 12.2527 64.608 12.4471C64.4138 12.6415 64.3046 12.9052 64.3046 13.1801C64.3046 13.455 64.4138 13.7187 64.608 13.9131C64.8022 14.1075 65.0662 14.2167 65.3412 14.2167H69.0884L63.0691 20.2358C62.9718 20.3308 62.8936 20.444 62.84 20.5691C62.786 20.6941 62.7576 20.8285 62.7555 20.9646C62.7538 21.1008 62.7788 21.2359 62.829 21.3624C62.8795 21.4888 62.9543 21.6041 63.0491 21.7017C63.1443 21.7993 63.2574 21.8772 63.3823 21.931C63.5077 21.9848 63.642 22.0134 63.778 22.0152C63.9144 22.0171 64.0496 21.9921 64.1758 21.9417C64.3025 21.8914 64.4176 21.8165 64.5154 21.7216L64.5341 21.7009L70.7191 15.5159C70.7433 15.4934 70.7608 15.4641 70.7829 15.4399V19.6588C70.7829 19.9337 70.8921 20.1973 71.0867 20.3917C71.281 20.5861 71.5449 20.6954 71.8199 20.6954C72.0944 20.6954 72.3583 20.5861 72.5526 20.3917C72.7472 20.1973 72.8564 19.9337 72.8564 19.6588Z" fill="#0C0C0C"/>
<path d="M21.9303 63.299C21.7359 63.1048 21.4724 62.996 21.1977 62.996C20.9231 62.996 20.6596 63.1048 20.4652 63.299L14.2803 69.484C14.2575 69.5082 14.2362 69.5333 14.2163 69.5601V65.3411C14.2163 65.0661 14.1071 64.8026 13.9127 64.608C13.7183 64.4138 13.4547 64.3045 13.1798 64.3045C12.9048 64.3045 12.6412 64.4138 12.4468 64.608C12.2524 64.8026 12.1432 65.0661 12.1432 65.3411V71.8198C12.1432 72.0948 12.2524 72.3583 12.4468 72.5529C12.6412 72.7472 12.9048 72.8564 13.1798 72.8564H19.6584C19.9334 72.8564 20.197 72.7472 20.3914 72.5529C20.5858 72.3583 20.695 72.0948 20.695 71.8198C20.695 71.5448 20.5858 71.2813 20.3914 71.0867C20.197 70.8925 19.9334 70.7832 19.6584 70.7832H15.9112L21.9303 64.764C22.5021 64.764 22.9669 64.6033 22.9669 64.0317C22.9669 63.7567 22.8577 63.4928 22.6633 63.2986C22.4689 63.1043 22.2052 62.9951 21.9303 62.9951V63.299Z" fill="#0C0C0C"/>
<path d="M42.5102 48.6209C44.2144 48.6196 45.8485 47.9422 47.0534 46.7369C48.2583 45.532 48.9357 43.8983 48.937 42.1941V39.499C48.9094 37.8125 48.22 36.2045 47.0177 35.0216C45.8154 33.8387 44.1961 33.1758 42.5093 33.1758C40.8228 33.1758 39.2037 33.8387 38.0012 35.0216C36.7988 36.2045 36.1095 37.8125 36.0818 39.499V42.1941C36.0841 43.8983 36.7622 45.532 37.9673 46.7365C39.1725 47.9413 40.8063 48.6192 42.5102 48.6209ZM38.1567 39.4972C38.1794 38.3574 38.6481 37.2718 39.4623 36.4737C40.2765 35.6756 41.3711 35.2286 42.511 35.2286C43.6513 35.2286 44.7461 35.6756 45.56 36.4737C46.3743 37.2718 46.843 38.3574 46.8656 39.4972V42.1924C46.8775 42.7716 46.7733 43.3471 46.5596 43.8856C46.3458 44.424 46.027 44.9145 45.6216 45.328C45.2161 45.7415 44.7321 46.0701 44.1978 46.2945C43.664 46.5189 43.0903 46.6345 42.511 46.6345C41.932 46.6345 41.3585 46.5189 40.8245 46.2945C40.2904 46.0701 39.8065 45.7415 39.401 45.328C38.9955 44.9145 38.6766 44.424 38.4629 43.8856C38.2493 43.3471 38.1452 42.7716 38.1567 42.1924V39.4972Z" fill="#0C0C0C"/>
<path d="M58.2786 50.3846C59.8044 50.3833 61.2676 49.7768 62.3467 48.6978C63.4258 47.6191 64.0331 46.1558 64.0348 44.6301V42.2701C64.0089 40.7609 63.3909 39.3223 62.3144 38.2642C61.2379 37.2062 59.7886 36.6133 58.2795 36.6133C56.7699 36.6133 55.3206 37.2062 54.2441 38.2642C53.1676 39.3223 52.5496 40.7609 52.5237 42.2701V44.6301C52.525 46.1558 53.1319 47.6187 54.2105 48.6978C55.2896 49.7768 56.7524 50.3833 58.2786 50.3846ZM54.5968 42.2649C54.6177 41.3021 55.015 40.3857 55.7031 39.7121C56.3916 39.0385 57.3164 38.6613 58.2795 38.6613C59.2425 38.6613 60.1673 39.0385 60.8554 39.7121C61.5439 40.3857 61.9408 41.3021 61.9617 42.2649V44.625C61.9604 45.6012 61.5719 46.5371 60.8813 47.2273C60.1907 47.9175 59.2548 48.3055 58.2786 48.3063C57.3028 48.3063 56.3665 47.9196 55.6759 47.2302C54.9849 46.5409 54.5956 45.6059 54.5934 44.6301L54.5968 42.2649Z" fill="#0C0C0C"/>
<path d="M26.7212 50.3846C28.2476 50.3842 29.7115 49.7781 30.7912 48.699C31.8708 47.62 32.478 46.1563 32.4794 44.6301V42.2701C32.4533 40.7609 31.8354 39.3223 30.7588 38.2642C29.6823 37.2062 28.2332 36.6133 26.7238 36.6133C25.2144 36.6133 23.7653 37.2062 22.6888 38.2642C21.6122 39.3223 20.9943 40.7609 20.9681 42.2701V44.6301C20.97 46.1554 21.5766 47.6178 22.6551 48.6965C23.7335 49.7756 25.1958 50.3825 26.7212 50.3846ZM23.0378 42.2649C23.0587 41.3021 23.4558 40.3857 24.1442 39.7121C24.8325 39.0385 25.7573 38.6613 26.7203 38.6613C27.6834 38.6613 28.6082 39.0385 29.2965 39.7121C29.9848 40.3857 30.3819 41.3021 30.4028 42.2649V44.625C30.4019 45.6008 30.0137 46.5371 29.3235 47.2273C28.6332 47.9175 27.6973 48.3055 26.7212 48.3063C25.7449 48.3055 24.8088 47.9175 24.1183 47.2273C23.4278 46.5371 23.0392 45.6012 23.0378 44.625V42.2649Z" fill="#0C0C0C"/>
</g>
<defs>
<clipPath id="clip0_91_145">
<rect width="85" height="85" fill="white"/>
</clipPath>
</defs>
</svg>
