<svg width="71" height="86" viewBox="0 0 71 86" fill="none" xmlns="http://www.w3.org/2000/svg">
<g clip-path="url(#clip0_91_92)">
<mask id="mask0_91_92" style="mask-type:luminance" maskUnits="userSpaceOnUse" x="0" y="0" width="71" height="86">
<path d="M71 0H0V85.8904H71V0Z" fill="white"/>
</mask>
<g mask="url(#mask0_91_92)">
<path d="M0.830561 30.2503L9.54183 31.9818C9.67503 32.0082 9.81216 32.0084 9.9454 31.9822C10.0786 31.9559 10.2053 31.9038 10.3183 31.8289C10.4313 31.7538 10.5283 31.6574 10.6039 31.5452C10.6794 31.4329 10.7319 31.3069 10.7585 31.1743L11.6046 26.9638L13.7088 27.221C14.6071 28.5764 15.793 29.7197 17.1831 30.5704C18.5731 31.4209 20.1336 31.9583 21.7549 32.1447L20.3763 46.3022C20.3499 46.5736 20.4328 46.8443 20.607 47.0547C20.7812 47.2655 21.0323 47.3987 21.3051 47.4251C21.3384 47.4265 21.3718 47.4265 21.405 47.4251C21.4302 47.4265 21.4557 47.4265 21.4809 47.4251C23.635 47.2676 25.6664 46.367 27.2246 44.879C26.124 47.8357 26.2257 51.103 27.5078 53.9865C28.7899 56.8703 31.1519 59.1426 34.0915 60.3212C37.0313 61.4999 40.3168 61.4921 43.2505 60.2994C46.1846 59.1063 48.535 56.8224 49.8034 53.9329C50.0775 53.258 50.2894 52.5594 50.4357 51.8464C51.0193 49.0165 50.5667 46.072 49.1588 43.5453C50.2433 44.3002 51.4531 44.8592 52.7329 45.1962C52.9015 45.2413 53.079 45.243 53.2484 45.2011C53.4181 45.1595 53.5743 45.0756 53.7021 44.9579C53.8302 44.8398 53.9264 44.6915 53.9814 44.5265C54.0365 44.3619 54.0485 44.1857 54.0169 44.0151L51.3853 29.868L56.0383 35.2579C57.234 36.6494 58.8705 37.5943 60.6782 37.9373C62.4858 38.2799 64.357 38 65.9833 37.1439C66.1036 37.0812 66.2105 36.9955 66.2975 36.8919C66.3844 36.7883 66.4501 36.6684 66.4906 36.5394C66.5311 36.4104 66.5456 36.2747 66.5332 36.1401C66.5211 36.0058 66.4824 35.8747 66.4196 35.7552C66.3891 35.6946 66.3525 35.6371 66.311 35.5839L58.7129 26.1392L61.5909 27.3496C62.5 27.7608 63.4869 27.9736 64.4859 27.9736C65.8313 27.9746 67.1495 27.5944 68.2858 26.8773C69.4222 26.1601 70.3296 25.1358 70.9018 23.9242C70.9597 23.8017 70.993 23.6688 70.9991 23.5333C71.0055 23.3979 70.9849 23.2625 70.9387 23.1351C70.8922 23.0077 70.8209 22.8906 70.7286 22.7907C70.6366 22.6907 70.5255 22.6098 70.402 22.5527L70.3331 22.5236L53.9719 16.3484L59.8606 15.2717C61.692 14.9613 63.3275 13.9469 64.4138 12.4474C65.5005 10.948 65.951 9.08382 65.668 7.25703C65.6471 7.12348 65.5999 6.99539 65.5289 6.88003C65.4582 6.76468 65.3652 6.66433 65.2555 6.58471C65.1458 6.50509 65.0212 6.44778 64.8892 6.41609C64.7571 6.38434 64.6201 6.37884 64.4859 6.39981L64.4273 6.4101L41.4641 11.3818C40.5791 10.7269 39.5493 10.2924 38.4605 10.1149L23.4678 7.35815C21.9234 7.07583 20.3327 7.17772 18.8373 7.65474L18.5874 7.73531H15.47L16.4282 2.96592C16.4548 2.83343 16.4549 2.69702 16.4285 2.56448C16.4021 2.43192 16.3497 2.30586 16.2744 2.19347C16.199 2.08106 16.1021 1.98454 15.9892 1.90942C15.8763 1.83427 15.7497 1.782 15.6165 1.75557L6.90692 0.0206127C6.77347 -0.00636851 6.63601 -0.00686653 6.50239 0.019147C6.36877 0.0451606 6.24161 0.0971737 6.12826 0.172201C6.01491 0.247227 5.91753 0.343788 5.84177 0.456343C5.76602 0.568901 5.71337 0.695233 5.68682 0.828085L0.0206108 29.0399C-0.0331893 29.3072 0.0219003 29.585 0.173774 29.8119C0.325649 30.0389 0.561879 30.1965 0.830561 30.2503ZM48.4126 51.4315C47.8928 53.9611 46.4157 56.1957 44.2871 57.6725C42.1585 59.15 39.5408 59.7573 36.9748 59.3689C34.4089 58.9805 32.0909 57.6267 30.4999 55.5863C28.9092 53.5463 28.1669 50.9761 28.4267 48.4071C28.6863 45.838 29.9283 43.4663 31.8958 41.7823C33.8633 40.0986 36.4057 39.2308 38.998 39.3587C41.5905 39.4867 44.0343 40.6005 45.8243 42.4696C47.6149 44.339 48.6149 46.8214 48.6178 49.4035C48.6185 50.0844 48.5499 50.764 48.4126 51.4315ZM29.5942 41.164C29.8075 40.5391 29.9526 39.8931 30.0267 39.2371L30.7677 32.695C30.9935 30.7063 31.3002 28.7022 31.6794 26.7375C32.2837 25.7053 33.1857 24.8776 34.2686 24.3616C35.3515 23.8455 36.5651 23.6652 37.7526 23.8436C38.9397 24.0221 40.0456 24.5513 40.9267 25.3626C41.8081 26.174 42.4241 27.2299 42.6946 28.3936L44.6801 36.9194C44.8991 37.8657 45.2421 38.7789 45.7 39.6365C43.2956 37.8788 40.3249 37.0632 37.3543 37.3448C34.3839 37.6264 31.6217 38.9858 29.5942 41.164ZM63.8277 35.7982C62.718 36.1077 61.5422 36.095 60.4396 35.7605C59.3373 35.4264 58.354 34.785 57.6063 33.9122L51.5266 26.8713L50.6444 25.8649L50.0172 22.491L54.7216 24.4694L63.8277 35.7982ZM68.4392 24.0219C67.7466 24.8977 66.7792 25.5172 65.6911 25.7816C64.603 26.0461 63.4571 25.9402 62.4368 25.4809L62.4109 25.4706L49.5173 20.0583C49.2415 19.1005 48.7853 18.2033 48.1729 17.4147L50.0498 17.0718L68.4392 24.0219ZM59.5123 13.2385H59.4953L46.3738 15.6386L43.4273 13.0705L63.6758 8.67994C63.5973 9.79455 63.1444 10.8505 62.39 11.6782C61.6356 12.5058 60.6231 13.0572 59.5159 13.2436L59.5123 13.2385ZM18.746 9.78916C18.8535 9.78965 18.9606 9.77348 19.0631 9.74116L19.4698 9.61085C20.6382 9.23693 21.8816 9.15681 23.0887 9.3777L38.0952 12.1362H38.114C39.009 12.282 39.845 12.6746 40.5269 13.2693L45.7916 17.8656C46.7643 18.7177 47.4218 19.8692 47.6596 21.1367L51.6473 42.6162C50.4116 42.0244 49.3253 41.1637 48.469 40.0979C47.6127 39.0317 47.0089 37.7878 46.7015 36.458L44.7163 27.9342C44.3492 26.3499 43.5068 24.914 42.3009 23.8169C41.0946 22.7199 39.5816 22.0136 37.9628 21.7916C36.344 21.5695 34.6953 21.8423 33.2358 22.5738C31.7762 23.3052 30.5747 24.4608 29.7906 25.8872C29.7382 25.9801 29.7015 26.0807 29.6821 26.1855C29.2771 28.2582 28.9514 30.372 28.7136 32.4704L27.9725 39.0109C27.8073 40.4651 27.2005 41.8351 26.2327 42.9376C25.2651 44.0405 23.9826 44.8233 22.5562 45.1824L23.9159 31.2961C23.9423 31.0247 23.8594 30.7538 23.6851 30.5433C23.5109 30.3328 23.2598 30.1995 22.987 30.1731C22.96 30.1714 22.9331 30.1714 22.9061 30.1731C21.3491 30.1481 19.8243 29.7276 18.4767 28.9513C17.129 28.175 16.0033 27.0689 15.2064 25.738C15.1256 25.6045 15.0153 25.491 14.884 25.406C14.7526 25.3211 14.6036 25.2669 14.4481 25.2477L12.0114 24.9408L15.0564 9.78916H18.746ZM7.51524 2.24588L14.1965 3.57453L8.93354 29.7634L2.25056 28.4348L7.51524 2.24588Z" fill="#0C0C0C"/>
<path d="M12.6095 7.41651C12.6095 6.893 12.4535 6.38123 12.1611 5.94594C11.8687 5.51062 11.4532 5.17135 10.967 4.97101C10.4808 4.77067 9.94578 4.71826 9.42965 4.8204C8.91351 4.92251 8.43941 5.17462 8.0673 5.54481C7.69515 5.915 7.44175 6.38666 7.33909 6.90012C7.23642 7.41358 7.28914 7.9458 7.49049 8.42948C7.69188 8.91316 8.03293 9.32656 8.47051 9.61744C8.90804 9.90829 9.42251 10.0635 9.94873 10.0635C10.2982 10.0638 10.6443 9.99545 10.9673 9.8625C11.2902 9.72956 11.5836 9.53458 11.8307 9.28874C12.0778 9.0429 12.2738 8.75099 12.4075 8.42976C12.5411 8.10849 12.6097 7.76421 12.6095 7.41651ZM9.35765 7.41651C9.35765 7.29981 9.39248 7.18572 9.45765 7.08869C9.5229 6.99169 9.61556 6.91609 9.72401 6.8715C9.83243 6.82692 9.95171 6.81536 10.0668 6.83823C10.1818 6.86114 10.2874 6.91746 10.3703 7.00011C10.4531 7.08277 10.5094 7.18801 10.5321 7.30252C10.5548 7.41704 10.5428 7.53568 10.4977 7.64342C10.4525 7.75113 10.3763 7.84313 10.2786 7.9077C10.1809 7.9723 10.0661 8.00663 9.94873 8.00628C9.79182 8.00582 9.64147 7.94351 9.53068 7.83294C9.41988 7.72237 9.35765 7.57265 9.35765 7.41651Z" fill="#0C0C0C"/>
<path d="M38.8104 64.855C33.5105 64.861 28.4293 66.9581 24.6818 70.6864C20.9342 74.4144 18.8261 79.4693 18.8202 84.7418C18.8202 85.0146 18.9291 85.2765 19.123 85.4693C19.317 85.662 19.58 85.7706 19.8542 85.7706H57.7667C58.0411 85.7706 58.3038 85.662 58.498 85.4693C58.6918 85.2765 58.8008 85.0146 58.8008 84.7418C58.7948 79.4693 56.6868 74.4144 52.939 70.6864C49.1916 66.9581 44.1105 64.861 38.8104 64.855ZM20.9175 83.7133C21.1791 79.1683 23.1781 74.8951 26.5049 71.7699C29.8319 68.6439 34.2344 66.9028 38.8104 66.9028C43.3867 66.9028 47.789 68.6439 51.1161 71.7699C54.4428 74.8951 56.4418 79.1683 56.7034 83.7133H20.9175Z" fill="#0C0C0C"/>
</g>
</g>
<defs>
<clipPath id="clip0_91_92">
<rect width="71" height="86" fill="white"/>
</clipPath>
</defs>
</svg>
