<svg width="77" height="77" viewBox="0 0 77 77" fill="none" xmlns="http://www.w3.org/2000/svg">
<g clip-path="url(#clip0_91_100)">
<mask id="mask0_91_100" style="mask-type:luminance" maskUnits="userSpaceOnUse" x="0" y="0" width="77" height="77">
<path d="M77 0H0V77H77V0Z" fill="white"/>
</mask>
<g mask="url(#mask0_91_100)">
<path d="M42.6518 5.99298C42.8339 5.99283 43.0117 5.93877 43.1627 5.83763C43.314 5.73649 43.4318 5.59281 43.5015 5.42472C43.5711 5.25667 43.5892 5.07175 43.5538 4.89334C43.5184 4.71494 43.4306 4.551 43.3024 4.4223L39.1502 0.270127C38.9773 0.0977813 38.7436 0.000976566 38.4997 0.000976562C38.2558 0.000976562 38.0219 0.0977813 37.8494 0.270127L33.6972 4.4223C33.5346 4.59678 33.4461 4.82751 33.4503 5.06594C33.4545 5.30437 33.5511 5.53183 33.7197 5.70046C33.8884 5.86909 34.1159 5.96568 34.3543 5.96988C34.5927 5.97408 34.8234 5.88557 34.9979 5.72302L37.426 3.28877V11.044C37.426 11.2881 37.523 11.5222 37.6956 11.6948C37.8682 11.8674 38.1023 11.9643 38.3463 11.9643C38.5904 11.9643 38.8245 11.8674 38.997 11.6948C39.1698 11.5222 39.2665 11.2881 39.2665 11.044V3.12158C39.2668 3.07535 39.2634 3.02917 39.2561 2.98353L41.9953 5.72302C42.0816 5.80922 42.184 5.87748 42.2964 5.92384C42.4092 5.97019 42.5301 5.99367 42.6518 5.99298Z" fill="#0C0C0C"/>
<path d="M33.6973 71.2774C33.5249 71.4502 33.4281 71.6839 33.4281 71.928C33.4281 72.1717 33.5249 72.4058 33.6973 72.5783L37.8494 76.7305C38.022 76.9026 38.2559 76.9996 38.4998 76.9996C38.7437 76.9996 38.9774 76.9026 39.1503 76.7305L43.3021 72.5783C43.465 72.4039 43.5535 72.1729 43.5493 71.9346C43.5451 71.6962 43.4484 71.4687 43.2798 71.3001C43.1112 71.1315 42.8836 71.0348 42.6453 71.0306C42.4066 71.0264 42.176 71.1149 42.0016 71.2774L39.5734 73.7117V65.9567C39.5734 65.7126 39.4764 65.4785 39.3039 65.3056C39.1314 65.1332 38.8973 65.0361 38.6532 65.0361C38.4091 65.0361 38.175 65.1332 38.0024 65.3056C37.8298 65.4785 37.7328 65.7126 37.7328 65.9567V73.8834C37.7325 73.93 37.7361 73.9758 37.7436 74.0216L35.0041 71.2835C34.9189 71.1969 34.8175 71.128 34.7055 71.081C34.5936 71.0337 34.4735 71.009 34.3519 71.0083C34.2304 71.0079 34.1101 71.0314 33.9977 71.0776C33.8853 71.1238 33.7832 71.1915 33.6973 71.2774Z" fill="#0C0C0C"/>
<path d="M5.07239 43.5727C5.25431 43.5727 5.4321 43.5188 5.58329 43.4176C5.73448 43.3163 5.85233 43.1727 5.9219 43.0045C5.99151 42.8366 6.00972 42.6518 5.9743 42.4732C5.93884 42.2949 5.85133 42.1309 5.72277 42.0023L3.28853 39.5741H11.0437C11.2878 39.5741 11.5219 39.4771 11.6945 39.3046C11.8671 39.1322 11.964 38.8981 11.964 38.654C11.964 38.4097 11.8671 38.1756 11.6945 38.003C11.5219 37.8304 11.2878 37.7335 11.0437 37.7335H3.12134C3.0751 37.7333 3.02893 37.7368 2.98329 37.7442L5.72277 35.0047C5.88532 34.8303 5.97383 34.5995 5.96964 34.3611C5.96544 34.1227 5.86884 33.8952 5.70021 33.7266C5.53158 33.558 5.30413 33.4614 5.0657 33.4572C4.82726 33.4529 4.59653 33.5415 4.42205 33.704L0.269883 37.8501C0.0975372 38.0226 0.000732426 38.2565 0.000732422 38.5004C0.000732426 38.7445 0.0975372 38.9782 0.269883 39.1506L4.42205 43.3029C4.59449 43.4757 4.82842 43.5727 5.07239 43.5727Z" fill="#0C0C0C"/>
<path d="M76.7296 37.8494L72.5774 33.6972C72.403 33.5347 72.1724 33.4461 71.9341 33.4503C71.6954 33.4546 71.4682 33.5512 71.2996 33.7198C71.131 33.8884 71.0343 34.1159 71.0301 34.3543C71.0259 34.5927 71.1144 34.8235 71.2769 34.9979L73.7112 37.426H65.9558C65.7117 37.426 65.4776 37.523 65.3051 37.6956C65.1327 37.8682 65.0356 38.1023 65.0356 38.3464C65.0356 38.5906 65.1327 38.8247 65.3051 38.9972C65.4776 39.1697 65.7117 39.2667 65.9558 39.2667H73.8829C73.9291 39.2671 73.9753 39.2636 74.0208 39.2559L71.283 41.9956C71.1206 42.17 71.032 42.4006 71.0363 42.6389C71.0405 42.8776 71.1371 43.1051 71.3058 43.2738C71.474 43.4424 71.7015 43.5386 71.9402 43.5429C72.1786 43.5471 72.4092 43.4586 72.5836 43.2961L76.7358 39.1439C76.9083 38.9714 77.0049 38.7373 77.0049 38.4936C77.0049 38.2497 76.9083 38.0158 76.7358 37.8433L76.7296 37.8494Z" fill="#0C0C0C"/>
<path d="M18.7132 11.9271C18.7132 11.683 18.6163 11.449 18.4437 11.2764C18.2711 11.1038 18.037 11.0068 17.7929 11.0068H11.9274C11.6833 11.0068 11.4493 11.1038 11.2767 11.2764C11.1041 11.449 11.0071 11.683 11.0071 11.9271V17.7926C11.0071 18.0367 11.1041 18.2708 11.2767 18.4434C11.4493 18.616 11.6833 18.713 11.9274 18.713C12.1715 18.713 12.4056 18.616 12.5782 18.4434C12.7508 18.2708 12.8477 18.0367 12.8477 17.7926V14.3568L18.3344 19.8434C18.5073 20.0138 18.7406 20.1089 18.9834 20.1081C19.2262 20.1072 19.4588 20.0105 19.6306 19.8389C19.8024 19.6673 19.8994 19.4348 19.9005 19.1921C19.9017 18.9493 19.8068 18.7158 19.6366 18.5427L14.0319 12.9364C13.9972 12.9042 13.9603 12.8745 13.9215 12.8474H17.7929C18.037 12.8474 18.2711 12.7505 18.4437 12.5779C18.6163 12.4053 18.7132 12.1712 18.7132 11.9271Z" fill="#0C0C0C"/>
<path d="M58.2871 65.0726C58.2871 65.3167 58.3837 65.5507 58.5566 65.7232C58.729 65.8957 58.9631 65.9927 59.2072 65.9927H65.0788C65.3229 65.9927 65.557 65.8957 65.7295 65.7232C65.9024 65.5507 65.999 65.3167 65.999 65.0726V59.2071C65.999 58.963 65.9024 58.7289 65.7295 58.556C65.557 58.3836 65.3229 58.2865 65.0788 58.2865C64.8347 58.2865 64.6007 58.3836 64.4282 58.556C64.2553 58.7289 64.1587 58.963 64.1587 59.2071V62.6428L58.6721 57.1546C58.4992 56.9818 58.2651 56.8848 58.0206 56.8848C57.7765 56.8848 57.5425 56.9818 57.3696 57.1546C57.1971 57.3271 57.1001 57.5616 57.1001 57.8057C57.1001 58.0502 57.1971 58.2842 57.3696 58.4567L62.9744 64.0615C63.0091 64.0943 63.046 64.1247 63.0849 64.152H59.2072C58.9631 64.152 58.729 64.249 58.5566 64.4215C58.3837 64.5944 58.2871 64.8285 58.2871 65.0726Z" fill="#0C0C0C"/>
<path d="M65.9928 17.7927V11.9271C65.9928 11.683 65.8957 11.449 65.7233 11.2764C65.5508 11.1038 65.3167 11.0068 65.0726 11.0068H59.2067C58.963 11.0068 58.7286 11.1038 58.5561 11.2764C58.3836 11.449 58.2866 11.683 58.2866 11.9271C58.2866 12.1712 58.3836 12.4053 58.5561 12.5779C58.7286 12.7505 58.963 12.8474 59.2067 12.8474H62.6429L57.1547 18.3341C56.9807 18.5054 56.8817 18.7388 56.8794 18.983C56.8775 19.2272 56.9726 19.4622 57.1439 19.6363C57.3152 19.8104 57.5486 19.9094 57.7926 19.9114C58.0371 19.9134 58.272 19.8183 58.446 19.6471C58.4495 19.6431 58.4529 19.6395 58.4568 19.6363L64.0616 14.0316C64.0943 13.9969 64.1247 13.9601 64.1521 13.9212V17.7927C64.1521 18.0367 64.2491 18.2708 64.4216 18.4434C64.5944 18.616 64.8285 18.713 65.0726 18.713C65.3167 18.713 65.5508 18.616 65.7233 18.4434C65.8957 18.2708 65.9928 18.0367 65.9928 17.7927Z" fill="#0C0C0C"/>
<path d="M19.8437 57.3668C19.6711 57.1943 19.4372 57.0977 19.1933 57.0977C18.9494 57.0977 18.7156 57.1943 18.543 57.3668L12.9367 62.9685C12.9045 63.0032 12.8748 63.0397 12.8477 63.0786V59.2075C12.8477 58.9634 12.7508 58.7293 12.5782 58.5564C12.4056 58.3839 12.1715 58.2869 11.9274 58.2869C11.6833 58.2869 11.4493 58.3839 11.2767 58.5564C11.1041 58.7293 11.0071 58.9634 11.0071 59.2075V65.0791C11.0071 65.3232 11.1041 65.5573 11.2767 65.7297C11.4493 65.9022 11.6833 65.9992 11.9274 65.9992H17.7929C18.037 65.9992 18.2711 65.9022 18.4437 65.7297C18.6163 65.5573 18.7132 65.3232 18.7132 65.0791C18.7132 64.835 18.6163 64.6009 18.4437 64.4281C18.2711 64.2556 18.037 64.1586 17.7929 64.1586H14.357L19.8437 58.6719C19.9293 58.5865 19.9971 58.4852 20.0435 58.3732C20.0898 58.2615 20.1136 58.1418 20.1136 58.0209C20.1136 57.9 20.0898 57.7803 20.0435 57.6686C19.9971 57.5566 19.9293 57.4553 19.8437 57.3699V57.3668Z" fill="#0C0C0C"/>
<path d="M53.26 53.4873C53.5041 53.4873 53.7382 53.3902 53.9107 53.2178C54.0835 53.0453 54.1802 52.8112 54.1802 52.5671V42.2976H54.3261C56.0517 42.2811 57.7018 41.5858 58.9192 40.3622C60.1365 39.1391 60.8234 37.4858 60.8318 35.76C60.8399 34.0341 60.1689 32.3744 58.963 31.1394C57.7576 29.9045 56.1144 29.1935 54.3889 29.1602H54.1802V19.4232C54.1802 19.1791 54.0835 18.9451 53.9107 18.7725C53.7382 18.5999 53.5041 18.5029 53.26 18.5029C53.143 18.5033 53.0267 18.5257 52.9182 18.5689L31.7675 27.0297H21.2882C19.9142 27.0309 18.5968 27.5771 17.6252 28.5485C16.6535 29.5199 16.1069 30.8371 16.1052 32.2111V39.7778C16.1057 40.7576 16.3839 41.7174 16.9076 42.5456C17.4313 43.3737 18.179 44.0367 19.0641 44.4575L21.9032 54.7589C22.279 56.0379 23.1421 57.1178 24.3066 57.7662C25.4712 58.4145 26.8438 58.5797 28.1289 58.2255C29.4138 57.8713 30.5083 57.0266 31.1763 55.8731C31.8443 54.7196 32.0324 53.3502 31.7 52.0593L29.7428 44.956H31.7675L52.9182 53.4214C53.0267 53.4653 53.143 53.4876 53.26 53.4873ZM54.3261 31.0008C55.5662 31.015 56.7512 31.5157 57.6256 32.3952C58.4999 33.2746 58.9938 34.4625 59.0008 35.7026C59.0081 36.9428 58.5276 38.136 57.6633 39.0255C56.799 39.9149 55.6197 40.4288 54.3796 40.4569H54.1802V31.0008H54.3261ZM31.0267 43.1184H29.4499V28.8703H31.019L31.0267 43.1184ZM17.9459 39.7793V32.2111C17.9467 31.3249 18.2991 30.4752 18.9257 29.8486C19.5523 29.222 20.402 28.8696 21.2882 28.8688H27.6092V43.12H21.2882C20.4022 43.1192 19.5528 42.7669 18.9262 42.1405C18.2996 41.5141 17.9471 40.6652 17.9459 39.7793ZM27.6629 56.5395C27.2525 56.6531 26.8237 56.6847 26.4012 56.6323C25.9786 56.58 25.5705 56.4448 25.2001 56.235C24.8297 56.0248 24.5044 55.7437 24.2427 55.4076C23.981 55.0719 23.788 54.6877 23.6749 54.2773L21.1102 44.9576C21.1701 44.9576 21.2283 44.9576 21.2882 44.9576H27.8347L29.9269 52.5502C30.1551 53.3795 30.0449 54.2653 29.6204 55.0134C29.196 55.7615 28.4919 56.3105 27.6629 56.5395ZM52.3399 51.2081L32.8596 43.4191V28.5728L52.3399 20.7838V51.2081Z" fill="#0C0C0C"/>
</g>
</g>
<defs>
<clipPath id="clip0_91_100">
<rect width="77" height="77" fill="white"/>
</clipPath>
</defs>
</svg>
