<svg width="70" height="68" viewBox="0 0 70 68" fill="none" xmlns="http://www.w3.org/2000/svg">
<g clip-path="url(#clip0_91_137)">
<mask id="mask0_91_137" style="mask-type:luminance" maskUnits="userSpaceOnUse" x="0" y="0" width="70" height="68">
<path d="M70 0H0V67.9518H70V0Z" fill="white"/>
</mask>
<g mask="url(#mask0_91_137)">
<path d="M58.0177 45.3134C57.9572 45.1947 57.8739 45.0892 57.7724 45.0035C57.6712 44.9178 57.554 44.8533 57.428 44.8143C57.3016 44.7747 57.169 44.7616 57.0377 44.7747C56.9061 44.7878 56.7787 44.8278 56.6629 44.8916C56.5467 44.9553 56.4445 45.0417 56.3619 45.1462C56.2796 45.2503 56.2184 45.37 56.1823 45.4989C56.1459 45.6272 56.1358 45.7617 56.1515 45.8946C56.1676 46.027 56.2093 46.1552 56.2747 46.271V46.2813C57.4199 48.3932 57.7713 50.8532 57.2638 53.2067C56.7563 55.5605 55.4242 57.6486 53.5139 59.0862C51.6036 60.5234 49.2439 61.2126 46.8706 61.0267C44.4972 60.8404 42.2705 59.7913 40.6017 58.0733C38.9329 56.3552 37.9351 54.0843 37.7919 51.6795C37.6488 49.2751 38.3705 46.8993 39.8237 44.9907C41.2765 43.0828 43.3629 41.771 45.697 41.2982C48.0312 40.8254 50.4556 41.2231 52.5224 42.4181C52.6354 42.4839 52.76 42.5268 52.8895 42.5438C53.0187 42.5608 53.1503 42.5523 53.2759 42.5179C53.4019 42.4839 53.5199 42.4248 53.6235 42.3444C53.7267 42.264 53.8135 42.1638 53.8786 42.0497C53.9437 41.9353 53.9861 41.8089 54.0029 41.6782C54.0197 41.5472 54.0113 41.4143 53.9773 41.2868C53.9437 41.1597 53.8853 41.0403 53.8058 40.9355C53.7264 40.831 53.6273 40.7432 53.5146 40.6773C51.0324 39.2422 48.1208 38.7648 45.318 39.3329C42.5148 39.9013 40.0099 41.4767 38.2651 43.7685C36.5207 46.0599 35.6545 48.9135 35.8267 51.801C35.9989 54.6885 37.198 57.4156 39.2021 59.4783C41.2065 61.5409 43.8809 62.8 46.7309 63.0231C49.581 63.2459 52.4146 62.4175 54.7081 60.6909C57.0017 58.9644 58.6005 56.4562 59.2091 53.6296C59.8178 50.8029 59.395 47.8488 58.0191 45.3134H58.0177Z" fill="#0C0C0C"/>
<path d="M47.634 46.748C46.7835 46.7477 45.9519 47.0027 45.2442 47.4808C44.5369 47.9589 43.9853 48.6386 43.6598 49.434C43.3339 50.2292 43.2489 51.1043 43.4144 51.9486C43.5807 52.793 43.9902 53.5689 44.5918 54.1774C45.1931 54.7862 45.9596 55.2006 46.794 55.3688C47.6284 55.5363 48.4933 55.4503 49.279 55.1205C50.0651 54.7908 50.7368 54.233 51.2093 53.5169C51.6814 52.8011 51.9334 51.9596 51.9334 51.0986C51.9334 50.8323 51.8288 50.5769 51.6426 50.3889C51.4567 50.2005 51.2044 50.0949 50.9415 50.0949C50.6783 50.0949 50.426 50.2005 50.2401 50.3889C50.0539 50.5769 49.9496 50.8323 49.9496 51.0986C49.9496 51.5619 49.8138 52.0152 49.5594 52.4002C49.3049 52.7859 48.9434 53.0859 48.5202 53.2633C48.0971 53.4407 47.6316 53.4871 47.1822 53.3968C46.7331 53.3061 46.3205 53.083 45.9967 52.7554C45.673 52.4278 45.4525 52.0103 45.3632 51.5559C45.2736 51.1011 45.3198 50.6301 45.4948 50.2019C45.6702 49.7737 45.967 49.4078 46.3478 49.1504C46.7286 48.8929 47.1762 48.7555 47.634 48.7555C47.8972 48.7555 48.1496 48.6496 48.3354 48.4615C48.5216 48.2731 48.6259 48.0181 48.6259 47.7518C48.6259 47.4854 48.5216 47.2301 48.3354 47.042C48.1496 46.8536 47.8972 46.748 47.634 46.748Z" fill="#0C0C0C"/>
<path d="M69.1058 34.437L64.5431 33.9853L64.091 29.3679C64.0724 29.1789 64.0014 28.9992 63.8859 28.8495C63.77 28.6997 63.6149 28.5864 63.4382 28.5224C63.2614 28.4585 63.0703 28.4465 62.8873 28.4881C62.7039 28.5296 62.5363 28.6229 62.4036 28.757L55.9079 35.3289C55.7249 35.518 55.6231 35.7726 55.6245 36.0372C55.1418 35.7687 54.6476 35.5243 54.1422 35.3046C54.7957 32.8889 55.125 30.3953 55.1215 27.8908C55.1215 12.5115 42.7581 0 27.5607 0C12.3634 0 0 12.5115 0 27.8908C0 43.2703 12.3634 55.782 27.5607 55.782C28.8311 55.7812 30.0999 55.6934 31.3584 55.5181C31.9929 57.8156 33.0981 59.9523 34.602 61.7893C36.106 63.6264 37.975 65.1227 40.088 66.181C42.2006 67.2393 44.5098 67.836 46.865 67.932C49.2208 68.0283 51.5697 67.6217 53.76 66.7392C55.95 65.8562 57.932 64.5171 59.5773 62.8086C61.2227 61.1001 62.4943 59.0605 63.3094 56.8218C64.1249 54.5835 64.4658 52.1964 64.3097 49.816C64.154 47.4357 63.5051 45.1152 62.405 43.005C62.4411 43.0096 62.4774 43.0121 62.5138 43.0121C62.6444 43.0121 62.7732 42.9863 62.8936 42.936C63.014 42.8853 63.1232 42.8113 63.2156 42.7182L69.7165 36.1462C69.8495 36.012 69.9423 35.842 69.9836 35.6564C70.0248 35.4709 70.0129 35.2773 69.9496 35.0982C69.8866 34.9191 69.7743 34.7618 69.6262 34.6447C69.4781 34.5277 69.3 34.4556 69.1131 34.437H69.1058ZM62.3242 31.6708L62.6073 34.5245L58.3338 38.8507L57.7146 36.3414L62.3242 31.6708ZM47.5447 33.9438C46.0694 33.9436 44.6005 34.1403 43.176 34.5288C43.4843 32.6658 43.6604 30.783 43.7031 28.8947H53.1191C53.0484 30.8294 52.7635 32.7501 52.269 34.6205C50.7353 34.1702 49.146 33.9422 47.5489 33.9438H47.5447ZM7.87713 44.4005C4.28214 40.0293 2.21749 34.5775 2.00506 28.8947H11.4182C11.5117 32.9098 12.1607 36.674 13.3113 40.0796C11.3248 41.2788 9.49851 42.7309 7.87713 44.4005ZM13.3113 15.705C12.1607 19.1078 11.5117 22.8748 11.4182 26.89H2.00506C2.21687 21.2062 4.28158 15.7533 7.87713 11.3815C9.49872 13.0515 11.325 14.5045 13.3113 15.705ZM47.1863 11.3084C50.8172 15.6911 52.9035 21.172 53.1163 26.8872H43.7031C43.6096 22.8476 42.9538 19.0633 41.7903 15.6462C43.7633 14.4371 45.5763 12.9796 47.1863 11.3084ZM41.7179 26.8872H28.5526V19.6454C32.5464 19.5034 36.4613 18.48 40.0232 16.647C41.0844 19.9571 41.6553 23.4079 41.7179 26.8872ZM28.5526 17.6379V2.29437C33.4116 4.88414 37.1084 9.2305 39.3333 14.7485C35.9943 16.505 32.3128 17.4918 28.5526 17.6379ZM26.5688 17.6379C22.8079 17.4985 19.1227 16.5284 15.7713 14.7958C17.9959 9.25204 21.6971 4.88842 26.5688 2.29437V17.6379ZM26.5688 19.6454V26.8872H13.4035C13.4662 23.4222 14.032 19.9855 15.0826 16.6872C18.6568 18.4971 22.5745 19.5062 26.5688 19.6454ZM13.4035 28.8947H26.5688V36.1363C22.5749 36.2745 18.6571 37.2817 15.0826 39.0901C14.0325 35.7931 13.4667 32.3581 13.4035 28.8947ZM26.5688 38.1437V53.4873C21.6971 50.8906 17.9932 46.5269 15.7713 40.9874C19.1225 39.2544 22.8078 38.2836 26.5688 38.1437ZM30.783 52.1181C30.0673 52.6192 29.3224 53.0765 28.5526 53.4873V38.1437C30.8407 38.228 33.1071 38.6247 35.2905 39.3224C32.3672 42.4664 30.7403 46.6211 30.7419 50.938C30.7419 51.3322 30.7561 51.725 30.783 52.1135V52.1181ZM36.9355 37.7666C34.243 36.7823 31.4141 36.232 28.5526 36.1363V28.8947H41.7193C41.6696 31.0382 41.4361 33.1732 41.0221 35.2759C39.55 35.9072 38.1738 36.7473 36.9355 37.7712V37.7666ZM45.8486 9.80411C44.4213 11.304 42.8172 12.6211 41.0732 13.726C39.173 9.1244 36.2995 5.28424 32.6123 2.50373C37.6495 3.5346 42.2625 6.07885 45.8486 9.80411ZM22.5091 2.5152C18.8078 5.30574 15.9242 9.16884 14.0283 13.7949C12.2697 12.6973 10.6515 11.3844 9.21053 9.88585C12.8049 6.12464 17.4418 3.5547 22.5091 2.5152ZM9.21053 45.8961C10.6515 44.3973 12.2697 43.0844 14.0283 41.9868C15.9285 46.6129 18.8122 50.4744 22.5133 53.2667C17.4445 52.2279 12.806 49.6581 9.21053 45.8961ZM47.5447 65.9458C45.2032 65.9487 42.8942 65.3898 40.8072 64.3152C38.7201 63.2403 36.9145 61.6806 35.5379 59.7635C34.1618 57.8464 33.2539 55.6268 32.8888 53.2858C32.5238 50.9455 32.712 48.5502 33.438 46.2977C34.1641 44.0445 35.4074 41.9981 37.0657 40.3251C38.7243 38.6523 40.7509 37.4011 42.9797 36.6736C45.2081 35.9465 47.5751 35.7641 49.8869 36.1413C52.1986 36.5185 54.3893 37.4443 56.2789 38.8436L56.6916 40.5128L46.9325 50.3887C46.7467 50.5768 46.642 50.8321 46.642 51.0985C46.642 51.3648 46.7467 51.6201 46.9325 51.8082C47.1188 51.9966 47.3711 52.1022 47.6339 52.1022C47.8971 52.1022 48.1495 51.9966 48.3354 51.8082L58.0972 41.9252L59.6687 42.3226C61.2304 44.5683 62.1523 47.2051 62.3343 49.9453C62.5163 52.6851 61.951 55.4232 60.7005 57.8606C59.4499 60.2976 57.562 62.3404 55.2426 63.7663C52.9231 65.1915 50.2611 65.9451 47.5475 65.9444L47.5447 65.9458ZM62.2066 40.897L59.7282 40.2691L64.0017 35.944L66.8216 36.2309L62.2066 40.897Z" fill="#0C0C0C"/>
</g>
</g>
<defs>
<clipPath id="clip0_91_137">
<rect width="70" height="68" fill="white"/>
</clipPath>
</defs>
</svg>
