<svg width="61" height="77" viewBox="0 0 61 77" fill="none" xmlns="http://www.w3.org/2000/svg">
<g clip-path="url(#clip0_91_114)">
<mask id="mask0_91_114" style="mask-type:luminance" maskUnits="userSpaceOnUse" x="0" y="0" width="61" height="77">
<path d="M61 0H0V76.8288H61V0Z" fill="white"/>
</mask>
<g mask="url(#mask0_91_114)">
<path d="M40.5089 68.5968V58.4586C40.5214 56.5873 40.9158 54.7384 41.6679 53.0266C42.4201 51.3145 43.5138 49.7763 44.8817 48.5069C47.9351 45.6468 50.0768 41.9407 51.0357 37.8569C51.9943 33.7729 51.7274 29.495 50.2683 25.5637C48.8092 21.6323 46.2237 18.2245 42.8385 15.7708C39.453 13.3172 35.4203 11.928 31.25 11.779C27.0795 11.63 22.9589 12.7278 19.4089 14.9337C15.8591 17.1395 13.0394 20.3542 11.3065 24.1714C9.57353 27.9886 9.0052 32.2369 9.67333 36.3789C10.3415 40.521 12.2161 44.3707 15.06 47.4415C15.4345 47.8461 15.8252 48.2357 16.2318 48.6103C17.5803 49.8686 18.6552 51.3942 19.3884 53.0907C20.1216 54.7871 20.4976 56.6183 20.4924 58.4681V68.5904C20.4949 69.6659 20.9208 70.6967 21.677 71.4572C22.4331 72.218 23.458 72.6465 24.5275 72.6493H29.5662V75.7649C29.5662 76.0137 29.6646 76.2526 29.8396 76.4287C30.0148 76.6048 30.2523 76.7036 30.4999 76.7036C30.7474 76.7036 30.985 76.6048 31.1601 76.4287C31.3351 76.2526 31.4336 76.0137 31.4336 75.7649V72.6542H36.4722C37.5419 72.6517 38.5667 72.2235 39.3234 71.463C40.0798 70.7028 40.5062 69.6721 40.5089 68.5968ZM17.4938 47.2316C14.6398 44.5977 12.6434 41.1581 11.7662 37.364C10.8889 33.5695 11.1717 29.5975 12.5774 25.9676C13.9831 22.3376 16.4462 19.2192 19.6442 17.0205C22.8422 14.822 26.6259 13.6458 30.4999 13.646H30.6803C34.526 13.6829 38.2724 14.8783 41.4358 17.0778C44.5987 19.2774 47.0335 22.38 48.4255 25.985C49.8172 29.59 50.1024 33.5318 49.2438 37.3014C48.3849 41.071 46.4223 44.4952 43.6086 47.1316C40.705 49.8377 38.9394 53.5573 38.6725 57.5294H22.3333C22.1024 53.5972 20.3684 49.9073 17.4938 47.2316ZM36.4787 70.7764H24.5275C23.9531 70.774 23.403 70.5436 22.9969 70.1353C22.5906 69.727 22.3611 69.1742 22.3582 68.5968V68.1931H33.0581C33.3057 68.1931 33.5433 68.094 33.7184 67.9182C33.8935 67.7418 33.9917 67.5032 33.9917 67.2541C33.9917 67.0053 33.8935 66.7663 33.7184 66.5902C33.5433 66.4141 33.3057 66.3153 33.0581 66.3153H22.3582V63.732H24.9912C25.2388 63.732 25.4762 63.6329 25.6515 63.4571C25.8265 63.2808 25.9249 63.0421 25.9249 62.793C25.9249 62.5442 25.8265 62.3052 25.6515 62.1291C25.4762 61.953 25.2388 61.8543 24.9912 61.8543H22.3582V59.4117H38.6414V61.8543H28.2031C27.9555 61.8543 27.718 61.953 27.5428 62.1291C27.3677 62.3052 27.2694 62.5442 27.2694 62.793C27.2694 63.0421 27.3677 63.2808 27.5428 63.4571C27.718 63.6329 27.9555 63.732 28.2031 63.732H38.6414V66.3153H36.2685C36.0208 66.3153 35.7833 66.4141 35.6082 66.5902C35.4331 66.7663 35.3349 67.0053 35.3349 67.2541C35.3349 67.5032 35.4331 67.7418 35.6082 67.9182C35.7833 68.094 36.0208 68.1931 36.2685 68.1931H38.6414V68.5953C38.639 69.1729 38.4096 69.7264 38.0037 70.135C37.5971 70.5433 37.0469 70.774 36.4722 70.7764H36.4787Z" fill="#0C0C0C"/>
<path d="M32.1696 7.17747V0.938848C32.1696 0.689849 32.0714 0.451051 31.8963 0.274982C31.7209 0.098914 31.4836 0 31.236 0C30.9883 0 30.7507 0.098914 30.5756 0.274982C30.4006 0.451051 30.3022 0.689849 30.3022 0.938848V7.17747C30.3022 7.42648 30.4006 7.66527 30.5756 7.84133C30.7507 8.01742 30.9883 8.11632 31.236 8.11632C31.4836 8.11632 31.7209 8.01742 31.8963 7.84133C32.0714 7.66527 32.1696 7.42648 32.1696 7.17747Z" fill="#0C0C0C"/>
<path d="M61 30.6693C61 30.4204 60.9018 30.1816 60.7267 30.0054C60.5516 29.8294 60.314 29.7305 60.0664 29.7305H53.8621C53.6147 29.7305 53.3771 29.8294 53.2021 30.0054C53.027 30.1816 52.9285 30.4204 52.9285 30.6693C52.9285 30.9184 53.027 31.1571 53.2021 31.3332C53.3771 31.5093 53.6147 31.608 53.8621 31.608H60.0664C60.314 31.608 60.5516 31.5093 60.7267 31.3332C60.9018 31.1571 61 30.9184 61 30.6693Z" fill="#0C0C0C"/>
<path d="M0.933672 31.608H7.13795C7.38554 31.608 7.62305 31.5093 7.79812 31.3332C7.97325 31.1571 8.07161 30.9184 8.07161 30.6693C8.07161 30.4204 7.97325 30.1816 7.79812 30.0054C7.62305 29.8294 7.38554 29.7305 7.13795 29.7305H0.933672C0.686049 29.7305 0.448563 29.8294 0.273467 30.0054C0.0983689 30.1816 0 30.4204 0 30.6693C0 30.9184 0.0983689 31.1571 0.273467 31.3332C0.448563 31.5093 0.686049 31.608 0.933672 31.608Z" fill="#0C0C0C"/>
<path d="M48.1338 14.2656L52.9751 9.39606C53.1264 9.21669 53.2054 8.98671 53.1962 8.75159C53.1871 8.51648 53.0904 8.29343 52.9254 8.12657C52.7604 7.95969 52.5393 7.86119 52.3056 7.85057C52.0717 7.83993 51.8426 7.91794 51.6633 8.06918L46.8129 12.9371C46.7263 13.0243 46.6573 13.1279 46.6104 13.2418C46.5634 13.3558 46.5393 13.478 46.5393 13.6013C46.5393 13.7247 46.5634 13.8468 46.6104 13.9608C46.6573 14.0748 46.7263 14.1783 46.8129 14.2656C46.8995 14.3528 47.0026 14.422 47.1161 14.4692C47.2292 14.5164 47.3509 14.5407 47.4735 14.5407C47.5961 14.5407 47.7175 14.5164 47.831 14.4692C47.9444 14.422 48.0472 14.3528 48.1338 14.2656Z" fill="#0C0C0C"/>
<path d="M14.187 14.2657C14.2738 14.1786 14.3427 14.075 14.3897 13.961C14.4367 13.8471 14.4609 13.7249 14.4609 13.6015C14.4609 13.4781 14.4367 13.3559 14.3897 13.242C14.3427 13.128 14.2738 13.0244 14.187 12.9373L9.34436 8.06936C9.16737 7.90352 8.93325 7.81323 8.69139 7.81753C8.44949 7.82182 8.2187 7.92033 8.04765 8.09237C7.87658 8.26437 7.77858 8.49645 7.77431 8.73966C7.77007 8.9829 7.85984 9.21829 8.02478 9.39624L12.8659 14.2657C12.9526 14.353 13.0555 14.4223 13.1689 14.4695C13.2822 14.5168 13.4037 14.5411 13.5264 14.5411C13.6491 14.5411 13.7706 14.5168 13.884 14.4695C13.9973 14.4223 14.1003 14.353 14.187 14.2657Z" fill="#0C0C0C"/>
</g>
</g>
<defs>
<clipPath id="clip0_91_114">
<rect width="61" height="77" fill="white"/>
</clipPath>
</defs>
</svg>
