<svg width="66" height="66" viewBox="0 0 66 66" fill="none" xmlns="http://www.w3.org/2000/svg">
<g clip-path="url(#clip0_91_80)">
<mask id="mask0_91_80" style="mask-type:luminance" maskUnits="userSpaceOnUse" x="0" y="0" width="66" height="66">
<path d="M66 0H0V66H66V0Z" fill="white"/>
</mask>
<g mask="url(#mask0_91_80)">
<path d="M6.18548 33.7677H17.0008C17.2228 33.7677 17.4358 33.6796 17.5929 33.5225C17.7499 33.3654 17.838 33.1526 17.838 32.9304C17.838 32.7084 17.7499 32.4955 17.5929 32.3384C17.4358 32.1814 17.2228 32.0932 17.0008 32.0932H7.03665C7.23412 25.9909 9.58005 20.1543 13.6608 15.6127C17.7415 11.0713 23.2948 8.11666 29.3413 7.26995C29.4503 7.25494 29.5552 7.2186 29.6501 7.16303C29.745 7.10746 29.828 7.03374 29.8944 6.94609C29.9607 6.85844 30.0093 6.75855 30.037 6.65216C30.0649 6.54577 30.0715 6.43492 30.0564 6.32599C30.0413 6.21705 30.0051 6.11215 29.9495 6.01727C29.8939 5.92236 29.8202 5.83937 29.7326 5.77294C29.6449 5.70654 29.545 5.65803 29.4386 5.63025C29.3322 5.60243 29.2214 5.59586 29.1125 5.61088C22.5228 6.53332 16.4885 9.80626 12.1215 14.8266C7.75446 19.8469 5.34896 26.2766 5.34827 32.9304C5.34827 33.1526 5.43648 33.3654 5.59349 33.5225C5.7505 33.6796 5.96345 33.7677 6.18548 33.7677Z" fill="#0C0C0C"/>
<path d="M32.9302 -0.000368096C14.7432 -0.000368096 9.26922e-09 14.7429 9.26922e-09 32.9299C-0.000102592 37.2542 0.851575 41.5366 2.50641 45.5319C4.16123 49.5272 6.5868 53.1576 9.64465 56.2153C22.4818 69.0946 43.3353 69.1266 56.2158 56.2866C69.0964 43.4466 69.1271 22.5959 56.2871 9.71543L56.2158 9.64428C53.165 6.577 49.536 4.14526 45.539 2.48978C41.542 0.834282 37.2567 -0.0120937 32.9302 -0.000368096ZM55.0311 55.0306C42.8248 67.2373 23.0358 67.2373 10.8293 55.0306C-1.37721 42.8243 -1.37721 23.0355 10.8293 10.8289C23.0358 -1.37758 42.8248 -1.37758 55.0311 10.8289C67.2378 23.0355 67.2378 42.8256 55.0311 55.0306Z" fill="#0C0C0C"/>
<path d="M51.0351 12.1226C46.0155 7.75328 39.5851 5.34712 32.9304 5.34814C32.7083 5.34814 32.4954 5.43635 32.3383 5.59337C32.1813 5.75038 32.0931 5.96333 32.0931 6.18535V14.9872C32.0931 15.2092 32.1813 15.4222 32.3383 15.5793C32.4954 15.7362 32.7083 15.8244 32.9304 15.8244C33.1524 15.8244 33.3653 15.7362 33.5224 15.5793C33.6795 15.4222 33.7676 15.2092 33.7676 14.9872V7.03375C39.833 7.23056 45.6367 9.54977 50.1676 13.5871C54.6981 17.6243 57.6685 23.1237 58.5601 29.1263C58.5895 29.3247 58.6892 29.5061 58.8413 29.6371C58.9931 29.7683 59.1868 29.8406 59.3874 29.8407C59.4287 29.8407 59.4696 29.8379 59.5102 29.8323C59.73 29.8 59.9276 29.6817 60.06 29.5035C60.1926 29.3253 60.2487 29.1017 60.2164 28.8821C59.2518 22.3796 55.9957 16.4357 51.0351 12.1226Z" fill="#0C0C0C"/>
<path d="M51.7354 32.0928C51.5133 32.0928 51.3004 32.1809 51.1433 32.3379C50.9863 32.495 50.8982 32.708 50.8982 32.93C50.8982 33.1519 50.9863 33.3648 51.1433 33.5222C51.3004 33.6789 51.5133 33.767 51.7354 33.767H58.8238C58.6271 39.842 56.3009 45.6546 52.2525 50.1882C48.204 54.7217 42.6907 57.6881 36.6768 58.5682C36.4669 58.5979 36.2765 58.7061 36.1435 58.8711C36.0102 59.0361 35.9449 59.245 35.9597 59.4565C35.9749 59.6677 36.0693 59.8654 36.2244 60.0099C36.3795 60.1542 36.5834 60.2343 36.7953 60.234C36.8359 60.234 36.8765 60.2314 36.9167 60.2258C43.4718 59.2668 49.4627 55.9813 53.7949 50.9696C58.1271 45.9579 60.5114 39.5546 60.512 32.93C60.512 32.708 60.4239 32.495 60.2669 32.3379C60.1098 32.1809 59.8969 32.0928 59.6748 32.0928H51.7354Z" fill="#0C0C0C"/>
<path d="M32.9304 52.264C32.7084 52.264 32.4955 52.3521 32.3384 52.5091C32.1814 52.6662 32.0932 52.8794 32.0932 53.1012V58.822C25.9749 58.6247 20.1242 56.2672 15.5778 52.1679C11.0316 48.0687 8.08348 42.492 7.25597 36.4269C7.22208 36.2104 7.10483 36.0161 6.92937 35.8854C6.75391 35.7544 6.53416 35.6976 6.31722 35.7267C6.10028 35.756 5.9034 35.8689 5.76876 36.0415C5.63412 36.2141 5.57245 36.4325 5.59693 36.65C6.49783 43.2599 9.76335 49.3197 14.7889 53.7067C19.8144 58.0941 26.2594 60.5116 32.9304 60.512C33.1525 60.512 33.3653 60.4239 33.5224 60.2668C33.6795 60.1097 33.7676 59.8969 33.7676 59.6748V53.1025C33.7676 52.8807 33.6795 52.6679 33.5224 52.5105C33.3653 52.3537 33.1525 52.2653 32.9304 52.2653V52.264Z" fill="#0C0C0C"/>
<path d="M32.9303 17.3022C31.3132 17.304 29.763 17.9473 28.6196 19.0906C27.4763 20.234 26.833 21.7842 26.8312 23.4013V26.0315C26.8312 27.6492 27.4738 29.2004 28.6175 30.3443C29.7614 31.4881 31.3126 32.1306 32.9303 32.1306C34.548 32.1306 36.099 31.4881 37.2431 30.3443C38.3869 29.2004 39.0294 27.6492 39.0294 26.0315V23.3943C39.0258 21.7785 38.3816 20.2301 37.2385 19.0881C36.0951 17.9463 34.546 17.304 32.9303 17.3022ZM37.355 26.0315C37.355 27.205 36.8887 28.3305 36.0588 29.1602C35.2291 29.99 34.1038 30.4562 32.9303 30.4562C31.7568 30.4562 30.6313 29.99 29.8016 29.1602C28.9718 28.3305 28.5056 27.205 28.5056 26.0315V23.3943C28.5056 22.2208 28.9718 21.0953 29.8016 20.2657C30.6313 19.4359 31.7568 18.9697 32.9303 18.9697C34.1038 18.9697 35.2291 19.4359 36.0588 20.2657C36.8887 21.0953 37.355 22.2208 37.355 23.3943V26.0315Z" fill="#0C0C0C"/>
<path d="M36.328 32.9303C35.9736 33.3639 35.537 33.7236 35.0437 33.9886C34.5503 34.2532 34.0091 34.4182 33.4521 34.474C32.8948 34.5294 32.3319 34.4747 31.7959 34.3123C31.2599 34.1503 30.761 33.884 30.3279 33.5289C30.0544 33.3061 29.8101 33.0497 29.6009 32.7657C29.5206 32.6571 29.4152 32.5695 29.2937 32.5105C29.1723 32.4515 29.0383 32.4227 28.9033 32.4266C27.1436 32.4735 25.4717 33.2052 24.2432 34.4661C23.0147 35.7267 22.3268 37.4169 22.3256 39.1772V47.7281C22.3256 47.9499 22.4138 48.1631 22.5707 48.3201C22.7278 48.4769 22.9408 48.5653 23.1628 48.5653H42.6977C42.9198 48.5653 43.1326 48.4769 43.2897 48.3201C43.4468 48.1631 43.5349 47.9499 43.5349 47.7281V39.1772C43.5332 37.4585 42.8775 35.8049 41.7004 34.5522C40.5236 33.2995 38.9139 32.5421 37.1986 32.4336C36.7547 32.4029 36.5287 32.682 36.328 32.9303ZM37.4903 34.1486C38.7014 34.3215 39.8099 34.9251 40.6124 35.8485C41.415 36.7721 41.8578 37.9539 41.8605 39.1772V46.8909H24V39.1772C24.0079 37.9235 24.4759 36.7164 25.3148 35.7851C26.1539 34.8535 27.3056 34.2621 28.5516 34.1232C29.108 34.7611 29.7939 35.2726 30.5638 35.6241C31.3338 35.9748 32.1699 36.1577 33.0161 36.1596C33.8626 36.1616 34.6995 35.9831 35.471 35.6353C36.2426 35.2878 36.9309 34.7796 37.4903 34.1443V34.1486Z" fill="#0C0C0C"/>
</g>
</g>
<defs>
<clipPath id="clip0_91_80">
<rect width="66" height="66" fill="white"/>
</clipPath>
</defs>
</svg>
