<svg width="67" height="85" viewBox="0 0 67 85" fill="none" xmlns="http://www.w3.org/2000/svg">
<mask id="mask0_62_47634" style="mask-type:luminance" maskUnits="userSpaceOnUse" x="0" y="0" width="67" height="85">
<path d="M66.3077 0H0.703369V84.937H66.3077V0Z" fill="white"/>
</mask>
<g mask="url(#mask0_62_47634)">
<path d="M32.3879 50.3338C34.6431 50.3309 36.8051 49.4344 38.3996 47.8409C39.9945 46.2473 40.8913 44.0866 40.8943 41.8331V35.7477C41.5769 35.5279 42.1726 35.0975 42.5957 34.5186C43.0185 33.9396 43.2472 33.2416 43.2488 32.5246V31.0123C46.1413 30.3701 48.7927 28.9229 50.8966 26.8379C50.9173 26.8207 50.9416 26.8051 50.9606 26.7861C50.9793 26.7672 50.995 26.743 51.0124 26.7223C53.9246 23.7885 55.5591 19.8234 55.5591 15.6908C55.5591 11.5582 53.9246 7.59312 51.0124 4.65936C50.995 4.63863 50.9793 4.61619 50.9606 4.59549C50.9416 4.57476 50.9173 4.56095 50.8966 4.5437C47.9608 1.63317 43.9931 0 39.8577 0C35.7223 0 31.7545 1.63317 28.8188 4.5437C28.7981 4.56095 28.7756 4.5765 28.7566 4.59549C28.7376 4.61448 28.722 4.63863 28.7048 4.65936C25.7919 7.59289 24.1573 11.5581 24.1573 15.6908C24.1573 19.8235 25.7919 23.7887 28.7048 26.7223C28.722 26.743 28.7359 26.7654 28.7566 26.7861C28.7773 26.8069 28.7981 26.8207 28.8188 26.8379C30.9216 28.9224 33.5718 30.3696 36.463 31.0123V32.5246C36.464 33.2416 36.6923 33.9399 37.1151 34.5192C37.5379 35.0985 38.1333 35.5292 38.8159 35.7493V41.8331C38.7985 43.5208 38.1179 45.134 36.9206 46.3244C35.7233 47.5148 34.1055 48.1869 32.4167 48.1958C30.7278 48.2046 29.1032 47.5496 27.8935 46.3716C26.6839 45.1937 25.9862 43.5877 25.9511 41.9004V35.563C25.9693 34.658 25.8071 33.7582 25.4741 32.9162C25.1411 32.0743 24.6438 31.3069 24.0113 30.6588C23.3787 30.0107 22.6236 29.4948 21.7896 29.1411C20.9557 28.7873 20.0597 28.6029 19.1538 28.5984C18.2479 28.594 17.3502 28.7696 16.5128 29.1151C15.6754 29.4606 14.9151 29.969 14.2763 30.6108C13.6373 31.2527 13.1325 32.0151 12.7912 32.8539C12.4499 33.6923 12.2789 34.5904 12.2881 35.4957V46.6118C9.13439 46.8725 6.19367 48.3073 4.04821 50.632C1.90277 52.9567 0.709034 56.0017 0.703369 59.1642V72.3346C0.707483 75.6755 2.03745 78.8786 4.40155 81.2414C6.76567 83.6038 9.97091 84.9329 13.3143 84.9369H13.3454C16.6889 84.9332 19.8944 83.6044 22.2586 81.2417C24.6228 78.8793 25.9526 75.6758 25.9563 72.3346V59.1642C25.9509 56.0007 24.7566 52.955 22.61 50.63C20.4634 48.305 17.5212 46.8709 14.3663 46.6118V35.563C14.3814 34.3165 14.8856 33.1258 15.7703 32.2472C16.6549 31.3684 17.8495 30.872 19.0968 30.8645C20.3441 30.857 21.5445 31.3392 22.4397 32.2072C23.3348 33.0753 23.8532 34.2598 23.8833 35.5059V41.8262C23.8837 44.0811 24.7796 46.2434 26.3742 47.8386C27.9687 49.4334 30.1316 50.3309 32.3879 50.3338ZM39.8577 27.7944C39.5828 27.7944 39.3191 27.9035 39.1246 28.0977C38.9304 28.292 38.8212 28.5555 38.8212 28.8302V29.2739C35.93 29.0554 33.1848 27.9167 30.9886 26.0248L31.2978 25.7158C31.4809 25.5195 31.5806 25.2598 31.5758 24.9914C31.5711 24.723 31.4623 24.467 31.2724 24.2772C31.0825 24.0874 30.8263 23.9787 30.5578 23.974C30.2892 23.9693 30.0293 24.0689 29.8328 24.2518L29.5236 24.5609C27.6285 22.3645 26.4884 19.6186 26.2707 16.7266H26.7147C26.9896 16.7266 27.2532 16.6175 27.4476 16.4232C27.642 16.229 27.7512 15.9655 27.7512 15.6908C27.7512 15.4161 27.642 15.1526 27.4476 14.9584C27.2532 14.7641 26.9896 14.655 26.7147 14.655H26.2707C26.4886 11.7655 27.6281 9.02202 29.5219 6.82768L29.8311 7.13668C30.0276 7.31965 30.2875 7.41927 30.556 7.41451C30.8245 7.40979 31.0808 7.30108 31.2706 7.11129C31.4606 6.92153 31.5693 6.66547 31.5741 6.39715C31.5788 6.1288 31.4791 5.86907 31.2961 5.67272L30.9868 5.36198C33.1836 3.47139 35.9287 2.3334 38.8195 2.1147V2.55837C38.8195 2.83309 38.9287 3.09655 39.1229 3.29082C39.3175 3.48507 39.5812 3.59417 39.8561 3.59417C40.1309 3.59417 40.3943 3.48507 40.5889 3.29082C40.7834 3.09655 40.8923 2.83309 40.8923 2.55837V2.1147C43.7845 2.33244 46.531 3.47051 48.7284 5.36198L48.4194 5.67272C48.2341 5.86753 48.1321 6.1265 48.1347 6.39505C48.137 6.6636 48.2436 6.92074 48.4322 7.11221C48.6205 7.30367 48.876 7.41451 49.1447 7.42134C49.4133 7.42816 49.6741 7.33041 49.8722 7.14878L49.8844 7.13668L50.195 6.82768C52.087 9.023 53.2259 11.7661 53.4447 14.655H53.0006C52.7257 14.655 52.4619 14.7641 52.2678 14.9584C52.0732 15.1526 51.964 15.4161 51.964 15.6908C51.964 15.9655 52.0732 16.229 52.2678 16.4232C52.4619 16.6175 52.7257 16.7266 53.0006 16.7266H53.4447C53.2256 19.615 52.0867 22.3574 50.195 24.5522L49.8844 24.2432C49.6892 24.0517 49.4264 23.9449 49.1529 23.9462C48.8793 23.9475 48.6175 24.0567 48.4243 24.25C48.2311 24.4433 48.1222 24.7052 48.1212 24.9784C48.1203 25.2517 48.2275 25.5142 48.4194 25.7089L48.7284 26.0179C46.532 27.9093 43.7871 29.0473 40.8959 29.2652V28.8302C40.8959 28.5555 40.7867 28.292 40.5921 28.0977C40.398 27.9035 40.1342 27.7944 39.8593 27.7944H39.8577ZM38.5361 31.3265C38.9714 31.3622 39.4109 31.3806 39.8541 31.3817C40.2976 31.3829 40.7365 31.3645 41.1704 31.3265V32.5246C41.1583 32.8653 41.014 33.1881 40.7683 33.4249C40.5226 33.6618 40.1946 33.794 39.8534 33.794C39.512 33.794 39.1839 33.6618 38.9383 33.4249C38.6926 33.1881 38.5486 32.8653 38.5361 32.5246V31.3265ZM12.2933 48.6832V58.1437H2.82649C3.06669 55.7163 4.14127 53.4471 5.86729 51.722C7.59334 49.9973 9.86417 48.9233 12.2933 48.6832ZM13.3454 82.8654H13.3143C10.5206 82.8618 7.84234 81.7511 5.86689 79.7767C3.89146 77.8027 2.78005 75.1264 2.7764 72.3346V60.2155H23.8833V72.3346C23.8796 75.1264 22.7682 77.8027 20.7927 79.7767C18.8173 81.7511 16.1391 82.8618 13.3454 82.8654ZM23.8331 58.1437H14.3663V48.6832C16.7954 48.9236 19.066 49.9976 20.792 51.7223C22.518 53.4474 23.5926 55.7163 23.8331 58.1437Z" fill="#0C0C0C"/>
<path d="M51.3684 15.6912C51.3684 13.4162 50.6933 11.1923 49.4285 9.30064C48.1636 7.40904 46.3661 5.93468 44.2628 5.06407C42.1595 4.19347 39.845 3.96566 37.6121 4.40951C35.3793 4.85335 33.3284 5.94888 31.7186 7.55757C30.1089 9.16625 29.0126 11.2158 28.5685 13.4472C28.1243 15.6785 28.3523 17.9913 29.2235 20.0932C30.0947 22.195 31.57 23.9915 33.4629 25.2554C35.3557 26.5194 37.5813 27.194 39.8578 27.194C42.9103 27.1935 45.8379 25.9815 47.9963 23.8244C50.155 21.6673 51.3677 18.7418 51.3684 15.6912ZM39.8578 25.1224C37.9907 25.1227 36.1656 24.5697 34.613 23.5333C33.0605 22.497 31.8504 21.0238 31.1357 19.3001C30.4211 17.5764 30.234 15.6796 30.5981 13.8497C30.9623 12.0197 31.8614 10.3388 33.1815 9.01949C34.5018 7.70016 36.1839 6.80174 38.0149 6.43783C39.8463 6.07392 41.7442 6.26086 43.469 6.97503C45.194 7.6892 46.6682 8.89849 47.705 10.45C48.7422 12.0015 49.2956 13.8254 49.2953 15.6912C49.2956 16.9298 49.0516 18.1563 48.5773 19.3007C48.1033 20.445 47.4079 21.4848 46.5317 22.3605C45.6552 23.2364 44.6147 23.931 43.4696 24.4049C42.3245 24.8788 41.097 25.1226 39.8578 25.1224Z" fill="#0C0C0C"/>
<path d="M39.8578 11.9119C40.214 11.9128 40.5552 12.0546 40.8071 12.3063C41.059 12.558 41.2007 12.8991 41.2017 13.255C41.2017 13.5297 41.311 13.7932 41.5055 13.9875C41.6997 14.1817 41.9634 14.2909 42.2383 14.2909C42.5132 14.2909 42.7769 14.1817 42.9711 13.9875C43.1656 13.7932 43.2748 13.5297 43.2748 13.255C43.2719 12.5326 43.0396 11.8296 42.6122 11.2471C42.1845 10.6647 41.5829 10.2326 40.8944 10.0129V9.57098C40.8944 9.29627 40.7851 9.0328 40.5906 8.83854C40.3964 8.64429 40.1327 8.53516 39.8578 8.53516C39.5829 8.53516 39.3192 8.64429 39.1247 8.83854C38.9305 9.0328 38.8213 9.29627 38.8213 9.57098V10.0129C38.0455 10.2609 37.3835 10.7777 36.9555 11.4702C36.5271 12.1627 36.3604 12.9852 36.4854 13.7896C36.6107 14.594 37.0191 15.3273 37.6374 15.8573C38.2558 16.3873 39.043 16.6791 39.8578 16.6801C40.214 16.6779 40.5568 16.8172 40.8107 17.0674C41.0643 17.3177 41.208 17.6584 41.2102 18.0146C41.2125 18.3708 41.0731 18.7134 40.8229 18.9669C40.5726 19.2204 40.2314 19.3641 39.8749 19.3664H39.8404C39.4871 19.3614 39.1496 19.2178 38.901 18.9665C38.6527 18.7153 38.5129 18.3765 38.5119 18.0233C38.5119 17.7485 38.4027 17.4851 38.2085 17.2908C38.014 17.0966 37.7503 16.9874 37.4754 16.9874C37.2005 16.9874 36.9368 17.0966 36.7426 17.2908C36.5481 17.4851 36.4388 17.7485 36.4388 18.0233C36.4402 18.7476 36.6714 19.4529 37.0992 20.0376C37.5269 20.6224 38.1291 21.0565 38.8196 21.2775V21.8178C38.8196 22.0925 38.9289 22.356 39.123 22.5503C39.3176 22.7445 39.581 22.8536 39.8558 22.8536C40.1311 22.8536 40.3945 22.7445 40.589 22.5503C40.7832 22.356 40.8924 22.0925 40.8924 21.8178V21.2688C41.6698 21.0219 42.3331 20.5052 42.7621 19.8123C43.1915 19.1194 43.3588 18.2959 43.2335 17.4905C43.1085 16.6852 42.6991 15.9511 42.0798 15.421C41.4602 14.8909 40.6716 14.5996 39.8558 14.5999C39.4996 14.5999 39.1578 14.4584 38.9056 14.2065C38.6536 13.9546 38.5119 13.613 38.5119 13.2568C38.5119 12.9005 38.6536 12.5589 38.9056 12.307C39.1578 12.0552 39.4996 11.9137 39.8558 11.9137L39.8578 11.9119Z" fill="#0C0C0C"/>
<path d="M66.3078 15.6354C66.3078 15.3607 66.1986 15.0973 66.0041 14.903C65.8099 14.7087 65.5462 14.5996 65.2713 14.5996H60.6485C60.3736 14.5996 60.1099 14.7087 59.9154 14.903C59.7212 15.0973 59.6119 15.3607 59.6119 15.6354C59.6119 15.9102 59.7212 16.1736 59.9154 16.3678C60.1099 16.5621 60.3736 16.6712 60.6485 16.6712H65.2677C65.4041 16.6717 65.5393 16.6453 65.6656 16.5934C65.7915 16.5415 65.9063 16.4653 66.0031 16.3691C66.0996 16.2728 66.1763 16.1585 66.2285 16.0326C66.2809 15.9067 66.3078 15.7717 66.3078 15.6354Z" fill="#0C0C0C"/>
<path d="M58.9207 11.1406C59.1451 11.1406 59.3633 11.0679 59.5427 10.9334L64.1602 7.48069C64.2691 7.39908 64.361 7.29683 64.4305 7.17976C64.4997 7.06272 64.5453 6.93319 64.5647 6.79853C64.5837 6.66385 64.5765 6.52673 64.5427 6.39497C64.5089 6.2632 64.4492 6.13937 64.3676 6.03054C64.2859 5.92173 64.1839 5.83005 64.0664 5.76074C63.9493 5.69143 63.8198 5.64586 63.6849 5.62661C63.5505 5.60739 63.413 5.61487 63.2811 5.64862C63.1493 5.68237 63.0256 5.74174 62.9167 5.82339L58.2988 9.27612C58.125 9.40654 57.9964 9.58839 57.9314 9.7959C57.8665 10.0034 57.8688 10.2261 57.9373 10.4323C58.0062 10.6386 58.1384 10.818 58.3149 10.9451C58.4914 11.0722 58.7033 11.1406 58.9207 11.1406Z" fill="#0C0C0C"/>
<path d="M58.3008 21.9973L62.9184 25.45C63.0273 25.5316 63.1513 25.591 63.2832 25.6248C63.415 25.6585 63.5521 25.666 63.687 25.6468C63.8218 25.6275 63.9513 25.582 64.0685 25.5126C64.1856 25.4434 64.2879 25.3517 64.3696 25.2428C64.4513 25.134 64.5106 25.0102 64.5444 24.8784C64.5782 24.7467 64.5857 24.6095 64.5667 24.4749C64.5474 24.3402 64.5018 24.2107 64.4322 24.0936C64.363 23.9766 64.2712 23.8743 64.1623 23.7927L59.5447 20.34C59.3249 20.1751 59.0484 20.1044 58.7761 20.1432C58.5042 20.1821 58.2585 20.3274 58.0935 20.5471C57.9285 20.7669 57.8577 21.0432 57.8967 21.3151C57.9354 21.5871 58.0811 21.8325 58.3008 21.9973Z" fill="#0C0C0C"/>
<path d="M13.3317 15.6354C13.3317 15.9102 13.4409 16.1736 13.6353 16.3678C13.8297 16.5621 14.0933 16.6712 14.3682 16.6712H18.9859C19.2608 16.6712 19.5244 16.5621 19.7188 16.3678C19.9132 16.1736 20.0224 15.9102 20.0224 15.6354C20.0224 15.3607 19.9132 15.0973 19.7188 14.903C19.5244 14.7087 19.2608 14.5996 18.9859 14.5996H14.3682C14.0933 14.5996 13.8297 14.7087 13.6353 14.903C13.4409 15.0973 13.3317 15.3607 13.3317 15.6354Z" fill="#0C0C0C"/>
<path d="M20.0947 20.3377L15.4753 23.7904C15.3646 23.8698 15.2706 23.9702 15.1987 24.0858C15.1268 24.2014 15.0784 24.3301 15.0563 24.4645C15.0341 24.5988 15.0387 24.7362 15.0697 24.8687C15.1007 25.0013 15.1575 25.1265 15.2369 25.2371C15.3972 25.4606 15.6399 25.6112 15.9114 25.6559C16.0458 25.678 16.1833 25.6734 16.3159 25.6425C16.4486 25.6115 16.5738 25.5547 16.6846 25.4754L16.7226 25.4478L21.3402 21.995C21.564 21.8348 21.715 21.5923 21.7599 21.3208C21.8047 21.0493 21.7398 20.7712 21.5795 20.5475C21.4191 20.3238 21.1764 20.173 20.9048 20.1281C20.6331 20.0833 20.3548 20.1481 20.131 20.3084L20.0947 20.3377Z" fill="#0C0C0C"/>
<path d="M21.3369 9.27513L16.7192 5.8224C16.4993 5.65757 16.2229 5.58679 15.9507 5.62566C15.6786 5.66449 15.4331 5.80978 15.2681 6.02955C15.1032 6.24933 15.0323 6.52559 15.0712 6.79755C15.1101 7.06951 15.2555 7.31487 15.4754 7.4797L20.0948 10.9324C20.2014 11.0212 20.3247 11.0876 20.4574 11.1278C20.5901 11.168 20.7296 11.1812 20.8675 11.1666C21.0055 11.1519 21.1391 11.1098 21.2604 11.0426C21.3817 10.9755 21.4883 10.8846 21.5739 10.7756C21.6595 10.6665 21.7222 10.5413 21.7586 10.4076C21.7948 10.2738 21.8039 10.1341 21.7852 9.99675C21.7665 9.8594 21.7203 9.72721 21.6496 9.60801C21.5788 9.4888 21.4848 9.38498 21.3732 9.30275L21.3369 9.27513Z" fill="#0C0C0C"/>
</g>
</svg>
