<svg width="188" height="188" viewBox="0 0 188 188" fill="none" xmlns="http://www.w3.org/2000/svg">
<g clip-path="url(#clip0_96_545)">
<path d="M159.173 136.708H39.574C32.3673 136.708 26.5393 130.88 26.5393 123.673V48.8804C26.5393 41.6737 32.3673 35.8457 39.574 35.8457H159.173C166.38 35.8457 172.208 41.6737 172.208 48.8804V123.673C172.208 130.88 166.349 136.708 159.173 136.708Z" fill="white" stroke="#202124" stroke-width="0.75" stroke-miterlimit="10"/>
<path d="M83.4406 66.8337H39.292C36.942 66.8337 35.0306 64.9223 35.0306 62.5723V49.9137C35.0306 47.5637 36.942 45.6523 39.292 45.6523H83.4406C85.7906 45.6523 87.702 47.5637 87.702 49.9137V62.5723C87.702 64.9223 85.7906 66.8337 83.4406 66.8337Z" fill="white" stroke="#202124" stroke-width="0.75" stroke-miterlimit="10"/>
<path d="M39.574 59.5647C40.5454 58.4994 41.4854 57.4027 42.3314 56.212C42.9267 55.3974 43.1147 55.3034 43.9294 55.93C44.7127 56.5254 45.496 57.152 46.248 57.7787C46.342 57.8414 46.4987 57.8727 46.5927 57.7787C47.846 56.2747 49.0994 54.7394 50.3527 53.2354C50.76 52.734 51.5747 51.2614 52.2954 51.3554C52.7654 51.3867 53.9874 52.8907 54.3634 53.2354C57.058 55.5854 59.878 57.7474 62.8547 59.7214C62.98 59.784 63.1054 59.7214 63.168 59.6274C63.8574 58.656 63.9514 58.468 64.8914 59.1574C64.9854 59.2514 65.142 59.1574 65.2047 59.0634C66.2074 57.5907 67.2414 56.1807 68.4007 54.8334C68.9334 54.1754 69.4974 53.5487 70.0927 52.922C70.6567 52.3267 71.1267 51.418 71.9414 51.888C72.5367 52.2327 73.0694 52.9847 73.5707 53.4234C74.1974 53.9874 74.824 54.5514 75.482 55.084C76.6727 56.0554 77.8634 56.9327 79.1167 57.81C79.2107 57.8727 79.3674 57.8414 79.43 57.716C80.746 55.366 82.062 53.016 83.378 50.666C83.5347 50.4154 83.1274 50.1647 82.9707 50.4154C82.25 51.6687 81.5607 52.9534 80.84 54.2067C80.464 54.896 80.1194 55.7734 79.618 56.3687C79.0227 57.1207 79.0227 57.152 78.1767 56.5567C75.8267 54.8647 73.6647 52.9847 71.628 50.9167C71.534 50.8227 71.3774 50.8227 71.2834 50.9167C69.8734 52.3267 68.5574 53.768 67.3354 55.3347C66.8654 55.93 66.3954 56.5567 65.9254 57.1834C65.7687 57.4027 65.3927 58.2487 65.1107 58.3427C64.6094 58.4994 64.4214 58.2174 64.014 57.904C63.92 57.81 63.7634 57.904 63.7007 57.998C63.262 58.6247 63.168 59.0947 62.3847 58.8127C61.9147 58.6247 61.4134 58.1547 61.006 57.8414C59.878 57.0267 58.7814 56.212 57.6847 55.366C55.7734 53.862 53.956 52.264 52.2014 50.6034C52.1074 50.5094 51.9507 50.5094 51.8567 50.6034C50.4154 52.358 48.974 54.0814 47.5327 55.836C47.3134 56.0867 46.906 56.87 46.5927 56.964C45.9974 57.1834 45.7154 56.7134 45.2767 56.3687C44.556 55.7734 43.7727 55.2407 43.0207 54.6767C42.9267 54.614 42.77 54.6767 42.7074 54.7707C41.642 56.3374 40.4827 57.81 39.198 59.1887C39.0414 59.4707 39.3547 59.8154 39.574 59.5647Z" fill="#202124"/>
<path d="M81.3727 51.6684C81.9993 51.0731 82.6887 50.5404 83.472 50.1331C83.3467 50.1017 83.2527 50.0391 83.1273 50.0077C83.3467 50.7597 83.5347 51.5117 83.66 52.2637C83.7227 52.5457 84.1613 52.4204 84.0987 52.1384C83.9733 51.3864 83.7853 50.6344 83.566 49.8824C83.5347 49.7257 83.3467 49.6631 83.2213 49.7571C82.4067 50.1957 81.686 50.7284 81.028 51.3551C80.84 51.5431 81.1533 51.8877 81.3727 51.6684Z" fill="#202124"/>
<path d="M38.916 65.518C39.5562 65.518 40.0754 64.9991 40.0754 64.3587C40.0754 63.7185 39.5562 63.1993 38.916 63.1993C38.2756 63.1993 37.7567 63.7185 37.7567 64.3587C37.7567 64.9991 38.2756 65.518 38.916 65.518Z" fill="#B1CEFC"/>
<path d="M48.4413 84.7256H42.3627V101.207H48.4413V84.7256Z" fill="#B1CEFC"/>
<path d="M57.4654 76.3907H51.3867V101.207H57.4654V76.3907Z" fill="#B1CEFC"/>
<path d="M66.3639 96.3809H60.2853V101.206H66.3639V96.3809Z" fill="#B1CEFC"/>
<path d="M75.3566 72.0977H69.278V101.206H75.3566V72.0977Z" fill="#B1CEFC"/>
<path d="M39.386 74.1973V101.207" stroke="#202124" stroke-width="0.75" stroke-miterlimit="10"/>
<path d="M77.2993 101.207H39.386" stroke="#202124" stroke-width="0.75" stroke-miterlimit="10"/>
<path d="M163.685 48.6924H104.058V73.289H163.685V48.6924Z" fill="white" stroke="#202124" stroke-width="0.75" stroke-miterlimit="10"/>
<path d="M107.912 53.956H155.225" stroke="#202124" stroke-width="0.75" stroke-miterlimit="10"/>
<path d="M107.818 58.5303H155.225" stroke="#202124" stroke-width="0.75" stroke-miterlimit="10"/>
<path d="M107.881 63.1993H154.881" stroke="#202124" stroke-width="0.75" stroke-miterlimit="10"/>
<path d="M107.881 68.714H154.285" stroke="#202124" stroke-width="0.75" stroke-miterlimit="10"/>
<path d="M119.537 80.6523C113.646 80.6523 108.852 85.4463 108.852 91.337C108.852 97.2277 113.646 102.022 119.537 102.022C125.427 102.022 130.221 97.2277 130.221 91.337C130.221 85.4463 125.459 80.6523 119.537 80.6523ZM119.537 99.6403C114.931 99.6403 111.233 95.9117 111.233 91.337C111.233 86.731 114.962 83.0337 119.537 83.0337C124.111 83.0337 127.84 86.7623 127.84 91.337C127.871 95.943 124.143 99.6403 119.537 99.6403Z" fill="#B1CEFC"/>
<path d="M146.734 88.7051C143.444 88.7051 140.749 91.3997 140.749 94.6897C140.749 97.9797 143.444 100.674 146.734 100.674C150.024 100.674 152.719 97.9797 152.719 94.6897C152.719 91.3997 150.055 88.7051 146.734 88.7051ZM146.734 99.3584C144.165 99.3584 142.065 97.2591 142.065 94.6897C142.065 92.1204 144.165 90.0211 146.734 90.0211C149.303 90.0211 151.403 92.1204 151.403 94.6897C151.403 97.2591 149.303 99.3584 146.734 99.3584Z" fill="#B1CEFC"/>
<path d="M129.407 89.3627L132.446 84.8193" stroke="#202124" stroke-width="0.75" stroke-miterlimit="10"/>
<path d="M133.605 84.4434H153.377" stroke="#202124" stroke-width="0.75" stroke-miterlimit="10"/>
<path d="M133.605 82.5947H152.719" stroke="#202124" stroke-width="0.75" stroke-miterlimit="10"/>
<path d="M133.887 80.1504H150.306" stroke="#202124" stroke-width="0.75" stroke-miterlimit="10"/>
<path d="M134.295 78.0195H145.575" stroke="#202124" stroke-width="0.75" stroke-miterlimit="10"/>
<path d="M147.925 98.1047L149.711 101.207" stroke="#202124" stroke-width="0.75" stroke-miterlimit="10"/>
<path d="M150.306 103.024H166.537" stroke="#202124" stroke-width="0.75" stroke-miterlimit="10"/>
<path d="M150.306 104.622H166.537" stroke="#202124" stroke-width="0.75" stroke-miterlimit="10"/>
<path d="M150.306 106.909H156.949" stroke="#202124" stroke-width="0.75" stroke-miterlimit="10"/>
<path d="M151.403 108.884H165.283" stroke="#202124" stroke-width="0.75" stroke-miterlimit="10"/>
<path d="M124.049 32.9314C131.611 32.9314 137.741 26.801 137.741 19.2387C137.741 11.6765 131.611 5.54608 124.049 5.54608C116.486 5.54608 110.356 11.6765 110.356 19.2387C110.356 26.801 116.486 32.9314 124.049 32.9314Z" fill="#202124"/>
<path d="M122.576 32.9314C130.138 32.9314 136.269 26.801 136.269 19.2387C136.269 11.6765 130.138 5.54608 122.576 5.54608C115.014 5.54608 108.883 11.6765 108.883 19.2387C108.883 26.801 115.014 32.9314 122.576 32.9314Z" fill="white" stroke="#202124" stroke-width="0.75" stroke-miterlimit="10"/>
<path d="M121.605 8.64767C121.605 9.71301 121.605 10.8097 121.605 11.875C121.605 12.4703 122.545 12.4703 122.545 11.875C122.545 10.8097 122.545 9.71301 122.545 8.64767C122.545 8.05234 121.605 8.05234 121.605 8.64767Z" fill="#202124"/>
<path d="M127.025 12.2514C124.957 11.28 122.576 11.3114 120.571 12.408C118.753 13.4107 116.873 15.7294 117.845 17.86C118.252 18.8 119.192 19.4267 120.163 19.7087C121.824 20.21 124.017 19.27 125.427 20.4607C127.558 22.278 125.647 24.7847 123.579 25.4427C121.699 26.038 119.693 25.568 118.158 24.3774C117.688 24.0014 117.03 24.6594 117.5 25.0354C119.443 26.5707 122.012 27.1034 124.362 26.1634C126.399 25.3174 127.997 23.218 126.994 21.0247C126.524 20.022 125.678 19.3014 124.613 19.082C122.827 18.6747 120.633 19.6147 119.161 18.1734C117.281 16.356 119.756 13.818 121.417 13.066C123.046 12.314 124.926 12.3454 126.555 13.0974C127.088 13.3167 127.558 12.5334 127.025 12.2514Z" fill="#202124"/>
<path d="M121.981 26.6643C122.106 27.385 122.106 28.137 122.075 28.8576C122.043 29.453 122.983 29.453 123.015 28.8576C123.077 28.043 123.015 27.2283 122.889 26.4136C122.795 25.8183 121.887 26.069 121.981 26.6643Z" fill="#202124"/>
<path d="M44.3366 113.301C44.1173 113.708 43.8039 114.429 43.9606 115.306C44.0546 115.808 44.2426 116.121 44.5559 116.716C44.7753 117.092 45.1199 117.719 45.7779 118.408C46.9059 119.63 47.3446 119.348 48.0653 120.288C48.3159 120.602 48.3473 120.758 49.1306 122.638C49.5066 123.547 49.7886 124.268 49.9766 124.706C50.6659 125.051 51.2613 125.114 51.6373 125.114C53.4233 125.051 55.1466 123.484 55.9613 121.134C55.8673 120.382 55.8359 119.787 55.8046 119.348C55.7733 118.972 55.7419 118.283 55.7106 117.28C55.7106 117.249 55.6166 116.716 55.4286 115.682C55.3973 115.463 55.3346 115.181 55.1466 115.056C54.8959 114.899 54.5826 115.024 54.4886 115.056C53.7993 115.338 53.6426 116.278 53.6113 116.403C53.3606 116.278 52.9846 116.058 52.5773 115.776C52.1699 115.526 51.3553 114.962 50.4153 113.99C49.0366 112.58 48.1906 111.327 48.1906 111.327C47.7206 110.638 47.3759 110.011 46.9373 110.074C46.8433 110.074 46.7179 110.136 46.1226 110.732C45.6526 111.202 45.4333 111.421 45.2766 111.64C44.9946 111.985 44.6186 112.549 44.3366 113.301Z" fill="white"/>
<path d="M49.538 123.735C49.538 124.487 49.5066 125.615 49.538 126.963C49.538 131.443 49.5693 134.921 49.82 138.493C50.008 140.906 50.384 145.543 51.9193 151.309C52.7966 154.63 53.8306 157.356 54.6453 159.361C55.3973 160.145 57.528 162.15 59.5646 161.68C62.1966 161.053 62.98 156.698 63.5126 153.878C64.1706 150.4 64.6406 144.447 62.0713 136.707C61.476 135.423 60.8806 134.075 60.2853 132.697C58.5306 128.623 57.0893 124.644 55.836 120.853C54.9586 120.853 53.2666 121.009 51.512 122.043C50.6346 122.607 50.008 123.234 49.538 123.735Z" fill="white"/>
<path d="M50.4153 123.077C52.0133 121.636 54.0187 120.978 56.1807 121.228C56.2747 121.228 56.3373 121.103 56.2747 121.04C56.1807 120.946 56.0867 120.852 55.9613 120.79C55.836 120.696 55.6793 120.852 55.8047 120.946C55.3973 120.602 53.3607 121.166 52.8593 121.322C51.888 121.667 51.042 122.2 50.2587 122.889C50.1333 123.014 50.3213 123.202 50.4153 123.077Z" fill="#202124"/>
<path d="M56.0241 121.229C57.6534 126.555 59.6587 131.725 62.0087 136.77C62.0714 136.895 62.2907 136.801 62.1967 136.645C59.8467 131.631 57.8727 126.461 56.2434 121.166C56.2121 121.041 55.9614 121.103 56.0241 121.229Z" fill="#202124"/>
<path d="M49.5067 124.017C49.0054 136.018 49.8514 148.238 54.52 159.424C54.5827 159.549 54.802 159.486 54.7394 159.361C50.0707 148.206 49.2247 135.986 49.726 124.017C49.7574 123.86 49.5067 123.86 49.5067 124.017Z" fill="#202124"/>
<path d="M55.8047 121.072C55.9613 119.787 55.9613 118.503 55.8047 117.218C55.742 116.591 55.742 115.557 55.272 115.056C54.3633 114.053 53.58 116.153 53.4233 116.811C53.392 116.967 53.6113 117.03 53.6427 116.873C53.768 116.215 54.2693 114.367 55.272 115.683C55.554 116.09 55.554 117.218 55.5853 117.657C55.6793 118.785 55.648 119.913 55.5227 121.041C55.554 121.229 55.7733 121.229 55.8047 121.072Z" fill="#202124"/>
<path d="M46.3107 111.108C46.6553 110.325 46.9687 110.137 47.2507 110.544C47.4073 110.701 47.564 110.858 47.6893 111.014C47.94 111.296 48.1593 111.547 48.41 111.829C48.9113 112.456 49.4127 113.082 49.9453 113.678C50.8853 114.774 51.9193 115.777 53.1727 116.529C53.298 116.592 53.4233 116.404 53.298 116.341C50.948 114.962 49.538 112.644 47.7207 110.701C46.906 109.824 45.6213 109.51 46.06 111.171C46.1227 111.328 46.3733 111.265 46.3107 111.108Z" fill="#202124"/>
<path d="M45.59 111.39C46.248 113.082 47.3446 114.461 48.8173 115.526C48.9426 115.62 49.068 115.401 48.9426 115.338C47.5326 114.335 46.4673 112.957 45.8406 111.359C45.778 111.202 45.5586 111.265 45.59 111.39Z" fill="#202124"/>
<path d="M44.6814 112.173C45.0574 113.928 46.1541 115.4 47.7207 116.278C47.8461 116.34 47.9714 116.152 47.8461 116.09C46.3421 115.244 45.2767 113.834 44.9321 112.11C44.8694 111.985 44.6501 112.048 44.6814 112.173Z" fill="#202124"/>
<path d="M44.0861 113.646C44.6501 115.401 45.7781 116.874 47.3447 117.845C47.4701 117.939 47.5954 117.72 47.4701 117.657C45.9661 116.717 44.8694 115.307 44.3367 113.615C44.2741 113.427 44.0547 113.49 44.0861 113.646Z" fill="#202124"/>
<path d="M43.8353 115.338C44.274 116.623 44.932 117.751 45.9033 118.722C46.4673 119.286 47.1253 119.725 47.7207 120.289C48.6293 121.166 49.0053 122.701 49.5067 123.923C49.5693 124.049 49.7887 124.017 49.726 123.861C49.1933 122.513 48.8173 120.884 47.752 119.881C47.1253 119.286 46.342 118.91 45.778 118.252C44.9947 117.375 44.462 116.403 44.086 115.307C44.0233 115.15 43.804 115.213 43.8353 115.338Z" fill="#202124"/>
<path d="M124.425 117.437C124.299 117.093 124.111 116.56 123.829 115.933C123.265 114.649 123.015 114.429 122.639 113.301C122.639 113.301 122.357 112.487 122.2 111.171C122.137 110.732 122.137 110.481 122.263 110.419C122.482 110.293 123.046 110.826 123.547 111.359C123.735 111.077 123.986 110.669 124.237 110.168C124.926 108.789 125.145 107.599 125.208 107.317C125.521 105.593 125.083 105.28 125.553 104.653C126.117 103.87 127.401 103.557 128.373 103.964C129.344 104.34 129.72 105.311 130.033 106.095C130.315 106.847 130.378 107.505 130.441 107.975C130.472 108.413 130.503 108.946 130.409 109.761C130.284 111.139 129.939 112.079 129.438 113.74C129.219 114.492 128.874 115.589 128.467 116.999C128.435 117.124 128.279 118.189 127.464 118.597C126.493 119.035 125.145 118.628 124.425 117.437Z" fill="white"/>
<path d="M123.829 117.312C123.861 118.252 123.892 119.192 123.923 120.132C124.143 127.307 124.237 130.942 124.331 132.634C124.613 137.115 124.738 139.371 125.114 141C126.43 146.452 130.253 154.129 135.141 154.223C135.987 154.223 137.271 154.003 138.807 152.875C138.775 151.591 138.744 149.836 138.556 147.768C138.337 145.011 137.835 140.969 136.613 136.175C135.987 133.699 135.047 130.535 133.637 126.994C132.477 124.111 131.349 121.824 130.629 120.414C129.877 118.941 129.156 117.688 128.561 116.717C127.934 116.591 126.931 116.466 125.772 116.685C124.957 116.811 124.299 117.093 123.829 117.312Z" fill="white"/>
<path d="M124.331 130.91C124.237 127.934 124.143 124.926 124.08 121.949C124.049 120.821 123.547 118.534 124.143 117.594C124.863 116.497 127.213 116.685 128.373 116.81C128.529 116.842 128.529 116.591 128.373 116.56C126.775 116.403 125.271 116.591 123.767 117.186C123.704 117.218 123.673 117.249 123.673 117.312C123.798 121.855 123.955 126.367 124.08 130.91C124.111 131.036 124.331 131.067 124.331 130.91Z" fill="#202124"/>
<path d="M128.341 116.529C134.89 127.495 138.493 140.06 138.681 152.844C138.681 153.001 138.932 153.001 138.932 152.844C138.713 140.029 135.141 127.433 128.561 116.403C128.467 116.278 128.247 116.403 128.341 116.529Z" fill="#202124"/>
<path d="M124.487 117.061C124.017 116.027 123.547 115.024 123.077 113.99C122.827 113.458 122.576 112.894 122.419 112.33C122.294 111.922 122.231 111.484 122.231 111.045C122.921 110.7 123.359 110.888 123.516 111.609C123.579 111.734 123.798 111.609 123.704 111.484C123.391 110.888 122.952 110.324 122.231 110.262C122.2 110.262 122.137 110.293 122.137 110.324C121.73 111.202 122.169 112.392 122.482 113.238C123.015 114.586 123.673 115.87 124.268 117.155C124.362 117.343 124.55 117.218 124.487 117.061Z" fill="#202124"/>
<path d="M128.498 116.435C129.626 113.834 130.785 110.607 130.441 107.755C130.409 107.599 130.19 107.599 130.19 107.755C130.503 110.544 129.375 113.803 128.279 116.341C128.216 116.435 128.435 116.56 128.498 116.435Z" fill="#202124"/>
<path d="M123.892 111.046C124.926 109.04 125.521 106.91 125.615 104.654C125.615 104.497 125.396 104.497 125.365 104.654C125.271 106.878 124.707 108.946 123.673 110.92C123.61 111.046 123.829 111.171 123.892 111.046Z" fill="#202124"/>
<path d="M126.054 104.465C126.806 106.032 126.555 107.755 126.148 109.385C126.117 109.541 126.336 109.604 126.367 109.447C126.806 107.755 127.057 105.969 126.242 104.34C126.211 104.215 125.991 104.34 126.054 104.465Z" fill="#202124"/>
<path d="M127.213 104.403C127.871 105.938 127.965 107.536 127.558 109.134C127.527 109.291 127.746 109.353 127.777 109.197C128.216 107.536 128.091 105.875 127.433 104.277C127.37 104.152 127.151 104.277 127.213 104.403Z" fill="#202124"/>
<path d="M128.467 104.497C129.156 105.875 129.281 107.379 128.843 108.852C128.811 109.009 129.031 109.071 129.062 108.915C129.532 107.379 129.375 105.813 128.655 104.371C128.592 104.246 128.404 104.371 128.467 104.497Z" fill="#202124"/>
<path d="M121.103 121.229C122.764 121.166 124.174 122.482 126.336 124.487C128.153 126.179 129.093 127.683 130.817 130.472C131.443 131.475 133.762 135.235 136.112 140.781C137.428 143.851 137.773 145.199 137.961 145.919C138.932 149.993 138.431 152.468 138.243 153.251C137.773 155.225 137.021 156.197 136.833 156.447C136.488 156.886 135.203 158.515 133.261 158.703C131.945 158.829 130.911 158.265 130.033 157.763C126.179 155.476 123.516 152.687 123.171 152.311C119.411 148.332 117.531 146.327 116.717 144.885C115.871 143.381 113.959 139.935 113.897 135.329C113.771 128.937 117.249 121.417 121.103 121.229Z" fill="white"/>
<path d="M122.451 121.824C126.743 123.986 129.469 128.404 131.851 132.415C134.357 136.708 136.363 141.251 137.867 145.982C137.898 146.139 138.149 146.076 138.086 145.92C136.519 141 134.42 136.238 131.757 131.82C129.438 127.934 126.743 123.704 122.576 121.636C122.419 121.542 122.325 121.762 122.451 121.824Z" fill="#202124"/>
<path d="M116.623 144.948C120.007 149.115 123.485 153.377 127.903 156.51C129.501 157.638 131.475 159.017 133.543 158.766C135.642 158.515 136.864 156.667 137.835 154.975C137.898 154.849 137.71 154.724 137.647 154.849C136.331 157.168 134.577 159.173 131.631 158.296C129.375 157.638 127.276 155.821 125.521 154.317C122.263 151.497 119.505 148.113 116.779 144.76C116.685 144.666 116.529 144.854 116.623 144.948Z" fill="#202124"/>
<path d="M68.4946 122.764C68.2126 122.889 67.774 123.453 66.8966 124.55C65.9566 125.74 64.766 127.213 63.3873 129.5C62.2593 131.349 61.5386 132.822 60.912 134.075C60.536 134.827 60.0346 135.892 59.1573 137.898C57.716 141.219 57.0266 142.848 56.4 144.728C55.5853 147.141 54.6453 150.086 54.4886 153.94C54.3946 156.572 54.708 158.766 55.0213 160.27C55.3973 160.708 55.9613 161.366 56.7133 162.056C58.0293 163.278 58.8126 163.998 60.0346 164.186C61.1626 164.374 62.0713 163.998 62.698 163.748C63.1993 163.528 64.014 163.152 65.518 161.68C66.2386 160.99 67.1786 159.988 68.7453 157.888C69.0273 157.544 70.2806 155.82 71.1266 154.504C73.884 150.18 75.5446 144.54 76.2653 141.752C78.0513 134.89 78.96 131.474 77.8633 128.936C76.046 124.706 70.9073 121.604 68.4946 122.764Z" fill="white"/>
<path d="M68.4007 122.702C62.5414 128.906 59.3454 136.896 56.2747 144.729C56.212 144.854 56.4314 144.917 56.494 144.792C59.5334 136.99 62.698 129.031 68.5574 122.89C68.6827 122.733 68.4947 122.576 68.4007 122.702Z" fill="#202124"/>
<path d="M54.9587 160.333C56.3687 161.586 57.3714 163.529 59.2514 164.124C61.0687 164.688 62.9801 163.936 64.3901 162.839C66.0194 161.555 67.3667 159.831 68.6201 158.202C70.2807 156.04 71.7847 153.784 73.1007 151.403C73.1634 151.277 72.9754 151.152 72.9127 151.277C70.9074 154.881 68.5261 158.327 65.7061 161.304C64.1081 162.996 61.7894 164.688 59.3141 163.905C57.4967 163.309 56.4941 161.367 55.1154 160.176C55.0214 160.082 54.8334 160.239 54.9587 160.333Z" fill="#202124"/>
<path d="M68.3066 122.858C67.6486 124.268 66.8653 126.273 66.552 128.78C66.364 130.253 66.364 131.569 66.4266 132.665C66.5833 134.671 66.8026 136.958 67.116 139.465C67.304 140.906 67.6486 143.601 68.244 146.922C68.7453 149.805 69.7793 155.288 71.6593 162.087C72.6306 165.597 73.884 169.733 75.5446 174.339C77.2366 175.373 79.054 176.313 81.028 177.096C96.5693 183.3 112.361 177.002 118.816 173.963C119.223 172.553 119.819 170.422 120.445 167.821C120.79 166.443 121.511 163.247 122.701 156.197C123.109 153.784 123.579 151.058 124.111 147.267C126.023 133.825 125.49 130.911 125.177 129.532C124.707 127.495 123.767 124.487 121.479 121.103C120.633 120.821 119.474 120.445 118.064 120.069C115.62 119.38 111.202 118.315 105.593 117.719C102.523 117.406 97.948 117.093 92.3706 117.437C86.386 117.813 81.686 118.785 78.96 119.443C74.73 120.477 71.158 121.699 68.3066 122.858Z" fill="white"/>
<path d="M68.338 122.952C85.2267 116.247 104.183 115.652 121.479 121.26C121.636 121.292 121.699 121.072 121.542 121.041C104.215 115.432 85.1953 116.028 68.2753 122.733C68.15 122.796 68.2127 123.015 68.338 122.952Z" fill="#202124"/>
<path d="M66.2073 131.38C67.3039 145.731 70.3119 159.894 75.1373 173.461C75.1999 173.618 75.4193 173.555 75.3566 173.398C70.4999 159.862 67.4919 145.731 66.4266 131.38C66.4266 131.224 66.2073 131.224 66.2073 131.38Z" fill="#202124"/>
<path d="M125.02 132.415C124.675 146.453 122.545 160.396 118.722 173.932C118.691 174.089 118.91 174.151 118.941 173.995C122.795 160.459 124.895 146.484 125.271 132.415C125.271 132.259 125.02 132.259 125.02 132.415Z" fill="#202124"/>
<path d="M88.3913 116.278C86.574 114.774 86.2606 112.456 86.1666 111.829C86.104 111.39 85.728 108.006 88.2033 105.437C89.8953 103.714 92.8093 102.398 95.6293 103.4C98.7626 104.497 99.7653 107.63 99.9846 108.257C100.173 108.821 101.019 111.484 99.7339 113.897C97.7286 117.626 91.5873 118.848 88.3913 116.278Z" fill="#202124"/>
<path d="M92.2767 116.748C91.9947 116.059 91.65 114.868 91.9634 113.521C92.5274 111.14 94.9087 109.291 97.948 108.915C97.948 109.51 97.8854 110.106 97.7287 110.764C96.7887 114.398 93.3107 116.247 92.2767 116.748Z" fill="#F7F7F7"/>
<path d="M95.222 112.643C95.6294 112.048 95.5667 111.547 95.8174 109.855C96.0994 108.006 96.2874 106.721 96.6634 105.969C97.9167 103.494 103.745 102.491 108.037 104.653C111.797 106.533 113.207 110.262 114.085 112.643C116.121 118.095 115.119 123.077 114.461 125.427C113.771 127.809 111.891 134.295 106.001 137.083C99.3267 140.217 89.0494 138.149 85.916 130.785C82.9707 123.892 87.3887 115.15 91.368 114.21C92.3707 113.991 94.3134 114.022 95.222 112.643Z" fill="#202124"/>
<path d="M120.257 188H73.038C68.808 188 65.3613 184.554 65.3613 180.324V133.104C65.3613 128.874 68.808 125.428 73.038 125.428H120.257C124.487 125.428 127.934 128.874 127.934 133.104V180.324C127.934 184.554 124.519 188 120.257 188Z" fill="#B1CEFC"/>
</g>
<defs>
<clipPath id="clip0_96_545">
<rect width="188" height="188" fill="white"/>
</clipPath>
</defs>
</svg>
