<svg width="146" height="167" viewBox="0 0 146 167" fill="none" xmlns="http://www.w3.org/2000/svg">
<g clip-path="url(#clip0_96_1221)">
<mask id="mask0_96_1221" style="mask-type:luminance" maskUnits="userSpaceOnUse" x="0" y="0" width="146" height="167">
<path d="M145.826 0H0V166.767H145.826V0Z" fill="white"/>
</mask>
<g mask="url(#mask0_96_1221)">
<path d="M26.8733 145.987C26.9605 146.249 29.3454 159.976 29.3454 159.976H38.2741L40.1064 145.987H26.8733Z" fill="#202124"/>
<path d="M33.5043 147.007C37.1506 147.007 40.1063 146.602 40.1063 146.103C40.1063 145.604 37.1506 145.2 33.5043 145.2C29.8581 145.2 26.9023 145.604 26.9023 146.103C26.9023 146.602 29.8581 147.007 33.5043 147.007Z" fill="white" stroke="#202124" stroke-miterlimit="10"/>
<path d="M30.5668 130.015C30.0143 130.977 29.7234 132.026 29.8979 133.134C30.1015 134.533 31.0613 135.494 31.8756 136.573C33.0971 138.176 33.5334 140.041 33.1844 142.052C32.9226 143.48 32.5445 144.762 33.0099 146.191C33.1844 146.715 34.0278 146.482 33.8533 145.957C33.3589 144.442 33.9987 143.014 34.1732 141.498C34.3186 140.274 34.1441 139.079 33.7079 137.943C32.69 135.32 29.4908 133.6 31.3521 130.452C31.6139 129.957 30.8577 129.52 30.5668 130.015Z" fill="#7DACF0"/>
<path d="M27.804 132.405C27.2224 133.95 27.4259 135.611 28.5602 136.835C29.9853 138.409 32.9809 139.05 33.01 141.557C33.01 142.11 33.8825 142.11 33.8825 141.557C33.8243 137.389 26.9024 137.331 28.6475 132.638C28.822 132.114 27.9785 131.88 27.804 132.405Z" fill="#7DACF0"/>
<path d="M36.7326 128.063C35.0167 128.471 35.1039 130.103 34.6386 131.472C34.2314 132.667 33.2716 132.959 32.5736 133.921C32.1083 134.533 31.9338 135.174 31.8465 135.932C31.7884 136.485 32.6609 136.485 32.719 135.932C32.9226 134.183 34.2314 133.95 35.0457 132.667C35.7728 131.56 35.3366 129.257 36.9653 128.879C37.4888 128.791 37.2852 127.946 36.7326 128.063Z" fill="#7DACF0"/>
<path d="M33.6497 142.781C33.388 142.752 31.9047 142.606 30.8868 141.323C29.9852 140.187 30.0143 138.934 30.0434 138.642C30.4505 138.788 30.8868 139.021 31.323 139.342C32.8354 140.449 33.4171 142.052 33.6497 142.781Z" fill="#7DACF0"/>
<path d="M26.3206 132.871C26.7859 133.862 27.3967 134.562 27.8039 134.941C27.9202 134.416 28.2401 132.871 27.4549 131.181C26.9604 130.103 26.2334 129.403 25.7971 129.083C25.7099 129.724 25.5644 131.239 26.3206 132.871Z" fill="#7DACF0"/>
<path d="M36.1801 136.923C36.4709 136.194 36.5291 135.524 36.5291 135.086C36.0928 135.086 35.5111 135.174 34.9586 135.553C33.8534 136.281 33.359 137.826 33.6789 139.458C34.086 139.254 35.5111 138.555 36.1801 136.923Z" fill="#7DACF0"/>
<path d="M34.8131 131.531C34.5804 131.152 34.3187 130.656 34.1733 130.015C33.7661 128.237 34.4932 126.751 34.7549 126.255C34.9004 126.489 35.0167 126.722 35.133 126.984C35.8601 128.849 35.1621 130.744 34.8131 131.531Z" fill="#7DACF0"/>
<path d="M30.3052 132.172C30.0143 131.851 29.2291 130.831 29.1127 129.287C28.9964 127.567 29.8108 126.343 30.0725 126.022C30.2761 126.576 30.4797 127.246 30.596 128.004C30.8578 129.782 30.5669 131.239 30.3052 132.172Z" fill="#7DACF0"/>
<path d="M28.502 136.689C28.2402 136.777 27.6004 136.981 26.9024 136.748C25.9426 136.427 25.2446 135.436 25.1573 134.241C25.5064 134.358 25.8554 134.533 26.2334 134.737C27.2805 135.349 28.0366 136.077 28.502 136.689Z" fill="#7DACF0"/>
<path d="M33.01 134.445C32.7773 134.154 32.4865 133.658 32.3411 132.988C32.0211 131.502 32.8355 130.307 33.01 130.073C33.2136 130.365 33.6207 131.064 33.6789 132.026C33.7371 133.25 33.1845 134.154 33.01 134.445Z" fill="#7DACF0"/>
<path d="M87.1056 145.753C86.8729 151.553 86.6403 157.353 86.4076 163.153L89.0542 164.056L96.645 159.801C96.4996 154.788 96.3542 149.805 96.1797 144.792C95.3944 144.879 94.5801 144.937 93.7948 145.025C93.5622 144.762 93.3295 144.5 93.0968 144.209C91.0901 144.704 89.1124 145.229 87.1056 145.753Z" fill="#7DACF0"/>
<path d="M94.1438 144.5C94.1438 144.704 93.2131 165.047 93.2131 165.047L94.7546 164.989L95.8307 166.038L107.377 159.918L105.777 142.781H103.16L102.898 142.256L94.1438 144.5Z" fill="#B1CEFC"/>
<path d="M87.4254 146.045C87.4545 146.278 87.3382 146.948 87.7163 147.007C87.9489 147.036 88.2398 146.89 88.4433 146.832C88.7342 146.744 89.025 146.628 89.3449 146.54C89.4904 146.482 89.4322 146.278 89.2868 146.336C88.9378 146.453 88.5597 146.569 88.2107 146.686C88.0362 146.744 87.8035 146.861 87.7163 146.657C87.6581 146.511 87.6872 146.22 87.6872 146.045C87.629 145.928 87.4254 145.899 87.4254 146.045Z" fill="white"/>
<path d="M89.4613 146.832C89.345 152.457 89.1996 158.082 89.0833 163.707C89.0833 163.852 89.2868 163.852 89.3159 163.707C89.4323 158.082 89.5777 152.457 89.694 146.832C89.694 146.715 89.4613 146.715 89.4613 146.832Z" fill="white"/>
<path d="M91.788 147.386C91.817 148.143 91.9334 149.047 92.3115 149.717C92.5151 150.067 92.9222 150.213 93.184 149.863C93.2712 149.746 93.0676 149.63 93.0095 149.746C92.6314 150.271 92.2242 148.814 92.1951 148.668C92.0788 148.231 92.0206 147.823 92.0206 147.386C91.9915 147.24 91.788 147.24 91.788 147.386Z" fill="white"/>
<path d="M94.3765 144.646C94.4637 144.908 94.5219 145.52 94.8709 145.608C95.1327 145.666 95.5689 145.52 95.8307 145.491C96.1506 145.462 96.4414 145.404 96.7613 145.345C96.9068 145.316 96.8486 145.112 96.7032 145.141C96.2378 145.2 95.7725 145.287 95.3072 145.345C95.0454 145.374 94.9291 145.462 94.7837 145.2C94.6964 145.025 94.6382 144.792 94.5801 144.617C94.551 144.471 94.3183 144.529 94.3765 144.646Z" fill="white"/>
<path d="M97.6629 145.2C99.8442 144.5 102.025 143.83 104.178 143.13C104.323 143.101 104.265 142.868 104.119 142.926C101.938 143.626 99.7569 144.296 97.6047 144.996C97.4593 145.025 97.5175 145.229 97.6629 145.2Z" fill="white"/>
<path d="M97.0522 146.103C96.4996 152.602 96.1797 159.102 96.0924 165.63C96.0924 165.776 96.296 165.776 96.3251 165.63C96.4123 159.102 96.7322 152.602 97.2848 146.103C97.2848 145.957 97.0813 145.957 97.0522 146.103Z" fill="white"/>
<path d="M99.4952 146.307C99.6697 147.531 100.31 151.553 102.375 150.825C104.323 150.154 103.771 146.686 103.625 145.2C103.596 145.054 103.392 145.054 103.392 145.2C103.538 146.569 103.858 148.697 103.073 149.892C102.927 150.271 102.636 150.533 102.2 150.65C101.764 150.417 101.328 150.213 100.891 149.979C100.629 149.688 100.368 148.872 100.28 148.61C100.019 147.852 99.8442 147.065 99.7279 146.249C99.6988 146.132 99.4952 146.191 99.4952 146.307Z" fill="white"/>
<path d="M57.7601 161.958C57.4983 163.211 57.2366 164.464 57.0039 165.689C57.4111 165.834 57.9055 165.951 58.4872 166.009C59.5924 166.097 60.4939 165.893 61.0465 165.689C60.9593 164.581 60.8429 163.444 60.7557 162.337C59.7669 162.22 58.778 162.104 57.7601 161.958Z" fill="#7DACF0"/>
<path d="M58.1091 122.408C57.9928 130.482 57.9055 138.555 57.8474 146.628C57.8183 151.757 57.7892 156.858 57.7601 161.987C57.8183 162.162 58.0219 162.628 58.4872 162.92C59.0689 163.299 59.8542 163.27 60.494 162.861C60.8139 161.375 61.2793 159.073 61.8318 156.246C63.955 145.753 64.3912 143.13 65.3801 138.7C66.049 135.669 67.096 131.268 68.6083 125.906C69.1318 123.633 68.4047 122.496 68.1721 122.204C66.747 120.106 62.4717 119.756 58.1091 122.408Z" fill="white"/>
<path d="M57.8764 122.525C57.8182 135.524 57.7601 148.493 57.7019 161.492C57.7019 161.637 57.9055 161.637 57.9346 161.492C57.9927 148.493 58.0509 135.524 58.1091 122.525C58.08 122.379 57.8764 122.379 57.8764 122.525Z" fill="#202124"/>
<path d="M67.6195 127.975C65.1183 139.4 62.6462 150.795 60.6394 162.308C60.6103 162.453 60.8139 162.512 60.843 162.366C62.8207 150.854 65.3219 139.429 67.8231 128.033C67.8522 127.917 67.6486 127.858 67.6195 127.975Z" fill="#202124"/>
<path d="M57.8183 162.512C58.5163 163.299 59.6796 163.473 60.5812 162.949C60.6976 162.891 60.5812 162.687 60.4649 162.774C59.6215 163.24 58.6035 163.065 57.9637 162.366C57.8764 162.249 57.7019 162.395 57.8183 162.512Z" fill="#202124"/>
<path d="M57.4111 165.397C58.4872 165.718 59.4469 165.892 60.523 165.455C60.6394 165.397 60.5812 165.193 60.4649 165.251C59.4469 165.688 58.4872 165.514 57.4692 165.193C57.3529 165.135 57.2947 165.339 57.4111 165.397Z" fill="white"/>
<path d="M72.7673 163.94C72.8255 164.902 72.8837 165.834 72.9418 166.796C79.7183 166.738 83.1211 166.417 83.1793 165.834C83.2084 165.339 80.649 164.61 75.443 163.677C74.5414 163.765 73.6689 163.852 72.7673 163.94Z" fill="#7DACF0"/>
<path d="M63.3442 123.108C63.8096 124.769 64.304 126.46 64.7693 128.121C65.4673 131.647 66.1654 135.174 66.9215 138.759C68.7538 147.386 70.7024 155.779 72.7383 163.94C72.8837 164.056 73.2618 164.406 73.8434 164.464C74.7159 164.552 75.3267 163.998 75.414 163.911C75.3558 162.92 75.2395 161.521 75.1522 159.83C74.6287 151.437 74.3088 144.034 74.1052 137.943C73.9598 133.279 73.8144 127.771 73.7271 121.563C72.7383 121.826 71.6912 122.088 70.5861 122.292C67.9685 122.816 65.5255 123.05 63.3442 123.108Z" fill="white"/>
<path d="M73.6398 121.563C73.8143 135.699 74.3959 149.805 75.3557 163.911C75.3557 164.056 75.5884 164.056 75.5884 163.911C74.6286 149.805 74.076 135.699 73.8724 121.563C73.8724 121.447 73.6398 121.447 73.6398 121.563Z" fill="#202124"/>
<path d="M64.5657 127.509C66.9215 139.662 69.6263 151.728 72.7382 163.707C72.7673 163.852 72.9709 163.794 72.9418 163.648C69.8298 151.67 67.1251 139.604 64.7693 127.45C64.7402 127.305 64.5366 127.363 64.5657 127.509Z" fill="#202124"/>
<path d="M73.0872 164.115C73.6398 164.668 74.5123 164.814 75.2103 164.435C75.3266 164.377 75.2103 164.173 75.094 164.26C74.4832 164.581 73.727 164.464 73.2326 163.969C73.1454 163.852 73 163.998 73.0872 164.115Z" fill="#202124"/>
<path d="M76.7227 163.94C76.6354 164.144 76.4318 165.135 76.8972 165.047C77.0717 165.018 77.1589 164.814 77.188 164.639C77.2171 164.406 77.1589 164.173 77.0426 163.969C76.9553 163.852 76.7808 163.969 76.8681 164.086C76.9262 164.202 76.9844 164.319 76.9844 164.435C76.9844 164.494 76.9844 164.843 76.8681 164.727C76.8099 164.668 76.839 164.435 76.839 164.377C76.839 164.231 76.8972 164.086 76.9553 163.969C76.9844 163.882 76.7808 163.823 76.7227 163.94Z" fill="white"/>
<path d="M76.9844 163.823C76.8972 163.765 76.839 163.678 76.8099 163.59C76.7809 163.503 76.7809 163.357 76.839 163.299C76.9263 163.211 77.0426 163.357 77.0426 163.444C77.0717 163.561 77.0135 163.678 77.0135 163.765C76.9844 163.911 77.188 163.969 77.2171 163.823C77.2753 163.619 77.3334 163.386 77.188 163.211C77.1008 163.095 76.9263 163.007 76.7809 163.095C76.6064 163.182 76.5773 163.357 76.5773 163.532C76.6064 163.736 76.6936 163.911 76.8681 164.027C76.9844 164.086 77.1008 163.911 76.9844 163.823Z" fill="white"/>
<path d="M77.6824 164.144C77.8278 164.319 77.915 164.523 77.8569 164.756C77.8278 164.902 78.0314 164.96 78.0605 164.814C78.1477 164.523 78.0605 164.231 77.8569 163.998C77.7405 163.882 77.5951 164.027 77.6824 164.144Z" fill="white"/>
<path d="M78.2641 164.202C78.4386 164.348 78.5258 164.581 78.4677 164.814C78.4386 164.96 78.6422 165.018 78.6713 164.872C78.7585 164.581 78.6422 164.26 78.4095 164.056C78.2932 163.969 78.1477 164.115 78.2641 164.202Z" fill="white"/>
<path d="M78.9331 164.319C79.1366 164.464 79.2239 164.727 79.1657 164.989C79.1367 165.135 79.3402 165.193 79.3693 165.047C79.4856 164.698 79.3402 164.348 79.0494 164.144C78.904 164.056 78.8167 164.231 78.9331 164.319Z" fill="white"/>
<path d="M73.2035 166.621C75.094 166.505 76.9844 166.388 78.8749 166.271C79.0203 166.271 79.0203 166.038 78.8749 166.038C76.9844 166.155 75.094 166.271 73.2035 166.388C73.0581 166.417 73.0581 166.621 73.2035 166.621Z" fill="white"/>
<path d="M52.2633 126.634C52.4087 127.538 52.4378 128.266 52.4669 128.733C52.5251 129.899 52.4087 130.481 52.6996 131.385C52.8741 131.997 53.0776 132.58 53.5721 132.755C54.0374 132.93 54.7645 132.726 54.9681 132.23C55.0844 131.968 55.0263 131.706 54.9681 131.56C54.7645 130.919 54.5609 130.277 54.3573 129.665C54.5027 129.665 54.8518 129.665 55.0553 129.461C55.1717 129.345 55.288 129.141 55.2298 128.441C55.1717 127.858 55.0263 127.392 54.7354 126.576C54.241 125.265 54.1247 125.177 54.0374 125.148C53.3976 124.944 52.3506 126.518 52.2633 126.634Z" fill="white"/>
<path d="M53.0486 98.0142C52.8741 98.4513 52.6123 99.1217 52.3797 99.9669C52.0888 101.074 52.0016 101.949 51.9434 102.415C51.5653 106.204 51.3617 108.127 51.3326 109.264C51.1581 114.073 51.449 117.891 51.6817 120.951C51.8562 123.312 52.0888 125.265 52.2342 126.605C52.3797 126.693 52.7287 126.926 53.2231 126.926C54.0083 126.926 54.5028 126.372 54.59 126.285C54.6191 125.323 54.7064 124.128 54.8227 122.7C54.9099 121.826 55.1135 119.698 55.5789 116.987C55.7534 115.88 56.1315 113.782 56.8004 111.188C57.4111 108.856 58.3127 105.825 59.7669 102.328C57.5566 100.9 55.3171 99.4714 53.0486 98.0142Z" fill="white"/>
<path d="M52.9614 97.9559C52.0598 99.9086 51.8562 102.153 51.6235 104.28C51.3618 106.67 51.2163 109.118 51.2163 111.537C51.1873 116.579 51.6235 121.621 52.1761 126.634C52.2052 126.78 52.4088 126.78 52.4088 126.634C51.8853 122 51.4781 117.337 51.449 112.674C51.449 110.43 51.5072 108.215 51.7108 105.971C51.9434 103.377 52.0888 100.491 53.194 98.0725C53.194 97.9559 53.0195 97.8393 52.9614 97.9559Z" fill="#202124"/>
<path d="M57.6438 107.661C56.0442 113.519 54.9972 119.494 54.5028 125.527C54.5028 125.673 54.7064 125.673 54.7355 125.527C55.2299 119.494 56.2769 113.548 57.8765 107.719C57.8765 107.574 57.6729 107.515 57.6438 107.661Z" fill="#202124"/>
<path d="M52.6414 126.809C53.194 127.392 53.9502 126.868 54.3864 126.401C54.4737 126.285 54.3283 126.139 54.241 126.256C53.892 126.634 53.2812 127.159 52.7868 126.664C52.6996 126.547 52.5542 126.693 52.6414 126.809Z" fill="#202124"/>
<path d="M54.5319 126.372C54.9972 127.246 55.2008 128.179 55.1427 129.17C55.1427 129.316 55.3462 129.316 55.3753 129.17C55.4044 128.15 55.2008 127.159 54.7355 126.256C54.6482 126.139 54.4737 126.226 54.5319 126.372Z" fill="#202124"/>
<path d="M54.4155 128.5C54.4155 128.908 54.5319 129.316 54.7064 129.695C54.7645 129.811 54.9681 129.724 54.8809 129.578C54.7064 129.228 54.6191 128.879 54.6191 128.5C54.6191 128.354 54.4155 128.354 54.4155 128.5Z" fill="#202124"/>
<path d="M52.3215 127.188C52.3797 129.053 51.9434 131.764 53.7175 132.988C53.8339 133.075 53.9502 132.871 53.8339 132.813C52.1761 131.676 52.5833 128.966 52.5251 127.188C52.5251 127.042 52.3215 127.042 52.3215 127.188Z" fill="#202124"/>
<path d="M53.0486 130.307C53.1068 131.181 53.4848 131.997 54.1247 132.609C54.241 132.697 54.3864 132.551 54.2701 132.463C53.6593 131.91 53.3103 131.152 53.2522 130.336C53.2522 130.161 53.0486 130.161 53.0486 130.307Z" fill="#202124"/>
<path d="M53.6593 130.19C53.8629 130.919 54.0956 131.618 54.4155 132.289C54.4737 132.405 54.6482 132.318 54.59 132.172C54.2992 131.502 54.0665 130.831 53.8629 130.103C53.8338 129.986 53.6302 130.044 53.6593 130.19Z" fill="#202124"/>
<path d="M54.1828 129.461C54.3864 130.336 54.6772 131.181 55.0262 132.026C55.0844 132.143 55.2589 132.055 55.2007 131.91C54.8517 131.094 54.59 130.248 54.3864 129.403C54.3864 129.257 54.1537 129.316 54.1828 129.461Z" fill="#202124"/>
<path d="M53.0486 98.0142C53.1358 99.0051 53.3103 100.491 53.4848 102.298C54.1538 108.914 54.1247 108.798 54.2119 109.381C54.8227 113.373 55.8406 116.521 56.4805 118.445C57.033 120.135 57.5566 121.505 57.9637 122.496C59.796 123.05 61.3665 123.283 62.5299 123.37C64.3621 123.545 67.8522 123.632 71.8657 122.263C72.6801 122 73.3199 121.709 73.7562 121.534C74.0179 120.135 74.2506 118.707 74.4542 117.279C75.4721 110.546 76.0829 104.105 76.3737 98.0142C74.8032 97.2855 72.5928 96.4695 69.8589 95.974C65.9908 95.2454 62.908 95.5077 61.541 95.6534C57.9056 96.0615 55.0263 97.1107 53.0486 98.0142Z" fill="white"/>
<path d="M52.9904 98.189C60.2904 94.7791 68.7829 94.7791 76.0829 98.1307C76.1992 98.189 76.3155 98.0141 76.1992 97.9559C68.812 94.5459 60.2323 94.575 52.8741 98.0141C52.7578 98.0724 52.8741 98.2473 52.9904 98.189Z" fill="#202124"/>
<path d="M53.3685 101.89C53.6303 108.798 55.0845 115.559 57.6729 121.942C57.7311 122.059 57.9347 122 57.8765 121.884C55.259 115.501 53.8048 108.769 53.5721 101.89C53.5721 101.745 53.3685 101.745 53.3685 101.89Z" fill="#202124"/>
<path d="M76.2573 101.337C75.8211 108.011 74.9486 114.656 73.6398 121.213C73.6107 121.359 73.8143 121.418 73.8434 121.272C75.1521 114.685 76.0537 108.04 76.49 101.337C76.49 101.191 76.2573 101.191 76.2573 101.337Z" fill="#202124"/>
<path d="M58.08 122.496C63.1697 124.245 68.6665 123.953 73.5525 121.709C73.6689 121.651 73.5816 121.476 73.4362 121.534C68.6083 123.749 63.1697 124.011 58.1382 122.292C58.0218 122.234 57.9637 122.467 58.08 122.496Z" fill="#202124"/>
<path d="M78.5549 125.556C78.4967 125.847 78.4095 126.314 78.2931 126.868C77.9732 128.354 77.7696 128.879 78.0314 129.112C78.1477 129.199 78.3513 129.287 78.9621 129.053C78.8748 129.782 78.7585 130.54 78.6712 131.268C78.7294 131.414 78.8748 131.676 79.1657 131.88C79.5437 132.172 79.9509 132.172 80.0963 132.172C80.2999 131.589 80.5617 130.715 80.678 129.607C80.7653 128.791 80.7362 128.179 80.678 127.509C80.6489 126.78 80.5326 125.818 80.2999 124.682C79.7473 124.944 79.1366 125.265 78.5549 125.556Z" fill="white"/>
<path d="M76.3737 98.0433C75.7339 98.2182 75.0359 98.5097 74.3379 99.0343C71.5168 101.104 71.4877 104.892 71.4877 105.475C72.2148 107.603 72.9128 109.73 73.6399 111.858C75.1522 116.317 76.6355 120.805 78.1187 125.294C78.2642 125.41 78.5259 125.585 78.9331 125.673C79.6311 125.789 80.1546 125.469 80.3 125.381C80.3582 124.682 80.4164 123.633 80.4164 122.379C80.4745 117.308 79.8347 113.403 79.1076 109.381C78.555 106.233 77.9733 103.872 77.6825 102.648C77.2172 100.87 76.7518 99.2966 76.3737 98.0433Z" fill="white"/>
<path d="M76.2573 98.0725C78.933 106.816 80.3 115.88 80.3291 125.002C80.3291 125.148 80.5617 125.148 80.5617 125.002C80.5326 115.851 79.1657 106.758 76.49 98.0142C76.4318 97.8685 76.2283 97.9268 76.2573 98.0725Z" fill="#202124"/>
<path d="M71.3712 105.504C73.5525 111.975 75.7338 118.445 77.9151 124.944C77.9732 125.09 78.1768 125.031 78.1186 124.886C75.9374 118.416 73.7561 111.945 71.5748 105.446C71.5457 105.33 71.3131 105.388 71.3712 105.504Z" fill="#202124"/>
<path d="M78.0314 125.352C78.7003 125.877 79.6019 125.935 80.329 125.469C80.4454 125.381 80.329 125.206 80.2127 125.294C79.5728 125.702 78.7876 125.673 78.1768 125.235C78.0896 125.119 77.9151 125.265 78.0314 125.352Z" fill="#202124"/>
<path d="M79.1367 126.285C79.1948 126.926 79.5147 127.45 79.6602 128.063C79.8928 128.995 79.8347 129.957 79.7765 130.89C79.7765 131.035 79.9801 131.035 80.0092 130.89C80.0673 130.103 80.0964 129.287 79.9801 128.5C79.8638 127.713 79.4275 127.042 79.3693 126.256C79.3402 126.168 79.1076 126.168 79.1367 126.285Z" fill="#202124"/>
<path d="M78.3513 126.051C78.235 126.634 78.1187 127.217 78.0314 127.8C77.9733 128.15 77.7697 128.645 77.886 129.024C78.0023 129.403 78.4968 129.491 78.6422 129.083C78.7003 128.937 78.4677 128.908 78.4386 129.024C78.0896 128.966 77.9733 128.791 78.0896 128.5C78.0896 128.441 78.1187 128.354 78.1187 128.296C78.1478 128.033 78.2059 127.8 78.2641 127.538C78.3513 127.072 78.4386 126.605 78.5258 126.11C78.584 125.964 78.3513 125.906 78.3513 126.051Z" fill="#202124"/>
<path d="M80.5327 126.955C80.7653 128.733 80.5908 130.452 80.0092 132.143C79.951 132.289 80.1837 132.347 80.2128 132.201C80.7944 130.482 80.9689 128.762 80.7363 126.955C80.7072 126.809 80.5036 126.809 80.5327 126.955Z" fill="#202124"/>
<path d="M78.8457 129.024C78.933 129.782 78.8457 130.511 78.5549 131.21C78.4967 131.327 78.7003 131.385 78.7585 131.268C79.0493 130.54 79.1656 129.782 79.0493 129.024C79.0493 128.908 78.8457 128.908 78.8457 129.024Z" fill="#202124"/>
<path d="M79.2239 129.345C79.3984 130.19 79.3693 131.006 79.0785 131.822C79.0203 131.968 79.253 132.026 79.2821 131.88C79.5729 131.035 79.6311 130.161 79.4275 129.287C79.3984 129.17 79.1948 129.228 79.2239 129.345Z" fill="#202124"/>
<path d="M66.0198 92.3892C66.5433 91.8354 66.8051 91.3108 66.9796 90.9319C67.2123 90.4365 67.3868 89.9993 67.2995 89.4455C67.2704 89.2415 67.2123 88.8044 66.8633 88.4838C66.2816 87.9592 65.3509 88.2214 64.7983 88.3963C63.7513 88.6878 63.0242 89.329 62.6171 89.7661C62.4425 89.6496 62.0063 89.3872 61.4246 89.4164C61.221 89.4164 60.8429 89.4455 60.5521 89.7078C60.2031 90.0576 60.4067 90.4365 60.2031 90.9611C59.9995 91.5148 59.4469 91.8354 58.3708 92.4766C57.2075 93.1469 57.2075 92.9721 56.7712 93.3218C55.8987 93.9921 55.6079 94.9539 55.317 95.974C55.1135 96.6735 54.7645 97.781 54.939 99.2382C55.0262 99.8794 55.2007 101.278 56.1896 102.444C57.8182 104.368 60.6684 104.543 62.588 104.018C64.1585 103.581 65.1473 102.677 65.4963 102.357C65.9035 101.978 67.0087 100.899 67.474 99.0925C67.8812 97.4604 67.5613 96.1489 67.3286 95.3037C67.0378 93.9921 66.4561 93.0012 66.0198 92.3892Z" fill="#202124"/>
<path d="M63.0243 89.8536C63.286 89.9702 63.635 90.1451 63.9841 90.3782C64.4785 90.7571 64.8275 91.1652 65.0311 91.4566C65.0602 91.34 65.2346 90.8154 64.9729 90.3491C64.653 89.7953 63.8386 89.533 63.0243 89.8536Z" fill="white"/>
<path d="M67.096 90.6989C67.0087 90.9029 66.9215 91.1069 66.8052 91.3109C66.5434 91.7772 66.2817 92.1269 66.0199 92.4184C66.1362 92.6224 66.2235 92.8264 66.3398 93.0304C66.6888 93.7008 66.9797 94.3711 67.2705 95.0123C67.3577 94.8666 67.4741 94.6917 67.5613 94.4585C67.6195 94.3128 67.8231 93.8173 67.8522 93.1179C67.8813 92.5058 67.7358 92.0395 67.6777 91.8355C67.5322 91.3109 67.2705 90.932 67.096 90.6989Z" fill="white"/>
<path d="M61.3084 89.3581C60.814 89.329 60.5813 89.4456 60.3486 89.9119C59.9414 90.7279 60.0578 91.4566 59.1562 92.0395C58.6327 92.36 58.0219 92.5058 57.4693 92.7972C55.8406 93.7007 55.2299 95.4494 54.9681 97.2272C54.3574 101.104 56.4223 104.018 60.4068 104.339C64.1004 104.63 67.2996 101.803 67.7068 98.1599C68.1721 93.963 65.2347 90.4656 61.3665 89.2998C61.2211 89.2707 61.163 89.4747 61.3084 89.5039C64.8275 90.5531 67.6486 93.6133 67.5323 97.4312C67.4159 101.22 64.304 104.426 60.4068 104.105C58.3418 103.931 56.2769 102.998 55.4626 100.987C54.8518 99.4131 54.9972 97.577 55.4335 96.0032C55.7243 94.9248 56.2187 93.8756 57.1494 93.2052C57.7893 92.7681 58.5745 92.6224 59.2434 92.2143C59.5924 92.0103 59.9124 91.748 60.1159 91.3983C60.4359 90.8737 60.3777 89.5039 61.2793 89.5621C61.4538 89.5913 61.4538 89.3581 61.3084 89.3581Z" fill="#202124"/>
<path d="M62.7043 89.8827C63.5187 88.8626 64.8565 88.2506 66.1653 88.5129C68.143 88.9209 66.7469 91.4274 65.9326 92.3309C65.8454 92.4475 65.9908 92.5932 66.078 92.4766C66.776 91.6605 68.2884 89.2707 66.8051 88.4838C65.3509 87.726 63.4605 88.542 62.5007 89.7078C62.4716 89.8244 62.6171 89.9701 62.7043 89.8827Z" fill="#202124"/>
<path d="M67.0088 90.7572C67.8813 91.9521 67.9976 93.4676 67.2996 94.7791C67.2414 94.8957 67.4159 95.0123 67.4741 94.8957C68.2012 93.5259 68.0849 91.8938 67.1833 90.6406C67.096 90.524 66.9215 90.6406 67.0088 90.7572Z" fill="#202124"/>
<path d="M0.145386 12.9986L0.930645 73.4742C0.930645 73.4742 44.6434 78.458 44.6434 78.0791C44.6434 77.7002 46.1848 5.97473 46.1848 5.97473L0.145386 12.9986Z" fill="white" stroke="#202124" stroke-miterlimit="10"/>
<path d="M24.7148 56.2097C29.508 52.0936 30.9872 45.9429 28.0189 42.4717C25.0506 39.0009 18.7587 39.5237 13.9656 43.6401C9.17243 47.7563 7.69315 53.907 10.6615 57.3778C13.6298 60.849 19.9217 60.3258 24.7148 56.2097Z" fill="white" stroke="#202124" stroke-miterlimit="10"/>
<path d="M20.5621 46.7484C22.6561 44.854 25.041 43.4259 27.6876 42.435C27.8039 42.3767 27.7748 42.1727 27.6294 42.2309C24.9537 43.2219 22.5398 44.7083 20.4167 46.6027C20.3003 46.661 20.4458 46.8358 20.5621 46.7484Z" fill="#202124"/>
<path d="M17.0721 43.9505C19.8059 46.0781 22.2199 48.4971 24.343 51.2367C24.4302 51.3533 24.5757 51.1784 24.4884 51.091C22.3653 48.3805 19.9223 45.9324 17.2175 43.8048C17.1302 43.7174 16.9848 43.8631 17.0721 43.9505Z" fill="#202124"/>
<path d="M7.59082 14.3392C6.10755 15.9131 4.82787 18.0406 4.68245 20.2556C4.56611 21.946 5.55496 23.2576 7.32906 23.1993C9.68484 23.141 11.6625 20.9551 13.5821 19.8185C16.345 18.1864 19.7769 18.2738 21.5219 21.334C23.0633 24.0153 21.8709 27.8333 19.0789 29.2614C18.3809 29.6111 17.2757 30.4855 16.6358 29.0574C16.4904 28.7368 16.6649 27.979 16.7522 27.6293C16.9848 26.9007 17.4793 26.2595 18.0028 25.7349C19.0207 24.7148 20.4167 24.1028 21.7546 23.6364C24.7502 22.6164 28.2402 22.2083 31.3231 22.9078C34.3478 23.5782 36.5 26.2012 36.849 29.2323C37.2562 32.8171 35.3367 36.1979 32.4865 38.2672C30.9159 39.4038 27.8621 39.9576 27.3677 42.1143C27.3095 42.3766 27.7167 42.4932 27.7749 42.2309C28.153 40.5696 30.2761 40.1324 31.5558 39.3747C32.8645 38.6169 34.0861 37.626 35.0458 36.4602C36.7908 34.3035 37.7215 31.4473 37.2271 28.6785C36.7908 26.2303 35.1912 23.9862 32.8936 22.937C30.0725 21.6837 26.3498 22.0043 23.4414 22.7038C20.9693 23.2867 18.0028 24.3651 16.694 26.7258C15.7924 28.3871 16.0832 30.8935 18.4972 30.0192C23.1215 28.3288 24.1685 21.7129 19.9223 19.0316C17.1012 17.2537 14.1928 18.8567 11.7498 20.5179C10.2374 21.5672 5.23504 24.948 5.1187 20.6637C5.06054 18.4487 6.48564 16.1754 7.93982 14.6307C8.08524 14.4558 7.76532 14.1352 7.59082 14.3392Z" fill="#202124"/>
<path d="M4.94419 62.0203C6.25296 61.6123 7.64897 64.177 8.17248 65.0805C8.8414 66.2755 9.30674 67.5578 9.59758 68.8985C9.68483 69.3357 10.3247 69.3065 10.441 68.8985C10.7028 67.9076 12.4769 67.5578 13.3203 67.3538C14.5418 67.0332 15.7051 66.9458 16.9557 67.3247C17.5083 67.4995 17.7119 66.6543 17.1884 66.4795C15.4434 65.9549 13.7565 66.2463 12.0697 66.8292C11.0518 67.179 9.9175 67.5287 9.62666 68.6945C9.9175 68.6945 10.1793 68.6945 10.4701 68.6945C10.0338 66.7418 9.24857 64.9057 8.05614 63.3027C7.27088 62.2535 6.22387 60.7671 4.74061 61.2043C4.15893 61.3208 4.3916 62.166 4.94419 62.0203Z" fill="#B1CEFC"/>
<path d="M20.7657 14.7182C22.9469 17.9533 28.6183 13.2901 30.1888 11.5123C29.927 11.3957 29.6944 11.3082 29.4326 11.1917C29.4326 14.1936 32.1083 15.68 34.5804 16.6418C35.1039 16.8458 35.3366 16.0006 34.8131 15.7966C32.7191 14.9805 30.3051 13.7856 30.3051 11.1917C30.3051 10.8419 29.8107 10.6088 29.5489 10.8711C28.5601 11.9786 27.4549 12.9112 26.1752 13.6398C25.1573 14.2227 22.4525 15.7091 21.4928 14.2519C21.2019 13.8147 20.4457 14.2519 20.7657 14.7182Z" fill="#B1CEFC"/>
<path d="M32.3119 65.1679C34.3478 61.9911 38.8267 63.3027 41.9386 62.9821C42.2876 62.9529 42.4621 62.6323 42.3167 62.3117C40.8044 58.8435 42.404 54.9672 45.9231 53.5974C46.4466 53.3934 46.2139 52.5482 45.6904 52.7522C41.6187 54.326 39.8155 58.7561 41.5605 62.7489C41.6769 62.5158 41.8223 62.3117 41.9386 62.0786C38.4195 62.4575 33.8243 61.1459 31.5558 64.7016C31.2649 65.1971 32.0211 65.6634 32.3119 65.1679Z" fill="#B1CEFC"/>
<path d="M3.66454 27.4836C4.42072 29.378 3.98446 31.4181 2.53027 32.8462C2.1231 33.2251 2.73386 33.8663 3.14104 33.4583C4.82789 31.8553 5.38048 29.4071 4.50797 27.2504C4.2753 26.7258 3.43187 26.959 3.66454 27.4836Z" fill="#B1CEFC"/>
<path d="M2.96656 37.5094C4.21715 38.7335 3.89723 40.4822 3.51915 41.9977C3.40281 42.5515 4.24624 42.7846 4.36257 42.2309C4.79883 40.3948 5.06058 38.3546 3.57731 36.8974C3.17014 36.4893 2.55938 37.1014 2.96656 37.5094Z" fill="#B1CEFC"/>
<path d="M97.6047 5.94556C113.339 5.94556 129.073 5.94556 144.808 5.94556C145.098 28.1831 145.389 50.4498 145.709 72.6873C129.568 73.5908 113.426 74.4651 97.2557 75.3686C97.3721 52.2568 97.4884 29.0866 97.6047 5.94556Z" fill="white" stroke="#202124" stroke-miterlimit="10"/>
<path d="M138.642 21.5381L106.446 22.1793C105.894 22.1793 105.457 22.6456 105.486 23.1994L106.097 50.6829C106.097 51.2367 106.592 51.6738 107.144 51.6447L121.279 50.5663V54.7049C119.737 54.9381 118.632 55.5501 118.632 56.2496C118.632 57.1531 120.377 57.8817 122.559 57.8817C124.74 57.8817 126.485 57.1531 126.485 56.2496C126.485 55.521 125.38 54.9089 123.838 54.7049V50.3623L138.729 49.2548C139.253 49.2257 139.631 48.7885 139.631 48.2639V22.4999C139.66 21.9461 139.194 21.509 138.642 21.5381Z" fill="#7DACF0"/>
<path d="M107.377 23.9279L107.929 49.3422C107.929 49.896 108.424 50.3623 109.006 50.304L136.839 48.1181C137.362 48.089 137.74 47.6518 137.74 47.1272V23.3159C137.74 22.7621 137.275 22.325 136.722 22.325L108.337 22.937C107.813 22.937 107.377 23.4033 107.377 23.9279Z" fill="white"/>
<path d="M105.777 18.4779C107.435 16.875 108.657 14.9514 109.384 12.7655C109.122 12.7947 108.86 12.8238 108.598 12.8821C110.169 15.5926 114.677 15.3011 117.294 14.8931C117.847 14.8057 117.614 13.9605 117.062 14.0479C114.851 14.3976 110.692 14.7474 109.355 12.4449C109.151 12.0952 108.686 12.2118 108.569 12.5615C107.871 14.6308 106.737 16.3795 105.167 17.895C104.759 18.2739 105.37 18.8859 105.777 18.4779Z" fill="#B1CEFC"/>
<path d="M134.657 15.0388C135.413 15.8548 136.373 16.3503 137.449 16.6126C138.031 16.7583 138.642 16.7875 139.223 16.8166C139.572 16.8166 141.23 16.5252 141.463 16.7C141.55 16.7875 141.521 17.8658 141.55 18.0698C141.666 18.7693 141.87 19.4396 142.132 20.11C142.626 21.2758 143.324 22.2958 144.197 23.2285C144.575 23.6365 145.215 23.0245 144.807 22.6164C143.76 21.5381 142.975 20.2557 142.597 18.7693C142.394 18.0407 142.481 17.2538 142.306 16.5543C142.248 16.3503 142.277 16.2046 142.103 16.0297C141.579 15.5051 140.387 15.9131 139.718 15.9131C138.06 15.9423 136.46 15.6508 135.268 14.3976C134.89 14.0187 134.279 14.6308 134.657 15.0388Z" fill="#B1CEFC"/>
<path d="M106.824 65.1679C109.267 65.9257 111.652 67.3246 112.525 69.8894C112.67 70.3266 113.194 70.2974 113.368 69.8894C114.27 67.6744 117.818 67.3829 119.825 67.1789C120.377 67.1206 120.377 66.2463 119.825 66.3046C117.294 66.5669 113.601 66.9166 112.525 69.6562C112.816 69.6562 113.077 69.6562 113.368 69.6562C112.379 66.8 109.791 65.1971 107.057 64.3227C106.504 64.177 106.272 65.0222 106.824 65.1679Z" fill="#B1CEFC"/>
<path d="M141.608 56.133C138.962 57.9691 137.188 60.7088 136.722 63.9147C136.868 63.7981 137.013 63.7107 137.129 63.5941C134.337 63.4484 131.749 64.2936 129.597 66.0131C129.16 66.3629 129.771 66.9749 130.207 66.6252C132.214 65.0513 134.599 64.3227 137.129 64.4393C137.304 64.4393 137.537 64.2936 137.537 64.1187C138.002 61.1459 139.543 58.5812 142.015 56.8616C142.51 56.5702 142.074 55.8124 141.608 56.133Z" fill="#B1CEFC"/>
<path d="M42.3749 0.145752C42.5785 26.6967 42.8111 53.2185 43.0147 79.7695C63.8095 79.6238 84.6334 79.4489 105.428 79.3032C104.759 52.9562 104.09 26.6384 103.392 0.291476C83.092 0.233187 62.7334 0.204042 42.3749 0.145752Z" fill="white" stroke="#202124" stroke-miterlimit="10"/>
<path d="M64.8565 12.1534C64.0131 12.9112 63.1987 13.7564 62.3844 14.6599C56.1023 21.7712 54.3573 30.3107 53.892 35.9648C55.5497 35.8482 57.2366 35.7608 58.8944 35.6442C59.0689 34.0412 59.4179 31.5348 60.3776 28.6494C61.7155 24.6274 63.8095 18.3321 69.5099 15.6217C70.8187 15.0096 73.6398 13.9313 77.886 14.5433C77.0135 13.873 75.8792 13.1444 74.4541 12.5906C70.3533 10.9294 66.5143 11.7163 64.8565 12.1534Z" fill="#B1CEFC"/>
<path d="M64.8566 12.1535C68.0849 11.1626 70.3243 11.5415 71.7785 12.0661C78.8749 14.6308 82.8594 26.7842 80.5617 42.2601C82.3359 40.7154 84.11 39.1708 85.855 37.6261C86.6984 26.143 84.2263 16.5835 79.3112 12.7364C76.5482 10.5505 73.6398 10.0842 73.6398 10.0842C69.3936 9.41389 65.9908 11.4249 64.8566 12.1535Z" fill="#7DACF0"/>
<path d="M85.3024 62.953C89.3823 62.953 92.6897 57.1202 92.6897 49.9252C92.6897 42.7302 89.3823 36.8975 85.3024 36.8975C81.2226 36.8975 77.9152 42.7302 77.9152 49.9252C77.9152 57.1202 81.2226 62.953 85.3024 62.953Z" fill="white" stroke="#202124" stroke-miterlimit="10"/>
<path d="M88.1525 59.1641C91.0437 59.1641 93.3876 55.0279 93.3876 49.9252C93.3876 44.8228 91.0437 40.6863 88.1525 40.6863C85.2613 40.6863 82.9175 44.8228 82.9175 49.9252C82.9175 55.0279 85.2613 59.1641 88.1525 59.1641Z" fill="white" stroke="#202124" stroke-miterlimit="10"/>
<path d="M56.8294 59.8344C60.9092 59.8344 64.2166 54.002 64.2166 46.8067C64.2166 39.6117 60.9092 33.7789 56.8294 33.7789C52.7495 33.7789 49.4421 39.6117 49.4421 46.8067C49.4421 54.002 52.7495 59.8344 56.8294 59.8344Z" fill="white" stroke="#202124" stroke-miterlimit="10"/>
<path d="M57.1203 56.4537C59.7065 56.4537 61.8028 52.3174 61.8028 47.2147C61.8028 42.1124 59.7065 37.9758 57.1203 37.9758C54.5342 37.9758 52.4379 42.1124 52.4379 47.2147C52.4379 52.3174 54.5342 56.4537 57.1203 56.4537Z" fill="white" stroke="#202124" stroke-miterlimit="10"/>
<path d="M56.6841 38.0341C57.4984 39.025 58.6327 40.6862 59.4179 42.9595C59.796 44.0379 60.6104 46.4861 60.2323 49.692C59.8542 52.9562 58.4582 55.2587 57.6729 56.4245C58.1092 56.1913 58.7781 55.8124 59.4179 55.2004C62.559 52.1985 61.9191 47.2438 61.7156 45.5826C61.5411 44.1253 60.9303 39.1416 58.0219 38.2089C57.4984 38.0049 57.0331 38.0049 56.6841 38.0341Z" fill="#202124"/>
<path d="M47.9298 18.1865C50.6346 15.4469 50.1402 10.6963 50.3147 7.16974C50.0529 7.28632 49.8203 7.37375 49.5585 7.49033C51.0418 8.80185 52.9613 8.5104 54.7936 8.27724C56.9458 8.01494 59.0398 7.57776 60.8721 6.44112C61.3374 6.14967 60.9011 5.3919 60.4358 5.68335C58.9525 6.58684 57.3239 7.02401 55.6079 7.28632C53.9211 7.54862 51.5362 8.10237 50.1402 6.87829C49.8493 6.61598 49.4131 6.79085 49.384 7.19888C49.2095 10.4631 49.733 15.0971 47.2609 17.6036C46.9119 17.9533 47.5227 18.5654 47.9298 18.1865Z" fill="#B1CEFC"/>
<path d="M47.0573 64.0604C49.733 65.7217 51.7107 68.1699 52.7868 71.1135C52.874 71.3758 53.1649 71.5215 53.4266 71.3758C56.9748 69.5397 61.1629 69.7145 64.5366 71.7838C65.031 72.0753 65.4673 71.3175 64.9728 71.0261C61.3083 68.7819 56.8003 68.6362 52.9613 70.618C53.1649 70.7055 53.3975 70.7929 53.6011 70.8803C52.4378 67.7036 50.3438 65.0805 47.4645 63.3027C47.0282 62.9821 46.592 63.7399 47.0573 64.0604Z" fill="#B1CEFC"/>
<path d="M85.3315 3.14777C87.0765 8.62701 93.7658 8.16069 98.2446 9.41392C98.1574 9.2099 98.0701 8.97674 97.9829 8.77273C95.947 12.1827 96.0052 16.4087 98.1283 19.7895C98.4191 20.2558 99.1753 19.8186 98.8845 19.3523C96.9359 16.263 96.8777 12.3867 98.7391 9.23905C98.8845 9.00589 98.7391 8.6853 98.4773 8.59786C94.4056 7.46121 87.7745 7.95667 86.1749 2.94376C86.0004 2.39 85.157 2.62316 85.3315 3.14777Z" fill="#B1CEFC"/>
<path d="M102.84 56.2205C100.717 57.0074 98.7971 59.2515 97.4593 61.0002C96.0051 62.9238 95.1035 65.2262 95.4525 67.6744C95.5398 68.2281 96.4123 68.2281 96.325 67.6744C96.0051 65.2845 96.9067 63.0986 98.3899 61.2625C99.5533 59.8053 101.327 57.736 103.102 57.0948C103.596 56.8616 103.392 56.0164 102.84 56.2205Z" fill="#B1CEFC"/>
<path d="M79.6892 73.3868C80.6489 71.6381 82.9465 70.9969 84.7497 70.4723C86.931 69.802 89.1704 69.5688 91.4099 70.0934C91.9625 70.21 92.1952 69.394 91.6426 69.2482C89.0832 68.6362 86.4947 68.9568 84.0226 69.7728C82.1322 70.3849 79.98 71.1135 78.9621 72.9496C78.6422 73.4451 79.3983 73.8823 79.6892 73.3868Z" fill="#B1CEFC"/>
</g>
</g>
<defs>
<clipPath id="clip0_96_1221">
<rect width="146" height="167" fill="white"/>
</clipPath>
</defs>
</svg>
