<svg width="231" height="231" viewBox="0 0 231 231" fill="none" xmlns="http://www.w3.org/2000/svg">
<path d="M21.7525 126.896C47.817 122.854 74.228 125.51 100.292 128.167C113.305 129.514 126.357 130.823 139.408 131.362C152.729 131.901 166.012 131.208 179.294 130.4C194.425 129.476 209.594 128.59 224.725 129.822C224.917 129.822 224.917 129.553 224.725 129.514C197.736 127.281 170.824 131.824 143.836 131.17C117.54 130.515 91.5145 126.203 65.2575 124.856C50.7045 124.124 36.0745 124.317 21.637 126.588C21.483 126.627 21.56 126.896 21.7525 126.896Z" fill="#0C0C0C"/>
<path d="M148.956 28.6824C148.956 23.8699 145.376 19.9814 140.987 19.9814C136.598 19.9814 133.017 23.8699 133.017 28.6824C133.017 32.6479 135.443 35.9974 138.754 37.0369V40.6945H143.066V37.0754C146.454 36.0744 148.956 32.7249 148.956 28.6824Z" fill="white" stroke="#0C0C0C" stroke-width="0.75" stroke-miterlimit="10"/>
<path d="M144.375 40.2715H137.599V43.698H144.375V40.2715Z" fill="#F27777"/>
<path d="M137.561 41.3486H144.414" stroke="#0C0C0C" stroke-width="0.75" stroke-miterlimit="10"/>
<path d="M137.599 42.6965H144.221" stroke="#0C0C0C" stroke-width="0.75" stroke-miterlimit="10"/>
<path d="M140.987 39.9633V27.7588" stroke="#0C0C0C" stroke-width="0.75" stroke-miterlimit="10"/>
<path d="M138.177 27.1807L140.91 31.9932" stroke="#0C0C0C" stroke-width="0.75" stroke-miterlimit="10"/>
<path d="M143.797 27.1035L141.064 31.916" stroke="#0C0C0C" stroke-width="0.75" stroke-miterlimit="10"/>
<path d="M124.162 22.291L129.822 23.4075" stroke="#0C0C0C" stroke-width="0.75" stroke-miterlimit="10"/>
<path d="M129.514 15.2844L132.325 18.5954" stroke="#0C0C0C" stroke-width="0.75" stroke-miterlimit="10"/>
<path d="M136.328 11.3193L137.483 16.1703" stroke="#0C0C0C" stroke-width="0.75" stroke-miterlimit="10"/>
<path d="M142.835 15.9005L143.759 12.2815" stroke="#0C0C0C" stroke-width="0.75" stroke-miterlimit="10"/>
<path d="M146.762 18.9806L150.958 14.0911" stroke="#0C0C0C" stroke-width="0.75" stroke-miterlimit="10"/>
<path d="M149.842 22.4451L156.387 19.5576" stroke="#0C0C0C" stroke-width="0.75" stroke-miterlimit="10"/>
<path d="M150.958 26.257L154.924 25.9875" stroke="#0C0C0C" stroke-width="0.75" stroke-miterlimit="10"/>
<path d="M151.536 29.5294L154.039 30.6844" stroke="#0C0C0C" stroke-width="0.75" stroke-miterlimit="10"/>
<path d="M125.587 30.3759L130.323 28.5664" stroke="#0C0C0C" stroke-width="0.75" stroke-miterlimit="10"/>
<path d="M131.439 32.1094L128.821 35.0354" stroke="#0C0C0C" stroke-width="0.75" stroke-miterlimit="10"/>
<path d="M73.227 145.26L33.88 161.738L18.942 142.142L55.517 129.745L73.227 145.26Z" fill="white" stroke="#0C0C0C" stroke-width="0.75" stroke-miterlimit="10"/>
<path d="M112.304 202.895C112.535 201.778 113.036 200.084 114.114 198.352C114.884 197.081 115.731 196.196 116.385 195.618C116.963 195.657 120.158 195.965 121.66 198.891C122.353 200.277 122.815 202.51 122.122 203.241C121.583 203.819 120.928 203.049 119.119 203.241C117.617 203.395 117.309 204.011 116.116 204.165C115.192 204.242 113.921 204.088 112.304 202.895Z" fill="white" stroke="#0C0C0C" stroke-width="0.75" stroke-miterlimit="10"/>
<path d="M31.3774 193.617C31.3004 193.193 31.4159 192.847 34.6499 189.651C35.8819 188.419 36.3824 187.957 37.1524 187.957C38.1149 187.996 38.8079 188.766 39.1159 189.151C40.7329 188.804 42.2344 189.074 42.9274 189.959C43.4664 190.614 43.3894 191.384 43.3509 191.538C43.0429 194.117 37.8454 196.774 34.0339 195.619C33.6489 195.503 31.6084 194.849 31.3774 193.617Z" fill="white" stroke="#0C0C0C" stroke-width="0.75" stroke-miterlimit="10"/>
<path d="M11.55 162.393C10.7415 160.545 11.55 157.465 13.3595 157.349C14.2835 157.311 14.476 158.042 15.7465 158.158C17.7485 158.35 18.557 156.733 19.866 157.118C20.867 157.426 21.252 158.658 21.6755 160.121C22.099 161.43 22.3685 162.316 22.022 163.009C20.79 165.473 12.859 165.357 11.55 162.393Z" fill="white" stroke="#0C0C0C" stroke-width="0.75" stroke-miterlimit="10"/>
<path d="M112.381 202.818C113.074 201.471 113.69 199.469 114.768 198.314C115.885 197.12 117.194 198.006 118.156 198.66C118.503 198.891 120.89 201.278 119.388 201.086C118.695 201.009 117.964 200.008 117.117 200.508C116.847 200.662 116.924 200.739 116.77 200.97C116.693 201.047 116.732 201.201 116.693 201.278C116.347 202.241 115.885 203.049 114.73 203.049C114.537 203.049 114.537 203.319 114.73 203.357C115.423 203.357 116 203.126 116.462 202.587C116.693 202.318 116.693 202.087 116.886 201.817C116.924 201.124 117.425 200.816 118.31 200.855C118.734 201.009 119.08 201.201 119.427 201.471C120.389 201.74 120.697 201.278 120.235 200.354C119.812 199.546 119.08 198.93 118.349 198.429C117.771 198.044 116.462 197.082 115.692 197.197C115.076 197.274 114.576 198.121 114.306 198.622C113.498 199.931 112.882 201.355 112.189 202.703C112.035 202.818 112.266 202.972 112.381 202.818Z" fill="#0C0C0C"/>
<path d="M114.884 202.972C114.268 202.279 114.307 201.24 114.846 200.508C115.231 199.931 116.232 199.238 116.963 199.238C117.117 199.161 117.271 199.199 117.387 199.392C117.348 200.046 117.002 200.354 116.27 200.431C116.039 200.47 115.962 200.431 115.77 200.547C115.462 200.701 115.308 200.893 115.269 201.24C115.231 201.432 115.5 201.509 115.539 201.317C115.577 201.009 116.347 200.778 116.578 200.739C116.694 200.701 116.809 200.701 116.886 200.662C117.079 200.585 117.233 200.431 117.387 200.277C117.656 199.892 117.772 199.392 117.579 198.968C117.541 198.93 117.502 198.891 117.464 198.891C116.463 198.814 115.154 199.546 114.615 200.393C114.037 201.24 113.999 202.433 114.692 203.203C114.807 203.319 115 203.126 114.884 202.972Z" fill="#0C0C0C"/>
<path d="M38.9235 189.304C39.0775 189.651 39.2315 189.92 39.4625 190.19C39.6935 190.421 40.271 190.652 40.3865 190.844C40.964 191.961 40.0785 192.23 39.2315 192.538C38.8465 192.692 38.3075 192.885 37.884 192.962C37.037 193.077 36.575 192.5 35.728 192.577C35.0735 192.654 34.6115 193.077 34.2265 193.539C33.8415 194.001 33.3025 194.617 33.9185 195.002C34.0725 195.079 34.65 195.041 34.6885 195.041C35.3815 195.041 35.805 195.118 36.498 195.156C37.2295 195.233 37.422 195.041 38.1535 194.617C38.3075 194.54 38.1535 194.271 37.9995 194.386C37.114 194.925 36.5365 194.771 35.6125 194.733C35.266 194.694 34.111 194.964 33.957 194.425C33.9185 194.271 34.573 193.501 34.65 193.424C35.959 192.346 36.421 193.27 37.422 193.308C38.038 193.308 38.8465 192.962 39.424 192.731C39.963 192.538 41.118 192.307 41.1565 191.537C41.1565 191.306 41.041 191.191 40.9255 190.998C40.3865 190.267 39.501 190.151 39.039 189.15C39.0775 188.996 38.8465 189.15 38.9235 189.304Z" fill="#0C0C0C"/>
<path d="M11.5501 160.122C12.6666 158.928 13.8986 159.236 15.1306 160.083C16.0161 160.699 16.8631 161.392 17.6331 162.085C18.8266 163.163 18.0181 162.855 16.7861 162.624C15.6311 162.393 14.5146 162.008 13.3981 161.546C13.3211 161.508 13.1671 161.546 13.1671 161.662C13.2056 162.586 13.6291 163.163 14.4376 163.587C14.5916 163.664 14.7456 163.433 14.5916 163.356C13.9756 163.125 13.7061 162.701 13.7446 162.008C13.8986 162.085 14.0911 162.162 14.2451 162.201C14.7071 162.239 15.2846 162.547 15.7081 162.663C16.7091 162.932 17.7486 163.086 18.7881 163.163C18.9036 163.163 18.9806 163.009 18.9036 162.932C17.5561 161.585 15.9776 160.122 14.2836 159.198C13.0516 158.543 12.2046 158.967 11.3191 159.929C11.2421 160.045 11.4346 160.237 11.5501 160.122Z" fill="#0C0C0C"/>
<path d="M18.0181 160.891C18.1721 160.776 18.2491 160.66 18.3261 160.506C18.4801 160.198 18.4801 159.929 18.9421 160.083C19.6351 160.314 20.2896 161.084 20.6746 161.7C20.7901 161.854 21.0211 161.7 20.9056 161.546C20.4821 160.853 19.7121 160.006 18.9036 159.736C18.1721 159.505 18.2876 160.352 17.8641 160.66C17.7486 160.776 17.8641 161.007 18.0181 160.891Z" fill="#0C0C0C"/>
<path d="M27.4504 144.182L35.2274 153.846" stroke="#F6D47B" stroke-opacity="0.9" stroke-miterlimit="10"/>
<path d="M33.495 138.677L43.967 151.613" stroke="#F6D47B" stroke-opacity="0.9" stroke-miterlimit="10"/>
<path d="M41.426 140.062L47.047 147.301" stroke="#F6D47B" stroke-opacity="0.9" stroke-miterlimit="10"/>
<path d="M46.354 135.636L53.7075 145.145" stroke="#F6D47B" stroke-opacity="0.9" stroke-miterlimit="10"/>
<path d="M149.572 197.582L124.663 193.924L144.529 176.522L166.936 179.102L149.572 197.582Z" fill="white" stroke="#0C0C0C" stroke-width="0.75" stroke-miterlimit="10"/>
<path d="M96.8275 206.437H53.7075L62.832 184.761H105.952L96.8275 206.437Z" fill="white" stroke="#0C0C0C" stroke-width="0.75" stroke-miterlimit="10"/>
<path d="M135.597 191.653L144.606 193.001" stroke="#F6D47B" stroke-opacity="0.9" stroke-miterlimit="10"/>
<path d="M137.252 187.456L153.114 189.689" stroke="#F6D47B" stroke-opacity="0.9" stroke-miterlimit="10"/>
<path d="M138.099 184.415L156.002 187.072" stroke="#F6D47B" stroke-opacity="0.9" stroke-miterlimit="10"/>
<path d="M143.682 181.104L159.082 183.298" stroke="#F6D47B" stroke-opacity="0.9" stroke-miterlimit="10"/>
<path d="M100.292 189.035L95.403 199.969" stroke="#F6D47B" stroke-opacity="0.9" stroke-miterlimit="10"/>
<path d="M96.2115 186.609L88.165 202.895" stroke="#F6D47B" stroke-opacity="0.9" stroke-miterlimit="10"/>
<path d="M89.628 187.957L84.161 199.315" stroke="#F6D47B" stroke-opacity="0.9" stroke-miterlimit="10"/>
<path d="M83.0445 187.957L76.4225 201.74" stroke="#F6D47B" stroke-opacity="0.9" stroke-miterlimit="10"/>
<path d="M66.7205 185.454L59.5594 202.433" stroke="#F6D47B" stroke-opacity="0.9" stroke-miterlimit="10"/>
<path d="M71.4175 187.957L66.7205 199.353" stroke="#F6D47B" stroke-opacity="0.9" stroke-miterlimit="10"/>
<path d="M205.012 189.382L176.137 181.605L203.28 155.271L227.111 156.734L205.012 189.382Z" fill="white" stroke="#0C0C0C" stroke-width="0.75" stroke-miterlimit="10"/>
<path d="M204.627 185.108L182.413 179.525L203.626 157.272L223.03 158.235L204.627 185.108Z" fill="white" stroke="#0C0C0C" stroke-width="0.75" stroke-miterlimit="10"/>
<path d="M185.609 180.334L207.053 157.427" stroke="#0C0C0C" stroke-width="0.75" stroke-miterlimit="10"/>
<path d="M190.19 181.489L211.249 157.657" stroke="#0C0C0C" stroke-width="0.75" stroke-miterlimit="10"/>
<path d="M194.81 182.644L214.984 157.85" stroke="#0C0C0C" stroke-width="0.75" stroke-miterlimit="10"/>
<path d="M199.391 183.799L218.641 158.004" stroke="#0C0C0C" stroke-width="0.75" stroke-miterlimit="10"/>
<path d="M185.339 176.446L207.669 180.681" stroke="#0C0C0C" stroke-width="0.75" stroke-miterlimit="10"/>
<path d="M191.807 173.751L210.325 176.792" stroke="#0C0C0C" stroke-width="0.75" stroke-miterlimit="10"/>
<path d="M195.079 170.247L213.367 172.326" stroke="#0C0C0C" stroke-width="0.75" stroke-miterlimit="10"/>
<path d="M198.583 166.474L216.101 168.36" stroke="#0C0C0C" stroke-width="0.75" stroke-miterlimit="10"/>
<path d="M198.391 162.739L218.757 164.433" stroke="#0C0C0C" stroke-width="0.75" stroke-miterlimit="10"/>
<path d="M201.047 159.929L220.99 161.199" stroke="#0C0C0C" stroke-width="0.75" stroke-miterlimit="10"/>
<path d="M227.111 156.733L205.012 189.381L182.413 161.122L210.21 133.479L227.111 156.733Z" fill="white" stroke="#0C0C0C" stroke-width="0.75" stroke-miterlimit="10"/>
<path d="M204.858 162.316C203.857 161.931 202.856 160.814 203.01 159.621C203.434 156.464 204.897 158.504 205.705 158.697C206.437 158.851 207.13 159.197 207.823 158.697C208.4 158.273 208.477 157.657 208.362 156.964C208.246 156.194 207.707 155.424 208.092 154.616C209.363 152.036 211.249 154.693 211.788 155.848C212.096 156.541 213.097 155.925 212.789 155.27C211.981 153.538 209.979 151.42 207.938 152.883C207.322 153.307 206.976 154.038 206.86 154.731C206.783 155.155 206.783 155.54 206.86 155.963C206.937 156.31 207.014 156.656 207.168 156.964C206.783 157.811 206.283 157.927 205.705 157.349C204.011 156.541 202.356 156.926 201.932 158.966C201.509 160.93 202.779 162.701 204.55 163.394C205.243 163.702 205.551 162.585 204.858 162.316Z" fill="#F6D47B" fill-opacity="0.9"/>
<path d="M176.137 181.604C176.291 181.835 176.561 182.143 176.984 182.451C177.793 183.029 178.563 183.106 179.641 183.26C180.565 183.414 181.489 183.645 182.413 183.76C185.57 184.145 190.921 185.878 196.003 187.225C198.159 187.803 201.239 188.573 205.012 189.343" fill="#0C0C0C"/>
<path d="M182.413 161.122C182.297 161.353 182.182 161.546 182.028 161.777C197.235 180.257 204.897 189.497 205.012 189.42C205.089 189.304 197.543 179.91 182.413 161.122Z" fill="#0C0C0C"/>
<path d="M175.175 157.426L133.325 171.902C133.017 172.018 132.632 171.98 132.363 171.787L110.302 156.271C109.571 155.771 109.763 154.616 110.649 154.385L149.958 144.298C150.189 144.221 150.458 144.259 150.65 144.375L175.252 155.501C176.099 155.848 176.061 157.118 175.175 157.426Z" fill="#F27777"/>
<path d="M173.673 155.771L133.518 169.785C133.21 169.901 132.863 169.862 132.594 169.67L111.419 154.655C110.726 154.154 110.918 153.076 111.765 152.845C114.845 151.19 119.85 149.034 126.28 148.764C128.59 148.649 130.707 148.841 132.517 149.111C134.788 147.879 137.522 146.531 140.756 145.415C143.99 144.26 146.954 143.567 149.495 143.105C149.572 143.066 149.688 143.066 149.842 143.066C149.957 143.066 150.073 143.105 150.188 143.143L173.789 153.923C174.597 154.27 174.52 155.463 173.673 155.771Z" fill="white"/>
<path d="M111.111 153.499C117.463 149.072 125.202 148.417 132.709 149.341C132.902 149.38 132.902 149.072 132.709 149.033C125.163 148.109 117.348 148.764 110.957 153.23C110.841 153.384 110.957 153.615 111.111 153.499Z" fill="#0C0C0C"/>
<path d="M111.457 153.846C118.503 158.312 125.433 162.971 132.247 167.783C132.401 167.899 132.555 167.629 132.401 167.552C125.587 162.74 118.657 158.081 111.611 153.615C111.457 153.5 111.303 153.731 111.457 153.846Z" fill="#0C0C0C"/>
<path d="M121.198 161.238C124.932 163.664 128.59 166.205 132.209 168.784C132.363 168.9 132.517 168.63 132.363 168.553C128.744 165.974 125.086 163.433 121.352 161.007C121.159 160.853 121.044 161.123 121.198 161.238Z" fill="#0C0C0C"/>
<path d="M132.555 149.226C137.868 145.876 143.836 143.836 150.111 143.258C150.304 143.258 150.304 142.95 150.111 142.95C143.797 143.528 137.791 145.568 132.401 148.956C132.247 149.072 132.401 149.341 132.555 149.226Z" fill="#0C0C0C"/>
<path d="M133.749 149.919C140.255 153.846 146.608 158.042 152.806 162.431C152.96 162.547 153.114 162.277 152.96 162.2C146.762 157.811 140.371 153.653 133.903 149.688C133.71 149.572 133.556 149.842 133.749 149.919Z" fill="#0C0C0C"/>
<path d="M133.133 167.59C138.6 164.433 144.645 162.624 150.959 162.239C151.151 162.239 151.151 161.931 150.959 161.931C144.606 162.277 138.523 164.125 133.018 167.321C132.825 167.436 132.979 167.706 133.133 167.59Z" fill="#0C0C0C"/>
<path d="M153.615 161.662C159.39 158.736 165.435 156.426 171.71 154.77C171.903 154.732 171.826 154.462 171.633 154.501C165.319 156.156 159.275 158.466 153.461 161.392C153.307 161.508 153.461 161.739 153.615 161.662Z" fill="#0C0C0C"/>
<path d="M134.481 168.053C138.523 166.359 142.643 164.857 146.801 163.548C146.993 163.51 146.916 163.202 146.724 163.279C142.566 164.588 138.446 166.089 134.404 167.783C134.25 167.86 134.327 168.13 134.481 168.053Z" fill="#0C0C0C"/>
<path d="M142.142 166.243C144.414 165.396 146.724 164.626 148.995 163.856C149.188 163.779 149.111 163.51 148.918 163.587C146.608 164.357 144.337 165.165 142.065 165.974C141.911 166.051 141.988 166.32 142.142 166.243Z" fill="#0C0C0C"/>
<path d="M156.117 161.315C159.005 160.083 161.931 158.967 164.857 157.889C165.011 157.812 164.972 157.542 164.78 157.619C161.815 158.736 158.889 159.852 155.963 161.084C155.809 161.161 155.963 161.392 156.117 161.315Z" fill="#0C0C0C"/>
<path d="M164.664 158.697C167.205 157.696 169.746 156.734 172.326 155.733C172.48 155.656 172.441 155.386 172.249 155.463C169.708 156.464 167.167 157.427 164.587 158.428C164.433 158.466 164.51 158.736 164.664 158.697Z" fill="#0C0C0C"/>
<path d="M130.9 163.702C135.559 161.469 140.487 160.006 145.646 159.352C145.838 159.313 145.838 159.044 145.646 159.044C140.448 159.698 135.482 161.2 130.785 163.433C130.592 163.51 130.746 163.779 130.9 163.702Z" fill="#0C0C0C"/>
<path d="M138.138 162.932C139.293 162.431 140.486 162.123 141.718 161.969C141.911 161.931 141.911 161.661 141.718 161.661C140.409 161.815 139.177 162.162 137.984 162.662C137.83 162.778 137.984 163.009 138.138 162.932Z" fill="#0C0C0C"/>
<path d="M124.778 157.85C127.935 155.848 131.4 154.77 135.135 154.693C135.327 154.693 135.327 154.385 135.135 154.385C131.362 154.462 127.82 155.54 124.663 157.581C124.47 157.696 124.624 157.966 124.778 157.85Z" fill="#0C0C0C"/>
<path d="M129.475 159.236C131.362 158.428 133.287 157.812 135.25 157.35C135.443 157.311 135.366 157.042 135.173 157.08C133.21 157.542 131.285 158.158 129.398 158.967C129.206 159.044 129.283 159.313 129.475 159.236Z" fill="#0C0C0C"/>
<path d="M138.638 150.496C142.835 148.032 147.416 146.454 152.267 145.799C152.46 145.761 152.46 145.491 152.267 145.491C147.378 146.146 142.758 147.724 138.484 150.227C138.33 150.342 138.484 150.573 138.638 150.496Z" fill="#0C0C0C"/>
<path d="M147.455 149.996C149.226 149.226 151.035 148.61 152.922 148.186C153.114 148.148 153.037 147.878 152.845 147.917C150.92 148.34 149.072 148.956 147.301 149.765C147.147 149.803 147.301 150.073 147.455 149.996Z" fill="#0C0C0C"/>
<path d="M147.955 154.578C150.612 152.807 153.499 151.498 156.579 150.651C156.772 150.612 156.695 150.304 156.502 150.381C153.384 151.228 150.496 152.537 147.801 154.347C147.647 154.424 147.801 154.693 147.955 154.578Z" fill="#0C0C0C"/>
<path d="M156.041 156.965C159.082 155.194 162.355 153.962 165.82 153.307C166.012 153.269 165.935 152.999 165.743 153.038C162.239 153.692 158.967 154.924 155.887 156.734C155.733 156.811 155.887 157.08 156.041 156.965Z" fill="#0C0C0C"/>
<path d="M152.614 142.951C158.543 145.53 164.241 148.456 169.785 151.806C169.939 151.883 170.093 151.652 169.939 151.575C164.433 148.264 158.697 145.299 152.768 142.72C152.575 142.643 152.46 142.912 152.614 142.951Z" fill="#0C0C0C"/>
<path d="M100.947 163.047L77.385 176.522L76.923 175.675L100.485 162.2L100.947 163.047Z" fill="#FFCA9D"/>
<path d="M77.847 175.29C78.078 175.367 78.2705 175.598 78.2705 175.868C78.2705 176.06 78.5785 176.06 78.5785 175.868C78.5785 175.483 78.309 175.136 77.924 175.021C77.77 174.944 77.693 175.252 77.847 175.29Z" fill="white"/>
<path d="M100.639 162.124C101.216 161.931 101.755 161.739 102.333 161.585C102.525 161.546 102.448 161.277 102.256 161.315C101.678 161.469 101.101 161.662 100.562 161.854C100.369 161.893 100.446 162.162 100.639 162.124Z" fill="black"/>
<path d="M101.409 162.932C101.833 162.586 102.218 162.201 102.564 161.777C102.68 161.623 102.487 161.431 102.372 161.585C102.025 162.008 101.64 162.355 101.217 162.74C101.063 162.855 101.255 163.048 101.409 162.932Z" fill="black"/>
<path d="M102.025 161.662C102.102 161.7 102.14 161.777 102.217 161.816C102.333 161.893 102.487 161.816 102.448 161.662C102.448 161.623 102.41 161.546 102.41 161.508C102.41 161.546 102.371 161.585 102.371 161.662C102.564 161.7 102.641 161.431 102.448 161.392C102.333 161.354 102.256 161.392 102.14 161.469C102.102 161.508 102.102 161.546 102.102 161.623C102.102 161.662 102.14 161.739 102.14 161.777C102.217 161.739 102.294 161.7 102.371 161.623C102.294 161.585 102.256 161.508 102.179 161.469C102.102 161.315 101.871 161.508 102.025 161.662Z" fill="black"/>
<path d="M52.36 159.736C50.9355 160.699 48.8565 162.085 46.3925 163.817C36.5366 170.67 31.6086 174.097 32.1476 175.521C33.0331 177.947 46.6235 174.944 48.5485 174.52C54.7855 173.134 59.752 171.325 63.063 169.939C63.4095 167.706 63.756 165.434 64.064 163.201C60.1755 162.008 56.287 160.891 52.36 159.736Z" fill="#F27777"/>
<path d="M43.197 166.282C44.583 166.32 45.4685 167.398 46.2 168.438C46.3155 168.592 46.5465 168.438 46.431 168.284C45.6225 167.129 44.66 166.012 43.1585 165.974C43.0045 166.012 43.0045 166.282 43.197 166.282Z" fill="white"/>
<path d="M46.2 164.164C47.3935 164.703 48.3175 165.589 48.8565 166.744C48.9335 166.898 49.203 166.782 49.0875 166.59C48.51 165.396 47.509 164.434 46.3155 163.895C46.1615 163.818 46.046 164.087 46.2 164.164Z" fill="white"/>
<path d="M48.8565 162.393C50.127 162.932 51.051 163.971 51.436 165.319C51.4745 165.511 51.7825 165.434 51.7055 165.242C51.3205 163.856 50.3195 162.701 49.0105 162.162C48.818 162.085 48.7025 162.354 48.8565 162.393Z" fill="white"/>
<path d="M48.8565 162.431C48.1635 162.662 46.9315 162.893 46.277 162.316C46.5465 160.814 47.047 160.506 47.7785 161.353C47.894 161.469 48.048 161.546 48.1635 161.661C48.51 161.969 48.5485 162.123 48.972 162.008C49.049 161.969 49.0875 161.854 49.1645 161.815C49.7035 161.392 50.2425 160.429 51.0895 160.545C51.7055 160.314 51.821 160.699 51.513 161.661C51.282 161.815 51.0125 161.969 50.743 162.123C50.0885 162.47 49.434 162.662 48.7025 162.855C48.51 162.893 48.587 163.163 48.7795 163.124C49.4725 162.97 53.284 161.854 52.36 160.583C51.282 159.005 49.357 161.815 48.356 161.507C47.586 161.276 47.2395 160.275 46.2385 160.468C45.738 160.583 45.43 160.93 45.3915 161.43C45.3145 163.124 47.817 163.124 48.895 162.778C49.0875 162.624 49.049 162.354 48.8565 162.431Z" fill="white"/>
<path d="M76.7306 96.7505C74.4976 97.482 73.9971 99.484 70.5706 105.374C68.7996 108.416 68.9151 107.915 67.3751 110.495C65.3731 113.921 63.3326 117.964 60.2911 125.471C59.0976 128.436 56.3641 135.25 53.1301 145.337C51.1281 151.497 49.6651 156.656 48.6641 160.352C49.0491 160.891 49.6651 161.661 50.6661 162.239C51.4746 162.701 52.3986 162.97 55.2861 163.009C56.5566 163.047 58.2506 163.009 60.2526 162.855C61.3691 160.891 63.0631 158.042 65.2191 154.616C66.3741 152.768 67.7216 150.689 72.6111 143.374C74.2281 140.948 76.3841 137.753 78.9636 133.941C79.9646 134.673 84.5461 137.791 90.4751 136.79C96.9431 135.712 100.254 130.553 101.255 128.975C106.722 120.466 102.872 110.61 102.372 109.455C98.9066 106.606 95.8651 104.681 93.7476 103.449C89.5511 101.062 88.8966 101.37 85.4701 99.0605C84.5846 98.4445 83.4681 97.6745 81.7741 97.1355C80.6191 96.789 78.6171 96.173 76.7306 96.7505Z" fill="white"/>
<path d="M48.7795 160.43C52.1675 148.572 55.7865 136.752 60.522 125.356C62.9475 119.504 65.681 113.768 68.838 108.262C70.3395 105.606 71.9565 102.988 73.689 100.447C74.4975 99.2533 75.46 97.5593 76.846 96.9048C79.1945 95.7883 81.543 97.1743 83.6605 98.1753C90.321 101.255 96.558 105.105 102.371 109.61C102.525 109.725 102.718 109.533 102.564 109.417C97.2895 105.336 91.63 101.756 85.6625 98.8298C83.391 97.7133 80.1185 95.5188 77.462 96.3658C75.229 97.0588 73.8815 99.6768 72.688 101.486C65.2575 112.805 59.829 125.356 55.4015 138.138C52.8605 145.492 50.6275 152.922 48.51 160.391C48.4715 160.545 48.741 160.622 48.7795 160.43Z" fill="#0C0C0C"/>
<path d="M88.0495 120.62C78.463 134.326 69.146 148.225 60.137 162.316C60.0215 162.47 60.291 162.624 60.368 162.47C69.377 148.379 78.694 134.48 88.2805 120.774C88.396 120.62 88.1265 120.505 88.0495 120.62Z" fill="#0C0C0C"/>
<path d="M49.819 161.893C52.668 163.933 56.056 163.433 59.29 162.778C59.4825 162.74 59.4055 162.47 59.213 162.509C56.056 163.125 52.7835 163.625 49.973 161.623C49.819 161.508 49.665 161.777 49.819 161.893Z" fill="#0C0C0C"/>
<path d="M107.954 103.988C109.841 103.834 118.619 103.334 125.934 109.609C132.671 115.346 133.903 123.161 134.365 125.933C134.981 129.783 134.673 133.017 134.327 135.212C133.287 136.097 131.67 137.291 129.514 138.253C126.088 139.755 123.085 139.87 121.121 139.947C112.112 140.178 107.646 140.294 101.024 139.562C89.3201 138.292 83.4296 137.56 82.3901 134.673C81.5046 132.286 83.4681 129.514 86.3556 125.933C90.8601 120.312 97.8286 112.535 107.954 103.988Z" fill="white"/>
<path d="M94.5175 139.216C102.14 139.871 109.84 140.333 117.502 140.217C123.431 140.14 129.552 139.37 134.403 135.713C134.557 135.597 134.403 135.366 134.249 135.482C129.09 139.409 122.545 139.986 116.27 139.986C108.993 139.986 101.755 139.601 94.5175 138.985C94.3635 138.908 94.3635 139.178 94.5175 139.216Z" fill="#0C0C0C"/>
<path d="M113.305 52.4755C113.267 51.8595 113.19 51.051 113.151 50.0885C113.036 48.202 112.959 46.97 113.19 45.4685C113.344 44.3135 113.575 43.659 114.075 43.2355C114.499 42.889 115.038 42.735 115.192 42.6965C115.692 42.581 116.116 42.6195 116.655 42.6965C117.078 42.735 117.463 42.8505 117.694 42.889C118.118 41.1565 118.657 39.347 119.08 39.3855C119.542 39.424 119.619 41.657 119.619 42.042C119.658 43.428 119.542 45.43 118.772 47.817C118.734 48.356 118.695 49.1645 118.464 50.0885C118.156 51.513 117.964 52.3985 117.309 52.8605C115.885 53.977 113.421 52.5525 113.305 52.4755Z" fill="white"/>
<path d="M136.252 63.6017C136.059 63.4862 135.751 63.5247 135.135 63.5632C133.403 63.6787 132.325 64.4102 130.4 65.4112C129.553 65.8732 128.667 66.2582 127.782 66.7202C127.551 66.8357 125.78 67.7212 122.276 69.4537C120.428 70.3777 117.387 71.8792 112.844 74.0737C113.768 70.2622 114.692 66.3737 115.616 62.4082C116.309 59.3667 116.963 56.3252 117.618 53.3222C117.387 53.0912 117.04 52.8217 116.655 52.6292C115.231 51.9362 113.768 52.3597 113.344 52.5137C113.075 53.1297 112.613 54.2077 112.074 55.5167C110.649 58.8662 107.877 65.2957 105.375 71.9177C103.219 77.6542 105.298 72.7262 103.758 77.3847C103.219 79.0402 102.834 80.0412 103.219 81.2347C103.681 82.7362 105.067 83.5062 105.259 83.6217C106.222 84.1607 107.107 84.1222 108.262 84.1222C112.959 84.0837 107.569 84.5457 113.652 84.2762C119.889 83.9682 123.046 83.8142 123.816 83.5832C129.784 81.8892 133.172 77.1537 133.672 76.4222C136.945 71.4172 137.946 64.5642 136.252 63.6017Z" fill="white"/>
<path d="M135.096 63.409C131.516 64.025 128.012 66.412 124.778 68.029C121.005 69.9155 117.232 71.802 113.421 73.65C113.267 73.727 113.382 73.9965 113.575 73.881C117.117 72.11 120.697 70.339 124.239 68.6065C125.972 67.7595 127.666 66.9125 129.398 66.027C131.246 65.103 133.094 64.025 135.173 63.6785C135.366 63.64 135.289 63.3705 135.096 63.409Z" fill="#0C0C0C"/>
<path d="M113.19 73.612C114.769 66.8745 116.309 60.0985 117.772 53.3225C117.81 53.13 117.541 53.053 117.502 53.2455C116.039 60.0215 114.499 66.7975 112.921 73.535C112.844 73.7275 113.113 73.8045 113.19 73.612Z" fill="#0C0C0C"/>
<path d="M113.344 52.6298C114.653 52.2063 116.001 52.3603 117.194 53.0533C117.348 53.1303 117.502 52.8993 117.348 52.8223C116.078 52.0908 114.653 51.8983 113.267 52.3603C113.075 52.3988 113.152 52.6683 113.344 52.6298Z" fill="#0C0C0C"/>
<path d="M112.69 53.6305C110.803 57.7885 108.917 61.9465 107.261 66.1815C105.606 70.4165 103.642 75.075 103.065 79.618C102.641 82.852 104.836 83.853 107.685 84.084C112.805 84.546 117.926 84.1225 123.046 83.7375C123.239 83.7375 123.239 83.4295 123.046 83.4295C119.042 83.7375 115.077 84.0455 111.073 83.93C109.263 83.8915 107.069 84.007 105.336 83.3525C102.218 82.159 103.604 78.4245 104.22 76.0375C106.337 68.299 109.687 60.984 112.959 53.7075C112.998 53.6305 112.767 53.4765 112.69 53.6305Z" fill="#0C0C0C"/>
<path d="M117.54 52.976C117.848 52.1675 118.118 51.3205 118.426 50.512C118.657 49.896 118.965 49.203 119.003 48.5485C119.003 47.74 118.541 47.2395 117.81 46.97C117.348 46.816 116.077 46.5465 115.731 47.0855C115.307 47.7785 116.539 48.0865 116.847 48.356C117.001 48.4715 117.194 48.279 117.04 48.1635C117.348 48.433 116.578 47.7785 116.693 47.894C116.578 47.7785 116.27 47.3165 116.462 47.124C116.578 47.0085 117.194 47.1625 117.309 47.201C118.156 47.355 118.772 47.586 118.657 48.895C118.541 50.204 117.694 51.667 117.271 52.899C117.232 53.0915 117.502 53.1685 117.54 52.976Z" fill="#0C0C0C"/>
<path d="M113.113 47.509C113.19 46.585 113.19 45.6225 113.459 44.737C113.575 44.2365 113.806 43.736 114.152 43.351C114.576 42.7735 115.076 42.889 115.654 43.6975C115.654 43.967 115.654 44.275 115.577 44.5445C115.538 44.737 115.808 44.814 115.846 44.6215C115.962 44.0825 116.077 43.2355 115.692 42.812C115.307 42.3885 114.653 42.581 114.268 42.889C112.882 43.89 112.997 46.0075 112.843 47.5475C112.805 47.7015 113.074 47.7015 113.113 47.509Z" fill="#0C0C0C"/>
<path d="M115.77 42.8117C116.193 42.4652 116.693 42.8502 116.847 43.2737C117.001 43.6972 116.924 44.1207 116.847 44.5442C116.809 44.7367 117.079 44.8137 117.117 44.6212C117.233 44.0052 117.348 43.2737 116.886 42.7347C116.539 42.3497 116.001 42.2727 115.577 42.5807C115.423 42.7347 115.616 42.9272 115.77 42.8117Z" fill="#0C0C0C"/>
<path d="M117.04 42.9657C117.348 42.8502 117.618 43.0042 117.772 43.2737C117.926 43.6202 117.849 44.0052 117.81 44.3902C117.772 44.5827 118.041 44.6597 118.08 44.4672C118.157 44.0052 118.272 43.4277 117.926 43.0042C117.695 42.6962 117.31 42.5422 116.963 42.6962C116.771 42.7347 116.848 43.0427 117.04 42.9657Z" fill="#0C0C0C"/>
<path d="M117.771 42.9279C117.887 42.2734 118.041 41.6189 118.272 41.0029C118.464 40.5024 118.464 40.0404 119.08 40.1174C119.735 40.1944 119.542 40.6949 119.542 41.2724C119.465 42.9279 119.042 44.6219 118.734 46.2004C118.695 46.3929 118.965 46.4699 119.003 46.2774C119.311 44.7759 119.581 43.2744 119.773 41.7729C119.889 40.8874 119.966 39.9249 119.311 39.2319C119.273 39.1934 119.234 39.1934 119.157 39.1934C118.041 39.6554 117.694 41.8499 117.502 42.8509C117.463 43.0434 117.771 43.1204 117.771 42.9279Z" fill="#0C0C0C"/>
<path d="M136.252 63.6016C135.366 64.2946 134.25 65.3341 133.056 66.6816C132.209 67.6441 131.555 68.5681 130.823 69.6076C129.245 71.9561 128.167 74.0736 127.089 76.3066C124.971 80.6186 123.046 84.6226 121.006 90.3206C120.582 91.5141 120.236 92.5151 120.005 93.2081C118.888 93.9781 117.387 95.0176 115.654 96.2881C113.96 97.5586 112.343 98.7521 110.38 100.446C109.225 101.447 107.723 102.795 106.029 104.527C107.377 104.296 109.34 104.142 111.689 104.412C115.924 104.912 119.042 106.606 120.813 107.761C123.277 109.417 124.779 111.149 125.587 112.15C126.781 113.575 128.051 115.423 129.437 118.426C132.44 124.971 133.788 132.247 134.288 135.558C135.328 134.557 136.791 133.094 138.446 131.169C142.489 126.472 144.76 122.353 147.532 117.271C150.574 111.727 152.422 107.376 153.038 105.836C153.5 104.758 155.117 100.793 156.772 95.3641C157.927 91.6296 159.198 86.8556 160.276 81.2731C158.62 79.1171 156.156 76.2296 152.73 73.3421C151.998 72.7261 150.612 71.5326 148.803 70.2621C146.185 68.2986 141.988 65.7191 136.252 63.6016Z" fill="#FFCA9D"/>
<path d="M136.213 63.7175C145.722 67.2595 154.038 73.3425 160.237 81.3505C160.352 81.5045 160.545 81.2735 160.429 81.158C154.192 73.1115 145.799 66.99 136.251 63.448C136.136 63.371 136.059 63.679 136.213 63.7175Z" fill="#0C0C0C"/>
<path d="M131.478 68.2994C126.665 76.1149 122.777 84.4309 119.889 93.1704C119.812 93.3629 120.12 93.4399 120.159 93.2474C123.046 84.5464 126.935 76.2689 131.709 68.4534C131.824 68.2609 131.555 68.1069 131.478 68.2994Z" fill="#0C0C0C"/>
<path d="M118.464 94.094C114.037 97.1355 109.84 100.485 105.913 104.181C105.759 104.297 105.99 104.528 106.106 104.374C110.033 100.716 114.191 97.3665 118.58 94.325C118.772 94.248 118.618 93.9785 118.464 94.094Z" fill="#0C0C0C"/>
<path d="M106.106 104.643C113.921 103.296 121.776 106.992 126.357 113.267C130.861 119.466 133.133 127.743 134.211 135.212C134.249 135.405 134.519 135.328 134.48 135.135C133.325 127.089 130.823 118.003 125.433 111.65C120.736 106.106 113.228 103.103 105.99 104.335C105.836 104.374 105.913 104.682 106.106 104.643Z" fill="#0C0C0C"/>
<path d="M159.467 84.2376C155.771 102.987 147.378 120.582 135.058 135.173C134.942 135.327 135.135 135.52 135.25 135.366C147.57 120.697 156.04 103.064 159.736 84.2761C159.775 84.1606 159.505 84.0836 159.467 84.2376Z" fill="#0C0C0C"/>
<path d="M134.75 77.3465C138.408 79.541 142.181 81.5045 146.031 83.314C146.185 83.391 146.339 83.16 146.185 83.083C142.335 81.312 138.562 79.31 134.904 77.1155C134.75 77 134.596 77.2695 134.75 77.3465Z" fill="#F6D47B" fill-opacity="0.9"/>
<path d="M132.286 83.7375C134.788 85.47 137.445 86.8945 140.255 88.011C140.409 88.088 140.486 87.8185 140.332 87.7415C137.522 86.625 134.904 85.2005 132.44 83.468C132.247 83.391 132.132 83.6605 132.286 83.7375Z" fill="#F6D47B" fill-opacity="0.9"/>
<path d="M124.74 88.473C130.939 92.5155 137.407 96.1345 144.067 99.3685C144.221 99.4455 144.375 99.2145 144.221 99.1375C137.561 95.9035 131.093 92.2845 124.894 88.242C124.74 88.1265 124.586 88.396 124.74 88.473Z" fill="#F6D47B" fill-opacity="0.9"/>
<path d="M61.7156 161.892C60.2911 162.855 58.2121 164.241 55.7481 165.973C45.8921 172.826 40.9641 176.253 41.5031 177.677C42.3886 180.103 55.9791 177.1 57.9041 176.676C64.1411 175.29 69.1076 173.481 72.4186 172.095C72.7651 169.862 73.1116 167.59 73.4196 165.357C69.4926 164.164 65.6041 163.009 61.7156 161.892Z" fill="#F27777"/>
<path d="M52.514 168.438C53.9 168.476 54.7855 169.554 55.517 170.594C55.6325 170.748 55.8635 170.594 55.748 170.44C54.9395 169.285 53.977 168.168 52.4755 168.13C52.3215 168.13 52.3215 168.438 52.514 168.438Z" fill="white"/>
<path d="M55.5169 166.32C56.7104 166.859 57.6344 167.745 58.1734 168.9C58.2504 169.054 58.5199 168.938 58.4044 168.746C57.8269 167.552 56.8259 166.59 55.6324 166.051C55.5169 165.974 55.3629 166.243 55.5169 166.32Z" fill="white"/>
<path d="M58.1735 164.549C59.444 165.088 60.368 166.127 60.753 167.475C60.7915 167.667 61.0995 167.59 61.0225 167.398C60.6375 166.012 59.6365 164.857 58.3275 164.318C58.1735 164.241 58.0195 164.472 58.1735 164.549Z" fill="white"/>
<path d="M58.1735 164.549C57.4805 164.78 56.2485 165.011 55.594 164.434C55.8635 162.932 56.364 162.624 57.0955 163.471C57.211 163.587 57.365 163.664 57.4805 163.779C57.827 164.087 57.8655 164.241 58.289 164.126C58.366 164.087 58.4045 163.972 58.4815 163.933C59.0205 163.51 59.5595 162.547 60.4065 162.663C61.0225 162.432 61.138 162.817 60.83 163.779C60.599 163.933 60.3295 164.087 60.06 164.241C59.4055 164.588 58.751 164.78 58.0195 164.973C57.827 165.011 57.904 165.281 58.0965 165.242C58.7895 165.088 62.601 163.972 61.677 162.701C60.599 161.123 58.674 163.933 57.673 163.625C56.903 163.394 56.5565 162.393 55.5555 162.586C55.055 162.701 54.747 163.048 54.7085 163.548C54.6315 165.242 57.134 165.242 58.212 164.896C58.443 164.78 58.366 164.511 58.1735 164.549Z" fill="white"/>
<path d="M60.599 163.009C62.7935 155.809 64.988 149.88 66.759 145.53C68.992 139.986 70.9555 135.789 74.921 127.396C77.5005 121.929 79.5795 117.81 82.005 113.305C87.7415 102.679 85.085 109.455 89.936 101.216C90.629 100.023 91.8995 97.828 94.4405 96.596C96.5195 95.595 98.56 95.672 99.2915 95.7105C100.601 95.7875 101.871 96.0955 105.144 97.674C107.3 98.7135 109.379 99.7145 111.689 101.255C118.157 105.528 123.47 111.958 125.048 113.883C125.818 115.692 127.012 119.427 125.587 123.123C123.316 129.052 115.154 132.825 105.875 130.861C103.796 133.287 100.601 136.944 96.5965 141.41C92.4 146.069 90.013 148.533 84.854 154.115C82.082 157.118 78.078 161.469 73.227 166.82C72.38 166.897 71.1865 166.974 69.762 166.936C67.3365 166.859 65.7195 166.82 63.987 165.973C63.1785 165.55 61.831 164.741 60.599 163.009Z" fill="white"/>
<path d="M60.8685 162.508C65.373 148.648 70.994 135.173 77.693 122.199C81.004 115.808 84.392 109.378 88.473 103.449C90.5905 100.369 93.4395 96.0187 97.559 95.7492C101.063 95.5182 104.72 97.5202 107.723 99.0987C114.499 102.679 120.39 107.8 124.933 113.96C125.048 114.114 125.279 113.96 125.164 113.806C121.198 108.416 116.27 103.834 110.534 100.369C105.875 97.5588 98.4445 93.0157 93.3625 97.1737C90.629 99.4067 88.55 102.641 86.702 105.605C84.5845 108.955 82.621 112.381 80.7345 115.846C76.8075 122.969 73.227 130.245 69.9545 137.676C66.4125 145.761 63.294 154.038 60.5605 162.431C60.522 162.624 60.7915 162.701 60.8685 162.508Z" fill="#0C0C0C"/>
<path d="M73.3425 166.898C84.238 154.963 95.172 143.028 106.067 131.093C106.183 130.939 105.99 130.746 105.875 130.9C94.9795 142.835 84.0455 154.77 73.15 166.705C73.0345 166.821 73.227 167.052 73.3425 166.898Z" fill="#0C0C0C"/>
<path d="M60.9455 163.355C63.448 167.321 68.2605 167.436 72.4185 166.705C72.611 166.666 72.534 166.397 72.3415 166.435C68.299 167.128 63.6405 167.051 61.1765 163.201C61.0995 163.047 60.83 163.163 60.9455 163.355Z" fill="#0C0C0C"/>
<path d="M42.889 175.675C45.507 173.173 48.356 170.863 51.359 168.822C51.513 168.707 51.359 168.476 51.205 168.591C48.1635 170.632 45.3145 172.942 42.6965 175.483C42.5425 175.598 42.735 175.791 42.889 175.675Z" fill="white"/>
<path d="M142.642 60.0597C142.373 60.7142 142.065 61.5227 141.795 62.4467C141.372 63.7942 141.179 64.4872 141.218 65.4112C141.218 65.8347 141.256 66.7972 141.757 67.8752C142.45 69.4152 143.682 70.1852 144.298 70.5317C145.029 70.9937 145.722 71.2247 146.146 71.3402C146.184 71.6097 146.184 71.8407 146.223 72.1102C145.838 71.8792 145.337 71.8792 144.952 72.1102C144.606 72.3412 144.375 72.7647 144.452 73.1497C144.567 73.7657 145.453 73.9967 145.915 74.1122C147.031 74.4202 147.994 74.1122 148.571 73.9197C149.187 73.7272 149.611 73.5732 150.073 73.1882C151.035 72.3412 151.074 71.0322 151.074 70.6472C152.498 69.9157 153.461 69.1072 154 68.5297C154.539 67.9522 154.77 67.6057 154.885 67.3362C155.386 66.3737 155.347 65.4497 155.347 65.0262C155.27 63.1782 154.192 61.8307 153.653 61.2147C153.037 60.4447 151.074 58.0962 147.84 58.0192C144.991 57.9422 143.104 59.5977 142.642 60.0597Z" fill="white"/>
<path d="M164.972 59.8675C165.011 62.293 163.971 65.9505 161.238 66.99C159.428 67.683 157.696 66.913 155.809 66.1045C154.693 65.604 149.418 63.3325 148.764 58.905C148.571 57.4805 148.802 55.4015 149.88 54.901C151.074 54.3235 152.46 56.133 153.846 55.4785C154.77 55.055 154.539 54.054 155.501 53.207C156.849 51.9365 159.351 52.129 160.968 52.7835C163.894 54.0155 164.934 57.519 164.972 59.8675Z" fill="black"/>
<path d="M142.296 61.3686C142.45 61.1376 143.682 59.5591 145.261 59.2511C145.684 59.1741 146.531 59.0201 147.224 59.4821C147.455 59.6361 147.84 60.0211 148.302 62.5236C148.61 64.2561 148.495 64.4486 148.803 65.4496C149.111 66.4121 149.419 67.2976 150.304 67.8366C150.42 67.9136 151.19 68.3371 152.114 68.1831C152.537 68.1061 152.768 67.9521 153.577 67.4901C154.231 67.1436 154.77 66.8741 155.155 66.6816C155.348 66.2196 155.579 65.5651 155.694 64.7566C155.771 64.2946 155.81 63.5246 155.694 62.6006C155.617 62.2156 155.348 60.5601 154.231 59.2126C153.615 58.4811 152.576 57.6341 149.842 56.9796C146.685 56.2096 140.756 55.5936 140.025 57.5186C139.794 58.1731 140.025 59.2511 142.296 61.3686Z" fill="black"/>
<path d="M142.142 61.2921C140.717 63.9871 140.448 67.2981 142.758 69.6081C144.76 71.6101 148.61 72.4571 151.035 70.8016C151.189 70.6861 151.035 70.4551 150.881 70.5706C148.571 72.1106 144.798 71.3791 142.95 69.4156C140.756 67.1826 141.025 64.0641 142.373 61.4461C142.488 61.2536 142.257 61.1381 142.142 61.2921Z" fill="black"/>
<path d="M145.954 71.3405C145.992 71.764 146.031 72.149 146.108 72.5725C146.146 72.765 146.416 72.765 146.416 72.5725C146.377 72.149 146.339 71.764 146.262 71.3405C146.223 71.148 145.915 71.148 145.954 71.3405Z" fill="black"/>
<path d="M144.799 71.9949C143.913 72.8804 144.26 73.689 145.415 74.151C146.724 74.6515 148.61 74.2279 149.765 73.5349C149.919 73.4194 149.765 73.1884 149.611 73.3039C148.841 73.7659 147.994 73.9584 147.109 74.0354C146.685 74.0739 146.223 74.1124 145.838 73.9969C145.184 73.8429 144.029 73.227 145.03 72.226C145.145 72.072 144.953 71.8794 144.799 71.9949Z" fill="black"/>
<path d="M143.759 63.0245C142.989 64.2565 142.681 65.681 142.912 67.1055C142.95 67.298 143.22 67.221 143.181 67.0285C142.95 65.6425 143.22 64.3335 143.99 63.1785C144.144 63.0245 143.874 62.8705 143.759 63.0245Z" fill="black"/>
<path d="M143.721 59.1745C146.531 57.0185 151.036 56.0175 153.731 58.905C156.156 61.4845 156.118 65.296 154.154 68.1065C154.039 68.2605 154.308 68.4145 154.385 68.2605C156.541 65.1805 156.387 60.9455 153.538 58.3275C150.689 55.748 146.262 56.903 143.528 59.0205C143.374 59.0975 143.567 59.29 143.721 59.1745Z" fill="black"/>
<path d="M143.22 60.06C143.682 59.829 144.144 59.521 144.644 59.367C144.991 59.29 145.337 59.213 145.684 59.1745C146.415 59.752 147.147 60.3295 147.878 60.907C148.225 61.5615 148.109 62.601 148.225 63.3325C148.417 64.6415 148.571 66.3355 149.534 67.375C151.382 69.454 153.153 67.6445 154.962 66.7975C155.116 66.7205 155.001 66.451 154.808 66.5665C154.154 66.8745 153.576 67.5675 152.922 67.7985C150.843 68.5685 149.534 67.298 148.956 65.45C148.456 63.833 148.725 61.8695 147.994 60.3295C146.993 58.2505 144.683 59.0205 143.066 59.8675C142.912 59.906 143.027 60.1755 143.22 60.06Z" fill="black"/>
<path d="M142.93 63.5885C143.053 63.3414 143.03 63.0792 142.877 63.0033C142.725 62.9275 142.502 63.0669 142.379 63.3144C142.256 63.562 142.279 63.8238 142.432 63.8996C142.584 63.9755 142.807 63.8361 142.93 63.5885Z" fill="black"/>
<path d="M146.12 64.5756C146.243 64.3281 146.22 64.0659 146.067 63.9904C145.915 63.9146 145.692 64.0536 145.568 64.3011C145.445 64.5487 145.469 64.8109 145.621 64.8863C145.774 64.9622 145.997 64.8232 146.12 64.5756Z" fill="black"/>
<path d="M142.758 61.3686C143.104 60.9836 143.72 61.0606 143.874 61.5996C143.913 61.7921 144.221 61.7151 144.144 61.5226C143.913 60.7911 143.027 60.5986 142.527 61.1761C142.411 61.2916 142.604 61.4841 142.758 61.3686Z" fill="black"/>
<path d="M145.992 62.1394C146.646 61.7544 147.185 62.5244 147.262 63.1019C147.301 63.2944 147.57 63.2944 147.57 63.1019C147.532 62.6784 147.378 62.2549 146.993 61.9854C146.646 61.7544 146.223 61.7159 145.876 61.9084C145.684 61.9854 145.838 62.2549 145.992 62.1394Z" fill="black"/>
<path d="M152.575 57.9036C153.884 57.5956 155.193 58.1346 155.925 59.1741C156.733 60.3291 156.656 61.9461 155.732 63.0626C155.771 62.9086 156.348 60.8296 155.001 59.2126C154.115 58.2116 152.922 57.9806 152.575 57.9036Z" fill="white"/>
<path d="M150.535 135.443C150.689 136.175 150.805 136.752 150.882 137.176C151.036 138.138 151.036 138.408 151.228 138.831C151.344 139.062 151.613 139.755 152.229 140.217C152.691 140.564 153.153 140.641 154.462 140.718C156.387 140.833 157.35 140.91 158.582 140.833C159.198 140.795 159.775 140.718 160.93 140.564C163.433 140.256 164.703 140.102 165.473 139.794C166.936 139.255 168.938 138.061 168.746 137.214C168.707 137.022 168.553 136.637 166.089 136.059C163.51 135.443 161.469 135.366 161.354 135.366C158.505 135.251 157.735 135.636 154.847 135.636C152.961 135.674 151.459 135.559 150.535 135.443Z" fill="white"/>
<path d="M151.228 71.379C150.497 72.7265 150.266 73.92 150.112 74.6515C149.727 76.615 149.958 77.8085 150.035 79.5795C150.112 81.9665 149.804 83.1985 149.496 85.6625C148.764 91.553 148.764 98.252 148.764 104.643C148.764 110.187 148.957 114.384 148.995 115.654C149.226 120.89 149.727 127.666 150.805 135.597C150.959 135.751 151.536 136.213 152.422 136.213C153.23 136.252 153.808 135.867 153.962 135.751C154.077 135.174 154.27 134.327 154.501 133.249C155.425 128.975 156.041 126.165 156.503 124.009C157.927 117.541 158.659 113.883 159.313 110.072C159.583 108.455 159.968 105.991 159.698 102.795C159.544 101.101 159.275 99.7535 159.082 98.791C159.198 98.098 159.352 97.0585 159.583 95.8265C159.891 93.9785 161.431 86.5865 161.662 85.316C163.548 76.076 162.393 79.772 163.279 75.922C163.51 74.9595 164.01 72.8805 163.394 70.4165C162.894 68.4145 162.047 67.606 161.816 67.4135C160.584 66.374 159.082 66.374 158.466 66.374C156.349 66.374 154.847 67.4905 154 68.1065C153.615 68.376 152.268 69.454 151.228 71.379Z" fill="white"/>
<path d="M150.535 73.4198C151.574 69.9548 154.539 66.7593 158.312 66.5283C163.663 66.1818 163.586 71.9568 163.163 75.7298C162.354 83.0448 160.506 90.2828 159.082 97.4823C159.043 97.6748 159.313 97.7518 159.351 97.5593C160.352 92.5543 161.353 87.5493 162.316 82.5443C162.739 80.3883 163.124 78.2323 163.355 76.0763C163.625 73.9203 163.933 71.5333 163.201 69.4543C162.162 66.5668 159.313 65.6813 156.541 66.5668C153.384 67.5678 151.112 70.2628 150.188 73.3428C150.227 73.5353 150.496 73.6123 150.535 73.4198Z" fill="#0C0C0C"/>
<path d="M149.88 79.5799C148.071 97.9059 148.225 116.386 150.419 134.673C150.458 134.866 150.727 134.866 150.727 134.673C148.533 116.386 148.34 97.9059 150.188 79.5799C150.188 79.3874 149.919 79.3874 149.88 79.5799Z" fill="#0C0C0C"/>
<path d="M159.121 99.253C160.237 105.413 159.121 111.573 157.812 117.617C156.58 123.354 155.309 129.129 154.039 134.865C154 135.058 154.27 135.135 154.308 134.942C155.656 128.705 157.08 122.507 158.389 116.27C159.583 110.649 160.43 104.912 159.39 99.2145C159.352 98.9835 159.082 99.0605 159.121 99.253Z" fill="#0C0C0C"/>
<path d="M150.728 135.712C151.69 136.521 153.038 136.598 154.077 135.905C154.231 135.789 154.077 135.558 153.923 135.674C152.999 136.29 151.806 136.251 150.92 135.52C150.805 135.404 150.574 135.597 150.728 135.712Z" fill="#0C0C0C"/>
<path d="M150.727 137.253C151.035 138.177 150.92 139.37 151.651 140.063C152.344 140.718 153.615 140.795 154.539 140.91C158.042 141.372 161.546 140.679 164.972 140.025C165.165 139.986 165.088 139.717 164.895 139.755C162.316 140.256 159.698 140.756 157.041 140.756C155.771 140.756 154.385 140.756 153.191 140.371C151.151 139.717 151.536 138.677 151.035 137.176C150.958 136.983 150.65 137.06 150.727 137.253Z" fill="#0C0C0C"/>
<path d="M159.968 138.638C161.662 138.407 163.356 138.215 164.857 139.216C165.011 139.331 165.165 139.062 165.011 138.985C163.471 137.984 161.7 138.138 159.968 138.369C159.814 138.369 159.814 138.677 159.968 138.638Z" fill="#0C0C0C"/>
<path d="M154.847 135.828C157.08 135.713 159.313 135.559 161.546 135.559C164.164 135.52 166.32 136.29 168.669 137.407C168.823 137.484 168.977 137.253 168.823 137.176C166.898 136.252 164.973 135.405 162.817 135.289C160.199 135.135 157.504 135.443 154.886 135.559C154.655 135.52 154.655 135.828 154.847 135.828Z" fill="#0C0C0C"/>
<path d="M161.315 137.252C163.548 137.175 165.781 137.445 167.937 138.061C168.129 138.099 168.206 137.83 168.014 137.791C165.819 137.175 163.586 136.906 161.315 136.983C161.161 136.983 161.161 137.252 161.315 137.252Z" fill="#0C0C0C"/>
<path d="M162.47 136.213C164.279 136.328 166.012 136.598 167.744 137.098C167.937 137.137 168.014 136.867 167.821 136.829C166.05 136.328 164.279 136.02 162.47 135.943C162.316 135.943 162.316 136.213 162.47 136.213Z" fill="#0C0C0C"/>
</svg>
