<svg width="200" height="200" viewBox="0 0 200 200" fill="none" xmlns="http://www.w3.org/2000/svg">
<path d="M189.1 103.6H103.733V188.966H189.1V103.6Z" fill="white" stroke="#202124" stroke-width="0.5" stroke-miterlimit="10"/>
<path d="M128.567 132.1C128.567 133.3 128.567 135.133 128.7 137.333C129 142.5 129.7 146.433 130.467 150.667C130.833 152.7 131.367 155.5 132.133 158.8C132.8 161.333 133.5 163.867 134.167 166.4C145.6 166.833 157.067 167.233 168.5 167.667C168.6 166.3 168.7 164.9 168.767 163.533C169.433 152.867 169.7 142.433 169.667 132.3C168.033 131.433 165.833 130.367 163.167 129.367C161.433 128.733 158.433 127.633 154.633 127.033C152.8 126.733 147 125.967 139.8 127.633C135.1 128.733 131.333 130.467 128.567 132.1Z" fill="white"/>
<path d="M137.567 121.733C138.2 121.733 138.2 120.733 137.567 120.733C136.933 120.733 136.933 121.733 137.567 121.733Z" fill="#202124"/>
<path d="M128.6 132.366C130.9 130.2 134.633 129.2 137.6 128.333C141.2 127.3 145 126.833 148.733 126.8C156.2 126.733 163.3 128.966 169.867 132.5C170 132.566 170.133 132.366 170 132.3C169.833 132.2 169.9 132.2 169.7 132.166C169.533 132.133 169.467 132.366 169.633 132.4C169.633 132.1 169.5 131.933 169.233 131.866C169.067 131.766 168.9 131.7 168.7 131.6C168.267 131.4 167.833 131.166 167.367 130.966C166.633 130.633 165.9 130.333 165.167 130.033C163.333 129.266 161.467 128.5 159.533 127.933C155.833 126.833 151.933 126.466 148.067 126.533C144.3 126.633 140.5 127.1 136.9 128.233C134.067 129.1 130.6 130.066 128.367 132.166C128.3 132.3 128.467 132.466 128.6 132.366Z" fill="#202124"/>
<path d="M128.867 139.9C129.767 148.867 131.5 157.733 134.033 166.4C134.067 166.567 134.333 166.5 134.267 166.333C131.733 157.7 130 148.867 129.1 139.9C129.1 139.767 128.833 139.767 128.867 139.9Z" fill="#202124"/>
<path d="M169.833 140.3C169.467 149.4 169 158.533 168.367 167.633C168.367 167.8 168.6 167.8 168.633 167.633C169.267 158.533 169.767 149.433 170.1 140.3C170.1 140.167 169.833 140.167 169.833 140.3Z" fill="#202124"/>
<path d="M188.967 158.767H103.867V188.833H188.967V158.767Z" fill="white"/>
<path d="M104.067 158.9C132.433 158.9 160.8 158.9 189.133 158.9C189.3 158.9 189.3 158.634 189.133 158.634C160.767 158.634 132.4 158.634 104.067 158.634C103.9 158.634 103.9 158.9 104.067 158.9Z" fill="#202124"/>
<path d="M138.467 159.466C136.133 162.833 133.833 166.2 131.5 169.566C137.933 169.4 144.367 169.233 150.833 169.033C151.567 165.833 152.3 162.666 153.067 159.466C148.167 159.433 143.333 159.433 138.467 159.466Z" fill="white"/>
<path d="M138.167 159.633C135.833 162.867 133.6 166.133 131.4 169.467C131.333 169.533 131.433 169.667 131.5 169.667C137.933 169.7 144.4 169.533 150.833 169.133C151 169.133 151 168.867 150.833 168.867C145.7 169.167 140.533 169.333 135.367 169.367C134.733 169.367 132.167 169.7 131.967 169.033C131.833 168.633 133.767 166.333 134.067 165.9C135.467 163.833 136.933 161.767 138.4 159.733C138.467 159.633 138.233 159.5 138.167 159.633Z" fill="#202124"/>
<path d="M139.367 159.733C143.733 159.733 148.133 159.733 152.5 159.733C152.667 159.733 152.667 159.467 152.5 159.467C148.133 159.467 143.733 159.467 139.367 159.467C139.2 159.467 139.2 159.733 139.367 159.733Z" fill="#202124"/>
<path d="M152.4 160.5C151.867 163.2 151.367 165.933 150.9 168.633C150.867 168.8 151.1 168.867 151.133 168.7C151.6 165.967 152.067 163.267 152.633 160.567C152.667 160.4 152.433 160.333 152.4 160.5Z" fill="#202124"/>
<path d="M140.367 168C141.767 168 143.167 168 144.6 168C144.767 168 144.767 167.733 144.6 167.733C143.2 167.733 141.8 167.733 140.367 167.733C140.2 167.767 140.2 168 140.367 168Z" fill="#202124"/>
<path d="M139.833 166.8C141.767 166.8 143.667 166.8 145.6 166.8C145.767 166.8 145.767 166.533 145.6 166.533C143.667 166.533 141.767 166.533 139.833 166.533C139.667 166.533 139.667 166.8 139.833 166.8Z" fill="#202124"/>
<path d="M139.9 165.8C143.067 165.8 146.267 165.8 149.433 165.8C149.6 165.8 149.6 165.533 149.433 165.533C146.267 165.533 143.067 165.533 139.9 165.533C139.767 165.533 139.767 165.8 139.9 165.8Z" fill="#202124"/>
<path d="M139 164.467C141.067 164.467 143.133 164.467 145.233 164.467C145.4 164.467 145.4 164.2 145.233 164.2C143.167 164.2 141.1 164.2 139 164.2C138.833 164.233 138.833 164.467 139 164.467Z" fill="#202124"/>
<path d="M137.6 162.167C141.833 162.167 146.033 162.167 150.267 162.167C150.433 162.167 150.433 161.9 150.267 161.9C146.033 161.9 141.833 161.9 137.6 161.9C137.433 161.934 137.433 162.167 137.6 162.167Z" fill="#202124"/>
<path d="M132.533 160.4C132.2 160.7 132.067 161.033 131.867 161.6C131.8 161.766 131.567 162.433 131.4 163.633C131.333 164.133 131.3 164.566 131.267 164.866C131.633 165.333 131.967 165.733 132.267 166C132.767 166.5 133.2 166.9 133.867 167.133C134.3 167.3 134.633 167.333 135.3 167.366C135.8 167.4 136.5 167.433 137.367 167.333C137.967 167.033 138.367 166.5 138.367 165.9C138.367 165.533 138.2 165.266 138.1 165.133C137.433 164.2 136.767 163.266 136.1 162.333C136.133 162.133 136.2 161.666 136 161.2C135.733 160.633 135.233 160.4 134.8 160.2C134.433 160.033 134.033 159.833 133.533 159.933C132.967 160 132.633 160.3 132.533 160.4Z" fill="white"/>
<path d="M128.567 132.1C128.2 132.566 127.7 133.2 127.1 134C124.5 137.433 122.633 139.9 120.567 143.133C118.867 145.833 117.933 147.633 116.9 149.633C115.233 152.866 116.467 150.966 115.2 153.633C114.867 154.3 114.533 155 114.567 155.933C114.633 156.933 115.1 157.666 115.267 157.933C115.833 158.766 116.533 159.166 117.167 159.533C120.167 161.2 121.2 161.566 121.2 161.566C125.533 163.133 130.3 164.566 131.233 164.866C131.267 164.366 131.3 163.8 131.4 163.2C131.567 162.133 131.833 161.233 132.133 160.466C131.5 159.833 130.9 159.2 130.267 158.566C128.933 157.2 127.6 155.833 126.3 154.466C127.333 153.033 128.433 151.566 129.633 150.1C131.667 147.566 133.733 145.266 135.7 143.2C136.133 142.033 136.2 141.033 136.133 140.3C135.933 136.8 132.9 133.7 128.567 132.1Z" fill="white"/>
<path d="M128.467 132.034C123.333 138.7 118.1 145.534 115.133 153.467C114.633 154.767 114.1 156.1 114.833 157.434C115.567 158.834 117.133 159.667 118.467 160.367C122.4 162.467 126.8 163.7 131.067 164.867C131.233 164.9 131.3 164.667 131.133 164.634C127.267 163.567 123.3 162.467 119.667 160.7C118.067 159.934 115.167 158.7 114.8 156.7C114.433 154.7 115.933 152.067 116.733 150.367C119.8 143.734 124.267 137.934 128.7 132.167C128.767 132.034 128.567 131.9 128.467 132.034Z" fill="#202124"/>
<path d="M135.4 143.433C132.167 146.733 129.2 150.3 126.5 154.1C126.4 154.233 126.633 154.366 126.7 154.233C129.367 150.466 132.333 146.933 135.533 143.633C135.667 143.5 135.5 143.333 135.4 143.433Z" fill="#202124"/>
<path d="M125.9 154.1C127.933 156.234 129.967 158.367 132 160.5C132.1 160.6 132.3 160.434 132.167 160.334C130.133 158.2 128.1 156.067 126.067 153.934C125.967 153.8 125.767 153.967 125.9 154.1Z" fill="#202124"/>
<path d="M132 160.5C132.067 160.9 131.767 161.4 131.667 161.767C131.567 162.1 131.467 162.467 131.4 162.833C131.267 163.5 131.167 164.2 131.167 164.867C131.167 165.033 131.4 165.033 131.433 164.867C131.467 163.933 131.6 163.033 131.867 162.133C132.033 161.6 132.433 161 132.3 160.433C132.233 160.267 131.967 160.333 132 160.5Z" fill="#202124"/>
<path d="M132.167 160.533C132.667 160.567 133 160.3 133.433 160.067C134.333 159.633 135.233 160.733 135.867 161.267C136 161.367 136.167 161.2 136.033 161.1C135.5 160.667 134.8 159.8 134.1 159.667C133.367 159.567 132.9 160.3 132.167 160.267C132 160.3 132 160.533 132.167 160.533Z" fill="#202124"/>
<path d="M131.133 164.933C131.9 165.8 132.6 166.8 133.7 167.2C134.733 167.6 135.933 167.5 137 167.4C137.167 167.4 137.167 167.133 137 167.133C135.933 167.233 134.833 167.333 133.8 166.933C132.733 166.533 132.033 165.566 131.333 164.733C131.233 164.666 131.033 164.833 131.133 164.933Z" fill="#202124"/>
<path d="M135.333 161.733C136.333 162.8 137.2 163.967 137.967 165.233C138.033 165.367 138.267 165.233 138.167 165.1C137.4 163.833 136.5 162.633 135.5 161.567C135.4 161.433 135.2 161.6 135.333 161.733Z" fill="#202124"/>
<path d="M134.967 163.2C135.567 164.267 136.5 165.034 137.4 165.8C137.533 165.9 137.7 165.734 137.567 165.634C136.667 164.9 135.733 164.134 135.167 163.1C135.1 162.934 134.9 163.067 134.967 163.2Z" fill="#202124"/>
<path d="M134.433 164.6C135.2 165.467 136.1 166.134 137.133 166.6C137.267 166.667 137.4 166.434 137.267 166.4C136.233 165.934 135.333 165.3 134.6 164.434C134.5 164.3 134.333 164.467 134.433 164.6Z" fill="#202124"/>
<path d="M134 166.267C134.833 166.667 135.7 166.967 136.633 167.133C136.8 167.167 136.867 166.933 136.7 166.9C135.8 166.733 134.967 166.433 134.133 166.067C134 165.967 133.867 166.2 134 166.267Z" fill="#202124"/>
<path d="M149.233 165.333C148.833 165.233 148.633 164.833 148.733 164.433L152.533 150.8C152.633 150.4 153.033 150.2 153.433 150.3C153.833 150.4 154.033 150.8 153.933 151.2L150.133 164.833C150.033 165.2 149.633 165.433 149.233 165.333Z" fill="#86D0DA"/>
<path d="M156.5 158.567C156.167 158.033 155.8 157.667 155.533 157.4C155.033 156.933 154.267 156.2 153.667 156.4C153.467 156.467 153.267 156.633 153.233 156.833C153.2 156.967 153.267 157.1 153.567 157.5C153.7 157.7 153.9 157.967 154.133 158.233C153.533 158.8 152.967 159.233 152.5 159.567C151.733 160.067 151.367 160.333 150.833 160.5C150.167 160.733 149.833 160.667 149.3 161.033C149.067 161.2 148.733 161.433 148.533 161.833C148.267 162.433 148.5 163.067 148.733 163.767C148.933 164.3 149.167 164.733 149.367 165.033C149.733 165.2 150.3 165.433 151 165.5C152.233 165.667 153.2 165.333 153.633 165.167C154.867 164.733 155.567 164.033 156.933 162.667C157.833 161.767 157.967 161.467 158 161.267C158.267 159.967 156.767 158.767 156.5 158.567Z" fill="white"/>
<path d="M169.833 132.4C169.2 132.967 168.533 133.667 167.933 134.467C165.3 137.9 164.8 141.7 164.7 143.767C166 146.867 167.3 149.934 168.633 153.034C164.6 154.867 160.567 156.7 156.567 158.567C156.667 158.9 156.767 159.234 156.867 159.634C157.133 160.9 157.133 162 157.033 162.9C160 163.1 162.6 163.1 164.667 163.034C166.567 162.967 170.333 162.8 175.1 162.067C177.233 161.734 179.033 161.367 180.367 161.1C180.267 160.167 180.067 158.8 179.833 157.2C179.033 151.8 178.167 148.2 177.367 144.867C176.7 142.1 176.167 140.234 175.133 138.134C174.4 136.667 173.7 135.634 172.767 134.667C171.633 133.534 170.567 132.834 169.833 132.4Z" fill="white"/>
<path d="M169.767 132.5C174.4 135.066 176.033 140.2 177.2 145.033C178.433 150.166 179.4 155.366 180.133 160.6C180.167 160.766 180.4 160.7 180.367 160.533C179.567 154.733 178.5 148.933 177 143.266C175.833 138.933 174 134.533 169.867 132.266C169.733 132.233 169.633 132.433 169.767 132.5Z" fill="#202124"/>
<path d="M156.667 158.433C162.6 156.1 168.367 153.433 174 150.467C174.133 150.4 174 150.167 173.867 150.267C168.267 153.233 162.5 155.9 156.6 158.233C156.433 158.233 156.5 158.467 156.667 158.433Z" fill="#202124"/>
<path d="M156.5 158.766C156.667 158.766 156.667 158.5 156.5 158.5C156.333 158.533 156.333 158.766 156.5 158.766Z" fill="#202124"/>
<path d="M156.4 158.6C156.767 159.666 156.9 160.8 156.767 161.933C156.733 162.1 157 162.1 157.033 161.933C157.167 160.766 157.033 159.666 156.667 158.533C156.567 158.366 156.333 158.433 156.4 158.6Z" fill="#202124"/>
<path d="M157.4 162.966C165 163.433 172.6 162.833 180.067 161.166C180.233 161.133 180.167 160.9 180 160.933C172.567 162.6 165 163.2 157.4 162.733C157.233 162.733 157.233 162.966 157.4 162.966Z" fill="#202124"/>
<path d="M156.433 158.2C156.033 157.667 155.567 157.167 155 156.8C154.6 156.533 153.967 156.2 153.467 156.267C152.433 156.433 153.733 158 154.067 158.333C154.167 158.467 154.367 158.267 154.233 158.167C153.967 157.867 153.533 157.4 153.433 156.967C153.3 156.8 153.333 156.633 153.533 156.5C153.633 156.5 153.733 156.533 153.833 156.533C154.067 156.6 154.3 156.667 154.533 156.8C155.233 157.167 155.767 157.733 156.267 158.367C156.367 158.5 156.533 158.333 156.433 158.2Z" fill="#202124"/>
<path d="M153.933 158.367C153.1 159.433 151.933 160.033 150.7 160.467C149.933 160.733 149.167 160.9 148.567 161.433C148.433 161.533 148.633 161.733 148.733 161.6C149.6 160.8 150.967 160.7 152 160.2C152.867 159.8 153.567 159.233 154.167 158.5C154.233 158.367 154.033 158.233 153.933 158.367Z" fill="#202124"/>
<path d="M148.7 162.034C150 162.234 151.267 162.234 152.533 162C152.7 161.967 152.633 161.734 152.467 161.767C151.233 162 150 162 148.767 161.8C148.6 161.767 148.533 162 148.7 162.034Z" fill="#202124"/>
<path d="M148.733 162.567C149.7 163.5 151.533 163.333 152.733 163.233C152.9 163.233 152.9 162.967 152.733 162.967C151.6 163.067 149.8 163.267 148.9 162.4C148.8 162.267 148.6 162.467 148.733 162.567Z" fill="#202124"/>
<path d="M148.8 163.533C149.867 164.5 151.233 164.533 152.6 164.4C152.767 164.367 152.767 164.133 152.6 164.133C151.333 164.3 150 164.267 148.967 163.367C148.867 163.233 148.667 163.433 148.8 163.533Z" fill="#202124"/>
<path d="M149.133 165C150.133 165.767 151.933 165.934 153.133 165.667C154.7 165.334 156 164.067 157.067 162.967C157.167 162.867 157 162.667 156.9 162.8C156 163.734 154.967 164.7 153.767 165.2C152.5 165.7 150.433 165.634 149.3 164.8C149.133 164.7 149 164.9 149.133 165Z" fill="#202124"/>
<path d="M164.567 143.8C165.833 146.8 167.067 149.8 168.333 152.8C168.4 152.933 168.633 152.866 168.567 152.733C167.3 149.733 166.067 146.733 164.8 143.733C164.733 143.6 164.5 143.666 164.567 143.8Z" fill="#202124"/>
<path d="M140.767 123.433C140.7 123.633 140.467 124.3 140.4 125.167C140.367 125.833 140.433 126.4 140.5 126.767C140.7 127.9 141.167 128.7 141.3 128.933C142 130.067 142.867 130.667 143.1 130.833C144.333 131.633 145.533 131.767 146.133 131.767C146.2 131.867 146.267 131.967 146.333 132.067C146.267 132.067 145.9 132.167 145.767 132.467C145.633 132.8 145.9 133.133 146.1 133.333C146.9 134 148.533 133.133 148.633 133.067C149.033 132.833 149.5 132.6 149.733 132.033C150 131.4 149.8 130.8 149.733 130.633C150 130.4 150.333 130.1 150.667 129.633C151.1 129.033 151.333 128.467 151.433 128.2C151.567 127.833 151.8 127.1 151.733 126.133C151.633 125.067 151.167 124.333 150.767 123.733C150.5 123.333 149.767 122.2 148.533 121.533C145.733 119.967 141.533 121.533 140.767 123.433Z" fill="white"/>
<path d="M148.233 122.2C148 122.467 147.633 122.834 147.133 123.134C146.333 123.6 145.6 123.7 143.767 123.8C142.8 123.867 141.733 123.9 140.567 123.9C140.533 124.234 140.5 124.567 140.467 124.9C140.267 124.934 139.933 125 139.533 124.934C138.233 124.7 137.633 123.434 137.533 123.2C137.367 122.8 136.967 121.934 137.4 121.134C137.667 120.667 138.1 120.434 138.3 120.367C138.267 120.067 138.267 119.5 138.633 119.034C138.867 118.734 139.367 118.434 140.667 118.434C142.067 118.434 142.6 118.8 144.567 119.3C147 119.934 148.2 120.2 148.2 120.2C148.767 120.334 149.533 120.5 150.133 121.167C150.467 121.534 150.633 121.934 150.7 122.234C150.867 122.2 151.4 122.134 151.833 122.467C152.367 122.834 152.433 123.467 152.5 123.834C152.633 124.967 151.967 125.867 151.767 126.134C151.267 125.734 150.7 125.234 150.133 124.634C149.3 123.734 148.7 122.934 148.233 122.2Z" fill="#202124"/>
<path d="M140.467 124.1C139.733 127.767 141.967 131.533 145.867 131.867C149.567 132.167 152.4 128.9 151.733 125.3C151.7 125.133 151.467 125.2 151.5 125.367C152.167 128.933 149.233 132 145.633 131.567C142 131.133 140 127.6 140.7 124.167C140.733 124.033 140.5 123.967 140.467 124.1Z" fill="#202124"/>
<path d="M145.333 126.134C145.133 127.467 144.967 128.9 146 129.967C146.1 130.067 146.3 129.9 146.167 129.8C145.2 128.834 145.367 127.467 145.567 126.2C145.6 126.034 145.333 125.967 145.333 126.134Z" fill="#202124"/>
<path d="M140.267 124.867C139.4 124.734 138.633 124.367 138.033 123.734C137.033 122.967 137.2 121.867 138.533 120.5C138.633 120.5 138.667 120.4 138.633 120.3C138.933 119.734 139.233 119.167 139.533 118.634C139.867 118.6 140.2 118.567 140.567 118.5C141.2 118.5 141.833 118.634 142.433 118.767C143.3 118.967 144.167 119.267 145 119.534C146.533 120 150.267 120.434 150.7 122.3C150.733 122.467 150.967 122.4 150.933 122.234C150.767 121.467 150.3 121.067 149.6 120.734C148.2 120.067 146.533 119.767 145.067 119.3C143.533 118.834 139.6 117.167 138.4 119.1C138.167 119.467 138.333 119.967 138.1 120.234C138.033 120.334 137.467 120.434 137.333 120.534C137.033 120.767 136.867 121.067 136.8 121.434C136.4 123.2 138.667 125.067 140.267 125.1C140.433 125.1 140.433 124.867 140.267 124.867Z" fill="#202124"/>
<path d="M150.833 122.366C152.4 121.933 152.7 124.366 151.933 125.233C151.833 125.366 152 125.533 152.1 125.4C153.033 124.333 152.567 121.633 150.767 122.1C150.633 122.166 150.7 122.4 150.833 122.366Z" fill="#202124"/>
<path d="M140.5 124.033C141.7 124.267 143 123.933 144.2 123.7C145.633 123.4 146.933 122.967 148.167 122.2C148.3 122.133 148.167 121.9 148.033 122C146.1 123.167 142.833 124.233 140.567 123.8C140.4 123.733 140.333 124 140.5 124.033Z" fill="#202124"/>
<path d="M148.067 122.1C148.733 122.666 149.067 123.466 149.633 124.133C150.2 124.833 151 125.1 151.833 125.366C152 125.4 152.067 125.166 151.9 125.133C150.867 124.8 150.067 124.433 149.467 123.5C149.1 122.933 148.8 122.366 148.267 121.933C148.1 121.8 147.933 122 148.067 122.1Z" fill="#202124"/>
<path d="M146.1 131.866C146.233 132.066 146.333 132.3 146.467 132.5C146.533 132.633 146.767 132.5 146.667 132.366C146.533 132.166 146.433 131.933 146.3 131.733C146.233 131.6 146.033 131.733 146.1 131.866Z" fill="#202124"/>
<path d="M145.767 132.2C145.3 133.167 146.3 133.733 147.133 133.667C148.333 133.6 149.367 132.833 149.967 131.833C150.067 131.7 149.833 131.567 149.767 131.7C149.433 132.267 149 132.7 148.4 133.033C148.133 133.167 147.867 133.3 147.567 133.333C147.4 133.367 147.2 133.4 147 133.4C146.367 133.467 146.033 133.1 145.967 132.3C146.067 132.167 145.833 132.033 145.767 132.2Z" fill="#202124"/>
<path d="M143.867 127.667C144.014 127.667 144.133 127.458 144.133 127.2C144.133 126.942 144.014 126.733 143.867 126.733C143.719 126.733 143.6 126.942 143.6 127.2C143.6 127.458 143.719 127.667 143.867 127.667Z" fill="#202124"/>
<path d="M147.267 127.667C147.414 127.667 147.533 127.458 147.533 127.2C147.533 126.942 147.414 126.733 147.267 126.733C147.119 126.733 147 126.942 147 127.2C147 127.458 147.119 127.667 147.267 127.667Z" fill="#202124"/>
<path d="M126.3 184.034C129.503 184.034 132.1 181.437 132.1 178.234C132.1 175.03 129.503 172.434 126.3 172.434C123.097 172.434 120.5 175.03 120.5 178.234C120.5 181.437 123.097 184.034 126.3 184.034Z" fill="white" stroke="#202124" stroke-width="0.5" stroke-miterlimit="10"/>
<path d="M169.467 184.034C172.67 184.034 175.267 181.437 175.267 178.234C175.267 175.03 172.67 172.434 169.467 172.434C166.263 172.434 163.667 175.03 163.667 178.234C163.667 181.437 166.263 184.034 169.467 184.034Z" fill="#86D0DA"/>
<path d="M147.867 184.633C151.07 184.633 153.667 182.036 153.667 178.833C153.667 175.63 151.07 173.033 147.867 173.033C144.663 173.033 142.067 175.63 142.067 178.833C142.067 182.036 144.663 184.633 147.867 184.633Z" fill="white" stroke="#202124" stroke-width="0.5" stroke-miterlimit="10"/>
<path d="M160.533 174.233C161.167 174.233 161.167 173.233 160.533 173.233C159.9 173.233 159.9 174.233 160.533 174.233Z" fill="white"/>
<path d="M170.233 175.2H170.167H169.333H168.1C167.733 175.2 167.433 175.5 167.433 175.867V176.133V177.1H168.667V176.8H169.333V180.067H168.767V179.7H167.533V180.233V180.9V181.5C167.533 181.6 167.6 181.667 167.7 181.667H169.833C170.067 181.667 170.267 181.6 170.467 181.467C170.967 181.233 171.333 180.7 171.333 180.1V176.3C171.333 175.7 170.833 175.2 170.233 175.2Z" fill="white"/>
<path d="M150.133 178.233H145.4C145.067 178.233 144.8 177.967 144.8 177.633C144.8 177.3 145.067 177.033 145.4 177.033H150.133C150.467 177.033 150.733 177.3 150.733 177.633C150.733 177.933 150.467 178.233 150.133 178.233Z" fill="#202124"/>
<path d="M150.167 181H145.4C145.067 181 144.8 180.733 144.8 180.4C144.8 180.067 145.067 179.8 145.4 179.8H150.167C150.5 179.8 150.767 180.067 150.767 180.4C150.767 180.7 150.5 181 150.167 181Z" fill="#202124"/>
<path d="M126.167 181.4C127.86 181.4 129.233 180.027 129.233 178.333C129.233 176.64 127.86 175.267 126.167 175.267C124.473 175.267 123.1 176.64 123.1 178.333C123.1 180.027 124.473 181.4 126.167 181.4Z" fill="#86D0DA" stroke="#86D0DA" stroke-miterlimit="10"/>
<path d="M95.4333 103.6H10.0667V188.966H95.4333V103.6Z" fill="white" stroke="#202124" stroke-width="0.5" stroke-miterlimit="10"/>
<path d="M83.7667 151.333C84.0333 151.533 84.4667 151.866 84.9 152.366C85.5667 153.133 85.9333 153.833 86.1667 154.4C88.4333 159.666 88.9333 162 88.9333 162C90.0667 167.233 90.3667 167.933 90.8667 169.733C91.5 172.166 91.8333 174 92.1667 175.833C92.7667 179.133 93.5333 183.566 94.4333 188.866C90.2 188.866 85.9667 188.866 81.7 188.866C81.2667 187.633 80.8333 186.4 80.4 185.133C78.3667 179.4 76.2 173.9 73.9667 168.633C77.2 162.833 80.4667 157.1 83.7667 151.333Z" fill="white"/>
<path d="M83.7 151.467C86.3667 153.467 87.3334 157.433 88.3 160.467C89.2667 163.5 90.0667 166.6 90.7667 169.733C92.1667 176.133 93.2 182.6 94.3 189.033C94.3334 189.2 94.5667 189.133 94.5334 188.967C93.3334 181.9 92.2334 174.8 90.6 167.833C89.8 164.433 88.8334 161.033 87.6334 157.767C86.7667 155.4 85.9 152.8 83.8 151.233C83.7 151.133 83.5667 151.367 83.7 151.467Z" fill="#202124"/>
<path d="M74.4333 170.4C77.0333 176.5 79.4333 182.7 81.5666 188.967C81.6333 189.133 81.8666 189.067 81.8 188.9C79.6333 182.6 77.2666 176.4 74.6333 170.267C74.6 170.133 74.3666 170.233 74.4333 170.4Z" fill="#202124"/>
<path d="M32.8334 149.2C33.9 148.933 35.4 148.566 37.2 148.166C39.2334 147.733 44 146.733 49.4 146.333C52.3 146.1 59.1 145.733 67.7334 147.1C73.9334 148.066 79.3334 149.666 83.7334 151.366C83.7667 155.033 83.8 158.733 83.8334 162.4C83.0334 165.466 82.2667 168.633 81.5 171.833C80.1334 177.633 78.9334 183.3 77.8667 188.833C64.5334 188.833 51.1667 188.833 37.8334 188.833C37.3334 186.866 36.8667 184.866 36.4334 182.8C33.9 170.8 32.9 159.5 32.8334 149.2Z" fill="white"/>
<path d="M53.4334 128.167C54.0667 128.167 54.0667 127.167 53.4334 127.167C52.8 127.167 52.8 128.167 53.4334 128.167Z" fill="#202124"/>
<path d="M33 149.4C49.6333 144.6 67.5667 145.333 83.7333 151.466C83.9 151.533 83.9333 151.266 83.8 151.233C67.5667 145.066 49.6 144.333 32.9333 149.166C32.7667 149.2 32.8333 149.466 33 149.4Z" fill="#202124"/>
<path d="M32.9667 163.7C34.1667 172.134 35.7333 180.5 37.6667 188.8C37.7 188.967 37.9333 188.9 37.9 188.734C35.9667 180.434 34.4 172.067 33.2 163.634C33.2 163.467 32.9667 163.534 32.9667 163.7Z" fill="#202124"/>
<path d="M83.7333 162.833C81.4 171.466 79.4333 180.166 77.7667 188.933C77.7333 189.1 77.9667 189.166 78 189C79.6333 180.233 81.6333 171.533 83.9667 162.9C84 162.733 83.7667 162.666 83.7333 162.833Z" fill="#202124"/>
<path d="M32.8334 149.2C32.4334 149.467 31.9 149.833 31.3334 150.367C30.0334 151.533 29.2334 152.733 28.6334 153.8C27.2667 156.2 26.5334 158.633 25.9667 160.567C24.7 164.733 24.1 166.833 23.2 170.433C22.7334 172.3 22.1667 174.567 21.5667 177.567C21 180.467 20.3334 184.267 19.8 188.833C24.6667 188.833 29.5334 188.833 34.4 188.833C34.5334 186.867 34.7667 184.733 35.1667 182.5C35.9 178.1 37.0334 174.233 38.2 170.967C38.9 169.167 39.6667 166.333 39.4667 162.867C39.0334 155.333 34.2 150.467 32.8334 149.2Z" fill="white"/>
<path d="M32.8 149.067C27.1667 152.8 25.7334 160.534 24.1 166.6C22.1 173.967 20.5334 181.434 19.6667 189.034C19.6334 189.2 19.9 189.2 19.9334 189.034C20.7334 181.9 22.1667 174.834 24 167.9C24.8667 164.667 25.7667 161.4 26.8667 158.2C28.0667 154.7 29.7667 151.334 32.9334 149.267C33.0334 149.2 32.9334 149 32.8 149.067Z" fill="#202124"/>
<path d="M37.4334 172.7C35.7334 177.933 34.6667 183.333 34.2667 188.8C34.2667 188.967 34.5001 188.967 34.5334 188.8C34.9334 183.333 36.0001 177.967 37.7001 172.767C37.7334 172.6 37.5001 172.533 37.4334 172.7Z" fill="#202124"/>
<path d="M48.3999 132.266C48.2999 132.6 48.0666 133.533 47.8999 134.633C47.7666 135.566 47.6333 136.666 47.7333 137.966C47.8333 138.866 47.9666 140.233 48.8333 141.733C49.8666 143.466 51.2666 144.3 51.6333 144.533C52.8999 145.233 54.0999 145.433 54.7666 145.466C54.9999 146.033 55.2333 146.633 55.4666 147.2C54.7666 147.266 54.1666 147.7 53.9333 148.333C53.6999 148.966 53.8999 149.633 54.2999 150.033C54.7333 150.533 55.3666 150.566 55.9999 150.6C56.2333 150.6 57.0999 150.666 58.1666 150.233C58.6333 150.033 59.6333 149.6 60.4333 148.533C61.2999 147.333 61.3333 146.066 61.3333 145.633C61.1999 144.833 61.0666 144 60.9333 143.2C61.1666 142.933 61.4999 142.533 61.8333 142C62.4333 141.033 62.6333 140.133 62.7666 139.533C63.3999 136.466 63.7333 134.933 63.4333 133.2C63.1999 131.866 62.8333 129.633 61.1999 128.333C57.4666 125.266 49.4666 128.9 48.3999 132.266Z" fill="white"/>
<path d="M47.8667 135C47.9333 134.533 48.0333 134.067 48.1 133.6C48.4333 133.567 48.9 133.533 49.4 133.367C49.7 133.267 50.3333 133.033 51.4 132.2C51.9667 131.733 52.7667 131.033 53.5667 129.967C53.8 129.933 54.0333 129.933 54.3 129.9C54.5667 130.067 54.8667 130.2 55.2333 130.333C56.7 130.867 58.0667 130.667 58.8333 130.467C58.8667 130.8 58.9 131.267 59.0667 131.833C59.2333 132.467 59.5 133.367 60.3 134.067C60.5333 134.267 61 134.633 61.7667 134.833C61.9 135.367 62.0667 135.933 62.3333 136.567C62.7333 137.567 63.2333 138.4 63.7 139.033C64.0333 138.967 64.5667 138.833 65.1333 138.5C65.4667 138.3 65.9333 138.033 66.2667 137.467C66.3667 137.267 66.7667 136.633 66.6667 135.767C66.5 134.5 65.3667 133.9 65.2333 133.867C65.5 133.7 65.9333 133.433 66.2667 132.967C66.9667 132 66.9 130.933 66.8667 130.633C66.7333 128.933 65.3333 127.433 63.6667 127.1C62.8 126.9 62.0333 127.1 61.6 127.233C61.4667 127 60.9333 126.1 59.8333 125.733C58.7 125.367 57.4 125.767 56.5 126.7C56.3 126.3 55.6667 125.333 54.4333 124.767C54.2 124.667 52.2 123.767 50.3333 124.967C49 125.8 48.2667 127.4 48.4333 129C48.1 128.967 47.4667 128.933 46.7333 129.233C46.4333 129.367 45.1333 129.933 44.8333 131.333C44.5667 132.6 45.3 133.733 46.0667 134.333C46.7667 134.867 47.5333 135 47.8667 135Z" fill="#202124"/>
<path d="M47.9667 133.766C46.9667 138.633 48.3334 144.366 53.9001 145.466C58.7001 146.433 63.4001 142.766 62.9667 137.766C62.9667 137.6 62.7001 137.6 62.7001 137.766C63.1334 142.866 58.2001 146.333 53.4667 145.133C48.3334 143.833 47.2334 138.366 48.1667 133.833C48.2334 133.666 48.0001 133.6 47.9667 133.766Z" fill="#202124"/>
<path d="M54.6667 145.533C54.9333 146.2 55.2 146.833 55.4667 147.5C55.5333 147.633 55.7667 147.567 55.7 147.433C55.4333 146.767 55.1667 146.133 54.9 145.467C54.8667 145.3 54.6 145.367 54.6667 145.533Z" fill="#202124"/>
<path d="M54.6 147.233C53.7333 147.566 53.1 148.3 53.3667 149.3C53.6333 150.333 54.7 150.666 55.6333 150.733C58.6667 151 61.3333 148.9 61.5 145.8C61.5 145.633 61.2667 145.633 61.2333 145.8C61.1333 147.5 60.3 148.966 58.8 149.8C58.1667 150.166 57.5 150.333 56.8 150.433C56.5 150.5 56.1667 150.5 55.8667 150.5C54.3333 150.6 53.9333 149.6 54.6667 147.466C54.8333 147.433 54.7667 147.166 54.6 147.233Z" fill="#202124"/>
<path d="M53.5 135.533C53.1 137.333 52.4333 140.5 54.2667 141.733C54.4 141.833 54.5333 141.6 54.4 141.533C52.7667 140.4 53.4 137.233 53.7667 135.6C53.7667 135.433 53.5333 135.366 53.5 135.533Z" fill="#202124"/>
<path d="M47.5333 134.866C44 134.233 44.8 128.766 48.4333 129.133C48.5 129.133 48.5666 129.066 48.5666 129C48 124.433 54.2666 122.9 56.3666 126.766C56.4333 126.9 56.6666 126.766 56.5666 126.633C54.7 123.2 49.1 123.533 48.3 127.666C48.2 128.133 48.3666 128.566 47.9333 128.833C47.8 128.933 47.1333 128.933 46.9333 129C46.1333 129.266 45.5 129.866 45.1666 130.633C44.4 132.466 45.4666 134.733 47.4333 135.066C47.6333 135.166 47.7 134.9 47.5333 134.866Z" fill="#202124"/>
<path d="M56.5666 126.8C58.0333 125.3 60.3666 125.433 61.4666 127.3C61.5 127.333 61.5666 127.366 61.6 127.366C64.7666 126.333 68.0666 131.633 65.3 133.833C65.1666 133.933 65.3666 134.1 65.4666 134C68.1333 131.9 65.9333 128.266 63.4 127.2C62.7666 126.933 62.0333 127.1 61.4666 126.8C60.9333 126.5 60.7333 125.966 60.1 125.7C58.7666 125.133 57.3666 125.6 56.4 126.6C56.2666 126.733 56.4333 126.9 56.5666 126.8Z" fill="#202124"/>
<path d="M65.1334 134C66.3334 134.333 66.7 135.733 66.3667 136.833C66.0334 137.967 65 138.667 63.8334 138.667C63.6667 138.667 63.6667 138.933 63.8334 138.933C65.2334 138.9 66.4 138 66.6667 136.633C66.9 135.467 66.4 134.133 65.2 133.8C65.0334 133.7 65 133.933 65.1334 134Z" fill="#202124"/>
<path d="M48.1 133.733C50.0333 133.566 51.4333 132.466 52.7 131.1C52.9 130.9 53.0667 130.7 53.2667 130.5C53.7667 129.966 54.2333 129.9 54.7 130.3C54.9667 130.333 55.5 130.6 55.7667 130.666C56.7 130.9 57.6333 130.833 58.5667 130.633C58.7333 130.6 58.6667 130.366 58.5 130.4C57.6 130.6 56.7333 130.666 55.8333 130.433C55.3 130.3 54.6333 129.766 54.1 129.733C53.8333 129.7 53.8333 129.7 53.6 129.8C52.9667 130.066 52.4 131.066 51.9 131.533C50.8 132.6 49.6 133.366 48.0333 133.5C47.9333 133.5 47.9333 133.766 48.1 133.733Z" fill="#202124"/>
<path d="M58.7 130.533C58.9334 132.133 59.2667 133.467 60.6 134.467C61.1 134.833 61.7 135.067 61.9667 135.6C62.1667 135.967 62.2334 136.4 62.4 136.767C62.7334 137.567 63.1667 138.2 63.8 138.8C63.9333 138.9 64.1 138.733 63.9667 138.633C63.1 137.833 62.7 136.9 62.3 135.8C62.1667 135.433 62.1 135.067 61.8334 134.8C61.3667 134.3 60.5 134.167 60 133.6C59.2667 132.767 59.1 131.567 58.9667 130.5C58.9333 130.333 58.6667 130.4 58.7 130.533Z" fill="#202124"/>
<path d="M51.4667 137.834C51.706 137.834 51.9 137.46 51.9 137C51.9 136.54 51.706 136.167 51.4667 136.167C51.2273 136.167 51.0333 136.54 51.0333 137C51.0333 137.46 51.2273 137.834 51.4667 137.834Z" fill="#202124"/>
<path d="M57.4667 137.4C57.706 137.4 57.9 137.027 57.9 136.567C57.9 136.106 57.706 135.733 57.4667 135.733C57.2273 135.733 57.0333 136.106 57.0333 136.567C57.0333 137.027 57.2273 137.4 57.4667 137.4Z" fill="#202124"/>
<path d="M51.0333 140.9H46.5667C45.7333 140.9 45.0667 140.233 45.0667 139.4V134.533C45.0667 133.7 45.7333 133.033 46.5667 133.033H51.0333C51.8667 133.033 52.5333 133.7 52.5333 134.533V139.4C52.5333 140.233 51.8667 140.9 51.0333 140.9Z" stroke="#202124" stroke-width="0.75" stroke-miterlimit="10"/>
<path d="M60.8 140.9H56.3334C55.5 140.9 54.8334 140.233 54.8334 139.4V134.533C54.8334 133.7 55.5 133.033 56.3334 133.033H60.8C61.6334 133.033 62.3 133.7 62.3 134.533V139.4C62.3 140.233 61.6334 140.9 60.8 140.9Z" stroke="#202124" stroke-width="0.75" stroke-miterlimit="10"/>
<path d="M52.7001 137.033C53.2334 136.466 54.1334 136.666 54.7001 137.066C54.8334 137.166 54.9667 136.933 54.8334 136.866C54.1667 136.433 53.1334 136.266 52.5334 136.9C52.4001 136.966 52.5667 137.133 52.7001 137.033Z" fill="#202124"/>
<path d="M33.2667 182.8C36.47 182.8 39.0667 180.203 39.0667 177C39.0667 173.797 36.47 171.2 33.2667 171.2C30.0634 171.2 27.4667 173.797 27.4667 177C27.4667 180.203 30.0634 182.8 33.2667 182.8Z" fill="white" stroke="#202124" stroke-width="0.5" stroke-miterlimit="10"/>
<path d="M76.4333 182.8C79.6366 182.8 82.2333 180.203 82.2333 177C82.2333 173.797 79.6366 171.2 76.4333 171.2C73.23 171.2 70.6333 173.797 70.6333 177C70.6333 180.203 73.23 182.8 76.4333 182.8Z" fill="#86D0DA"/>
<path d="M54.8333 183.4C58.0367 183.4 60.6333 180.803 60.6333 177.6C60.6333 174.397 58.0367 171.8 54.8333 171.8C51.63 171.8 49.0333 174.397 49.0333 177.6C49.0333 180.803 51.63 183.4 54.8333 183.4Z" fill="white" stroke="#202124" stroke-width="0.5" stroke-miterlimit="10"/>
<path d="M67.5 173C68.1334 173 68.1334 172 67.5 172C66.8667 172 66.8667 173 67.5 173Z" fill="white"/>
<path d="M77.2 173.967H77.1334H76.3H75.0667C74.7 173.967 74.4 174.267 74.4 174.633V174.9V175.867H75.6334V175.567H76.3V178.833H75.7334V178.467H74.5V179V179.667V180.267C74.5 180.367 74.5667 180.433 74.6667 180.433H76.8C77.0334 180.433 77.2334 180.367 77.4334 180.233C77.9334 180 78.3 179.467 78.3 178.867V175.067C78.3 174.467 77.8 173.967 77.2 173.967Z" fill="white"/>
<path d="M57.0999 177H52.3333C51.9999 177 51.7333 176.733 51.7333 176.4C51.7333 176.066 51.9999 175.8 52.3333 175.8H57.0666C57.3999 175.8 57.6666 176.066 57.6666 176.4C57.6999 176.733 57.4333 177 57.0999 177Z" fill="#202124"/>
<path d="M57.1333 179.766H52.3333C51.9999 179.766 51.7333 179.5 51.7333 179.166C51.7333 178.833 51.9999 178.566 52.3333 178.566H57.0999C57.4333 178.566 57.6999 178.833 57.6999 179.166C57.7333 179.5 57.4666 179.766 57.1333 179.766Z" fill="#202124"/>
<path d="M33.1333 180.167C34.827 180.167 36.2 178.794 36.2 177.1C36.2 175.406 34.827 174.033 33.1333 174.033C31.4397 174.033 30.0667 175.406 30.0667 177.1C30.0667 178.794 31.4397 180.167 33.1333 180.167Z" fill="#86D0DA" stroke="#86D0DA" stroke-miterlimit="10"/>
<path d="M189.033 11.6328H103.667V96.9995H189.033V11.6328Z" fill="white" stroke="#202124" stroke-width="0.5" stroke-miterlimit="10"/>
<path d="M103.967 81.3662C131.867 81.3662 159.767 81.3662 187.7 81.3662C188.333 81.3662 188.333 80.3662 187.7 80.3662C159.8 80.3662 131.9 80.3662 103.967 80.3662C103.333 80.3662 103.333 81.3662 103.967 81.3662Z" fill="#202124"/>
<path d="M128.6 46.5338C129.733 45.7671 131.1 44.9338 132.733 44.1338C132.733 44.1338 135.067 42.9671 137.6 42.1338C145.5 39.5338 153.7 40.6005 153.7 40.6005C154.8 40.7338 160.033 41.4671 166.033 44.5005C167.567 45.2671 168.8 46.0338 169.667 46.6005C169.8 47.9338 169.933 49.9005 169.967 52.2671C170.067 57.4671 169.567 61.2671 169.233 63.8671C168.667 68.4005 168 74.2338 167.2 82.3671C155.7 82.4671 144.2 82.5338 132.667 82.6338C132.1 79.4005 131.567 76.1005 131.067 72.7005C129.833 63.5005 129.033 54.7671 128.6 46.5338Z" fill="white"/>
<path d="M128.667 46.6329C141.033 38.3996 157.2 38.4329 169.533 46.7329C169.667 46.8329 169.8 46.5996 169.667 46.5329C157.267 38.1996 141 38.1662 128.567 46.4329C128.4 46.4996 128.533 46.7329 128.667 46.6329Z" fill="#202124"/>
<path d="M129.4 54.8C129.7 62.6333 130.533 70.4667 131.867 78.2C131.9 78.3667 132.133 78.3 132.1 78.1333C130.767 70.4333 129.933 62.6333 129.633 54.8C129.667 54.6333 129.4 54.6333 129.4 54.8Z" fill="#202124"/>
<path d="M169.733 52.667C169.5 61.767 168.667 70.8003 167.233 79.8003C167.2 79.967 167.433 80.0337 167.467 79.867C168.9 70.867 169.733 61.8003 169.967 52.667C169.967 52.5003 169.733 52.5003 169.733 52.667Z" fill="#202124"/>
<path d="M140.1 68.2333V72.6667C138.1 73.3667 136.7 74.8 136.7 76.5C136.7 78.2 138.1 79.6333 140.1 80.3333V83.7333H150.067V68.2333H140.1ZM139.2 76.5333C139.2 75.7333 139.533 74.9667 140.1 74.3V78.7333C139.533 78.1 139.2 77.3333 139.2 76.5333Z" fill="#202124"/>
<path d="M145.1 69.8338C147.843 69.8338 150.067 69.1175 150.067 68.2338C150.067 67.3501 147.843 66.6338 145.1 66.6338C142.357 66.6338 140.133 67.3501 140.133 68.2338C140.133 69.1175 142.357 69.8338 145.1 69.8338Z" fill="white" stroke="#202124" stroke-width="0.75" stroke-miterlimit="10"/>
<path d="M145 73.4336C145.633 73.4336 145.633 72.4336 145 72.4336C144.333 72.4336 144.333 73.4336 145 73.4336Z" fill="#202124"/>
<path d="M143.3 55.8C141.433 56.4 140.167 59.6 141.867 60.9667C142.333 61.3333 143.2 61.5333 143.533 62.0333C144.333 63.2333 143.367 64.2 142.933 65.2667C142.433 66.4667 142.533 67.6333 143.5 68.5333C143.633 68.6333 143.8 68.4667 143.667 68.3667C141.133 66 145.033 64.5333 144 62.3333C143.767 61.8 143.3 61.6 142.833 61.3C141.967 60.7333 141.733 60.7333 141.5 59.6333C141.167 58.9333 141.233 58.2667 141.767 57.6667C142.1 57 142.633 56.4667 143.3 56.0667C143.533 56 143.467 55.7667 143.3 55.8Z" fill="#202124"/>
<path d="M148.4 60.2669C147.2 60.9003 145 62.9669 145.567 64.5336C145.767 65.1003 145.8 64.8003 146.133 65.2669C146.267 65.3669 146.4 65.4669 146.533 65.5669C147.067 66.3003 147.133 66.9336 146.667 67.4669C146.467 68.1336 146.133 68.4336 146.567 69.1003C146.667 69.2336 146.867 69.1003 146.767 68.9669C146.3 68.2336 147.233 67.3003 147.333 66.6003C147.367 66.3336 147.4 66.1669 147.267 65.9003C147.2 65.7669 147.067 65.6669 147 65.5669C146.9 65.4669 146.767 65.4003 146.667 65.3003C146.5 64.5003 146.333 63.7336 146.167 62.9336C146.367 62.0003 147.8 60.8669 148.6 60.4336C148.667 60.4003 148.533 60.1669 148.4 60.2669Z" fill="#202124"/>
<path d="M133.733 78.3003C134.533 77.367 135.033 76.7003 135.333 76.2003C135.433 76.0336 135.633 75.7003 135.967 75.6336C136.367 75.567 136.733 75.867 136.8 75.9336C137.2 76.267 137.267 76.7336 137.267 76.867C137.5 77.0336 137.9 77.2336 138.367 77.267C138.533 77.3003 139.167 77.3336 139.833 77.0003C140.367 76.7003 140.5 76.4003 140.7 76.467C140.8 76.5003 140.967 76.667 140.967 77.867C140.967 78.7003 140.9 79.1003 140.833 79.7336C140.7 81.4336 141 81.9336 140.567 82.967C140.333 83.5336 140.133 83.767 140.033 83.8336C139.567 84.267 138.933 84.367 138.133 84.367C136.433 84.367 134.8 83.8336 133.8 83.467C133.5 83.3336 132.7 82.9336 132.333 82.067C131.9 80.9003 132.4 79.3003 133.733 78.3003Z" fill="white"/>
<path d="M128.9 46.333C128.5 46.733 127.967 47.2997 127.333 47.9997C126.267 49.1997 124.3 51.533 121.433 56.2997C118.367 61.3997 116.533 65.433 115.4 67.933C112.367 74.6663 114.3 72.1663 112.633 75.633C112.233 76.4663 111.533 77.833 111.933 79.3663C112.3 80.733 113.333 81.533 113.6 81.733C114.867 82.6997 116.3 82.7663 116.967 82.7997C120.1 82.9663 123.2 83.433 126.333 83.433C128.2 83.433 130.9 83.4663 134.233 83.5663C134.367 82.9663 134.467 82.1663 134.367 81.233C134.267 79.8997 133.867 78.8663 133.567 78.233C130.7 77.3997 127.867 76.5663 125 75.733C125.6 74.6663 126.567 73.0663 127.9 71.2663C130.6 67.5997 131.967 66.833 134.033 64.033C136.333 60.8997 138.267 58.2997 138.067 55.3997C137.7 49.8997 129.733 46.6663 128.9 46.333Z" fill="white"/>
<path d="M128.367 46.5667C121.4 54.8667 116.133 64.4 112.767 74.7C112.733 74.8667 112.967 74.9333 113 74.7667C116.333 64.5333 121.6 55 128.533 46.7667C128.667 46.6333 128.467 46.4333 128.367 46.5667Z" fill="#202124"/>
<path d="M133.6 64.2329C130.433 67.6329 127.6 71.2995 125.133 75.2329C125.033 75.3662 125.267 75.4995 125.333 75.3662C127.8 71.4662 130.6 67.7995 133.767 64.3995C133.9 64.2995 133.7 64.0995 133.6 64.2329Z" fill="#202124"/>
<path d="M123.933 75.2004C125 76.1004 126.467 76.3671 127.767 76.7671C129.733 77.4004 131.7 78.0004 133.667 78.6004C133.833 78.6338 133.9 78.4004 133.733 78.3671C132.167 77.9004 130.633 77.4338 129.067 76.9338C127.5 76.4338 125.4 76.1004 124.133 75.0338C124 74.9338 123.833 75.1004 123.933 75.2004Z" fill="#202124"/>
<path d="M133.767 78.7C134.567 80.0667 134.267 81.6333 133.967 83.1C133.933 83.2667 134.167 83.3333 134.2 83.1667C134.533 81.6333 134.8 80 133.967 78.5667C133.9 78.4333 133.667 78.5333 133.767 78.7Z" fill="#202124"/>
<path d="M111.967 77.7667C110.8 81.3 114.833 82.7667 117.533 83.0333C122.867 83.6 128.267 83.7667 133.6 83.7C133.767 83.7 133.767 83.4333 133.6 83.4333C129.7 83.4667 125.8 83.3667 121.933 83.1C120.067 82.9667 118.133 82.9 116.267 82.5667C114 82.1667 111.267 80.5 112.2 77.7667C112.267 77.6667 112 77.6 111.967 77.7667Z" fill="#202124"/>
<path d="M133.833 78.3664C134.2 77.8664 134.567 77.3997 134.967 76.8997C135.133 76.6664 135.367 76.333 135.567 76.133C136.2 75.533 136.833 76.0664 137.067 76.6664C137.133 76.7997 137.367 76.7664 137.3 76.5997C137.067 76.033 136.633 75.2664 135.9 75.5664C135.467 75.733 135.2 76.233 134.933 76.5664C134.5 77.133 134.067 77.6997 133.667 78.233C133.533 78.3664 133.767 78.4997 133.833 78.3664Z" fill="#202124"/>
<path d="M134.2 83.7669C136.1 84.3336 139.733 85.6002 140.733 83.0669C140.8 82.9002 140.533 82.8669 140.5 83.0002C139.633 85.3002 136 84.0669 134.3 83.5336C134.1 83.4669 134.033 83.7002 134.2 83.7669Z" fill="#202124"/>
<path d="M137.233 77.0003C138.5 77.767 139.667 77.367 140.8 76.6003C140.933 76.5003 140.8 76.3003 140.667 76.4003C139.633 77.1336 138.533 77.5336 137.367 76.8003C137.2 76.7003 137.1 76.9003 137.233 77.0003Z" fill="#202124"/>
<path d="M138.733 79.4003C139.6 79.967 140.733 78.6003 141.067 77.9337C141.133 77.8003 140.933 77.667 140.867 77.8003C140.7 78.167 140.467 78.467 140.167 78.7337C139.867 79.0003 139.267 79.467 138.867 79.167C138.733 79.1003 138.6 79.3003 138.733 79.4003Z" fill="#202124"/>
<path d="M139.133 81.1C139.433 81.3334 139.8 81.1 140.067 80.9C140.467 80.5667 140.8 80.2 141 79.7334C141.067 79.6 140.833 79.4667 140.8 79.6C140.667 79.9 140.467 80.1667 140.233 80.4334C140.033 80.6334 139.6 81.1334 139.267 80.9C139.133 80.8 139 81 139.133 81.1Z" fill="#202124"/>
<path d="M139.633 82.5995C140.2 82.4329 140.633 81.9662 140.7 81.3662C140.733 81.1995 140.467 81.1995 140.433 81.3662C140.367 81.8329 140 82.2329 139.567 82.3662C139.4 82.3995 139.467 82.6329 139.633 82.5995Z" fill="#202124"/>
<path d="M160.833 77.5666C160.433 77.0666 160.067 76.7 159.8 76.4666C159.167 75.9 158.8 75.5666 158.3 75.6333C158.167 75.6333 158.167 75.6666 157.533 75.9666C156.633 76.4 156.633 76.4 156.367 76.5333C155.767 76.8666 155.467 77.2 155.133 77.5333C153.467 79.0666 152.467 78.8 152.033 79.9C151.733 80.6333 151.9 81.4333 151.967 81.6333C152.1 82.2 152.367 82.6333 152.533 82.8666C153.8 82.9666 155.267 83 156.9 82.9C158.567 82.8 160.033 82.5333 161.267 82.2666C161.1 80.6666 160.967 79.1333 160.833 77.5666Z" fill="white"/>
<path d="M169.6 46.6338C169.2 47.2005 168.8 47.8005 168.4 48.4671C165.267 53.9671 165.6 59.8671 166.2 63.5005C168.1 66.7671 170.033 70.0005 171.933 73.2671C168.233 74.6338 164.5 75.9671 160.8 77.3338C160.967 79.0671 161.133 80.7671 161.267 82.5005C165 82.5005 168.133 82.3338 170.533 82.1338C173.733 81.9005 176.933 81.6338 181.067 80.8005C183.567 80.3005 185.633 79.7338 187.067 79.3338C187.567 78.9338 188.033 78.5671 188.533 78.1671C188.067 76.3671 187.433 74.2005 186.533 71.7338C185.3 68.3338 183.967 65.5005 182.9 63.4005C181.133 59.9338 179.433 56.6338 176.333 52.9671C174.8 51.2005 172.633 48.9005 169.6 46.6338Z" fill="white"/>
<path d="M169.6 46.6669C174.7 50.2336 178.333 55.5003 181.367 60.8669C184.433 66.3003 186.8 72.1336 188.4 78.2003C188.433 78.3669 188.667 78.3003 188.633 78.1336C186.967 71.8669 184.533 65.8336 181.3 60.2336C178.3 55.0336 174.7 49.9669 169.733 46.4669C169.6 46.3669 169.467 46.6003 169.6 46.6669Z" fill="#202124"/>
<path d="M161.267 82.633C166.067 82.633 170.9 82.333 175.667 81.733C177.8 81.4664 179.933 81.133 182.033 80.7664C184 80.3997 186 80.0664 187.8 79.0664C187.933 78.9997 187.8 78.7664 187.667 78.8664C185.833 79.8997 183.7 80.233 181.667 80.5997C179.267 81.033 176.833 81.3997 174.4 81.6664C170.033 82.1664 165.667 82.3997 161.267 82.3997C161.1 82.3664 161.1 82.633 161.267 82.633Z" fill="#202124"/>
<path d="M161.233 81.533C161.267 80.0997 161.167 78.6997 160.933 77.2997C160.9 77.133 160.667 77.1997 160.7 77.3663C160.933 78.7663 161.033 80.133 161 81.533C160.967 81.6997 161.233 81.6997 161.233 81.533Z" fill="#202124"/>
<path d="M161.467 77.0997C165.233 75.7997 168.967 74.4663 172.733 73.0997C172.9 73.033 172.833 72.7997 172.667 72.8663C168.933 74.1997 165.167 75.533 161.4 76.8663C161.233 76.8997 161.3 77.133 161.467 77.0997Z" fill="#202124"/>
<path d="M166.1 63.5333C167.967 66.7 169.833 69.8333 171.7 73C171.767 73.1333 172 73 171.9 72.8667C170.033 69.7 168.167 66.5667 166.3 63.4C166.233 63.3 166.033 63.4 166.1 63.5333Z" fill="#202124"/>
<path d="M160.9 77.6C160.4 76.9333 159.633 75.7 158.733 75.5C158.367 75.4333 158.067 75.5667 157.733 75.7333C157 76.0667 156.3 76.4333 155.6 76.7667C155.467 76.8333 155.567 77.0667 155.733 76.9667C156.433 76.6333 157.267 76.0667 158.033 75.8333C159.233 75.5 160.067 76.8667 160.7 77.7C160.8 77.8667 161 77.7333 160.9 77.6Z" fill="#202124"/>
<path d="M156.933 77.2333C155.067 77.9 153.333 78.8 151.7 79.9667C151.567 80.0667 151.7 80.2667 151.833 80.1667C153.433 79.0333 155.167 78.1333 157 77.4667C157.167 77.4 157.1 77.1667 156.933 77.2333Z" fill="#202124"/>
<path d="M152.033 81.3338C153.633 80.9338 155.2 80.4671 156.733 79.9005C156.9 79.8338 156.833 79.6005 156.667 79.6671C155.133 80.2338 153.567 80.7005 151.967 81.1005C151.8 81.1338 151.867 81.3671 152.033 81.3338Z" fill="#202124"/>
<path d="M152.3 81.8997C153.567 82.1663 154.833 82.0663 156.033 81.5997C156.167 81.533 156.133 81.2997 155.967 81.3663C154.8 81.7997 153.6 81.8997 152.367 81.6663C152.2 81.633 152.133 81.8663 152.3 81.8997Z" fill="#202124"/>
<path d="M152.133 82.8667C153.733 83.2667 155.3 83.3 156.9 82.9666C157.067 82.9333 157 82.7 156.833 82.7333C155.267 83.0666 153.733 83.0333 152.2 82.6333C152.033 82.6 151.967 82.8333 152.133 82.8667Z" fill="#202124"/>
<path d="M141.967 34.5333C141.667 34.3666 141.033 33.9667 140.567 33.2334C140.467 33.0334 139.667 31.6667 140.3 30.1001C140.733 29.0667 141.667 28.2667 142.7 28.1001C143.533 27.9667 144.3 28.3334 145.833 29.0667C147.033 29.6667 147 29.8334 148.067 30.2667C148.967 30.6334 149.367 30.6334 150.067 31.1001C150.733 31.5334 151.167 32.0001 151.333 32.2334C152.067 33.1001 152.3 34 152.433 34.5666C152.7 35.5666 152.833 36.1333 152.567 36.6C152.467 36.7667 152.033 37.4333 149.867 37.4C148.467 37.3333 145.7 37 141.967 34.5333Z" fill="#202124"/>
<path d="M142.067 34.5337C141.967 35.0003 141.833 35.7003 141.833 36.5337C141.833 37.5337 141.8 38.8003 142.567 40.1337C143.467 41.7337 144.933 42.467 145.567 42.7003C146 42.867 146.4 42.967 146.667 43.0337C146.833 43.367 147 43.7003 147.133 44.0337C147.1 44.0337 146.5 44.1003 146.267 44.567C146.033 45.067 146.367 45.567 146.4 45.6003C146.933 46.3337 148.233 46.1337 148.533 46.067C149.633 45.9003 150.367 45.2337 150.7 44.9337C151.167 44.5003 151.467 44.067 151.633 43.7337C151.2 43.667 150.767 43.6003 150.333 43.5337C150.133 43.1337 149.933 42.7337 149.733 42.3337C149.967 42.2003 150.267 41.967 150.6 41.667C150.6 41.667 151.067 41.2337 151.433 40.7003C153.1 38.267 152.5 36.2337 152.5 36.2337C152.067 34.7337 150.833 33.967 150.333 33.6337C148.633 32.5336 146.867 32.7003 146.167 32.7669C144.1 33.0336 142.667 34.067 142.067 34.5337Z" fill="white"/>
<path d="M141.9 34.5C141.4 38.0333 142.1 42.0667 146.133 43.0333C149.367 43.8 152.4 41.1667 152.367 37.9333C152.367 37.7667 152.1 37.7667 152.1 37.9333C152.133 41.2333 148.933 43.7 145.767 42.6667C142.167 41.4667 141.7 37.8333 142.133 34.5666C142.167 34.4 141.9 34.3333 141.9 34.5Z" fill="#202124"/>
<path d="M145.7 35.0663C145.233 36.4329 144.8 38.3329 145.833 39.5663C145.933 39.6996 146.1 39.4996 146 39.3996C145.067 38.2663 145.5 36.3996 145.933 35.1329C146 34.9663 145.767 34.8996 145.7 35.0663Z" fill="#202124"/>
<path d="M146.533 43.0666C146.733 43.5666 146.967 44.0667 147.3 44.5333C147.4 44.6667 147.6 44.5333 147.5 44.4C147.2 43.9666 146.967 43.5 146.767 43C146.7 42.8333 146.467 42.9 146.533 43.0666Z" fill="#202124"/>
<path d="M146.133 44.5331C145.567 45.8998 147.233 46.2664 148.233 46.2331C149.667 46.1664 151.167 45.1664 151.733 43.8331C151.8 43.6998 151.567 43.5664 151.533 43.6998C151.233 44.3998 150.433 45.1331 149.833 45.5331C149.4 45.7998 145.533 46.6998 146.4 44.5998C146.433 44.4664 146.2 44.3998 146.133 44.5331Z" fill="#202124"/>
<path d="M142 34.4337C139.967 33.2003 139.367 30.167 141.6 28.7003C143.667 27.3337 145.1 29.0337 146.8 29.9337C148.1 30.6337 149.6 30.767 150.7 31.8003C151.933 32.9337 152.467 34.567 152.333 36.2003C152.333 36.367 152.567 36.367 152.6 36.2003C152.767 34.3337 152.033 32.467 150.533 31.3003C149.467 30.467 148.133 30.3003 146.933 29.7003C145.9 29.167 145.2 28.2337 144.033 28.0003C139.9 27.167 138.6 32.667 141.867 34.6337C142.033 34.7337 142.167 34.5337 142 34.4337Z" fill="#202124"/>
<path d="M142.133 34.6333C145.067 31.8333 150.933 32.1999 152.367 36.3333C152.433 36.5 152.667 36.4333 152.6 36.2666C151.1 31.9333 145.033 31.5333 141.933 34.4666C141.867 34.5666 142.033 34.7333 142.133 34.6333Z" fill="#202124"/>
<path d="M148.267 36.4996C148.488 36.4996 148.667 36.1863 148.667 35.7996C148.667 35.4129 148.488 35.0996 148.267 35.0996C148.046 35.0996 147.867 35.4129 147.867 35.7996C147.867 36.1863 148.046 36.4996 148.267 36.4996Z" fill="#202124"/>
<path d="M144.833 31.8C145.467 31.8 145.467 30.8 144.833 30.8C144.167 30.8 144.167 31.8 144.833 31.8Z" fill="#202124"/>
<path d="M145.867 40.8671C146.9 41.0004 147.9 40.6671 148.633 39.9337C148.733 39.8337 148.567 39.6337 148.467 39.7671C147.767 40.4337 146.833 40.7337 145.867 40.6337C145.7 40.6004 145.7 40.8337 145.867 40.8671Z" fill="#202124"/>
<path d="M144 36.4996C144.221 36.4996 144.4 36.1863 144.4 35.7996C144.4 35.4129 144.221 35.0996 144 35.0996C143.779 35.0996 143.6 35.4129 143.6 35.7996C143.6 36.1863 143.779 36.4996 144 36.4996Z" fill="#202124"/>
<path d="M126.3 93.767C129.503 93.767 132.1 91.1703 132.1 87.967C132.1 84.7637 129.503 82.167 126.3 82.167C123.097 82.167 120.5 84.7637 120.5 87.967C120.5 91.1703 123.097 93.767 126.3 93.767Z" fill="white" stroke="#202124" stroke-width="0.75" stroke-miterlimit="10"/>
<path d="M169.467 93.767C172.67 93.767 175.267 91.1703 175.267 87.967C175.267 84.7637 172.67 82.167 169.467 82.167C166.263 82.167 163.667 84.7637 163.667 87.967C163.667 91.1703 166.263 93.767 169.467 93.767Z" fill="#86D0DA"/>
<path d="M147.867 94.3667C151.07 94.3667 153.667 91.77 153.667 88.5667C153.667 85.3633 151.07 82.7667 147.867 82.7667C144.663 82.7667 142.067 85.3633 142.067 88.5667C142.067 91.77 144.663 94.3667 147.867 94.3667Z" fill="white" stroke="#202124" stroke-width="0.5" stroke-miterlimit="10"/>
<path d="M160.533 83.9667C161.167 83.9667 161.167 82.9667 160.533 82.9667C159.9 82.9667 159.9 83.9667 160.533 83.9667Z" fill="white"/>
<path d="M170.233 84.9336H170.167H169.333H168.1C167.733 84.9336 167.433 85.2336 167.433 85.6003V85.8669V86.8336H168.667V86.5336H169.333V89.8003H168.767V89.4336H167.533V89.9669V90.6336V91.2336C167.533 91.3336 167.6 91.4003 167.7 91.4003H169.833C170.067 91.4003 170.267 91.3336 170.467 91.2003C170.967 90.9669 171.333 90.4336 171.333 89.8336V86.0336C171.333 85.4336 170.833 84.9336 170.233 84.9336Z" fill="white"/>
<path d="M150.133 87.9667H145.4C145.067 87.9667 144.8 87.7 144.8 87.3667C144.8 87.0333 145.067 86.7667 145.4 86.7667H150.133C150.467 86.7667 150.733 87.0333 150.733 87.3667C150.733 87.7 150.467 87.9667 150.133 87.9667Z" fill="#202124"/>
<path d="M150.167 90.7333H145.4C145.067 90.7333 144.8 90.4667 144.8 90.1333C144.8 89.8 145.067 89.5333 145.4 89.5333H150.167C150.5 89.5333 150.767 89.8 150.767 90.1333C150.767 90.4667 150.5 90.7333 150.167 90.7333Z" fill="#202124"/>
<path d="M126.167 91.1333C127.86 91.1333 129.233 89.7603 129.233 88.0667C129.233 86.373 127.86 85 126.167 85C124.473 85 123.1 86.373 123.1 88.0667C123.1 89.7603 124.473 91.1333 126.167 91.1333Z" fill="#86D0DA" stroke="#86D0DA" stroke-miterlimit="10"/>
<path d="M96.5333 11.6328H11.1666V96.9995H96.5333V11.6328Z" fill="white" stroke="#202124" stroke-width="0.5" stroke-miterlimit="10"/>
<path d="M41.4334 33.7667H15.3667V53.8333H41.4334V33.7667Z" fill="white" stroke="#202124" stroke-width="0.5" stroke-miterlimit="10"/>
<path d="M19.3 40.4333C20.6623 40.4333 21.7667 39.329 21.7667 37.9667C21.7667 36.6043 20.6623 35.5 19.3 35.5C17.9377 35.5 16.8334 36.6043 16.8334 37.9667C16.8334 39.329 17.9377 40.4333 19.3 40.4333Z" fill="#86D0DA"/>
<path d="M22.9 37.2C23.5334 37.2 23.5334 36.2 22.9 36.2C22.2667 36.2 22.2667 37.2 22.9 37.2Z" fill="#202124"/>
<path d="M24.3 36.7333C28.3333 36.7333 32.4 36.7333 36.4333 36.7333C36.6 36.7333 36.6 36.4667 36.4333 36.4667C32.4 36.4667 28.3333 36.4667 24.3 36.4667C24.1666 36.5 24.1333 36.7333 24.3 36.7333Z" fill="#202124"/>
<path d="M22.9667 38.0667C24.2667 38.0667 25.5333 38.0667 26.8333 38.0667C27 38.0667 27 37.8 26.8333 37.8C25.5333 37.8 24.2667 37.8 22.9667 37.8C22.8 37.8333 22.8 38.0667 22.9667 38.0667Z" fill="#202124"/>
<path d="M22.8334 39.5667C27.6667 39.5667 32.4667 39.5667 37.3 39.5667C37.4667 39.5667 37.4667 39.3 37.3 39.3C32.4667 39.3 27.6667 39.3 22.8334 39.3C22.6667 39.3 22.6667 39.5667 22.8334 39.5667Z" fill="#202124"/>
<path d="M30.0667 38.3C32.1333 38.3 34.2333 38.3 36.3 38.3C36.4667 38.3 36.4667 38.0333 36.3 38.0333C34.2333 38.0333 32.1333 38.0333 30.0667 38.0333C29.9 38.0333 29.9 38.3 30.0667 38.3Z" fill="#202124"/>
<path d="M17.8667 43.5C23.8 43.5 29.7 43.5 35.6334 43.5C35.8 43.5 35.8 43.2333 35.6334 43.2333C29.7 43.2333 23.8 43.2333 17.8667 43.2333C17.7 43.2333 17.7 43.5 17.8667 43.5Z" fill="#202124"/>
<path d="M18.1333 44.8331C19.2333 44.8331 20.3333 44.8331 21.4333 44.8331C21.6 44.8331 21.6 44.5664 21.4333 44.5664C20.3333 44.5664 19.2333 44.5664 18.1333 44.5664C17.9666 44.5664 17.9666 44.8331 18.1333 44.8331Z" fill="#202124"/>
<path d="M18.7667 46.2333C21.0334 46.2333 23.3001 46.2333 25.5667 46.2333C25.7334 46.2333 25.7334 45.9667 25.5667 45.9667C23.3001 45.9667 21.0334 45.9667 18.7667 45.9667C18.6001 45.9667 18.6001 46.2333 18.7667 46.2333Z" fill="#202124"/>
<path d="M26.7667 45.0333C28.9334 45.0333 31.0667 45.0333 33.2334 45.0333C33.4001 45.0333 33.4001 44.7667 33.2334 44.7667C31.0667 44.7667 28.9334 44.7667 26.7667 44.7667C26.6001 44.7667 26.6001 45.0333 26.7667 45.0333Z" fill="#202124"/>
<path d="M18.0667 47.7667C24.0666 47.7667 30.0333 47.7667 36.0333 47.7667C36.2 47.7667 36.2 47.5 36.0333 47.5C30.0333 47.5 24.0666 47.5 18.0667 47.5C17.9 47.5333 17.9 47.7667 18.0667 47.7667Z" fill="#202124"/>
<path d="M60.5 18.2H15.3667V31H60.5V18.2Z" fill="#86D0DA"/>
<path d="M17.8 22.3C28.6333 22.3 39.4333 22.3 50.2666 22.3C50.9 22.3 50.9 21.3 50.2666 21.3C39.4333 21.3 28.6333 21.3 17.8 21.3C17.1666 21.3 17.1666 22.3 17.8 22.3Z" fill="white"/>
<path d="M17.9333 24.6328C20.5 24.6328 23.0334 24.6328 25.6 24.6328C25.9334 24.6328 25.9334 24.1328 25.6 24.1328C23.0334 24.1328 20.5 24.1328 17.9333 24.1328C17.6 24.1328 17.6 24.6328 17.9333 24.6328Z" fill="white"/>
<path d="M27.8667 24.7668C34.9667 24.7668 42.0334 24.7668 49.1334 24.7668C49.4667 24.7668 49.4667 24.2668 49.1334 24.2668C42.0334 24.2668 34.9667 24.2668 27.8667 24.2668C27.5334 24.2668 27.5334 24.7668 27.8667 24.7668Z" fill="white"/>
<path d="M18.0667 26.4334C27.7 26.4334 37.3 26.4334 46.9333 26.4334C47.2667 26.4334 47.2667 25.9334 46.9333 25.9334C37.3 25.9334 27.7 25.9334 18.0667 25.9334C17.7333 25.9334 17.7333 26.4334 18.0667 26.4334Z" fill="white"/>
<path d="M37.1 49.9663C37.1667 49.6329 37.0333 49.5996 36.9667 48.5663C36.8667 47.2996 37.0667 46.8996 36.7333 46.4329C36.6 46.2329 36.3333 45.9663 35.7333 45.7996C34.8333 44.2663 34.4333 42.9329 34.2 41.9663C34.0333 41.1329 33.8667 39.9663 33.0667 39.5329C32.9667 39.4996 32.6667 39.3329 32.4 39.4329C31.9667 39.6329 32 40.4996 32 40.8663C32 41.2663 32.1 41.9996 32.6 42.8663C32.2 42.9663 31.3667 43.1996 30.7 43.9663C30.4333 44.2663 29.7667 44.9996 29.9667 45.8329C30.0667 46.2996 30.4333 46.6329 30.9333 47.0996C31.2333 47.3996 31.5333 47.5996 31.7333 47.6996C31.8333 47.8996 32.0333 48.1663 32.2 48.5663C32.7333 49.5996 32.7667 50.0329 33.1333 50.5996C33.3333 50.8996 33.7 51.2996 34.3333 51.6663C36.4667 51.1329 36.9667 50.4329 37.1 49.9663Z" fill="white"/>
<path d="M37.2333 49.8663C36.9 49.8663 36.3666 49.8996 35.8 50.1663C34.6 50.7663 34.2333 51.9996 34.1666 52.2329C34.7333 54.8329 35.2 56.9329 35.4666 58.2663C36.5333 63.2996 38.0333 68.2663 39.2 73.2996C39.2 73.2996 39.4333 74.2996 40.1 75.7329C40.9666 77.5329 41.5666 77.8663 41.8 77.9663C42.5333 78.2996 43.2666 78.1329 43.6 78.0663C44.4 77.8996 44.9333 77.4996 45.2666 77.2329C47.2666 75.6996 48.2333 74.9329 48.6 74.5996C50.3666 72.8996 51.5666 71.3663 52.0666 70.7329C54.2333 67.9663 55.5666 66.2329 56.6 63.6329C57.3333 61.7996 58.1333 59.7663 57.9 57.1329C57.5333 52.9663 54.7666 50.1329 53.6 49.0996C53.1666 49.2663 52.5333 49.5329 51.8 49.9663C50.5666 50.7329 49.8 51.5996 48.7666 52.8996C47.4666 54.5329 46.6 55.5996 45.2666 57.6329C44.5666 58.6663 43.6666 60.0663 42.6666 61.7996C41.8666 60.2663 41.0666 58.6663 40.3 56.9996C39.2333 54.5663 38.2 52.1996 37.2333 49.8663Z" fill="white"/>
<path d="M37.1334 49.9003C38.8334 54.0003 40.7 58.0336 42.6667 62.0003C42.7 62.0669 42.8334 62.0669 42.8667 62.0003C44.1334 59.5669 45.6 57.2336 47.2667 55.0336C49.0334 52.7669 50.9667 50.3336 53.7 49.2003C53.8334 49.1336 53.7667 48.9003 53.6334 48.9669C49.7 50.6003 46.9 54.8336 44.7 58.3003C44.4 58.7669 43.3 61.3003 42.9334 61.3669C42.3 61.4336 41.2 58.4336 40.9667 57.9003C39.7 55.2336 38.5334 52.5336 37.4 49.8336C37.3 49.7003 37.0667 49.7669 37.1334 49.9003Z" fill="#202124"/>
<path d="M37.0333 49.8C35.8666 49.8333 34.8333 50.4333 34.2333 51.4C34.1333 51.5333 34.3666 51.6667 34.4333 51.5333C35 50.6333 35.9333 50.0667 37.0333 50.0333C37.2 50.0667 37.2 49.8 37.0333 49.8Z" fill="#202124"/>
<path d="M34.1001 52.4669C35.0001 56.6669 35.9334 60.9003 36.9667 65.0669C37.8334 68.6003 38.4334 72.5669 40.0334 75.8336C40.4667 76.7336 41.1001 77.9003 42.1334 78.2336C43.2667 78.6003 44.5334 77.8336 45.4667 77.2669C48.3667 75.4669 50.5667 72.8003 52.7001 70.1669C52.8001 70.0336 52.6334 69.8669 52.5334 70.0003C50.6334 72.3336 48.7 74.7003 46.2334 76.4669C44.4 77.7669 42.1334 78.8669 40.6334 76.4336C39.8334 75.1336 39.4334 73.6336 39.0334 72.1669C37.2667 65.6336 35.7334 59.0336 34.3334 52.4003C34.3001 52.2336 34.0667 52.3003 34.1001 52.4669Z" fill="#202124"/>
<path d="M35.0666 47.6C34.4999 48.0333 33.6999 47.5333 33.8666 46.8333C33.8999 46.6666 33.6666 46.6 33.6333 46.7666C33.3999 47.6666 34.4333 48.4 35.1999 47.8333C35.2999 47.7333 35.1999 47.5333 35.0666 47.6Z" fill="#202124"/>
<path d="M34.2334 46.4667C34.5667 46.1334 35.6 45.7667 36.0667 45.9334C36.7334 46.2 36.6667 47.0334 36.7334 47.5667C36.8 48.3667 36.9 49.1667 36.9667 49.9667C36.9667 50.1334 37.2334 50.1334 37.2334 49.9667C37.1667 49.1334 37.0667 48.2667 37 47.4334C36.9667 46.9667 37 46.3667 36.6667 46C36.0667 45.3 34.6667 45.7667 34.1 46.3C33.9334 46.4 34.1334 46.5667 34.2334 46.4667Z" fill="#202124"/>
<path d="M32.3666 41.7004C32.0666 41.0338 31.7666 40.1004 32.4666 39.5671C32.6 39.4671 32.4666 39.2671 32.3333 39.3671C31.5 40.0004 31.7666 41.0338 32.1333 41.8338C32.2 41.9671 32.4333 41.8338 32.3666 41.7004Z" fill="#202124"/>
<path d="M32.8334 39.5669C33.6334 39.9336 34.0667 41.9003 34.3667 42.7003C34.7334 43.6336 35.1001 44.6003 35.4667 45.5336C35.5334 45.6669 35.7667 45.6336 35.7001 45.4669C35.1667 44.1003 34.6334 42.7003 34.1001 41.3336C33.8334 40.6669 33.6667 39.7003 32.9667 39.3669C32.8001 39.3003 32.7001 39.5003 32.8334 39.5669Z" fill="#202124"/>
<path d="M31.6333 43.0333C31.2667 43.2333 31.2333 43.7 31.2667 44.0667C31.3333 44.6667 31.6333 45.2 31.9667 45.7C32.0667 45.8333 32.2667 45.7 32.1667 45.5667C31.9667 45.2667 31.8 45 31.6667 44.6667C31.5333 44.3333 31.3 43.5 31.7333 43.2333C31.9 43.1667 31.7667 42.9333 31.6333 43.0333Z" fill="#202124"/>
<path d="M30.6334 43.8996C30.2667 44.7329 30.4334 45.6996 31.0667 46.3662C31.1667 46.4662 31.3667 46.2996 31.2334 46.1996C30.6667 45.6329 30.5001 44.7996 30.8334 44.0662C30.9001 43.8662 30.7001 43.7662 30.6334 43.8996Z" fill="#202124"/>
<path d="M29.9999 44.9997C29.6666 45.7664 29.9333 46.6331 30.6 47.0997C30.7333 47.1997 30.8666 46.9664 30.7333 46.8997C30.1666 46.5331 29.9333 45.7664 30.1999 45.1664C30.2999 44.9997 30.0666 44.8664 29.9999 44.9997Z" fill="#202124"/>
<path d="M53.6666 49.1333C53.4666 50 53.2666 51.0667 53.0666 52.3333C52.9999 52.7 52.8999 53.5 52.7999 54.4667C52.5999 56.3 52.5666 57.8 52.5333 59.0333C52.4333 63.3333 52.3666 66.5667 52.5333 70.2667C52.9999 81.4667 55.4666 94.7 55.8666 96.8667C65.7666 96.8667 75.6999 96.8667 85.5999 96.8667C86.2666 91.9667 86.6999 87.8 86.9666 84.6C87.4666 78.8667 87.9666 72.8 87.5999 64.9C87.4999 62.7 87.3666 60.8333 87.2333 59.5667C86.3999 58.9 85.2333 58.0333 83.7666 57.0667C81.9666 55.8667 79.2666 54.0667 75.4999 52.4333C73.6999 51.6667 70.4333 50.4 66.1666 49.6333C61.2999 48.7333 57.0333 48.7667 53.6666 49.1333Z" fill="white"/>
<path d="M52.5333 56.7338C51.5667 70.1671 53.2667 83.5671 55.7 96.7671C55.7333 96.9338 55.9667 96.8671 55.9333 96.7005C53.5 83.5338 51.8 70.1338 52.7667 56.7338C52.8 56.6005 52.5333 56.6005 52.5333 56.7338Z" fill="#202124"/>
<path d="M53.3 49.2666C64.8 48.0333 76.5001 51.4 85.5667 58.5666C85.7001 58.6666 85.8667 58.5 85.7334 58.4C76.6001 51.1666 64.8667 47.7666 53.2667 49C53.1667 49.0333 53.1667 49.3 53.3 49.2666Z" fill="#202124"/>
<path d="M87.2666 62.267C88.1666 73.767 86.8666 85.267 85.4 96.7003C85.3666 96.867 85.6333 96.867 85.6666 96.7003C87.1333 85.3003 88.4333 73.8003 87.5333 62.267C87.5 62.1337 87.2666 62.1337 87.2666 62.267Z" fill="#202124"/>
<path d="M85.6666 58.2667C84.9666 58.8 84.2666 59.4 83.5666 60.1333C80.1333 63.6667 78.7666 67.7667 78.1666 70.4667C78.8 71.9667 79.4333 73.4667 80.0666 74.9667C83.3 82.5333 86.6333 89.8 90.0333 96.8667C92.1666 96.8667 94.3 96.8667 96.4 96.8667C96.4 91.1333 96.4 85.4333 96.4 79.7C95.1666 76.4667 94.0666 73.8 93.2333 71.8667C91.9333 68.8667 91.2 67.1667 90 65C88.4 62.0333 86.8 59.7667 85.6666 58.2667Z" fill="white"/>
<path d="M78.0333 70.5C81.6333 79.1333 85.4667 87.6333 89.6 96.0333C89.6667 96.1667 89.9 96.0667 89.8 95.9C85.6667 87.5333 81.8333 79.0333 78.2667 70.4333C78.2 70.2667 77.9667 70.3333 78.0333 70.5Z" fill="#202124"/>
<path d="M85.5667 58.3671C90.4667 64.7004 93.3333 72.2004 96.1333 79.6337C96.2 79.767 96.4333 79.7337 96.3667 79.567C93.5667 72.1004 90.6667 64.5671 85.7333 58.2004C85.6667 58.0671 85.4667 58.2337 85.5667 58.3671Z" fill="#202124"/>
<path d="M63.4001 44.1997C62.8334 44.7997 62.5667 45.4664 62.4667 45.7997C62.3334 46.1664 61.8001 47.733 62.4334 49.4664C62.5334 49.733 62.8001 50.3997 63.3667 51.0664C64.2667 52.0997 65.3001 52.4997 65.5334 52.5664C66.6667 52.9664 67.6667 52.833 68.1334 52.7664C68.2001 52.933 68.3001 53.133 68.3667 53.2997C68.3001 53.2997 67.9001 53.333 67.6667 53.6664C67.4001 54.033 67.5667 54.4664 67.6334 54.5997C67.8334 55.1664 68.4001 55.3997 68.5001 55.433C69.2001 55.733 69.9001 55.3997 70.2334 55.2664C71.6334 54.633 72.2001 53.1664 72.3334 52.733C72.2001 52.433 72.0667 52.133 71.9001 51.7997C71.7001 51.3664 71.4667 50.9664 71.2334 50.5997C71.3667 50.1664 71.5667 49.533 71.8001 48.733C72.3001 47.033 72.3334 46.833 72.3334 46.633C72.3334 45.033 70.5001 43.833 70.2667 43.6997C68.1667 42.3664 65.0001 42.4997 63.4001 44.1997Z" fill="white"/>
<path d="M62.9666 44.5996C63.0999 44.4663 63.3333 44.2996 63.6 44.0996C63.8666 43.933 64.6 43.5663 66.1 43.5996C67.0666 43.633 68.7333 43.6663 70.2333 44.7996C70.6333 45.0996 71.1333 45.4996 71.4999 46.1996C72.0999 47.3996 71.8 48.5996 71.7 48.9996C71.8666 48.6996 72.0333 48.3663 72.2 48.0663C72.3333 48.333 72.6666 48.933 73.3333 49.3663C73.4333 49.433 73.8666 49.6996 74.6333 49.8663C75.0999 49.9663 75.8333 50.0663 77.0666 49.8663C78.0333 49.6996 79.3666 49.4663 80.7999 48.4663C81.2666 48.133 82.2666 47.433 83.0333 46.0996C83.9 44.5996 83.9333 43.1663 83.9666 42.4996C83.9999 40.333 83.1666 38.7996 82.9333 38.333C82.5333 37.633 81.5333 35.833 79.3999 35.0663C78.7333 34.833 77.2999 34.2996 75.8999 34.833C75.4666 34.9996 74.9666 35.2663 74.1333 35.3663C73.6666 35.3996 73.1333 35.4663 72.6666 35.1996C72.0333 34.833 72.1 34.2663 71.6 33.933C70.8 33.3996 69.5666 34.033 69.2999 34.1663C68.2999 34.6996 67.8999 35.633 67.6666 36.0996C67.0333 37.533 67.2666 38.8996 67.3999 39.4996C66.8999 39.3996 66.1333 39.333 65.2666 39.4996C64.7333 39.5996 63.5999 39.833 62.6666 40.7996C62.2333 41.233 61.7 41.7663 61.7 42.5996C61.7333 43.833 62.8666 44.533 62.9666 44.5996Z" fill="#202124"/>
<path d="M63.3333 44.1C61.5 46.4333 61.5666 49.8 63.9333 51.7667C66.3 53.7667 69.6 53.0333 71.3666 50.6667C71.4666 50.5333 71.2333 50.4 71.1666 50.5333C69.4666 52.7667 66.3333 53.4667 64.1 51.5333C61.9 49.6333 61.7333 46.5 63.5333 44.2667C63.6 44.1667 63.4333 43.9667 63.3333 44.1Z" fill="#202124"/>
<path d="M68 52.7663C68.1666 53.1663 68.3333 53.533 68.5666 53.8996C68.6666 54.033 68.8666 53.8996 68.7666 53.7663C68.5666 53.433 68.3666 53.0663 68.2333 52.6996C68.2 52.5663 67.9666 52.633 68 52.7663Z" fill="#202124"/>
<path d="M67.6334 53.4333C67 54.5333 67.8334 55.7 69.0667 55.5333C70.5667 55.3333 71.8334 54.1333 72.4334 52.8C72.5 52.6667 72.2667 52.5333 72.2334 52.6667C71.9 53.4333 71.4334 54.0667 70.7334 54.5333C70.3667 54.8 70 55 69.5667 55.1333C69.3 55.2333 69.0334 55.2667 68.7667 55.3C67.7667 54.9 67.4667 54.3 67.8667 53.5667C67.9334 53.4333 67.7 53.3 67.6334 53.4333Z" fill="#202124"/>
<path d="M62.9999 44.4995C61.7999 43.1662 61.6999 42.0329 62.6666 41.0329C62.8999 40.8329 63.0999 40.6329 63.3333 40.4329C63.8333 40.0995 64.4333 39.8329 65.0333 39.6995C66.5999 39.3329 68.0666 39.8995 69.1333 41.0662C70.5333 42.5995 71.0999 44.6662 72.4333 46.2329C72.5333 46.3662 72.6999 46.1662 72.5999 46.0662C70.3999 43.4662 69.4333 38.4662 64.9666 39.4329C63.5999 39.7329 62.1999 40.6662 61.7333 42.0329C61.3333 43.1662 61.6666 44.3995 62.9333 44.6662C63.0999 44.7662 63.1666 44.5329 62.9999 44.4995Z" fill="#202124"/>
<path d="M63.6334 44.2663C66.4667 43.1996 72.9 44.1996 71.6 48.6663C71.5667 48.8329 71.8 48.8996 71.8334 48.7329C73.1667 44.1329 66.6334 42.8996 63.5667 44.0329C63.4334 44.0663 63.5 44.2996 63.6334 44.2663Z" fill="#202124"/>
<path d="M72.4666 46.2667C72.4333 47.1333 72.2 47.9333 71.7 48.6667C71.6 48.8 71.8333 48.9333 71.9 48.8C72.4 48.0333 72.6666 47.1667 72.7 46.2667C72.7333 46.1 72.4666 46.1 72.4666 46.2667Z" fill="#202124"/>
<path d="M65.0667 44.9334C64.5333 45.6334 62.9333 48.5334 64.6667 48.7667C64.8333 48.8 64.8333 48.5334 64.6667 48.5C63.8333 48.4 64.3 46.9667 64.4667 46.5334C64.6667 46 64.9333 45.5334 65.2667 45.1C65.3333 45 65.1667 44.8334 65.0667 44.9334Z" fill="#202124"/>
<path d="M64.7001 49.9333C65.5001 50.1 66.3334 49.8 66.8334 49.1667C66.9334 49.0333 66.7667 48.8667 66.6667 49C66.2001 49.5667 65.5001 49.8333 64.7667 49.7C64.6001 49.6667 64.5334 49.9 64.7001 49.9333Z" fill="#202124"/>
<path d="M67.6334 39.7666C67.0667 37.8 67.6 35.0333 69.7 34.1333C71.8667 33.1666 71.5 34.9 72.8 35.4666C73.8667 35.9333 74.9334 35.3 75.9667 35.0333C77.9667 34.5666 80.0334 35.2333 81.5 36.6333C84.2334 39.2666 84.7667 44.1333 82.2667 47.1C80.1667 49.5666 74.3667 51.6333 72.3667 48.0333C72.3 47.9 72.0667 48.0333 72.1667 48.1666C73.9667 51.4333 78.9667 50.2 81.4 48.3C84.6334 45.7333 84.9 41 82.6667 37.6666C81.7 36.2 80.2334 35.1 78.5 34.7333C77.6334 34.5666 76.7667 34.5666 75.9 34.7666C75.3667 34.9 74.8334 35.2333 74.2667 35.2666C70.7334 35.5666 72.7334 34.5333 71.5334 33.6666C70.5 32.8999 69.0334 34.1666 68.3667 34.9C67.1334 36.2666 66.9 38.1 67.4 39.8333C67.4334 39.9666 67.6667 39.9 67.6334 39.7666Z" fill="#202124"/>
<path d="M66.4323 46.5387C66.4919 46.307 66.4393 46.093 66.3146 46.0607C66.1899 46.0287 66.0403 46.1903 65.9803 46.422C65.9206 46.6537 65.9733 46.8677 66.0979 46.9C66.2226 46.9323 66.3723 46.7703 66.4323 46.5387Z" fill="#202124"/>
<path d="M63.9297 46.3356C63.9897 46.104 63.937 45.89 63.812 45.8576C63.6874 45.8253 63.5377 45.9873 63.478 46.219C63.418 46.4506 63.4707 46.6646 63.5954 46.697C63.7204 46.729 63.87 46.5673 63.9297 46.3356Z" fill="#202124"/>
<path d="M67.4666 39.7333C69.6666 40.2333 71.9666 41.2667 72.5333 43.6667C72.5666 43.8333 72.8 43.7667 72.7666 43.6C72.1666 41.1 69.8 40 67.5 39.4667C67.4 39.4333 67.3333 39.7 67.4666 39.7333Z" fill="white"/>
<path d="M32.7333 93.7338C35.9367 93.7338 38.5333 91.1371 38.5333 87.9338C38.5333 84.7305 35.9367 82.1338 32.7333 82.1338C29.5301 82.1338 26.9333 84.7305 26.9333 87.9338C26.9333 91.1371 29.5301 93.7338 32.7333 93.7338Z" fill="white" stroke="#202124" stroke-width="0.5" stroke-miterlimit="10"/>
<path d="M75.9 93.7338C79.1033 93.7338 81.7 91.1371 81.7 87.9338C81.7 84.7305 79.1033 82.1338 75.9 82.1338C72.6966 82.1338 70.1 84.7305 70.1 87.9338C70.1 91.1371 72.6966 93.7338 75.9 93.7338Z" fill="#86D0DA"/>
<path d="M54.3 94.3333C57.5033 94.3333 60.1 91.7363 60.1 88.5333C60.1 85.33 57.5033 82.7333 54.3 82.7333C51.0967 82.7333 48.5 85.33 48.5 88.5333C48.5 91.7363 51.0967 94.3333 54.3 94.3333Z" fill="white" stroke="#202124" stroke-width="0.5" stroke-miterlimit="10"/>
<path d="M67 83.9004C67.6333 83.9004 67.6333 82.9004 67 82.9004C66.3333 82.9004 66.3333 83.9004 67 83.9004Z" fill="white"/>
<path d="M76.6667 84.9004H76.6H75.7667H74.5334C74.1667 84.9004 73.8667 85.2004 73.8667 85.5671V85.8337V86.8004H75.1V86.5004H75.7667V89.7671H75.2V89.4004H74V89.9337V90.6004V91.2004C74 91.3004 74.0667 91.3671 74.1667 91.3671H76.3C76.5334 91.3671 76.7334 91.3004 76.9334 91.1671C77.4334 90.9337 77.8 90.4004 77.8 89.8004V86.0004C77.7667 85.4004 77.2667 84.9004 76.6667 84.9004Z" fill="white"/>
<path d="M56.5666 87.9333H51.8333C51.4999 87.9333 51.2333 87.6667 51.2333 87.3333C51.2333 87 51.4999 86.7333 51.8333 86.7333H56.5666C56.8999 86.7333 57.1666 87 57.1666 87.3333C57.1666 87.6333 56.8999 87.9333 56.5666 87.9333Z" fill="#202124"/>
<path d="M56.5999 90.7H51.8333C51.4999 90.7 51.2333 90.4333 51.2333 90.1C51.2333 89.7667 51.4999 89.5 51.8333 89.5H56.5999C56.9333 89.5 57.1999 89.7667 57.1999 90.1C57.1999 90.4 56.9333 90.7 56.5999 90.7Z" fill="#202124"/>
<path d="M32.6 91.1C34.2937 91.1 35.6667 89.727 35.6667 88.0333C35.6667 86.3397 34.2937 84.9667 32.6 84.9667C30.9063 84.9667 29.5333 86.3397 29.5333 88.0333C29.5333 89.727 30.9063 91.1 32.6 91.1Z" fill="#86D0DA" stroke="#86D0DA" stroke-miterlimit="10"/>
</svg>
