<svg width="58" height="58" viewBox="0 0 58 58" fill="none" xmlns="http://www.w3.org/2000/svg">
<path d="M53 23.85V49.85C52.9974 50.3973 52.7782 50.9213 52.3902 51.3073C52.0023 51.6933 51.4773 51.9101 50.93 51.91H6.63005C6.08185 51.9101 5.5558 51.6937 5.16629 51.3079C4.77679 50.9222 4.55532 50.3982 4.55005 49.85V23.85C4.55005 23.2984 4.76919 22.7693 5.15927 22.3793C5.54934 21.9892 6.0784 21.77 6.63005 21.77H30.33V44.63H36.5601V21.77H38.71V44.63H45.43V21.77H50.92C51.1936 21.7687 51.4646 21.8216 51.7176 21.9257C51.9705 22.0297 52.2004 22.1829 52.3938 22.3763C52.5872 22.5697 52.7404 22.7995 52.8444 23.0525C52.9485 23.3055 53.0014 23.5765 53 23.85Z" stroke="black" stroke-linecap="round" stroke-linejoin="round"/>
<path d="M20.2299 32.2002H13.9399V44.6302H20.2299V32.2002Z" stroke="black" stroke-linecap="round" stroke-linejoin="round"/>
<path d="M28.1301 26.3398H22.5601V44.6298H28.1301V26.3398Z" stroke="black" stroke-linecap="round" stroke-linejoin="round"/>
<path d="M45.43 5.62012H38.71V44.6301H45.43V5.62012Z" stroke="black" stroke-linecap="round" stroke-linejoin="round"/>
<path d="M38.7101 44.6299H36.5601" stroke="black" stroke-linecap="round" stroke-linejoin="round"/>
<path d="M48.5599 44.6299H45.4299" stroke="black" stroke-linecap="round" stroke-linejoin="round"/>
<path d="M30.3299 44.6299H27.9799H22.4199H19.5599H13.2799H10.1299" stroke="black" stroke-linecap="round" stroke-linejoin="round"/>
<path d="M36.5601 19.3398H30.3301V44.6198H36.5601V19.3398Z" stroke="black" stroke-linecap="round" stroke-linejoin="round"/>
</svg>
