<svg width="70" height="60" viewBox="0 0 70 60" fill="none" xmlns="http://www.w3.org/2000/svg">
<g clip-path="url(#clip0_92_12693)">
<path d="M21.0987 8.20466C24.6966 6.5444 28.7107 5.6064 32.9648 5.6064C48.114 5.6064 60.4355 17.4745 60.4355 32.0819C60.4355 32.3912 60.4355 32.6852 60.4085 32.9826H61.8082C61.8351 32.6852 61.8351 32.3912 61.8351 32.0819C61.8351 16.7404 48.8858 4.26392 32.9648 4.26392C28.3496 4.26392 23.9639 5.32258 20.1028 7.18847L20.6381 7.71184L20.8747 7.93788C20.9565 8.02114 21.0436 8.11121 21.0987 8.20466Z" fill="black"/>
<path d="M5.50135 32.082C5.50135 27.832 6.53465 23.8198 8.40028 20.2512C8.32916 20.2139 8.27402 20.1561 8.21357 20.1034L7.89164 19.789L7.3492 19.2708C5.27727 23.1112 4.10168 27.4717 4.10168 32.082C4.10168 47.2671 16.8108 59.6638 32.5219 59.8897C32.4348 59.6893 32.3974 59.4597 32.3974 59.2338V58.5475C17.5275 58.2549 5.50135 46.4905 5.50135 32.082Z" fill="black"/>
<path d="M32.3975 50.2325C22.2743 49.9384 14.136 41.9007 14.136 32.0819C14.136 27.7231 15.7331 23.7246 18.3972 20.5859L17.412 19.6377C14.4864 23.0177 12.7363 27.3611 12.7363 32.0819C12.7363 42.6499 21.5025 51.281 32.3975 51.5732V50.2325Z" fill="black"/>
<path d="M50.7781 26.182H52.2597C49.6558 18.3073 41.9996 12.5806 32.9647 12.5806C28.2073 12.5806 23.8429 14.1626 20.3979 16.8034L21.4046 17.772C24.5987 15.3573 28.6128 13.9213 32.9647 13.9213C41.2135 13.9213 48.2453 19.0465 50.7781 26.182Z" fill="black"/>
<path d="M30.8662 43.6204V42.2527C25.9433 41.2993 22.2139 37.1019 22.2139 32.0821C22.2139 29.8713 22.9306 27.8321 24.1613 26.1395L23.1653 25.176C21.6839 27.1048 20.8142 29.494 20.8142 32.0821C20.8142 37.8512 25.1733 42.6501 30.8662 43.6204Z" fill="black"/>
<path d="M42.3073 26.9567C42.5847 26.5965 43.0062 26.345 43.4827 26.2345C41.3985 22.7339 37.4609 20.3718 32.9648 20.3718C30.4607 20.3718 28.1255 21.1093 26.1781 22.3736L27.1847 23.3525C28.8636 22.321 30.8555 21.7126 32.9648 21.7126C36.9735 21.7126 40.4574 23.835 42.3073 26.9567Z" fill="black"/>
<path d="M32.4793 32.2555C32.6109 32.3863 32.7905 32.4492 32.9719 32.4492C33.1515 32.4492 33.3258 32.3863 33.4681 32.2555C33.742 31.9937 33.742 31.5689 33.4681 31.3072L13.7482 12.2968L4.94295 3.81379C4.66905 3.54698 4.22621 3.54698 3.95411 3.80867C3.67489 4.07038 3.67489 4.49519 3.94876 4.7569L12.7416 13.2349L32.4793 32.2555Z" fill="black"/>
<path d="M17.5986 14.11L18.7849 15.2469L20.0761 9.49467C20.1134 9.26863 20.0476 9.03752 19.8787 8.87611L19.3256 8.34589L10.8777 0.199321C10.6963 0.0259895 10.4278 -0.041984 10.177 0.0259893C9.93692 0.104158 9.73949 0.292784 9.70037 0.534089L8.59595 5.44344L9.77154 6.57011L10.7888 2.0227L18.1019 9.0647L18.6159 9.56263L17.5986 14.11Z" fill="black"/>
<path d="M9.70043 19.3558C9.75557 19.3558 9.8 19.3558 9.85514 19.3388L15.8149 18.0915L14.6446 16.9649L9.9245 17.9454L9.33403 17.3744L2.09917 10.3953L6.81392 9.41475L5.64368 8.28809L0.546547 9.34679C0.306452 9.39946 0.0983698 9.5779 0.0272303 9.8192C-0.0439091 10.0435 0.0272303 10.3001 0.206857 10.4734L8.59065 18.5538L9.20957 19.1502C9.33403 19.2862 9.52079 19.3558 9.70043 19.3558Z" fill="black"/>
<path d="M57.6127 34.3251H44.6582V28.86H57.6127V34.3251ZM68.6004 46.6741H55.8309V48.0167H67.069V58.5574H35.2022V48.0167H46.4351V46.6741H33.6655V35.6658H43.9417C43.947 35.6658 43.9522 35.6658 43.9578 35.6658H58.3134C58.319 35.6658 58.3243 35.6658 58.3295 35.6658H68.6004V46.6741ZM69.3012 34.3251H59.0142V28.1888C59.0142 27.8167 58.696 27.5176 58.3134 27.5176H43.9578C43.57 27.5176 43.2586 27.8167 43.2586 28.1888V34.3251H32.9648C32.5931 34.3251 32.2659 34.6344 32.2659 34.9946V47.3452C32.2659 47.7122 32.5931 48.0167 32.9648 48.0167H33.8025V59.2289C33.8025 59.6008 34.1137 59.9 34.5032 59.9H67.7698C68.1576 59.9 68.4687 59.6008 68.4687 59.2289V48.0167H69.3012C69.6886 48.0167 70.0001 47.7122 70.0001 47.3452V34.9946C70.0001 34.6344 69.6886 34.3251 69.3012 34.3251Z" fill="black"/>
<path d="M51.6746 49.6515H50.5965C49.8479 49.6515 49.2415 49.0685 49.2415 48.3515V44.8204H53.0316V48.3515C53.0316 49.0685 52.4233 49.6515 51.6746 49.6515ZM53.7304 43.4778H48.5407C48.1529 43.4778 47.84 43.7819 47.84 44.1489V48.3515C47.84 49.8078 49.076 50.9922 50.5965 50.9922H51.6746C53.1952 50.9922 54.4312 49.8078 54.4312 48.3515V44.1489C54.4312 43.7819 54.1198 43.4778 53.7304 43.4778Z" fill="black"/>
</g>
<defs>
<clipPath id="clip0_92_12693">
<rect width="70" height="60" fill="white"/>
</clipPath>
</defs>
</svg>
