<svg width="64" height="64" viewBox="0 0 64 64" fill="none" xmlns="http://www.w3.org/2000/svg">
<path d="M25.57 48.75C25.5708 49.0187 25.5269 49.2857 25.44 49.54L22.3 59C22.2102 59.3271 22.0548 59.6326 21.8432 59.8977C21.6316 60.1629 21.3682 60.3822 21.0691 60.5423C20.77 60.7024 20.4415 60.8 20.1035 60.8291C19.7655 60.8582 19.4251 60.8182 19.1031 60.7115C18.7811 60.6049 18.4841 60.4338 18.2303 60.2087C17.9765 59.9836 17.7712 59.7092 17.6268 59.4022C17.4824 59.0952 17.4021 58.762 17.3906 58.4229C17.3791 58.0839 17.4367 57.7461 17.56 57.43L20.69 48H25.45C25.5302 48.2419 25.5708 48.4952 25.57 48.75Z" stroke="black" stroke-linecap="round" stroke-linejoin="round"/>
<path d="M45.5699 58.2502C45.5594 58.8396 45.341 59.4063 44.9533 59.8502C44.5655 60.2942 44.0334 60.5869 43.4508 60.6766C42.8682 60.7663 42.2727 60.6473 41.7693 60.3406C41.266 60.0338 40.8872 59.5591 40.6999 59.0002L37.5599 49.5102C37.3951 49.0101 37.3951 48.4703 37.5599 47.9702H42.3199L45.4499 57.4302C45.5367 57.6946 45.5773 57.972 45.5699 58.2502Z" stroke="black" stroke-linecap="round" stroke-linejoin="round"/>
<path d="M55 11H8V14.29H55V11Z" stroke="black" stroke-linecap="round" stroke-linejoin="round"/>
<path d="M55 44.71H8V48H55V44.71Z" stroke="black" stroke-linecap="round" stroke-linejoin="round"/>
<path d="M54.0799 14.29H8.91992V44.71H54.0799V14.29Z" stroke="black" stroke-linecap="round" stroke-linejoin="round"/>
<path d="M17 32H13V40H17V32Z" stroke="black" stroke-linecap="round" stroke-linejoin="round"/>
<path d="M24 34.29H20V40H24V34.29Z" stroke="black" stroke-linecap="round" stroke-linejoin="round"/>
<path d="M31 32.5698H27V39.9998H31V32.5698Z" stroke="black" stroke-linecap="round" stroke-linejoin="round"/>
<path d="M38 36.5698H34V39.9998H38V36.5698Z" stroke="black" stroke-linecap="round" stroke-linejoin="round"/>
<path d="M41.5 32.5H48.5" stroke="black" stroke-linecap="round" stroke-linejoin="round"/>
<path d="M41.5 30.5H51.5" stroke="black" stroke-linecap="round" stroke-linejoin="round"/>
<path d="M41.5 28.5H46.5" stroke="black" stroke-linecap="round" stroke-linejoin="round"/>
<path d="M41.5 26.5H51.5" stroke="black" stroke-linecap="round" stroke-linejoin="round"/>
<path d="M15 26L18 23" stroke="black" stroke-linecap="round" stroke-linejoin="round"/>
<path d="M22.5 24.5L21 23" stroke="black" stroke-linecap="round" stroke-linejoin="round"/>
<path d="M25.5 24.5L27 22.5" stroke="black" stroke-linecap="round" stroke-linejoin="round"/>
<path d="M31.71 26.4301L29.5 23" stroke="black" stroke-linecap="round" stroke-linejoin="round"/>
<path d="M31.71 26.43L37.5 20" stroke="black" stroke-linecap="round" stroke-linejoin="round"/>
<path d="M13.71 29.0001C14.6544 29.0001 15.42 28.2345 15.42 27.2901C15.42 26.3457 14.6544 25.5801 13.71 25.5801C12.7656 25.5801 12 26.3457 12 27.2901C12 28.2345 12.7656 29.0001 13.71 29.0001Z" stroke="black" stroke-linecap="round" stroke-linejoin="round"/>
<path d="M19.71 23.0001C20.6544 23.0001 21.42 22.2345 21.42 21.2901C21.42 20.3457 20.6544 19.5801 19.71 19.5801C18.7656 19.5801 18 20.3457 18 21.2901C18 22.2345 18.7656 23.0001 19.71 23.0001Z" stroke="black" stroke-linecap="round" stroke-linejoin="round"/>
<path d="M24 27.2799C24.9444 27.2799 25.71 26.5143 25.71 25.5699C25.71 24.6255 24.9444 23.8599 24 23.8599C23.0556 23.8599 22.29 24.6255 22.29 25.5699C22.29 26.5143 23.0556 27.2799 24 27.2799Z" stroke="black" stroke-linecap="round" stroke-linejoin="round"/>
<path d="M28.2901 23.0001C29.2345 23.0001 30.0001 22.2345 30.0001 21.2901C30.0001 20.3457 29.2345 19.5801 28.2901 19.5801C27.3457 19.5801 26.5801 20.3457 26.5801 21.2901C26.5801 22.2345 27.3457 23.0001 28.2901 23.0001Z" stroke="black" stroke-linecap="round" stroke-linejoin="round"/>
<path d="M38.5701 20.42C39.5145 20.42 40.2801 19.6544 40.2801 18.71C40.2801 17.7656 39.5145 17 38.5701 17C37.6257 17 36.8601 17.7656 36.8601 18.71C36.8601 19.6544 37.6257 20.42 38.5701 20.42Z" stroke="black" stroke-linecap="round" stroke-linejoin="round"/>
</svg>
