<svg width="75" height="75" viewBox="0 0 75 75" fill="none" xmlns="http://www.w3.org/2000/svg">
<path d="M41.0156 18.75H36.3281M31.6406 18.75H17.3672C15.9209 18.75 14.5337 19.3237 13.5098 20.3453C12.486 21.367 11.9093 22.753 11.9062 24.1992V54.6679C11.902 55.0612 11.9373 55.4538 12.0117 55.8398C12.2742 57.0659 12.949 58.165 13.9234 58.954C14.8979 59.7428 16.1133 60.1741 17.3672 60.1758H59.3906C60.6445 60.1741 61.8599 59.7428 62.8344 58.954C63.8088 58.165 64.4835 57.0659 64.746 55.8398C64.8205 55.4538 64.8558 55.0612 64.8516 54.6679V24.1992C64.8484 22.753 64.2718 21.367 63.2479 20.3453C62.2241 19.3237 60.8369 18.75 59.3906 18.75H44.5312H31.6406ZM52.7343 26.9531C53.356 26.9531 53.952 27.2 54.3917 27.6395C54.8312 28.0792 55.0781 28.6752 55.0781 29.2969C55.0781 29.9185 54.8312 30.5146 54.3917 30.9541C53.952 31.3936 53.356 31.6406 52.7343 31.6406C52.1618 31.6433 51.6094 31.4299 51.1875 31.0429C50.9389 30.8246 50.7394 30.5562 50.6021 30.2553C50.4648 29.9543 50.3927 29.6277 50.3906 29.2969C50.3906 28.6752 50.6376 28.0792 51.0771 27.6395C51.5166 27.2 52.1128 26.9531 52.7343 26.9531ZM38.6718 30.4688C39.2192 30.4713 39.7484 30.6653 40.1677 31.0173C40.587 31.3691 40.8698 31.8567 40.9673 32.3954C41.0647 32.934 40.9706 33.4897 40.7012 33.9661C40.4317 34.4426 40.0039 34.8098 39.4922 35.0039C39.2314 35.1082 38.9527 35.16 38.6718 35.1562C38.0503 35.1562 37.4541 34.9094 37.0146 34.4697C36.5751 34.0302 36.3281 33.434 36.3281 32.8125C36.3281 32.191 36.5751 31.5948 37.0146 31.1553C37.4541 30.7156 38.0503 30.4688 38.6718 30.4688ZM31.3359 36.8671C31.7478 36.5167 32.2717 36.3255 32.8125 36.3281C33.1635 36.3284 33.5102 36.4075 33.8265 36.5595C34.143 36.7117 34.4212 36.933 34.6406 37.2071C34.9739 37.6226 35.1558 38.1391 35.1562 38.6719C35.1562 39.2935 34.9093 39.8896 34.4698 40.3291C34.0303 40.7686 33.4341 41.0156 32.8125 41.0156C32.1909 41.0156 31.5947 40.7686 31.1552 40.3291C30.7157 39.8896 30.4687 39.2935 30.4687 38.6719C30.471 38.3257 30.55 37.9844 30.6999 37.6722C30.8499 37.3602 31.0671 37.0853 31.3359 36.8671ZM26.9531 30.4688C27.5747 30.4688 28.1709 30.7156 28.6104 31.1553C29.05 31.5948 29.2968 32.191 29.2968 32.8125C29.2968 33.434 29.05 34.0302 28.6104 34.4697C28.1709 34.9094 27.5747 35.1562 26.9531 35.1562C26.3314 35.1562 25.7354 34.9094 25.2958 34.4697C24.8563 34.0302 24.6093 33.434 24.6093 32.8125C24.6093 32.191 24.8563 31.5948 25.2958 31.1553C25.7354 30.7156 26.3314 30.4688 26.9531 30.4688Z" stroke="black" stroke-linecap="round" stroke-linejoin="round"/>
<path d="M64.8515 49.9805H11.9061V55.7696H64.8515V49.9805Z" stroke="black" stroke-linecap="round" stroke-linejoin="round"/>
<path d="M28.125 64.4528H15.5273C12.457 64.4528 9.96094 62.5076 9.96094 60.1051V55.7693H66.7969V60.1051C66.7969 62.5076 64.3008 64.4528 61.2304 64.4528H33.9844" stroke="black" stroke-linecap="round" stroke-linejoin="round"/>
<path d="M46.465 55.7693H27.5157V60.1168H46.465V55.7693Z" stroke="black" stroke-linecap="round" stroke-linejoin="round"/>
<path d="M25.3008 34.4651L20.4023 39.3635" stroke="black" stroke-linecap="round" stroke-linejoin="round"/>
<path d="M31.3361 36.8671L28.9806 33.9844" stroke="black" stroke-linecap="round" stroke-linejoin="round"/>
<path d="M37.5585 34.8752L34.6406 37.2073" stroke="black" stroke-linecap="round" stroke-linejoin="round"/>
<path d="M43.3595 39.8436L39.4922 35.0037" stroke="black" stroke-linecap="round" stroke-linejoin="round"/>
<path d="M43.3594 39.8439L51.1718 31.0547" stroke="black" stroke-linecap="round" stroke-linejoin="round"/>
<path d="M18.7499 43.3594C20.0443 43.3594 21.0938 42.3101 21.0938 41.0156C21.0938 39.7212 20.0443 38.6719 18.7499 38.6719C17.4556 38.6719 16.4061 39.7212 16.4061 41.0156C16.4061 42.3101 17.4556 43.3594 18.7499 43.3594Z" stroke="black" stroke-linecap="round" stroke-linejoin="round"/>
<path d="M29.2969 32.8124C29.2969 33.434 29.0499 34.0302 28.6104 34.4697C28.1708 34.9093 27.5747 35.1561 26.9531 35.1561C26.3315 35.1561 25.7353 34.9093 25.2958 34.4697C24.8563 34.0302 24.6094 33.434 24.6094 32.8124C24.6094 32.1909 24.8563 31.5947 25.2958 31.1552C25.7353 30.7156 26.3315 30.4688 26.9531 30.4688C27.5747 30.4688 28.1708 30.7156 28.6104 31.1552C29.0499 31.5947 29.2969 32.1909 29.2969 32.8124Z" stroke="black" stroke-linecap="round" stroke-linejoin="round"/>
<path d="M35.1562 38.672C35.1562 39.2935 34.9094 39.8897 34.4698 40.3292C34.0303 40.7688 33.4341 41.0157 32.8126 41.0157C32.191 41.0157 31.5948 40.7688 31.1553 40.3292C30.7157 39.8897 30.4689 39.2935 30.4689 38.672C30.4711 38.3257 30.55 37.9844 30.7 37.6724C30.8499 37.3603 31.0671 37.0854 31.336 36.8673C31.748 36.5169 32.2717 36.3256 32.8126 36.3282C33.1637 36.3284 33.5102 36.4075 33.8267 36.5597C34.1431 36.7117 34.4212 36.9331 34.6406 37.2072C34.9741 37.6227 35.1558 38.1393 35.1562 38.672Z" stroke="black" stroke-linecap="round" stroke-linejoin="round"/>
<path d="M41.0156 32.8124C41.0148 33.2893 40.8685 33.7546 40.5963 34.1462C40.3241 34.5377 39.9389 34.8369 39.4922 35.0038C39.2314 35.1081 38.9527 35.1599 38.6719 35.1561C38.0503 35.1561 37.4542 34.9093 37.0146 34.4697C36.5751 34.0302 36.3281 33.434 36.3281 32.8124C36.3281 32.1909 36.5751 31.5947 37.0146 31.1552C37.4542 30.7156 38.0503 30.4688 38.6719 30.4688C39.2935 30.4688 39.8897 30.7156 40.3292 31.1552C40.7687 31.5947 41.0156 32.1909 41.0156 32.8124Z" stroke="black" stroke-linecap="round" stroke-linejoin="round"/>
<path d="M55.0781 29.2969C55.0781 29.9185 54.8312 30.5147 54.3917 30.9542C53.9522 31.3937 53.356 31.6406 52.7344 31.6406C52.162 31.6434 51.6096 31.4299 51.1875 31.0429C50.9389 30.8246 50.7394 30.5563 50.6021 30.2553C50.4648 29.9544 50.3927 29.6278 50.3906 29.2969C50.3906 28.6753 50.6376 28.0792 51.0771 27.6396C51.5167 27.2001 52.1128 26.9531 52.7344 26.9531C53.356 26.9531 53.9522 27.2001 54.3917 27.6396C54.8312 28.0792 55.0781 28.6753 55.0781 29.2969Z" stroke="black" stroke-linecap="round" stroke-linejoin="round"/>
<path d="M51.5625 45.1172H57.3046" stroke="black" stroke-linecap="round" stroke-linejoin="round"/>
<path d="M51.5625 42.7734H59.7656" stroke="black" stroke-linecap="round" stroke-linejoin="round"/>
<path d="M51.5625 40.4297H55.664" stroke="black" stroke-linecap="round" stroke-linejoin="round"/>
<path d="M51.5625 38.0859H59.7656" stroke="black" stroke-linecap="round" stroke-linejoin="round"/>
</svg>
