<svg width="70" height="70" viewBox="0 0 70 70" fill="none" xmlns="http://www.w3.org/2000/svg">
<path d="M54.0969 22.7393V34.0158C54.0969 35.2632 53.6013 36.4595 52.7193 37.3415C51.8373 38.2235 50.6411 38.7189 49.3938 38.7189H45.5985V29.258C45.5985 27.7844 45.013 26.3712 43.9711 25.3291C42.9291 24.2871 41.5158 23.7018 40.0422 23.7018H23.4719V22.7393C23.4748 21.4928 23.9712 20.2982 24.8526 19.4169C25.734 18.5355 26.9285 18.0391 28.1751 18.0361H49.3938C50.6411 18.0361 51.8373 18.5317 52.7193 19.4137C53.6013 20.2957 54.0969 21.4919 54.0969 22.7393Z" stroke="black" stroke-miterlimit="10"/>
<path d="M40.0424 23.7014H14.9408C13.4672 23.7014 12.0539 24.2868 11.0119 25.3288C9.96991 26.3708 9.38452 27.7841 9.38452 29.2577V42.6561C9.40467 44.1154 9.99929 45.5079 11.0394 46.5317C12.0795 47.5554 13.4813 48.1279 14.9408 48.1249C15.2214 48.125 15.4977 48.1938 15.7456 48.3253C15.9935 48.4568 16.2054 48.6471 16.3627 48.8795L20.5408 55.1467C20.6951 55.3814 20.9053 55.5741 21.1526 55.7074C21.3998 55.8407 21.6763 55.9105 21.9572 55.9105C22.2381 55.9105 22.5146 55.8407 22.7618 55.7074C23.0089 55.5741 23.2193 55.3814 23.3736 55.1467L27.5517 48.8795C27.7058 48.6467 27.9155 48.4557 28.1618 48.324C28.4081 48.1922 28.6833 48.1239 28.9627 48.1249H40.0424C41.5017 48.1279 42.9035 47.5554 43.9437 46.5317C44.9838 45.5079 45.5785 44.1154 45.5986 42.6561V29.2577C45.5986 27.7841 45.0132 26.3708 43.9712 25.3288C42.9292 24.2868 41.516 23.7014 40.0424 23.7014ZM16.5705 39.1014C15.9808 39.1014 15.4044 38.9269 14.9139 38.5997C14.4233 38.2726 14.0406 37.8075 13.814 37.2631C13.5874 36.7188 13.5269 36.1196 13.6404 35.5409C13.7539 34.9623 14.036 34.4303 14.4514 34.0119C14.8669 33.5934 15.3969 33.3073 15.9746 33.1896C16.5524 33.072 17.152 33.128 17.698 33.3506C18.244 33.5733 18.7118 33.9526 19.0426 34.4407C19.3733 34.9289 19.552 35.504 19.5564 36.0936C19.5593 36.4876 19.4842 36.8783 19.3354 37.243C19.1866 37.6078 18.9672 37.9395 18.6896 38.2192C18.412 38.4988 18.0819 38.7207 17.7182 38.8721C17.3545 39.0235 16.9644 39.1014 16.5705 39.1014ZM27.9345 38.7077C27.4867 38.9692 26.9765 39.1051 26.458 39.1014C26.064 39.1014 25.6739 39.0235 25.3102 38.8721C24.9465 38.7207 24.6163 38.4988 24.3388 38.2192C24.0612 37.9395 23.8417 37.6078 23.693 37.243C23.5442 36.8783 23.4691 36.4876 23.472 36.0936C23.4722 35.7775 23.5239 35.4635 23.6252 35.1639C23.8488 34.4924 24.3039 33.9222 24.909 33.555C25.5142 33.1878 26.2302 33.0475 26.9291 33.1592C27.6281 33.2709 28.2646 33.6273 28.7252 34.1647C29.1858 34.7021 29.4405 35.3858 29.4439 36.0936C29.4495 36.6246 29.3124 37.1473 29.0469 37.6071C28.7813 38.0671 28.3972 38.4471 27.9345 38.7077ZM36.3564 39.1014C35.7682 39.095 35.1951 38.9149 34.7088 38.5839C34.2226 38.2528 33.845 37.7855 33.6234 37.2406C33.4018 36.6957 33.346 36.0975 33.4631 35.5211C33.5803 34.9446 33.8651 34.4157 34.2818 34.0005C34.6984 33.5853 35.2284 33.3025 35.8054 33.1874C36.3822 33.0723 36.9802 33.1303 37.5242 33.3539C38.0684 33.5774 38.5343 33.9567 38.8635 34.4442C39.1928 34.9316 39.3708 35.5054 39.3752 36.0936C39.3781 36.4903 39.3019 36.8837 39.1511 37.2507C39.0003 37.6176 38.7779 37.9509 38.4968 38.2309C38.2158 38.5109 37.8818 38.7322 37.5143 38.8816C37.1468 39.0311 36.7531 39.1058 36.3564 39.1014Z" stroke="black" stroke-miterlimit="10"/>
<path d="M19.5561 36.0938C19.5561 36.6845 19.381 37.2618 19.0529 37.7527C18.7248 38.2438 18.2585 38.6265 17.7128 38.8525C17.1672 39.0785 16.5669 39.1376 15.9876 39.0225C15.4085 38.9072 14.8764 38.6228 14.4588 38.2052C14.0412 37.7876 13.7568 37.2556 13.6416 36.6764C13.5264 36.0971 13.5855 35.4968 13.8115 34.9512C14.0376 34.4056 14.4203 33.9393 14.9113 33.6111C15.4024 33.283 15.9796 33.1079 16.5702 33.1079C17.3621 33.1079 18.1216 33.4225 18.6815 33.9825C19.2415 34.5425 19.5561 35.302 19.5561 36.0938Z" stroke="black" stroke-miterlimit="10"/>
<path d="M29.4438 36.0934C29.4454 36.6207 29.3065 37.1388 29.0412 37.5945C28.7758 38.0502 28.3938 38.4268 27.9344 38.6856C27.4865 38.9471 26.9764 39.0831 26.4579 39.0793C25.6659 39.0793 24.9064 38.7648 24.3465 38.2048C23.7865 37.6448 23.4719 36.8853 23.4719 36.0934C23.472 35.7772 23.5238 35.4632 23.6251 35.1637C23.8487 34.4922 24.3037 33.922 24.9089 33.5548C25.5141 33.1875 26.23 33.0473 26.9289 33.159C27.628 33.2707 28.2645 33.627 28.7251 34.1645C29.1857 34.7019 29.4404 35.3855 29.4438 36.0934Z" stroke="black" stroke-miterlimit="10"/>
<path d="M39.375 36.0938C39.375 36.6845 39.1999 37.2618 38.8719 37.7527C38.5438 38.2438 38.0774 38.6265 37.5318 38.8525C36.9862 39.0785 36.3858 39.1376 35.8065 39.0225C35.2274 38.9072 34.6953 38.6228 34.2777 38.2052C33.8601 37.7876 33.5757 37.2556 33.4606 36.6764C33.3454 36.0971 33.4045 35.4968 33.6304 34.9512C33.8565 34.4056 34.2392 33.9393 34.7302 33.6111C35.2213 33.283 35.7986 33.1079 36.3891 33.1079C37.1811 33.1079 37.9406 33.4225 38.5005 33.9825C39.0605 34.5425 39.375 35.302 39.375 36.0938Z" stroke="black" stroke-miterlimit="10"/>
</svg>
