<svg width="64" height="64" viewBox="0 0 64 64" fill="none" xmlns="http://www.w3.org/2000/svg">
<path d="M18.05 26.5098L17.24 38.3198L12.09 40.5798C11.7321 40.7352 11.3412 40.7995 10.9523 40.7668C10.5634 40.7341 10.1887 40.6055 9.86172 40.3924C9.53474 40.1794 9.26569 39.8886 9.07866 39.5461C8.89164 39.2036 8.79247 38.82 8.79004 38.4298V38.3498C8.79106 36.0354 9.4658 33.7714 10.7319 31.834C11.998 29.8967 13.8007 28.3698 15.92 27.4398L18.05 26.5098Z" stroke="black" stroke-miterlimit="10"/>
<path d="M51.6001 38.35V38.43C51.5976 38.8202 51.4985 39.2038 51.3115 39.5463C51.1244 39.8888 50.8554 40.1796 50.5284 40.3927C50.2014 40.6057 49.8267 40.7343 49.4378 40.767C49.049 40.7997 48.658 40.7354 48.3001 40.58L43.1501 38.32L42.3301 26.5L44.4701 27.44C46.5894 28.37 48.3921 29.8969 49.6582 31.8342C50.9243 33.7716 51.5991 36.0356 51.6001 38.35Z" stroke="black" stroke-miterlimit="10"/>
<path d="M43.1501 38.32L42.3301 26.5L41.8001 18.79C41.2701 11 36.2301 5 30.1901 5C24.1501 5 19.1201 11 18.5801 18.79L18.0501 26.51L17.2401 38.32L16.8701 43.61H43.5201L43.1501 38.32ZM30.1501 25.79C28.8626 25.79 27.6039 25.4082 26.5334 24.6929C25.4628 23.9775 24.6284 22.9608 24.1357 21.7713C23.6429 20.5817 23.514 19.2728 23.7652 18.01C24.0164 16.7471 24.6364 15.5872 25.5469 14.6767C26.4573 13.7663 27.6173 13.1463 28.8801 12.8951C30.1429 12.6439 31.4518 12.7728 32.6414 13.2655C33.8309 13.7583 34.8477 14.5927 35.563 15.6632C36.2783 16.7338 36.6601 17.9924 36.6601 19.28C36.6628 21.0005 35.9833 22.6518 34.7705 23.8721C33.5577 25.0924 31.9106 25.7821 30.1901 25.79H30.1501Z" stroke="black" stroke-miterlimit="10"/>
<path d="M36.6999 19.28C36.6999 20.5676 36.3181 21.8262 35.6028 22.8968C34.8875 23.9674 33.8708 24.8018 32.6812 25.2945C31.4917 25.7872 30.1827 25.9161 28.9199 25.6649C27.6571 25.4137 26.4971 24.7937 25.5867 23.8833C24.6762 22.9729 24.0562 21.8129 23.805 20.5501C23.5538 19.2872 23.6828 17.9783 24.1755 16.7888C24.6682 15.5992 25.5026 14.5825 26.5732 13.8672C27.6437 13.1518 28.9024 12.77 30.1899 12.77C31.0452 12.7687 31.8923 12.9362 32.6828 13.2629C33.4732 13.5896 34.1914 14.0691 34.7961 14.6738C35.4009 15.2786 35.8804 15.9968 36.2071 16.7872C36.5338 17.5776 36.7013 18.4248 36.6999 19.28Z" stroke="black" stroke-miterlimit="10"/>
<path d="M46.0001 45.3499V49.3499C46.0014 49.5779 45.9577 49.8039 45.8713 50.015C45.7849 50.226 45.6577 50.4179 45.497 50.5796C45.3362 50.7413 45.145 50.8697 44.9345 50.9572C44.7239 51.0448 44.4981 51.0899 44.2701 51.0899H16.1001C15.6386 51.0899 15.1961 50.9065 14.8697 50.5802C14.5434 50.2539 14.3601 49.8113 14.3601 49.3499V45.3499C14.3601 44.8884 14.5434 44.4458 14.8697 44.1195C15.1961 43.7932 15.6386 43.6099 16.1001 43.6099H44.2901C44.7472 43.6151 45.1836 43.8011 45.504 44.1271C45.8244 44.4532 46.0028 44.8928 46.0001 45.3499Z" stroke="black" stroke-miterlimit="10"/>
</svg>
