<svg width="71" height="71" viewBox="0 0 71 71" fill="none" xmlns="http://www.w3.org/2000/svg">
<path d="M24.4062 58.7969H7.76562V24.728C7.76562 25.3166 7.99938 25.8809 8.41549 26.297C8.83158 26.713 9.39593 26.9468 9.98438 26.9468H55.4688C56.0572 26.9468 56.6215 26.713 57.0376 26.297C57.4538 25.8809 57.6875 25.3166 57.6875 24.728V58.7969H31.0625" stroke="black" stroke-linecap="round" stroke-linejoin="round"/>
<path d="M55.4577 18.0825H9.99547C8.76396 18.0825 7.76562 19.0808 7.76562 20.3124V24.7277C7.76562 25.9592 8.76396 26.9575 9.99547 26.9575H55.4577C56.6892 26.9575 57.6875 25.9592 57.6875 24.7277V20.3124C57.6875 19.0808 56.6892 18.0825 55.4577 18.0825Z" stroke="black" stroke-linecap="round" stroke-linejoin="round"/>
<path d="M16.6406 35.5H12.2031V51.0312H16.6406V35.5Z" stroke="black" stroke-linecap="round" stroke-linejoin="round"/>
<path d="M24.4062 39.9375H19.9688V51.0312H24.4062V39.9375Z" stroke="black" stroke-linecap="round" stroke-linejoin="round"/>
<path d="M32.1719 36.6094H27.7344V51.0312H32.1719V36.6094Z" stroke="black" stroke-linecap="round" stroke-linejoin="round"/>
<path d="M39.9375 44.375H35.5V51.0312H39.9375V44.375Z" stroke="black" stroke-linecap="round" stroke-linejoin="round"/>
<path d="M43.8203 42.7109H51.5859" stroke="black" stroke-linecap="round" stroke-linejoin="round"/>
<path d="M43.8203 40.4922H54.9141" stroke="black" stroke-linecap="round" stroke-linejoin="round"/>
<path d="M43.8203 38.2734H49.3672" stroke="black" stroke-linecap="round" stroke-linejoin="round"/>
<path d="M43.8203 36.0547H54.9141" stroke="black" stroke-linecap="round" stroke-linejoin="round"/>
</svg>
