<svg width="72" height="72" viewBox="0 0 72 72" fill="none" xmlns="http://www.w3.org/2000/svg">
<path d="M46.5751 10.3049H22.2751C19.9513 10.3049 18.0676 12.1887 18.0676 14.5124V57.8474C18.0676 60.1712 19.9513 62.0549 22.2751 62.0549H46.5751C48.8988 62.0549 50.7826 60.1712 50.7826 57.8474V14.5124C50.7826 12.1887 48.8988 10.3049 46.5751 10.3049Z" stroke="#070606" stroke-linecap="round" stroke-linejoin="round"/>
<path d="M46.5751 10.3049H22.2639C21.1499 10.3079 20.0826 10.7525 19.2959 11.5413C18.5093 12.33 18.0676 13.3984 18.0676 14.5124V18.1799H50.7826V14.5124C50.7826 13.3965 50.3393 12.3263 49.5502 11.5372C48.7612 10.7482 47.691 10.3049 46.5751 10.3049Z" stroke="#070606" stroke-linecap="round" stroke-linejoin="round"/>
<path d="M18 52.875V55.524C17.9986 56.3572 18.1057 57.1827 18.3154 57.9531C18.5249 58.7235 18.833 59.4239 19.2218 60.0138C19.6105 60.6038 20.0723 61.0719 20.5808 61.3912C21.0892 61.7106 21.6342 61.875 22.1848 61.875H46.4291C46.9805 61.8773 47.5268 61.7145 48.0365 61.3961C48.5462 61.0777 49.0094 60.6101 49.3993 60.0199C49.7893 59.4296 50.0983 58.7286 50.3087 57.9571C50.5189 57.1855 50.6265 56.3587 50.625 55.524V52.875H18Z" stroke="#070606" stroke-linecap="round" stroke-linejoin="round"/>
<path d="M34.875 59.625C36.1177 59.625 37.125 58.6177 37.125 57.375C37.125 56.1323 36.1177 55.125 34.875 55.125C33.6323 55.125 32.625 56.1323 32.625 57.375C32.625 58.6177 33.6323 59.625 34.875 59.625Z" stroke="#070606" stroke-linecap="round" stroke-linejoin="round"/>
<path d="M29.1824 14.2424H39.6674" stroke="#070606" stroke-linecap="round" stroke-linejoin="round"/>
</svg>
