<svg width="170" height="67" viewBox="0 0 170 67" fill="none" xmlns="http://www.w3.org/2000/svg">
<mask id="path-1-outside-1_96_770" maskUnits="userSpaceOnUse" x="-1" y="-1" width="172" height="69" fill="black">
<rect fill="white" x="-1" y="-1" width="172" height="69"/>
<path d="M25.12 66.26C20.74 66.26 16.36 65.72 11.98 64.64C7.66 63.56 3.88 62.03 0.64 60.05L7.12 46.64C9.64 48.32 12.43 49.61 15.49 50.51C18.61 51.41 21.64 51.86 24.58 51.86C27.64 51.86 30.07 51.29 31.87 50.15C33.67 49.01 34.57 47.39 34.57 45.29C34.57 43.43 33.82 41.96 32.32 40.88C30.82 39.74 28.36 39.17 24.94 39.17H17.47V27.92L34.39 9.65L36.1 15.77H3.88V2H49.42V13.16L32.5 31.43L23.77 26.48H28.63C36.49 26.48 42.43 28.25 46.45 31.79C50.53 35.27 52.57 39.77 52.57 45.29C52.57 48.89 51.58 52.28 49.6 55.46C47.68 58.64 44.71 61.25 40.69 63.29C36.67 65.27 31.48 66.26 25.12 66.26ZM85.2885 66.26C79.8285 66.26 75.0585 65.45 70.9785 63.83C66.8985 62.21 63.6885 59.93 61.3485 56.99C59.0685 53.99 57.9285 50.48 57.9285 46.46C57.9285 42.5 59.0685 39.14 61.3485 36.38C63.6885 33.56 66.8985 31.43 70.9785 29.99C75.1185 28.49 79.8885 27.74 85.2885 27.74C90.6885 27.74 95.4285 28.49 99.5085 29.99C103.649 31.43 106.859 33.56 109.139 36.38C111.479 39.14 112.649 42.5 112.649 46.46C112.649 50.48 111.509 53.99 109.229 56.99C106.949 59.93 103.739 62.21 99.5985 63.83C95.5185 65.45 90.7485 66.26 85.2885 66.26ZM85.2885 53.75C88.1685 53.75 90.4485 53.06 92.1285 51.68C93.8685 50.3 94.7385 48.38 94.7385 45.92C94.7385 43.52 93.8685 41.63 92.1285 40.25C90.4485 38.81 88.1685 38.09 85.2885 38.09C82.4085 38.09 80.0985 38.81 78.3585 40.25C76.6785 41.63 75.8385 43.52 75.8385 45.92C75.8385 48.38 76.6785 50.3 78.3585 51.68C80.0985 53.06 82.4085 53.75 85.2885 53.75ZM85.2885 36.56C80.3685 36.56 76.0185 35.87 72.2385 34.49C68.5185 33.11 65.5785 31.13 63.4185 28.55C61.2585 25.91 60.1785 22.76 60.1785 19.1C60.1785 15.32 61.2285 12.08 63.3285 9.38C65.4885 6.68 68.4585 4.58 72.2385 3.08C76.0185 1.52 80.3685 0.739996 85.2885 0.739996C90.2685 0.739996 94.6185 1.52 98.3385 3.08C102.119 4.58 105.059 6.68 107.159 9.38C109.319 12.08 110.399 15.32 110.399 19.1C110.399 22.76 109.319 25.91 107.159 28.55C105.059 31.13 102.119 33.11 98.3385 34.49C94.5585 35.87 90.2085 36.56 85.2885 36.56ZM85.2885 26.48C87.5685 26.48 89.3985 25.91 90.7785 24.77C92.1585 23.57 92.8485 21.95 92.8485 19.91C92.8485 17.75 92.1285 16.1 90.6885 14.96C89.3085 13.82 87.5085 13.25 85.2885 13.25C83.0685 13.25 81.2685 13.82 79.8885 14.96C78.5085 16.1 77.8185 17.75 77.8185 19.91C77.8185 21.95 78.5085 23.57 79.8885 24.77C81.2685 25.91 83.0685 26.48 85.2885 26.48ZM128.034 65L152.604 8.57L157.374 16.13H125.424L132.714 7.94V25.85H117.504V2H169.704V13.16L147.474 65H128.034Z"/>
</mask>
<path d="M11.98 64.64L11.7375 65.6101L11.7406 65.6109L11.98 64.64ZM0.64 60.05L-0.260388 59.6149L-0.654633 60.4308L0.11855 60.9033L0.64 60.05ZM7.12 46.64L7.6747 45.8079L6.71923 45.171L6.21961 46.2049L7.12 46.64ZM15.49 50.51L15.2078 51.4694L15.2128 51.4708L15.49 50.51ZM31.87 50.15L32.4051 50.9948L31.87 50.15ZM32.32 40.88L31.7149 41.6762L31.7252 41.684L31.7357 41.6915L32.32 40.88ZM17.47 39.17H16.47V40.17H17.47V39.17ZM17.47 27.92L16.7363 27.2405L16.47 27.5281V27.92H17.47ZM34.39 9.65L35.3531 9.38089L34.8717 7.65811L33.6563 8.97052L34.39 9.65ZM36.1 15.77V16.77H37.4177L37.0631 15.5009L36.1 15.77ZM3.88 15.77H2.88V16.77H3.88V15.77ZM3.88 2V0.999996H2.88V2H3.88ZM49.42 2H50.42V0.999996H49.42V2ZM49.42 13.16L50.1537 13.8395L50.42 13.5519V13.16H49.42ZM32.5 31.43L32.0068 32.2999L32.6956 32.6905L33.2337 32.1095L32.5 31.43ZM23.77 26.48V25.48H19.979L23.2768 27.3499L23.77 26.48ZM46.45 31.79L45.7891 32.5405L45.795 32.5457L45.8011 32.5508L46.45 31.79ZM49.6 55.46L48.751 54.9314L48.7439 54.9431L49.6 55.46ZM40.69 63.29L41.1319 64.1872L41.1425 64.1817L40.69 63.29ZM25.12 65.26C20.8231 65.26 16.5234 64.7303 12.2194 63.6691L11.7406 65.6109C16.1966 66.7097 20.6569 67.26 25.12 67.26V65.26ZM12.2225 63.6699C7.98435 62.6103 4.3015 61.1156 1.16145 59.1967L0.11855 60.9033C3.4585 62.9444 7.33565 64.5097 11.7375 65.6101L12.2225 63.6699ZM1.54039 60.4851L8.02039 47.0751L6.21961 46.2049L-0.260388 59.6149L1.54039 60.4851ZM6.5653 47.472C9.17357 49.2109 12.0563 50.5424 15.2078 51.4694L15.7722 49.5506C12.8038 48.6776 10.1064 47.4291 7.6747 45.8079L6.5653 47.472ZM15.2128 51.4708C18.4136 52.3941 21.537 52.86 24.58 52.86V50.86C21.743 50.86 18.8064 50.4259 15.7672 49.5492L15.2128 51.4708ZM24.58 52.86C27.751 52.86 30.3896 52.2713 32.4051 50.9948L31.3349 49.3052C29.7504 50.3087 27.529 50.86 24.58 50.86V52.86ZM32.4051 50.9948C34.4894 49.6747 35.57 47.7387 35.57 45.29H33.57C33.57 47.0413 32.8506 48.3453 31.3349 49.3052L32.4051 50.9948ZM35.57 45.29C35.57 43.1108 34.6673 41.3378 32.9043 40.0685L31.7357 41.6915C32.9727 42.5822 33.57 43.7492 33.57 45.29H35.57ZM32.9251 40.0838C31.158 38.7409 28.4222 38.17 24.94 38.17V40.17C28.2978 40.17 30.482 40.7391 31.7149 41.6762L32.9251 40.0838ZM24.94 38.17H17.47V40.17H24.94V38.17ZM18.47 39.17V27.92H16.47V39.17H18.47ZM18.2037 28.5995L35.1237 10.3295L33.6563 8.97052L16.7363 27.2405L18.2037 28.5995ZM33.4269 9.9191L35.1369 16.0391L37.0631 15.5009L35.3531 9.38089L33.4269 9.9191ZM36.1 14.77H3.88V16.77H36.1V14.77ZM4.88 15.77V2H2.88V15.77H4.88ZM3.88 3H49.42V0.999996H3.88V3ZM48.42 2V13.16H50.42V2H48.42ZM48.6863 12.4805L31.7663 30.7505L33.2337 32.1095L50.1537 13.8395L48.6863 12.4805ZM32.9932 30.5601L24.2632 25.6101L23.2768 27.3499L32.0068 32.2999L32.9932 30.5601ZM23.77 27.48H28.63V25.48H23.77V27.48ZM28.63 27.48C36.358 27.48 42.0208 29.2221 45.7891 32.5405L47.1109 31.0395C42.8392 27.2779 36.622 25.48 28.63 25.48V27.48ZM45.8011 32.5508C49.6509 35.8345 51.57 40.0529 51.57 45.29H53.57C53.57 39.4871 51.4091 34.7055 47.0989 31.0292L45.8011 32.5508ZM51.57 45.29C51.57 48.6954 50.6366 51.9033 48.7511 54.9314L50.4489 55.9886C52.5234 52.6567 53.57 49.0846 53.57 45.29H51.57ZM48.7439 54.9431C46.9396 57.9316 44.1263 60.4248 40.2375 62.3982L41.1425 64.1817C45.2937 62.0752 48.4204 59.3484 50.4561 55.9769L48.7439 54.9431ZM40.2481 62.3929C36.4108 64.2829 31.3868 65.26 25.12 65.26V67.26C31.5732 67.26 36.9292 66.2571 41.1319 64.1871L40.2481 62.3929ZM70.9785 63.83L70.6095 64.7594L70.9785 63.83ZM61.3485 56.99L60.5524 57.5951L60.5591 57.604L60.5661 57.6127L61.3485 56.99ZM61.3485 36.38L60.579 35.7414L60.5776 35.7431L61.3485 36.38ZM70.9785 29.99L71.3113 30.933L71.3192 30.9302L70.9785 29.99ZM99.5085 29.99L99.1635 30.9286L99.1717 30.9316L99.18 30.9345L99.5085 29.99ZM109.139 36.38L108.361 37.0087L108.368 37.0178L108.376 37.0267L109.139 36.38ZM109.229 56.99L110.019 57.6029L110.025 57.5951L109.229 56.99ZM99.5985 63.83L99.2341 62.8987L99.2295 62.9006L99.5985 63.83ZM92.1285 51.68L91.5071 50.8965L91.5004 50.9018L91.4938 50.9073L92.1285 51.68ZM92.1285 40.25L91.4777 41.0093L91.4922 41.0217L91.5071 41.0335L92.1285 40.25ZM78.3585 40.25L78.9933 41.0227L78.9961 41.0204L78.3585 40.25ZM78.3585 51.68L77.7238 52.4527L77.7304 52.4582L77.7371 52.4635L78.3585 51.68ZM72.2385 34.49L71.8907 35.4276L71.8956 35.4294L72.2385 34.49ZM63.4185 28.55L62.6445 29.1833L62.6518 29.1919L63.4185 28.55ZM63.3285 9.38L62.5476 8.75524L62.5392 8.76606L63.3285 9.38ZM72.2385 3.08L72.6074 4.00957L72.62 4.00437L72.2385 3.08ZM98.3385 3.08L97.9518 4.00219L97.9607 4.00593L97.9697 4.00949L98.3385 3.08ZM107.159 9.38L106.369 9.994L106.378 10.0047L107.159 9.38ZM107.159 28.55L106.385 27.9168L106.383 27.9187L107.159 28.55ZM90.7785 24.77L91.4154 25.541L91.4251 25.5329L91.4347 25.5246L90.7785 24.77ZM90.6885 14.96L90.0516 15.731L90.0597 15.7376L90.0678 15.744L90.6885 14.96ZM79.8885 14.96L79.2516 14.189L79.8885 14.96ZM79.8885 24.77L79.2323 25.5246L79.2419 25.5329L79.2516 25.541L79.8885 24.77ZM85.2885 65.26C79.9251 65.26 75.2853 64.4641 71.3475 62.9006L70.6095 64.7594C74.8317 66.4359 79.7319 67.26 85.2885 67.26V65.26ZM71.3475 62.9006C67.4022 61.3341 64.3452 59.1493 62.1309 56.3673L60.5661 57.6127C63.0318 60.7107 66.3948 63.0859 70.6095 64.7594L71.3475 62.9006ZM62.1447 56.3849C60.006 53.5709 58.9285 50.277 58.9285 46.46H56.9285C56.9285 50.683 58.131 54.4091 60.5524 57.5951L62.1447 56.3849ZM58.9285 46.46C58.9285 42.7061 60.0035 39.5784 62.1195 37.0169L60.5776 35.7431C58.1336 38.7016 56.9285 42.2939 56.9285 46.46H58.9285ZM62.1181 37.0186C64.3233 34.361 67.3707 32.3238 71.3113 30.933L70.6457 29.047C66.4264 30.5362 63.0537 32.759 60.579 35.7414L62.1181 37.0186ZM71.3192 30.9302C75.3284 29.4776 79.9793 28.74 85.2885 28.74V26.74C79.7977 26.74 74.9086 27.5024 70.6379 29.0498L71.3192 30.9302ZM85.2885 28.74C90.5982 28.74 95.2171 29.4777 99.1635 30.9286L99.8536 29.0514C95.64 27.5023 90.7788 26.74 85.2885 26.74V28.74ZM99.18 30.9345C103.181 32.3261 106.221 34.3615 108.361 37.0087L109.916 35.7513C107.496 32.7585 104.116 30.5339 99.837 29.0455L99.18 30.9345ZM108.376 37.0267C110.548 39.5885 111.649 42.7128 111.649 46.46H113.649C113.649 42.2872 112.409 38.6915 109.901 35.7333L108.376 37.0267ZM111.649 46.46C111.649 50.277 110.571 53.5709 108.432 56.3849L110.025 57.5951C112.446 54.4091 113.649 50.683 113.649 46.46H111.649ZM108.438 56.3772C106.289 59.149 103.239 61.3316 99.2341 62.8988L99.9629 64.7612C104.238 63.0884 107.608 60.711 110.019 57.6028L108.438 56.3772ZM99.2295 62.9006C95.2917 64.4641 90.6519 65.26 85.2885 65.26V67.26C90.8451 67.26 95.7453 66.4359 99.9676 64.7594L99.2295 62.9006ZM85.2885 54.75C88.3244 54.75 90.8535 54.0214 92.7633 52.4527L91.4938 50.9073C90.0435 52.0986 88.0127 52.75 85.2885 52.75V54.75ZM92.7499 52.4635C94.757 50.8717 95.7385 48.6478 95.7385 45.92H93.7385C93.7385 48.1122 92.98 49.7283 91.5071 50.8965L92.7499 52.4635ZM95.7385 45.92C95.7385 43.243 94.7504 41.0531 92.7499 39.4665L91.5071 41.0335C92.9866 42.2069 93.7385 43.797 93.7385 45.92H95.7385ZM92.7793 39.4907C90.8692 37.8535 88.3339 37.09 85.2885 37.09V39.09C88.0031 39.09 90.0278 39.7665 91.4777 41.0093L92.7793 39.4907ZM85.2885 37.09C82.2411 37.09 79.6849 37.8543 77.7209 39.4796L78.9961 41.0204C80.5121 39.7657 82.5759 39.09 85.2885 39.09V37.09ZM77.7238 39.4773C75.7866 41.0685 74.8385 43.256 74.8385 45.92H76.8385C76.8385 43.784 77.5704 42.1915 78.9933 41.0227L77.7238 39.4773ZM74.8385 45.92C74.8385 48.6349 75.7803 50.8563 77.7238 52.4527L78.9933 50.9073C77.5767 49.7437 76.8385 48.1251 76.8385 45.92H74.8385ZM77.7371 52.4635C79.7004 54.0206 82.2505 54.75 85.2885 54.75V52.75C82.5665 52.75 80.4966 52.0994 78.9799 50.8965L77.7371 52.4635ZM85.2885 35.56C80.4603 35.56 76.2302 34.8827 72.5815 33.5506L71.8956 35.4294C75.8069 36.8573 80.2767 37.56 85.2885 37.56V35.56ZM72.5863 33.5524C68.9999 32.222 66.2152 30.3327 64.1853 27.9081L62.6518 29.1919C64.9419 31.9273 68.0371 33.998 71.8907 35.4276L72.5863 33.5524ZM64.1925 27.9168C62.1897 25.4689 61.1785 22.5473 61.1785 19.1H59.1785C59.1785 22.9727 60.3273 26.351 62.6446 29.1832L64.1925 27.9168ZM61.1785 19.1C61.1785 15.5176 62.1688 12.4998 64.1179 9.99394L62.5392 8.76606C60.2882 11.6602 59.1785 15.1224 59.1785 19.1H61.1785ZM64.1094 10.0047C66.1431 7.46253 68.9602 5.45676 72.6074 4.00949L71.8697 2.15051C67.9568 3.70323 64.8339 5.89746 62.5476 8.7553L64.1094 10.0047ZM72.62 4.00437C76.2571 2.50334 80.4734 1.74 85.2885 1.74V-0.260004C80.2636 -0.260004 75.7799 0.53665 71.857 2.15562L72.62 4.00437ZM85.2885 1.74C90.1659 1.74 94.3793 2.50407 97.9518 4.00219L98.7252 2.1578C94.8577 0.535925 90.3711 -0.260004 85.2885 -0.260004V1.74ZM97.9697 4.00949C101.615 5.45619 104.398 7.45928 106.369 9.99394L107.948 8.76606C105.719 5.90071 102.622 3.7038 98.7074 2.15051L97.9697 4.00949ZM106.378 10.0047C108.382 12.5105 109.399 15.5245 109.399 19.1H111.399C111.399 15.1155 110.255 11.6495 107.939 8.7553L106.378 10.0047ZM109.399 19.1C109.399 22.5473 108.387 25.4689 106.385 27.9168L107.932 29.1832C110.25 26.351 111.399 22.9727 111.399 19.1H109.399ZM106.383 27.9187C104.418 30.3322 101.642 32.2195 97.9956 33.5506L98.6815 35.4294C102.595 34.0005 105.699 31.9278 107.934 29.1813L106.383 27.9187ZM97.9956 33.5506C94.3469 34.8827 90.1167 35.56 85.2885 35.56V37.56C90.3003 37.56 94.7702 36.8573 98.6815 35.4294L97.9956 33.5506ZM85.2885 27.48C87.736 27.48 89.8118 26.8657 91.4154 25.541L90.1416 23.999C88.9853 24.9543 87.401 25.48 85.2885 25.48V27.48ZM91.4347 25.5246C93.0599 24.1114 93.8485 22.202 93.8485 19.91H91.8485C91.8485 21.698 91.2572 23.0286 90.1223 24.0154L91.4347 25.5246ZM93.8485 19.91C93.8485 17.5047 93.0324 15.5401 91.3092 14.1759L90.0678 15.744C91.2246 16.6599 91.8485 17.9953 91.8485 19.91H93.8485ZM91.3254 14.189C89.7263 12.8681 87.6834 12.25 85.2885 12.25V14.25C87.3336 14.25 88.8907 14.7719 90.0516 15.731L91.3254 14.189ZM85.2885 12.25C82.8936 12.25 80.8507 12.8681 79.2516 14.189L80.5254 15.731C81.6863 14.7719 83.2434 14.25 85.2885 14.25V12.25ZM79.2516 14.189C77.5939 15.5584 76.8185 17.5197 76.8185 19.91H78.8185C78.8185 17.9803 79.4231 16.6416 80.5254 15.731L79.2516 14.189ZM76.8185 19.91C76.8185 22.202 77.6072 24.1114 79.2323 25.5246L80.5447 24.0154C79.4099 23.0286 78.8185 21.698 78.8185 19.91H76.8185ZM79.2516 25.541C80.8507 26.8619 82.8936 27.48 85.2885 27.48V25.48C83.2434 25.48 81.6863 24.9581 80.5254 23.999L79.2516 25.541ZM128.034 65L127.117 64.6008L126.508 66H128.034V65ZM152.604 8.57L153.449 8.03638L152.441 6.43836L151.687 8.17079L152.604 8.57ZM157.374 16.13V17.13H159.187L158.219 15.5964L157.374 16.13ZM125.424 16.13L124.677 15.4651L123.195 17.13H125.424V16.13ZM132.714 7.94H133.714V5.3125L131.967 7.27513L132.714 7.94ZM132.714 25.85V26.85H133.714V25.85H132.714ZM117.504 25.85H116.504V26.85H117.504V25.85ZM117.504 2V0.999996H116.504V2H117.504ZM169.704 2H170.704V0.999996H169.704V2ZM169.704 13.16L170.623 13.5541L170.704 13.3654V13.16H169.704ZM147.474 65V66H148.133L148.393 65.3941L147.474 65ZM128.95 65.3992L153.52 8.9692L151.687 8.17079L127.117 64.6008L128.95 65.3992ZM151.758 9.10361L156.528 16.6636L158.219 15.5964L153.449 8.03638L151.758 9.10361ZM157.374 15.13H125.424V17.13H157.374V15.13ZM126.171 16.7949L133.461 8.60487L131.967 7.27513L124.677 15.4651L126.171 16.7949ZM131.714 7.94V25.85H133.714V7.94H131.714ZM132.714 24.85H117.504V26.85H132.714V24.85ZM118.504 25.85V2H116.504V25.85H118.504ZM117.504 3H169.704V0.999996H117.504V3ZM168.704 2V13.16H170.704V2H168.704ZM168.785 12.7659L146.555 64.6059L148.393 65.3941L170.623 13.5541L168.785 12.7659ZM147.474 64H128.034V66H147.474V64Z" fill="#227E91" mask="url(#path-1-outside-1_96_770)"/>
</svg>
