<svg width="104" height="104" viewBox="0 0 104 104" fill="none" xmlns="http://www.w3.org/2000/svg">
<circle cx="52" cy="61" r="34" fill="#F4E9C9"/>
<g clip-path="url(#clip0_498_7)">
<path d="M70.8939 36.2744C70.8293 36.2825 70.7082 36.2717 70.6624 36.2475L69.1848 35.3297L74.7724 33.0741L76.3443 34.0566L70.8939 36.2744ZM66.9912 34.3822C66.9885 34.3822 66.9885 34.3876 66.9831 34.3876L61.9714 36.4144C61.9606 36.4171 61.9472 36.4144 61.9364 36.4197L39.3354 45.5576C39.1497 45.6356 38.9963 45.606 38.8994 45.5656C38.8052 45.5253 38.6733 45.4365 38.6033 45.2642C38.5468 45.1162 38.5522 44.9439 38.6195 44.7986C38.6625 44.707 38.746 44.5832 38.9371 44.5132L38.9559 44.5052L39.3516 44.3464L61.53 35.3781C61.5461 35.37 61.5596 35.3539 61.5757 35.3458L69.9438 31.9571L73.7873 30.4122L74.1991 31.4538L66.9912 34.3822ZM38.2104 27.3223C28.3135 27.3223 20.2604 35.4293 20.2604 45.3907C20.2604 55.3737 28.3135 63.4968 38.2104 63.4968C48.1072 63.4968 56.1576 55.3737 56.1576 45.3907C56.1576 43.7865 55.9692 42.2577 55.5951 40.8285L57.8641 39.908C58.3566 41.6871 58.6043 43.5281 58.6043 45.3907C58.6043 56.7221 49.4557 65.9407 38.2104 65.9407C26.9839 65.9407 17.8488 56.7221 17.8488 45.3907C17.8488 34.0808 26.9839 24.8784 38.2104 24.8784C45.814 24.8784 52.6236 28.9937 56.1899 35.6823L53.9129 36.6055C50.718 30.859 44.7697 27.3223 38.2104 27.3223ZM38.2104 31.4996C30.5986 31.4996 24.4081 37.7305 24.4081 45.3907C24.4081 53.0697 30.5986 59.3195 38.2104 59.3195C45.8382 59.3195 52.045 53.0697 52.045 45.3907C52.045 44.3814 51.9077 43.3936 51.6924 42.3977L53.9936 41.4691C54.2951 42.6964 54.4566 44.0099 54.4566 45.3907C54.4566 54.437 47.1679 61.7984 38.2104 61.7984C29.2529 61.7984 21.9641 54.437 21.9641 45.3907C21.9641 36.3632 29.2529 29.0207 38.2104 29.0207C44.0779 29.0207 49.4045 32.1563 52.3222 37.2622L50.0209 38.1935C47.5124 34.0566 43.0713 31.4996 38.2104 31.4996ZM38.2104 35.6446C32.8703 35.6446 28.5235 40.0157 28.5235 45.3907C28.5235 50.7684 32.8703 55.1422 38.2104 55.1422C43.5531 55.1422 47.8973 50.7684 47.8973 45.3907C47.8973 44.9197 47.865 44.4406 47.8031 43.9857L50.1178 43.0517C50.2685 43.8296 50.3412 44.6021 50.3412 45.3907C50.3412 52.1357 44.8989 57.6211 38.2104 57.6211C31.5407 57.6211 26.1118 52.1357 26.1118 45.3907C26.1118 38.6672 31.5407 33.198 38.2104 33.198C42.3823 33.198 46.2231 35.3297 48.4463 38.8233L46.1289 39.7573C44.3067 37.168 41.3972 35.6446 38.2104 35.6446ZM38.2104 39.8219C35.1554 39.8219 32.6711 42.3196 32.6711 45.3907C32.6711 48.4833 35.1554 50.9972 38.2104 50.9972C41.2114 50.9972 43.65 48.5936 43.763 45.6006L46.1558 44.6344C46.1774 44.8874 46.1935 45.1404 46.1935 45.3907C46.1935 49.8318 42.6137 53.4411 38.2104 53.4411C33.807 53.4411 30.2272 49.8318 30.2272 45.3907C30.2272 40.9523 33.807 37.3429 38.2104 37.3429C40.7054 37.3429 42.9906 38.4815 44.5032 40.4275L42.0593 41.4153C41.0392 40.414 39.6826 39.8219 38.2104 39.8219ZM37.018 45.8806C37.2495 46.4539 37.6855 46.898 38.2427 47.1321C38.5683 47.2694 38.9155 47.3152 39.2628 47.2882C39.505 47.2721 39.7445 47.2263 39.976 47.1321L41.9651 46.3381C41.5452 48.0365 40.0218 49.2988 38.2104 49.2988C36.0948 49.2988 34.3749 47.5439 34.3749 45.3907C34.3749 43.2563 36.0948 41.5202 38.2104 41.5202C38.964 41.5202 39.6826 41.7329 40.2909 42.1258L38.458 42.8768L38.3073 42.936C38.2373 42.9629 38.1727 43.0006 38.1081 43.0329C38.0462 43.0652 37.9789 43.0894 37.9224 43.1244C37.8685 43.1567 37.8228 43.1998 37.7743 43.2348C37.7097 43.2859 37.6398 43.329 37.5778 43.3882C37.5375 43.4232 37.5079 43.4689 37.4702 43.5093C37.411 43.5739 37.3464 43.6358 37.2925 43.7112C37.2091 43.8269 37.1337 43.9534 37.0718 44.0907C36.8161 44.6451 36.7919 45.2911 37.018 45.8806ZM43.3351 69.5689C43.2301 69.5905 43.1278 69.6147 43.0202 69.6362C41.4645 69.9484 39.8576 70.118 38.2104 70.118C36.5927 70.118 35.0155 69.9511 33.484 69.647C33.309 69.6147 33.1449 69.5743 32.9753 69.5366C21.9695 67.1089 13.7011 57.212 13.7011 45.3907C13.7011 31.7768 24.6961 20.6984 38.2104 20.6984C47.3993 20.6984 55.8697 25.9442 60.0416 34.1346L57.7672 35.0551C53.929 27.7153 46.5138 23.1773 38.2104 23.1773C26.0445 23.1773 16.1477 33.1441 16.1477 45.3907C16.1477 57.6588 26.0445 67.6391 38.2104 67.6391C50.395 67.6391 60.308 57.6588 60.308 45.3907C60.308 43.3101 60.0039 41.2565 59.436 39.2701L61.7238 38.3442C62.4074 40.624 62.752 42.9925 62.752 45.3907C62.752 57.2551 54.4135 67.1869 43.3351 69.5689ZM43.6312 94.3016H41.6932V71.5849C42.3688 71.4961 43.0121 71.3857 43.6312 71.2565V94.3016ZM34.7275 94.3016H32.8219V71.2565C32.8488 71.2646 32.8784 71.2673 32.9026 71.2727C32.9672 71.2861 33.0372 71.2915 33.1018 71.305C33.6266 71.41 34.1596 71.5069 34.7275 71.5849V94.3016ZM67.9305 29.4217C67.9547 29.3652 68.057 29.2575 68.127 29.2225L73.5316 27.0397L73.0714 28.8592L69.4162 30.3395L67.5026 31.1066L67.9305 29.4217ZM78.659 33.4967L76.1532 31.9329C76.1505 31.8333 76.1371 31.7311 76.0994 31.6315L75.0524 28.9803C75.012 28.8753 74.9474 28.7784 74.8693 28.6977L75.5934 25.8312C75.6714 25.5216 75.5665 25.1933 75.3242 24.9833C75.082 24.7734 74.7428 24.7169 74.4468 24.838L67.4649 27.656C67.4568 27.6614 67.446 27.6641 67.438 27.6695C66.8916 27.9117 66.4179 28.4554 66.286 28.9803L65.5458 31.906L61.608 33.4994C57.1724 24.6711 48.0857 19 38.2104 19C23.7567 19 12 30.8401 12 45.3907C12 57.4839 20.1043 67.6795 31.1208 70.807V95.1522C31.1208 95.6205 31.5003 96 31.9713 96H35.5807C36.0517 96 36.4312 95.6205 36.4312 95.1522V71.7276C37.0234 71.7679 37.6101 71.8164 38.2104 71.8164C38.8106 71.8164 39.3973 71.7679 39.9895 71.7276V95.1522C39.9895 95.6205 40.3717 96 40.84 96H44.4844C44.9527 96 45.3349 95.6205 45.3349 95.1522V70.8017C56.3514 67.666 64.4557 57.4731 64.4557 45.3907C64.4557 42.7745 64.0493 40.1987 63.2903 37.7117L67.2334 36.1183L69.7608 37.6902C70.0649 37.8786 70.4552 37.9782 70.8347 37.9782C71.0662 37.9782 71.2923 37.9405 71.4941 37.8651C71.5022 37.8624 71.5076 37.8597 71.513 37.857L78.5299 35.004C78.8259 34.8829 79.0278 34.6083 79.0547 34.2907C79.0816 33.9731 78.9309 33.6663 78.659 33.4967Z" fill="#0C0C0C"/>
</g>
<defs>
<clipPath id="clip0_498_7">
<rect width="68" height="77" fill="white" transform="translate(12 19)"/>
</clipPath>
</defs>
</svg>
