<svg width="97" height="97" viewBox="0 0 97 97" fill="none" xmlns="http://www.w3.org/2000/svg">
<circle cx="41" cy="50" r="34" fill="#FAD9BD"/>
<g clip-path="url(#clip0_498_5)">
<path d="M44.2835 41.058C43.0046 41.058 41.8027 41.5553 40.8968 42.4583C39.0288 44.3263 39.0288 47.3607 40.8968 49.2287L48.0018 56.3249L55.1068 49.2287C56.9748 47.3607 56.9748 44.3263 55.1068 42.4583C54.2009 41.5553 52.999 41.058 51.7201 41.058C50.4382 41.058 49.2363 41.5553 48.3304 42.4583C48.2446 42.5471 48.1261 42.5944 48.0018 42.5944C47.8775 42.5944 47.759 42.5471 47.6732 42.4583C46.7673 41.5553 45.5654 41.058 44.2835 41.058ZM48.0018 57.4469C47.8775 57.4469 47.759 57.3995 47.6732 57.3107L40.2396 49.8859C39.1561 48.8054 38.561 47.3696 38.561 45.842C38.561 44.3174 39.1561 42.8816 40.2396 41.8011C42.3622 39.6784 45.7548 39.5778 48.0018 41.4961C49.0379 40.611 50.3405 40.1284 51.7201 40.1284C53.2477 40.1284 54.6835 40.7235 55.764 41.8011C57.9962 44.0302 57.9962 47.6568 55.764 49.8859L48.3304 57.3107C48.2446 57.3995 48.1261 57.4469 48.0018 57.4469Z" fill="#0C0C0C" stroke="#0C0C0C" stroke-width="0.7"/>
<path d="M32.682 34.6459C30.4794 34.6459 28.6884 36.434 28.6884 38.6336V56.5411C28.6884 58.7407 30.4794 60.5288 32.682 60.5288H41.9629C42.398 60.5288 42.8155 60.7361 43.0789 61.0795L47.6261 67.0151C47.7179 67.1335 47.8541 67.1986 48.0021 67.1986C48.1501 67.1986 48.2863 67.1335 48.3781 67.0151L52.9253 61.0795C53.1888 60.7361 53.6062 60.5288 54.0414 60.5288H63.3223C65.5248 60.5288 67.3159 58.7407 67.3159 56.5411V38.6336C67.3159 36.434 65.5248 34.6459 63.3223 34.6459H32.682ZM48.0021 68.1282C47.561 68.1282 47.1554 67.9299 46.889 67.5805L42.3388 61.6449C42.25 61.5294 42.1109 61.4584 41.9629 61.4584H32.682C29.9673 61.4584 27.7588 59.2529 27.7588 56.5411V38.6336C27.7588 35.9218 29.9673 33.7134 32.682 33.7134H63.3223C66.037 33.7134 68.2454 35.9218 68.2454 38.6336V56.5411C68.2454 59.2529 66.037 61.4584 63.3223 61.4584H54.0414C53.8933 61.4584 53.7542 61.5294 53.6654 61.6449L49.1152 67.5805C48.8488 67.9299 48.4432 68.1282 48.0021 68.1282Z" fill="#0C0C0C" stroke="#0C0C0C" stroke-width="0.7"/>
<path d="M24.9433 14.9296C23.2825 14.9296 21.9325 16.2795 21.9325 17.9373V83.9073C21.9325 85.5651 23.2825 86.9121 24.9433 86.9121H71.0606C72.7214 86.9121 74.0714 85.5651 74.0714 83.9073V17.9373C74.0714 16.2795 72.7214 14.9296 71.0606 14.9296H24.9433ZM71.0606 87.8417H24.9433C22.7703 87.8417 21 86.0772 21 83.9073V17.9373C21 15.7674 22.7703 14 24.9433 14H71.0606C73.2336 14 75.0039 15.7674 75.0039 17.9373V83.9073C75.0039 86.0772 73.2336 87.8417 71.0606 87.8417Z" fill="#0C0C0C" stroke="#0C0C0C" stroke-width="0.7"/>
<path d="M74.5362 21.5048H21.4677C21.2102 21.5048 21 21.2946 21 21.04C21 20.7824 21.2102 20.5752 21.4677 20.5752H74.5362C74.7937 20.5752 75.0039 20.7824 75.0039 21.04C75.0039 21.2946 74.7937 21.5048 74.5362 21.5048Z" fill="#0C0C0C" stroke="#0C0C0C" stroke-width="0.7"/>
<path d="M74.5362 81.2694H21.4677C21.2102 81.2694 21 81.0622 21 80.8046C21 80.55 21.2102 80.3398 21.4677 80.3398H74.5362C74.7937 80.3398 75.0039 80.55 75.0039 80.8046C75.0039 81.0622 74.7937 81.2694 74.5362 81.2694Z" fill="#0C0C0C" stroke="#0C0C0C" stroke-width="0.7"/>
<path d="M47.7594 83.0961C47.2561 83.0961 46.8476 83.5046 46.8476 84.0079C46.8476 84.5082 47.2561 84.9167 47.7594 84.9167C48.2626 84.9167 48.6712 84.5082 48.6712 84.0079C48.6712 83.5046 48.2626 83.0961 47.7594 83.0961ZM47.7594 85.8463C46.744 85.8463 45.915 85.0203 45.915 84.0079C45.915 82.9925 46.744 82.1665 47.7594 82.1665C48.7748 82.1665 49.6008 82.9925 49.6008 84.0079C49.6008 85.0203 48.7748 85.8463 47.7594 85.8463Z" fill="#0C0C0C" stroke="#0C0C0C" stroke-width="0.7"/>
<path d="M53.2566 18.1976H42.2617C42.0041 18.1976 41.7969 17.9904 41.7969 17.7328C41.7969 17.4783 42.0041 17.2681 42.2617 17.2681H53.2566C53.5142 17.2681 53.7214 17.4783 53.7214 17.7328C53.7214 17.9904 53.5142 18.1976 53.2566 18.1976Z" fill="#0C0C0C" stroke="#0C0C0C" stroke-width="0.7"/>
</g>
<defs>
<clipPath id="clip0_498_5">
<rect width="56" height="76" fill="white" transform="translate(20 13)"/>
</clipPath>
</defs>
</svg>
