<svg width="93" height="93" viewBox="0 0 93 93" fill="none" xmlns="http://www.w3.org/2000/svg">
<circle cx="40" cy="44" r="34" fill="#F4E9C9"/>
<g clip-path="url(#clip0_498_3)">
<path d="M82.8823 67.4381C82.8823 68.7251 81.8455 69.7749 80.5713 69.7749H19.6857C18.4348 69.7749 17.3773 68.7045 17.3773 67.4381V29.7141C17.3773 28.4245 18.4116 27.3747 19.6857 27.3747H80.5713C81.8455 27.3747 82.8823 28.4245 82.8823 29.7141V67.4381ZM43.7578 78.4102C44.5084 77.6493 44.9546 76.6795 45.0938 75.4931V71.1496H55.1916L55.1967 75.5756C55.3334 76.713 55.7745 77.6622 56.5121 78.4102H43.7578ZM58.8773 79.7849H64.3556C66.027 79.7849 67.4223 80.9791 67.7422 82.5628H32.5433C32.8579 80.9791 34.2456 79.7849 35.9014 79.7849H58.8773ZM80.5713 26H19.6857C17.6533 26 16 27.6662 16 29.7141V67.4381C16 69.4499 17.6868 71.1496 19.6857 71.1496H43.7165L43.7217 75.4131C43.5515 76.8394 42.7648 77.7937 41.2611 78.4102H35.9014C33.2525 78.4102 31.0989 80.5819 31.0989 83.2488C31.0989 83.628 31.4058 83.9375 31.7875 83.9375H68.4979C68.877 83.9375 69.1865 83.628 69.1865 83.2488C69.1865 80.5819 67.02 78.4102 64.3556 78.4102H59.0217C57.5206 77.8041 56.734 76.8523 56.5663 75.4931V71.1496H80.5713C82.6037 71.1496 84.257 69.4834 84.257 67.4381V29.7141C84.257 27.6662 82.6037 26 80.5713 26Z" fill="#0C0C0C"/>
<path d="M79.9367 60.3709C79.9367 60.487 79.8361 60.5901 79.7278 60.5901H71.2034V35.5973C71.2034 34.9293 70.6618 34.3876 69.9963 34.3876H30.2889C29.6235 34.3876 29.0818 34.9293 29.0818 35.5973V60.5901H20.5574C20.4465 60.5901 20.3459 60.487 20.3459 60.3709V30.2634C20.3459 30.1473 20.4465 30.0442 20.5574 30.0442H79.7278C79.8361 30.0442 79.9367 30.1473 79.9367 30.2634V60.3709ZM69.8261 60.5901H30.4591V35.7624H69.8261V60.5901ZM79.7278 28.6694H20.5574C19.6831 28.6694 18.9712 29.3839 18.9712 30.2634V60.3709C18.9712 61.2504 19.6831 61.9649 20.5574 61.9649H79.7278C80.6022 61.9649 81.314 61.2504 81.314 60.3709V30.2634C81.314 29.3839 80.6022 28.6694 79.7278 28.6694Z" fill="#0C0C0C"/>
<path d="M59.8576 66.8888C59.3159 66.8888 58.8568 66.4219 58.8568 65.87C58.8568 65.318 59.3159 64.8537 59.8576 64.8537C60.425 64.8537 60.8867 65.3103 60.8867 65.87C60.8867 66.4322 60.425 66.8888 59.8576 66.8888ZM59.8576 63.479C58.5473 63.479 57.4795 64.552 57.4795 65.87C57.4795 67.1905 58.5473 68.2635 59.8576 68.2635C61.1859 68.2635 62.264 67.1905 62.264 65.87C62.264 64.552 61.1859 63.479 59.8576 63.479Z" fill="#0C0C0C"/>
<path d="M53.0455 67.7684H47.2396C46.2053 67.7684 45.3671 66.9173 45.3671 65.8701C45.3671 64.8255 46.2053 63.9743 47.2396 63.9743H53.0455C54.0772 63.9743 54.918 64.8255 54.918 65.8701C54.918 66.9173 54.0772 67.7684 53.0455 67.7684ZM53.0455 62.5996H47.2396C45.447 62.5996 43.9897 64.0672 43.9897 65.8701C43.9897 67.6756 45.447 69.1431 47.2396 69.1431H53.0455C54.8355 69.1431 56.2953 67.6756 56.2953 65.8701C56.2953 64.0672 54.8355 62.5996 53.0455 62.5996Z" fill="#0C0C0C"/>
<path d="M40.3995 66.8888C39.8553 66.8888 39.3962 66.4219 39.3962 65.87C39.3962 65.318 39.8553 64.8537 40.3995 64.8537C40.9412 64.8537 41.4003 65.318 41.4003 65.87C41.4003 66.4219 40.9412 66.8888 40.3995 66.8888ZM40.3995 63.479C39.0867 63.479 38.0215 64.552 38.0215 65.87C38.0215 67.1905 39.0867 68.2635 40.3995 68.2635C41.7098 68.2635 42.7776 67.1905 42.7776 65.87C42.7776 64.552 41.7098 63.479 40.3995 63.479Z" fill="#0C0C0C"/>
<path d="M59.9635 40.3739C60.1827 40.3404 60.3736 40.2011 60.4741 40.0025L60.99 38.9811L61.5058 40.0025C61.6064 40.2011 61.7973 40.3404 62.0165 40.3739L63.1488 40.5467L62.3338 41.3875C62.1868 41.5423 62.1171 41.7564 62.1481 41.9679L62.3235 43.1131L61.2814 42.5972C61.0854 42.5018 60.8559 42.5018 60.6624 42.6024L59.6565 43.1182L59.8293 41.9679C59.8629 41.7538 59.7906 41.5371 59.6385 41.3824L58.8131 40.5493L59.9635 40.3739ZM58.4185 42.1046L58.225 43.3865C58.2199 43.42 58.2173 43.4535 58.2173 43.4896C58.2173 43.6083 58.2173 43.8585 58.3437 44.0416C58.4804 44.3201 58.7254 44.5368 59.0143 44.6296C59.1252 44.6683 59.2387 44.6864 59.3522 44.6864C59.5224 44.6864 59.6901 44.6477 59.8474 44.5677L60.9848 43.9823L62.0346 44.4981C62.3544 44.7148 62.6588 44.6993 62.7722 44.6658C63.3938 44.5961 63.8272 44.0442 63.7549 43.3865L63.5615 42.0994L64.4075 41.225C64.6551 41.0213 64.7222 40.7479 64.7557 40.6112C64.8898 39.9999 64.5055 39.4118 63.8323 39.2622L62.5762 39.0688L62.0011 37.9262C61.9882 37.903 61.9753 37.8798 61.9598 37.8591C61.8566 37.7018 61.738 37.5832 61.5033 37.431C61.235 37.2943 60.9152 37.2711 60.6289 37.3665C60.3426 37.4619 60.1105 37.6631 59.9789 37.9262L59.4038 39.0688L58.1451 39.2622C58.109 39.2674 58.0703 39.2751 58.0342 39.288C57.931 39.3241 57.7015 39.3989 57.5183 39.6182C57.1082 40.0309 57.0876 40.6937 57.5158 41.1967L58.4185 42.1046Z" fill="#0C0C0C"/>
<path d="M48.3176 40.5339C48.5781 40.4875 48.8386 40.4411 49.0914 40.3998C49.2951 40.3663 49.4731 40.245 49.5789 40.0671C49.7775 39.7266 49.9606 39.3732 50.1411 39.0251C50.1927 39.1231 50.2417 39.2211 50.2907 39.3191C50.4145 39.5615 50.5409 39.804 50.6647 40.0413C50.7653 40.2347 50.9536 40.3688 51.1702 40.3998C51.4359 40.4411 51.6938 40.4875 51.9543 40.5339C52.073 40.5571 52.189 40.5778 52.3025 40.5984C52.2148 40.6912 52.1271 40.7815 52.0395 40.8744C51.8589 41.0601 51.6784 41.2509 51.4927 41.4392C51.3379 41.594 51.2683 41.8106 51.3018 42.0273L51.4772 43.1699L50.4377 42.654C50.3423 42.605 50.234 42.5818 50.1282 42.5818C50.0173 42.5818 49.9038 42.6076 49.8032 42.6618C49.486 42.832 49.1533 43.0022 48.8077 43.1699L48.9831 42.0273C49.0166 41.8106 48.9444 41.594 48.7922 41.4392C48.6013 41.2458 48.413 41.0472 48.2222 40.8486C48.1422 40.766 48.0597 40.6809 47.9797 40.5958C48.0906 40.5778 48.2041 40.5571 48.3176 40.5339ZM47.2266 41.8003C47.3427 41.919 47.4561 42.0376 47.5696 42.1563L47.3891 43.353C47.3143 43.6574 47.3942 43.8947 47.469 44.0958C47.6006 44.3641 47.8327 44.5653 48.119 44.6607C48.4027 44.7535 48.7225 44.7355 48.9676 44.6091C49.3622 44.4337 49.7568 44.2403 50.1386 44.0391L51.1935 44.5575C51.4127 44.702 51.6294 44.7226 51.828 44.7226C51.8589 44.7226 51.8899 44.7226 51.9208 44.72C52.5372 44.653 52.9809 44.0778 52.9061 43.4098L52.7152 42.1563C52.821 42.0453 52.9267 41.9344 53.0325 41.8235C53.2156 41.6327 53.3987 41.4418 53.5896 41.2484C53.765 41.0704 53.8578 40.8305 53.8888 40.7351C53.9042 40.6887 53.9146 40.6422 53.9197 40.5932C53.9842 40.0129 53.6076 39.4687 52.9835 39.3165C52.7178 39.2752 52.4599 39.2288 52.1994 39.1824C52.042 39.154 51.8847 39.1256 51.7248 39.0973C51.6551 38.9631 51.5881 38.829 51.5184 38.6949C51.3946 38.4525 51.2708 38.2074 51.147 37.9727C51.1367 37.9521 51.1238 37.934 51.1109 37.9134C51.0335 37.7948 50.8891 37.5781 50.6183 37.4672C50.3578 37.3485 50.056 37.3305 49.7826 37.4208C49.4937 37.5162 49.2616 37.7174 49.1378 37.9727L48.9418 38.3493C48.8128 38.5969 48.6839 38.8497 48.5472 39.0973C48.3872 39.1256 48.2299 39.154 48.07 39.1824C47.8095 39.2288 47.549 39.2778 47.2936 39.3165C47.2575 39.3242 47.2214 39.332 47.1853 39.3449C47.0847 39.3784 46.9326 39.43 46.7701 39.5383C46.7211 39.5719 46.6746 39.6131 46.6334 39.6621C46.2362 40.129 46.2491 40.8021 46.6669 41.2226C46.8552 41.4108 47.0409 41.6043 47.2266 41.8003Z" fill="#0C0C0C"/>
<path d="M38.2537 40.454C38.4652 40.4179 38.6483 40.2838 38.7463 40.0955L39.2802 39.0741L39.8167 40.0955C39.9147 40.2838 40.0978 40.4179 40.3093 40.454L41.4519 40.6501L40.6446 41.4651C40.495 41.6173 40.4254 41.8288 40.4538 42.0403L40.6137 43.2241L39.5923 42.7109C39.4943 42.6619 39.3885 42.6361 39.2802 42.6361C39.177 42.6361 39.0713 42.6593 38.9759 42.7083L37.9519 43.2138L38.1118 42.0403C38.1402 41.8314 38.0705 41.6224 37.9235 41.4703L37.1265 40.6501L38.2537 40.454ZM36.701 42.1873L36.5333 43.4382C36.4895 43.6265 36.5075 43.8303 36.5849 44.0598C36.5926 44.0908 36.6055 44.1217 36.621 44.1501C36.7525 44.4209 36.9847 44.6221 37.2736 44.7149C37.3896 44.7536 37.5108 44.7743 37.6321 44.7743C37.81 44.7743 37.9854 44.733 38.1428 44.6556L39.2802 44.0908L40.4744 44.6892C40.7194 44.7717 40.9464 44.7872 41.0857 44.7485C41.3926 44.7098 41.6686 44.5396 41.8517 44.2842C42.0297 44.0289 42.0916 43.7245 42.0348 43.4795L41.862 42.1924L42.7415 41.3052C42.7725 41.2717 42.8009 41.2381 42.8267 41.1994C42.8963 41.0937 42.9995 40.9364 43.0717 40.632C43.1078 40.3354 43.0201 40.0285 42.8318 39.7886C42.6435 39.5513 42.3779 39.4017 42.1251 39.3733L40.8793 39.1567L40.2758 38.0063C40.1675 37.7923 39.9972 37.622 39.8167 37.5318C39.5613 37.3847 39.2518 37.3538 38.9655 37.4389C38.6689 37.5292 38.4213 37.7381 38.2898 38.0012L37.6837 39.1567L36.4766 39.3682C36.2264 39.3888 36.0407 39.5152 35.9272 39.59C35.8911 39.6158 35.855 39.6442 35.824 39.6777C35.3933 40.111 35.3907 40.8435 35.8163 41.2717L36.701 42.1873Z" fill="#0C0C0C"/>
<path d="M62.4469 56.8813H40.1545C39.7727 56.8813 39.4658 57.1883 39.4658 57.5674C39.4658 57.9466 39.7727 58.2561 40.1545 58.2561H62.4469C62.8286 58.2561 63.1355 57.9466 63.1355 57.5674C63.1355 57.1883 62.8286 56.8813 62.4469 56.8813Z" fill="#0C0C0C"/>
<path d="M62.4469 53.5513H40.1545C39.7727 53.5513 39.4658 53.8608 39.4658 54.2399C39.4658 54.6191 39.7727 54.926 40.1545 54.926H62.4469C62.8286 54.926 63.1355 54.6191 63.1355 54.2399C63.1355 53.8608 62.8286 53.5513 62.4469 53.5513Z" fill="#0C0C0C"/>
<path d="M62.4469 46.9253H40.1545C39.7727 46.9253 39.4658 47.2348 39.4658 47.614C39.4658 47.9931 39.7727 48.3 40.1545 48.3H62.4469C62.8286 48.3 63.1355 47.9931 63.1355 47.614C63.1355 47.2348 62.8286 46.9253 62.4469 46.9253Z" fill="#0C0C0C"/>
<path d="M62.4469 50.2524H40.1545C39.7727 50.2524 39.4658 50.5594 39.4658 50.9411C39.4658 51.3202 39.7727 51.6272 40.1545 51.6272H62.4469C62.8286 51.6272 63.1355 51.3202 63.1355 50.9411C63.1355 50.5594 62.8286 50.2524 62.4469 50.2524Z" fill="#0C0C0C"/>
</g>
<defs>
<clipPath id="clip0_498_3">
<rect width="69" height="58" fill="white" transform="translate(16 26)"/>
</clipPath>
</defs>
</svg>
