<svg width="91" height="91" viewBox="0 0 91 91" fill="none" xmlns="http://www.w3.org/2000/svg">
<circle cx="53" cy="44" r="34" fill="#B1CEFC"/>
<g clip-path="url(#clip0_498_2)">
<path d="M55.44 76.5972H9.40528V61.0842C9.40528 60.6973 9.09078 60.3828 8.70139 60.3828C8.3145 60.3828 8 60.6973 8 61.0842V77.2986C8 77.6855 8.3145 78 8.70139 78H55.44C55.8294 78 56.1439 77.6855 56.1439 77.2986C56.1439 76.9092 55.8294 76.5972 55.44 76.5972Z" fill="#0C0C0C"/>
<path d="M60.2749 76.3326L55.9367 74.9348C56.1564 74.9199 56.366 74.8001 56.4883 74.5979C56.688 74.2634 56.5807 73.8316 56.2462 73.6319L24.0871 54.3574C23.8699 54.2276 23.6003 54.2251 23.3782 54.3474C23.1585 54.4722 23.0237 54.7068 23.0237 54.9589C23.0237 58.7704 19.9686 61.8705 16.2145 61.8705C15.88 61.8705 15.5556 61.8331 15.2336 61.7906C11.9438 61.3064 9.40528 58.4334 9.40528 54.9589V11.4053H60.2749V76.3326ZM18.6207 62.9114C21.616 61.9803 23.8874 59.357 24.3442 56.1495L55.4001 74.7626L18.6207 62.9114ZM60.9762 10H8.70139C8.3145 10 8 10.3145 8 10.7039V54.9589C8 59.03 10.9029 62.4196 14.7219 63.1335L60.7616 77.9675C60.834 77.99 60.9064 78 60.9762 78C61.0636 78 61.146 77.98 61.2259 77.9526C61.2508 77.9426 61.2733 77.9276 61.2982 77.9151C61.3482 77.8877 61.3931 77.8577 61.4355 77.8203C61.458 77.8003 61.478 77.7828 61.4979 77.7604C61.5354 77.7179 61.5653 77.6705 61.5928 77.6206C61.6053 77.5956 61.6202 77.5732 61.6302 77.5457C61.6352 77.5357 61.6427 77.5257 61.6477 77.5133C61.6577 77.4758 61.6527 77.4384 61.6602 77.4009C61.6652 77.366 61.6801 77.336 61.6801 77.2986V10.7039C61.6801 10.3145 61.3656 10 60.9762 10Z" fill="#0C0C0C"/>
<path d="M11.9087 14.0483H57.7712V20.1737H11.9087V14.0483ZM11.2073 21.5789H58.4726C58.862 21.5789 59.174 21.2644 59.174 20.8751V13.3445C59.174 12.9576 58.862 12.6431 58.4726 12.6431H11.2073C10.8179 12.6431 10.5034 12.9576 10.5034 13.3445V20.8751C10.5034 21.2644 10.8179 21.5789 11.2073 21.5789Z" fill="#0C0C0C"/>
<path d="M57.6667 25.9321H37.219C36.8296 25.9321 36.5151 26.2466 36.5151 26.636C36.5151 27.0229 36.8296 27.3374 37.219 27.3374H57.6667C58.0561 27.3374 58.3706 27.0229 58.3706 26.636C58.3706 26.2466 58.0561 25.9321 57.6667 25.9321Z" fill="#0C0C0C"/>
<path d="M57.6667 29.0249H37.219C36.8296 29.0249 36.5151 29.3394 36.5151 29.7263C36.5151 30.1157 36.8296 30.4302 37.219 30.4302H57.6667C58.0561 30.4302 58.3706 30.1157 58.3706 29.7263C58.3706 29.3394 58.0561 29.0249 57.6667 29.0249Z" fill="#0C0C0C"/>
<path d="M57.6667 32.0879H37.219C36.8296 32.0879 36.5151 32.4024 36.5151 32.7893C36.5151 33.1787 36.8296 33.4932 37.219 33.4932H57.6667C58.0561 33.4932 58.3706 33.1787 58.3706 32.7893C58.3706 32.4024 58.0561 32.0879 57.6667 32.0879Z" fill="#0C0C0C"/>
<path d="M57.6667 35.1777H37.219C36.8296 35.1777 36.5151 35.4922 36.5151 35.8816C36.5151 36.2685 36.8296 36.583 37.219 36.583H57.6667C58.0561 36.583 58.3706 36.2685 58.3706 35.8816C58.3706 35.4922 58.0561 35.1777 57.6667 35.1777Z" fill="#0C0C0C"/>
<path d="M57.6667 38.2407H37.219C36.8296 38.2407 36.5151 38.5552 36.5151 38.9446C36.5151 39.3315 36.8296 39.646 37.219 39.646H57.6667C58.0561 39.646 58.3706 39.3315 58.3706 38.9446C58.3706 38.5552 58.0561 38.2407 57.6667 38.2407Z" fill="#0C0C0C"/>
<path d="M57.6667 41.3306H37.219C36.8296 41.3306 36.5151 41.6451 36.5151 42.0345C36.5151 42.4213 36.8296 42.7358 37.219 42.7358H57.6667C58.0561 42.7358 58.3706 42.4213 58.3706 42.0345C58.3706 41.6451 58.0561 41.3306 57.6667 41.3306Z" fill="#0C0C0C"/>
<path d="M57.6667 44.3955H37.219C36.8296 44.3955 36.5151 44.7075 36.5151 45.0969C36.5151 45.4838 36.8296 45.8008 37.219 45.8008H57.6667C58.0561 45.8008 58.3706 45.4838 58.3706 45.0969C58.3706 44.7075 58.0561 44.3955 57.6667 44.3955Z" fill="#0C0C0C"/>
<path d="M57.6667 47.4585H37.219C36.8296 47.4585 36.5151 47.773 36.5151 48.1599C36.5151 48.5493 36.8296 48.8638 37.219 48.8638H57.6667C58.0561 48.8638 58.3706 48.5493 58.3706 48.1599C58.3706 47.773 58.0561 47.4585 57.6667 47.4585Z" fill="#0C0C0C"/>
<path d="M57.6667 50.5483H37.219C36.8296 50.5483 36.5151 50.8628 36.5151 51.2522C36.5151 51.6391 36.8296 51.9536 37.219 51.9536H57.6667C58.0561 51.9536 58.3706 51.6391 58.3706 51.2522C58.3706 50.8628 58.0561 50.5483 57.6667 50.5483Z" fill="#0C0C0C"/>
<path d="M57.6667 53.6113H37.219C36.8296 53.6113 36.5151 53.9258 36.5151 54.3127C36.5151 54.7021 36.8296 55.0166 37.219 55.0166H57.6667C58.0561 55.0166 58.3706 54.7021 58.3706 54.3127C58.3706 53.9258 58.0561 53.6113 57.6667 53.6113Z" fill="#0C0C0C"/>
<path d="M57.6667 56.7012H37.219C36.8296 56.7012 36.5151 57.0157 36.5151 57.4051C36.5151 57.7919 36.8296 58.1065 37.219 58.1065H57.6667C58.0561 58.1065 58.3706 57.7919 58.3706 57.4051C58.3706 57.0157 58.0561 56.7012 57.6667 56.7012Z" fill="#0C0C0C"/>
<path d="M32.4614 56.7012H31.9597C31.5728 56.7012 31.2583 57.0157 31.2583 57.4051C31.2583 57.7919 31.5728 58.1065 31.9597 58.1065H32.4614C32.8483 58.1065 33.1628 57.7919 33.1628 57.4051C33.1628 57.0157 32.8483 56.7012 32.4614 56.7012Z" fill="#0C0C0C"/>
<path d="M20.832 56.7012H12.0135C11.6241 56.7012 11.3096 57.0157 11.3096 57.4051C11.3096 57.7919 11.6241 58.1065 12.0135 58.1065H20.832C21.2189 58.1065 21.5334 57.7919 21.5334 57.4051C21.5334 57.0157 21.2189 56.7012 20.832 56.7012Z" fill="#0C0C0C"/>
<path d="M21.6382 53.6113H12.0135C11.6241 53.6113 11.3096 53.9258 11.3096 54.3127C11.3096 54.7021 11.6241 55.0166 12.0135 55.0166H21.6382C22.0276 55.0166 22.3421 54.7021 22.3421 54.3127C22.3421 53.9258 22.0276 53.6113 21.6382 53.6113Z" fill="#0C0C0C"/>
<path d="M32.4616 53.6113H25.8396C25.4527 53.6113 25.1382 53.9258 25.1382 54.3127C25.1382 54.7021 25.4527 55.0166 25.8396 55.0166H32.4616C32.8485 55.0166 33.163 54.7021 33.163 54.3127C33.163 53.9258 32.8485 53.6113 32.4616 53.6113Z" fill="#0C0C0C"/>
<path d="M32.4611 50.5483H12.0135C11.6241 50.5483 11.3096 50.8628 11.3096 51.2522C11.3096 51.6391 11.6241 51.9536 12.0135 51.9536H32.4611C32.848 51.9536 33.1625 51.6391 33.1625 51.2522C33.1625 50.8628 32.848 50.5483 32.4611 50.5483Z" fill="#0C0C0C"/>
<path d="M32.4611 47.4585H12.0135C11.6241 47.4585 11.3096 47.773 11.3096 48.1599C11.3096 48.5493 11.6241 48.8638 12.0135 48.8638H32.4611C32.848 48.8638 33.1625 48.5493 33.1625 48.1599C33.1625 47.773 32.848 47.4585 32.4611 47.4585Z" fill="#0C0C0C"/>
<path d="M32.4611 44.3955H12.0135C11.6241 44.3955 11.3096 44.7075 11.3096 45.0969C11.3096 45.4838 11.6241 45.8008 12.0135 45.8008H32.4611C32.848 45.8008 33.1625 45.4838 33.1625 45.0969C33.1625 44.7075 32.848 44.3955 32.4611 44.3955Z" fill="#0C0C0C"/>
<path d="M32.4611 41.3306H12.0135C11.6241 41.3306 11.3096 41.6451 11.3096 42.0345C11.3096 42.4213 11.6241 42.7358 12.0135 42.7358H32.4611C32.848 42.7358 33.1625 42.4213 33.1625 42.0345C33.1625 41.6451 32.848 41.3306 32.4611 41.3306Z" fill="#0C0C0C"/>
<path d="M32.4611 38.2407H12.0135C11.6241 38.2407 11.3096 38.5552 11.3096 38.9446C11.3096 39.3315 11.6241 39.646 12.0135 39.646H32.4611C32.848 39.646 33.1625 39.3315 33.1625 38.9446C33.1625 38.5552 32.848 38.2407 32.4611 38.2407Z" fill="#0C0C0C"/>
<path d="M32.4611 35.1777H12.0135C11.6241 35.1777 11.3096 35.4922 11.3096 35.8816C11.3096 36.2685 11.6241 36.583 12.0135 36.583H32.4611C32.848 36.583 33.1625 36.2685 33.1625 35.8816C33.1625 35.4922 32.848 35.1777 32.4611 35.1777Z" fill="#0C0C0C"/>
<path d="M32.4611 32.0879H12.0135C11.6241 32.0879 11.3096 32.4024 11.3096 32.7893C11.3096 33.1787 11.6241 33.4932 12.0135 33.4932H32.4611C32.848 33.4932 33.1625 33.1787 33.1625 32.7893C33.1625 32.4024 32.848 32.0879 32.4611 32.0879Z" fill="#0C0C0C"/>
<path d="M32.4611 29.0249H12.0135C11.6241 29.0249 11.3096 29.3394 11.3096 29.7263C11.3096 30.1157 11.6241 30.4302 12.0135 30.4302H32.4611C32.848 30.4302 33.1625 30.1157 33.1625 29.7263C33.1625 29.3394 32.848 29.0249 32.4611 29.0249Z" fill="#0C0C0C"/>
<path d="M57.6667 22.8721H37.219C36.8296 22.8721 36.5151 23.1841 36.5151 23.5735C36.5151 23.9628 36.8296 24.2749 37.219 24.2749H57.6667C58.0561 24.2749 58.3706 23.9628 58.3706 23.5735C58.3706 23.1841 58.0561 22.8721 57.6667 22.8721Z" fill="#0C0C0C"/>
<path d="M32.4611 22.8721H12.0135C11.6241 22.8721 11.3096 23.1841 11.3096 23.5735C11.3096 23.9628 11.6241 24.2749 12.0135 24.2749H32.4611C32.848 24.2749 33.1625 23.9628 33.1625 23.5735C33.1625 23.1841 32.848 22.8721 32.4611 22.8721Z" fill="#0C0C0C"/>
<path d="M32.4611 25.9321H12.0135C11.6241 25.9321 11.3096 26.2466 11.3096 26.636C11.3096 27.0229 11.6241 27.3374 12.0135 27.3374H32.4611C32.848 27.3374 33.1625 27.0229 33.1625 26.636C33.1625 26.2466 32.848 25.9321 32.4611 25.9321Z" fill="#0C0C0C"/>
</g>
<defs>
<clipPath id="clip0_498_2">
<rect width="54" height="68" fill="white" transform="translate(8 10)"/>
</clipPath>
</defs>
</svg>
