<svg width="92" height="92" viewBox="0 0 92 92" fill="none" xmlns="http://www.w3.org/2000/svg">
<circle cx="54" cy="53" r="34" fill="#C9F3EE"/>
<path d="M71.1126 66.9831C71.1126 67.3238 70.842 67.5994 70.5089 67.5994H2.00659C1.67091 67.5994 1.40036 67.3238 1.40036 66.9831V64.1849C1.40036 63.8442 1.67091 63.5686 2.00659 63.5686H70.5089C70.842 63.5686 71.1126 63.8442 71.1126 64.1849V66.9831ZM66.145 77.5371H6.36799V68.9997H66.145V77.5371ZM7.36753 62.0856C7.36753 61.5746 7.77587 61.1612 8.27689 61.1612H18.846C19.347 61.1612 19.7553 61.5746 19.7553 62.0856V62.1683H7.36753V62.0856ZM24.2545 48.052C25.5421 47.8491 26.6794 47.6462 27.6965 47.4658L26.4565 51.7746L26.4139 51.9249C26.3438 52.1704 26.4114 52.4359 26.5943 52.6163L33.9192 59.8661C34.077 60.0214 34.3 60.0941 34.5154 60.0615C34.7359 60.0289 34.9263 59.8936 35.029 59.7007L36.2665 57.391L37.4815 59.6957C37.5867 59.8911 37.7771 60.0264 37.995 60.0615C38.0326 60.0665 38.0677 60.069 38.1027 60.069C38.1528 60.069 38.1979 60.0515 38.248 60.0414C38.2781 60.0339 38.3082 60.0339 38.3382 60.0239C38.4334 59.9888 38.5211 59.9387 38.5937 59.8661L45.9187 52.6163C46.1016 52.4359 46.1717 52.1704 46.0991 51.9249L46.0565 51.7746L44.8164 47.4658C45.8335 47.6462 46.9733 47.8491 48.256 48.052C52.6098 48.7559 55.1325 52.694 55.7663 59.7609H53.667C52.3944 59.7609 51.3573 60.803 51.3573 62.0856V62.1683H21.1557V62.0856C21.1557 60.803 20.1211 59.7609 18.846 59.7609H16.7467C17.3805 52.694 19.9056 48.7559 24.2545 48.052ZM29.3699 46.7719C29.3749 46.7543 29.3674 46.7343 29.3699 46.7168L29.405 46.599L30.6325 46.2157V48.4528C30.6325 48.5906 30.6726 48.7259 30.7477 48.8386L35.4573 55.9331L34.2374 58.2127L27.8769 51.9149L29.3699 46.7719ZM25.7901 34.8776V30.8619C30.6024 30.3183 35.6477 28.4319 40.8083 25.2454C42.4616 27.1994 44.4156 28.6599 46.7504 29.6845V34.8776C46.7504 40.7095 42.0508 45.4567 36.2715 45.4567C30.4922 45.4567 25.7901 40.7095 25.7901 34.8776ZM24.3898 30.2306V33.1466C23.0094 30.2306 22.6237 26.5456 23.5105 23.6622C25.3968 17.5648 31.5544 15.4004 36.2565 15.4004C40.9586 15.4004 47.1186 17.5648 49.0025 23.6622C49.8868 26.5256 49.511 30.1805 48.1533 33.0864V29.2211C48.1533 28.938 47.9804 28.6825 47.7174 28.5747C45.2223 27.5552 43.1906 26.0245 41.5097 23.8902C41.2867 23.6071 40.8884 23.5395 40.5853 23.7324C35.2018 27.1418 29.9686 29.0933 25.0286 29.5317C24.6653 29.5643 24.3898 29.8674 24.3898 30.2306ZM36.269 54.6279L32.0329 48.2424V46.0554C33.3531 46.5664 34.776 46.857 36.2715 46.857C37.7545 46.857 39.1699 46.569 40.4826 46.0654V48.2424L36.269 54.6279ZM43.1105 46.599L43.143 46.7168C43.148 46.7343 43.1405 46.7543 43.1455 46.7719L44.6386 51.9149L44.581 51.9725L38.2806 58.2077L37.0832 55.9381L41.7677 48.8386C41.8429 48.7234 41.883 48.5906 41.883 48.4528V46.2157L43.1105 46.599ZM64.2386 61.1612C64.7396 61.1612 65.1479 61.5746 65.1479 62.0856V62.1683H52.7602V62.0856C52.7602 61.5746 53.166 61.1612 53.667 61.1612H64.2386ZM12.5832 43.9185C12.5832 42.19 13.9209 40.8373 15.6294 40.8373C17.3504 40.8373 18.7007 42.19 18.7007 43.9185C18.7007 45.6596 17.3504 47.0249 15.6294 47.0249C13.9209 47.0249 12.5832 45.6596 12.5832 43.9185ZM56.8861 47.0249C55.1626 47.0249 53.8123 45.6596 53.8123 43.9185C53.8123 42.19 55.1626 40.8373 56.8861 40.8373C58.5946 40.8373 59.9323 42.19 59.9323 43.9185C59.9323 45.6596 58.5946 47.0249 56.8861 47.0249ZM70.5089 62.1683H66.5483V62.0856C66.5483 60.803 65.5137 59.7609 64.2386 59.7609H61.8487C62.2395 54.4926 60.7339 50.016 59.5941 47.4933C60.6513 46.6767 61.3326 45.3991 61.3326 43.9185C61.3326 41.4485 59.3386 39.4394 56.8861 39.4394C54.3785 39.4394 52.4119 41.4059 52.4119 43.9185C52.4119 46.4462 54.3785 48.4252 56.8861 48.4252C57.4096 48.4252 57.8981 48.32 58.3591 48.1597C59.4413 50.5821 60.8391 54.8133 60.4458 59.7609H57.1666C56.4878 51.9023 53.5718 47.4933 48.4764 46.6692C47.1437 46.4587 45.9663 46.2483 44.9242 46.0629L44.3856 45.9677L44.353 45.8525C44.2879 45.6245 44.1125 45.4467 43.8896 45.3765L42.627 44.9807C45.6732 43.0267 47.7775 39.7225 48.1006 35.9022C50.6208 32.5303 51.5627 27.2095 50.3427 23.2489C48.6067 17.6299 43.0779 14 36.2565 14C29.4376 14 23.9088 17.6324 22.1727 23.2489C20.9578 27.1919 21.8872 32.4802 24.4424 35.9247C24.7705 39.73 26.8723 43.0242 29.906 44.9757L28.6259 45.3765C28.4004 45.4467 28.2276 45.6245 28.1625 45.8525L28.1299 45.9677L27.5888 46.0629C26.5467 46.2483 25.3693 46.4587 24.034 46.6692C18.9437 47.4933 16.0277 51.9023 15.3488 59.7609H12.0696C11.6763 54.8108 13.0742 50.5821 14.1539 48.1597C14.6173 48.32 15.1058 48.4252 15.6294 48.4252C18.137 48.4252 20.101 46.4462 20.101 43.9185C20.101 41.4059 18.137 39.4394 15.6294 39.4394C13.1769 39.4394 11.1828 41.4485 11.1828 43.9185C11.1828 45.3966 11.8617 46.6767 12.9189 47.4933C11.7815 50.016 10.276 54.4926 10.6668 59.7609H8.27689C7.00179 59.7609 5.96467 60.803 5.96467 62.0856V62.1683H2.00659C0.899335 62.1683 0 63.0726 0 64.1849V66.9831C0 68.0954 0.899335 68.9997 2.00659 68.9997H4.96764V78.2361C4.96764 78.6244 5.28078 78.9375 5.66656 78.9375H66.8464C67.2347 78.9375 67.5478 78.6244 67.5478 78.2361V68.9997H70.5089C71.6136 68.9997 72.513 68.0954 72.513 66.9831V64.1849C72.513 63.0726 71.6136 62.1683 70.5089 62.1683Z" fill="#0C0C0C"/>
</svg>
