<svg width="101" height="101" viewBox="0 0 101 101" fill="none" xmlns="http://www.w3.org/2000/svg">
<circle cx="40" cy="41" r="34" fill="#C9F3EE"/>
<g clip-path="url(#clip0_498_6)">
<path d="M49.2793 75.9451H48.6286L47.3756 65.4408C47.3529 65.2675 47.279 65.1027 47.1597 64.972L38.6188 55.5901V42.7219L50.0379 57.8461L49.2793 75.9451ZM36.9225 40.1932V67.4724H20.8579V25.1116C20.8579 18.9262 23.8412 13.2663 28.8731 9.85962C33.925 13.2777 36.9225 18.9404 36.9225 25.1116V40.1932ZM21.966 70.217V69.1686H35.7803V70.217C35.7803 70.2284 35.7803 70.2398 35.7803 70.2511H21.966C21.966 70.2398 21.966 70.2284 21.966 70.217ZM34.2432 75.9451H21.6932C22.0995 74.9108 22.4632 73.9931 22.8155 73.135L23.2758 71.9474H34.4705L34.9364 73.1464C35.2831 73.9931 35.6439 74.9137 36.0531 75.9451H34.2432ZM28.8731 95.8937C25.7733 92.4302 23.9464 87.0886 23.9464 81.4003C23.9464 80.1019 24.0373 78.8631 24.2191 77.6385H33.5243C33.709 78.8631 33.7999 80.1019 33.7999 81.4003C33.7999 87.0914 31.9701 92.433 28.8731 95.8937ZM19.1616 55.5873L10.5866 64.9692C10.4673 65.0999 10.3934 65.2647 10.3707 65.4408L9.11769 75.9451H8.46704L7.70841 57.8461L19.1616 42.7191V55.5873ZM51.5722 57.0676L38.6188 39.909V25.1116C38.6188 18.1732 35.1439 11.8258 29.3278 8.13212C29.0493 7.95596 28.697 7.95596 28.4185 8.13212C22.6223 11.8116 19.1616 18.159 19.1616 25.1116V39.909L6.17128 57.0676C6.05194 57.2238 5.99228 57.417 6.0008 57.6131L6.80773 76.8259C6.82477 77.2805 7.19982 77.6385 7.65443 77.6385H9.87063C10.2997 77.6385 10.6605 77.3174 10.7116 76.8912L12.0215 65.9125L19.1616 58.1018V68.3191C19.1616 68.7879 19.5395 69.1686 20.0083 69.1686H20.2697V70.217C20.2697 71.0836 20.7897 71.7513 21.4801 71.8905L21.2386 72.5071C20.8891 73.3623 20.5226 74.2943 20.1078 75.3399L19.656 76.4792C19.5537 76.7406 19.5878 77.0361 19.7441 77.2691C19.9032 77.4992 20.1646 77.6385 20.4459 77.6385H22.5342C22.3609 78.8659 22.2501 80.1047 22.2501 81.4003C22.2501 87.887 24.5032 93.9929 28.2765 97.7264C28.4413 97.8883 28.6572 97.9707 28.8731 97.9707C29.0891 97.9707 29.305 97.8883 29.4698 97.7264C33.243 93.9929 35.4962 87.8898 35.4962 81.4003C35.4962 80.1047 35.3854 78.8659 35.2121 77.6385H37.3004C37.5788 77.6385 37.8431 77.4992 37.9994 77.2691C38.1585 77.0361 38.1926 76.7406 38.0874 76.4792L37.6499 75.374C37.2322 74.3142 36.86 73.3709 36.5105 72.5213L36.2662 71.8877C36.9566 71.7513 37.4766 71.0836 37.4766 70.217V69.1686H37.7692C38.238 69.1686 38.6188 68.7879 38.6188 68.3191V58.1075L45.722 65.9125L47.0346 76.8912C47.0858 77.3174 47.4466 77.6385 47.8757 77.6385H50.0919C50.5465 77.6385 50.9215 77.2805 50.9386 76.8259L51.7426 57.6131C51.7512 57.417 51.6915 57.2238 51.5722 57.0676Z" fill="#0C0C0C"/>
<path d="M34.6723 30.7713C34.6723 34.0047 32.0725 36.6357 28.8732 36.6357C25.674 36.6357 23.0713 34.0047 23.0713 30.7713C23.0713 27.5407 25.674 24.9097 28.8732 24.9097C32.0725 24.9097 34.6723 27.5407 34.6723 30.7713ZM21.3779 30.7713C21.3779 34.9394 24.7392 38.3291 28.8732 38.3291C33.0073 38.3291 36.3685 34.9394 36.3685 30.7713C36.3685 26.606 33.0073 23.2163 28.8732 23.2163C24.7392 23.2163 21.3779 26.606 21.3779 30.7713Z" fill="#0C0C0C"/>
<path d="M28.0264 26.6714C28.0264 27.1402 28.4043 27.5181 28.8731 27.5181C30.646 27.5181 32.0866 28.9785 32.0866 30.7714C32.0866 31.2402 32.4673 31.6209 32.9361 31.6209C33.4049 31.6209 33.7828 31.2402 33.7828 30.7714C33.7828 28.0438 31.5808 25.8247 28.8731 25.8247C28.4043 25.8247 28.0264 26.2026 28.0264 26.6714Z" fill="#0C0C0C"/>
<path d="M28.8731 44.9038C28.4043 44.9038 28.0264 45.2817 28.0264 45.7505C28.0264 46.2193 28.4043 46.5972 28.8731 46.5972C30.646 46.5972 32.0866 48.0576 32.0866 49.8505C32.0866 50.3193 32.4673 50.6972 32.9361 50.6972C33.4049 50.6972 33.7828 50.3193 33.7828 49.8505C33.7828 47.1229 31.5808 44.9038 28.8731 44.9038Z" fill="#0C0C0C"/>
<path d="M28.8732 55.7124C25.674 55.7124 23.0713 53.0843 23.0713 49.8509C23.0713 46.6203 25.674 43.9893 28.8732 43.9893C32.0725 43.9893 34.6723 46.6203 34.6723 49.8509C34.6723 53.0843 32.0725 55.7124 28.8732 55.7124ZM28.8732 42.2959C24.7392 42.2959 21.3779 45.6856 21.3779 49.8509C21.3779 54.019 24.7392 57.4087 28.8732 57.4087C33.0073 57.4087 36.3685 54.019 36.3685 49.8509C36.3685 45.6856 33.0073 42.2959 28.8732 42.2959Z" fill="#0C0C0C"/>
</g>
<defs>
<clipPath id="clip0_498_6">
<rect width="46" height="90" fill="white" transform="translate(6 8)"/>
</clipPath>
</defs>
</svg>
