<svg width="802" height="71" viewBox="0 0 802 71" fill="none" xmlns="http://www.w3.org/2000/svg">
<mask id="path-1-outside-1_61_33579" maskUnits="userSpaceOnUse" x="-2" y="-2" width="805" height="74" fill="black">
<rect fill="white" x="-2" y="-2" width="805" height="74"/>
<path d="M1.98 5.91H22.41L33.66 23.01L44.82 5.91H65.52L44.82 36.06L67.32 69H46.35L33.66 50.37L21.06 69H0.54L22.95 36.87L1.98 5.91ZM95.0048 69.81C89.6648 69.81 84.9248 68.73 80.7848 66.57C76.6448 64.41 73.3748 61.44 70.9748 57.66C68.6348 53.82 67.4648 49.44 67.4648 44.52C67.4648 39.6 68.6348 35.25 70.9748 31.47C73.3748 27.69 76.6448 24.75 80.7848 22.65C84.9248 20.49 89.6648 19.41 95.0048 19.41C100.345 19.41 105.085 20.49 109.225 22.65C113.425 24.75 116.695 27.69 119.035 31.47C121.375 35.25 122.545 39.6 122.545 44.52C122.545 49.44 121.375 53.82 119.035 57.66C116.695 61.44 113.425 64.41 109.225 66.57C105.085 68.73 100.345 69.81 95.0048 69.81ZM95.0048 56.22C96.9848 56.22 98.7248 55.77 100.225 54.87C101.785 53.97 103.015 52.65 103.915 50.91C104.815 49.11 105.265 46.98 105.265 44.52C105.265 42.06 104.815 39.99 103.915 38.31C103.015 36.57 101.785 35.25 100.225 34.35C98.7248 33.45 96.9848 33 95.0048 33C93.0848 33 91.3448 33.45 89.7848 34.35C88.2848 35.25 87.0548 36.57 86.0948 38.31C85.1948 39.99 84.7448 42.06 84.7448 44.52C84.7448 46.98 85.1948 49.11 86.0948 50.91C87.0548 52.65 88.2848 53.97 89.7848 54.87C91.3448 55.77 93.0848 56.22 95.0048 56.22ZM139.697 69V30.03L143.387 33.81H123.947V20.22H172.367V33.81H152.927L156.707 30.03V69H139.697ZM178.992 69V20.22H196.002V45.78L216.432 20.22H232.182V69H215.082V43.35L194.832 69H178.992ZM254.57 69V30.03L258.26 33.81H238.82V20.22H287.24V33.81H267.8L271.58 30.03V69H254.57ZM317.042 69.81C311.282 69.81 306.242 68.73 301.922 66.57C297.662 64.35 294.332 61.35 291.932 57.57C289.592 53.73 288.422 49.38 288.422 44.52C288.422 39.66 289.562 35.34 291.842 31.56C294.182 27.72 297.392 24.75 301.472 22.65C305.552 20.49 310.142 19.41 315.242 19.41C320.042 19.41 324.422 20.4 328.382 22.38C332.342 24.3 335.492 27.15 337.832 30.93C340.172 34.71 341.342 39.3 341.342 44.7C341.342 45.3 341.312 45.99 341.252 46.77C341.192 47.55 341.132 48.27 341.072 48.93H302.462V39.93H331.982L325.502 42.45C325.562 40.23 325.142 38.31 324.242 36.69C323.402 35.07 322.202 33.81 320.642 32.91C319.142 32.01 317.372 31.56 315.332 31.56C313.292 31.56 311.492 32.01 309.932 32.91C308.432 33.81 307.262 35.1 306.422 36.78C305.582 38.4 305.162 40.32 305.162 42.54V45.15C305.162 47.55 305.642 49.62 306.602 51.36C307.622 53.1 309.062 54.45 310.922 55.41C312.782 56.31 315.002 56.76 317.582 56.76C319.982 56.76 322.022 56.43 323.702 55.77C325.442 55.05 327.152 53.97 328.832 52.53L337.832 61.89C335.492 64.47 332.612 66.45 329.192 67.83C325.772 69.15 321.722 69.81 317.042 69.81ZM401.951 70.26C397.991 70.26 394.301 69.69 390.881 68.55C387.521 67.41 384.581 65.61 382.061 63.15C379.601 60.69 377.651 57.48 376.211 53.52C374.831 49.56 374.141 44.76 374.141 39.12C374.141 35.34 374.471 31.86 375.131 28.68C375.791 25.5 376.781 22.59 378.101 19.95C379.481 17.25 381.221 14.88 383.321 12.84C385.481 10.8 388.001 9.09 390.881 7.71C393.761 6.33 397.061 5.28 400.781 4.56L424.451 0.0599971L426.791 14.37L406.271 18.24C405.011 18.48 403.631 18.78 402.131 19.14C400.691 19.5 399.281 20.04 397.901 20.76C396.521 21.42 395.231 22.35 394.031 23.55C392.891 24.75 391.961 26.34 391.241 28.32C390.581 30.24 390.251 32.64 390.251 35.52C390.251 36.36 390.281 37.05 390.341 37.59C390.461 38.07 390.551 38.64 390.611 39.3C390.671 39.9 390.701 40.83 390.701 42.09L385.931 37.68C387.371 35.16 389.081 33.03 391.061 31.29C393.101 29.55 395.441 28.2 398.081 27.24C400.721 26.28 403.661 25.8 406.901 25.8C411.641 25.8 415.721 26.73 419.141 28.59C422.561 30.39 425.171 32.91 426.971 36.15C428.831 39.33 429.761 42.96 429.761 47.04C429.761 51.84 428.561 55.98 426.161 59.46C423.761 62.88 420.461 65.55 416.261 67.47C412.121 69.33 407.351 70.26 401.951 70.26ZM402.401 57.3C404.381 57.3 406.091 56.88 407.531 56.04C409.031 55.2 410.201 54.03 411.041 52.53C411.881 51.03 412.301 49.35 412.301 47.49C412.301 45.57 411.881 43.92 411.041 42.54C410.201 41.16 409.031 40.08 407.531 39.3C406.091 38.52 404.381 38.13 402.401 38.13C400.421 38.13 398.651 38.52 397.091 39.3C395.591 40.08 394.421 41.13 393.581 42.45C392.741 43.77 392.321 45.36 392.321 47.22C392.321 49.08 392.741 50.79 393.581 52.35C394.421 53.91 395.591 55.14 397.091 56.04C398.651 56.88 400.421 57.3 402.401 57.3ZM461.685 69.81C456.345 69.81 451.605 68.73 447.465 66.57C443.325 64.41 440.055 61.44 437.655 57.66C435.315 53.82 434.145 49.44 434.145 44.52C434.145 39.6 435.315 35.25 437.655 31.47C440.055 27.69 443.325 24.75 447.465 22.65C451.605 20.49 456.345 19.41 461.685 19.41C467.025 19.41 471.765 20.49 475.905 22.65C480.105 24.75 483.375 27.69 485.715 31.47C488.055 35.25 489.225 39.6 489.225 44.52C489.225 49.44 488.055 53.82 485.715 57.66C483.375 61.44 480.105 64.41 475.905 66.57C471.765 68.73 467.025 69.81 461.685 69.81ZM461.685 56.22C463.665 56.22 465.405 55.77 466.905 54.87C468.465 53.97 469.695 52.65 470.595 50.91C471.495 49.11 471.945 46.98 471.945 44.52C471.945 42.06 471.495 39.99 470.595 38.31C469.695 36.57 468.465 35.25 466.905 34.35C465.405 33.45 463.665 33 461.685 33C459.765 33 458.025 33.45 456.465 34.35C454.965 35.25 453.735 36.57 452.775 38.31C451.875 39.99 451.425 42.06 451.425 44.52C451.425 46.98 451.875 49.11 452.775 50.91C453.735 52.65 454.965 53.97 456.465 54.87C458.025 55.77 459.765 56.22 461.685 56.22ZM491.415 69L492.135 55.05C492.555 55.11 492.945 55.17 493.305 55.23C493.665 55.23 493.995 55.23 494.295 55.23C495.795 55.23 496.965 54.87 497.805 54.15C498.705 53.37 499.365 52.32 499.785 51C500.265 49.68 500.595 48.15 500.775 46.41C501.015 44.61 501.165 42.66 501.225 40.56L501.945 20.22H546.045V69H528.945V29.94L532.725 33.81H513.195L516.795 29.76L516.255 41.28C516.075 45.66 515.685 49.65 515.085 53.25C514.545 56.79 513.675 59.82 512.475 62.34C511.275 64.86 509.625 66.81 507.525 68.19C505.485 69.51 502.875 70.17 499.695 70.17C498.555 70.17 497.265 70.05 495.825 69.81C494.445 69.63 492.975 69.36 491.415 69ZM586.157 35.34C592.637 35.4 597.587 36.84 601.007 39.66C604.427 42.48 606.137 46.5 606.137 51.72C606.137 57.12 604.157 61.38 600.197 64.5C596.297 67.56 590.897 69.06 583.997 69H557.537V20.22H574.547V35.34H586.157ZM582.287 57.3C584.327 57.3 585.917 56.82 587.057 55.86C588.197 54.9 588.767 53.43 588.767 51.45C588.767 49.41 588.197 47.97 587.057 47.13C585.977 46.29 584.387 45.84 582.287 45.78H574.547V57.21L582.287 57.3ZM647.366 55.32L643.676 59.19V20.22H660.686V59.19L656.816 55.32H677.516L673.826 59.19V20.22H690.746V69H613.436V20.22H630.446V59.19L626.756 55.32H647.366ZM727.403 69.81C721.643 69.81 716.603 68.73 712.283 66.57C708.023 64.35 704.693 61.35 702.293 57.57C699.953 53.73 698.783 49.38 698.783 44.52C698.783 39.66 699.923 35.34 702.203 31.56C704.543 27.72 707.753 24.75 711.833 22.65C715.913 20.49 720.503 19.41 725.603 19.41C730.403 19.41 734.783 20.4 738.743 22.38C742.703 24.3 745.853 27.15 748.193 30.93C750.533 34.71 751.703 39.3 751.703 44.7C751.703 45.3 751.673 45.99 751.613 46.77C751.553 47.55 751.493 48.27 751.433 48.93H712.823V39.93H742.343L735.863 42.45C735.923 40.23 735.503 38.31 734.603 36.69C733.763 35.07 732.563 33.81 731.003 32.91C729.503 32.01 727.733 31.56 725.693 31.56C723.653 31.56 721.853 32.01 720.293 32.91C718.793 33.81 717.623 35.1 716.783 36.78C715.943 38.4 715.523 40.32 715.523 42.54V45.15C715.523 47.55 716.003 49.62 716.963 51.36C717.983 53.1 719.423 54.45 721.283 55.41C723.143 56.31 725.363 56.76 727.943 56.76C730.343 56.76 732.383 56.43 734.063 55.77C735.803 55.05 737.513 53.97 739.193 52.53L748.193 61.89C745.853 64.47 742.973 66.45 739.553 67.83C736.133 69.15 732.083 69.81 727.403 69.81ZM770.281 46.05C770.281 44.07 770.581 42.33 771.181 40.83C771.841 39.27 772.651 37.89 773.611 36.69C774.571 35.49 775.591 34.41 776.671 33.45C777.811 32.43 778.861 31.47 779.821 30.57C780.781 29.61 781.561 28.65 782.161 27.69C782.821 26.73 783.151 25.68 783.151 24.54C783.151 22.74 782.401 21.33 780.901 20.31C779.461 19.29 777.571 18.78 775.231 18.78C772.831 18.78 770.641 19.35 768.661 20.49C766.741 21.63 765.181 23.22 763.981 25.26L750.571 18.06C752.911 14.04 756.301 10.83 760.741 8.43C765.181 5.97 770.701 4.74 777.301 4.74C781.921 4.74 786.001 5.4 789.541 6.72C793.141 7.98 795.961 9.87 798.001 12.39C800.041 14.91 801.061 18 801.061 21.66C801.061 24 800.701 26.04 799.981 27.78C799.261 29.52 798.331 31.05 797.191 32.37C796.111 33.69 794.941 34.92 793.681 36.06C792.421 37.14 791.221 38.19 790.081 39.21C789.001 40.23 788.101 41.28 787.381 42.36C786.661 43.44 786.301 44.67 786.301 46.05H770.281ZM778.291 69.81C775.351 69.81 772.921 68.88 771.001 67.02C769.081 65.16 768.121 62.94 768.121 60.36C768.121 57.72 769.081 55.53 771.001 53.79C772.921 51.99 775.351 51.09 778.291 51.09C781.351 51.09 783.811 51.99 785.671 53.79C787.591 55.53 788.551 57.72 788.551 60.36C788.551 62.94 787.591 65.16 785.671 67.02C783.811 68.88 781.351 69.81 778.291 69.81Z"/>
</mask>
<path d="M1.98 5.91V4.91H0.094879L1.15205 6.47079L1.98 5.91ZM22.41 5.91L23.2454 5.36038L22.9491 4.91H22.41V5.91ZM33.66 23.01L32.8246 23.5596L33.6634 24.8346L34.4974 23.5565L33.66 23.01ZM44.82 5.91V4.91H44.2785L43.9826 5.36346L44.82 5.91ZM65.52 5.91L66.3444 6.476L67.4196 4.91H65.52V5.91ZM44.82 36.06L43.9956 35.494L43.608 36.0586L43.9943 36.624L44.82 36.06ZM67.32 69V70H69.2141L68.1458 68.436L67.32 69ZM46.35 69L45.5235 69.563L45.8212 70H46.35V69ZM33.66 50.37L34.4865 49.807L33.6571 48.5894L32.8317 49.8098L33.66 50.37ZM21.06 69V70H21.5909L21.8883 69.5602L21.06 69ZM0.54 69L-0.280202 68.4279L-1.37669 70H0.54V69ZM22.95 36.87L23.7702 37.4421L24.1634 36.8783L23.778 36.3092L22.95 36.87ZM1.98 6.91H22.41V4.91H1.98V6.91ZM21.5746 6.45961L32.8246 23.5596L34.4954 22.4604L23.2454 5.36038L21.5746 6.45961ZM34.4974 23.5565L45.6574 6.45653L43.9826 5.36346L32.8226 22.4635L34.4974 23.5565ZM44.82 6.91H65.52V4.91H44.82V6.91ZM64.6956 5.34399L43.9956 35.494L45.6444 36.626L66.3444 6.476L64.6956 5.34399ZM43.9943 36.624L66.4943 69.564L68.1458 68.436L45.6458 35.496L43.9943 36.624ZM67.32 68H46.35V70H67.32V68ZM47.1765 68.437L34.4865 49.807L32.8335 50.933L45.5235 69.563L47.1765 68.437ZM32.8317 49.8098L20.2317 68.4398L21.8883 69.5602L34.4883 50.9302L32.8317 49.8098ZM21.06 68H0.54V70H21.06V68ZM1.3602 69.5721L23.7702 37.4421L22.1298 36.2979L-0.280202 68.4279L1.3602 69.5721ZM23.778 36.3092L2.80795 5.3492L1.15205 6.47079L22.122 37.4308L23.778 36.3092ZM80.7848 66.57L81.2474 65.6834L80.7848 66.57ZM70.9748 57.66L70.1209 58.1804L70.1257 58.1882L70.1306 58.196L70.9748 57.66ZM70.9748 31.47L70.1306 30.934L70.1246 30.9436L70.9748 31.47ZM80.7848 22.65L81.2373 23.5419L81.2474 23.5366L80.7848 22.65ZM109.225 22.65L108.762 23.5366L108.77 23.5406L108.778 23.5444L109.225 22.65ZM119.035 31.47L119.885 30.9436L119.035 31.47ZM119.035 57.66L119.885 58.1864L119.889 58.1804L119.035 57.66ZM109.225 66.57L108.767 65.6807L108.762 65.6834L109.225 66.57ZM100.225 54.87L99.7251 54.0038L99.7177 54.0081L99.7104 54.0125L100.225 54.87ZM103.915 50.91L104.803 51.3695L104.809 51.3572L103.915 50.91ZM103.915 38.31L103.027 38.7694L103.03 38.7758L103.033 38.7822L103.915 38.31ZM100.225 34.35L99.7104 35.2075L99.7177 35.2119L99.7251 35.2162L100.225 34.35ZM89.7848 34.35L89.2851 33.4838L89.2777 33.4881L89.2703 33.4925L89.7848 34.35ZM86.0948 38.31L85.2192 37.8269L85.2134 37.8378L86.0948 38.31ZM86.0948 50.91L85.2004 51.3572L85.2095 51.3753L85.2193 51.3931L86.0948 50.91ZM89.7848 54.87L89.2703 55.7275L89.2777 55.7319L89.2851 55.7362L89.7848 54.87ZM95.0048 68.81C89.8026 68.81 85.2253 67.7588 81.2474 65.6834L80.3223 67.4566C84.6244 69.7012 89.5271 70.81 95.0048 70.81V68.81ZM81.2474 65.6834C77.2563 63.6011 74.1207 60.7491 71.8191 57.124L70.1306 58.196C72.629 62.1309 76.0334 65.2189 80.3223 67.4566L81.2474 65.6834ZM71.8288 57.1396C69.5932 53.471 68.4648 49.2743 68.4648 44.52H66.4648C66.4648 49.6057 67.6765 54.169 70.1209 58.1804L71.8288 57.1396ZM68.4648 44.52C68.4648 39.7655 69.5932 35.6017 71.8251 31.9964L70.1246 30.9436C67.6765 34.8983 66.4648 39.4345 66.4648 44.52H68.4648ZM71.8191 32.006C74.1191 28.3834 77.2513 25.5637 81.2372 23.5418L80.3325 21.7582C76.0384 23.9363 72.6306 26.9966 70.1306 30.934L71.8191 32.006ZM81.2474 23.5366C85.2253 21.4612 89.8026 20.41 95.0048 20.41V18.41C89.5271 18.41 84.6244 19.5188 80.3223 21.7634L81.2474 23.5366ZM95.0048 20.41C100.207 20.41 104.784 21.4612 108.762 23.5366L109.687 21.7634C105.385 19.5188 100.483 18.41 95.0048 18.41V20.41ZM108.778 23.5444C112.822 25.5664 115.948 28.3831 118.185 31.9964L119.885 30.9436C117.442 26.9969 114.028 23.9336 109.672 21.7556L108.778 23.5444ZM118.185 31.9964C120.416 35.6017 121.545 39.7655 121.545 44.52H123.545C123.545 39.4345 122.333 34.8983 119.885 30.9436L118.185 31.9964ZM121.545 44.52C121.545 49.2743 120.416 53.471 118.181 57.1396L119.889 58.1804C122.333 54.169 123.545 49.6057 123.545 44.52H121.545ZM118.185 57.1336C115.946 60.7495 112.816 63.5984 108.767 65.6807L109.682 67.4593C114.033 65.2216 117.444 62.1305 119.885 58.1864L118.185 57.1336ZM108.762 65.6834C104.784 67.7588 100.207 68.81 95.0048 68.81V70.81C100.483 70.81 105.385 69.7012 109.687 67.4566L108.762 65.6834ZM95.0048 57.22C97.1417 57.22 99.0642 56.7326 100.739 55.7275L99.7104 54.0125C98.3855 54.8074 96.828 55.22 95.0048 55.22V57.22ZM100.725 55.7362C102.465 54.7322 103.823 53.2639 104.803 51.3694L103.027 50.4506C102.207 52.0361 101.105 53.2078 99.7251 54.0038L100.725 55.7362ZM104.809 51.3572C105.792 49.3909 106.265 47.1013 106.265 44.52H104.265C104.265 46.8587 103.837 48.8291 103.02 50.4628L104.809 51.3572ZM106.265 44.52C106.265 41.9418 105.793 39.6992 104.796 37.8378L103.033 38.7822C103.836 40.2808 104.265 42.1782 104.265 44.52H106.265ZM104.803 37.8506C103.823 35.9561 102.465 34.4878 100.725 33.4838L99.7251 35.2162C101.105 36.0122 102.207 37.1839 103.027 38.7694L104.803 37.8506ZM100.739 33.4925C99.0642 32.4874 97.1417 32 95.0048 32V34C96.828 34 98.3855 34.4126 99.7104 35.2075L100.739 33.4925ZM95.0048 32C92.9214 32 91.0071 32.4903 89.2851 33.4838L90.2846 35.2162C91.6825 34.4097 93.2483 34 95.0048 34V32ZM89.2703 33.4925C87.5994 34.4951 86.2527 35.9538 85.2193 37.8269L86.9704 38.7931C87.857 37.1861 88.9703 36.0049 90.2993 35.2075L89.2703 33.4925ZM85.2134 37.8378C84.2162 39.6992 83.7448 41.9418 83.7448 44.52H85.7448C85.7448 42.1782 86.1735 40.2808 86.9763 38.7822L85.2134 37.8378ZM83.7448 44.52C83.7448 47.1013 84.2172 49.3909 85.2004 51.3572L86.9893 50.4628C86.1724 48.8291 85.7448 46.8587 85.7448 44.52H83.7448ZM85.2193 51.3931C86.2527 53.2662 87.5994 54.7249 89.2703 55.7275L90.2993 54.0125C88.9703 53.2151 87.857 52.0339 86.9704 50.4269L85.2193 51.3931ZM89.2851 55.7362C91.0071 56.7297 92.9214 57.22 95.0048 57.22V55.22C93.2483 55.22 91.6825 54.8103 90.2846 54.0038L89.2851 55.7362ZM139.697 69H138.697V70H139.697V69ZM139.697 30.03L140.412 29.3315L138.697 27.574V30.03H139.697ZM143.387 33.81V34.81H145.761L144.102 33.1115L143.387 33.81ZM123.947 33.81H122.947V34.81H123.947V33.81ZM123.947 20.22V19.22H122.947V20.22H123.947ZM172.367 20.22H173.367V19.22H172.367V20.22ZM172.367 33.81V34.81H173.367V33.81H172.367ZM152.927 33.81L152.22 33.1029L150.513 34.81H152.927V33.81ZM156.707 30.03H157.707V27.6158L156 29.3229L156.707 30.03ZM156.707 69V70H157.707V69H156.707ZM140.697 69V30.03H138.697V69H140.697ZM138.981 30.7285L142.671 34.5085L144.102 33.1115L140.412 29.3315L138.981 30.7285ZM143.387 32.81H123.947V34.81H143.387V32.81ZM124.947 33.81V20.22H122.947V33.81H124.947ZM123.947 21.22H172.367V19.22H123.947V21.22ZM171.367 20.22V33.81H173.367V20.22H171.367ZM172.367 32.81H152.927V34.81H172.367V32.81ZM153.634 34.5171L157.414 30.7371L156 29.3229L152.22 33.1029L153.634 34.5171ZM155.707 30.03V69H157.707V30.03H155.707ZM156.707 68H139.697V70H156.707V68ZM178.992 69H177.992V70H178.992V69ZM178.992 20.22V19.22H177.992V20.22H178.992ZM196.002 20.22H197.002V19.22H196.002V20.22ZM196.002 45.78H195.002V48.6327L196.784 46.4044L196.002 45.78ZM216.432 20.22V19.22H215.952L215.651 19.5956L216.432 20.22ZM232.182 20.22H233.182V19.22H232.182V20.22ZM232.182 69V70H233.182V69H232.182ZM215.082 69H214.082V70H215.082V69ZM215.082 43.35H216.082V40.4695L214.298 42.7304L215.082 43.35ZM194.832 69V70H195.317L195.617 69.6196L194.832 69ZM179.992 69V20.22H177.992V69H179.992ZM178.992 21.22H196.002V19.22H178.992V21.22ZM195.002 20.22V45.78H197.002V20.22H195.002ZM196.784 46.4044L217.214 20.8444L215.651 19.5956L195.221 45.1556L196.784 46.4044ZM216.432 21.22H232.182V19.22H216.432V21.22ZM231.182 20.22V69H233.182V20.22H231.182ZM232.182 68H215.082V70H232.182V68ZM216.082 69V43.35H214.082V69H216.082ZM214.298 42.7304L194.048 68.3804L195.617 69.6196L215.867 43.9696L214.298 42.7304ZM194.832 68H178.992V70H194.832V68ZM254.57 69H253.57V70H254.57V69ZM254.57 30.03L255.285 29.3315L253.57 27.574V30.03H254.57ZM258.26 33.81V34.81H260.634L258.975 33.1115L258.26 33.81ZM238.82 33.81H237.82V34.81H238.82V33.81ZM238.82 20.22V19.22H237.82V20.22H238.82ZM287.24 20.22H288.24V19.22H287.24V20.22ZM287.24 33.81V34.81H288.24V33.81H287.24ZM267.8 33.81L267.093 33.1029L265.386 34.81H267.8V33.81ZM271.58 30.03H272.58V27.6158L270.873 29.3229L271.58 30.03ZM271.58 69V70H272.58V69H271.58ZM255.57 69V30.03H253.57V69H255.57ZM253.854 30.7285L257.544 34.5085L258.975 33.1115L255.285 29.3315L253.854 30.7285ZM258.26 32.81H238.82V34.81H258.26V32.81ZM239.82 33.81V20.22H237.82V33.81H239.82ZM238.82 21.22H287.24V19.22H238.82V21.22ZM286.24 20.22V33.81H288.24V20.22H286.24ZM287.24 32.81H267.8V34.81H287.24V32.81ZM268.507 34.5171L272.287 30.7371L270.873 29.3229L267.093 33.1029L268.507 34.5171ZM270.58 30.03V69H272.58V30.03H270.58ZM271.58 68H254.57V70H271.58V68ZM301.922 66.57L301.46 67.4568L301.467 67.4607L301.475 67.4644L301.922 66.57ZM291.932 57.57L291.078 58.0904L291.083 58.0982L291.088 58.106L291.932 57.57ZM291.842 31.56L290.988 31.0396L290.986 31.0435L291.842 31.56ZM301.472 22.65L301.93 23.5392L301.94 23.5338L301.472 22.65ZM328.382 22.38L327.935 23.2745L327.946 23.2798L328.382 22.38ZM337.832 30.93L336.982 31.4564V31.4564L337.832 30.93ZM341.252 46.77L342.249 46.8467V46.8467L341.252 46.77ZM341.072 48.93V49.93H341.985L342.068 49.0205L341.072 48.93ZM302.462 48.93H301.462V49.93H302.462V48.93ZM302.462 39.93V38.93H301.462V39.93H302.462ZM331.982 39.93L332.344 40.862L331.982 38.93V39.93ZM325.502 42.45L324.502 42.423L324.462 43.9275L325.864 43.382L325.502 42.45ZM324.242 36.69L323.354 37.1503L323.361 37.1631L323.368 37.1756L324.242 36.69ZM320.642 32.91L320.127 33.7675L320.135 33.7719L320.142 33.7762L320.642 32.91ZM309.932 32.91L309.432 32.0438L309.425 32.0481L309.417 32.0525L309.932 32.91ZM306.422 36.78L307.31 37.2403L307.313 37.2338L307.316 37.2272L306.422 36.78ZM306.602 51.36L305.726 51.8431L305.733 51.8545L305.739 51.8657L306.602 51.36ZM310.922 55.41L310.463 56.2986L310.475 56.3045L310.486 56.3102L310.922 55.41ZM323.702 55.77L324.068 56.7008L324.076 56.6975L324.084 56.694L323.702 55.77ZM328.832 52.53L329.553 51.8369L328.898 51.1561L328.181 51.7707L328.832 52.53ZM337.832 61.89L338.573 62.5618L339.2 61.8701L338.553 61.1969L337.832 61.89ZM329.192 67.83L329.552 68.7629L329.559 68.7602L329.566 68.7573L329.192 67.83ZM317.042 68.81C311.407 68.81 306.526 67.754 302.369 65.6756L301.475 67.4644C305.958 69.706 311.156 70.81 317.042 70.81V68.81ZM302.384 65.6832C298.268 63.5384 295.075 60.6547 292.776 57.034L291.088 58.106C293.589 62.0453 297.056 65.1616 301.46 67.4568L302.384 65.6832ZM292.786 57.0496C290.549 53.379 289.422 49.2118 289.422 44.52H287.422C287.422 49.5482 288.635 54.081 291.078 58.0904L292.786 57.0496ZM289.422 44.52C289.422 39.8231 290.522 35.6852 292.698 32.0765L290.986 31.0435C288.602 34.9948 287.422 39.4969 287.422 44.52H289.422ZM292.696 32.0804C294.938 28.4007 298.009 25.5568 301.93 23.5391L301.014 21.7609C296.774 23.9432 293.426 27.0393 290.988 31.0396L292.696 32.0804ZM301.94 23.5338C305.861 21.4578 310.288 20.41 315.242 20.41V18.41C309.996 18.41 305.243 19.5221 301.004 21.7662L301.94 23.5338ZM315.242 20.41C319.9 20.41 324.125 21.3696 327.935 23.2744L328.829 21.4856C324.719 19.4304 320.184 18.41 315.242 18.41V20.41ZM327.946 23.2798C331.733 25.1162 334.74 27.8358 336.982 31.4564L338.682 30.4036C336.243 26.4642 332.951 23.4838 328.818 21.4802L327.946 23.2798ZM336.982 31.4564C339.205 35.0473 340.342 39.4459 340.342 44.7H342.342C342.342 39.1541 341.139 34.3727 338.682 30.4036L336.982 31.4564ZM340.342 44.7C340.342 45.2681 340.313 45.9316 340.255 46.6933L342.249 46.8467C342.31 46.0484 342.342 45.3319 342.342 44.7H340.342ZM340.255 46.6933C340.195 47.4695 340.135 48.1848 340.076 48.8395L342.068 49.0205C342.128 48.3552 342.189 47.6305 342.249 46.8467L340.255 46.6933ZM341.072 47.93H302.462V49.93H341.072V47.93ZM303.462 48.93V39.93H301.462V48.93H303.462ZM302.462 40.93H331.982V38.93H302.462V40.93ZM331.619 38.998L325.139 41.518L325.864 43.382L332.344 40.862L331.619 38.998ZM326.501 42.477C326.565 40.1136 326.119 38.0094 325.116 36.2044L323.368 37.1756C324.165 38.6106 324.558 40.3464 324.502 42.423L326.501 42.477ZM325.13 36.2297C324.203 34.4425 322.869 33.0406 321.142 32.0438L320.142 33.7762C321.534 34.5794 322.601 35.6975 323.354 37.1503L325.13 36.2297ZM321.156 32.0525C319.477 31.0447 317.523 30.56 315.332 30.56V32.56C317.221 32.56 318.807 32.9753 320.127 33.7675L321.156 32.0525ZM315.332 30.56C313.14 30.56 311.163 31.045 309.432 32.0438L310.432 33.7762C311.82 32.975 313.444 32.56 315.332 32.56V30.56ZM309.417 32.0525C307.742 33.0576 306.446 34.4958 305.527 36.3328L307.316 37.2272C308.078 35.7042 309.122 34.5624 310.446 33.7675L309.417 32.0525ZM305.534 36.3197C304.606 38.1095 304.162 40.1941 304.162 42.54H306.162C306.162 40.4459 306.558 38.6905 307.31 37.2403L305.534 36.3197ZM304.162 42.54V45.15H306.162V42.54H304.162ZM304.162 45.15C304.162 47.684 304.669 49.9273 305.726 51.8431L307.477 50.8769C306.614 49.3127 306.162 47.416 306.162 45.15H304.162ZM305.739 51.8657C306.859 53.7754 308.442 55.2553 310.463 56.2986L311.381 54.5214C309.682 53.6447 308.385 52.4246 307.465 50.8543L305.739 51.8657ZM310.486 56.3102C312.512 57.2901 314.888 57.76 317.582 57.76V55.76C315.116 55.76 313.052 55.3299 311.357 54.5098L310.486 56.3102ZM317.582 57.76C320.068 57.76 322.24 57.4189 324.068 56.7008L323.336 54.8392C321.804 55.4411 319.896 55.76 317.582 55.76V57.76ZM324.084 56.694C325.937 55.9273 327.736 54.7863 329.483 53.2893L328.181 51.7707C326.568 53.1537 324.947 54.1727 323.32 54.846L324.084 56.694ZM328.111 53.2231L337.111 62.5831L338.553 61.1969L329.553 51.8369L328.111 53.2231ZM337.091 61.2182C334.858 63.6799 332.106 65.5757 328.818 66.9026L329.566 68.7573C333.118 67.3243 336.125 65.2601 338.573 62.5618L337.091 61.2182ZM328.832 66.8971C325.554 68.1624 321.631 68.81 317.042 68.81V70.81C321.812 70.81 325.99 70.1376 329.552 68.7629L328.832 66.8971ZM390.881 68.55L390.559 69.497L390.564 69.4987L390.881 68.55ZM382.061 63.15L381.353 63.8572L381.362 63.8656L382.061 63.15ZM376.211 53.52L375.266 53.8491L375.271 53.8617L376.211 53.52ZM375.131 28.68L376.11 28.8832L375.131 28.68ZM378.101 19.95L377.21 19.4949L377.206 19.5028L378.101 19.95ZM383.321 12.84L382.634 12.1129L382.624 12.1227L383.321 12.84ZM390.881 7.71L390.448 6.80818L390.881 7.71ZM400.781 4.56L400.594 3.57759L400.591 3.57822L400.781 4.56ZM424.451 0.0599976L425.437 -0.101381L425.272 -1.11405L424.264 -0.922407L424.451 0.0599976ZM426.791 14.37L426.976 15.3527L427.935 15.1718L427.777 14.2086L426.791 14.37ZM406.271 18.24L406.085 17.2573L406.083 17.2577L406.271 18.24ZM402.131 19.14L401.897 18.1676L401.888 18.1699L402.131 19.14ZM397.901 20.76L398.332 21.6621L398.348 21.6546L398.363 21.6466L397.901 20.76ZM394.031 23.55L393.323 22.8429L393.314 22.852L393.306 22.8613L394.031 23.55ZM391.241 28.32L390.301 27.9783L390.298 27.9866L390.295 27.9949L391.241 28.32ZM390.341 37.59L389.347 37.7004L389.354 37.7673L389.37 37.8325L390.341 37.59ZM390.611 39.3L389.615 39.3905L389.616 39.3995L390.611 39.3ZM390.701 42.09L390.022 42.8243L391.701 44.3764V42.09H390.701ZM385.931 37.68L385.062 37.1839L384.668 37.8744L385.252 38.4143L385.931 37.68ZM391.061 31.29L390.412 30.5292L390.406 30.534L390.4 30.5388L391.061 31.29ZM419.141 28.59L418.663 29.4686L418.675 29.4749L419.141 28.59ZM426.971 36.15L426.096 36.6356L426.102 36.6453L426.107 36.6549L426.971 36.15ZM426.161 59.46L426.979 60.0344L426.984 60.0277L426.161 59.46ZM416.261 67.47L416.67 68.3822L416.676 68.3795L416.261 67.47ZM407.531 56.04L407.042 55.1675L407.034 55.1718L407.027 55.1762L407.531 56.04ZM411.041 52.53L410.168 52.0414L411.041 52.53ZM411.041 42.54L410.186 43.0599L411.041 42.54ZM407.531 39.3L407.054 40.1793L407.062 40.1833L407.069 40.1872L407.531 39.3ZM397.091 39.3L396.643 38.4056L396.636 38.4091L396.629 38.4128L397.091 39.3ZM393.581 42.45L392.737 41.9131L393.581 42.45ZM393.581 52.35L394.461 51.8759L393.581 52.35ZM397.091 56.04L396.576 56.8975L396.596 56.9095L396.616 56.9205L397.091 56.04ZM401.951 69.26C398.087 69.26 394.505 68.7042 391.197 67.6013L390.564 69.4987C394.096 70.6758 397.894 71.26 401.951 71.26V69.26ZM391.202 67.603C387.982 66.5106 385.171 64.7893 382.759 62.4344L381.362 63.8656C383.99 66.4307 387.059 68.3094 390.559 69.497L391.202 67.603ZM382.768 62.4429C380.43 60.1057 378.551 57.0294 377.15 53.1783L375.271 53.8617C376.75 57.9306 378.771 61.2743 381.353 63.8571L382.768 62.4429ZM377.155 53.1909C375.822 49.3662 375.141 44.6841 375.141 39.12H373.141C373.141 44.8359 373.839 49.7538 375.266 53.8491L377.155 53.1909ZM375.141 39.12C375.141 35.3975 375.466 31.9865 376.11 28.8832L374.151 28.4768C373.475 31.7335 373.141 35.2825 373.141 39.12H375.141ZM376.11 28.8832C376.754 25.7795 377.717 22.9526 378.995 20.3972L377.206 19.5028C375.844 22.2274 374.827 25.2205 374.151 28.4768L376.11 28.8832ZM378.991 20.4051C380.323 17.799 381.999 15.5184 384.017 13.5573L382.624 12.1227C380.443 14.2416 378.638 16.701 377.21 19.4949L378.991 20.4051ZM384.007 13.567C386.086 11.6032 388.519 9.95042 391.313 8.61181L390.448 6.80818C387.482 8.22957 384.875 9.99676 382.634 12.113L384.007 13.567ZM391.313 8.61181C394.103 7.27478 397.319 6.24848 400.971 5.54178L400.591 3.57822C396.802 4.31151 393.418 5.38521 390.448 6.80818L391.313 8.61181ZM400.967 5.5424L424.637 1.0424L424.264 -0.922407L400.594 3.57759L400.967 5.5424ZM423.464 0.221376L425.804 14.5314L427.777 14.2086L425.437 -0.101381L423.464 0.221376ZM426.605 13.3873L406.085 17.2573L406.456 19.2227L426.976 15.3527L426.605 13.3873ZM406.083 17.2577C404.805 17.5011 403.41 17.8046 401.897 18.1676L402.364 20.1124C403.852 19.7554 405.216 19.4589 406.458 19.2223L406.083 17.2577ZM401.888 18.1699C400.368 18.5499 398.884 19.1188 397.438 19.8734L398.363 21.6466C399.677 20.9612 401.013 20.4501 402.373 20.1101L401.888 18.1699ZM397.469 19.8579C395.976 20.5718 394.595 21.5714 393.323 22.8429L394.738 24.2571C395.866 23.1286 397.065 22.2682 398.332 21.6621L397.469 19.8579ZM393.306 22.8613C392.049 24.1841 391.055 25.903 390.301 27.9783L392.18 28.6617C392.866 26.777 393.732 25.3159 394.756 24.2388L393.306 22.8613ZM390.295 27.9949C389.587 30.0533 389.251 32.5718 389.251 35.52H391.251C391.251 32.7082 391.574 30.4267 392.186 28.6451L390.295 27.9949ZM389.251 35.52C389.251 36.3793 389.281 37.1097 389.347 37.7004L391.334 37.4796C391.28 36.9903 391.251 36.3407 391.251 35.52H389.251ZM389.37 37.8325C389.475 38.2491 389.558 38.7658 389.615 39.3905L391.606 39.2095C391.543 38.5142 391.447 37.8909 391.311 37.3475L389.37 37.8325ZM389.616 39.3995C389.67 39.9472 389.701 40.8356 389.701 42.09H391.701C391.701 40.8244 391.671 39.8528 391.606 39.2005L389.616 39.3995ZM391.379 41.3557L386.609 36.9457L385.252 38.4143L390.022 42.8243L391.379 41.3557ZM386.799 38.1761C388.189 35.7424 389.832 33.7012 391.721 32.0412L390.4 30.5388C388.329 32.3588 386.552 34.5776 385.062 37.1839L386.799 38.1761ZM391.71 32.0508C393.654 30.392 395.889 29.1009 398.422 28.1798L397.739 26.3002C394.992 27.2991 392.547 28.708 390.412 30.5292L391.71 32.0508ZM398.422 28.1798C400.937 27.2652 403.76 26.8 406.901 26.8V24.8C403.562 24.8 400.504 25.2948 397.739 26.3002L398.422 28.1798ZM406.901 26.8C411.51 26.8 415.418 27.7038 418.663 29.4685L419.618 27.7115C416.023 25.7562 411.771 24.8 406.901 24.8V26.8ZM418.675 29.4749C421.931 31.1884 424.395 33.5731 426.096 36.6356L427.845 35.6644C425.946 32.2469 423.191 29.5916 419.606 27.7051L418.675 29.4749ZM426.107 36.6549C427.868 39.6656 428.761 43.1179 428.761 47.04H430.761C430.761 42.8021 429.793 38.9943 427.834 35.6451L426.107 36.6549ZM428.761 47.04C428.761 51.6657 427.607 55.6012 425.337 58.8923L426.984 60.0277C429.514 56.3588 430.761 52.0143 430.761 47.04H428.761ZM425.342 58.8856C423.055 62.1451 419.901 64.7064 415.845 66.5605L416.676 68.3795C421.02 66.3936 424.466 63.6149 426.979 60.0344L425.342 58.8856ZM415.851 66.5578C411.862 68.35 407.236 69.26 401.951 69.26V71.26C407.465 71.26 412.379 70.31 416.67 68.3822L415.851 66.5578ZM402.401 58.3C404.524 58.3 406.415 57.8484 408.034 56.9038L407.027 55.1762C405.766 55.9116 404.237 56.3 402.401 56.3V58.3ZM408.019 56.9125C409.68 55.9824 410.983 54.6795 411.913 53.0186L410.168 52.0414C409.418 53.3805 408.381 54.4176 407.042 55.1675L408.019 56.9125ZM411.913 53.0186C412.843 51.3572 413.301 49.5067 413.301 47.49H411.301C411.301 49.1933 410.918 50.7028 410.168 52.0414L411.913 53.0186ZM413.301 47.49C413.301 45.4215 412.847 43.584 411.895 42.0201L410.186 43.0599C410.914 44.256 411.301 45.7185 411.301 47.49H413.301ZM411.895 42.0201C410.955 40.4766 409.646 39.2729 407.992 38.4128L407.069 40.1872C408.415 40.8871 409.446 41.8434 410.186 43.0599L411.895 42.0201ZM408.007 38.4207C406.393 37.5465 404.512 37.13 402.401 37.13V39.13C404.249 39.13 405.788 39.4935 407.054 40.1793L408.007 38.4207ZM402.401 37.13C400.286 37.13 398.36 37.5473 396.643 38.4056L397.538 40.1944C398.941 39.4927 400.555 39.13 402.401 39.13V37.13ZM396.629 38.4128C394.986 39.2672 393.679 40.4329 392.737 41.9131L394.424 42.9869C395.162 41.8271 396.195 40.8928 397.552 40.1872L396.629 38.4128ZM392.737 41.9131C391.777 43.4217 391.321 45.2062 391.321 47.22H393.321C393.321 45.5138 393.704 44.1183 394.424 42.9869L392.737 41.9131ZM391.321 47.22C391.321 49.237 391.778 51.1111 392.7 52.8241L394.461 51.8759C393.703 50.4689 393.321 48.923 393.321 47.22H391.321ZM392.7 52.8241C393.624 54.5403 394.92 55.9037 396.576 56.8975L397.605 55.1825C396.261 54.3763 395.217 53.2797 394.461 51.8759L392.7 52.8241ZM396.616 56.9205C398.339 57.8478 400.275 58.3 402.401 58.3V56.3C400.566 56.3 398.962 55.9122 397.565 55.1595L396.616 56.9205ZM447.465 66.57L447.927 65.6834L447.465 66.57ZM437.655 57.66L436.801 58.1804L436.805 58.1882L436.81 58.196L437.655 57.66ZM437.655 31.47L436.81 30.934L436.804 30.9436L437.655 31.47ZM447.465 22.65L447.917 23.5419L447.927 23.5366L447.465 22.65ZM475.905 22.65L475.442 23.5366L475.45 23.5406L475.457 23.5444L475.905 22.65ZM485.715 31.47L486.565 30.9436L485.715 31.47ZM485.715 57.66L486.565 58.1864L486.568 58.1804L485.715 57.66ZM475.905 66.57L475.447 65.6807L475.442 65.6834L475.905 66.57ZM466.905 54.87L466.405 54.0038L466.397 54.0081L466.39 54.0125L466.905 54.87ZM470.595 50.91L471.483 51.3695L471.489 51.3572L470.595 50.91ZM470.595 38.31L469.706 38.7694L469.71 38.7758L469.713 38.7822L470.595 38.31ZM466.905 34.35L466.39 35.2075L466.397 35.2119L466.405 35.2162L466.905 34.35ZM456.465 34.35L455.965 33.4838L455.957 33.4881L455.95 33.4925L456.465 34.35ZM452.775 38.31L451.899 37.8269L451.893 37.8378L452.775 38.31ZM452.775 50.91L451.88 51.3572L451.889 51.3753L451.899 51.3931L452.775 50.91ZM456.465 54.87L455.95 55.7275L455.957 55.7319L455.965 55.7362L456.465 54.87ZM461.685 68.81C456.482 68.81 451.905 67.7588 447.927 65.6834L447.002 67.4566C451.304 69.7012 456.207 70.81 461.685 70.81V68.81ZM447.927 65.6834C443.936 63.6011 440.8 60.7491 438.499 57.124L436.81 58.196C439.309 62.1309 442.713 65.2189 447.002 67.4566L447.927 65.6834ZM438.508 57.1396C436.273 53.471 435.145 49.2743 435.145 44.52H433.145C433.145 49.6057 434.356 54.169 436.801 58.1804L438.508 57.1396ZM435.145 44.52C435.145 39.7655 436.273 35.6017 438.505 31.9964L436.804 30.9436C434.356 34.8983 433.145 39.4345 433.145 44.52H435.145ZM438.499 32.006C440.799 28.3834 443.931 25.5637 447.917 23.5418L447.012 21.7582C442.718 23.9363 439.31 26.9966 436.81 30.934L438.499 32.006ZM447.927 23.5366C451.905 21.4612 456.482 20.41 461.685 20.41V18.41C456.207 18.41 451.304 19.5188 447.002 21.7634L447.927 23.5366ZM461.685 20.41C466.887 20.41 471.464 21.4612 475.442 23.5366L476.367 21.7634C472.065 19.5188 467.162 18.41 461.685 18.41V20.41ZM475.457 23.5444C479.501 25.5664 482.627 28.3831 484.864 31.9964L486.565 30.9436C484.122 26.9969 480.708 23.9336 476.352 21.7556L475.457 23.5444ZM484.864 31.9964C487.096 35.6017 488.225 39.7655 488.225 44.52H490.225C490.225 39.4345 489.013 34.8983 486.565 30.9436L484.864 31.9964ZM488.225 44.52C488.225 49.2743 487.096 53.471 484.861 57.1396L486.568 58.1804C489.013 54.169 490.225 49.6057 490.225 44.52H488.225ZM484.864 57.1336C482.626 60.7495 479.496 63.5984 475.447 65.6807L476.362 67.4593C480.713 65.2216 484.123 62.1305 486.565 58.1864L484.864 57.1336ZM475.442 65.6834C471.464 67.7588 466.887 68.81 461.685 68.81V70.81C467.162 70.81 472.065 69.7012 476.367 67.4566L475.442 65.6834ZM461.685 57.22C463.821 57.22 465.744 56.7326 467.419 55.7275L466.39 54.0125C465.065 54.8074 463.508 55.22 461.685 55.22V57.22ZM467.404 55.7362C469.145 54.7322 470.503 53.2639 471.483 51.3694L469.706 50.4506C468.886 52.0361 467.785 53.2078 466.405 54.0038L467.404 55.7362ZM471.489 51.3572C472.472 49.3909 472.945 47.1013 472.945 44.52H470.945C470.945 46.8587 470.517 48.8291 469.7 50.4628L471.489 51.3572ZM472.945 44.52C472.945 41.9418 472.473 39.6992 471.476 37.8378L469.713 38.7822C470.516 40.2808 470.945 42.1782 470.945 44.52H472.945ZM471.483 37.8506C470.503 35.9561 469.145 34.4878 467.404 33.4838L466.405 35.2162C467.785 36.0122 468.886 37.1839 469.706 38.7694L471.483 37.8506ZM467.419 33.4925C465.744 32.4874 463.821 32 461.685 32V34C463.508 34 465.065 34.4126 466.39 35.2075L467.419 33.4925ZM461.685 32C459.601 32 457.687 32.4903 455.965 33.4838L456.964 35.2162C458.362 34.4097 459.928 34 461.685 34V32ZM455.95 33.4925C454.279 34.4951 452.932 35.9538 451.899 37.8269L453.65 38.7931C454.537 37.1861 455.65 36.0049 456.979 35.2075L455.95 33.4925ZM451.893 37.8378C450.896 39.6992 450.425 41.9418 450.425 44.52H452.425C452.425 42.1782 452.853 40.2808 453.656 38.7822L451.893 37.8378ZM450.425 44.52C450.425 47.1013 450.897 49.3909 451.88 51.3572L453.669 50.4628C452.852 48.8291 452.425 46.8587 452.425 44.52H450.425ZM451.899 51.3931C452.932 53.2662 454.279 54.7249 455.95 55.7275L456.979 54.0125C455.65 53.2151 454.537 52.0339 453.65 50.4269L451.899 51.3931ZM455.965 55.7362C457.687 56.7297 459.601 57.22 461.685 57.22V55.22C459.928 55.22 458.362 54.8103 456.964 54.0038L455.965 55.7362ZM491.415 69L490.417 68.9485L490.374 69.7858L491.191 69.9744L491.415 69ZM492.135 55.05L492.277 54.0601L491.193 53.9052L491.137 54.9985L492.135 55.05ZM493.305 55.23L493.141 56.2164L493.223 56.23H493.305V55.23ZM497.805 54.15L498.456 54.9093L498.46 54.9057L497.805 54.15ZM499.785 51L498.846 50.6583L498.839 50.6774L498.833 50.6968L499.785 51ZM500.775 46.41L499.784 46.2778L499.782 46.2924L499.781 46.3071L500.775 46.41ZM501.225 40.56L500.226 40.5246L500.226 40.5314L501.225 40.56ZM501.945 20.22V19.22H500.98L500.946 20.1846L501.945 20.22ZM546.045 20.22H547.045V19.22H546.045V20.22ZM546.045 69V70H547.045V69H546.045ZM528.945 69H527.945V70H528.945V69ZM528.945 29.94L529.661 29.2413L527.945 27.485V29.94H528.945ZM532.725 33.81V34.81H535.1L533.441 33.1113L532.725 33.81ZM513.195 33.81L512.448 33.1456L510.969 34.81H513.195V33.81ZM516.795 29.76L517.794 29.8068L517.927 26.9821L516.048 29.0956L516.795 29.76ZM516.255 41.28L515.257 41.2332L515.256 41.2389L516.255 41.28ZM515.085 53.25L514.099 53.0856L514.097 53.0992L515.085 53.25ZM512.475 62.34L513.378 62.7699L512.475 62.34ZM507.525 68.19L508.069 69.0296L508.075 69.0257L507.525 68.19ZM495.825 69.81L495.99 68.8236L495.972 68.8207L495.955 68.8184L495.825 69.81ZM492.414 69.0515L493.134 55.1015L491.137 54.9985L490.417 68.9485L492.414 69.0515ZM491.994 56.0399C492.408 56.099 492.79 56.1579 493.141 56.2164L493.47 54.2436C493.101 54.1821 492.703 54.121 492.277 54.0601L491.994 56.0399ZM493.305 56.23C493.306 56.23 493.307 56.23 493.308 56.23C493.308 56.23 493.309 56.23 493.31 56.23C493.31 56.23 493.311 56.23 493.312 56.23C493.312 56.23 493.313 56.23 493.314 56.23C493.315 56.23 493.315 56.23 493.316 56.23C493.317 56.23 493.317 56.23 493.318 56.23C493.319 56.23 493.32 56.23 493.32 56.23C493.321 56.23 493.322 56.23 493.322 56.23C493.323 56.23 493.324 56.23 493.324 56.23C493.325 56.23 493.326 56.23 493.327 56.23C493.327 56.23 493.328 56.23 493.329 56.23C493.329 56.23 493.33 56.23 493.331 56.23C493.331 56.23 493.332 56.23 493.333 56.23C493.334 56.23 493.334 56.23 493.335 56.23C493.336 56.23 493.336 56.23 493.337 56.23C493.338 56.23 493.338 56.23 493.339 56.23C493.34 56.23 493.341 56.23 493.341 56.23C493.342 56.23 493.343 56.23 493.343 56.23C493.344 56.23 493.345 56.23 493.345 56.23C493.346 56.23 493.347 56.23 493.348 56.23C493.348 56.23 493.349 56.23 493.35 56.23C493.35 56.23 493.351 56.23 493.352 56.23C493.352 56.23 493.353 56.23 493.354 56.23C493.354 56.23 493.355 56.23 493.356 56.23C493.357 56.23 493.357 56.23 493.358 56.23C493.359 56.23 493.359 56.23 493.36 56.23C493.361 56.23 493.361 56.23 493.362 56.23C493.363 56.23 493.364 56.23 493.364 56.23C493.365 56.23 493.366 56.23 493.366 56.23C493.367 56.23 493.368 56.23 493.368 56.23C493.369 56.23 493.37 56.23 493.371 56.23C493.371 56.23 493.372 56.23 493.373 56.23C493.373 56.23 493.374 56.23 493.375 56.23C493.375 56.23 493.376 56.23 493.377 56.23C493.377 56.23 493.378 56.23 493.379 56.23C493.38 56.23 493.38 56.23 493.381 56.23C493.382 56.23 493.382 56.23 493.383 56.23C493.384 56.23 493.384 56.23 493.385 56.23C493.386 56.23 493.387 56.23 493.387 56.23C493.388 56.23 493.389 56.23 493.389 56.23C493.39 56.23 493.391 56.23 493.391 56.23C493.392 56.23 493.393 56.23 493.393 56.23C493.394 56.23 493.395 56.23 493.396 56.23C493.396 56.23 493.397 56.23 493.398 56.23C493.398 56.23 493.399 56.23 493.4 56.23C493.4 56.23 493.401 56.23 493.402 56.23C493.402 56.23 493.403 56.23 493.404 56.23C493.405 56.23 493.405 56.23 493.406 56.23C493.407 56.23 493.407 56.23 493.408 56.23C493.409 56.23 493.409 56.23 493.41 56.23C493.411 56.23 493.411 56.23 493.412 56.23C493.413 56.23 493.414 56.23 493.414 56.23C493.415 56.23 493.416 56.23 493.416 56.23C493.417 56.23 493.418 56.23 493.418 56.23C493.419 56.23 493.42 56.23 493.42 56.23C493.421 56.23 493.422 56.23 493.423 56.23C493.423 56.23 493.424 56.23 493.425 56.23C493.425 56.23 493.426 56.23 493.427 56.23C493.427 56.23 493.428 56.23 493.429 56.23C493.429 56.23 493.43 56.23 493.431 56.23C493.431 56.23 493.432 56.23 493.433 56.23C493.434 56.23 493.434 56.23 493.435 56.23C493.436 56.23 493.436 56.23 493.437 56.23C493.438 56.23 493.438 56.23 493.439 56.23C493.44 56.23 493.44 56.23 493.441 56.23C493.442 56.23 493.443 56.23 493.443 56.23C493.444 56.23 493.445 56.23 493.445 56.23C493.446 56.23 493.447 56.23 493.447 56.23C493.448 56.23 493.449 56.23 493.449 56.23C493.45 56.23 493.451 56.23 493.451 56.23C493.452 56.23 493.453 56.23 493.453 56.23C493.454 56.23 493.455 56.23 493.456 56.23C493.456 56.23 493.457 56.23 493.458 56.23C493.458 56.23 493.459 56.23 493.46 56.23C493.46 56.23 493.461 56.23 493.462 56.23C493.462 56.23 493.463 56.23 493.464 56.23C493.464 56.23 493.465 56.23 493.466 56.23C493.467 56.23 493.467 56.23 493.468 56.23C493.469 56.23 493.469 56.23 493.47 56.23C493.471 56.23 493.471 56.23 493.472 56.23C493.473 56.23 493.473 56.23 493.474 56.23C493.475 56.23 493.475 56.23 493.476 56.23C493.477 56.23 493.478 56.23 493.478 56.23C493.479 56.23 493.48 56.23 493.48 56.23C493.481 56.23 493.482 56.23 493.482 56.23C493.483 56.23 493.484 56.23 493.484 56.23C493.485 56.23 493.486 56.23 493.486 56.23C493.487 56.23 493.488 56.23 493.488 56.23C493.489 56.23 493.49 56.23 493.49 56.23C493.491 56.23 493.492 56.23 493.493 56.23C493.493 56.23 493.494 56.23 493.495 56.23C493.495 56.23 493.496 56.23 493.497 56.23C493.497 56.23 493.498 56.23 493.499 56.23C493.499 56.23 493.5 56.23 493.501 56.23C493.501 56.23 493.502 56.23 493.503 56.23C493.503 56.23 493.504 56.23 493.505 56.23C493.505 56.23 493.506 56.23 493.507 56.23C493.508 56.23 493.508 56.23 493.509 56.23C493.51 56.23 493.51 56.23 493.511 56.23C493.512 56.23 493.512 56.23 493.513 56.23C493.514 56.23 493.514 56.23 493.515 56.23C493.516 56.23 493.516 56.23 493.517 56.23C493.518 56.23 493.518 56.23 493.519 56.23C493.52 56.23 493.52 56.23 493.521 56.23C493.522 56.23 493.522 56.23 493.523 56.23C493.524 56.23 493.525 56.23 493.525 56.23C493.526 56.23 493.527 56.23 493.527 56.23C493.528 56.23 493.529 56.23 493.529 56.23C493.53 56.23 493.531 56.23 493.531 56.23C493.532 56.23 493.533 56.23 493.533 56.23C493.534 56.23 493.535 56.23 493.535 56.23C493.536 56.23 493.537 56.23 493.537 56.23C493.538 56.23 493.539 56.23 493.539 56.23C493.54 56.23 493.541 56.23 493.541 56.23C493.542 56.23 493.543 56.23 493.544 56.23C493.544 56.23 493.545 56.23 493.546 56.23C493.546 56.23 493.547 56.23 493.548 56.23C493.548 56.23 493.549 56.23 493.55 56.23C493.55 56.23 493.551 56.23 493.552 56.23C493.552 56.23 493.553 56.23 493.554 56.23C493.554 56.23 493.555 56.23 493.556 56.23C493.556 56.23 493.557 56.23 493.558 56.23C493.558 56.23 493.559 56.23 493.56 56.23C493.56 56.23 493.561 56.23 493.562 56.23C493.562 56.23 493.563 56.23 493.564 56.23C493.564 56.23 493.565 56.23 493.566 56.23C493.566 56.23 493.567 56.23 493.568 56.23C493.568 56.23 493.569 56.23 493.57 56.23C493.571 56.23 493.571 56.23 493.572 56.23C493.573 56.23 493.573 56.23 493.574 56.23C493.575 56.23 493.575 56.23 493.576 56.23C493.577 56.23 493.577 56.23 493.578 56.23C493.579 56.23 493.579 56.23 493.58 56.23C493.581 56.23 493.581 56.23 493.582 56.23C493.583 56.23 493.583 56.23 493.584 56.23C493.585 56.23 493.585 56.23 493.586 56.23C493.587 56.23 493.587 56.23 493.588 56.23C493.589 56.23 493.589 56.23 493.59 56.23C493.591 56.23 493.591 56.23 493.592 56.23C493.593 56.23 493.593 56.23 493.594 56.23C493.595 56.23 493.595 56.23 493.596 56.23C493.597 56.23 493.597 56.23 493.598 56.23C493.599 56.23 493.599 56.23 493.6 56.23C493.601 56.23 493.601 56.23 493.602 56.23C493.603 56.23 493.603 56.23 493.604 56.23C493.605 56.23 493.605 56.23 493.606 56.23C493.607 56.23 493.607 56.23 493.608 56.23C493.609 56.23 493.609 56.23 493.61 56.23C493.611 56.23 493.611 56.23 493.612 56.23C493.613 56.23 493.613 56.23 493.614 56.23C493.615 56.23 493.615 56.23 493.616 56.23C493.617 56.23 493.617 56.23 493.618 56.23C493.619 56.23 493.62 56.23 493.62 56.23C493.621 56.23 493.621 56.23 493.622 56.23C493.623 56.23 493.624 56.23 493.624 56.23C493.625 56.23 493.626 56.23 493.626 56.23C493.627 56.23 493.628 56.23 493.628 56.23C493.629 56.23 493.63 56.23 493.63 56.23C493.631 56.23 493.632 56.23 493.632 56.23C493.633 56.23 493.634 56.23 493.634 56.23C493.635 56.23 493.635 56.23 493.636 56.23C493.637 56.23 493.638 56.23 493.638 56.23C493.639 56.23 493.639 56.23 493.64 56.23C493.641 56.23 493.642 56.23 493.642 56.23C493.643 56.23 493.643 56.23 493.644 56.23C493.645 56.23 493.646 56.23 493.646 56.23C493.647 56.23 493.647 56.23 493.648 56.23C493.649 56.23 493.649 56.23 493.65 56.23C493.651 56.23 493.651 56.23 493.652 56.23C493.653 56.23 493.653 56.23 493.654 56.23C493.655 56.23 493.655 56.23 493.656 56.23C493.657 56.23 493.657 56.23 493.658 56.23C493.659 56.23 493.659 56.23 493.66 56.23C493.661 56.23 493.661 56.23 493.662 56.23C493.663 56.23 493.663 56.23 493.664 56.23C493.665 56.23 493.665 56.23 493.666 56.23C493.667 56.23 493.667 56.23 493.668 56.23C493.669 56.23 493.669 56.23 493.67 56.23C493.671 56.23 493.671 56.23 493.672 56.23C493.673 56.23 493.673 56.23 493.674 56.23C493.675 56.23 493.675 56.23 493.676 56.23C493.677 56.23 493.677 56.23 493.678 56.23C493.679 56.23 493.679 56.23 493.68 56.23C493.681 56.23 493.681 56.23 493.682 56.23C493.683 56.23 493.683 56.23 493.684 56.23C493.685 56.23 493.685 56.23 493.686 56.23C493.687 56.23 493.687 56.23 493.688 56.23C493.689 56.23 493.689 56.23 493.69 56.23C493.691 56.23 493.691 56.23 493.692 56.23C493.693 56.23 493.693 56.23 493.694 56.23C493.695 56.23 493.695 56.23 493.696 56.23C493.697 56.23 493.697 56.23 493.698 56.23C493.698 56.23 493.699 56.23 493.7 56.23C493.7 56.23 493.701 56.23 493.702 56.23C493.702 56.23 493.703 56.23 493.704 56.23C493.704 56.23 493.705 56.23 493.706 56.23C493.706 56.23 493.707 56.23 493.708 56.23C493.708 56.23 493.709 56.23 493.71 56.23C493.71 56.23 493.711 56.23 493.712 56.23C493.712 56.23 493.713 56.23 493.714 56.23C493.714 56.23 493.715 56.23 493.716 56.23C493.716 56.23 493.717 56.23 493.718 56.23C493.718 56.23 493.719 56.23 493.72 56.23C493.72 56.23 493.721 56.23 493.721 56.23C493.722 56.23 493.723 56.23 493.723 56.23C493.724 56.23 493.725 56.23 493.725 56.23C493.726 56.23 493.727 56.23 493.727 56.23C493.728 56.23 493.729 56.23 493.729 56.23C493.73 56.23 493.731 56.23 493.731 56.23C493.732 56.23 493.733 56.23 493.733 56.23C493.734 56.23 493.735 56.23 493.735 56.23C493.736 56.23 493.737 56.23 493.737 56.23C493.738 56.23 493.739 56.23 493.739 56.23C493.74 56.23 493.741 56.23 493.741 56.23C493.742 56.23 493.742 56.23 493.743 56.23C493.744 56.23 493.744 56.23 493.745 56.23C493.746 56.23 493.746 56.23 493.747 56.23C493.748 56.23 493.748 56.23 493.749 56.23C493.75 56.23 493.75 56.23 493.751 56.23C493.752 56.23 493.752 56.23 493.753 56.23C493.754 56.23 493.754 56.23 493.755 56.23C493.756 56.23 493.756 56.23 493.757 56.23C493.757 56.23 493.758 56.23 493.759 56.23C493.759 56.23 493.76 56.23 493.761 56.23C493.761 56.23 493.762 56.23 493.763 56.23C493.763 56.23 493.764 56.23 493.765 56.23C493.765 56.23 493.766 56.23 493.767 56.23C493.767 56.23 493.768 56.23 493.769 56.23C493.769 56.23 493.77 56.23 493.771 56.23C493.771 56.23 493.772 56.23 493.772 56.23C493.773 56.23 493.774 56.23 493.774 56.23C493.775 56.23 493.776 56.23 493.776 56.23C493.777 56.23 493.778 56.23 493.778 56.23C493.779 56.23 493.78 56.23 493.78 56.23C493.781 56.23 493.782 56.23 493.782 56.23C493.783 56.23 493.784 56.23 493.784 56.23C493.785 56.23 493.785 56.23 493.786 56.23C493.787 56.23 493.787 56.23 493.788 56.23C493.789 56.23 493.789 56.23 493.79 56.23C493.791 56.23 493.791 56.23 493.792 56.23C493.793 56.23 493.793 56.23 493.794 56.23C493.795 56.23 493.795 56.23 493.796 56.23C493.796 56.23 493.797 56.23 493.798 56.23C493.798 56.23 493.799 56.23 493.8 56.23C493.8 56.23 493.801 56.23 493.802 56.23C493.802 56.23 493.803 56.23 493.804 56.23C493.804 56.23 493.805 56.23 493.806 56.23C493.806 56.23 493.807 56.23 493.807 56.23C493.808 56.23 493.809 56.23 493.809 56.23C493.81 56.23 493.811 56.23 493.811 56.23C493.812 56.23 493.813 56.23 493.813 56.23C493.814 56.23 493.815 56.23 493.815 56.23C493.816 56.23 493.817 56.23 493.817 56.23C493.818 56.23 493.818 56.23 493.819 56.23C493.82 56.23 493.82 56.23 493.821 56.23C493.822 56.23 493.822 56.23 493.823 56.23C493.824 56.23 493.824 56.23 493.825 56.23C493.826 56.23 493.826 56.23 493.827 56.23C493.827 56.23 493.828 56.23 493.829 56.23C493.829 56.23 493.83 56.23 493.831 56.23C493.831 56.23 493.832 56.23 493.833 56.23C493.833 56.23 493.834 56.23 493.835 56.23C493.835 56.23 493.836 56.23 493.836 56.23C493.837 56.23 493.838 56.23 493.838 56.23C493.839 56.23 493.84 56.23 493.84 56.23C493.841 56.23 493.842 56.23 493.842 56.23C493.843 56.23 493.844 56.23 493.844 56.23C493.845 56.23 493.845 56.23 493.846 56.23C493.847 56.23 493.847 56.23 493.848 56.23C493.849 56.23 493.849 56.23 493.85 56.23C493.851 56.23 493.851 56.23 493.852 56.23C493.853 56.23 493.853 56.23 493.854 56.23C493.854 56.23 493.855 56.23 493.856 56.23C493.856 56.23 493.857 56.23 493.858 56.23C493.858 56.23 493.859 56.23 493.86 56.23C493.86 56.23 493.861 56.23 493.862 56.23C493.862 56.23 493.863 56.23 493.863 56.23C493.864 56.23 493.865 56.23 493.865 56.23C493.866 56.23 493.867 56.23 493.867 56.23C493.868 56.23 493.869 56.23 493.869 56.23C493.87 56.23 493.87 56.23 493.871 56.23C493.872 56.23 493.872 56.23 493.873 56.23C493.874 56.23 493.874 56.23 493.875 56.23C493.876 56.23 493.876 56.23 493.877 56.23C493.877 56.23 493.878 56.23 493.879 56.23C493.879 56.23 493.88 56.23 493.881 56.23C493.881 56.23 493.882 56.23 493.883 56.23C493.883 56.23 493.884 56.23 493.884 56.23C493.885 56.23 493.886 56.23 493.886 56.23C493.887 56.23 493.888 56.23 493.888 56.23C493.889 56.23 493.89 56.23 493.89 56.23C493.891 56.23 493.892 56.23 493.892 56.23C493.893 56.23 493.893 56.23 493.894 56.23C493.895 56.23 493.895 56.23 493.896 56.23C493.897 56.23 493.897 56.23 493.898 56.23C493.898 56.23 493.899 56.23 493.9 56.23C493.9 56.23 493.901 56.23 493.902 56.23C493.902 56.23 493.903 56.23 493.904 56.23C493.904 56.23 493.905 56.23 493.905 56.23C493.906 56.23 493.907 56.23 493.907 56.23C493.908 56.23 493.909 56.23 493.909 56.23C493.91 56.23 493.911 56.23 493.911 56.23C493.912 56.23 493.912 56.23 493.913 56.23C493.914 56.23 493.914 56.23 493.915 56.23C493.916 56.23 493.916 56.23 493.917 56.23C493.918 56.23 493.918 56.23 493.919 56.23C493.919 56.23 493.92 56.23 493.921 56.23C493.921 56.23 493.922 56.23 493.923 56.23C493.923 56.23 493.924 56.23 493.924 56.23C493.925 56.23 493.926 56.23 493.926 56.23C493.927 56.23 493.928 56.23 493.928 56.23C493.929 56.23 493.93 56.23 493.93 56.23C493.931 56.23 493.931 56.23 493.932 56.23C493.933 56.23 493.933 56.23 493.934 56.23C493.935 56.23 493.935 56.23 493.936 56.23C493.936 56.23 493.937 56.23 493.938 56.23C493.938 56.23 493.939 56.23 493.94 56.23C493.94 56.23 493.941 56.23 493.942 56.23C493.942 56.23 493.943 56.23 493.943 56.23C493.944 56.23 493.945 56.23 493.945 56.23C493.946 56.23 493.947 56.23 493.947 56.23C493.948 56.23 493.948 56.23 493.949 56.23C493.95 56.23 493.95 56.23 493.951 56.23C493.952 56.23 493.952 56.23 493.953 56.23C493.953 56.23 493.954 56.23 493.955 56.23C493.955 56.23 493.956 56.23 493.957 56.23C493.957 56.23 493.958 56.23 493.959 56.23C493.959 56.23 493.96 56.23 493.96 56.23C493.961 56.23 493.962 56.23 493.962 56.23C493.963 56.23 493.964 56.23 493.964 56.23C493.965 56.23 493.965 56.23 493.966 56.23C493.967 56.23 493.967 56.23 493.968 56.23C493.969 56.23 493.969 56.23 493.97 56.23C493.97 56.23 493.971 56.23 493.972 56.23C493.972 56.23 493.973 56.23 493.974 56.23C493.974 56.23 493.975 56.23 493.975 56.23C493.976 56.23 493.977 56.23 493.977 56.23C493.978 56.23 493.979 56.23 493.979 56.23C493.98 56.23 493.98 56.23 493.981 56.23C493.982 56.23 493.982 56.23 493.983 56.23C493.984 56.23 493.984 56.23 493.985 56.23C493.985 56.23 493.986 56.23 493.987 56.23C493.987 56.23 493.988 56.23 493.989 56.23C493.989 56.23 493.99 56.23 493.99 56.23C493.991 56.23 493.992 56.23 493.992 56.23C493.993 56.23 493.994 56.23 493.994 56.23C493.995 56.23 493.995 56.23 493.996 56.23C493.997 56.23 493.997 56.23 493.998 56.23C493.999 56.23 493.999 56.23 494 56.23C494 56.23 494.001 56.23 494.002 56.23C494.002 56.23 494.003 56.23 494.004 56.23C494.004 56.23 494.005 56.23 494.005 56.23C494.006 56.23 494.007 56.23 494.007 56.23C494.008 56.23 494.009 56.23 494.009 56.23C494.01 56.23 494.01 56.23 494.011 56.23C494.012 56.23 494.012 56.23 494.013 56.23C494.014 56.23 494.014 56.23 494.015 56.23C494.015 56.23 494.016 56.23 494.017 56.23C494.017 56.23 494.018 56.23 494.018 56.23C494.019 56.23 494.02 56.23 494.02 56.23C494.021 56.23 494.022 56.23 494.022 56.23C494.023 56.23 494.023 56.23 494.024 56.23C494.025 56.23 494.025 56.23 494.026 56.23C494.027 56.23 494.027 56.23 494.028 56.23C494.028 56.23 494.029 56.23 494.03 56.23C494.03 56.23 494.031 56.23 494.032 56.23C494.032 56.23 494.033 56.23 494.033 56.23C494.034 56.23 494.035 56.23 494.035 56.23C494.036 56.23 494.036 56.23 494.037 56.23C494.038 56.23 494.038 56.23 494.039 56.23C494.04 56.23 494.04 56.23 494.041 56.23C494.041 56.23 494.042 56.23 494.043 56.23C494.043 56.23 494.044 56.23 494.044 56.23C494.045 56.23 494.046 56.23 494.046 56.23C494.047 56.23 494.048 56.23 494.048 56.23C494.049 56.23 494.049 56.23 494.05 56.23C494.051 56.23 494.051 56.23 494.052 56.23C494.053 56.23 494.053 56.23 494.054 56.23C494.054 56.23 494.055 56.23 494.056 56.23C494.056 56.23 494.057 56.23 494.057 56.23C494.058 56.23 494.059 56.23 494.059 56.23C494.06 56.23 494.061 56.23 494.061 56.23C494.062 56.23 494.062 56.23 494.063 56.23C494.064 56.23 494.064 56.23 494.065 56.23C494.065 56.23 494.066 56.23 494.067 56.23C494.067 56.23 494.068 56.23 494.069 56.23C494.069 56.23 494.07 56.23 494.07 56.23C494.071 56.23 494.072 56.23 494.072 56.23C494.073 56.23 494.073 56.23 494.074 56.23C494.075 56.23 494.075 56.23 494.076 56.23C494.077 56.23 494.077 56.23 494.078 56.23C494.078 56.23 494.079 56.23 494.08 56.23C494.08 56.23 494.081 56.23 494.081 56.23C494.082 56.23 494.083 56.23 494.083 56.23C494.084 56.23 494.085 56.23 494.085 56.23C494.086 56.23 494.086 56.23 494.087 56.23C494.088 56.23 494.088 56.23 494.089 56.23C494.089 56.23 494.09 56.23 494.091 56.23C494.091 56.23 494.092 56.23 494.092 56.23C494.093 56.23 494.094 56.23 494.094 56.23C494.095 56.23 494.096 56.23 494.096 56.23C494.097 56.23 494.097 56.23 494.098 56.23C494.099 56.23 494.099 56.23 494.1 56.23C494.1 56.23 494.101 56.23 494.102 56.23C494.102 56.23 494.103 56.23 494.103 56.23C494.104 56.23 494.105 56.23 494.105 56.23C494.106 56.23 494.107 56.23 494.107 56.23C494.108 56.23 494.108 56.23 494.109 56.23C494.11 56.23 494.11 56.23 494.111 56.23C494.111 56.23 494.112 56.23 494.113 56.23C494.113 56.23 494.114 56.23 494.114 56.23C494.115 56.23 494.116 56.23 494.116 56.23C494.117 56.23 494.117 56.23 494.118 56.23C494.119 56.23 494.119 56.23 494.12 56.23C494.121 56.23 494.121 56.23 494.122 56.23C494.122 56.23 494.123 56.23 494.124 56.23C494.124 56.23 494.125 56.23 494.125 56.23C494.126 56.23 494.127 56.23 494.127 56.23C494.128 56.23 494.128 56.23 494.129 56.23C494.13 56.23 494.13 56.23 494.131 56.23C494.131 56.23 494.132 56.23 494.133 56.23C494.133 56.23 494.134 56.23 494.134 56.23C494.135 56.23 494.136 56.23 494.136 56.23C494.137 56.23 494.138 56.23 494.138 56.23C494.139 56.23 494.139 56.23 494.14 56.23C494.141 56.23 494.141 56.23 494.142 56.23C494.142 56.23 494.143 56.23 494.144 56.23C494.144 56.23 494.145 56.23 494.145 56.23C494.146 56.23 494.147 56.23 494.147 56.23C494.148 56.23 494.148 56.23 494.149 56.23C494.15 56.23 494.15 56.23 494.151 56.23C494.151 56.23 494.152 56.23 494.153 56.23C494.153 56.23 494.154 56.23 494.154 56.23C494.155 56.23 494.156 56.23 494.156 56.23C494.157 56.23 494.157 56.23 494.158 56.23C494.159 56.23 494.159 56.23 494.16 56.23C494.16 56.23 494.161 56.23 494.162 56.23C494.162 56.23 494.163 56.23 494.164 56.23C494.164 56.23 494.165 56.23 494.165 56.23C494.166 56.23 494.167 56.23 494.167 56.23C494.168 56.23 494.168 56.23 494.169 56.23C494.17 56.23 494.17 56.23 494.171 56.23C494.171 56.23 494.172 56.23 494.173 56.23C494.173 56.23 494.174 56.23 494.174 56.23C494.175 56.23 494.176 56.23 494.176 56.23C494.177 56.23 494.177 56.23 494.178 56.23C494.179 56.23 494.179 56.23 494.18 56.23C494.18 56.23 494.181 56.23 494.182 56.23C494.182 56.23 494.183 56.23 494.183 56.23C494.184 56.23 494.185 56.23 494.185 56.23C494.186 56.23 494.186 56.23 494.187 56.23C494.188 56.23 494.188 56.23 494.189 56.23C494.189 56.23 494.19 56.23 494.191 56.23C494.191 56.23 494.192 56.23 494.192 56.23C494.193 56.23 494.194 56.23 494.194 56.23C494.195 56.23 494.195 56.23 494.196 56.23C494.197 56.23 494.197 56.23 494.198 56.23C494.198 56.23 494.199 56.23 494.2 56.23C494.2 56.23 494.201 56.23 494.201 56.23C494.202 56.23 494.203 56.23 494.203 56.23C494.204 56.23 494.204 56.23 494.205 56.23C494.206 56.23 494.206 56.23 494.207 56.23C494.207 56.23 494.208 56.23 494.209 56.23C494.209 56.23 494.21 56.23 494.21 56.23C494.211 56.23 494.211 56.23 494.212 56.23C494.213 56.23 494.213 56.23 494.214 56.23C494.214 56.23 494.215 56.23 494.216 56.23C494.216 56.23 494.217 56.23 494.217 56.23C494.218 56.23 494.219 56.23 494.219 56.23C494.22 56.23 494.22 56.23 494.221 56.23C494.222 56.23 494.222 56.23 494.223 56.23C494.223 56.23 494.224 56.23 494.225 56.23C494.225 56.23 494.226 56.23 494.226 56.23C494.227 56.23 494.228 56.23 494.228 56.23C494.229 56.23 494.229 56.23 494.23 56.23C494.231 56.23 494.231 56.23 494.232 56.23C494.232 56.23 494.233 56.23 494.234 56.23C494.234 56.23 494.235 56.23 494.235 56.23C494.236 56.23 494.236 56.23 494.237 56.23C494.238 56.23 494.238 56.23 494.239 56.23C494.239 56.23 494.24 56.23 494.241 56.23C494.241 56.23 494.242 56.23 494.242 56.23C494.243 56.23 494.244 56.23 494.244 56.23C494.245 56.23 494.245 56.23 494.246 56.23C494.247 56.23 494.247 56.23 494.248 56.23C494.248 56.23 494.249 56.23 494.25 56.23C494.25 56.23 494.251 56.23 494.251 56.23C494.252 56.23 494.253 56.23 494.253 56.23C494.254 56.23 494.254 56.23 494.255 56.23C494.255 56.23 494.256 56.23 494.257 56.23C494.257 56.23 494.258 56.23 494.258 56.23C494.259 56.23 494.26 56.23 494.26 56.23C494.261 56.23 494.261 56.23 494.262 56.23C494.263 56.23 494.263 56.23 494.264 56.23C494.264 56.23 494.265 56.23 494.265 56.23C494.266 56.23 494.267 56.23 494.267 56.23C494.268 56.23 494.268 56.23 494.269 56.23C494.27 56.23 494.27 56.23 494.271 56.23C494.271 56.23 494.272 56.23 494.273 56.23C494.273 56.23 494.274 56.23 494.274 56.23C494.275 56.23 494.276 56.23 494.276 56.23C494.277 56.23 494.277 56.23 494.278 56.23C494.278 56.23 494.279 56.23 494.28 56.23C494.28 56.23 494.281 56.23 494.281 56.23C494.282 56.23 494.283 56.23 494.283 56.23C494.284 56.23 494.284 56.23 494.285 56.23C494.285 56.23 494.286 56.23 494.287 56.23C494.287 56.23 494.288 56.23 494.288 56.23C494.289 56.23 494.29 56.23 494.29 56.23C494.291 56.23 494.291 56.23 494.292 56.23C494.293 56.23 494.293 56.23 494.294 56.23C494.294 56.23 494.295 56.23 494.295 56.23V54.23C494.295 54.23 494.294 54.23 494.294 54.23C494.293 54.23 494.293 54.23 494.292 54.23C494.291 54.23 494.291 54.23 494.29 54.23C494.29 54.23 494.289 54.23 494.288 54.23C494.288 54.23 494.287 54.23 494.287 54.23C494.286 54.23 494.285 54.23 494.285 54.23C494.284 54.23 494.284 54.23 494.283 54.23C494.283 54.23 494.282 54.23 494.281 54.23C494.281 54.23 494.28 54.23 494.28 54.23C494.279 54.23 494.278 54.23 494.278 54.23C494.277 54.23 494.277 54.23 494.276 54.23C494.276 54.23 494.275 54.23 494.274 54.23C494.274 54.23 494.273 54.23 494.273 54.23C494.272 54.23 494.271 54.23 494.271 54.23C494.27 54.23 494.27 54.23 494.269 54.23C494.268 54.23 494.268 54.23 494.267 54.23C494.267 54.23 494.266 54.23 494.265 54.23C494.265 54.23 494.264 54.23 494.264 54.23C494.263 54.23 494.263 54.23 494.262 54.23C494.261 54.23 494.261 54.23 494.26 54.23C494.26 54.23 494.259 54.23 494.258 54.23C494.258 54.23 494.257 54.23 494.257 54.23C494.256 54.23 494.255 54.23 494.255 54.23C494.254 54.23 494.254 54.23 494.253 54.23C494.253 54.23 494.252 54.23 494.251 54.23C494.251 54.23 494.25 54.23 494.25 54.23C494.249 54.23 494.248 54.23 494.248 54.23C494.247 54.23 494.247 54.23 494.246 54.23C494.245 54.23 494.245 54.23 494.244 54.23C494.244 54.23 494.243 54.23 494.242 54.23C494.242 54.23 494.241 54.23 494.241 54.23C494.24 54.23 494.239 54.23 494.239 54.23C494.238 54.23 494.238 54.23 494.237 54.23C494.236 54.23 494.236 54.23 494.235 54.23C494.235 54.23 494.234 54.23 494.234 54.23C494.233 54.23 494.232 54.23 494.232 54.23C494.231 54.23 494.231 54.23 494.23 54.23C494.229 54.23 494.229 54.23 494.228 54.23C494.228 54.23 494.227 54.23 494.226 54.23C494.226 54.23 494.225 54.23 494.225 54.23C494.224 54.23 494.223 54.23 494.223 54.23C494.222 54.23 494.222 54.23 494.221 54.23C494.22 54.23 494.22 54.23 494.219 54.23C494.219 54.23 494.218 54.23 494.217 54.23C494.217 54.23 494.216 54.23 494.216 54.23C494.215 54.23 494.214 54.23 494.214 54.23C494.213 54.23 494.213 54.23 494.212 54.23C494.211 54.23 494.211 54.23 494.21 54.23C494.21 54.23 494.209 54.23 494.209 54.23C494.208 54.23 494.207 54.23 494.207 54.23C494.206 54.23 494.206 54.23 494.205 54.23C494.204 54.23 494.204 54.23 494.203 54.23C494.203 54.23 494.202 54.23 494.201 54.23C494.201 54.23 494.2 54.23 494.2 54.23C494.199 54.23 494.198 54.23 494.198 54.23C494.197 54.23 494.197 54.23 494.196 54.23C494.195 54.23 494.195 54.23 494.194 54.23C494.194 54.23 494.193 54.23 494.192 54.23C494.192 54.23 494.191 54.23 494.191 54.23C494.19 54.23 494.189 54.23 494.189 54.23C494.188 54.23 494.188 54.23 494.187 54.23C494.186 54.23 494.186 54.23 494.185 54.23C494.185 54.23 494.184 54.23 494.183 54.23C494.183 54.23 494.182 54.23 494.182 54.23C494.181 54.23 494.18 54.23 494.18 54.23C494.179 54.23 494.179 54.23 494.178 54.23C494.177 54.23 494.177 54.23 494.176 54.23C494.176 54.23 494.175 54.23 494.174 54.23C494.174 54.23 494.173 54.23 494.173 54.23C494.172 54.23 494.171 54.23 494.171 54.23C494.17 54.23 494.17 54.23 494.169 54.23C494.168 54.23 494.168 54.23 494.167 54.23C494.167 54.23 494.166 54.23 494.165 54.23C494.165 54.23 494.164 54.23 494.164 54.23C494.163 54.23 494.162 54.23 494.162 54.23C494.161 54.23 494.16 54.23 494.16 54.23C494.159 54.23 494.159 54.23 494.158 54.23C494.157 54.23 494.157 54.23 494.156 54.23C494.156 54.23 494.155 54.23 494.154 54.23C494.154 54.23 494.153 54.23 494.153 54.23C494.152 54.23 494.151 54.23 494.151 54.23C494.15 54.23 494.15 54.23 494.149 54.23C494.148 54.23 494.148 54.23 494.147 54.23C494.147 54.23 494.146 54.23 494.145 54.23C494.145 54.23 494.144 54.23 494.144 54.23C494.143 54.23 494.142 54.23 494.142 54.23C494.141 54.23 494.141 54.23 494.14 54.23C494.139 54.23 494.139 54.23 494.138 54.23C494.138 54.23 494.137 54.23 494.136 54.23C494.136 54.23 494.135 54.23 494.134 54.23C494.134 54.23 494.133 54.23 494.133 54.23C494.132 54.23 494.131 54.23 494.131 54.23C494.13 54.23 494.13 54.23 494.129 54.23C494.128 54.23 494.128 54.23 494.127 54.23C494.127 54.23 494.126 54.23 494.125 54.23C494.125 54.23 494.124 54.23 494.124 54.23C494.123 54.23 494.122 54.23 494.122 54.23C494.121 54.23 494.121 54.23 494.12 54.23C494.119 54.23 494.119 54.23 494.118 54.23C494.117 54.23 494.117 54.23 494.116 54.23C494.116 54.23 494.115 54.23 494.114 54.23C494.114 54.23 494.113 54.23 494.113 54.23C494.112 54.23 494.111 54.23 494.111 54.23C494.11 54.23 494.11 54.23 494.109 54.23C494.108 54.23 494.108 54.23 494.107 54.23C494.107 54.23 494.106 54.23 494.105 54.23C494.105 54.23 494.104 54.23 494.103 54.23C494.103 54.23 494.102 54.23 494.102 54.23C494.101 54.23 494.1 54.23 494.1 54.23C494.099 54.23 494.099 54.23 494.098 54.23C494.097 54.23 494.097 54.23 494.096 54.23C494.096 54.23 494.095 54.23 494.094 54.23C494.094 54.23 494.093 54.23 494.092 54.23C494.092 54.23 494.091 54.23 494.091 54.23C494.09 54.23 494.089 54.23 494.089 54.23C494.088 54.23 494.088 54.23 494.087 54.23C494.086 54.23 494.086 54.23 494.085 54.23C494.085 54.23 494.084 54.23 494.083 54.23C494.083 54.23 494.082 54.23 494.081 54.23C494.081 54.23 494.08 54.23 494.08 54.23C494.079 54.23 494.078 54.23 494.078 54.23C494.077 54.23 494.077 54.23 494.076 54.23C494.075 54.23 494.075 54.23 494.074 54.23C494.073 54.23 494.073 54.23 494.072 54.23C494.072 54.23 494.071 54.23 494.07 54.23C494.07 54.23 494.069 54.23 494.069 54.23C494.068 54.23 494.067 54.23 494.067 54.23C494.066 54.23 494.065 54.23 494.065 54.23C494.064 54.23 494.064 54.23 494.063 54.23C494.062 54.23 494.062 54.23 494.061 54.23C494.061 54.23 494.06 54.23 494.059 54.23C494.059 54.23 494.058 54.23 494.057 54.23C494.057 54.23 494.056 54.23 494.056 54.23C494.055 54.23 494.054 54.23 494.054 54.23C494.053 54.23 494.053 54.23 494.052 54.23C494.051 54.23 494.051 54.23 494.05 54.23C494.049 54.23 494.049 54.23 494.048 54.23C494.048 54.23 494.047 54.23 494.046 54.23C494.046 54.23 494.045 54.23 494.044 54.23C494.044 54.23 494.043 54.23 494.043 54.23C494.042 54.23 494.041 54.23 494.041 54.23C494.04 54.23 494.04 54.23 494.039 54.23C494.038 54.23 494.038 54.23 494.037 54.23C494.036 54.23 494.036 54.23 494.035 54.23C494.035 54.23 494.034 54.23 494.033 54.23C494.033 54.23 494.032 54.23 494.032 54.23C494.031 54.23 494.03 54.23 494.03 54.23C494.029 54.23 494.028 54.23 494.028 54.23C494.027 54.23 494.027 54.23 494.026 54.23C494.025 54.23 494.025 54.23 494.024 54.23C494.023 54.23 494.023 54.23 494.022 54.23C494.022 54.23 494.021 54.23 494.02 54.23C494.02 54.23 494.019 54.23 494.018 54.23C494.018 54.23 494.017 54.23 494.017 54.23C494.016 54.23 494.015 54.23 494.015 54.23C494.014 54.23 494.014 54.23 494.013 54.23C494.012 54.23 494.012 54.23 494.011 54.23C494.01 54.23 494.01 54.23 494.009 54.23C494.009 54.23 494.008 54.23 494.007 54.23C494.007 54.23 494.006 54.23 494.005 54.23C494.005 54.23 494.004 54.23 494.004 54.23C494.003 54.23 494.002 54.23 494.002 54.23C494.001 54.23 494 54.23 494 54.23C493.999 54.23 493.999 54.23 493.998 54.23C493.997 54.23 493.997 54.23 493.996 54.23C493.995 54.23 493.995 54.23 493.994 54.23C493.994 54.23 493.993 54.23 493.992 54.23C493.992 54.23 493.991 54.23 493.99 54.23C493.99 54.23 493.989 54.23 493.989 54.23C493.988 54.23 493.987 54.23 493.987 54.23C493.986 54.23 493.985 54.23 493.985 54.23C493.984 54.23 493.984 54.23 493.983 54.23C493.982 54.23 493.982 54.23 493.981 54.23C493.98 54.23 493.98 54.23 493.979 54.23C493.979 54.23 493.978 54.23 493.977 54.23C493.977 54.23 493.976 54.23 493.975 54.23C493.975 54.23 493.974 54.23 493.974 54.23C493.973 54.23 493.972 54.23 493.972 54.23C493.971 54.23 493.97 54.23 493.97 54.23C493.969 54.23 493.969 54.23 493.968 54.23C493.967 54.23 493.967 54.23 493.966 54.23C493.965 54.23 493.965 54.23 493.964 54.23C493.964 54.23 493.963 54.23 493.962 54.23C493.962 54.23 493.961 54.23 493.96 54.23C493.96 54.23 493.959 54.23 493.959 54.23C493.958 54.23 493.957 54.23 493.957 54.23C493.956 54.23 493.955 54.23 493.955 54.23C493.954 54.23 493.953 54.23 493.953 54.23C493.952 54.23 493.952 54.23 493.951 54.23C493.95 54.23 493.95 54.23 493.949 54.23C493.948 54.23 493.948 54.23 493.947 54.23C493.947 54.23 493.946 54.23 493.945 54.23C493.945 54.23 493.944 54.23 493.943 54.23C493.943 54.23 493.942 54.23 493.942 54.23C493.941 54.23 493.94 54.23 493.94 54.23C493.939 54.23 493.938 54.23 493.938 54.23C493.937 54.23 493.936 54.23 493.936 54.23C493.935 54.23 493.935 54.23 493.934 54.23C493.933 54.23 493.933 54.23 493.932 54.23C493.931 54.23 493.931 54.23 493.93 54.23C493.93 54.23 493.929 54.23 493.928 54.23C493.928 54.23 493.927 54.23 493.926 54.23C493.926 54.23 493.925 54.23 493.924 54.23C493.924 54.23 493.923 54.23 493.923 54.23C493.922 54.23 493.921 54.23 493.921 54.23C493.92 54.23 493.919 54.23 493.919 54.23C493.918 54.23 493.918 54.23 493.917 54.23C493.916 54.23 493.916 54.23 493.915 54.23C493.914 54.23 493.914 54.23 493.913 54.23C493.912 54.23 493.912 54.23 493.911 54.23C493.911 54.23 493.91 54.23 493.909 54.23C493.909 54.23 493.908 54.23 493.907 54.23C493.907 54.23 493.906 54.23 493.905 54.23C493.905 54.23 493.904 54.23 493.904 54.23C493.903 54.23 493.902 54.23 493.902 54.23C493.901 54.23 493.9 54.23 493.9 54.23C493.899 54.23 493.898 54.23 493.898 54.23C493.897 54.23 493.897 54.23 493.896 54.23C493.895 54.23 493.895 54.23 493.894 54.23C493.893 54.23 493.893 54.23 493.892 54.23C493.892 54.23 493.891 54.23 493.89 54.23C493.89 54.23 493.889 54.23 493.888 54.23C493.888 54.23 493.887 54.23 493.886 54.23C493.886 54.23 493.885 54.23 493.884 54.23C493.884 54.23 493.883 54.23 493.883 54.23C493.882 54.23 493.881 54.23 493.881 54.23C493.88 54.23 493.879 54.23 493.879 54.23C493.878 54.23 493.877 54.23 493.877 54.23C493.876 54.23 493.876 54.23 493.875 54.23C493.874 54.23 493.874 54.23 493.873 54.23C493.872 54.23 493.872 54.23 493.871 54.23C493.87 54.23 493.87 54.23 493.869 54.23C493.869 54.23 493.868 54.23 493.867 54.23C493.867 54.23 493.866 54.23 493.865 54.23C493.865 54.23 493.864 54.23 493.863 54.23C493.863 54.23 493.862 54.23 493.862 54.23C493.861 54.23 493.86 54.23 493.86 54.23C493.859 54.23 493.858 54.23 493.858 54.23C493.857 54.23 493.856 54.23 493.856 54.23C493.855 54.23 493.854 54.23 493.854 54.23C493.853 54.23 493.853 54.23 493.852 54.23C493.851 54.23 493.851 54.23 493.85 54.23C493.849 54.23 493.849 54.23 493.848 54.23C493.847 54.23 493.847 54.23 493.846 54.23C493.845 54.23 493.845 54.23 493.844 54.23C493.844 54.23 493.843 54.23 493.842 54.23C493.842 54.23 493.841 54.23 493.84 54.23C493.84 54.23 493.839 54.23 493.838 54.23C493.838 54.23 493.837 54.23 493.836 54.23C493.836 54.23 493.835 54.23 493.835 54.23C493.834 54.23 493.833 54.23 493.833 54.23C493.832 54.23 493.831 54.23 493.831 54.23C493.83 54.23 493.829 54.23 493.829 54.23C493.828 54.23 493.827 54.23 493.827 54.23C493.826 54.23 493.826 54.23 493.825 54.23C493.824 54.23 493.824 54.23 493.823 54.23C493.822 54.23 493.822 54.23 493.821 54.23C493.82 54.23 493.82 54.23 493.819 54.23C493.818 54.23 493.818 54.23 493.817 54.23C493.817 54.23 493.816 54.23 493.815 54.23C493.815 54.23 493.814 54.23 493.813 54.23C493.813 54.23 493.812 54.23 493.811 54.23C493.811 54.23 493.81 54.23 493.809 54.23C493.809 54.23 493.808 54.23 493.807 54.23C493.807 54.23 493.806 54.23 493.806 54.23C493.805 54.23 493.804 54.23 493.804 54.23C493.803 54.23 493.802 54.23 493.802 54.23C493.801 54.23 493.8 54.23 493.8 54.23C493.799 54.23 493.798 54.23 493.798 54.23C493.797 54.23 493.796 54.23 493.796 54.23C493.795 54.23 493.795 54.23 493.794 54.23C493.793 54.23 493.793 54.23 493.792 54.23C493.791 54.23 493.791 54.23 493.79 54.23C493.789 54.23 493.789 54.23 493.788 54.23C493.787 54.23 493.787 54.23 493.786 54.23C493.785 54.23 493.785 54.23 493.784 54.23C493.784 54.23 493.783 54.23 493.782 54.23C493.782 54.23 493.781 54.23 493.78 54.23C493.78 54.23 493.779 54.23 493.778 54.23C493.778 54.23 493.777 54.23 493.776 54.23C493.776 54.23 493.775 54.23 493.774 54.23C493.774 54.23 493.773 54.23 493.772 54.23C493.772 54.23 493.771 54.23 493.771 54.23C493.77 54.23 493.769 54.23 493.769 54.23C493.768 54.23 493.767 54.23 493.767 54.23C493.766 54.23 493.765 54.23 493.765 54.23C493.764 54.23 493.763 54.23 493.763 54.23C493.762 54.23 493.761 54.23 493.761 54.23C493.76 54.23 493.759 54.23 493.759 54.23C493.758 54.23 493.757 54.23 493.757 54.23C493.756 54.23 493.756 54.23 493.755 54.23C493.754 54.23 493.754 54.23 493.753 54.23C493.752 54.23 493.752 54.23 493.751 54.23C493.75 54.23 493.75 54.23 493.749 54.23C493.748 54.23 493.748 54.23 493.747 54.23C493.746 54.23 493.746 54.23 493.745 54.23C493.744 54.23 493.744 54.23 493.743 54.23C493.742 54.23 493.742 54.23 493.741 54.23C493.741 54.23 493.74 54.23 493.739 54.23C493.739 54.23 493.738 54.23 493.737 54.23C493.737 54.23 493.736 54.23 493.735 54.23C493.735 54.23 493.734 54.23 493.733 54.23C493.733 54.23 493.732 54.23 493.731 54.23C493.731 54.23 493.73 54.23 493.729 54.23C493.729 54.23 493.728 54.23 493.727 54.23C493.727 54.23 493.726 54.23 493.725 54.23C493.725 54.23 493.724 54.23 493.723 54.23C493.723 54.23 493.722 54.23 493.721 54.23C493.721 54.23 493.72 54.23 493.72 54.23C493.719 54.23 493.718 54.23 493.718 54.23C493.717 54.23 493.716 54.23 493.716 54.23C493.715 54.23 493.714 54.23 493.714 54.23C493.713 54.23 493.712 54.23 493.712 54.23C493.711 54.23 493.71 54.23 493.71 54.23C493.709 54.23 493.708 54.23 493.708 54.23C493.707 54.23 493.706 54.23 493.706 54.23C493.705 54.23 493.704 54.23 493.704 54.23C493.703 54.23 493.702 54.23 493.702 54.23C493.701 54.23 493.7 54.23 493.7 54.23C493.699 54.23 493.698 54.23 493.698 54.23C493.697 54.23 493.697 54.23 493.696 54.23C493.695 54.23 493.695 54.23 493.694 54.23C493.693 54.23 493.693 54.23 493.692 54.23C493.691 54.23 493.691 54.23 493.69 54.23C493.689 54.23 493.689 54.23 493.688 54.23C493.687 54.23 493.687 54.23 493.686 54.23C493.685 54.23 493.685 54.23 493.684 54.23C493.683 54.23 493.683 54.23 493.682 54.23C493.681 54.23 493.681 54.23 493.68 54.23C493.679 54.23 493.679 54.23 493.678 54.23C493.677 54.23 493.677 54.23 493.676 54.23C493.675 54.23 493.675 54.23 493.674 54.23C493.673 54.23 493.673 54.23 493.672 54.23C493.671 54.23 493.671 54.23 493.67 54.23C493.669 54.23 493.669 54.23 493.668 54.23C493.667 54.23 493.667 54.23 493.666 54.23C493.665 54.23 493.665 54.23 493.664 54.23C493.663 54.23 493.663 54.23 493.662 54.23C493.661 54.23 493.661 54.23 493.66 54.23C493.659 54.23 493.659 54.23 493.658 54.23C493.657 54.23 493.657 54.23 493.656 54.23C493.655 54.23 493.655 54.23 493.654 54.23C493.653 54.23 493.653 54.23 493.652 54.23C493.651 54.23 493.651 54.23 493.65 54.23C493.649 54.23 493.649 54.23 493.648 54.23C493.647 54.23 493.647 54.23 493.646 54.23C493.646 54.23 493.645 54.23 493.644 54.23C493.643 54.23 493.643 54.23 493.642 54.23C493.642 54.23 493.641 54.23 493.64 54.23C493.639 54.23 493.639 54.23 493.638 54.23C493.638 54.23 493.637 54.23 493.636 54.23C493.635 54.23 493.635 54.23 493.634 54.23C493.634 54.23 493.633 54.23 493.632 54.23C493.632 54.23 493.631 54.23 493.63 54.23C493.63 54.23 493.629 54.23 493.628 54.23C493.628 54.23 493.627 54.23 493.626 54.23C493.626 54.23 493.625 54.23 493.624 54.23C493.624 54.23 493.623 54.23 493.622 54.23C493.621 54.23 493.621 54.23 493.62 54.23C493.62 54.23 493.619 54.23 493.618 54.23C493.617 54.23 493.617 54.23 493.616 54.23C493.615 54.23 493.615 54.23 493.614 54.23C493.613 54.23 493.613 54.23 493.612 54.23C493.611 54.23 493.611 54.23 493.61 54.23C493.609 54.23 493.609 54.23 493.608 54.23C493.607 54.23 493.607 54.23 493.606 54.23C493.605 54.23 493.605 54.23 493.604 54.23C493.603 54.23 493.603 54.23 493.602 54.23C493.601 54.23 493.601 54.23 493.6 54.23C493.599 54.23 493.599 54.23 493.598 54.23C493.597 54.23 493.597 54.23 493.596 54.23C493.595 54.23 493.595 54.23 493.594 54.23C493.593 54.23 493.593 54.23 493.592 54.23C493.591 54.23 493.591 54.23 493.59 54.23C493.589 54.23 493.589 54.23 493.588 54.23C493.587 54.23 493.587 54.23 493.586 54.23C493.585 54.23 493.585 54.23 493.584 54.23C493.583 54.23 493.583 54.23 493.582 54.23C493.581 54.23 493.581 54.23 493.58 54.23C493.579 54.23 493.579 54.23 493.578 54.23C493.577 54.23 493.577 54.23 493.576 54.23C493.575 54.23 493.575 54.23 493.574 54.23C493.573 54.23 493.573 54.23 493.572 54.23C493.571 54.23 493.571 54.23 493.57 54.23C493.569 54.23 493.568 54.23 493.568 54.23C493.567 54.23 493.566 54.23 493.566 54.23C493.565 54.23 493.564 54.23 493.564 54.23C493.563 54.23 493.562 54.23 493.562 54.23C493.561 54.23 493.56 54.23 493.56 54.23C493.559 54.23 493.558 54.23 493.558 54.23C493.557 54.23 493.556 54.23 493.556 54.23C493.555 54.23 493.554 54.23 493.554 54.23C493.553 54.23 493.552 54.23 493.552 54.23C493.551 54.23 493.55 54.23 493.55 54.23C493.549 54.23 493.548 54.23 493.548 54.23C493.547 54.23 493.546 54.23 493.546 54.23C493.545 54.23 493.544 54.23 493.544 54.23C493.543 54.23 493.542 54.23 493.541 54.23C493.541 54.23 493.54 54.23 493.539 54.23C493.539 54.23 493.538 54.23 493.537 54.23C493.537 54.23 493.536 54.23 493.535 54.23C493.535 54.23 493.534 54.23 493.533 54.23C493.533 54.23 493.532 54.23 493.531 54.23C493.531 54.23 493.53 54.23 493.529 54.23C493.529 54.23 493.528 54.23 493.527 54.23C493.527 54.23 493.526 54.23 493.525 54.23C493.525 54.23 493.524 54.23 493.523 54.23C493.522 54.23 493.522 54.23 493.521 54.23C493.52 54.23 493.52 54.23 493.519 54.23C493.518 54.23 493.518 54.23 493.517 54.23C493.516 54.23 493.516 54.23 493.515 54.23C493.514 54.23 493.514 54.23 493.513 54.23C493.512 54.23 493.512 54.23 493.511 54.23C493.51 54.23 493.51 54.23 493.509 54.23C493.508 54.23 493.508 54.23 493.507 54.23C493.506 54.23 493.505 54.23 493.505 54.23C493.504 54.23 493.503 54.23 493.503 54.23C493.502 54.23 493.501 54.23 493.501 54.23C493.5 54.23 493.499 54.23 493.499 54.23C493.498 54.23 493.497 54.23 493.497 54.23C493.496 54.23 493.495 54.23 493.495 54.23C493.494 54.23 493.493 54.23 493.493 54.23C493.492 54.23 493.491 54.23 493.49 54.23C493.49 54.23 493.489 54.23 493.488 54.23C493.488 54.23 493.487 54.23 493.486 54.23C493.486 54.23 493.485 54.23 493.484 54.23C493.484 54.23 493.483 54.23 493.482 54.23C493.482 54.23 493.481 54.23 493.48 54.23C493.48 54.23 493.479 54.23 493.478 54.23C493.478 54.23 493.477 54.23 493.476 54.23C493.475 54.23 493.475 54.23 493.474 54.23C493.473 54.23 493.473 54.23 493.472 54.23C493.471 54.23 493.471 54.23 493.47 54.23C493.469 54.23 493.469 54.23 493.468 54.23C493.467 54.23 493.467 54.23 493.466 54.23C493.465 54.23 493.464 54.23 493.464 54.23C493.463 54.23 493.462 54.23 493.462 54.23C493.461 54.23 493.46 54.23 493.46 54.23C493.459 54.23 493.458 54.23 493.458 54.23C493.457 54.23 493.456 54.23 493.456 54.23C493.455 54.23 493.454 54.23 493.453 54.23C493.453 54.23 493.452 54.23 493.451 54.23C493.451 54.23 493.45 54.23 493.449 54.23C493.449 54.23 493.448 54.23 493.447 54.23C493.447 54.23 493.446 54.23 493.445 54.23C493.445 54.23 493.444 54.23 493.443 54.23C493.443 54.23 493.442 54.23 493.441 54.23C493.44 54.23 493.44 54.23 493.439 54.23C493.438 54.23 493.438 54.23 493.437 54.23C493.436 54.23 493.436 54.23 493.435 54.23C493.434 54.23 493.434 54.23 493.433 54.23C493.432 54.23 493.431 54.23 493.431 54.23C493.43 54.23 493.429 54.23 493.429 54.23C493.428 54.23 493.427 54.23 493.427 54.23C493.426 54.23 493.425 54.23 493.425 54.23C493.424 54.23 493.423 54.23 493.423 54.23C493.422 54.23 493.421 54.23 493.42 54.23C493.42 54.23 493.419 54.23 493.418 54.23C493.418 54.23 493.417 54.23 493.416 54.23C493.416 54.23 493.415 54.23 493.414 54.23C493.414 54.23 493.413 54.23 493.412 54.23C493.411 54.23 493.411 54.23 493.41 54.23C493.409 54.23 493.409 54.23 493.408 54.23C493.407 54.23 493.407 54.23 493.406 54.23C493.405 54.23 493.405 54.23 493.404 54.23C493.403 54.23 493.402 54.23 493.402 54.23C493.401 54.23 493.4 54.23 493.4 54.23C493.399 54.23 493.398 54.23 493.398 54.23C493.397 54.23 493.396 54.23 493.396 54.23C493.395 54.23 493.394 54.23 493.393 54.23C493.393 54.23 493.392 54.23 493.391 54.23C493.391 54.23 493.39 54.23 493.389 54.23C493.389 54.23 493.388 54.23 493.387 54.23C493.387 54.23 493.386 54.23 493.385 54.23C493.384 54.23 493.384 54.23 493.383 54.23C493.382 54.23 493.382 54.23 493.381 54.23C493.38 54.23 493.38 54.23 493.379 54.23C493.378 54.23 493.377 54.23 493.377 54.23C493.376 54.23 493.375 54.23 493.375 54.23C493.374 54.23 493.373 54.23 493.373 54.23C493.372 54.23 493.371 54.23 493.371 54.23C493.37 54.23 493.369 54.23 493.368 54.23C493.368 54.23 493.367 54.23 493.366 54.23C493.366 54.23 493.365 54.23 493.364 54.23C493.364 54.23 493.363 54.23 493.362 54.23C493.361 54.23 493.361 54.23 493.36 54.23C493.359 54.23 493.359 54.23 493.358 54.23C493.357 54.23 493.357 54.23 493.356 54.23C493.355 54.23 493.354 54.23 493.354 54.23C493.353 54.23 493.352 54.23 493.352 54.23C493.351 54.23 493.35 54.23 493.35 54.23C493.349 54.23 493.348 54.23 493.348 54.23C493.347 54.23 493.346 54.23 493.345 54.23C493.345 54.23 493.344 54.23 493.343 54.23C493.343 54.23 493.342 54.23 493.341 54.23C493.341 54.23 493.34 54.23 493.339 54.23C493.338 54.23 493.338 54.23 493.337 54.23C493.336 54.23 493.336 54.23 493.335 54.23C493.334 54.23 493.334 54.23 493.333 54.23C493.332 54.23 493.331 54.23 493.331 54.23C493.33 54.23 493.329 54.23 493.329 54.23C493.328 54.23 493.327 54.23 493.327 54.23C493.326 54.23 493.325 54.23 493.324 54.23C493.324 54.23 493.323 54.23 493.322 54.23C493.322 54.23 493.321 54.23 493.32 54.23C493.32 54.23 493.319 54.23 493.318 54.23C493.317 54.23 493.317 54.23 493.316 54.23C493.315 54.23 493.315 54.23 493.314 54.23C493.313 54.23 493.312 54.23 493.312 54.23C493.311 54.23 493.31 54.23 493.31 54.23C493.309 54.23 493.308 54.23 493.308 54.23C493.307 54.23 493.306 54.23 493.305 54.23V56.23ZM494.295 56.23C495.949 56.23 497.379 55.8323 498.456 54.9093L497.155 53.3907C496.552 53.9077 495.642 54.23 494.295 54.23V56.23ZM498.46 54.9057C499.521 53.9866 500.272 52.7695 500.738 51.3032L498.833 50.6968C498.459 51.8705 497.89 52.7534 497.151 53.3943L498.46 54.9057ZM500.725 51.3417C501.239 49.9286 501.584 48.3154 501.77 46.5129L499.781 46.3071C499.607 47.9846 499.292 49.4314 498.846 50.6583L500.725 51.3417ZM501.767 46.5422C502.012 44.703 502.164 42.718 502.225 40.5886L500.226 40.5314C500.167 42.602 500.019 44.517 499.784 46.2778L501.767 46.5422ZM502.225 40.5954L502.945 20.2554L500.946 20.1846L500.226 40.5246L502.225 40.5954ZM501.945 21.22H546.045V19.22H501.945V21.22ZM545.045 20.22V69H547.045V20.22H545.045ZM546.045 68H528.945V70H546.045V68ZM529.945 69V29.94H527.945V69H529.945ZM528.23 30.6387L532.01 34.5087L533.441 33.1113L529.661 29.2413L528.23 30.6387ZM532.725 32.81H513.195V34.81H532.725V32.81ZM513.943 34.4744L517.543 30.4244L516.048 29.0956L512.448 33.1456L513.943 34.4744ZM515.797 29.7132L515.257 41.2332L517.254 41.3268L517.794 29.8068L515.797 29.7132ZM515.256 41.2389C515.078 45.5855 514.691 49.5335 514.099 53.0856L516.072 53.4144C516.68 49.7664 517.073 45.7345 517.255 41.3211L515.256 41.2389ZM514.097 53.0992C513.568 56.5683 512.721 59.4993 511.573 61.9101L513.378 62.7699C514.63 60.1407 515.523 57.0117 516.074 53.4008L514.097 53.0992ZM511.573 61.9101C510.442 64.2838 508.907 66.0855 506.976 67.3543L508.075 69.0257C510.344 67.5345 512.109 65.4362 513.378 62.7699L511.573 61.9101ZM506.982 67.3504C505.147 68.5379 502.741 69.17 499.695 69.17V71.17C503.01 71.17 505.824 70.4821 508.069 69.0296L506.982 67.3504ZM499.695 69.17C498.623 69.17 497.39 69.0569 495.99 68.8236L495.661 70.7964C497.141 71.0431 498.488 71.17 499.695 71.17V69.17ZM495.955 68.8184C494.611 68.6432 493.173 68.3794 491.64 68.0256L491.191 69.9744C492.778 70.3406 494.28 70.6168 495.696 70.8016L495.955 68.8184ZM586.157 35.34L586.167 34.34H586.157V35.34ZM601.007 39.66L601.644 38.8885V38.8885L601.007 39.66ZM600.197 64.5L600.815 65.2867L600.816 65.2855L600.197 64.5ZM583.997 69L584.006 68H583.997V69ZM557.537 69H556.537V70H557.537V69ZM557.537 20.22V19.22H556.537V20.22H557.537ZM574.547 20.22H575.547V19.22H574.547V20.22ZM574.547 35.34H573.547V36.34H574.547V35.34ZM582.287 57.3L582.276 58.3H582.287V57.3ZM587.057 55.86L586.413 55.0951L587.057 55.86ZM587.057 47.13L586.443 47.9193L586.454 47.9273L586.464 47.9351L587.057 47.13ZM582.287 45.78L582.316 44.7804L582.302 44.78H582.287V45.78ZM574.547 45.78V44.78H573.547V45.78H574.547ZM574.547 57.21H573.547V58.1984L574.536 58.2099L574.547 57.21ZM586.148 36.34C592.502 36.3988 597.193 37.8112 600.371 40.4315L601.644 38.8885C597.981 35.8688 592.773 34.4012 586.167 34.34L586.148 36.34ZM600.371 40.4315C603.519 43.027 605.137 46.7396 605.137 51.72H607.137C607.137 46.2604 605.336 41.933 601.644 38.8885L600.371 40.4315ZM605.137 51.72C605.137 56.8387 603.279 60.7991 599.578 63.7145L600.816 65.2855C605.036 61.9609 607.137 57.4013 607.137 51.72H605.137ZM599.58 63.7133C595.917 66.5874 590.767 68.0588 584.006 68L583.989 70C591.028 70.0612 596.678 68.5326 600.815 65.2867L599.58 63.7133ZM583.997 68H557.537V70H583.997V68ZM558.537 69V20.22H556.537V69H558.537ZM557.537 21.22H574.547V19.22H557.537V21.22ZM573.547 20.22V35.34H575.547V20.22H573.547ZM574.547 36.34H586.157V34.34H574.547V36.34ZM582.287 58.3C584.476 58.3 586.324 57.7846 587.701 56.6249L586.413 55.0951C585.51 55.8554 584.178 56.3 582.287 56.3V58.3ZM587.701 56.6249C589.136 55.4172 589.767 53.6219 589.767 51.45H587.767C587.767 53.2381 587.259 54.3828 586.413 55.0951L587.701 56.6249ZM589.767 51.45C589.767 49.2402 589.146 47.4267 587.651 46.3249L586.464 47.9351C587.249 48.5133 587.767 49.5798 587.767 51.45H589.767ZM587.671 46.3406C586.355 45.317 584.522 44.8434 582.316 44.7804L582.259 46.7796C584.253 46.8366 585.599 47.263 586.443 47.9193L587.671 46.3406ZM582.287 44.78H574.547V46.78H582.287V44.78ZM573.547 45.78V57.21H575.547V45.78H573.547ZM574.536 58.2099L582.276 58.2999L582.299 56.3001L574.559 56.2101L574.536 58.2099ZM647.366 55.32L648.09 56.0101L649.701 54.32H647.366V55.32ZM643.676 59.19H642.676V61.6879L644.4 59.8801L643.676 59.19ZM643.676 20.22V19.22H642.676V20.22H643.676ZM660.686 20.22H661.686V19.22H660.686V20.22ZM660.686 59.19L659.979 59.8971L661.686 61.6042V59.19H660.686ZM656.816 55.32V54.32H654.402L656.109 56.0271L656.816 55.32ZM677.516 55.32L678.24 56.0101L679.851 54.32H677.516V55.32ZM673.826 59.19H672.826V61.6879L674.549 59.8801L673.826 59.19ZM673.826 20.22V19.22H672.826V20.22H673.826ZM690.746 20.22H691.746V19.22H690.746V20.22ZM690.746 69V70H691.746V69H690.746ZM613.436 69H612.436V70H613.436V69ZM613.436 20.22V19.22H612.436V20.22H613.436ZM630.446 20.22H631.446V19.22H630.446V20.22ZM630.446 59.19L629.722 59.8801L631.446 61.6879V59.19H630.446ZM626.756 55.32V54.32H624.421L626.032 56.0101L626.756 55.32ZM646.642 54.6299L642.952 58.4999L644.4 59.8801L648.09 56.0101L646.642 54.6299ZM644.676 59.19V20.22H642.676V59.19H644.676ZM643.676 21.22H660.686V19.22H643.676V21.22ZM659.686 20.22V59.19H661.686V20.22H659.686ZM661.393 58.4829L657.523 54.6129L656.109 56.0271L659.979 59.8971L661.393 58.4829ZM656.816 56.32H677.516V54.32H656.816V56.32ZM676.792 54.6299L673.102 58.4999L674.549 59.8801L678.24 56.0101L676.792 54.6299ZM674.826 59.19V20.22H672.826V59.19H674.826ZM673.826 21.22H690.746V19.22H673.826V21.22ZM689.746 20.22V69H691.746V20.22H689.746ZM690.746 68H613.436V70H690.746V68ZM614.436 69V20.22H612.436V69H614.436ZM613.436 21.22H630.446V19.22H613.436V21.22ZM629.446 20.22V59.19H631.446V20.22H629.446ZM631.169 58.4999L627.479 54.6299L626.032 56.0101L629.722 59.8801L631.169 58.4999ZM626.756 56.32H647.366V54.32H626.756V56.32ZM712.283 66.57L711.821 67.4568L711.828 67.4607L711.836 67.4644L712.283 66.57ZM702.293 57.57L701.439 58.0904L701.444 58.0982L701.449 58.106L702.293 57.57ZM702.203 31.56L701.349 31.0396L701.347 31.0435L702.203 31.56ZM711.833 22.65L712.291 23.5392L712.301 23.5338L711.833 22.65ZM738.743 22.38L738.296 23.2745L738.307 23.2798L738.743 22.38ZM748.193 30.93L747.343 31.4564V31.4564L748.193 30.93ZM751.613 46.77L752.61 46.8467V46.8467L751.613 46.77ZM751.433 48.93V49.93H752.346L752.429 49.0205L751.433 48.93ZM712.823 48.93H711.823V49.93H712.823V48.93ZM712.823 39.93V38.93H711.823V39.93H712.823ZM742.343 39.93L742.706 40.862L742.343 38.93V39.93ZM735.863 42.45L734.864 42.423L734.823 43.9275L736.226 43.382L735.863 42.45ZM734.603 36.69L733.715 37.1503L733.722 37.1631L733.729 37.1756L734.603 36.69ZM731.003 32.91L730.489 33.7675L730.496 33.7719L730.503 33.7762L731.003 32.91ZM720.293 32.91L719.793 32.0438L719.786 32.0481L719.779 32.0525L720.293 32.91ZM716.783 36.78L717.671 37.2403L717.674 37.2338L717.678 37.2272L716.783 36.78ZM716.963 51.36L716.088 51.8431L716.094 51.8545L716.101 51.8657L716.963 51.36ZM721.283 55.41L720.825 56.2986L720.836 56.3045L720.848 56.3102L721.283 55.41ZM734.063 55.77L734.429 56.7008L734.437 56.6975L734.446 56.694L734.063 55.77ZM739.193 52.53L739.914 51.8369L739.259 51.1561L738.542 51.7707L739.193 52.53ZM748.193 61.89L748.934 62.5618L749.561 61.8701L748.914 61.1969L748.193 61.89ZM739.553 67.83L739.913 68.7629L739.92 68.7602L739.927 68.7573L739.553 67.83ZM727.403 68.81C721.769 68.81 716.887 67.754 712.73 65.6756L711.836 67.4644C716.319 69.706 721.518 70.81 727.403 70.81V68.81ZM712.745 65.6832C708.63 63.5384 705.436 60.6547 703.137 57.034L701.449 58.106C703.95 62.0453 707.417 65.1616 711.821 67.4568L712.745 65.6832ZM703.147 57.0496C700.91 53.379 699.783 49.2118 699.783 44.52H697.783C697.783 49.5482 698.996 54.081 701.439 58.0904L703.147 57.0496ZM699.783 44.52C699.783 39.8231 700.883 35.6852 703.06 32.0765L701.347 31.0435C698.964 34.9948 697.783 39.4969 697.783 44.52H699.783ZM703.057 32.0804C705.299 28.4007 708.371 25.5568 712.291 23.5391L711.376 21.7609C707.136 23.9432 703.787 27.0393 701.349 31.0396L703.057 32.0804ZM712.301 23.5338C716.222 21.4578 720.649 20.41 725.603 20.41V18.41C720.357 18.41 715.604 19.5221 711.365 21.7662L712.301 23.5338ZM725.603 20.41C730.261 20.41 734.486 21.3696 738.296 23.2744L739.19 21.4856C735.08 19.4304 730.545 18.41 725.603 18.41V20.41ZM738.307 23.2798C742.094 25.1162 745.102 27.8358 747.343 31.4564L749.043 30.4036C746.605 26.4642 743.312 23.4838 739.18 21.4802L738.307 23.2798ZM747.343 31.4564C749.566 35.0473 750.703 39.4459 750.703 44.7H752.703C752.703 39.1541 751.5 34.3727 749.043 30.4036L747.343 31.4564ZM750.703 44.7C750.703 45.2681 750.675 45.9316 750.616 46.6933L752.61 46.8467C752.672 46.0484 752.703 45.3319 752.703 44.7H750.703ZM750.616 46.6933C750.556 47.4695 750.497 48.1848 750.437 48.8395L752.429 49.0205C752.49 48.3552 752.55 47.6305 752.61 46.8467L750.616 46.6933ZM751.433 47.93H712.823V49.93H751.433V47.93ZM713.823 48.93V39.93H711.823V48.93H713.823ZM712.823 40.93H742.343V38.93H712.823V40.93ZM741.981 38.998L735.501 41.518L736.226 43.382L742.706 40.862L741.981 38.998ZM736.863 42.477C736.927 40.1136 736.48 38.0094 735.477 36.2044L733.729 37.1756C734.526 38.6106 734.92 40.3464 734.864 42.423L736.863 42.477ZM735.491 36.2297C734.564 34.4425 733.231 33.0406 731.503 32.0438L730.503 33.7762C731.896 34.5794 732.962 35.6975 733.715 37.1503L735.491 36.2297ZM731.518 32.0525C729.838 31.0447 727.884 30.56 725.693 30.56V32.56C727.582 32.56 729.168 32.9753 730.489 33.7675L731.518 32.0525ZM725.693 30.56C723.501 30.56 721.525 31.045 719.793 32.0438L720.793 33.7762C722.182 32.975 723.805 32.56 725.693 32.56V30.56ZM719.779 32.0525C718.104 33.0576 716.807 34.4958 715.889 36.3328L717.678 37.2272C718.439 35.7042 719.483 34.5624 720.808 33.7675L719.779 32.0525ZM715.895 36.3197C714.967 38.1095 714.523 40.1941 714.523 42.54H716.523C716.523 40.4459 716.919 38.6905 717.671 37.2403L715.895 36.3197ZM714.523 42.54V45.15H716.523V42.54H714.523ZM714.523 45.15C714.523 47.684 715.031 49.9273 716.088 51.8431L717.839 50.8769C716.976 49.3127 716.523 47.416 716.523 45.15H714.523ZM716.101 51.8657C717.22 53.7754 718.803 55.2553 720.825 56.2986L721.742 54.5214C720.043 53.6447 718.746 52.4246 717.826 50.8543L716.101 51.8657ZM720.848 56.3102C722.873 57.2901 725.249 57.76 727.943 57.76V55.76C725.477 55.76 723.414 55.3299 721.719 54.5098L720.848 56.3102ZM727.943 57.76C730.429 57.76 732.601 57.4189 734.429 56.7008L733.698 54.8392C732.165 55.4411 730.257 55.76 727.943 55.76V57.76ZM734.446 56.694C736.299 55.9273 738.097 54.7863 739.844 53.2893L738.542 51.7707C736.929 53.1537 735.308 54.1727 733.681 54.846L734.446 56.694ZM738.472 53.2231L747.472 62.5831L748.914 61.1969L739.914 51.8369L738.472 53.2231ZM747.452 61.2182C745.22 63.6799 742.468 65.5757 739.179 66.9026L739.927 68.7573C743.479 67.3243 746.487 65.2601 748.934 62.5618L747.452 61.2182ZM739.193 66.8971C735.915 68.1624 731.993 68.81 727.403 68.81V70.81C732.174 70.81 736.352 70.1376 739.913 68.7629L739.193 66.8971ZM770.281 46.05H769.281V47.05H770.281V46.05ZM771.181 40.83L770.26 40.4404L770.256 40.4494L770.253 40.4586L771.181 40.83ZM773.611 36.69L772.83 36.0653L773.611 36.69ZM776.671 33.45L777.336 34.1974L777.338 34.1952L776.671 33.45ZM779.821 30.57L780.505 31.2995L780.517 31.2885L780.528 31.2771L779.821 30.57ZM782.161 27.69L781.337 27.1235L781.325 27.1415L781.313 27.16L782.161 27.69ZM780.901 20.31L780.323 21.126L780.331 21.1315L780.339 21.1369L780.901 20.31ZM768.661 20.49L768.162 19.6233L768.151 19.6301L768.661 20.49ZM763.981 25.26L763.508 26.141L764.355 26.596L764.843 25.767L763.981 25.26ZM750.571 18.06L749.707 17.5569L749.186 18.4514L750.098 18.941L750.571 18.06ZM760.741 8.43L761.217 9.30975L761.226 9.30471L760.741 8.43ZM789.541 6.72L789.192 7.65698L789.201 7.66051L789.211 7.66385L789.541 6.72ZM798.001 12.39L798.778 11.7608L798.001 12.39ZM799.981 27.78L800.905 28.1623L799.981 27.78ZM797.191 32.37L796.434 31.7164L796.426 31.7265L796.417 31.7368L797.191 32.37ZM793.681 36.06L794.332 36.8193L794.342 36.8105L794.352 36.8015L793.681 36.06ZM790.081 39.21L789.414 38.4648L789.404 38.4737L789.395 38.483L790.081 39.21ZM787.381 42.36L786.549 41.8053L787.381 42.36ZM786.301 46.05V47.05H787.301V46.05H786.301ZM771.001 67.02L771.697 66.3018L771.001 67.02ZM771.001 53.79L771.673 54.531L771.679 54.5253L771.685 54.5195L771.001 53.79ZM785.671 53.79L784.976 54.5086L784.988 54.52L785 54.531L785.671 53.79ZM785.671 67.02L784.975 66.3018L784.97 66.3073L784.964 66.3129L785.671 67.02ZM771.281 46.05C771.281 44.1694 771.566 42.5599 772.11 41.2014L770.253 40.4586C769.596 42.1001 769.281 43.9706 769.281 46.05H771.281ZM772.102 41.2196C772.73 39.7355 773.495 38.4362 774.392 37.3147L772.83 36.0653C771.808 37.3438 770.952 38.8045 770.26 40.4404L772.102 41.2196ZM774.392 37.3147C775.319 36.156 776.3 35.1176 777.336 34.1974L776.007 32.7026C774.882 33.7024 773.823 34.824 772.83 36.0653L774.392 37.3147ZM777.338 34.1952C778.483 33.1709 779.539 32.2056 780.505 31.2995L779.137 29.8405C778.184 30.7344 777.14 31.6891 776.004 32.7048L777.338 34.1952ZM780.528 31.2771C781.532 30.2738 782.362 29.2554 783.009 28.22L781.313 27.16C780.76 28.0446 780.031 28.9462 779.114 29.8629L780.528 31.2771ZM782.985 28.2565C783.757 27.1337 784.151 25.887 784.151 24.54H782.151C782.151 25.473 781.885 26.3263 781.337 27.1235L782.985 28.2565ZM784.151 24.54C784.151 22.4058 783.235 20.6875 781.464 19.4831L780.339 21.1369C781.568 21.9725 782.151 23.0742 782.151 24.54H784.151ZM781.479 19.494C779.823 18.3208 777.711 17.78 775.231 17.78V19.78C777.431 19.78 779.099 20.2592 780.323 21.126L781.479 19.494ZM775.231 17.78C772.665 17.78 770.302 18.3915 768.162 19.6234L769.16 21.3566C770.981 20.3085 772.997 19.78 775.231 19.78V17.78ZM768.151 19.6301C766.077 20.8614 764.399 22.5766 763.119 24.753L764.843 25.767C765.963 23.8634 767.405 22.3986 769.172 21.3499L768.151 19.6301ZM764.454 24.379L751.044 17.179L750.098 18.941L763.508 26.141L764.454 24.379ZM751.435 18.5631C753.675 14.7154 756.924 11.63 761.217 9.3097L760.266 7.55029C755.678 10.03 752.147 13.3646 749.707 17.5569L751.435 18.5631ZM761.226 9.30471C765.48 6.94792 770.821 5.74 777.301 5.74V3.74C770.581 3.74 764.883 4.99207 760.257 7.55528L761.226 9.30471ZM777.301 5.74C781.828 5.74 785.785 6.38678 789.192 7.65698L789.891 5.78302C786.217 4.41321 782.015 3.74 777.301 3.74V5.74ZM789.211 7.66385C792.667 8.87347 795.32 10.6673 797.224 13.0192L798.778 11.7608C796.602 9.07266 793.615 7.08653 789.872 5.77614L789.211 7.66385ZM797.224 13.0192C799.101 15.3383 800.061 18.1978 800.061 21.66H802.061C802.061 17.8022 800.981 14.4817 798.778 11.7608L797.224 13.0192ZM800.061 21.66C800.061 23.8996 799.716 25.8044 799.057 27.3976L800.905 28.1623C801.686 26.2756 802.061 24.1004 802.061 21.66H800.061ZM799.057 27.3976C798.375 29.0467 797.499 30.4835 796.434 31.7164L797.948 33.0236C799.163 31.6165 800.148 29.9933 800.905 28.1623L799.057 27.3976ZM796.417 31.7368C795.369 33.0183 794.233 34.2121 793.01 35.3185L794.352 36.8015C795.649 35.6279 796.854 34.3617 797.965 33.0032L796.417 31.7368ZM793.03 35.3007C791.765 36.385 790.56 37.4397 789.414 38.4648L790.748 39.9552C791.882 38.9403 793.077 37.895 794.332 36.8193L793.03 35.3007ZM789.395 38.483C788.267 39.5475 787.316 40.6543 786.549 41.8053L788.213 42.9147C788.886 41.9057 789.735 40.9125 790.768 39.937L789.395 38.483ZM786.549 41.8053C785.713 43.0601 785.301 44.4857 785.301 46.05H787.301C787.301 44.8543 787.61 43.8199 788.213 42.9147L786.549 41.8053ZM786.301 45.05H770.281V47.05H786.301V45.05ZM778.291 68.81C775.583 68.81 773.411 67.9622 771.697 66.3018L770.305 67.7382C772.431 69.7978 775.12 70.81 778.291 70.81V68.81ZM771.697 66.3018C769.964 64.6225 769.121 62.6585 769.121 60.36H767.121C767.121 63.2215 768.199 65.6975 770.305 67.7382L771.697 66.3018ZM769.121 60.36C769.121 57.9962 769.966 56.0774 771.673 54.531L770.33 53.049C768.196 54.9826 767.121 57.4438 767.121 60.36H769.121ZM771.685 54.5195C773.398 52.9141 775.573 52.09 778.291 52.09V50.09C775.129 50.09 772.445 51.0658 770.317 53.0605L771.685 54.5195ZM778.291 52.09C781.142 52.09 783.336 52.9215 784.976 54.5086L786.367 53.0714C784.287 51.0585 781.56 50.09 778.291 50.09V52.09ZM785 54.531C786.706 56.0774 787.551 57.9962 787.551 60.36H789.551C789.551 57.4438 788.476 54.9826 786.343 53.049L785 54.531ZM787.551 60.36C787.551 62.6585 786.709 64.6225 784.975 66.3018L786.367 67.7382C788.474 65.6975 789.551 63.2215 789.551 60.36H787.551ZM784.964 66.3129C783.322 67.9547 781.133 68.81 778.291 68.81V70.81C781.57 70.81 784.3 69.8053 786.378 67.7271L784.964 66.3129Z" fill="#227E91" mask="url(#path-1-outside-1_61_33579)"/>
</svg>
