<svg width="82" height="69" viewBox="0 0 82 69" fill="none" xmlns="http://www.w3.org/2000/svg">
<path d="M44.5322 1.72412H37.9613H44.5322ZM31.3904 1.72412H11.3821C9.35471 1.72412 7.41009 2.54549 5.97496 4.00801C4.53983 5.47053 3.73139 7.45475 3.72704 9.52529V53.1447C3.72108 53.7076 3.77061 54.2697 3.87489 54.8224C4.24293 56.5776 5.18875 58.151 6.55477 59.2805C7.92078 60.41 9.62451 61.0274 11.3821 61.0298H70.29C72.0476 61.0274 73.7514 60.41 75.1174 59.2805C76.4834 58.151 77.4292 56.5776 77.7973 54.8224C77.9015 54.2697 77.9511 53.7076 77.9451 53.1447V9.52529C77.9407 7.45475 77.1323 5.47053 75.6972 4.00801C74.262 2.54549 72.3174 1.72412 70.29 1.72412H49.4603H31.3904ZM60.9594 13.4678C61.8307 13.4678 62.6664 13.8213 63.2825 14.4506C63.8987 15.0798 64.2448 15.9333 64.2448 16.8232C64.2448 17.713 63.8987 18.5665 63.2825 19.1957C62.6664 19.825 61.8307 20.1785 60.9594 20.1785C60.1569 20.1823 59.3825 19.8767 58.791 19.3229C58.4426 19.0103 58.163 18.626 57.9704 18.1952C57.7779 17.7643 57.6769 17.2967 57.6739 16.8232C57.6739 15.9333 58.0201 15.0798 58.6362 14.4506C59.2524 13.8213 60.088 13.4678 60.9594 13.4678ZM41.2467 18.5008C42.0141 18.5044 42.7559 18.7822 43.3437 19.286C43.9314 19.7898 44.328 20.4878 44.4645 21.2589C44.6011 22.03 44.4691 22.8257 44.0914 23.5078C43.7137 24.1899 43.1141 24.7155 42.3967 24.9934C42.0311 25.1427 41.6404 25.2168 41.2467 25.2115C40.3754 25.2115 39.5397 24.858 38.9236 24.2288C38.3075 23.5995 37.9613 22.7461 37.9613 21.8562C37.9613 20.9663 38.3075 20.1128 38.9236 19.4836C39.5397 18.8543 40.3754 18.5008 41.2467 18.5008ZM30.9633 27.6609C31.5407 27.1592 32.2751 26.8854 33.0332 26.8892C33.5253 26.8895 34.0111 27.0027 34.4547 27.2205C34.8982 27.4383 35.2882 27.7551 35.5958 28.1474C36.0631 28.7423 36.318 29.4819 36.3186 30.2445C36.3186 31.1344 35.9724 31.9879 35.3563 32.6171C34.7402 33.2464 33.9045 33.5999 33.0332 33.5999C32.1618 33.5999 31.3261 33.2464 30.71 32.6171C30.0939 31.9879 29.7477 31.1344 29.7477 30.2445C29.7509 29.7489 29.8616 29.2602 30.0718 28.8135C30.282 28.3668 30.5864 27.9731 30.9633 27.6609V27.6609ZM24.8196 18.5008C25.6909 18.5008 26.5266 18.8543 27.1427 19.4836C27.7589 20.1128 28.105 20.9663 28.105 21.8562C28.105 22.7461 27.7589 23.5995 27.1427 24.2288C26.5266 24.858 25.6909 25.2115 24.8196 25.2115C23.9482 25.2115 23.1125 24.858 22.4964 24.2288C21.8803 23.5995 21.5341 22.7461 21.5341 21.8562C21.5341 20.9663 21.8803 20.1128 22.4964 19.4836C23.1125 18.8543 23.9482 18.5008 24.8196 18.5008V18.5008Z" stroke="#2A91A6" stroke-width="1.5" stroke-linecap="round" stroke-linejoin="round"/>
<path d="M77.9446 46.4329H3.72656V54.7206H77.9446V46.4329Z" stroke="#2A91A6" stroke-width="1.5" stroke-linecap="round" stroke-linejoin="round"/>
<path d="M26.4621 67.4311H8.80292C4.49899 67.4311 1 64.6461 1 61.2069V54.9995H80.6719V61.2069C80.6719 64.6461 77.1729 67.4311 72.869 67.4311H34.6757" stroke="#2A91A6" stroke-width="1.5" stroke-linecap="round" stroke-linejoin="round"/>
<path d="M52.1721 54.7207H25.6094V60.9449H52.1721V54.7207Z" stroke="#2A91A6" stroke-width="1.5" stroke-linecap="round" stroke-linejoin="round"/>
<path d="M22.5031 24.2222L15.6365 31.2348L13.3203 33.6003" stroke="#2A91A6" stroke-width="1.5" stroke-linecap="round" stroke-linejoin="round"/>
<path d="M30.964 27.661L27.6621 23.5339" stroke="#2A91A6" stroke-width="1.5" stroke-linecap="round" stroke-linejoin="round"/>
<path d="M39.6861 24.8086L35.5957 28.1472" stroke="#2A91A6" stroke-width="1.5" stroke-linecap="round" stroke-linejoin="round"/>
<path d="M47.8155 31.9229L42.3945 24.9941" stroke="#2A91A6" stroke-width="1.5" stroke-linecap="round" stroke-linejoin="round"/>
<path d="M47.8184 31.923L60.9601 16.824" stroke="#2A91A6" stroke-width="1.5" stroke-linecap="round" stroke-linejoin="round"/>
<path d="M13.3206 36.9548C15.1351 36.9548 16.606 35.4526 16.606 33.5995C16.606 31.7464 15.1351 30.2441 13.3206 30.2441C11.5061 30.2441 10.0352 31.7464 10.0352 33.5995C10.0352 35.4526 11.5061 36.9548 13.3206 36.9548Z" stroke="#2A91A6" stroke-width="1.5" stroke-linecap="round" stroke-linejoin="round"/>
<path d="M28.1041 21.8568C28.1041 22.7467 27.7579 23.6001 27.1418 24.2294C26.5257 24.8586 25.69 25.2121 24.8186 25.2121C23.9473 25.2121 23.1116 24.8586 22.4955 24.2294C21.8793 23.6001 21.5332 22.7467 21.5332 21.8568C21.5332 20.9669 21.8793 20.1135 22.4955 19.4842C23.1116 18.855 23.9473 18.5015 24.8186 18.5015C25.69 18.5015 26.5257 18.855 27.1418 19.4842C27.7579 20.1135 28.1041 20.9669 28.1041 21.8568V21.8568Z" stroke="#2A91A6" stroke-width="1.5" stroke-linecap="round" stroke-linejoin="round"/>
<path d="M36.3189 30.2443C36.3189 31.1342 35.9728 31.9876 35.3566 32.6169C34.7405 33.2461 33.9048 33.5996 33.0335 33.5996C32.1621 33.5996 31.3265 33.2461 30.7103 32.6169C30.0942 31.9876 29.748 31.1342 29.748 30.2443C29.7513 29.7487 29.8619 29.26 30.0721 28.8132C30.2823 28.3665 30.5868 27.9729 30.9637 27.6607C31.5411 27.159 32.2754 26.8852 33.0335 26.889C33.5256 26.8893 34.0114 27.0025 34.455 27.2203C34.8986 27.4381 35.2885 27.7548 35.5961 28.1472C36.0634 28.742 36.3183 29.4817 36.3189 30.2443Z" stroke="#2A91A6" stroke-width="1.5" stroke-linecap="round" stroke-linejoin="round"/>
<path d="M44.5318 21.8568C44.5306 22.5395 44.3256 23.2056 43.944 23.7662C43.5624 24.3267 43.0225 24.7551 42.3963 24.9941C42.0308 25.1434 41.64 25.2175 41.2464 25.2121C40.375 25.2121 39.5394 24.8586 38.9232 24.2294C38.3071 23.6001 37.9609 22.7467 37.9609 21.8568C37.9609 20.9669 38.3071 20.1135 38.9232 19.4842C39.5394 18.855 40.375 18.5015 41.2464 18.5015C42.1177 18.5015 42.9534 18.855 43.5695 19.4842C44.1857 20.1135 44.5318 20.9669 44.5318 21.8568V21.8568Z" stroke="#2A91A6" stroke-width="1.5" stroke-linecap="round" stroke-linejoin="round"/>
<path d="M64.2447 16.8241C64.2447 17.714 63.8986 18.5674 63.2824 19.1967C62.6663 19.8259 61.8306 20.1794 60.9593 20.1794C60.1568 20.1832 59.3824 19.8777 58.7909 19.3238C58.4425 19.0113 58.1628 18.6269 57.9703 18.1961C57.7778 17.7652 57.6767 17.2977 57.6738 16.8241C57.6738 15.9342 58.02 15.0808 58.6361 14.4515C59.2522 13.8223 60.0879 13.4688 60.9593 13.4688C61.8306 13.4688 62.6663 13.8223 63.2824 14.4515C63.8986 15.0808 64.2447 15.9342 64.2447 16.8241V16.8241Z" stroke="#2A91A6" stroke-width="1.5" stroke-linecap="round" stroke-linejoin="round"/>
<path d="M59.3164 39.4714H67.3657" stroke="#2A91A6" stroke-width="1.5" stroke-linecap="round" stroke-linejoin="round"/>
<path d="M59.3164 36.1165H70.8154" stroke="#2A91A6" stroke-width="1.5" stroke-linecap="round" stroke-linejoin="round"/>
<path d="M59.3164 32.7615H65.0659" stroke="#2A91A6" stroke-width="1.5" stroke-linecap="round" stroke-linejoin="round"/>
<path d="M59.3164 29.4062H70.8154" stroke="#2A91A6" stroke-width="1.5" stroke-linecap="round" stroke-linejoin="round"/>
</svg>
