<svg width="72" height="72" viewBox="0 0 72 72" fill="none" xmlns="http://www.w3.org/2000/svg">
<path d="M71.0015 34.4922C71.0015 43.3905 67.4666 51.9244 61.1745 58.2165C54.8824 64.5086 46.3486 68.0434 37.4502 68.0434C36.821 68.0434 36.1799 68.0434 35.5625 68.0434V34.4922H71.0015Z" stroke="#2A91A6" stroke-width="1.5909" stroke-linecap="round" stroke-linejoin="round"/>
<path d="M32.6635 37.2715V70.7634C24.1066 70.2812 16.0587 66.5426 10.1708 60.3148C4.28292 54.0869 1.00159 45.842 1 37.2715H32.6635Z" stroke="#2A91A6" stroke-width="1.5909" stroke-linecap="round" stroke-linejoin="round"/>
<path d="M35.56 1V34.4919H3.89648C3.89807 25.9214 7.17941 17.6764 13.0673 11.4486C18.9552 5.22074 27.0031 1.4822 35.56 1V1Z" stroke="#2A91A6" stroke-width="1.5909" stroke-linecap="round" stroke-linejoin="round"/>
<path d="M45.6628 2.92383H40.4746V28.39H45.6628V2.92383Z" stroke="#2A91A6" stroke-width="1.5909" stroke-linecap="round" stroke-linejoin="round"/>
<path d="M54.1778 6.80469H49.0371V28.4242H54.1778V6.80469Z" stroke="#2A91A6" stroke-width="1.5909" stroke-linecap="round" stroke-linejoin="round"/>
<path d="M62.7214 2.92383H57.5332V28.39H62.7214V2.92383Z" stroke="#2A91A6" stroke-width="1.5909" stroke-linecap="round" stroke-linejoin="round"/>
<path d="M71.0001 12.5059H65.8594V28.4267H71.0001V12.5059Z" stroke="#2A91A6" stroke-width="1.5909" stroke-linecap="round" stroke-linejoin="round"/>
</svg>
