<svg width="44" height="65" viewBox="0 0 44 65" fill="none" xmlns="http://www.w3.org/2000/svg">
<path d="M43.0975 22.1417C43.0928 18.7312 42.2689 15.3723 40.6961 12.3508C39.1233 9.32943 36.848 6.73492 34.0639 4.78812C31.2798 2.84131 28.0693 1.59983 24.7056 1.16934C21.342 0.738846 17.9247 1.13208 14.7446 2.31557C11.5645 3.49906 8.71574 5.43777 6.44074 7.96673C4.16574 10.4957 2.53185 13.54 1.67811 16.8407C0.824367 20.1413 0.776048 23.6006 1.53726 26.924C2.29848 30.2475 3.8467 33.3368 6.05016 35.929C8.06653 38.3548 9.15704 41.4242 9.12584 44.5859C9.12919 46.4588 9.87036 48.254 11.187 49.5783C12.5037 50.9026 14.2885 51.6481 16.1505 51.6515H27.9343C29.7974 51.6515 31.5841 50.9071 32.9015 49.582C34.2189 48.257 34.959 46.4598 34.959 44.5859C34.9311 41.4126 36.0308 38.3336 38.06 35.9036C41.3274 32.0734 43.1155 27.1885 43.0975 22.1417Z" stroke="#2A91A6" stroke-width="1.68645" stroke-miterlimit="10"/>
<path d="M13.8232 51.2444H30.1382V60.6524C30.1382 61.5404 29.7875 62.392 29.1633 63.0199C28.539 63.6478 27.6923 64.0006 26.8094 64.0006H17.1521C16.2692 64.0006 15.4225 63.6478 14.7982 63.0199C14.174 62.392 13.8232 61.5404 13.8232 60.6524V51.2444V51.2444Z" stroke="#2A91A6" stroke-width="1.68645" stroke-miterlimit="10"/>
<path d="M32.5684 21.0855C32.3049 21.1016 32.043 21.0344 31.8194 20.8934C31.5957 20.7524 31.4215 20.5446 31.3211 20.2991C31.2207 20.0536 31.1991 19.7827 31.2593 19.5242C31.3195 19.2657 31.4586 19.0326 31.6571 18.8576C31.7835 18.7385 31.8843 18.5946 31.9533 18.4347C32.0222 18.2749 32.0577 18.1025 32.0577 17.9283C32.0577 17.754 32.0222 17.5816 31.9533 17.4218C31.8843 17.2619 31.7835 17.118 31.6571 16.9989L29.2143 14.5037C29.096 14.3785 28.9537 14.2788 28.7959 14.2107C28.6382 14.1426 28.4683 14.1074 28.2966 14.1074C28.1249 14.1074 27.955 14.1426 27.7973 14.2107C27.6395 14.2788 27.4972 14.3785 27.379 14.5037C27.2056 14.7099 26.9716 14.8552 26.7107 14.9189C26.4498 14.9825 26.1756 14.961 25.9276 14.8575C25.6796 14.7541 25.4708 14.574 25.3313 14.3434C25.1917 14.1127 25.1287 13.8434 25.1513 13.5743V13.5743C25.1513 13.2367 25.018 12.9129 24.7806 12.6741C24.5432 12.4354 24.2213 12.3013 23.8856 12.3013H20.4049C20.0692 12.3013 19.7473 12.4354 19.5099 12.6741C19.2725 12.9129 19.1392 13.2367 19.1392 13.5743C19.1618 13.8434 19.0988 14.1127 18.9593 14.3434C18.8197 14.574 18.6109 14.7541 18.3629 14.8575C18.115 14.961 17.8407 14.9825 17.5798 14.9189C17.3189 14.8552 17.0849 14.7099 16.9115 14.5037C16.7932 14.3765 16.6501 14.2751 16.4911 14.2058C16.3322 14.1365 16.1608 14.1007 15.9876 14.1007C15.8143 14.1007 15.643 14.1365 15.484 14.2058C15.3251 14.2751 15.182 14.3765 15.0636 14.5037L12.5955 17.0498C12.469 17.1689 12.3682 17.3128 12.2993 17.4727C12.2304 17.6326 12.1948 17.8049 12.1948 17.9792C12.1948 18.1534 12.2304 18.3258 12.2993 18.4857C12.3682 18.6455 12.469 18.7894 12.5955 18.9085C12.7939 19.0836 12.933 19.3166 12.9932 19.5751C13.0535 19.8336 13.0319 20.1045 12.9315 20.35C12.831 20.5956 12.6568 20.8034 12.4331 20.9444C12.2095 21.0854 11.9476 21.1525 11.6842 21.1364V21.1364C11.3485 21.1364 11.0265 21.2705 10.7892 21.5093C10.5518 21.748 10.4185 22.0718 10.4185 22.4095V25.885C10.4185 26.2226 10.5518 26.5464 10.7892 26.7852C11.0265 27.0239 11.3485 27.158 11.6842 27.158C11.9506 27.1384 12.2163 27.204 12.4434 27.3454C12.6704 27.4869 12.8472 27.697 12.9483 27.9457C13.0495 28.1943 13.0698 28.4688 13.0064 28.7298C12.943 28.9907 12.7992 29.2249 12.5955 29.3986C12.471 29.5176 12.3719 29.6607 12.3042 29.8194C12.2364 29.9781 12.2015 30.1489 12.2015 30.3216C12.2015 30.4943 12.2364 30.6652 12.3042 30.8238C12.3719 30.9825 12.471 31.1257 12.5955 31.2446L15.0383 33.7016C15.1567 33.8288 15.2998 33.9302 15.4587 33.9995C15.6176 34.0689 15.789 34.1046 15.9623 34.1046C16.1355 34.1046 16.3069 34.0689 16.4658 33.9995C16.6247 33.9302 16.7678 33.8288 16.8862 33.7016C17.0609 33.5009 17.2939 33.3604 17.5522 33.3C17.8106 33.2396 18.0812 33.2623 18.326 33.365C18.5708 33.4677 18.7774 33.6452 18.9165 33.8724C19.0556 34.0995 19.1202 34.3649 19.1012 34.631C19.1012 34.9686 19.2346 35.2924 19.4719 35.5312C19.7093 35.7699 20.0312 35.904 20.3669 35.904H23.8097C24.1454 35.904 24.4673 35.7699 24.7047 35.5312C24.942 35.2924 25.0754 34.9686 25.0754 34.631C25.0528 34.3619 25.1158 34.0926 25.2553 33.8619C25.3949 33.6313 25.6037 33.4512 25.8517 33.3478C26.0996 33.2443 26.3739 33.2228 26.6348 33.2865C26.8957 33.3501 27.1297 33.4955 27.303 33.7016C27.4213 33.8268 27.5636 33.9265 27.7214 33.9946C27.8791 34.0627 28.049 34.0979 28.2207 34.0979C28.3923 34.0979 28.5622 34.0627 28.72 33.9946C28.8777 33.9265 29.0201 33.8268 29.1383 33.7016L31.5811 31.2446C31.7056 31.1257 31.8047 30.9825 31.8724 30.8238C31.9402 30.6652 31.9751 30.4943 31.9751 30.3216C31.9751 30.1489 31.9402 29.9781 31.8724 29.8194C31.8047 29.6607 31.7056 29.5176 31.5811 29.3986V29.3986C31.4007 29.2147 31.2801 28.9798 31.2356 28.7252C31.191 28.4707 31.2246 28.2085 31.3317 27.9736C31.4389 27.7387 31.6146 27.5422 31.8355 27.4101C32.0564 27.2781 32.312 27.2168 32.5684 27.2344C32.9041 27.2344 33.226 27.1003 33.4634 26.8615C33.7007 26.6228 33.8341 26.299 33.8341 25.9613V22.3967C33.8392 22.2264 33.8102 22.0567 33.7489 21.8978C33.6875 21.7389 33.5951 21.594 33.4771 21.4717C33.359 21.3495 33.2178 21.2523 33.0617 21.1859C32.9056 21.1195 32.7378 21.0854 32.5684 21.0855V21.0855ZM22.1263 28.5075C21.1249 28.5075 20.1461 28.2088 19.3135 27.6493C18.4809 27.0897 17.832 26.2944 17.4488 25.3639C17.0656 24.4334 16.9654 23.4095 17.1607 22.4217C17.3561 21.4339 17.8383 20.5266 18.5463 19.8144C19.2544 19.1022 20.1565 18.6172 21.1386 18.4207C22.1207 18.2243 23.1386 18.3251 24.0637 18.7105C24.9889 19.096 25.7796 19.7486 26.3359 20.5861C26.8922 21.4235 27.1891 22.408 27.1891 23.4152C27.1891 24.7658 26.6557 26.061 25.7062 27.016C24.7568 27.971 23.469 28.5075 22.1263 28.5075Z" stroke="#2A91A6" stroke-width="1.68645" stroke-miterlimit="10"/>
<path d="M30.1382 55.6492H13.8232V59.583H30.1382V55.6492Z" stroke="#2A91A6" stroke-width="1.68645" stroke-miterlimit="10"/>
</svg>
