<svg width="73" height="66" viewBox="0 0 73 66" fill="none" xmlns="http://www.w3.org/2000/svg">
<path d="M24.6667 65.1289H1V11.4661C1 12.3929 1.33246 13.2819 1.92424 13.9373C2.51602 14.5927 3.31865 14.9609 4.15556 14.9609H68.8444C69.6813 14.9609 70.484 14.5927 71.0758 13.9373C71.6675 13.2819 72 12.3929 72 11.4661V65.1289H34.1333" stroke="#2A91A6" stroke-width="1.61364" stroke-linecap="round" stroke-linejoin="round"/>
<path d="M68.8287 1H4.17133C2.41985 1 1 2.5725 1 4.51229V11.467C1 13.4068 2.41985 14.9793 4.17133 14.9793H68.8287C70.5801 14.9793 72 13.4068 72 11.467V4.51229C72 2.5725 70.5801 1 68.8287 1Z" stroke="#2A91A6" stroke-width="1.61364" stroke-linecap="round" stroke-linejoin="round"/>
<path d="M13.6197 28.4319H7.30859V52.8956H13.6197V28.4319Z" stroke="#2A91A6" stroke-width="1.61364" stroke-linecap="round" stroke-linejoin="round"/>
<path d="M24.6666 35.427H18.3555V52.9011H24.6666V35.427Z" stroke="#2A91A6" stroke-width="1.61364" stroke-linecap="round" stroke-linejoin="round"/>
<path d="M35.7095 30.1812H29.3984V52.8974H35.7095V30.1812Z" stroke="#2A91A6" stroke-width="1.61364" stroke-linecap="round" stroke-linejoin="round"/>
<path d="M46.7564 42.4128H40.4453V52.8973H46.7564V42.4128Z" stroke="#2A91A6" stroke-width="1.61364" stroke-linecap="round" stroke-linejoin="round"/>
<path d="M52.2773 39.791H63.3218" stroke="#2A91A6" stroke-width="1.61364" stroke-linecap="round" stroke-linejoin="round"/>
<path d="M52.2773 36.2993H68.0551" stroke="#2A91A6" stroke-width="1.61364" stroke-linecap="round" stroke-linejoin="round"/>
<path d="M52.2773 32.8052H60.1662" stroke="#2A91A6" stroke-width="1.61364" stroke-linecap="round" stroke-linejoin="round"/>
<path d="M52.2773 29.3066H68.0551" stroke="#2A91A6" stroke-width="1.61364" stroke-linecap="round" stroke-linejoin="round"/>
</svg>
