<svg width="72" height="72" viewBox="0 0 72 72" fill="none" xmlns="http://www.w3.org/2000/svg">
<path d="M62.7298 23.1627V64.2053C62.7299 64.9713 62.5783 65.7299 62.284 66.4371C61.9896 67.1444 61.5582 67.7864 61.0146 68.3262C60.4711 68.8661 59.8261 69.293 59.1168 69.5825C58.4075 69.872 57.648 70.0183 56.8819 70.013H6.91354C5.37554 70.0095 3.90175 69.396 2.81547 68.3073C1.72919 67.2185 1.11914 65.7433 1.11914 64.2053V14.1967C1.11914 12.66 1.72962 11.1861 2.81628 10.0995C3.90294 9.01282 5.37677 8.40234 6.91354 8.40234H56.8819C57.2957 8.40643 58 8.40233 58.3467 8.40236L62.7298 8.40234V11.5V14V17V20V23.1627Z" stroke="#2A91A6" stroke-width="2.02632" stroke-linecap="round" stroke-linejoin="round"/>
<path d="M57.9505 14.9863V63.4023C57.9505 63.8921 57.7559 64.3618 57.4096 64.7081C57.0633 65.0545 56.5935 65.249 56.1038 65.249H7.72786C7.24041 65.2455 6.77412 65.0494 6.43068 64.7034C6.08724 64.3575 5.89452 63.8898 5.89453 63.4023V15.0264C5.89452 14.5389 6.08724 14.0712 6.43068 13.7253C6.77412 13.3793 7.24041 13.1832 7.72786 13.1797H51.0052H57.9505V14.9863Z" stroke="#2A91A6" stroke-width="2.02632" stroke-linecap="round" stroke-linejoin="round"/>
<path d="M36.6999 65.2462H7.72791C7.48603 65.2462 7.24653 65.1983 7.02322 65.1053C6.79992 65.0124 6.59721 64.8761 6.4268 64.7045C6.25638 64.5328 6.12162 64.3291 6.03027 64.1051C5.93893 63.8812 5.89281 63.6413 5.89458 63.3994V50.4323L14.4323 41.2656L18.7681 45.9359L25.7535 53.4432L26.6367 54.3934L31.4542 59.5454L36.6999 65.2462Z" stroke="#2A91A6" stroke-width="2.02632" stroke-linecap="round" stroke-linejoin="round"/>
<path d="M57.9506 50.4363V63.4035C57.9524 63.6465 57.9058 63.8874 57.8136 64.1123C57.7215 64.3372 57.5855 64.5414 57.4137 64.7133C57.2418 64.8851 57.0375 65.0211 56.8127 65.1133C56.5878 65.2054 56.3469 65.252 56.1039 65.2502H36.7L31.4542 59.5495L26.6367 54.3974L30.116 50.6237L34.9469 45.4315L44.1002 35.5957L57.9506 50.4363Z" stroke="#2A91A6" stroke-width="2.02632" stroke-linecap="round" stroke-linejoin="round"/>
<path d="M34.9751 45.4305L30.1175 50.6228L26.6381 54.3965L25.7549 53.4464L18.7695 45.9391C19.6011 44.5573 20.7658 43.4059 22.1571 42.5904C23.5483 41.7748 25.1219 41.321 26.7338 41.2704C28.3457 41.2198 29.9446 41.5741 31.3843 42.3008C32.824 43.0276 34.0586 44.1036 34.9751 45.4305V45.4305Z" stroke="#2A91A6" stroke-width="2.02632" stroke-linecap="round" stroke-linejoin="round"/>
<path d="M10.6445 19.2419V29.8806" stroke="#2A91A6" stroke-width="2.02632" stroke-linecap="round" stroke-linejoin="round"/>
<path d="M10.6445 33.1738V37.804" stroke="#2A91A6" stroke-width="2.02632" stroke-linecap="round" stroke-linejoin="round"/>
<path d="M53.5001 17.8221L47.5952 7C47.3213 6.44775 47.7231 5.8 48.3395 5.8H50.5247C50.9158 5.8 51.2711 6.02805 51.4339 6.38369L54.1366 12.2863C54.4275 12.9216 55.2636 13.0703 55.7557 12.5742L66.9447 1.29572C67.1325 1.10645 67.388 1 67.6546 1H69.5993C70.4883 1 70.9353 2.07318 70.3092 2.70428L55.0879 18.0474C54.6166 18.5225 53.8207 18.4095 53.5001 17.8221Z" fill="#2A91A6" stroke="#2A91A6" stroke-width="2"/>
<path d="M49.5 7.5L53.3913 15.2825C53.6931 15.8862 54.494 16.0237 54.9798 15.5552L68 3" stroke="white" stroke-width="2" stroke-linecap="round"/>
</svg>
