<svg width="74" height="74" viewBox="0 0 74 74" fill="none" xmlns="http://www.w3.org/2000/svg">
<path d="M60.8313 37.0299C60.8313 23.9697 50.1807 13.3462 37.0904 13.3462C24.0002 13.3462 13.3496 23.9697 13.3496 37.0299C13.3463 40.4362 14.0838 43.8024 15.511 46.8953C15.5342 46.9702 15.5676 47.0416 15.6103 47.1074C17.5352 51.1764 20.5757 54.6154 24.3782 57.0243C28.1808 59.4332 32.5891 60.7131 37.0904 60.715C50.1807 60.715 60.8313 50.087 60.8313 37.0299ZM37.0904 15.1511C49.185 15.1511 59.0263 24.9654 59.0263 37.0299C59.0283 39.7837 58.5072 42.5129 57.4906 45.0723C56.5516 44.2068 55.3434 43.6906 54.0688 43.6103C53.607 43.5878 53.3604 43.8886 53.1979 44.0871C52.9422 44.4002 52.6274 44.6598 52.2713 44.851C51.9153 45.0423 51.525 45.1616 51.1228 45.2019C50.7207 45.2423 50.3145 45.203 49.9275 45.0863C49.5406 44.9696 49.1804 44.7778 48.8676 44.5218C48.6702 44.3605 48.4938 44.1751 48.3427 43.9698C48.2555 43.8534 48.1418 43.7595 48.0109 43.6959C47.8801 43.6323 47.736 43.6009 47.5906 43.6043C46.6862 43.625 45.801 43.8694 45.0141 44.3158C43.9332 43.1207 42.4275 42.3962 40.8191 42.2972C40.3483 42.2672 40.0987 42.5725 39.9167 42.7936C39.5655 43.2232 39.1209 43.567 38.6167 43.7986C38.1125 44.0302 37.562 44.1436 37.0073 44.1301C36.4526 44.1166 35.9084 43.9766 35.416 43.7207C34.9237 43.4649 34.4963 43.0999 34.1665 42.6537C34.0794 42.5371 33.9657 42.443 33.8349 42.3792C33.7041 42.3153 33.5599 42.2836 33.4144 42.2867C32.578 42.3105 31.7552 42.5039 30.9958 42.8553C30.2364 43.2067 29.5564 43.7087 28.9968 44.3308C28.2604 43.9097 27.437 43.6637 26.5903 43.6118C26.1285 43.5908 25.8818 43.8901 25.7194 44.0886C25.4229 44.4514 25.0474 44.7416 24.6216 44.9371C24.1959 45.1326 23.7311 45.2283 23.2627 45.2169C22.7943 45.2054 22.3348 45.0871 21.9191 44.871C21.5034 44.6548 21.1426 44.3466 20.8641 43.9698C20.7776 43.8527 20.664 43.7584 20.533 43.6947C20.402 43.6311 20.2576 43.6 20.1121 43.6043C18.8318 43.6382 17.6034 44.1169 16.6376 44.958C15.6507 42.434 15.1456 39.7474 15.1485 37.0374C15.1545 24.9684 24.9959 15.1511 37.0904 15.1511ZM17.4258 46.7163C18.0165 46.0216 18.8419 45.5682 19.7451 45.4423C20.6214 46.3957 21.8405 46.962 23.1343 47.0168C24.4281 47.0715 25.6907 46.6101 26.6444 45.7341C26.7392 45.6469 26.8294 45.5566 26.9167 45.4634C27.2925 45.5299 27.6558 45.6542 27.9936 45.8319C27.5978 46.6545 27.3922 47.5557 27.392 48.4686V56.6524C23.0738 54.5179 19.5733 51.028 17.4258 46.7163ZM29.1984 57.4436V48.4686C29.2051 47.4019 29.5982 46.3737 30.3047 45.5745C31.0113 44.7753 31.9835 44.2592 33.0414 44.1217C34.0064 45.1979 35.3594 45.8466 36.8027 45.9253C38.2461 46.004 39.6616 45.5062 40.7379 44.5414C40.8774 44.4159 41.0105 44.2833 41.1365 44.1443C42.1641 44.3103 43.0991 44.8366 43.7742 45.6288C44.4493 46.4211 44.8206 47.4277 44.8216 48.4686V57.5053C39.7825 59.3986 34.2238 59.3767 29.1999 57.4436H29.1984ZM46.6265 56.7322V48.4686C46.6264 47.5518 46.4208 46.6467 46.0248 45.8199C46.3977 45.626 46.8012 45.4978 47.2176 45.4408C47.6514 45.9132 48.1741 46.2955 48.7557 46.5659C49.3373 46.8363 49.9665 46.9895 50.6073 47.0168C51.2481 47.044 51.888 46.9448 52.4904 46.7247C53.0929 46.5046 53.6461 46.168 54.1184 45.7341C54.2132 45.6469 54.3034 45.5566 54.3907 45.4634C55.301 45.6276 56.1182 46.1233 56.6844 46.8547C54.5028 51.1589 50.9695 54.6288 46.6265 56.7322Z" fill="#2A91A6"/>
<path d="M40.9899 5.79303C41.1686 5.79317 41.3433 5.74026 41.4919 5.64101C41.6405 5.54176 41.7563 5.40064 41.8246 5.23553C41.8929 5.07041 41.9106 4.88873 41.8755 4.71352C41.8405 4.53831 41.7542 4.37745 41.6277 4.25132L37.6388 0.263929C37.4695 0.0949267 37.2402 0 37.001 0C36.7619 0 36.5325 0.0949267 36.3633 0.263929L32.3744 4.25132C32.2036 4.41926 32.1066 4.64815 32.1046 4.88763C32.1027 5.12711 32.1959 5.35757 32.3639 5.5283C32.5318 5.69904 32.7607 5.79607 33.0002 5.79804C33.2396 5.80001 33.4701 5.70677 33.6408 5.53883L33.6514 5.5283L35.9572 3.221V10.6317C35.9572 10.8711 36.0522 11.1006 36.2215 11.2699C36.3907 11.4391 36.6203 11.5342 36.8596 11.5342C37.099 11.5342 37.3285 11.4391 37.4978 11.2699C37.667 11.1006 37.7621 10.8711 37.7621 10.6317V3.01644C37.7636 2.98939 37.7636 2.96228 37.7621 2.93522L40.3552 5.5283C40.5235 5.69686 40.7517 5.79202 40.9899 5.79303Z" fill="#2A91A6"/>
<path d="M32.3744 68.4722C32.2905 68.556 32.2239 68.6556 32.1785 68.7651C32.1331 68.8747 32.1097 68.9921 32.1097 69.1107C32.1097 69.2293 32.1331 69.3467 32.1785 69.4563C32.2239 69.5659 32.2905 69.6654 32.3744 69.7492L36.3633 73.7366C36.5325 73.9056 36.7619 74.0005 37.0011 74.0005C37.2402 74.0005 37.4696 73.9056 37.6388 73.7366L41.6277 69.7492C41.797 69.5799 41.8922 69.3502 41.8922 69.1107C41.8922 68.8712 41.797 68.6415 41.6277 68.4722C41.4584 68.3029 41.2287 68.2077 40.9892 68.2077C40.7497 68.2077 40.52 68.3029 40.3507 68.4722L38.0449 70.7795V63.3688C38.0449 63.1294 37.9498 62.8999 37.7806 62.7306C37.6113 62.5614 37.3818 62.4663 37.1424 62.4663C36.9031 62.4663 36.6735 62.5614 36.5043 62.7306C36.3351 62.8999 36.24 63.1294 36.24 63.3688V70.9841C36.24 71.0111 36.24 71.0382 36.24 71.0653L33.6484 68.4722C33.4793 68.3037 33.2502 68.209 33.0114 68.209C32.7726 68.209 32.5436 68.3037 32.3744 68.4722Z" fill="#2A91A6"/>
<path d="M4.89056 41.8921C5.06925 41.8922 5.24395 41.8393 5.39254 41.7401C5.54112 41.6408 5.6569 41.4997 5.72521 41.3346C5.79351 41.1695 5.81125 40.9878 5.7762 40.8126C5.74115 40.6374 5.65487 40.4765 5.5283 40.3504L3.221 38.0446H10.6317C10.8711 38.0446 11.1006 37.9495 11.2699 37.7803C11.4391 37.611 11.5342 37.3815 11.5342 37.1421C11.5342 36.9028 11.4391 36.6732 11.2699 36.504C11.1006 36.3347 10.8711 36.2397 10.6317 36.2397H3.01644H2.93522L5.5283 33.6481C5.61284 33.5649 5.68018 33.4659 5.72646 33.3567C5.77274 33.2476 5.79706 33.1303 5.79804 33.0118C5.79902 32.8932 5.77663 32.7756 5.73216 32.6656C5.68768 32.5557 5.62199 32.4556 5.53883 32.3711C5.45568 32.2865 5.35668 32.2192 5.2475 32.1729C5.13832 32.1267 5.0211 32.1023 4.90252 32.1013C4.78394 32.1004 4.66633 32.1228 4.5564 32.1672C4.44648 32.2117 4.34638 32.2774 4.26185 32.3606L4.25132 32.3711L0.263929 36.363C0.0949267 36.5322 0 36.7616 0 37.0007C0 37.2399 0.0949267 37.4693 0.263929 37.6385L4.25132 41.6274C4.33522 41.7114 4.43487 41.778 4.54456 41.8234C4.65426 41.8688 4.77183 41.8922 4.89056 41.8921Z" fill="#2A91A6"/>
<path d="M69.7493 32.3745C69.5814 32.2038 69.3525 32.1067 69.113 32.1048C68.8735 32.1028 68.6431 32.196 68.4723 32.364C68.3016 32.5319 68.2046 32.7608 68.2026 33.0003C68.2006 33.2398 68.2939 33.4702 68.4618 33.641C68.4657 33.6441 68.4692 33.6476 68.4723 33.6515L70.7796 35.9573H63.3689C63.1295 35.9573 62.9 36.0524 62.7308 36.2216C62.5615 36.3909 62.4664 36.6204 62.4664 36.8597C62.4664 37.0991 62.5615 37.3286 62.7308 37.4979C62.9 37.6671 63.1295 37.7622 63.3689 37.7622H70.9842C71.0112 37.7637 71.0384 37.7637 71.0654 37.7622L68.4723 40.3553C68.3016 40.523 68.2045 40.7517 68.2024 40.9911C68.2003 41.2304 68.2933 41.4608 68.4611 41.6315C68.6288 41.8023 68.8575 41.8994 69.0968 41.9015C69.3362 41.9036 69.5665 41.8106 69.7373 41.6428L69.7493 41.6323L73.7367 37.6434C73.9057 37.4742 74.0006 37.2448 74.0006 37.0056C74.0006 36.7665 73.9057 36.5371 73.7367 36.3679L69.7493 32.3745Z" fill="#2A91A6"/>
<path d="M11.4736 18.0166C11.713 18.0166 11.9425 17.9215 12.1118 17.7523C12.281 17.5831 12.3761 17.3535 12.3761 17.1142V13.8517L17.6164 19.0921C17.7875 19.2515 18.0138 19.3383 18.2476 19.3341C18.4814 19.33 18.7044 19.2353 18.8698 19.0699C19.0351 18.9046 19.1298 18.6815 19.134 18.4477C19.1381 18.2139 19.0513 17.9877 18.8919 17.8166L13.5072 12.4319C13.4862 12.4121 13.4641 12.3935 13.441 12.3762H17.114C17.3534 12.3762 17.5829 12.2811 17.7522 12.1119C17.9214 11.9426 18.0165 11.7131 18.0165 11.4738C18.0165 11.2344 17.9214 11.0049 17.7522 10.8356C17.5829 10.6664 17.3534 10.5713 17.114 10.5713H11.4736C11.2343 10.5713 11.0047 10.6664 10.8355 10.8356C10.6662 11.0049 10.5712 11.2344 10.5712 11.4738V17.1142C10.5712 17.3535 10.6662 17.5831 10.8355 17.7523C11.0047 17.9215 11.2343 18.0166 11.4736 18.0166Z" fill="#2A91A6"/>
<path d="M55.9827 62.5277C55.9827 62.7671 56.0778 62.9966 56.2471 63.1659C56.4163 63.3351 56.6458 63.4302 56.8852 63.4302H62.5256C62.7649 63.4302 62.9945 63.3351 63.1637 63.1659C63.333 62.9966 63.4281 62.7671 63.4281 62.5277V56.8873C63.4281 56.648 63.333 56.4184 63.1637 56.2492C62.9945 56.08 62.7649 55.9849 62.5256 55.9849C62.2862 55.9849 62.0567 56.08 61.8875 56.2492C61.7182 56.4184 61.6231 56.648 61.6231 56.8873V60.1497L56.3828 54.9094C56.2132 54.7424 55.9845 54.6491 55.7464 54.6499C55.5083 54.6507 55.2802 54.7456 55.1117 54.9139C54.9433 55.0821 54.8482 55.3101 54.8471 55.5482C54.8459 55.7862 54.939 56.0151 55.1058 56.1849L60.4905 61.5696C60.512 61.5894 60.5346 61.608 60.5582 61.6253H56.8852C56.6458 61.6253 56.4163 61.7204 56.2471 61.8896C56.0778 62.0588 55.9827 62.2884 55.9827 62.5277Z" fill="#2A91A6"/>
<path d="M63.43 17.1142V11.4738C63.43 11.2344 63.335 11.0049 63.1657 10.8356C62.9965 10.6664 62.7669 10.5713 62.5276 10.5713H56.8872C56.6478 10.5713 56.4183 10.6664 56.249 10.8356C56.0798 11.0049 55.9847 11.2344 55.9847 11.4738C55.9847 11.7131 56.0798 11.9426 56.249 12.1119C56.4183 12.2811 56.6478 12.3762 56.8872 12.3762H60.1496L54.9093 17.6165C54.8243 17.6992 54.7565 17.7978 54.7097 17.9066C54.6629 18.0155 54.6379 18.1326 54.6363 18.2511C54.6347 18.3696 54.6565 18.4872 54.7003 18.5973C54.7442 18.7074 54.8093 18.8078 54.892 18.8928C54.9746 18.9777 55.0732 19.0455 55.1821 19.0924C55.291 19.1392 55.408 19.1641 55.5265 19.1657C55.645 19.1673 55.7627 19.1456 55.8728 19.1017C55.9829 19.0578 56.0833 18.9927 56.1682 18.9101L56.1848 18.892L61.5695 13.5073C61.5905 13.4878 61.6056 13.4622 61.6251 13.4411V17.1142C61.6251 17.3535 61.7202 17.583 61.8894 17.7523C62.0587 17.9215 62.2882 18.0166 62.5276 18.0166C62.7669 18.0166 62.9965 17.9215 63.1657 17.7523C63.335 17.583 63.43 17.3535 63.43 17.1142Z" fill="#2A91A6"/>
<path d="M19.0919 55.1085C18.9227 54.9395 18.6933 54.8445 18.4542 54.8445C18.215 54.8445 17.9857 54.9395 17.8165 55.1085L12.4317 60.4932C12.412 60.5142 12.3934 60.5363 12.3761 60.5594V56.8863C12.3761 56.647 12.281 56.4174 12.1118 56.2482C11.9425 56.0789 11.713 55.9839 11.4736 55.9839C11.2343 55.9839 11.0047 56.0789 10.8355 56.2482C10.6662 56.4174 10.5712 56.647 10.5712 56.8863V62.5267C10.5712 62.7661 10.6662 62.9956 10.8355 63.1649C11.0047 63.3341 11.2343 63.4292 11.4736 63.4292H17.114C17.3534 63.4292 17.5829 63.3341 17.7522 63.1649C17.9214 62.9956 18.0165 62.7661 18.0165 62.5267C18.0165 62.2874 17.9214 62.0578 17.7522 61.8886C17.5829 61.7193 17.3534 61.6243 17.114 61.6243H13.8516L19.0919 56.384C19.5898 56.384 19.9944 56.2441 19.9944 55.7462C19.9944 55.5069 19.8993 55.2773 19.7301 55.1081C19.5608 54.9388 19.3313 54.8438 19.0919 54.8438V55.1085Z" fill="#2A91A6"/>
<path d="M37.0094 42.329C38.493 42.3278 39.9155 41.738 40.9645 40.6889C42.0136 39.6398 42.6035 38.2174 42.6047 36.7338V34.3874C42.5806 32.9191 41.9804 31.5191 40.9336 30.4893C39.8867 29.4595 38.4771 28.8823 37.0086 28.8823C35.5402 28.8823 34.1305 29.4595 33.0837 30.4893C32.0368 31.5191 31.4367 32.9191 31.4126 34.3874V36.7338C31.4146 38.2174 32.0049 39.6396 33.0541 40.6886C34.1034 41.7375 35.5258 42.3274 37.0094 42.329ZM33.219 34.3859C33.2388 33.3935 33.6469 32.4484 34.3557 31.7536C35.0645 31.0587 36.0175 30.6695 37.0101 30.6695C38.0027 30.6695 38.9557 31.0587 39.6645 31.7536C40.3734 32.4484 40.7815 33.3935 40.8012 34.3859V36.7323C40.8113 37.2365 40.7206 37.7376 40.5346 38.2064C40.3486 38.6751 40.071 39.1021 39.7179 39.4622C39.3649 39.8223 38.9436 40.1084 38.4786 40.3037C38.0137 40.499 37.5144 40.5996 37.0101 40.5996C36.5058 40.5996 36.0066 40.499 35.5416 40.3037C35.0767 40.1084 34.6554 39.8223 34.3023 39.4622C33.9493 39.1021 33.6716 38.6751 33.4856 38.2064C33.2996 37.7376 33.209 37.2365 33.219 36.7323V34.3859Z" fill="#2A91A6"/>
<path d="M50.7382 43.8647C52.0668 43.8635 53.3406 43.3353 54.2802 42.396C55.2197 41.4567 55.7483 40.183 55.7499 38.8545V36.7999C55.7271 35.4859 55.1892 34.2335 54.2519 33.3123C53.3147 32.3912 52.0531 31.875 50.739 31.875C49.4248 31.875 48.1632 32.3912 47.226 33.3123C46.2887 34.2335 45.7508 35.4859 45.728 36.7999V38.8545C45.7292 40.1829 46.2575 41.4565 47.1968 42.3959C48.1361 43.3352 49.4098 43.8635 50.7382 43.8647ZM47.533 36.7954C47.5511 35.9571 47.8969 35.1593 48.4961 34.5729C49.0954 33.9864 49.9005 33.658 50.739 33.658C51.5774 33.658 52.3825 33.9864 52.9818 34.5729C53.5811 35.1593 53.9268 35.9571 53.945 36.7954V38.85C53.9438 39.6999 53.6055 40.5147 53.0043 41.1156C52.4032 41.7165 51.5882 42.0544 50.7382 42.0552C49.8886 42.0552 49.0737 41.7182 48.4723 41.1182C47.8708 40.5182 47.5319 39.704 47.5299 38.8545L47.533 36.7954Z" fill="#2A91A6"/>
<path d="M23.2621 43.8647C24.591 43.8643 25.8655 43.3364 26.8055 42.3969C27.7454 41.4575 28.2741 40.1834 28.2753 38.8545V36.7999C28.2525 35.4859 27.7146 34.2335 26.7773 33.3123C25.8401 32.3912 24.5785 31.875 23.2644 31.875C21.9502 31.875 20.6886 32.3912 19.7514 33.3123C18.8141 34.2335 18.2762 35.4859 18.2534 36.7999V38.8545C18.255 40.1825 18.7832 41.4557 19.7221 42.3949C20.661 43.3341 21.9341 43.8627 23.2621 43.8647ZM20.0553 36.7954C20.0735 35.9571 20.4192 35.1593 21.0185 34.5729C21.6178 33.9864 22.4229 33.658 23.2613 33.658C24.0998 33.658 24.9049 33.9864 25.5042 34.5729C26.1034 35.1593 26.4492 35.9571 26.4673 36.7954V38.85C26.4665 39.6998 26.1286 40.5146 25.5277 41.1155C24.9267 41.7165 24.1119 42.0544 23.2621 42.0552C22.4121 42.0544 21.5972 41.7165 20.996 41.1156C20.3948 40.5147 20.0565 39.6999 20.0553 38.85V36.7954Z" fill="#2A91A6"/>
</svg>
